%TF.GenerationSoftware,KiCad,Pcbnew,(5.99.0-9986-gea87f52d5a)*%
%TF.CreationDate,2021-05-05T12:52:16-03:00*%
%TF.ProjectId,Sensors_V2,53656e73-6f72-4735-9f56-322e6b696361,rev?*%
%TF.SameCoordinates,Original*%
%TF.FileFunction,Copper,L2,Bot*%
%TF.FilePolarity,Positive*%
%FSLAX46Y46*%
G04 Gerber Fmt 4.6, Leading zero omitted, Abs format (unit mm)*
G04 Created by KiCad (PCBNEW (5.99.0-9986-gea87f52d5a)) date 2021-05-05 12:52:16*
%MOMM*%
%LPD*%
G01*
G04 APERTURE LIST*
G04 Aperture macros list*
%AMFreePoly0*
4,1,6,1.000000,0.000000,0.500000,-0.750000,-0.500000,-0.750000,-0.500000,0.750000,0.500000,0.750000,1.000000,0.000000,1.000000,0.000000,$1*%
%AMFreePoly1*
4,1,6,0.500000,-0.750000,-0.650000,-0.750000,-0.150000,0.000000,-0.650000,0.750000,0.500000,0.750000,0.500000,-0.750000,0.500000,-0.750000,$1*%
G04 Aperture macros list end*
%TA.AperFunction,ComponentPad*%
%ADD10R,1.000000X1.000000*%
%TD*%
%TA.AperFunction,ComponentPad*%
%ADD11O,1.000000X1.000000*%
%TD*%
%TA.AperFunction,SMDPad,CuDef*%
%ADD12FreePoly0,270.000000*%
%TD*%
%TA.AperFunction,SMDPad,CuDef*%
%ADD13FreePoly1,270.000000*%
%TD*%
%TA.AperFunction,ViaPad*%
%ADD14C,0.600000*%
%TD*%
%TA.AperFunction,ViaPad*%
%ADD15C,0.800000*%
%TD*%
%TA.AperFunction,Conductor*%
%ADD16C,0.400000*%
%TD*%
%TA.AperFunction,Conductor*%
%ADD17C,0.350000*%
%TD*%
G04 APERTURE END LIST*
D10*
%TO.P,J1,1,Pin_1*%
%TO.N,+5V*%
X145000000Y-86000000D03*
D11*
%TO.P,J1,2,Pin_2*%
%TO.N,+12V*%
X143730000Y-86000000D03*
%TO.P,J1,3,Pin_3*%
%TO.N,/IN*%
X142460000Y-86000000D03*
%TO.P,J1,4,Pin_4*%
%TO.N,Net-(J1-Pad4)*%
X141190000Y-86000000D03*
%TO.P,J1,5,Pin_5*%
%TO.N,GND*%
X139920000Y-86000000D03*
%TD*%
D12*
%TO.P,JP1,1,1*%
%TO.N,Net-(JP1-Pad1)*%
X140000000Y-82275000D03*
D13*
%TO.P,JP1,2,2*%
%TO.N,Net-(J1-Pad4)*%
X140000000Y-83725000D03*
%TD*%
D14*
%TO.N,GND*%
X147500000Y-79800000D03*
D15*
%TO.N,+12V*%
X142350000Y-80550000D03*
D14*
%TO.N,Net-(JP1-Pad1)*%
X141700000Y-83000000D03*
%TD*%
D16*
%TO.N,+12V*%
X143730000Y-86000000D02*
X143730000Y-81930000D01*
X143730000Y-81930000D02*
X142350000Y-80550000D01*
D17*
%TO.N,Net-(JP1-Pad1)*%
X140975000Y-82275000D02*
X140000000Y-82275000D01*
X141700000Y-83000000D02*
X140975000Y-82275000D01*
%TO.N,Net-(J1-Pad4)*%
X140000000Y-83725000D02*
X141200000Y-84925000D01*
X141200000Y-85990000D02*
X141190000Y-86000000D01*
X141200000Y-84925000D02*
X141200000Y-85990000D01*
%TD*%
%TA.AperFunction,Conductor*%
%TO.N,GND*%
G36*
X149434121Y-77528002D02*
G01*
X149480614Y-77581658D01*
X149492000Y-77634000D01*
X149492000Y-87366000D01*
X149471998Y-87434121D01*
X149418342Y-87480614D01*
X149366000Y-87492000D01*
X135634000Y-87492000D01*
X135565879Y-87471998D01*
X135519386Y-87418342D01*
X135508000Y-87366000D01*
X135508000Y-86265975D01*
X138947473Y-86265975D01*
X138976436Y-86366983D01*
X138980955Y-86378395D01*
X139065688Y-86543268D01*
X139072335Y-86553581D01*
X139187480Y-86698858D01*
X139196003Y-86707684D01*
X139337175Y-86827831D01*
X139347247Y-86834831D01*
X139509066Y-86925268D01*
X139520306Y-86930179D01*
X139648769Y-86971919D01*
X139662867Y-86972322D01*
X139666000Y-86965950D01*
X139666000Y-86272115D01*
X139661525Y-86256876D01*
X139660135Y-86255671D01*
X139652452Y-86254000D01*
X138962154Y-86254000D01*
X138948623Y-86257973D01*
X138947473Y-86265975D01*
X135508000Y-86265975D01*
X135508000Y-85742832D01*
X138948073Y-85742832D01*
X138954632Y-85746000D01*
X139647885Y-85746000D01*
X139663124Y-85741525D01*
X139664329Y-85740135D01*
X139666000Y-85732452D01*
X139666000Y-85041948D01*
X139662027Y-85028417D01*
X139654232Y-85027297D01*
X139546443Y-85059021D01*
X139535059Y-85063620D01*
X139370778Y-85149504D01*
X139360517Y-85156218D01*
X139216041Y-85272380D01*
X139207281Y-85280958D01*
X139088119Y-85422970D01*
X139081193Y-85433084D01*
X138991882Y-85595542D01*
X138987054Y-85606806D01*
X138948377Y-85728731D01*
X138948073Y-85742832D01*
X135508000Y-85742832D01*
X135508000Y-81775000D01*
X138736500Y-81775000D01*
X138736500Y-82775000D01*
X138740570Y-82839528D01*
X138753155Y-82885214D01*
X138756398Y-82936605D01*
X138736500Y-83075000D01*
X138736500Y-84225000D01*
X138741727Y-84298079D01*
X138743631Y-84304562D01*
X138779761Y-84427611D01*
X138782904Y-84438316D01*
X138787775Y-84445895D01*
X138857051Y-84553691D01*
X138857053Y-84553694D01*
X138861923Y-84561271D01*
X138868733Y-84567172D01*
X138965569Y-84651082D01*
X138965572Y-84651084D01*
X138972381Y-84656984D01*
X138980579Y-84660728D01*
X139000186Y-84669682D01*
X139105330Y-84717700D01*
X139114245Y-84718982D01*
X139114246Y-84718982D01*
X139245552Y-84737861D01*
X139245559Y-84737862D01*
X139250000Y-84738500D01*
X139994695Y-84738500D01*
X140062816Y-84758502D01*
X140083790Y-84775405D01*
X140165730Y-84857345D01*
X140199756Y-84919657D01*
X140194691Y-84990472D01*
X140190473Y-85000449D01*
X140174000Y-85035170D01*
X140174000Y-86957691D01*
X140177973Y-86971222D01*
X140186188Y-86972403D01*
X140280390Y-86946101D01*
X140291823Y-86941667D01*
X140457296Y-86858080D01*
X140467648Y-86851511D01*
X140476085Y-86844919D01*
X140542079Y-86818739D01*
X140615129Y-86834217D01*
X140784246Y-86928734D01*
X140972366Y-86989857D01*
X141168775Y-87013278D01*
X141174910Y-87012806D01*
X141174912Y-87012806D01*
X141359850Y-86998576D01*
X141359854Y-86998575D01*
X141365992Y-86998103D01*
X141556507Y-86944910D01*
X141733060Y-86855726D01*
X141746560Y-86845179D01*
X141812551Y-86819002D01*
X141885600Y-86834481D01*
X142054246Y-86928734D01*
X142242366Y-86989857D01*
X142438775Y-87013278D01*
X142444910Y-87012806D01*
X142444912Y-87012806D01*
X142629850Y-86998576D01*
X142629854Y-86998575D01*
X142635992Y-86998103D01*
X142826507Y-86944910D01*
X143003060Y-86855726D01*
X143016560Y-86845179D01*
X143082551Y-86819002D01*
X143155600Y-86834481D01*
X143324246Y-86928734D01*
X143512366Y-86989857D01*
X143708775Y-87013278D01*
X143714910Y-87012806D01*
X143714912Y-87012806D01*
X143899850Y-86998576D01*
X143899854Y-86998575D01*
X143905992Y-86998103D01*
X144096507Y-86944910D01*
X144102005Y-86942133D01*
X144102012Y-86942130D01*
X144115652Y-86935240D01*
X144185474Y-86922379D01*
X144224805Y-86933091D01*
X144344936Y-86987953D01*
X144355330Y-86992700D01*
X144364245Y-86993982D01*
X144364246Y-86993982D01*
X144495552Y-87012861D01*
X144495559Y-87012862D01*
X144500000Y-87013500D01*
X145500000Y-87013500D01*
X145573079Y-87008273D01*
X145651165Y-86985345D01*
X145704670Y-86969635D01*
X145704672Y-86969634D01*
X145713316Y-86967096D01*
X145762885Y-86935240D01*
X145828691Y-86892949D01*
X145828694Y-86892947D01*
X145836271Y-86888077D01*
X145842172Y-86881267D01*
X145926082Y-86784431D01*
X145926084Y-86784428D01*
X145931984Y-86777619D01*
X145992700Y-86644670D01*
X145993982Y-86635754D01*
X146012861Y-86504448D01*
X146012862Y-86504441D01*
X146013500Y-86500000D01*
X146013500Y-85500000D01*
X146008273Y-85426921D01*
X145967096Y-85286684D01*
X145941754Y-85247252D01*
X145892949Y-85171309D01*
X145892947Y-85171306D01*
X145888077Y-85163729D01*
X145871661Y-85149504D01*
X145784431Y-85073918D01*
X145784428Y-85073916D01*
X145777619Y-85068016D01*
X145757923Y-85059021D01*
X145652864Y-85011042D01*
X145652863Y-85011042D01*
X145644670Y-85007300D01*
X145635755Y-85006018D01*
X145635754Y-85006018D01*
X145504448Y-84987139D01*
X145504441Y-84987138D01*
X145500000Y-84986500D01*
X144564500Y-84986500D01*
X144496379Y-84966498D01*
X144449886Y-84912842D01*
X144438500Y-84860500D01*
X144438500Y-81955954D01*
X144438792Y-81947383D01*
X144442006Y-81900235D01*
X144442523Y-81892659D01*
X144431534Y-81829691D01*
X144430574Y-81823188D01*
X144428771Y-81808283D01*
X144422904Y-81759806D01*
X144420218Y-81752698D01*
X144419577Y-81750088D01*
X144415130Y-81733831D01*
X144414355Y-81731263D01*
X144413048Y-81723776D01*
X144393993Y-81680368D01*
X144387376Y-81665294D01*
X144384883Y-81659186D01*
X144364992Y-81606546D01*
X144364992Y-81606545D01*
X144362306Y-81599438D01*
X144358000Y-81593173D01*
X144356750Y-81590782D01*
X144348567Y-81576080D01*
X144347193Y-81573757D01*
X144344139Y-81566799D01*
X144339514Y-81560772D01*
X144339512Y-81560768D01*
X144305254Y-81516122D01*
X144301376Y-81510785D01*
X144269506Y-81464413D01*
X144269505Y-81464412D01*
X144265204Y-81458154D01*
X144251910Y-81446309D01*
X144221318Y-81419053D01*
X144216042Y-81414072D01*
X143284660Y-80482690D01*
X143250634Y-80420378D01*
X143248445Y-80406764D01*
X143244228Y-80366637D01*
X143244228Y-80366636D01*
X143243538Y-80360073D01*
X143184524Y-80178446D01*
X143089037Y-80013058D01*
X142961251Y-79871137D01*
X142955909Y-79867256D01*
X142955907Y-79867254D01*
X142812092Y-79762767D01*
X142812091Y-79762766D01*
X142806750Y-79758886D01*
X142800722Y-79756202D01*
X142800720Y-79756201D01*
X142638318Y-79683895D01*
X142638317Y-79683895D01*
X142632287Y-79681210D01*
X142538887Y-79661357D01*
X142451944Y-79642876D01*
X142451939Y-79642876D01*
X142445487Y-79641504D01*
X142254513Y-79641504D01*
X142248061Y-79642876D01*
X142248056Y-79642876D01*
X142161113Y-79661357D01*
X142067713Y-79681210D01*
X142061683Y-79683895D01*
X142061682Y-79683895D01*
X141899280Y-79756201D01*
X141899278Y-79756202D01*
X141893250Y-79758886D01*
X141887909Y-79762766D01*
X141887908Y-79762767D01*
X141744093Y-79867254D01*
X141744091Y-79867256D01*
X141738749Y-79871137D01*
X141610963Y-80013058D01*
X141515476Y-80178446D01*
X141456462Y-80360073D01*
X141455772Y-80366636D01*
X141455772Y-80366637D01*
X141437190Y-80543435D01*
X141436500Y-80550000D01*
X141456462Y-80739927D01*
X141515476Y-80921554D01*
X141610963Y-81086942D01*
X141738749Y-81228863D01*
X141744091Y-81232744D01*
X141744093Y-81232746D01*
X141887908Y-81337233D01*
X141893250Y-81341114D01*
X141899278Y-81343798D01*
X141899280Y-81343799D01*
X142011434Y-81393733D01*
X142067713Y-81418790D01*
X142161518Y-81438729D01*
X142220564Y-81451280D01*
X142283462Y-81485432D01*
X142984595Y-82186565D01*
X143018621Y-82248877D01*
X143021500Y-82275660D01*
X143021500Y-84947636D01*
X143001498Y-85015757D01*
X142947842Y-85062250D01*
X142877568Y-85072354D01*
X142852809Y-85065491D01*
X142852747Y-85065692D01*
X142663792Y-85007200D01*
X142657674Y-85006557D01*
X142657669Y-85006556D01*
X142473205Y-84987169D01*
X142473203Y-84987169D01*
X142467076Y-84986525D01*
X142384226Y-84994065D01*
X142276228Y-85003893D01*
X142276225Y-85003894D01*
X142270089Y-85004452D01*
X142264183Y-85006190D01*
X142264179Y-85006191D01*
X142142688Y-85041948D01*
X142080336Y-85060299D01*
X142074875Y-85063154D01*
X142074870Y-85063156D01*
X142067872Y-85066814D01*
X141998236Y-85080647D01*
X141932176Y-85054635D01*
X141890666Y-84997038D01*
X141883500Y-84955151D01*
X141883500Y-84952747D01*
X141883792Y-84944177D01*
X141887040Y-84896542D01*
X141887040Y-84896538D01*
X141887556Y-84888966D01*
X141876976Y-84828341D01*
X141876016Y-84821838D01*
X141869539Y-84768311D01*
X141869538Y-84768308D01*
X141868626Y-84760770D01*
X141865942Y-84753668D01*
X141864738Y-84748765D01*
X141861879Y-84738317D01*
X141860420Y-84733483D01*
X141859114Y-84726002D01*
X141834392Y-84669681D01*
X141831900Y-84663577D01*
X141812836Y-84613126D01*
X141812835Y-84613125D01*
X141810151Y-84606021D01*
X141805848Y-84599761D01*
X141803481Y-84595233D01*
X141798246Y-84585828D01*
X141795673Y-84581477D01*
X141792621Y-84574524D01*
X141787999Y-84568501D01*
X141787997Y-84568497D01*
X141755156Y-84525697D01*
X141751280Y-84520363D01*
X141716451Y-84469687D01*
X141671931Y-84430021D01*
X141666656Y-84425041D01*
X141300405Y-84058790D01*
X141266379Y-83996478D01*
X141263500Y-83969695D01*
X141263500Y-83881484D01*
X141283502Y-83813363D01*
X141337158Y-83766870D01*
X141407432Y-83756766D01*
X141433420Y-83763387D01*
X141496589Y-83786879D01*
X141496593Y-83786880D01*
X141503197Y-83789336D01*
X141510178Y-83790267D01*
X141510180Y-83790268D01*
X141559766Y-83796884D01*
X141682963Y-83813322D01*
X141689974Y-83812684D01*
X141689978Y-83812684D01*
X141830059Y-83799934D01*
X141863577Y-83796884D01*
X141870279Y-83794706D01*
X141870281Y-83794706D01*
X142029361Y-83743018D01*
X142029364Y-83743017D01*
X142036060Y-83740841D01*
X142191841Y-83647977D01*
X142323177Y-83522908D01*
X142423540Y-83371849D01*
X142487942Y-83202309D01*
X142513183Y-83022714D01*
X142513500Y-83000000D01*
X142493284Y-82819770D01*
X142477694Y-82775000D01*
X142435959Y-82655155D01*
X142433641Y-82648498D01*
X142337535Y-82494696D01*
X142209742Y-82366009D01*
X142056615Y-82268831D01*
X141895189Y-82211350D01*
X141848362Y-82181747D01*
X141477936Y-81811321D01*
X141472082Y-81805055D01*
X141440690Y-81769070D01*
X141435696Y-81763345D01*
X141385367Y-81727973D01*
X141380072Y-81724040D01*
X141337637Y-81690767D01*
X141331662Y-81686082D01*
X141324743Y-81682958D01*
X141320467Y-81680368D01*
X141310980Y-81674957D01*
X141306563Y-81672589D01*
X141300351Y-81668223D01*
X141293278Y-81665465D01*
X141286582Y-81661875D01*
X141288062Y-81659114D01*
X141243166Y-81624484D01*
X141224217Y-81585938D01*
X141217096Y-81561684D01*
X141184385Y-81510785D01*
X141142949Y-81446309D01*
X141142947Y-81446306D01*
X141138077Y-81438729D01*
X141115370Y-81419053D01*
X141034431Y-81348918D01*
X141034428Y-81348916D01*
X141027619Y-81343016D01*
X140894670Y-81282300D01*
X140885755Y-81281018D01*
X140885754Y-81281018D01*
X140754448Y-81262139D01*
X140754441Y-81262138D01*
X140750000Y-81261500D01*
X139250000Y-81261500D01*
X139176921Y-81266727D01*
X139123884Y-81282300D01*
X139045330Y-81305365D01*
X139045328Y-81305366D01*
X139036684Y-81307904D01*
X139029105Y-81312775D01*
X138921309Y-81382051D01*
X138921306Y-81382053D01*
X138913729Y-81386923D01*
X138907828Y-81393733D01*
X138823918Y-81490569D01*
X138823916Y-81490572D01*
X138818016Y-81497381D01*
X138814272Y-81505579D01*
X138777576Y-81585933D01*
X138757300Y-81630330D01*
X138756018Y-81639245D01*
X138756018Y-81639246D01*
X138737139Y-81770552D01*
X138737138Y-81770559D01*
X138736500Y-81775000D01*
X135508000Y-81775000D01*
X135508000Y-77634000D01*
X135528002Y-77565879D01*
X135581658Y-77519386D01*
X135634000Y-77508000D01*
X149366000Y-77508000D01*
X149434121Y-77528002D01*
G37*
%TD.AperFunction*%
%TD*%
M02*
