%TF.GenerationSoftware,KiCad,Pcbnew,(5.99.0-9986-gea87f52d5a)*%
%TF.CreationDate,2021-05-05T12:52:16-03:00*%
%TF.ProjectId,Sensors_V2,53656e73-6f72-4735-9f56-322e6b696361,rev?*%
%TF.SameCoordinates,Original*%
%TF.FileFunction,Copper,L1,Top*%
%TF.FilePolarity,Positive*%
%FSLAX46Y46*%
G04 Gerber Fmt 4.6, Leading zero omitted, Abs format (unit mm)*
G04 Created by KiCad (PCBNEW (5.99.0-9986-gea87f52d5a)) date 2021-05-05 12:52:16*
%MOMM*%
%LPD*%
G01*
G04 APERTURE LIST*
G04 Aperture macros list*
%AMRoundRect*
0 Rectangle with rounded corners*
0 $1 Rounding radius*
0 $2 $3 $4 $5 $6 $7 $8 $9 X,Y pos of 4 corners*
0 Add a 4 corners polygon primitive as box body*
4,1,4,$2,$3,$4,$5,$6,$7,$8,$9,$2,$3,0*
0 Add four circle primitives for the rounded corners*
1,1,$1+$1,$2,$3*
1,1,$1+$1,$4,$5*
1,1,$1+$1,$6,$7*
1,1,$1+$1,$8,$9*
0 Add four rect primitives between the rounded corners*
20,1,$1+$1,$2,$3,$4,$5,0*
20,1,$1+$1,$4,$5,$6,$7,0*
20,1,$1+$1,$6,$7,$8,$9,0*
20,1,$1+$1,$8,$9,$2,$3,0*%
G04 Aperture macros list end*
%TA.AperFunction,SMDPad,CuDef*%
%ADD10RoundRect,0.218750X0.256250X-0.218750X0.256250X0.218750X-0.256250X0.218750X-0.256250X-0.218750X0*%
%TD*%
%TA.AperFunction,SMDPad,CuDef*%
%ADD11RoundRect,0.218750X-0.256250X0.218750X-0.256250X-0.218750X0.256250X-0.218750X0.256250X0.218750X0*%
%TD*%
%TA.AperFunction,ComponentPad*%
%ADD12R,1.000000X1.000000*%
%TD*%
%TA.AperFunction,ComponentPad*%
%ADD13O,1.000000X1.000000*%
%TD*%
%TA.AperFunction,SMDPad,CuDef*%
%ADD14R,1.060000X0.650000*%
%TD*%
%TA.AperFunction,SMDPad,CuDef*%
%ADD15R,1.700000X1.300000*%
%TD*%
%TA.AperFunction,ViaPad*%
%ADD16C,0.600000*%
%TD*%
%TA.AperFunction,ViaPad*%
%ADD17C,0.800000*%
%TD*%
%TA.AperFunction,Conductor*%
%ADD18C,0.400000*%
%TD*%
%TA.AperFunction,Conductor*%
%ADD19C,0.350000*%
%TD*%
G04 APERTURE END LIST*
D10*
%TO.P,R6,1*%
%TO.N,Net-(D1-Pad1)*%
X137400000Y-80387500D03*
%TO.P,R6,2*%
%TO.N,GND*%
X137400000Y-78812500D03*
%TD*%
D11*
%TO.P,R3,1*%
%TO.N,Net-(R3-Pad1)*%
X145100000Y-82400000D03*
%TO.P,R3,2*%
%TO.N,/IN*%
X145100000Y-83975000D03*
%TD*%
D12*
%TO.P,J1,1,Pin_1*%
%TO.N,+5V*%
X145000000Y-86000000D03*
D13*
%TO.P,J1,2,Pin_2*%
%TO.N,+12V*%
X143730000Y-86000000D03*
%TO.P,J1,3,Pin_3*%
%TO.N,/IN*%
X142460000Y-86000000D03*
%TO.P,J1,4,Pin_4*%
%TO.N,Net-(J1-Pad4)*%
X141190000Y-86000000D03*
%TO.P,J1,5,Pin_5*%
%TO.N,GND*%
X139920000Y-86000000D03*
%TD*%
D10*
%TO.P,C1,1*%
%TO.N,/IN*%
X148100000Y-83987500D03*
%TO.P,C1,2*%
%TO.N,GND*%
X148100000Y-82412500D03*
%TD*%
D14*
%TO.P,U1,1,+*%
%TO.N,Net-(R3-Pad1)*%
X145850000Y-80700000D03*
%TO.P,U1,2,V-*%
%TO.N,GND*%
X145850000Y-79750000D03*
%TO.P,U1,3,-*%
%TO.N,Net-(R4-Pad1)*%
X145850000Y-78800000D03*
%TO.P,U1,4*%
X143650000Y-78800000D03*
%TO.P,U1,5,V+*%
%TO.N,+12V*%
X143650000Y-80700000D03*
%TD*%
D10*
%TO.P,R2,1*%
%TO.N,/IN*%
X143575000Y-83975000D03*
%TO.P,R2,2*%
%TO.N,+5V*%
X143575000Y-82400000D03*
%TD*%
%TO.P,R4,1*%
%TO.N,Net-(R4-Pad1)*%
X140400000Y-80387500D03*
%TO.P,R4,2*%
%TO.N,Net-(R4-Pad2)*%
X140400000Y-78812500D03*
%TD*%
%TO.P,R5,1*%
%TO.N,Net-(D1-Pad1)*%
X138900000Y-80387500D03*
%TO.P,R5,2*%
%TO.N,Net-(R4-Pad2)*%
X138900000Y-78812500D03*
%TD*%
D15*
%TO.P,D1,1,K*%
%TO.N,Net-(D1-Pad1)*%
X137200000Y-82250000D03*
%TO.P,D1,2,A*%
%TO.N,GND*%
X137200000Y-85750000D03*
%TD*%
D10*
%TO.P,R1,1*%
%TO.N,/IN*%
X146600000Y-83987500D03*
%TO.P,R1,2*%
%TO.N,GND*%
X146600000Y-82412500D03*
%TD*%
D14*
%TO.P,U2,1,+*%
%TO.N,Net-(D1-Pad1)*%
X139550000Y-82000000D03*
%TO.P,U2,2,V-*%
%TO.N,GND*%
X139550000Y-82950000D03*
%TO.P,U2,3,-*%
%TO.N,Net-(JP1-Pad1)*%
X139550000Y-83900000D03*
%TO.P,U2,4*%
X141750000Y-83900000D03*
%TO.P,U2,5,V+*%
%TO.N,+5V*%
X141750000Y-82000000D03*
%TD*%
D16*
%TO.N,GND*%
X147500000Y-79800000D03*
D17*
%TO.N,+12V*%
X142350000Y-80550000D03*
D16*
%TO.N,Net-(JP1-Pad1)*%
X141700000Y-83000000D03*
%TD*%
D18*
%TO.N,GND*%
X139550000Y-82950000D02*
X138620000Y-82950000D01*
X137200000Y-84370000D02*
X137200000Y-85750000D01*
X145850000Y-79750000D02*
X147450000Y-79750000D01*
X147450000Y-79750000D02*
X147500000Y-79800000D01*
X138620000Y-82950000D02*
X137200000Y-84370000D01*
D19*
%TO.N,Net-(D1-Pad1)*%
X137200000Y-80587500D02*
X137400000Y-80387500D01*
X139550000Y-82000000D02*
X137450000Y-82000000D01*
X137200000Y-82250000D02*
X137200000Y-80587500D01*
X137400000Y-80387500D02*
X138900000Y-80387500D01*
X137450000Y-82000000D02*
X137200000Y-82250000D01*
D18*
%TO.N,+12V*%
X142500000Y-80700000D02*
X143650000Y-80700000D01*
X142350000Y-80550000D02*
X142500000Y-80700000D01*
%TO.N,/IN*%
X145100000Y-83975000D02*
X146587500Y-83975000D01*
X146600000Y-83987500D02*
X146600000Y-86120020D01*
X146600000Y-86120020D02*
X145720020Y-87000000D01*
X142460000Y-86560000D02*
X142460000Y-86000000D01*
X145720020Y-87000000D02*
X142900000Y-87000000D01*
X146600000Y-83987500D02*
X148100000Y-83987500D01*
X142900000Y-87000000D02*
X142460000Y-86560000D01*
X143575000Y-83975000D02*
X145100000Y-83975000D01*
X146587500Y-83975000D02*
X146600000Y-83987500D01*
D19*
%TO.N,+5V*%
X142655011Y-84655011D02*
X142655011Y-83155011D01*
X142650000Y-83150000D02*
X143400000Y-82400000D01*
X142655011Y-83155011D02*
X142650000Y-83150000D01*
X143400000Y-82400000D02*
X143575000Y-82400000D01*
X142650000Y-82900000D02*
X142650000Y-83150000D01*
X145000000Y-85400000D02*
X144600000Y-85000000D01*
X143000000Y-85000000D02*
X142655011Y-84655011D01*
X144600000Y-85000000D02*
X143000000Y-85000000D01*
X145025000Y-85975000D02*
X145000000Y-86000000D01*
X141750000Y-82000000D02*
X142650000Y-82900000D01*
X145000000Y-86000000D02*
X145000000Y-85400000D01*
%TO.N,Net-(JP1-Pad1)*%
X141750000Y-83050000D02*
X141700000Y-83000000D01*
X139550000Y-83900000D02*
X141750000Y-83900000D01*
X141750000Y-83900000D02*
X141750000Y-83050000D01*
%TO.N,Net-(R3-Pad1)*%
X145100000Y-81450000D02*
X145850000Y-80700000D01*
X145100000Y-82400000D02*
X145100000Y-81450000D01*
%TO.N,Net-(R4-Pad2)*%
X138900000Y-78812500D02*
X140400000Y-78812500D01*
%TO.N,Net-(R4-Pad1)*%
X143650000Y-78800000D02*
X145850000Y-78800000D01*
X140400000Y-80387500D02*
X140562500Y-80387500D01*
X140562500Y-80387500D02*
X142150000Y-78800000D01*
X142150000Y-78800000D02*
X143650000Y-78800000D01*
%TD*%
%TA.AperFunction,Conductor*%
%TO.N,GND*%
G36*
X149434121Y-77528002D02*
G01*
X149480614Y-77581658D01*
X149492000Y-77634000D01*
X149492000Y-87366000D01*
X149471998Y-87434121D01*
X149418342Y-87480614D01*
X149366000Y-87492000D01*
X146534180Y-87492000D01*
X146466059Y-87471998D01*
X146419566Y-87418342D01*
X146409462Y-87348068D01*
X146438956Y-87283488D01*
X146445085Y-87276905D01*
X147082629Y-86639361D01*
X147088895Y-86633507D01*
X147124507Y-86602441D01*
X147130234Y-86597445D01*
X147166986Y-86545153D01*
X147170865Y-86539929D01*
X147210303Y-86489632D01*
X147213428Y-86482711D01*
X147214815Y-86480421D01*
X147223173Y-86465767D01*
X147224443Y-86463399D01*
X147228810Y-86457185D01*
X147252011Y-86397680D01*
X147254566Y-86391601D01*
X147277723Y-86340312D01*
X147280851Y-86333385D01*
X147282236Y-86325912D01*
X147283043Y-86323337D01*
X147287651Y-86307160D01*
X147288324Y-86304539D01*
X147291084Y-86297460D01*
X147299421Y-86234131D01*
X147300452Y-86227624D01*
X147310708Y-86172288D01*
X147312092Y-86164821D01*
X147308709Y-86106146D01*
X147308500Y-86098893D01*
X147308500Y-84955367D01*
X147328502Y-84887246D01*
X147382158Y-84840753D01*
X147452432Y-84830649D01*
X147497784Y-84846413D01*
X147545431Y-84874088D01*
X147545435Y-84874090D01*
X147551766Y-84877767D01*
X147714080Y-84926927D01*
X147720520Y-84927502D01*
X147720521Y-84927502D01*
X147784934Y-84933251D01*
X147784940Y-84933251D01*
X147787727Y-84933500D01*
X148399135Y-84933500D01*
X148489213Y-84922998D01*
X148517432Y-84919708D01*
X148517433Y-84919708D01*
X148524704Y-84918860D01*
X148531581Y-84916364D01*
X148531584Y-84916363D01*
X148677243Y-84863491D01*
X148684122Y-84860994D01*
X148825951Y-84768007D01*
X148942586Y-84644885D01*
X149027767Y-84498234D01*
X149076927Y-84335920D01*
X149079726Y-84304562D01*
X149083251Y-84265066D01*
X149083251Y-84265060D01*
X149083500Y-84262273D01*
X149083500Y-83725865D01*
X149068860Y-83600296D01*
X149058064Y-83570552D01*
X149013491Y-83447757D01*
X149010994Y-83440878D01*
X148918007Y-83299049D01*
X148912686Y-83294008D01*
X148907658Y-83289244D01*
X148871961Y-83227875D01*
X148875109Y-83156948D01*
X148902840Y-83111119D01*
X148937149Y-83074902D01*
X148945862Y-83063255D01*
X149023635Y-82929360D01*
X149029429Y-82916035D01*
X149074562Y-82767016D01*
X149077010Y-82754393D01*
X149082751Y-82690066D01*
X149082994Y-82684596D01*
X149078525Y-82669376D01*
X149077135Y-82668171D01*
X149069452Y-82666500D01*
X146472000Y-82666500D01*
X146403879Y-82646498D01*
X146357386Y-82592842D01*
X146346000Y-82540500D01*
X146346000Y-82284500D01*
X146366002Y-82216379D01*
X146419658Y-82169886D01*
X146472000Y-82158500D01*
X147827885Y-82158500D01*
X147843124Y-82154025D01*
X147844329Y-82152635D01*
X147846000Y-82144952D01*
X147846000Y-81485115D01*
X147844659Y-81480548D01*
X148354000Y-81480548D01*
X148354000Y-82140385D01*
X148358475Y-82155624D01*
X148359865Y-82156829D01*
X148367548Y-82158500D01*
X149064885Y-82158500D01*
X149080124Y-82154025D01*
X149081329Y-82152635D01*
X149082551Y-82147015D01*
X149069222Y-82032681D01*
X149065878Y-82018534D01*
X149013043Y-81872978D01*
X149006535Y-81859983D01*
X148921635Y-81730489D01*
X148912311Y-81719337D01*
X148799902Y-81612851D01*
X148788255Y-81604138D01*
X148654360Y-81526365D01*
X148641035Y-81520571D01*
X148492016Y-81475438D01*
X148479393Y-81472990D01*
X148415066Y-81467249D01*
X148409471Y-81467000D01*
X148372115Y-81467000D01*
X148356876Y-81471475D01*
X148355671Y-81472865D01*
X148354000Y-81480548D01*
X147844659Y-81480548D01*
X147841525Y-81469876D01*
X147840135Y-81468671D01*
X147832452Y-81467000D01*
X147804526Y-81467000D01*
X147797222Y-81467425D01*
X147682681Y-81480778D01*
X147668534Y-81484122D01*
X147522978Y-81536957D01*
X147509978Y-81543467D01*
X147421833Y-81601257D01*
X147353898Y-81621880D01*
X147289463Y-81604839D01*
X147154360Y-81526365D01*
X147141035Y-81520571D01*
X146992016Y-81475438D01*
X146979393Y-81472990D01*
X146921182Y-81467795D01*
X146855109Y-81441817D01*
X146813570Y-81384240D01*
X146809753Y-81313346D01*
X146817769Y-81289952D01*
X146868958Y-81177864D01*
X146868958Y-81177863D01*
X146872700Y-81169670D01*
X146875172Y-81152475D01*
X146892861Y-81029448D01*
X146892862Y-81029441D01*
X146893500Y-81025000D01*
X146893500Y-80375000D01*
X146888273Y-80301921D01*
X146877267Y-80264438D01*
X146873445Y-80211008D01*
X146892361Y-80079446D01*
X146893000Y-80070505D01*
X146893000Y-80022115D01*
X146888525Y-80006876D01*
X146887135Y-80005671D01*
X146879452Y-80004000D01*
X146774994Y-80004000D01*
X146706873Y-79983998D01*
X146692482Y-79973225D01*
X146664430Y-79948918D01*
X146657619Y-79943016D01*
X146524670Y-79882300D01*
X146515755Y-79881018D01*
X146515754Y-79881018D01*
X146480601Y-79875964D01*
X146416020Y-79846471D01*
X146377636Y-79786745D01*
X146377636Y-79715748D01*
X146416019Y-79656022D01*
X146463034Y-79630350D01*
X146584670Y-79594635D01*
X146584672Y-79594634D01*
X146593316Y-79592096D01*
X146711719Y-79516002D01*
X146779841Y-79496000D01*
X146874885Y-79496000D01*
X146890124Y-79491525D01*
X146891329Y-79490135D01*
X146893000Y-79482452D01*
X146893000Y-79427257D01*
X146892839Y-79422750D01*
X146888260Y-79358731D01*
X146885875Y-79345512D01*
X146877433Y-79316762D01*
X146873611Y-79263331D01*
X146892861Y-79129445D01*
X146892861Y-79129444D01*
X146893500Y-79125000D01*
X146893500Y-78475000D01*
X146888273Y-78401921D01*
X146853516Y-78283549D01*
X146849635Y-78270330D01*
X146849634Y-78270328D01*
X146847096Y-78261684D01*
X146808581Y-78201754D01*
X146772949Y-78146309D01*
X146772947Y-78146306D01*
X146768077Y-78138729D01*
X146759589Y-78131374D01*
X146664431Y-78048918D01*
X146664428Y-78048916D01*
X146657619Y-78043016D01*
X146524670Y-77982300D01*
X146515755Y-77981018D01*
X146515754Y-77981018D01*
X146384448Y-77962139D01*
X146384441Y-77962138D01*
X146380000Y-77961500D01*
X145320000Y-77961500D01*
X145246921Y-77966727D01*
X145193884Y-77982300D01*
X145115330Y-78005365D01*
X145115328Y-78005366D01*
X145106684Y-78007904D01*
X144983729Y-78086923D01*
X144983260Y-78087465D01*
X144922490Y-78115217D01*
X144904558Y-78116500D01*
X144589419Y-78116500D01*
X144521298Y-78096498D01*
X144506913Y-78085729D01*
X144457619Y-78043016D01*
X144449426Y-78039275D01*
X144449424Y-78039273D01*
X144332864Y-77986042D01*
X144332863Y-77986042D01*
X144324670Y-77982300D01*
X144315755Y-77981018D01*
X144315754Y-77981018D01*
X144184448Y-77962139D01*
X144184441Y-77962138D01*
X144180000Y-77961500D01*
X143120000Y-77961500D01*
X143046921Y-77966727D01*
X142993884Y-77982300D01*
X142915330Y-78005365D01*
X142915328Y-78005366D01*
X142906684Y-78007904D01*
X142783729Y-78086923D01*
X142783260Y-78087465D01*
X142722490Y-78115217D01*
X142704558Y-78116500D01*
X142177748Y-78116500D01*
X142169178Y-78116208D01*
X142121543Y-78112960D01*
X142121539Y-78112960D01*
X142113967Y-78112444D01*
X142106490Y-78113749D01*
X142106489Y-78113749D01*
X142098078Y-78115217D01*
X142053360Y-78123022D01*
X142046842Y-78123983D01*
X141985770Y-78131374D01*
X141978666Y-78134058D01*
X141973773Y-78135260D01*
X141963306Y-78138124D01*
X141958481Y-78139581D01*
X141951002Y-78140886D01*
X141944049Y-78143938D01*
X141944046Y-78143939D01*
X141894670Y-78165612D01*
X141888567Y-78168103D01*
X141838131Y-78187162D01*
X141838129Y-78187163D01*
X141831021Y-78189849D01*
X141824756Y-78194155D01*
X141820263Y-78196504D01*
X141810830Y-78201754D01*
X141806484Y-78204324D01*
X141799525Y-78207379D01*
X141793495Y-78212006D01*
X141750715Y-78244831D01*
X141745380Y-78248707D01*
X141700952Y-78279242D01*
X141700946Y-78279247D01*
X141694687Y-78283549D01*
X141678456Y-78301766D01*
X141655022Y-78328068D01*
X141650041Y-78333344D01*
X141559241Y-78424144D01*
X141496929Y-78458170D01*
X141426114Y-78453105D01*
X141369278Y-78410558D01*
X141351707Y-78378040D01*
X141313491Y-78272757D01*
X141310994Y-78265878D01*
X141218007Y-78124049D01*
X141094885Y-78007414D01*
X140948234Y-77922233D01*
X140785920Y-77873073D01*
X140779480Y-77872498D01*
X140779479Y-77872498D01*
X140715066Y-77866749D01*
X140715060Y-77866749D01*
X140712273Y-77866500D01*
X140100865Y-77866500D01*
X140028406Y-77874948D01*
X139982568Y-77880292D01*
X139982567Y-77880292D01*
X139975296Y-77881140D01*
X139968419Y-77883636D01*
X139968416Y-77883637D01*
X139851957Y-77925910D01*
X139815878Y-77939006D01*
X139754291Y-77979384D01*
X139721818Y-78000674D01*
X139653882Y-78021297D01*
X139589448Y-78004256D01*
X139448234Y-77922233D01*
X139285920Y-77873073D01*
X139279480Y-77872498D01*
X139279479Y-77872498D01*
X139215066Y-77866749D01*
X139215060Y-77866749D01*
X139212273Y-77866500D01*
X138600865Y-77866500D01*
X138528406Y-77874948D01*
X138482568Y-77880292D01*
X138482567Y-77880292D01*
X138475296Y-77881140D01*
X138468419Y-77883636D01*
X138468416Y-77883637D01*
X138351957Y-77925910D01*
X138315878Y-77939006D01*
X138221353Y-78000979D01*
X138153419Y-78021602D01*
X138088983Y-78004561D01*
X137954360Y-77926365D01*
X137941035Y-77920571D01*
X137792016Y-77875438D01*
X137779393Y-77872990D01*
X137715066Y-77867249D01*
X137709471Y-77867000D01*
X137672115Y-77867000D01*
X137656876Y-77871475D01*
X137655671Y-77872865D01*
X137654000Y-77880548D01*
X137654000Y-78940500D01*
X137633998Y-79008621D01*
X137580342Y-79055114D01*
X137528000Y-79066500D01*
X136435115Y-79066500D01*
X136419876Y-79070975D01*
X136418671Y-79072365D01*
X136417449Y-79077985D01*
X136430778Y-79192319D01*
X136434122Y-79206466D01*
X136486957Y-79352022D01*
X136493465Y-79365017D01*
X136578365Y-79494511D01*
X136587689Y-79505663D01*
X136592322Y-79510052D01*
X136628020Y-79571421D01*
X136624872Y-79642348D01*
X136597142Y-79688178D01*
X136557414Y-79730115D01*
X136472233Y-79876766D01*
X136439756Y-79983998D01*
X136424967Y-80032828D01*
X136423073Y-80039080D01*
X136422498Y-80045520D01*
X136422498Y-80045521D01*
X136417870Y-80097381D01*
X136416500Y-80112727D01*
X136416500Y-80649135D01*
X136431140Y-80774704D01*
X136433636Y-80781581D01*
X136433637Y-80781584D01*
X136482976Y-80917509D01*
X136487417Y-80988366D01*
X136452845Y-81050376D01*
X136390235Y-81083852D01*
X136364537Y-81086500D01*
X136350000Y-81086500D01*
X136276921Y-81091727D01*
X136198835Y-81114655D01*
X136145330Y-81130365D01*
X136145328Y-81130366D01*
X136136684Y-81132904D01*
X136123312Y-81141498D01*
X136021309Y-81207051D01*
X136021306Y-81207053D01*
X136013729Y-81211923D01*
X136007828Y-81218733D01*
X135923918Y-81315569D01*
X135923916Y-81315572D01*
X135918016Y-81322381D01*
X135914272Y-81330579D01*
X135883765Y-81397381D01*
X135857300Y-81455330D01*
X135856018Y-81464245D01*
X135856018Y-81464246D01*
X135837139Y-81595552D01*
X135837138Y-81595559D01*
X135836500Y-81600000D01*
X135836500Y-82900000D01*
X135841727Y-82973079D01*
X135843631Y-82979562D01*
X135878182Y-83097233D01*
X135882904Y-83113316D01*
X135887775Y-83120895D01*
X135957051Y-83228691D01*
X135957053Y-83228694D01*
X135961923Y-83236271D01*
X135968733Y-83242172D01*
X136065569Y-83326082D01*
X136065572Y-83326084D01*
X136072381Y-83331984D01*
X136205330Y-83392700D01*
X136214245Y-83393982D01*
X136214246Y-83393982D01*
X136345552Y-83412861D01*
X136345559Y-83412862D01*
X136350000Y-83413500D01*
X138050000Y-83413500D01*
X138123079Y-83408273D01*
X138201165Y-83385345D01*
X138254670Y-83369635D01*
X138254672Y-83369634D01*
X138263316Y-83367096D01*
X138332089Y-83322898D01*
X138400210Y-83302896D01*
X138468330Y-83322898D01*
X138514823Y-83376553D01*
X138524928Y-83446827D01*
X138507139Y-83570552D01*
X138507138Y-83570559D01*
X138506500Y-83575000D01*
X138506500Y-84225000D01*
X138511727Y-84298079D01*
X138552904Y-84438316D01*
X138557775Y-84445895D01*
X138627051Y-84553691D01*
X138627053Y-84553694D01*
X138631923Y-84561271D01*
X138638733Y-84567172D01*
X138735569Y-84651082D01*
X138735572Y-84651084D01*
X138742381Y-84656984D01*
X138875330Y-84717700D01*
X138884245Y-84718982D01*
X138884246Y-84718982D01*
X139015552Y-84737861D01*
X139015559Y-84737862D01*
X139020000Y-84738500D01*
X140080000Y-84738500D01*
X140153079Y-84733273D01*
X140231165Y-84710345D01*
X140284670Y-84694635D01*
X140284672Y-84694634D01*
X140293316Y-84692096D01*
X140416271Y-84613077D01*
X140416740Y-84612535D01*
X140477510Y-84584783D01*
X140495442Y-84583500D01*
X140810581Y-84583500D01*
X140878702Y-84603502D01*
X140893087Y-84614271D01*
X140942381Y-84656984D01*
X140950574Y-84660725D01*
X140950576Y-84660727D01*
X141052833Y-84707426D01*
X141075330Y-84717700D01*
X141084245Y-84718982D01*
X141084246Y-84718982D01*
X141105397Y-84722023D01*
X141204946Y-84736336D01*
X141216625Y-84741669D01*
X141218835Y-84740556D01*
X141241502Y-84738500D01*
X141868791Y-84738500D01*
X141936912Y-84758502D01*
X141983405Y-84812158D01*
X141986652Y-84819948D01*
X141988571Y-84825027D01*
X141993134Y-84841703D01*
X141994592Y-84846532D01*
X141995897Y-84854009D01*
X141998949Y-84860962D01*
X141998950Y-84860965D01*
X142020623Y-84910341D01*
X142023115Y-84916445D01*
X142038472Y-84957085D01*
X142043840Y-85027878D01*
X142010083Y-85090336D01*
X141978984Y-85113285D01*
X141905045Y-85151939D01*
X141900245Y-85155799D01*
X141895085Y-85159175D01*
X141893685Y-85157036D01*
X141838389Y-85179875D01*
X141768534Y-85167200D01*
X141758940Y-85161588D01*
X141756742Y-85159770D01*
X141751320Y-85156838D01*
X141751318Y-85156837D01*
X141588165Y-85068621D01*
X141588161Y-85068619D01*
X141582747Y-85065692D01*
X141576867Y-85063872D01*
X141576865Y-85063871D01*
X141484147Y-85035170D01*
X141393792Y-85007200D01*
X141387674Y-85006557D01*
X141387669Y-85006556D01*
X141228332Y-84989810D01*
X141211376Y-84982834D01*
X141204946Y-84985770D01*
X141197056Y-84986308D01*
X141197076Y-84986525D01*
X141006228Y-85003893D01*
X141006225Y-85003894D01*
X141000089Y-85004452D01*
X140994183Y-85006190D01*
X140994179Y-85006191D01*
X140872688Y-85041948D01*
X140810336Y-85060299D01*
X140635045Y-85151939D01*
X140630244Y-85155799D01*
X140625085Y-85159175D01*
X140623769Y-85157164D01*
X140567965Y-85180205D01*
X140498111Y-85167521D01*
X140484177Y-85159369D01*
X140481043Y-85157255D01*
X140317969Y-85069082D01*
X140306670Y-85064332D01*
X140191307Y-85028620D01*
X140177205Y-85028414D01*
X140174000Y-85035170D01*
X140174000Y-86957691D01*
X140177973Y-86971222D01*
X140186188Y-86972403D01*
X140280390Y-86946101D01*
X140291823Y-86941667D01*
X140457296Y-86858080D01*
X140467648Y-86851511D01*
X140476085Y-86844919D01*
X140542079Y-86818739D01*
X140615129Y-86834217D01*
X140784246Y-86928734D01*
X140972366Y-86989857D01*
X141168775Y-87013278D01*
X141174910Y-87012806D01*
X141174912Y-87012806D01*
X141359850Y-86998576D01*
X141359854Y-86998575D01*
X141365992Y-86998103D01*
X141556507Y-86944910D01*
X141684760Y-86880124D01*
X141754583Y-86867264D01*
X141820274Y-86894193D01*
X141845623Y-86923383D01*
X141845860Y-86923201D01*
X141848851Y-86927100D01*
X141848866Y-86927118D01*
X141850485Y-86929227D01*
X141850486Y-86929229D01*
X141884746Y-86973878D01*
X141888615Y-86979203D01*
X141901605Y-86998103D01*
X141912035Y-87013278D01*
X141924796Y-87031846D01*
X141968691Y-87070955D01*
X141973948Y-87075919D01*
X142174934Y-87276905D01*
X142208960Y-87339217D01*
X142203895Y-87410032D01*
X142161348Y-87466868D01*
X142094828Y-87491679D01*
X142085839Y-87492000D01*
X135634000Y-87492000D01*
X135565879Y-87471998D01*
X135519386Y-87418342D01*
X135508000Y-87366000D01*
X135508000Y-86017548D01*
X135837000Y-86017548D01*
X135837000Y-86397743D01*
X135837161Y-86402250D01*
X135841740Y-86466269D01*
X135844126Y-86479491D01*
X135880819Y-86604458D01*
X135888233Y-86620692D01*
X135957426Y-86728360D01*
X135969112Y-86741847D01*
X136065840Y-86825662D01*
X136080848Y-86835307D01*
X136197275Y-86888477D01*
X136214388Y-86893502D01*
X136345554Y-86912361D01*
X136354495Y-86913000D01*
X136927885Y-86913000D01*
X136943124Y-86908525D01*
X136944329Y-86907135D01*
X136946000Y-86899452D01*
X136946000Y-86022115D01*
X136944659Y-86017548D01*
X137454000Y-86017548D01*
X137454000Y-86894885D01*
X137458475Y-86910124D01*
X137459865Y-86911329D01*
X137467548Y-86913000D01*
X138047743Y-86913000D01*
X138052250Y-86912839D01*
X138116269Y-86908260D01*
X138129491Y-86905874D01*
X138254458Y-86869181D01*
X138270692Y-86861767D01*
X138378360Y-86792574D01*
X138391847Y-86780888D01*
X138475662Y-86684160D01*
X138485307Y-86669152D01*
X138538477Y-86552725D01*
X138543502Y-86535612D01*
X138562361Y-86404446D01*
X138563000Y-86395503D01*
X138563000Y-86265975D01*
X138947473Y-86265975D01*
X138976436Y-86366983D01*
X138980955Y-86378395D01*
X139065688Y-86543268D01*
X139072335Y-86553581D01*
X139187480Y-86698858D01*
X139196003Y-86707684D01*
X139337175Y-86827831D01*
X139347247Y-86834831D01*
X139509066Y-86925268D01*
X139520306Y-86930179D01*
X139648769Y-86971919D01*
X139662867Y-86972322D01*
X139666000Y-86965950D01*
X139666000Y-86272115D01*
X139661525Y-86256876D01*
X139660135Y-86255671D01*
X139652452Y-86254000D01*
X138962154Y-86254000D01*
X138948623Y-86257973D01*
X138947473Y-86265975D01*
X138563000Y-86265975D01*
X138563000Y-86022115D01*
X138558525Y-86006876D01*
X138557135Y-86005671D01*
X138549452Y-86004000D01*
X137472115Y-86004000D01*
X137456876Y-86008475D01*
X137455671Y-86009865D01*
X137454000Y-86017548D01*
X136944659Y-86017548D01*
X136941525Y-86006876D01*
X136940135Y-86005671D01*
X136932452Y-86004000D01*
X135855115Y-86004000D01*
X135839876Y-86008475D01*
X135838671Y-86009865D01*
X135837000Y-86017548D01*
X135508000Y-86017548D01*
X135508000Y-85742832D01*
X138948073Y-85742832D01*
X138954632Y-85746000D01*
X139647885Y-85746000D01*
X139663124Y-85741525D01*
X139664329Y-85740135D01*
X139666000Y-85732452D01*
X139666000Y-85041948D01*
X139662027Y-85028417D01*
X139654232Y-85027297D01*
X139546443Y-85059021D01*
X139535059Y-85063620D01*
X139370778Y-85149504D01*
X139360517Y-85156218D01*
X139216041Y-85272380D01*
X139207281Y-85280958D01*
X139088119Y-85422970D01*
X139081193Y-85433084D01*
X138991882Y-85595542D01*
X138987054Y-85606806D01*
X138948377Y-85728731D01*
X138948073Y-85742832D01*
X135508000Y-85742832D01*
X135508000Y-85104495D01*
X135837000Y-85104495D01*
X135837000Y-85477885D01*
X135841475Y-85493124D01*
X135842865Y-85494329D01*
X135850548Y-85496000D01*
X136927885Y-85496000D01*
X136943124Y-85491525D01*
X136944329Y-85490135D01*
X136946000Y-85482452D01*
X136946000Y-84605115D01*
X136944659Y-84600548D01*
X137454000Y-84600548D01*
X137454000Y-85477885D01*
X137458475Y-85493124D01*
X137459865Y-85494329D01*
X137467548Y-85496000D01*
X138544885Y-85496000D01*
X138560124Y-85491525D01*
X138561329Y-85490135D01*
X138563000Y-85482452D01*
X138563000Y-85102257D01*
X138562839Y-85097750D01*
X138558260Y-85033731D01*
X138555874Y-85020509D01*
X138519181Y-84895542D01*
X138511767Y-84879308D01*
X138442574Y-84771640D01*
X138430888Y-84758153D01*
X138334160Y-84674338D01*
X138319152Y-84664693D01*
X138202725Y-84611523D01*
X138185612Y-84606498D01*
X138054446Y-84587639D01*
X138045505Y-84587000D01*
X137472115Y-84587000D01*
X137456876Y-84591475D01*
X137455671Y-84592865D01*
X137454000Y-84600548D01*
X136944659Y-84600548D01*
X136941525Y-84589876D01*
X136940135Y-84588671D01*
X136932452Y-84587000D01*
X136352257Y-84587000D01*
X136347750Y-84587161D01*
X136283731Y-84591740D01*
X136270509Y-84594126D01*
X136145542Y-84630819D01*
X136129308Y-84638233D01*
X136021640Y-84707426D01*
X136008153Y-84719112D01*
X135924338Y-84815840D01*
X135914693Y-84830848D01*
X135861523Y-84947275D01*
X135856498Y-84964388D01*
X135837639Y-85095554D01*
X135837000Y-85104495D01*
X135508000Y-85104495D01*
X135508000Y-78540404D01*
X136417006Y-78540404D01*
X136421475Y-78555624D01*
X136422865Y-78556829D01*
X136430548Y-78558500D01*
X137127885Y-78558500D01*
X137143124Y-78554025D01*
X137144329Y-78552635D01*
X137146000Y-78544952D01*
X137146000Y-77885115D01*
X137141525Y-77869876D01*
X137140135Y-77868671D01*
X137132452Y-77867000D01*
X137104526Y-77867000D01*
X137097222Y-77867425D01*
X136982681Y-77880778D01*
X136968534Y-77884122D01*
X136822978Y-77936957D01*
X136809983Y-77943465D01*
X136680489Y-78028365D01*
X136669337Y-78037689D01*
X136562851Y-78150098D01*
X136554138Y-78161745D01*
X136476365Y-78295640D01*
X136470571Y-78308965D01*
X136425438Y-78457984D01*
X136422990Y-78470607D01*
X136417249Y-78534934D01*
X136417006Y-78540404D01*
X135508000Y-78540404D01*
X135508000Y-77634000D01*
X135528002Y-77565879D01*
X135581658Y-77519386D01*
X135634000Y-77508000D01*
X149366000Y-77508000D01*
X149434121Y-77528002D01*
G37*
%TD.AperFunction*%
%TA.AperFunction,Conductor*%
G36*
X140759355Y-82594841D02*
G01*
X140816191Y-82637386D01*
X140821321Y-82644775D01*
X140827050Y-82653689D01*
X140831923Y-82661271D01*
X140838733Y-82667172D01*
X140868055Y-82692580D01*
X140906438Y-82752307D01*
X140907792Y-82808520D01*
X140909310Y-82808712D01*
X140886579Y-82988642D01*
X140895037Y-83074902D01*
X140895361Y-83078204D01*
X140882102Y-83147952D01*
X140833239Y-83199459D01*
X140769962Y-83216500D01*
X140646628Y-83216500D01*
X140619428Y-83208513D01*
X140618559Y-83212507D01*
X140579452Y-83204000D01*
X140474994Y-83204000D01*
X140406873Y-83183998D01*
X140392482Y-83173225D01*
X140364430Y-83148918D01*
X140357619Y-83143016D01*
X140294096Y-83114006D01*
X140232864Y-83086042D01*
X140232863Y-83086042D01*
X140224670Y-83082300D01*
X140215755Y-83081018D01*
X140215754Y-83081018D01*
X140180601Y-83075964D01*
X140116020Y-83046471D01*
X140077636Y-82986745D01*
X140077636Y-82915748D01*
X140116019Y-82856022D01*
X140163034Y-82830350D01*
X140284670Y-82794635D01*
X140284672Y-82794634D01*
X140293316Y-82792096D01*
X140411719Y-82716002D01*
X140479841Y-82696000D01*
X140574885Y-82696000D01*
X140590124Y-82691525D01*
X140591329Y-82690135D01*
X140592203Y-82686116D01*
X140626227Y-82623803D01*
X140688539Y-82589777D01*
X140759355Y-82594841D01*
G37*
%TD.AperFunction*%
%TA.AperFunction,Conductor*%
G36*
X144780572Y-79491487D02*
G01*
X144781441Y-79487493D01*
X144820548Y-79496000D01*
X144925006Y-79496000D01*
X144993127Y-79516002D01*
X145007518Y-79526775D01*
X145042381Y-79556984D01*
X145050579Y-79560728D01*
X145135016Y-79599289D01*
X145175330Y-79617700D01*
X145184245Y-79618982D01*
X145184246Y-79618982D01*
X145219399Y-79624036D01*
X145283980Y-79653529D01*
X145322364Y-79713255D01*
X145322364Y-79784252D01*
X145283981Y-79843978D01*
X145236966Y-79869650D01*
X145115330Y-79905365D01*
X145115328Y-79905366D01*
X145106684Y-79907904D01*
X145099105Y-79912775D01*
X144988280Y-79983998D01*
X144920159Y-80004000D01*
X144825115Y-80004000D01*
X144809876Y-80008475D01*
X144808671Y-80009865D01*
X144807797Y-80013884D01*
X144773773Y-80076197D01*
X144711461Y-80110223D01*
X144640645Y-80105159D01*
X144583809Y-80062614D01*
X144578679Y-80055225D01*
X144572950Y-80046311D01*
X144572949Y-80046310D01*
X144568077Y-80038729D01*
X144539405Y-80013884D01*
X144464431Y-79948918D01*
X144464428Y-79948916D01*
X144457619Y-79943016D01*
X144324670Y-79882300D01*
X144315755Y-79881018D01*
X144315754Y-79881018D01*
X144280601Y-79875964D01*
X144216020Y-79846471D01*
X144177636Y-79786745D01*
X144177636Y-79715748D01*
X144216019Y-79656022D01*
X144263034Y-79630350D01*
X144384670Y-79594635D01*
X144384672Y-79594634D01*
X144393316Y-79592096D01*
X144516271Y-79513077D01*
X144516740Y-79512535D01*
X144577510Y-79484783D01*
X144595442Y-79483500D01*
X144753372Y-79483500D01*
X144780572Y-79491487D01*
G37*
%TD.AperFunction*%
%TD*%
M02*
