%TF.GenerationSoftware,KiCad,Pcbnew,(5.99.0-9986-gea87f52d5a)*%
%TF.CreationDate,2021-05-05T12:52:17-03:00*%
%TF.ProjectId,Sensors_V2,53656e73-6f72-4735-9f56-322e6b696361,rev?*%
%TF.SameCoordinates,Original*%
%TF.FileFunction,Legend,Bot*%
%TF.FilePolarity,Positive*%
%FSLAX46Y46*%
G04 Gerber Fmt 4.6, Leading zero omitted, Abs format (unit mm)*
G04 Created by KiCad (PCBNEW (5.99.0-9986-gea87f52d5a)) date 2021-05-05 12:52:17*
%MOMM*%
%LPD*%
G01*
G04 APERTURE LIST*
%ADD10C,0.150000*%
%ADD11C,0.120000*%
G04 APERTURE END LIST*
D10*
X146523809Y-79404761D02*
X146380952Y-79452380D01*
X146142857Y-79452380D01*
X146047619Y-79404761D01*
X146000000Y-79357142D01*
X145952380Y-79261904D01*
X145952380Y-79166666D01*
X146000000Y-79071428D01*
X146047619Y-79023809D01*
X146142857Y-78976190D01*
X146333333Y-78928571D01*
X146428571Y-78880952D01*
X146476190Y-78833333D01*
X146523809Y-78738095D01*
X146523809Y-78642857D01*
X146476190Y-78547619D01*
X146428571Y-78500000D01*
X146333333Y-78452380D01*
X146095238Y-78452380D01*
X145952380Y-78500000D01*
X145142857Y-79404761D02*
X145238095Y-79452380D01*
X145428571Y-79452380D01*
X145523809Y-79404761D01*
X145571428Y-79309523D01*
X145571428Y-78928571D01*
X145523809Y-78833333D01*
X145428571Y-78785714D01*
X145238095Y-78785714D01*
X145142857Y-78833333D01*
X145095238Y-78928571D01*
X145095238Y-79023809D01*
X145571428Y-79119047D01*
X144666666Y-78785714D02*
X144666666Y-79452380D01*
X144666666Y-78880952D02*
X144619047Y-78833333D01*
X144523809Y-78785714D01*
X144380952Y-78785714D01*
X144285714Y-78833333D01*
X144238095Y-78928571D01*
X144238095Y-79452380D01*
X143809523Y-79404761D02*
X143714285Y-79452380D01*
X143523809Y-79452380D01*
X143428571Y-79404761D01*
X143380952Y-79309523D01*
X143380952Y-79261904D01*
X143428571Y-79166666D01*
X143523809Y-79119047D01*
X143666666Y-79119047D01*
X143761904Y-79071428D01*
X143809523Y-78976190D01*
X143809523Y-78928571D01*
X143761904Y-78833333D01*
X143666666Y-78785714D01*
X143523809Y-78785714D01*
X143428571Y-78833333D01*
X142809523Y-79452380D02*
X142904761Y-79404761D01*
X142952380Y-79357142D01*
X143000000Y-79261904D01*
X143000000Y-78976190D01*
X142952380Y-78880952D01*
X142904761Y-78833333D01*
X142809523Y-78785714D01*
X142666666Y-78785714D01*
X142571428Y-78833333D01*
X142523809Y-78880952D01*
X142476190Y-78976190D01*
X142476190Y-79261904D01*
X142523809Y-79357142D01*
X142571428Y-79404761D01*
X142666666Y-79452380D01*
X142809523Y-79452380D01*
X142047619Y-79452380D02*
X142047619Y-78785714D01*
X142047619Y-78976190D02*
X142000000Y-78880952D01*
X141952380Y-78833333D01*
X141857142Y-78785714D01*
X141761904Y-78785714D01*
X141476190Y-79404761D02*
X141380952Y-79452380D01*
X141190476Y-79452380D01*
X141095238Y-79404761D01*
X141047619Y-79309523D01*
X141047619Y-79261904D01*
X141095238Y-79166666D01*
X141190476Y-79119047D01*
X141333333Y-79119047D01*
X141428571Y-79071428D01*
X141476190Y-78976190D01*
X141476190Y-78928571D01*
X141428571Y-78833333D01*
X141333333Y-78785714D01*
X141190476Y-78785714D01*
X141095238Y-78833333D01*
X140000000Y-78452380D02*
X139666666Y-79452380D01*
X139333333Y-78452380D01*
X139047619Y-78547619D02*
X139000000Y-78500000D01*
X138904761Y-78452380D01*
X138666666Y-78452380D01*
X138571428Y-78500000D01*
X138523809Y-78547619D01*
X138476190Y-78642857D01*
X138476190Y-78738095D01*
X138523809Y-78880952D01*
X139095238Y-79452380D01*
X138476190Y-79452380D01*
X141692857Y-82409523D02*
X141692857Y-82676190D01*
X142111904Y-82790476D02*
X142111904Y-82409523D01*
X141311904Y-82409523D01*
X141311904Y-82790476D01*
X142111904Y-83133333D02*
X141311904Y-83133333D01*
X142111904Y-83590476D01*
X141311904Y-83590476D01*
D11*
%TO.C,JP1*%
X139000000Y-81600000D02*
X139000000Y-84400000D01*
X139000000Y-84400000D02*
X141000000Y-84400000D01*
X141000000Y-81600000D02*
X139000000Y-81600000D01*
X141000000Y-84400000D02*
X141000000Y-81600000D01*
%TD*%
M02*
