%TF.GenerationSoftware,KiCad,Pcbnew,(5.99.0-9986-gea87f52d5a)*%
%TF.CreationDate,2021-05-05T12:52:17-03:00*%
%TF.ProjectId,Sensors_V2,53656e73-6f72-4735-9f56-322e6b696361,rev?*%
%TF.SameCoordinates,Original*%
%TF.FileFunction,Legend,Top*%
%TF.FilePolarity,Positive*%
%FSLAX46Y46*%
G04 Gerber Fmt 4.6, Leading zero omitted, Abs format (unit mm)*
G04 Created by KiCad (PCBNEW (5.99.0-9986-gea87f52d5a)) date 2021-05-05 12:52:17*
%MOMM*%
%LPD*%
G01*
G04 APERTURE LIST*
%ADD10C,0.120000*%
G04 APERTURE END LIST*
D10*
%TO.C,R6*%
X137910000Y-79762779D02*
X137910000Y-79437221D01*
X136890000Y-79762779D02*
X136890000Y-79437221D01*
%TO.C,R3*%
X144590000Y-83024721D02*
X144590000Y-83350279D01*
X145610000Y-83024721D02*
X145610000Y-83350279D01*
%TO.C,J1*%
X143990000Y-87560000D02*
X143990000Y-91560000D01*
X142720000Y-87560000D02*
X142720000Y-91560000D01*
X141450000Y-87560000D02*
X141450000Y-91560000D01*
X145760000Y-85240000D02*
X145760000Y-86000000D01*
X145695000Y-86760000D02*
X145695000Y-87560000D01*
X140180000Y-87560000D02*
X140180000Y-91560000D01*
X144740000Y-91560000D02*
X144740000Y-87560000D01*
X145695000Y-87560000D02*
X139225000Y-87560000D01*
X140555000Y-86440000D02*
X140555000Y-87560000D01*
X140180000Y-91560000D02*
X139660000Y-91560000D01*
X145000000Y-85240000D02*
X145760000Y-85240000D01*
X143990000Y-91560000D02*
X143470000Y-91560000D01*
X143110323Y-86440000D02*
X143079677Y-86440000D01*
X144840000Y-87560000D02*
X144840000Y-91560000D01*
X142200000Y-91560000D02*
X142200000Y-87560000D01*
X142720000Y-91560000D02*
X142200000Y-91560000D01*
X145200000Y-87560000D02*
X145200000Y-91560000D01*
X143470000Y-91560000D02*
X143470000Y-87560000D01*
X145260000Y-91560000D02*
X144740000Y-91560000D01*
X144365000Y-86760000D02*
X144365000Y-87560000D01*
X139660000Y-91560000D02*
X139660000Y-87560000D01*
X141825000Y-86440000D02*
X141825000Y-87560000D01*
X145080000Y-87560000D02*
X145080000Y-91560000D01*
X141840323Y-86440000D02*
X141809677Y-86440000D01*
X144960000Y-87560000D02*
X144960000Y-91560000D01*
X140570323Y-86440000D02*
X140539677Y-86440000D01*
X140930000Y-91560000D02*
X140930000Y-87560000D01*
X139225000Y-86440000D02*
X139300323Y-86440000D01*
X143095000Y-86440000D02*
X143095000Y-87560000D01*
X139225000Y-87560000D02*
X139225000Y-86440000D01*
X145260000Y-87560000D02*
X145260000Y-91560000D01*
X141450000Y-91560000D02*
X140930000Y-91560000D01*
%TO.C,C1*%
X148610000Y-83362779D02*
X148610000Y-83037221D01*
X147590000Y-83362779D02*
X147590000Y-83037221D01*
%TO.C,U1*%
X145650000Y-78140000D02*
X143850000Y-78140000D01*
X143850000Y-81360000D02*
X146300000Y-81360000D01*
%TO.C,R2*%
X143065000Y-83350279D02*
X143065000Y-83024721D01*
X144085000Y-83350279D02*
X144085000Y-83024721D01*
%TO.C,R4*%
X140910000Y-79762779D02*
X140910000Y-79437221D01*
X139890000Y-79762779D02*
X139890000Y-79437221D01*
%TO.C,R5*%
X139410000Y-79762779D02*
X139410000Y-79437221D01*
X138390000Y-79762779D02*
X138390000Y-79437221D01*
%TO.C,D1*%
X138200000Y-85750000D02*
X138200000Y-81450000D01*
X136200000Y-81450000D02*
X136200000Y-85750000D01*
X138200000Y-81450000D02*
X136200000Y-81450000D01*
%TO.C,R1*%
X146090000Y-83362779D02*
X146090000Y-83037221D01*
X147110000Y-83362779D02*
X147110000Y-83037221D01*
%TO.C,U2*%
X141550000Y-81340000D02*
X139100000Y-81340000D01*
X139750000Y-84560000D02*
X141550000Y-84560000D01*
%TD*%
M02*
