%TF.GenerationSoftware,KiCad,Pcbnew,(6.0.7)*%
%TF.CreationDate,2022-10-12T02:09:32-03:00*%
%TF.ProjectId,uEFI_rev3,75454649-5f72-4657-9633-2e6b69636164,v3.0*%
%TF.SameCoordinates,Original*%
%TF.FileFunction,Drillmap*%
%TF.FilePolarity,Positive*%
%FSLAX45Y45*%
G04 Gerber Fmt 4.5, Leading zero omitted, Abs format (unit mm)*
G04 Created by KiCad (PCBNEW (6.0.7)) date 2022-10-12 02:09:32*
%MOMM*%
%LPD*%
G01*
G04 APERTURE LIST*
%ADD10C,0.050000*%
%ADD11C,0.200000*%
%ADD12C,0.030000*%
%ADD13C,0.040000*%
%ADD14C,0.065000*%
%ADD15C,0.080000*%
%ADD16C,0.092000*%
%ADD17C,0.100000*%
%ADD18C,0.110000*%
%ADD19C,0.120000*%
%ADD20C,0.140000*%
%ADD21C,0.220000*%
%ADD22C,0.233000*%
%ADD23C,0.275000*%
G04 APERTURE END LIST*
D10*
X5520000Y-4360000D02*
X15420000Y-4360000D01*
X15420000Y-4360000D02*
X15420000Y-15660000D01*
X15420000Y-15660000D02*
X5520000Y-15660000D01*
X5520000Y-15660000D02*
X5520000Y-4360000D01*
D11*
D12*
X5754699Y-13365000D02*
X5784699Y-13395000D01*
X5784699Y-13365000D02*
X5754699Y-13395000D01*
X5865000Y-13385000D02*
X5895000Y-13415000D01*
X5895000Y-13385000D02*
X5865000Y-13415000D01*
X5994235Y-8104235D02*
X6024235Y-8134235D01*
X6024235Y-8104235D02*
X5994235Y-8134235D01*
X6208000Y-9167100D02*
X6238000Y-9197100D01*
X6238000Y-9167100D02*
X6208000Y-9197100D01*
X6260000Y-9585000D02*
X6290000Y-9615000D01*
X6290000Y-9585000D02*
X6260000Y-9615000D01*
X6280000Y-12750000D02*
X6310000Y-12780000D01*
X6310000Y-12750000D02*
X6280000Y-12780000D01*
X6339539Y-12832467D02*
X6369539Y-12862467D01*
X6369539Y-12832467D02*
X6339539Y-12862467D01*
X6385000Y-8560000D02*
X6415000Y-8590000D01*
X6415000Y-8560000D02*
X6385000Y-8590000D01*
X6401462Y-12788618D02*
X6431462Y-12818618D01*
X6431462Y-12788618D02*
X6401462Y-12818618D01*
X6515000Y-12955000D02*
X6545000Y-12985000D01*
X6545000Y-12955000D02*
X6515000Y-12985000D01*
X6515000Y-13225000D02*
X6545000Y-13255000D01*
X6545000Y-13225000D02*
X6515000Y-13255000D01*
X6590000Y-12760000D02*
X6620000Y-12790000D01*
X6620000Y-12760000D02*
X6590000Y-12790000D01*
X6639800Y-12440000D02*
X6669800Y-12470000D01*
X6669800Y-12440000D02*
X6639800Y-12470000D01*
X6645000Y-13165000D02*
X6675000Y-13195000D01*
X6675000Y-13165000D02*
X6645000Y-13195000D01*
X6665000Y-10785000D02*
X6695000Y-10815000D01*
X6695000Y-10785000D02*
X6665000Y-10815000D01*
X6766800Y-12075400D02*
X6796800Y-12105400D01*
X6796800Y-12075400D02*
X6766800Y-12105400D01*
X6785000Y-10455000D02*
X6815000Y-10485000D01*
X6815000Y-10455000D02*
X6785000Y-10485000D01*
X6804900Y-12354800D02*
X6834900Y-12384800D01*
X6834900Y-12354800D02*
X6804900Y-12384800D01*
X6817600Y-9040100D02*
X6847600Y-9070100D01*
X6847600Y-9040100D02*
X6817600Y-9070100D01*
X6843000Y-9192500D02*
X6873000Y-9222500D01*
X6873000Y-9192500D02*
X6843000Y-9222500D01*
X6855700Y-12570700D02*
X6885700Y-12600700D01*
X6885700Y-12570700D02*
X6855700Y-12600700D01*
X6862650Y-13685000D02*
X6892650Y-13715000D01*
X6892650Y-13685000D02*
X6862650Y-13715000D01*
X6865000Y-13185000D02*
X6895000Y-13215000D01*
X6895000Y-13185000D02*
X6865000Y-13215000D01*
X6900000Y-10450000D02*
X6930000Y-10480000D01*
X6930000Y-10450000D02*
X6900000Y-10480000D01*
X6927900Y-11149360D02*
X6957900Y-11179360D01*
X6957900Y-11149360D02*
X6927900Y-11179360D01*
X6931900Y-12532600D02*
X6961900Y-12562600D01*
X6961900Y-12532600D02*
X6931900Y-12562600D01*
X6945000Y-13705000D02*
X6975000Y-13735000D01*
X6975000Y-13705000D02*
X6945000Y-13735000D01*
X6970000Y-11923000D02*
X7000000Y-11953000D01*
X7000000Y-11923000D02*
X6970000Y-11953000D01*
X6985000Y-8735000D02*
X7015000Y-8765000D01*
X7015000Y-8735000D02*
X6985000Y-8765000D01*
X7025411Y-7925000D02*
X7055411Y-7955000D01*
X7055411Y-7925000D02*
X7025411Y-7955000D01*
X7150000Y-12180000D02*
X7180000Y-12210000D01*
X7180000Y-12180000D02*
X7150000Y-12210000D01*
X7170000Y-12860000D02*
X7200000Y-12890000D01*
X7200000Y-12860000D02*
X7170000Y-12890000D01*
X7226641Y-11958580D02*
X7256641Y-11988580D01*
X7256641Y-11958580D02*
X7226641Y-11988580D01*
X7250000Y-12620000D02*
X7280000Y-12650000D01*
X7280000Y-12620000D02*
X7250000Y-12650000D01*
X7262100Y-12037300D02*
X7292100Y-12067300D01*
X7292100Y-12037300D02*
X7262100Y-12067300D01*
X7305000Y-13355000D02*
X7335000Y-13385000D01*
X7335000Y-13355000D02*
X7305000Y-13385000D01*
X7312900Y-14115000D02*
X7342900Y-14145000D01*
X7342900Y-14115000D02*
X7312900Y-14145000D01*
X7334235Y-12555765D02*
X7364235Y-12585765D01*
X7364235Y-12555765D02*
X7334235Y-12585765D01*
X7355000Y-12955000D02*
X7385000Y-12985000D01*
X7385000Y-12955000D02*
X7355000Y-12985000D01*
X7370360Y-10081080D02*
X7400360Y-10111080D01*
X7400360Y-10081080D02*
X7370360Y-10111080D01*
X7449250Y-11770600D02*
X7479250Y-11800600D01*
X7479250Y-11770600D02*
X7449250Y-11800600D01*
X7469771Y-11842894D02*
X7499771Y-11872894D01*
X7499771Y-11842894D02*
X7469771Y-11872894D01*
X7520000Y-10691100D02*
X7550000Y-10721100D01*
X7550000Y-10691100D02*
X7520000Y-10721100D01*
X7554172Y-11843558D02*
X7584172Y-11873558D01*
X7584172Y-11843558D02*
X7554172Y-11873558D01*
X7565000Y-13545000D02*
X7595000Y-13575000D01*
X7595000Y-13545000D02*
X7565000Y-13575000D01*
X7575157Y-12354843D02*
X7605157Y-12384843D01*
X7605157Y-12354843D02*
X7575157Y-12384843D01*
X7589952Y-14155048D02*
X7619952Y-14185048D01*
X7619952Y-14155048D02*
X7589952Y-14185048D01*
X7625000Y-13615000D02*
X7655000Y-13645000D01*
X7655000Y-13615000D02*
X7625000Y-13645000D01*
X7645000Y-13715000D02*
X7675000Y-13745000D01*
X7675000Y-13715000D02*
X7645000Y-13745000D01*
X7675350Y-11681700D02*
X7705350Y-11711700D01*
X7705350Y-11681700D02*
X7675350Y-11711700D01*
X7685000Y-10545000D02*
X7715000Y-10575000D01*
X7715000Y-10545000D02*
X7685000Y-10575000D01*
X7715000Y-4965000D02*
X7745000Y-4995000D01*
X7745000Y-4965000D02*
X7715000Y-4995000D01*
X7785000Y-7910000D02*
X7815000Y-7940000D01*
X7815000Y-7910000D02*
X7785000Y-7940000D01*
X7810000Y-8110000D02*
X7840000Y-8140000D01*
X7840000Y-8110000D02*
X7810000Y-8140000D01*
X7833600Y-13828000D02*
X7863600Y-13858000D01*
X7863600Y-13828000D02*
X7833600Y-13858000D01*
X7897132Y-14141166D02*
X7927132Y-14171166D01*
X7927132Y-14141166D02*
X7897132Y-14171166D01*
X7903950Y-13713700D02*
X7933950Y-13743700D01*
X7933950Y-13713700D02*
X7903950Y-13743700D01*
X7922500Y-9687500D02*
X7952500Y-9717500D01*
X7952500Y-9687500D02*
X7922500Y-9717500D01*
X7935200Y-5788900D02*
X7965200Y-5818900D01*
X7965200Y-5788900D02*
X7935200Y-5818900D01*
X7935200Y-6157200D02*
X7965200Y-6187200D01*
X7965200Y-6157200D02*
X7935200Y-6187200D01*
X7938550Y-12027782D02*
X7968550Y-12057782D01*
X7968550Y-12027782D02*
X7938550Y-12057782D01*
X7942650Y-13560000D02*
X7972650Y-13590000D01*
X7972650Y-13560000D02*
X7942650Y-13590000D01*
X7954300Y-8430500D02*
X7984300Y-8460500D01*
X7984300Y-8430500D02*
X7954300Y-8460500D01*
X7960600Y-6939520D02*
X7990600Y-6969520D01*
X7990600Y-6939520D02*
X7960600Y-6969520D01*
X7971225Y-13680208D02*
X8001225Y-13710208D01*
X8001225Y-13680208D02*
X7971225Y-13710208D01*
X7986000Y-9243300D02*
X8016000Y-9273300D01*
X8016000Y-9243300D02*
X7986000Y-9273300D01*
X8005157Y-12784843D02*
X8035157Y-12814843D01*
X8035157Y-12784843D02*
X8005157Y-12814843D01*
X8010000Y-13020000D02*
X8040000Y-13050000D01*
X8040000Y-13020000D02*
X8010000Y-13050000D01*
X8015000Y-11855000D02*
X8045000Y-11885000D01*
X8045000Y-11855000D02*
X8015000Y-11885000D01*
X8036800Y-14120100D02*
X8066800Y-14150100D01*
X8066800Y-14120100D02*
X8036800Y-14150100D01*
X8055000Y-12685000D02*
X8085000Y-12715000D01*
X8085000Y-12685000D02*
X8055000Y-12715000D01*
X8100300Y-14005800D02*
X8130300Y-14035800D01*
X8130300Y-14005800D02*
X8100300Y-14035800D01*
X8113000Y-14142150D02*
X8143000Y-14172150D01*
X8143000Y-14142150D02*
X8113000Y-14172150D01*
X8125767Y-13450767D02*
X8155767Y-13480767D01*
X8155767Y-13450767D02*
X8125767Y-13480767D01*
X8139000Y-7881840D02*
X8169000Y-7911840D01*
X8169000Y-7881840D02*
X8139000Y-7911840D01*
X8139000Y-8221840D02*
X8169000Y-8251840D01*
X8169000Y-8221840D02*
X8139000Y-8251840D01*
X8145000Y-12715000D02*
X8175000Y-12745000D01*
X8175000Y-12715000D02*
X8145000Y-12745000D01*
X8145390Y-13945680D02*
X8175390Y-13975680D01*
X8175390Y-13945680D02*
X8145390Y-13975680D01*
X8184757Y-14036848D02*
X8214757Y-14066848D01*
X8214757Y-14036848D02*
X8184757Y-14066848D01*
X8201900Y-13421600D02*
X8231900Y-13451600D01*
X8231900Y-13421600D02*
X8201900Y-13451600D01*
X8234920Y-6197840D02*
X8264920Y-6227840D01*
X8264920Y-6197840D02*
X8234920Y-6227840D01*
X8234920Y-6578840D02*
X8264920Y-6608840D01*
X8264920Y-6578840D02*
X8234920Y-6608840D01*
X8240000Y-9230600D02*
X8270000Y-9260600D01*
X8270000Y-9230600D02*
X8240000Y-9260600D01*
X8240000Y-13967700D02*
X8270000Y-13997700D01*
X8270000Y-13967700D02*
X8240000Y-13997700D01*
X8259846Y-12881619D02*
X8289846Y-12911619D01*
X8289846Y-12881619D02*
X8259846Y-12911619D01*
X8265000Y-11725000D02*
X8295000Y-11755000D01*
X8295000Y-11725000D02*
X8265000Y-11755000D01*
X8304775Y-14005801D02*
X8334775Y-14035801D01*
X8334775Y-14005801D02*
X8304775Y-14035801D01*
X8468600Y-5700000D02*
X8498600Y-5730000D01*
X8498600Y-5700000D02*
X8468600Y-5730000D01*
X8519400Y-6157200D02*
X8549400Y-6187200D01*
X8549400Y-6157200D02*
X8519400Y-6187200D01*
X8532100Y-7643100D02*
X8562100Y-7673100D01*
X8562100Y-7643100D02*
X8532100Y-7673100D01*
X8595000Y-13725000D02*
X8625000Y-13755000D01*
X8625000Y-13725000D02*
X8595000Y-13755000D01*
X8600680Y-7208760D02*
X8630680Y-7238760D01*
X8630680Y-7208760D02*
X8600680Y-7238760D01*
X8604235Y-13805765D02*
X8634235Y-13835765D01*
X8634235Y-13805765D02*
X8604235Y-13835765D01*
X8621000Y-9154400D02*
X8651000Y-9184400D01*
X8651000Y-9154400D02*
X8621000Y-9184400D01*
X8625400Y-10665700D02*
X8655400Y-10695700D01*
X8655400Y-10665700D02*
X8625400Y-10695700D01*
X8659100Y-8074900D02*
X8689100Y-8104900D01*
X8689100Y-8074900D02*
X8659100Y-8104900D01*
X8686735Y-14318265D02*
X8716735Y-14348265D01*
X8716735Y-14318265D02*
X8686735Y-14348265D01*
X8780000Y-14330000D02*
X8810000Y-14360000D01*
X8810000Y-14330000D02*
X8780000Y-14360000D01*
X8794624Y-12824623D02*
X8824624Y-12854623D01*
X8824624Y-12824623D02*
X8794624Y-12854623D01*
X8810000Y-13380000D02*
X8840000Y-13410000D01*
X8840000Y-13380000D02*
X8810000Y-13410000D01*
X8825090Y-14269880D02*
X8855090Y-14299880D01*
X8855090Y-14269880D02*
X8825090Y-14299880D01*
X8885000Y-7635000D02*
X8915000Y-7665000D01*
X8915000Y-7635000D02*
X8885000Y-7665000D01*
X8910000Y-12717250D02*
X8940000Y-12747250D01*
X8940000Y-12717250D02*
X8910000Y-12747250D01*
X8990000Y-13844498D02*
X9020000Y-13874498D01*
X9020000Y-13844498D02*
X8990000Y-13874498D01*
X9000000Y-12275000D02*
X9030000Y-12305000D01*
X9030000Y-12275000D02*
X9000000Y-12305000D01*
X9185000Y-13725000D02*
X9215000Y-13755000D01*
X9215000Y-13725000D02*
X9185000Y-13755000D01*
X9305000Y-13000000D02*
X9335000Y-13030000D01*
X9335000Y-13000000D02*
X9305000Y-13030000D01*
X9459200Y-9002000D02*
X9489200Y-9032000D01*
X9489200Y-9002000D02*
X9459200Y-9032000D01*
X9465000Y-12980000D02*
X9495000Y-13010000D01*
X9495000Y-12980000D02*
X9465000Y-13010000D01*
X9540000Y-13055000D02*
X9570000Y-13085000D01*
X9570000Y-13055000D02*
X9540000Y-13085000D01*
X9560800Y-12037300D02*
X9590800Y-12067300D01*
X9590800Y-12037300D02*
X9560800Y-12067300D01*
X9560800Y-12240500D02*
X9590800Y-12270500D01*
X9590800Y-12240500D02*
X9560800Y-12270500D01*
X9560800Y-12443700D02*
X9590800Y-12473700D01*
X9590800Y-12443700D02*
X9560800Y-12473700D01*
X9560800Y-12659600D02*
X9590800Y-12689600D01*
X9590800Y-12659600D02*
X9560800Y-12689600D01*
X9655000Y-14295000D02*
X9685000Y-14325000D01*
X9685000Y-14295000D02*
X9655000Y-14325000D01*
X9660000Y-11935000D02*
X9690000Y-11965000D01*
X9690000Y-11935000D02*
X9660000Y-11965000D01*
X9776700Y-12501310D02*
X9806700Y-12531310D01*
X9806700Y-12501310D02*
X9776700Y-12531310D01*
X9802100Y-10462500D02*
X9832100Y-10492500D01*
X9832100Y-10462500D02*
X9802100Y-10492500D01*
X9802100Y-12380200D02*
X9832100Y-12410200D01*
X9832100Y-12380200D02*
X9802100Y-12410200D01*
X9835000Y-12242230D02*
X9865000Y-12272230D01*
X9865000Y-12242230D02*
X9835000Y-12272230D01*
X9960000Y-11710000D02*
X9990000Y-11740000D01*
X9990000Y-11710000D02*
X9960000Y-11740000D01*
X10010000Y-11035000D02*
X10040000Y-11065000D01*
X10040000Y-11035000D02*
X10010000Y-11065000D01*
X10030000Y-14275000D02*
X10060000Y-14305000D01*
X10060000Y-14275000D02*
X10030000Y-14305000D01*
X10035000Y-9010000D02*
X10065000Y-9040000D01*
X10065000Y-9010000D02*
X10035000Y-9040000D01*
X10094200Y-8367000D02*
X10124200Y-8397000D01*
X10124200Y-8367000D02*
X10094200Y-8397000D01*
X10264235Y-13799235D02*
X10294235Y-13829235D01*
X10294235Y-13799235D02*
X10264235Y-13829235D01*
X10391380Y-11984554D02*
X10421380Y-12014554D01*
X10421380Y-11984554D02*
X10391380Y-12014554D01*
X10490000Y-14284850D02*
X10520000Y-14314850D01*
X10520000Y-14284850D02*
X10490000Y-14314850D01*
X10495000Y-15045000D02*
X10525000Y-15075000D01*
X10525000Y-15045000D02*
X10495000Y-15075000D01*
X10565000Y-14070000D02*
X10595000Y-14100000D01*
X10595000Y-14070000D02*
X10565000Y-14100000D01*
X10576800Y-10868900D02*
X10606800Y-10898900D01*
X10606800Y-10868900D02*
X10576800Y-10898900D01*
X10660000Y-13620000D02*
X10690000Y-13650000D01*
X10690000Y-13620000D02*
X10660000Y-13650000D01*
X10665000Y-13215000D02*
X10695000Y-13245000D01*
X10695000Y-13215000D02*
X10665000Y-13245000D01*
X10755000Y-14127350D02*
X10785000Y-14157350D01*
X10785000Y-14127350D02*
X10755000Y-14157350D01*
X10997500Y-13792500D02*
X11027500Y-13822500D01*
X11027500Y-13792500D02*
X10997500Y-13822500D01*
X11175000Y-15025000D02*
X11205000Y-15055000D01*
X11205000Y-15025000D02*
X11175000Y-15055000D01*
X11190000Y-14550000D02*
X11220000Y-14580000D01*
X11220000Y-14550000D02*
X11190000Y-14580000D01*
X11491200Y-12761200D02*
X11521200Y-12791200D01*
X11521200Y-12761200D02*
X11491200Y-12791200D01*
X11554700Y-12443700D02*
X11584700Y-12473700D01*
X11584700Y-12443700D02*
X11554700Y-12473700D01*
X11554700Y-12646900D02*
X11584700Y-12676900D01*
X11584700Y-12646900D02*
X11554700Y-12676900D01*
X11555000Y-14075000D02*
X11585000Y-14105000D01*
X11585000Y-14075000D02*
X11555000Y-14105000D01*
X11567400Y-5217400D02*
X11597400Y-5247400D01*
X11597400Y-5217400D02*
X11567400Y-5247400D01*
X11685000Y-11160000D02*
X11715000Y-11190000D01*
X11715000Y-11160000D02*
X11685000Y-11190000D01*
X11710000Y-14430000D02*
X11740000Y-14460000D01*
X11740000Y-14430000D02*
X11710000Y-14460000D01*
X11730000Y-14149850D02*
X11760000Y-14179850D01*
X11760000Y-14149850D02*
X11730000Y-14179850D01*
X11732500Y-12313230D02*
X11762500Y-12343230D01*
X11762500Y-12313230D02*
X11732500Y-12343230D01*
X11732500Y-12418300D02*
X11762500Y-12448300D01*
X11762500Y-12418300D02*
X11732500Y-12448300D01*
X11930000Y-13807500D02*
X11960000Y-13837500D01*
X11960000Y-13807500D02*
X11930000Y-13837500D01*
X12035000Y-13749850D02*
X12065000Y-13779850D01*
X12065000Y-13749850D02*
X12035000Y-13779850D01*
X12050000Y-4988800D02*
X12080000Y-5018800D01*
X12080000Y-4988800D02*
X12050000Y-5018800D01*
X12050000Y-12100800D02*
X12080000Y-12130800D01*
X12080000Y-12100800D02*
X12050000Y-12130800D01*
X12075400Y-5141200D02*
X12105400Y-5171200D01*
X12105400Y-5141200D02*
X12075400Y-5171200D01*
X12075400Y-5255500D02*
X12105400Y-5285500D01*
X12105400Y-5255500D02*
X12075400Y-5285500D01*
X12085000Y-14075000D02*
X12115000Y-14105000D01*
X12115000Y-14075000D02*
X12085000Y-14105000D01*
X12151600Y-5382500D02*
X12181600Y-5412500D01*
X12181600Y-5382500D02*
X12151600Y-5412500D01*
X12195000Y-12785000D02*
X12225000Y-12815000D01*
X12225000Y-12785000D02*
X12195000Y-12815000D01*
X12255000Y-14270150D02*
X12285000Y-14300150D01*
X12285000Y-14270150D02*
X12255000Y-14300150D01*
X12330150Y-14270150D02*
X12360150Y-14300150D01*
X12360150Y-14270150D02*
X12330150Y-14300150D01*
X12345000Y-14861105D02*
X12375000Y-14891105D01*
X12375000Y-14861105D02*
X12345000Y-14891105D01*
X12395000Y-13935000D02*
X12425000Y-13965000D01*
X12425000Y-13935000D02*
X12395000Y-13965000D01*
X12405000Y-14027500D02*
X12435000Y-14057500D01*
X12435000Y-14027500D02*
X12405000Y-14057500D01*
X12405000Y-14385000D02*
X12435000Y-14415000D01*
X12435000Y-14385000D02*
X12405000Y-14415000D01*
X12410000Y-9585000D02*
X12440000Y-9615000D01*
X12440000Y-9585000D02*
X12410000Y-9615000D01*
X12410000Y-11285000D02*
X12440000Y-11315000D01*
X12440000Y-11285000D02*
X12410000Y-11315000D01*
X12435000Y-11435000D02*
X12465000Y-11465000D01*
X12465000Y-11435000D02*
X12435000Y-11465000D01*
X12475000Y-12515000D02*
X12505000Y-12545000D01*
X12505000Y-12515000D02*
X12475000Y-12545000D01*
X12498100Y-13505800D02*
X12528100Y-13535800D01*
X12528100Y-13505800D02*
X12498100Y-13535800D01*
X12535000Y-12033150D02*
X12565000Y-12063150D01*
X12565000Y-12033150D02*
X12535000Y-12063150D01*
X12545000Y-14210000D02*
X12575000Y-14240000D01*
X12575000Y-14210000D02*
X12545000Y-14240000D01*
X12548900Y-13239100D02*
X12578900Y-13269100D01*
X12578900Y-13239100D02*
X12548900Y-13269100D01*
X12561600Y-12705700D02*
X12591600Y-12735700D01*
X12591600Y-12705700D02*
X12561600Y-12735700D01*
X12634200Y-5344400D02*
X12664200Y-5374400D01*
X12664200Y-5344400D02*
X12634200Y-5374400D01*
X12655000Y-14745000D02*
X12685000Y-14775000D01*
X12685000Y-14745000D02*
X12655000Y-14775000D01*
X12675000Y-14125000D02*
X12705000Y-14155000D01*
X12705000Y-14125000D02*
X12675000Y-14155000D01*
X12710400Y-5446000D02*
X12740400Y-5476000D01*
X12740400Y-5446000D02*
X12710400Y-5476000D01*
X12725000Y-12195000D02*
X12755000Y-12225000D01*
X12755000Y-12195000D02*
X12725000Y-12225000D01*
X12775900Y-12965200D02*
X12805900Y-12995200D01*
X12805900Y-12965200D02*
X12775900Y-12995200D01*
X12815000Y-12515000D02*
X12845000Y-12545000D01*
X12845000Y-12515000D02*
X12815000Y-12545000D01*
X12837400Y-4785600D02*
X12867400Y-4815600D01*
X12867400Y-4785600D02*
X12837400Y-4815600D01*
X12860000Y-11760000D02*
X12890000Y-11790000D01*
X12890000Y-11760000D02*
X12860000Y-11790000D01*
X12955000Y-14185000D02*
X12985000Y-14215000D01*
X12985000Y-14185000D02*
X12955000Y-14215000D01*
X13015000Y-14032650D02*
X13045000Y-14062650D01*
X13045000Y-14032650D02*
X13015000Y-14062650D01*
X13075000Y-13265000D02*
X13105000Y-13295000D01*
X13105000Y-13265000D02*
X13075000Y-13295000D01*
X13155000Y-12305000D02*
X13185000Y-12335000D01*
X13185000Y-12305000D02*
X13155000Y-12335000D01*
X13172500Y-13817000D02*
X13202500Y-13847000D01*
X13202500Y-13817000D02*
X13172500Y-13847000D01*
X13175000Y-13295000D02*
X13205000Y-13325000D01*
X13205000Y-13295000D02*
X13175000Y-13325000D01*
X13207500Y-14315000D02*
X13237500Y-14345000D01*
X13237500Y-14315000D02*
X13207500Y-14345000D01*
X13243800Y-5381650D02*
X13273800Y-5411650D01*
X13273800Y-5381650D02*
X13243800Y-5411650D01*
X13294600Y-5471400D02*
X13324600Y-5501400D01*
X13324600Y-5471400D02*
X13294600Y-5501400D01*
X13315000Y-13225000D02*
X13345000Y-13255000D01*
X13345000Y-13225000D02*
X13315000Y-13255000D01*
X13332500Y-14315000D02*
X13362500Y-14345000D01*
X13362500Y-14315000D02*
X13332500Y-14345000D01*
X13355000Y-13874650D02*
X13385000Y-13904650D01*
X13385000Y-13874650D02*
X13355000Y-13904650D01*
X13396200Y-5471400D02*
X13426200Y-5501400D01*
X13426200Y-5471400D02*
X13396200Y-5501400D01*
X13452500Y-14317500D02*
X13482500Y-14347500D01*
X13482500Y-14317500D02*
X13452500Y-14347500D01*
X13465000Y-13492500D02*
X13495000Y-13522500D01*
X13495000Y-13492500D02*
X13465000Y-13522500D01*
X13515000Y-12555000D02*
X13545000Y-12585000D01*
X13545000Y-12555000D02*
X13515000Y-12585000D01*
X13542500Y-13972500D02*
X13572500Y-14002500D01*
X13572500Y-13972500D02*
X13542500Y-14002500D01*
X13585000Y-13205000D02*
X13615000Y-13235000D01*
X13615000Y-13205000D02*
X13585000Y-13235000D01*
X13595250Y-10925000D02*
X13625250Y-10955000D01*
X13625250Y-10925000D02*
X13595250Y-10955000D01*
X13644436Y-11935000D02*
X13674436Y-11965000D01*
X13674436Y-11935000D02*
X13644436Y-11965000D01*
X13765000Y-11635000D02*
X13795000Y-11665000D01*
X13795000Y-11635000D02*
X13765000Y-11665000D01*
X13770150Y-13545000D02*
X13800150Y-13575000D01*
X13800150Y-13545000D02*
X13770150Y-13575000D01*
X13785000Y-12255000D02*
X13815000Y-12285000D01*
X13815000Y-12255000D02*
X13785000Y-12285000D01*
X13802600Y-5484100D02*
X13832600Y-5514100D01*
X13832600Y-5484100D02*
X13802600Y-5514100D01*
X13853400Y-4734800D02*
X13883400Y-4764800D01*
X13883400Y-4734800D02*
X13853400Y-4764800D01*
X13853400Y-5573000D02*
X13883400Y-5603000D01*
X13883400Y-5573000D02*
X13853400Y-5603000D01*
X13925000Y-12285000D02*
X13955000Y-12315000D01*
X13955000Y-12285000D02*
X13925000Y-12315000D01*
X13925000Y-13135000D02*
X13955000Y-13165000D01*
X13955000Y-13135000D02*
X13925000Y-13165000D01*
X13945000Y-12535000D02*
X13975000Y-12565000D01*
X13975000Y-12535000D02*
X13945000Y-12565000D01*
X13967700Y-4760200D02*
X13997700Y-4790200D01*
X13997700Y-4760200D02*
X13967700Y-4790200D01*
X13970000Y-13660000D02*
X14000000Y-13690000D01*
X14000000Y-13660000D02*
X13970000Y-13690000D01*
X13985000Y-13985000D02*
X14015000Y-14015000D01*
X14015000Y-13985000D02*
X13985000Y-14015000D01*
X14235000Y-10597350D02*
X14265000Y-10627350D01*
X14265000Y-10597350D02*
X14235000Y-10627350D01*
X14285000Y-10810000D02*
X14315000Y-10840000D01*
X14315000Y-10810000D02*
X14285000Y-10840000D01*
X14295000Y-10385000D02*
X14325000Y-10415000D01*
X14325000Y-10385000D02*
X14295000Y-10415000D01*
X14385000Y-12465000D02*
X14415000Y-12495000D01*
X14415000Y-12465000D02*
X14385000Y-12495000D01*
X14460000Y-13230000D02*
X14490000Y-13260000D01*
X14490000Y-13230000D02*
X14460000Y-13260000D01*
X14505000Y-13635000D02*
X14535000Y-13665000D01*
X14535000Y-13635000D02*
X14505000Y-13665000D01*
X14675000Y-12525000D02*
X14705000Y-12555000D01*
X14705000Y-12525000D02*
X14675000Y-12555000D01*
X14875000Y-11955000D02*
X14905000Y-11985000D01*
X14905000Y-11955000D02*
X14875000Y-11985000D01*
X14925000Y-12727650D02*
X14955000Y-12757650D01*
X14955000Y-12727650D02*
X14925000Y-12757650D01*
X14995000Y-11495000D02*
X15025000Y-11525000D01*
X15025000Y-11495000D02*
X14995000Y-11525000D01*
X15095000Y-13485000D02*
X15125000Y-13515000D01*
X15125000Y-13485000D02*
X15095000Y-13515000D01*
X15119850Y-6295000D02*
X15149850Y-6325000D01*
X15149850Y-6295000D02*
X15119850Y-6325000D01*
D13*
X6220000Y-10835000D02*
G75*
G03*
X6220000Y-10835000I-20000J0D01*
G01*
X6380000Y-14030000D02*
G75*
G03*
X6380000Y-14030000I-20000J0D01*
G01*
X6840000Y-13620000D02*
G75*
G03*
X6840000Y-13620000I-20000J0D01*
G01*
X6885000Y-10730000D02*
G75*
G03*
X6885000Y-10730000I-20000J0D01*
G01*
X7160000Y-13960000D02*
G75*
G03*
X7160000Y-13960000I-20000J0D01*
G01*
X7195000Y-14420500D02*
G75*
G03*
X7195000Y-14420500I-20000J0D01*
G01*
X7660000Y-8520000D02*
G75*
G03*
X7660000Y-8520000I-20000J0D01*
G01*
X7780000Y-9500000D02*
G75*
G03*
X7780000Y-9500000I-20000J0D01*
G01*
X7944800Y-11226800D02*
G75*
G03*
X7944800Y-11226800I-20000J0D01*
G01*
X8224200Y-9804400D02*
G75*
G03*
X8224200Y-9804400I-20000J0D01*
G01*
X8275000Y-4711700D02*
G75*
G03*
X8275000Y-4711700I-20000J0D01*
G01*
X8275000Y-5067300D02*
G75*
G03*
X8275000Y-5067300I-20000J0D01*
G01*
X8330880Y-8587740D02*
G75*
G03*
X8330880Y-8587740I-20000J0D01*
G01*
X8420000Y-9425000D02*
G75*
G03*
X8420000Y-9425000I-20000J0D01*
G01*
X8569790Y-13662350D02*
G75*
G03*
X8569790Y-13662350I-20000J0D01*
G01*
X8607263Y-13574374D02*
G75*
G03*
X8607263Y-13574374I-20000J0D01*
G01*
X8702410Y-13575140D02*
G75*
G03*
X8702410Y-13575140I-20000J0D01*
G01*
X8709340Y-7828280D02*
G75*
G03*
X8709340Y-7828280I-20000J0D01*
G01*
X9280000Y-12800000D02*
G75*
G03*
X9280000Y-12800000I-20000J0D01*
G01*
X9320000Y-8275000D02*
G75*
G03*
X9320000Y-8275000I-20000J0D01*
G01*
X9345000Y-9650000D02*
G75*
G03*
X9345000Y-9650000I-20000J0D01*
G01*
X9699940Y-12946380D02*
G75*
G03*
X9699940Y-12946380I-20000J0D01*
G01*
X9770000Y-11700000D02*
G75*
G03*
X9770000Y-11700000I-20000J0D01*
G01*
X9953940Y-12674600D02*
G75*
G03*
X9953940Y-12674600I-20000J0D01*
G01*
X10191450Y-11397198D02*
G75*
G03*
X10191450Y-11397198I-20000J0D01*
G01*
X10307000Y-12725400D02*
G75*
G03*
X10307000Y-12725400I-20000J0D01*
G01*
X10393418Y-11750966D02*
G75*
G03*
X10393418Y-11750966I-20000J0D01*
G01*
X10497500Y-9283700D02*
G75*
G03*
X10497500Y-9283700I-20000J0D01*
G01*
X10637200Y-9308250D02*
G75*
G03*
X10637200Y-9308250I-20000J0D01*
G01*
X10903900Y-11874500D02*
G75*
G03*
X10903900Y-11874500I-20000J0D01*
G01*
X11348400Y-12712700D02*
G75*
G03*
X11348400Y-12712700I-20000J0D01*
G01*
X11386500Y-11544300D02*
G75*
G03*
X11386500Y-11544300I-20000J0D01*
G01*
X11442299Y-12655929D02*
G75*
G03*
X11442299Y-12655929I-20000J0D01*
G01*
X11541440Y-11521440D02*
G75*
G03*
X11541440Y-11521440I-20000J0D01*
G01*
X11600000Y-11650000D02*
G75*
G03*
X11600000Y-11650000I-20000J0D01*
G01*
X11615100Y-12951460D02*
G75*
G03*
X11615100Y-12951460I-20000J0D01*
G01*
X12008800Y-10528300D02*
G75*
G03*
X12008800Y-10528300I-20000J0D01*
G01*
X12012400Y-13571600D02*
G75*
G03*
X12012400Y-13571600I-20000J0D01*
G01*
X12063200Y-13025500D02*
G75*
G03*
X12063200Y-13025500I-20000J0D01*
G01*
X12339000Y-9283700D02*
G75*
G03*
X12339000Y-9283700I-20000J0D01*
G01*
X12520400Y-12962000D02*
G75*
G03*
X12520400Y-12962000I-20000J0D01*
G01*
X12860000Y-15100000D02*
G75*
G03*
X12860000Y-15100000I-20000J0D01*
G01*
X13530639Y-13125639D02*
G75*
G03*
X13530639Y-13125639I-20000J0D01*
G01*
X13645757Y-7407243D02*
G75*
G03*
X13645757Y-7407243I-20000J0D01*
G01*
X13679404Y-7593328D02*
G75*
G03*
X13679404Y-7593328I-20000J0D01*
G01*
X13786800Y-10363200D02*
G75*
G03*
X13786800Y-10363200I-20000J0D01*
G01*
X13799500Y-9271000D02*
G75*
G03*
X13799500Y-9271000I-20000J0D01*
G01*
X13845522Y-7199478D02*
G75*
G03*
X13845522Y-7199478I-20000J0D01*
G01*
X14091600Y-9347200D02*
G75*
G03*
X14091600Y-9347200I-20000J0D01*
G01*
X14120000Y-10675000D02*
G75*
G03*
X14120000Y-10675000I-20000J0D01*
G01*
X14150000Y-11430000D02*
G75*
G03*
X14150000Y-11430000I-20000J0D01*
G01*
X14193200Y-9194800D02*
G75*
G03*
X14193200Y-9194800I-20000J0D01*
G01*
X14218600Y-4546600D02*
G75*
G03*
X14218600Y-4546600I-20000J0D01*
G01*
X14220000Y-10750000D02*
G75*
G03*
X14220000Y-10750000I-20000J0D01*
G01*
X14475000Y-12260000D02*
G75*
G03*
X14475000Y-12260000I-20000J0D01*
G01*
X14490000Y-12755000D02*
G75*
G03*
X14490000Y-12755000I-20000J0D01*
G01*
X14498000Y-4533900D02*
G75*
G03*
X14498000Y-4533900I-20000J0D01*
G01*
X14580000Y-12030000D02*
G75*
G03*
X14580000Y-12030000I-20000J0D01*
G01*
X14587750Y-7226300D02*
G75*
G03*
X14587750Y-7226300I-20000J0D01*
G01*
X14648751Y-7581900D02*
G75*
G03*
X14648751Y-7581900I-20000J0D01*
G01*
X14665000Y-6260000D02*
G75*
G03*
X14665000Y-6260000I-20000J0D01*
G01*
X14713901Y-7467600D02*
G75*
G03*
X14713901Y-7467600I-20000J0D01*
G01*
X14745000Y-6230000D02*
G75*
G03*
X14745000Y-6230000I-20000J0D01*
G01*
X14780392Y-7414406D02*
G75*
G03*
X14780392Y-7414406I-20000J0D01*
G01*
X14834422Y-5476628D02*
G75*
G03*
X14834422Y-5476628I-20000J0D01*
G01*
X14857074Y-7377387D02*
G75*
G03*
X14857074Y-7377387I-20000J0D01*
G01*
X14870000Y-6245000D02*
G75*
G03*
X14870000Y-6245000I-20000J0D01*
G01*
X14904400Y-8001000D02*
G75*
G03*
X14904400Y-8001000I-20000J0D01*
G01*
X15159850Y-6451600D02*
G75*
G03*
X15159850Y-6451600I-20000J0D01*
G01*
X15200336Y-12900000D02*
G75*
G03*
X15200336Y-12900000I-20000J0D01*
G01*
X6085000Y-5970000D02*
X6085000Y-6010000D01*
X6065000Y-5990000D02*
X6105000Y-5990000D01*
X6133327Y-5853327D02*
X6133327Y-5893327D01*
X6113327Y-5873327D02*
X6153327Y-5873327D01*
X6133327Y-6086673D02*
X6133327Y-6126673D01*
X6113327Y-6106673D02*
X6153327Y-6106673D01*
X6250000Y-5805000D02*
X6250000Y-5845000D01*
X6230000Y-5825000D02*
X6270000Y-5825000D01*
X6250000Y-6135000D02*
X6250000Y-6175000D01*
X6230000Y-6155000D02*
X6270000Y-6155000D01*
X6366673Y-5853327D02*
X6366673Y-5893327D01*
X6346673Y-5873327D02*
X6386673Y-5873327D01*
X6366673Y-6086673D02*
X6366673Y-6126673D01*
X6346673Y-6106673D02*
X6386673Y-6106673D01*
X6415000Y-5970000D02*
X6415000Y-6010000D01*
X6395000Y-5990000D02*
X6435000Y-5990000D01*
X6415000Y-15170000D02*
X6415000Y-15210000D01*
X6395000Y-15190000D02*
X6435000Y-15190000D01*
X6463327Y-15053327D02*
X6463327Y-15093327D01*
X6443327Y-15073327D02*
X6483327Y-15073327D01*
X6463327Y-15286673D02*
X6463327Y-15326673D01*
X6443327Y-15306673D02*
X6483327Y-15306673D01*
X6580000Y-15005000D02*
X6580000Y-15045000D01*
X6560000Y-15025000D02*
X6600000Y-15025000D01*
X6580000Y-15335000D02*
X6580000Y-15375000D01*
X6560000Y-15355000D02*
X6600000Y-15355000D01*
X6696673Y-15053327D02*
X6696673Y-15093327D01*
X6676673Y-15073327D02*
X6716673Y-15073327D01*
X6696673Y-15286673D02*
X6696673Y-15326673D01*
X6676673Y-15306673D02*
X6716673Y-15306673D01*
X6745000Y-15170000D02*
X6745000Y-15210000D01*
X6725000Y-15190000D02*
X6765000Y-15190000D01*
X9207600Y-6406200D02*
X9207600Y-6446200D01*
X9187600Y-6426200D02*
X9227600Y-6426200D01*
X9255927Y-6289527D02*
X9255927Y-6329527D01*
X9235927Y-6309527D02*
X9275927Y-6309527D01*
X9255927Y-6522873D02*
X9255927Y-6562873D01*
X9235927Y-6542873D02*
X9275927Y-6542873D01*
X9372600Y-6241200D02*
X9372600Y-6281200D01*
X9352600Y-6261200D02*
X9392600Y-6261200D01*
X9372600Y-6571200D02*
X9372600Y-6611200D01*
X9352600Y-6591200D02*
X9392600Y-6591200D01*
X9489273Y-6289527D02*
X9489273Y-6329527D01*
X9469273Y-6309527D02*
X9509273Y-6309527D01*
X9489273Y-6522873D02*
X9489273Y-6562873D01*
X9469273Y-6542873D02*
X9509273Y-6542873D01*
X9537600Y-6406200D02*
X9537600Y-6446200D01*
X9517600Y-6426200D02*
X9557600Y-6426200D01*
X14815000Y-15190000D02*
X14815000Y-15230000D01*
X14795000Y-15210000D02*
X14835000Y-15210000D01*
X14863327Y-15073327D02*
X14863327Y-15113327D01*
X14843327Y-15093327D02*
X14883327Y-15093327D01*
X14863327Y-15306673D02*
X14863327Y-15346673D01*
X14843327Y-15326673D02*
X14883327Y-15326673D01*
X14909900Y-5161600D02*
X14909900Y-5201600D01*
X14889900Y-5181600D02*
X14929900Y-5181600D01*
X14958227Y-5044927D02*
X14958227Y-5084927D01*
X14938227Y-5064927D02*
X14978227Y-5064927D01*
X14958227Y-5278273D02*
X14958227Y-5318273D01*
X14938227Y-5298273D02*
X14978227Y-5298273D01*
X14980000Y-15025000D02*
X14980000Y-15065000D01*
X14960000Y-15045000D02*
X15000000Y-15045000D01*
X14980000Y-15355000D02*
X14980000Y-15395000D01*
X14960000Y-15375000D02*
X15000000Y-15375000D01*
X15074900Y-4996600D02*
X15074900Y-5036600D01*
X15054900Y-5016600D02*
X15094900Y-5016600D01*
X15074900Y-5326600D02*
X15074900Y-5366600D01*
X15054900Y-5346600D02*
X15094900Y-5346600D01*
X15096673Y-15073327D02*
X15096673Y-15113327D01*
X15076673Y-15093327D02*
X15116673Y-15093327D01*
X15096673Y-15306673D02*
X15096673Y-15346673D01*
X15076673Y-15326673D02*
X15116673Y-15326673D01*
X15145000Y-15190000D02*
X15145000Y-15230000D01*
X15125000Y-15210000D02*
X15165000Y-15210000D01*
X15191573Y-5044927D02*
X15191573Y-5084927D01*
X15171573Y-5064927D02*
X15211573Y-5064927D01*
X15191573Y-5278273D02*
X15191573Y-5318273D01*
X15171573Y-5298273D02*
X15211573Y-5298273D01*
X15239900Y-5161600D02*
X15239900Y-5201600D01*
X15219900Y-5181600D02*
X15259900Y-5181600D01*
D10*
X13537678Y-12047678D02*
X13537678Y-12012322D01*
X13502322Y-12012322D01*
X13502322Y-12047678D01*
X13537678Y-12047678D01*
X13597678Y-12847678D02*
X13597678Y-12812322D01*
X13562322Y-12812322D01*
X13562322Y-12847678D01*
X13597678Y-12847678D01*
X14337678Y-12057678D02*
X14337678Y-12022322D01*
X14302322Y-12022322D01*
X14302322Y-12057678D01*
X14337678Y-12057678D01*
X14347678Y-12847678D02*
X14347678Y-12812322D01*
X14312322Y-12812322D01*
X14312322Y-12847678D01*
X14347678Y-12847678D01*
X15077678Y-12057678D02*
X15077678Y-12022322D01*
X15042322Y-12022322D01*
X15042322Y-12057678D01*
X15077678Y-12057678D01*
X15077678Y-12857678D02*
X15077678Y-12822322D01*
X15042322Y-12822322D01*
X15042322Y-12857678D01*
X15077678Y-12857678D01*
D14*
X6043000Y-14067500D02*
X6075500Y-14035000D01*
X6043000Y-14002500D01*
X6010500Y-14035000D01*
X6043000Y-14067500D01*
X6043000Y-14194500D02*
X6075500Y-14162000D01*
X6043000Y-14129500D01*
X6010500Y-14162000D01*
X6043000Y-14194500D01*
X6043000Y-14321500D02*
X6075500Y-14289000D01*
X6043000Y-14256500D01*
X6010500Y-14289000D01*
X6043000Y-14321500D01*
X6043000Y-14448500D02*
X6075500Y-14416000D01*
X6043000Y-14383500D01*
X6010500Y-14416000D01*
X6043000Y-14448500D01*
X6043000Y-14575500D02*
X6075500Y-14543000D01*
X6043000Y-14510500D01*
X6010500Y-14543000D01*
X6043000Y-14575500D01*
X6043000Y-14702500D02*
X6075500Y-14670000D01*
X6043000Y-14637500D01*
X6010500Y-14670000D01*
X6043000Y-14702500D01*
X6043000Y-14829500D02*
X6075500Y-14797000D01*
X6043000Y-14764500D01*
X6010500Y-14797000D01*
X6043000Y-14829500D01*
X6043000Y-14956500D02*
X6075500Y-14924000D01*
X6043000Y-14891500D01*
X6010500Y-14924000D01*
X6043000Y-14956500D01*
X6170000Y-14067500D02*
X6202500Y-14035000D01*
X6170000Y-14002500D01*
X6137500Y-14035000D01*
X6170000Y-14067500D01*
X6170000Y-14194500D02*
X6202500Y-14162000D01*
X6170000Y-14129500D01*
X6137500Y-14162000D01*
X6170000Y-14194500D01*
X6170000Y-14321500D02*
X6202500Y-14289000D01*
X6170000Y-14256500D01*
X6137500Y-14289000D01*
X6170000Y-14321500D01*
X6170000Y-14448500D02*
X6202500Y-14416000D01*
X6170000Y-14383500D01*
X6137500Y-14416000D01*
X6170000Y-14448500D01*
X6170000Y-14575500D02*
X6202500Y-14543000D01*
X6170000Y-14510500D01*
X6137500Y-14543000D01*
X6170000Y-14575500D01*
X6170000Y-14702500D02*
X6202500Y-14670000D01*
X6170000Y-14637500D01*
X6137500Y-14670000D01*
X6170000Y-14702500D01*
X6170000Y-14829500D02*
X6202500Y-14797000D01*
X6170000Y-14764500D01*
X6137500Y-14797000D01*
X6170000Y-14829500D01*
X6170000Y-14956500D02*
X6202500Y-14924000D01*
X6170000Y-14891500D01*
X6137500Y-14924000D01*
X6170000Y-14956500D01*
D15*
X7750000Y-12380000D02*
X7830000Y-12460000D01*
X7830000Y-12380000D02*
X7750000Y-12460000D01*
X7830000Y-12420000D02*
G75*
G03*
X7830000Y-12420000I-40000J0D01*
G01*
X8989700Y-13079100D02*
X9069700Y-13159100D01*
X9069700Y-13079100D02*
X8989700Y-13159100D01*
X9069700Y-13119100D02*
G75*
G03*
X9069700Y-13119100I-40000J0D01*
G01*
X10056500Y-11580500D02*
X10136500Y-11660500D01*
X10136500Y-11580500D02*
X10056500Y-11660500D01*
X10136500Y-11620500D02*
G75*
G03*
X10136500Y-11620500I-40000J0D01*
G01*
X10069200Y-12901300D02*
X10149200Y-12981300D01*
X10149200Y-12901300D02*
X10069200Y-12981300D01*
X10149200Y-12941300D02*
G75*
G03*
X10149200Y-12941300I-40000J0D01*
G01*
X10374000Y-12101200D02*
X10454000Y-12181200D01*
X10454000Y-12101200D02*
X10374000Y-12181200D01*
X10454000Y-12141200D02*
G75*
G03*
X10454000Y-12141200I-40000J0D01*
G01*
X10386700Y-12393300D02*
X10466700Y-12473300D01*
X10466700Y-12393300D02*
X10386700Y-12473300D01*
X10466700Y-12433300D02*
G75*
G03*
X10466700Y-12433300I-40000J0D01*
G01*
X10691500Y-12101200D02*
X10771500Y-12181200D01*
X10771500Y-12101200D02*
X10691500Y-12181200D01*
X10771500Y-12141200D02*
G75*
G03*
X10771500Y-12141200I-40000J0D01*
G01*
X10691500Y-12393300D02*
X10771500Y-12473300D01*
X10771500Y-12393300D02*
X10691500Y-12473300D01*
X10771500Y-12433300D02*
G75*
G03*
X10771500Y-12433300I-40000J0D01*
G01*
X11009000Y-11605900D02*
X11089000Y-11685900D01*
X11089000Y-11605900D02*
X11009000Y-11685900D01*
X11089000Y-11645900D02*
G75*
G03*
X11089000Y-11645900I-40000J0D01*
G01*
X11009000Y-12926700D02*
X11089000Y-13006700D01*
X11089000Y-12926700D02*
X11009000Y-13006700D01*
X11089000Y-12966700D02*
G75*
G03*
X11089000Y-12966700I-40000J0D01*
G01*
X12390000Y-11895000D02*
X12470000Y-11975000D01*
X12470000Y-11895000D02*
X12390000Y-11975000D01*
X12470000Y-11935000D02*
G75*
G03*
X12470000Y-11935000I-40000J0D01*
G01*
X13089260Y-10506080D02*
X13169260Y-10586080D01*
X13169260Y-10506080D02*
X13089260Y-10586080D01*
X13169260Y-10546080D02*
G75*
G03*
X13169260Y-10546080I-40000J0D01*
G01*
X13091800Y-9545200D02*
X13171800Y-9625200D01*
X13171800Y-9545200D02*
X13091800Y-9625200D01*
X13171800Y-9585200D02*
G75*
G03*
X13171800Y-9585200I-40000J0D01*
G01*
X15145000Y-11855000D02*
X15225000Y-11935000D01*
X15225000Y-11855000D02*
X15145000Y-11935000D01*
X15225000Y-11895000D02*
G75*
G03*
X15225000Y-11895000I-40000J0D01*
G01*
D16*
X6378000Y-5191750D02*
X6470000Y-5283750D01*
X6470000Y-5191750D02*
X6378000Y-5283750D01*
X6424000Y-5191750D02*
X6424000Y-5283750D01*
X6378000Y-5237750D02*
X6470000Y-5237750D01*
X6378000Y-5391750D02*
X6470000Y-5483750D01*
X6470000Y-5391750D02*
X6378000Y-5483750D01*
X6424000Y-5391750D02*
X6424000Y-5483750D01*
X6378000Y-5437750D02*
X6470000Y-5437750D01*
X6628000Y-5191750D02*
X6720000Y-5283750D01*
X6720000Y-5191750D02*
X6628000Y-5283750D01*
X6674000Y-5191750D02*
X6674000Y-5283750D01*
X6628000Y-5237750D02*
X6720000Y-5237750D01*
X6628000Y-5391750D02*
X6720000Y-5483750D01*
X6720000Y-5391750D02*
X6628000Y-5483750D01*
X6674000Y-5391750D02*
X6674000Y-5483750D01*
X6628000Y-5437750D02*
X6720000Y-5437750D01*
D17*
X8103400Y-11303800D02*
X8203400Y-11403800D01*
X8203400Y-11303800D02*
X8103400Y-11403800D01*
X8188756Y-11389156D02*
X8188756Y-11318444D01*
X8118044Y-11318444D01*
X8118044Y-11389156D01*
X8188756Y-11389156D01*
X8357400Y-11303800D02*
X8457400Y-11403800D01*
X8457400Y-11303800D02*
X8357400Y-11403800D01*
X8442756Y-11389156D02*
X8442756Y-11318444D01*
X8372044Y-11318444D01*
X8372044Y-11389156D01*
X8442756Y-11389156D01*
X8611400Y-11303800D02*
X8711400Y-11403800D01*
X8711400Y-11303800D02*
X8611400Y-11403800D01*
X8696756Y-11389156D02*
X8696756Y-11318444D01*
X8626044Y-11318444D01*
X8626044Y-11389156D01*
X8696756Y-11389156D01*
D18*
X6090000Y-6486000D02*
X6200000Y-6596000D01*
X6200000Y-6486000D02*
X6090000Y-6596000D01*
X6145000Y-6596000D02*
X6200000Y-6541000D01*
X6145000Y-6486000D01*
X6090000Y-6541000D01*
X6145000Y-6596000D01*
X6090000Y-6740000D02*
X6200000Y-6850000D01*
X6200000Y-6740000D02*
X6090000Y-6850000D01*
X6145000Y-6850000D02*
X6200000Y-6795000D01*
X6145000Y-6740000D01*
X6090000Y-6795000D01*
X6145000Y-6850000D01*
X6090000Y-6994000D02*
X6200000Y-7104000D01*
X6200000Y-6994000D02*
X6090000Y-7104000D01*
X6145000Y-7104000D02*
X6200000Y-7049000D01*
X6145000Y-6994000D01*
X6090000Y-7049000D01*
X6145000Y-7104000D01*
X6090000Y-7248000D02*
X6200000Y-7358000D01*
X6200000Y-7248000D02*
X6090000Y-7358000D01*
X6145000Y-7358000D02*
X6200000Y-7303000D01*
X6145000Y-7248000D01*
X6090000Y-7303000D01*
X6145000Y-7358000D01*
X6090000Y-7502000D02*
X6200000Y-7612000D01*
X6200000Y-7502000D02*
X6090000Y-7612000D01*
X6145000Y-7612000D02*
X6200000Y-7557000D01*
X6145000Y-7502000D01*
X6090000Y-7557000D01*
X6145000Y-7612000D01*
X6090000Y-7756000D02*
X6200000Y-7866000D01*
X6200000Y-7756000D02*
X6090000Y-7866000D01*
X6145000Y-7866000D02*
X6200000Y-7811000D01*
X6145000Y-7756000D01*
X6090000Y-7811000D01*
X6145000Y-7866000D01*
X6090000Y-8010000D02*
X6200000Y-8120000D01*
X6200000Y-8010000D02*
X6090000Y-8120000D01*
X6145000Y-8120000D02*
X6200000Y-8065000D01*
X6145000Y-8010000D01*
X6090000Y-8065000D01*
X6145000Y-8120000D01*
X6090000Y-8264000D02*
X6200000Y-8374000D01*
X6200000Y-8264000D02*
X6090000Y-8374000D01*
X6145000Y-8374000D02*
X6200000Y-8319000D01*
X6145000Y-8264000D01*
X6090000Y-8319000D01*
X6145000Y-8374000D01*
X7360000Y-6486000D02*
X7470000Y-6596000D01*
X7470000Y-6486000D02*
X7360000Y-6596000D01*
X7415000Y-6596000D02*
X7470000Y-6541000D01*
X7415000Y-6486000D01*
X7360000Y-6541000D01*
X7415000Y-6596000D01*
X7360000Y-6740000D02*
X7470000Y-6850000D01*
X7470000Y-6740000D02*
X7360000Y-6850000D01*
X7415000Y-6850000D02*
X7470000Y-6795000D01*
X7415000Y-6740000D01*
X7360000Y-6795000D01*
X7415000Y-6850000D01*
X7360000Y-6994000D02*
X7470000Y-7104000D01*
X7470000Y-6994000D02*
X7360000Y-7104000D01*
X7415000Y-7104000D02*
X7470000Y-7049000D01*
X7415000Y-6994000D01*
X7360000Y-7049000D01*
X7415000Y-7104000D01*
X7360000Y-7248000D02*
X7470000Y-7358000D01*
X7470000Y-7248000D02*
X7360000Y-7358000D01*
X7415000Y-7358000D02*
X7470000Y-7303000D01*
X7415000Y-7248000D01*
X7360000Y-7303000D01*
X7415000Y-7358000D01*
X7360000Y-7502000D02*
X7470000Y-7612000D01*
X7470000Y-7502000D02*
X7360000Y-7612000D01*
X7415000Y-7612000D02*
X7470000Y-7557000D01*
X7415000Y-7502000D01*
X7360000Y-7557000D01*
X7415000Y-7612000D01*
X7360000Y-7756000D02*
X7470000Y-7866000D01*
X7470000Y-7756000D02*
X7360000Y-7866000D01*
X7415000Y-7866000D02*
X7470000Y-7811000D01*
X7415000Y-7756000D01*
X7360000Y-7811000D01*
X7415000Y-7866000D01*
X7360000Y-8010000D02*
X7470000Y-8120000D01*
X7470000Y-8010000D02*
X7360000Y-8120000D01*
X7415000Y-8120000D02*
X7470000Y-8065000D01*
X7415000Y-8010000D01*
X7360000Y-8065000D01*
X7415000Y-8120000D01*
X7360000Y-8264000D02*
X7470000Y-8374000D01*
X7470000Y-8264000D02*
X7360000Y-8374000D01*
X7415000Y-8374000D02*
X7470000Y-8319000D01*
X7415000Y-8264000D01*
X7360000Y-8319000D01*
X7415000Y-8374000D01*
X13044300Y-8174600D02*
X13154300Y-8284600D01*
X13154300Y-8174600D02*
X13044300Y-8284600D01*
X13099300Y-8284600D02*
X13154300Y-8229600D01*
X13099300Y-8174600D01*
X13044300Y-8229600D01*
X13099300Y-8284600D01*
X13044300Y-8428600D02*
X13154300Y-8538600D01*
X13154300Y-8428600D02*
X13044300Y-8538600D01*
X13099300Y-8538600D02*
X13154300Y-8483600D01*
X13099300Y-8428600D01*
X13044300Y-8483600D01*
X13099300Y-8538600D01*
X13044300Y-8682600D02*
X13154300Y-8792600D01*
X13154300Y-8682600D02*
X13044300Y-8792600D01*
X13099300Y-8792600D02*
X13154300Y-8737600D01*
X13099300Y-8682600D01*
X13044300Y-8737600D01*
X13099300Y-8792600D01*
X13976480Y-8161900D02*
X14086480Y-8271900D01*
X14086480Y-8161900D02*
X13976480Y-8271900D01*
X14031480Y-8271900D02*
X14086480Y-8216900D01*
X14031480Y-8161900D01*
X13976480Y-8216900D01*
X14031480Y-8271900D01*
X13976480Y-8415900D02*
X14086480Y-8525900D01*
X14086480Y-8415900D02*
X13976480Y-8525900D01*
X14031480Y-8525900D02*
X14086480Y-8470900D01*
X14031480Y-8415900D01*
X13976480Y-8470900D01*
X14031480Y-8525900D01*
X13976480Y-8669900D02*
X14086480Y-8779900D01*
X14086480Y-8669900D02*
X13976480Y-8779900D01*
X14031480Y-8779900D02*
X14086480Y-8724900D01*
X14031480Y-8669900D01*
X13976480Y-8724900D01*
X14031480Y-8779900D01*
X14397600Y-4859900D02*
X14507600Y-4969900D01*
X14507600Y-4859900D02*
X14397600Y-4969900D01*
X14452600Y-4969900D02*
X14507600Y-4914900D01*
X14452600Y-4859900D01*
X14397600Y-4914900D01*
X14452600Y-4969900D01*
X14397600Y-5113900D02*
X14507600Y-5223900D01*
X14507600Y-5113900D02*
X14397600Y-5223900D01*
X14452600Y-5223900D02*
X14507600Y-5168900D01*
X14452600Y-5113900D01*
X14397600Y-5168900D01*
X14452600Y-5223900D01*
X14397600Y-5367900D02*
X14507600Y-5477900D01*
X14507600Y-5367900D02*
X14397600Y-5477900D01*
X14452600Y-5477900D02*
X14507600Y-5422900D01*
X14452600Y-5367900D01*
X14397600Y-5422900D01*
X14452600Y-5477900D01*
X14976720Y-8184760D02*
X15086720Y-8294760D01*
X15086720Y-8184760D02*
X14976720Y-8294760D01*
X15031720Y-8294760D02*
X15086720Y-8239760D01*
X15031720Y-8184760D01*
X14976720Y-8239760D01*
X15031720Y-8294760D01*
X14976720Y-8438760D02*
X15086720Y-8548760D01*
X15086720Y-8438760D02*
X14976720Y-8548760D01*
X15031720Y-8548760D02*
X15086720Y-8493760D01*
X15031720Y-8438760D01*
X14976720Y-8493760D01*
X15031720Y-8548760D01*
X14976720Y-8692760D02*
X15086720Y-8802760D01*
X15086720Y-8692760D02*
X14976720Y-8802760D01*
X15031720Y-8802760D02*
X15086720Y-8747760D01*
X15031720Y-8692760D01*
X14976720Y-8747760D01*
X15031720Y-8802760D01*
D19*
X10506500Y-6031000D02*
X10506500Y-6151000D01*
X10446500Y-6091000D02*
X10566500Y-6091000D01*
X10566500Y-6091000D02*
G75*
G03*
X10566500Y-6091000I-60000J0D01*
G01*
X10506500Y-6431000D02*
X10506500Y-6551000D01*
X10446500Y-6491000D02*
X10566500Y-6491000D01*
X10566500Y-6491000D02*
G75*
G03*
X10566500Y-6491000I-60000J0D01*
G01*
X10506500Y-6831000D02*
X10506500Y-6951000D01*
X10446500Y-6891000D02*
X10566500Y-6891000D01*
X10566500Y-6891000D02*
G75*
G03*
X10566500Y-6891000I-60000J0D01*
G01*
X10506500Y-7231000D02*
X10506500Y-7351000D01*
X10446500Y-7291000D02*
X10566500Y-7291000D01*
X10566500Y-7291000D02*
G75*
G03*
X10566500Y-7291000I-60000J0D01*
G01*
X10856500Y-6031000D02*
X10856500Y-6151000D01*
X10796500Y-6091000D02*
X10916500Y-6091000D01*
X10916500Y-6091000D02*
G75*
G03*
X10916500Y-6091000I-60000J0D01*
G01*
X10856500Y-6431000D02*
X10856500Y-6551000D01*
X10796500Y-6491000D02*
X10916500Y-6491000D01*
X10916500Y-6491000D02*
G75*
G03*
X10916500Y-6491000I-60000J0D01*
G01*
X10856500Y-6831000D02*
X10856500Y-6951000D01*
X10796500Y-6891000D02*
X10916500Y-6891000D01*
X10916500Y-6891000D02*
G75*
G03*
X10916500Y-6891000I-60000J0D01*
G01*
X10856500Y-7231000D02*
X10856500Y-7351000D01*
X10796500Y-7291000D02*
X10916500Y-7291000D01*
X10916500Y-7291000D02*
G75*
G03*
X10916500Y-7291000I-60000J0D01*
G01*
X11206500Y-6031000D02*
X11206500Y-6151000D01*
X11146500Y-6091000D02*
X11266500Y-6091000D01*
X11266500Y-6091000D02*
G75*
G03*
X11266500Y-6091000I-60000J0D01*
G01*
X11206500Y-6431000D02*
X11206500Y-6551000D01*
X11146500Y-6491000D02*
X11266500Y-6491000D01*
X11266500Y-6491000D02*
G75*
G03*
X11266500Y-6491000I-60000J0D01*
G01*
X11206500Y-6831000D02*
X11206500Y-6951000D01*
X11146500Y-6891000D02*
X11266500Y-6891000D01*
X11266500Y-6891000D02*
G75*
G03*
X11266500Y-6891000I-60000J0D01*
G01*
X11206500Y-7231000D02*
X11206500Y-7351000D01*
X11146500Y-7291000D02*
X11266500Y-7291000D01*
X11266500Y-7291000D02*
G75*
G03*
X11266500Y-7291000I-60000J0D01*
G01*
X11456500Y-6031000D02*
X11456500Y-6151000D01*
X11396500Y-6091000D02*
X11516500Y-6091000D01*
X11516500Y-6091000D02*
G75*
G03*
X11516500Y-6091000I-60000J0D01*
G01*
X11456500Y-6431000D02*
X11456500Y-6551000D01*
X11396500Y-6491000D02*
X11516500Y-6491000D01*
X11516500Y-6491000D02*
G75*
G03*
X11516500Y-6491000I-60000J0D01*
G01*
X11456500Y-6831000D02*
X11456500Y-6951000D01*
X11396500Y-6891000D02*
X11516500Y-6891000D01*
X11516500Y-6891000D02*
G75*
G03*
X11516500Y-6891000I-60000J0D01*
G01*
X11456500Y-7231000D02*
X11456500Y-7351000D01*
X11396500Y-7291000D02*
X11516500Y-7291000D01*
X11516500Y-7291000D02*
G75*
G03*
X11516500Y-7291000I-60000J0D01*
G01*
X11706500Y-6031000D02*
X11706500Y-6151000D01*
X11646500Y-6091000D02*
X11766500Y-6091000D01*
X11766500Y-6091000D02*
G75*
G03*
X11766500Y-6091000I-60000J0D01*
G01*
X11706500Y-6431000D02*
X11706500Y-6551000D01*
X11646500Y-6491000D02*
X11766500Y-6491000D01*
X11766500Y-6491000D02*
G75*
G03*
X11766500Y-6491000I-60000J0D01*
G01*
X11706500Y-6831000D02*
X11706500Y-6951000D01*
X11646500Y-6891000D02*
X11766500Y-6891000D01*
X11766500Y-6891000D02*
G75*
G03*
X11766500Y-6891000I-60000J0D01*
G01*
X11706500Y-7231000D02*
X11706500Y-7351000D01*
X11646500Y-7291000D02*
X11766500Y-7291000D01*
X11766500Y-7291000D02*
G75*
G03*
X11766500Y-7291000I-60000J0D01*
G01*
X11956500Y-6031000D02*
X11956500Y-6151000D01*
X11896500Y-6091000D02*
X12016500Y-6091000D01*
X12016500Y-6091000D02*
G75*
G03*
X12016500Y-6091000I-60000J0D01*
G01*
X11956500Y-6431000D02*
X11956500Y-6551000D01*
X11896500Y-6491000D02*
X12016500Y-6491000D01*
X12016500Y-6491000D02*
G75*
G03*
X12016500Y-6491000I-60000J0D01*
G01*
X11956500Y-6831000D02*
X11956500Y-6951000D01*
X11896500Y-6891000D02*
X12016500Y-6891000D01*
X12016500Y-6891000D02*
G75*
G03*
X12016500Y-6891000I-60000J0D01*
G01*
X11956500Y-7231000D02*
X11956500Y-7351000D01*
X11896500Y-7291000D02*
X12016500Y-7291000D01*
X12016500Y-7291000D02*
G75*
G03*
X12016500Y-7291000I-60000J0D01*
G01*
X12206500Y-6031000D02*
X12206500Y-6151000D01*
X12146500Y-6091000D02*
X12266500Y-6091000D01*
X12266500Y-6091000D02*
G75*
G03*
X12266500Y-6091000I-60000J0D01*
G01*
X12206500Y-6431000D02*
X12206500Y-6551000D01*
X12146500Y-6491000D02*
X12266500Y-6491000D01*
X12266500Y-6491000D02*
G75*
G03*
X12266500Y-6491000I-60000J0D01*
G01*
X12206500Y-6831000D02*
X12206500Y-6951000D01*
X12146500Y-6891000D02*
X12266500Y-6891000D01*
X12266500Y-6891000D02*
G75*
G03*
X12266500Y-6891000I-60000J0D01*
G01*
X12206500Y-7231000D02*
X12206500Y-7351000D01*
X12146500Y-7291000D02*
X12266500Y-7291000D01*
X12266500Y-7291000D02*
G75*
G03*
X12266500Y-7291000I-60000J0D01*
G01*
X12456500Y-6031000D02*
X12456500Y-6151000D01*
X12396500Y-6091000D02*
X12516500Y-6091000D01*
X12516500Y-6091000D02*
G75*
G03*
X12516500Y-6091000I-60000J0D01*
G01*
X12456500Y-6431000D02*
X12456500Y-6551000D01*
X12396500Y-6491000D02*
X12516500Y-6491000D01*
X12516500Y-6491000D02*
G75*
G03*
X12516500Y-6491000I-60000J0D01*
G01*
X12456500Y-6831000D02*
X12456500Y-6951000D01*
X12396500Y-6891000D02*
X12516500Y-6891000D01*
X12516500Y-6891000D02*
G75*
G03*
X12516500Y-6891000I-60000J0D01*
G01*
X12456500Y-7231000D02*
X12456500Y-7351000D01*
X12396500Y-7291000D02*
X12516500Y-7291000D01*
X12516500Y-7291000D02*
G75*
G03*
X12516500Y-7291000I-60000J0D01*
G01*
X12706500Y-6031000D02*
X12706500Y-6151000D01*
X12646500Y-6091000D02*
X12766500Y-6091000D01*
X12766500Y-6091000D02*
G75*
G03*
X12766500Y-6091000I-60000J0D01*
G01*
X12706500Y-6431000D02*
X12706500Y-6551000D01*
X12646500Y-6491000D02*
X12766500Y-6491000D01*
X12766500Y-6491000D02*
G75*
G03*
X12766500Y-6491000I-60000J0D01*
G01*
X12706500Y-6831000D02*
X12706500Y-6951000D01*
X12646500Y-6891000D02*
X12766500Y-6891000D01*
X12766500Y-6891000D02*
G75*
G03*
X12766500Y-6891000I-60000J0D01*
G01*
X12706500Y-7231000D02*
X12706500Y-7351000D01*
X12646500Y-7291000D02*
X12766500Y-7291000D01*
X12766500Y-7291000D02*
G75*
G03*
X12766500Y-7291000I-60000J0D01*
G01*
X12956500Y-6031000D02*
X12956500Y-6151000D01*
X12896500Y-6091000D02*
X13016500Y-6091000D01*
X13016500Y-6091000D02*
G75*
G03*
X13016500Y-6091000I-60000J0D01*
G01*
X12956500Y-6431000D02*
X12956500Y-6551000D01*
X12896500Y-6491000D02*
X13016500Y-6491000D01*
X13016500Y-6491000D02*
G75*
G03*
X13016500Y-6491000I-60000J0D01*
G01*
X12956500Y-6831000D02*
X12956500Y-6951000D01*
X12896500Y-6891000D02*
X13016500Y-6891000D01*
X13016500Y-6891000D02*
G75*
G03*
X13016500Y-6891000I-60000J0D01*
G01*
X12956500Y-7231000D02*
X12956500Y-7351000D01*
X12896500Y-7291000D02*
X13016500Y-7291000D01*
X13016500Y-7291000D02*
G75*
G03*
X13016500Y-7291000I-60000J0D01*
G01*
X13206500Y-6031000D02*
X13206500Y-6151000D01*
X13146500Y-6091000D02*
X13266500Y-6091000D01*
X13266500Y-6091000D02*
G75*
G03*
X13266500Y-6091000I-60000J0D01*
G01*
X13206500Y-6431000D02*
X13206500Y-6551000D01*
X13146500Y-6491000D02*
X13266500Y-6491000D01*
X13266500Y-6491000D02*
G75*
G03*
X13266500Y-6491000I-60000J0D01*
G01*
X13206500Y-6831000D02*
X13206500Y-6951000D01*
X13146500Y-6891000D02*
X13266500Y-6891000D01*
X13266500Y-6891000D02*
G75*
G03*
X13266500Y-6891000I-60000J0D01*
G01*
X13206500Y-7231000D02*
X13206500Y-7351000D01*
X13146500Y-7291000D02*
X13266500Y-7291000D01*
X13266500Y-7291000D02*
G75*
G03*
X13266500Y-7291000I-60000J0D01*
G01*
X13456500Y-6031000D02*
X13456500Y-6151000D01*
X13396500Y-6091000D02*
X13516500Y-6091000D01*
X13516500Y-6091000D02*
G75*
G03*
X13516500Y-6091000I-60000J0D01*
G01*
X13456500Y-6431000D02*
X13456500Y-6551000D01*
X13396500Y-6491000D02*
X13516500Y-6491000D01*
X13516500Y-6491000D02*
G75*
G03*
X13516500Y-6491000I-60000J0D01*
G01*
X13456500Y-6831000D02*
X13456500Y-6951000D01*
X13396500Y-6891000D02*
X13516500Y-6891000D01*
X13516500Y-6891000D02*
G75*
G03*
X13516500Y-6891000I-60000J0D01*
G01*
X13456500Y-7231000D02*
X13456500Y-7351000D01*
X13396500Y-7291000D02*
X13516500Y-7291000D01*
X13516500Y-7291000D02*
G75*
G03*
X13516500Y-7291000I-60000J0D01*
G01*
D20*
X9345898Y-10971498D02*
X9345898Y-10872502D01*
X9246902Y-10872502D01*
X9246902Y-10971498D01*
X9345898Y-10971498D01*
X9366400Y-10922000D02*
G75*
G03*
X9366400Y-10922000I-70000J0D01*
G01*
X9934498Y-9683048D02*
X9934498Y-9584052D01*
X9835502Y-9584052D01*
X9835502Y-9683048D01*
X9934498Y-9683048D01*
X9955000Y-9633550D02*
G75*
G03*
X9955000Y-9633550I-70000J0D01*
G01*
X11759498Y-9683048D02*
X11759498Y-9584052D01*
X11660502Y-9584052D01*
X11660502Y-9683048D01*
X11759498Y-9683048D01*
X11780000Y-9633550D02*
G75*
G03*
X11780000Y-9633550I-70000J0D01*
G01*
X15086298Y-9422098D02*
X15086298Y-9323102D01*
X14987302Y-9323102D01*
X14987302Y-9422098D01*
X15086298Y-9422098D01*
X15106800Y-9372600D02*
G75*
G03*
X15106800Y-9372600I-70000J0D01*
G01*
X15086298Y-10184098D02*
X15086298Y-10085102D01*
X14987302Y-10085102D01*
X14987302Y-10184098D01*
X15086298Y-10184098D01*
X15106800Y-10134600D02*
G75*
G03*
X15106800Y-10134600I-70000J0D01*
G01*
D21*
X6250000Y-6100000D02*
X6360000Y-5990000D01*
X6250000Y-5880000D01*
X6140000Y-5990000D01*
X6250000Y-6100000D01*
X6360000Y-5990000D02*
G75*
G03*
X6360000Y-5990000I-110000J0D01*
G01*
X6580000Y-15300000D02*
X6690000Y-15190000D01*
X6580000Y-15080000D01*
X6470000Y-15190000D01*
X6580000Y-15300000D01*
X6690000Y-15190000D02*
G75*
G03*
X6690000Y-15190000I-110000J0D01*
G01*
X9372600Y-6536200D02*
X9482600Y-6426200D01*
X9372600Y-6316200D01*
X9262600Y-6426200D01*
X9372600Y-6536200D01*
X9482600Y-6426200D02*
G75*
G03*
X9482600Y-6426200I-110000J0D01*
G01*
X14980000Y-15320000D02*
X15090000Y-15210000D01*
X14980000Y-15100000D01*
X14870000Y-15210000D01*
X14980000Y-15320000D01*
X15090000Y-15210000D02*
G75*
G03*
X15090000Y-15210000I-110000J0D01*
G01*
X15074900Y-5291600D02*
X15184900Y-5181600D01*
X15074900Y-5071600D01*
X14964900Y-5181600D01*
X15074900Y-5291600D01*
X15184900Y-5181600D02*
G75*
G03*
X15184900Y-5181600I-110000J0D01*
G01*
D22*
X5947000Y-4850250D02*
X5947000Y-5083250D01*
X5830500Y-4966750D02*
X6063500Y-4966750D01*
X6029379Y-5049129D02*
X6029379Y-4884371D01*
X5864621Y-4884371D01*
X5864621Y-5049129D01*
X6029379Y-5049129D01*
X7151000Y-4850250D02*
X7151000Y-5083250D01*
X7034500Y-4966750D02*
X7267500Y-4966750D01*
X7233379Y-5049129D02*
X7233379Y-4884371D01*
X7068621Y-4884371D01*
X7068621Y-5049129D01*
X7233379Y-5049129D01*
D23*
X10066500Y-6253500D02*
X10066500Y-6528500D01*
X9929000Y-6391000D02*
X10204000Y-6391000D01*
X10066500Y-6528500D02*
X10204000Y-6391000D01*
X10066500Y-6253500D01*
X9929000Y-6391000D01*
X10066500Y-6528500D01*
X13876500Y-6253500D02*
X13876500Y-6528500D01*
X13739000Y-6391000D02*
X14014000Y-6391000D01*
X13876500Y-6528500D02*
X14014000Y-6391000D01*
X13876500Y-6253500D01*
X13739000Y-6391000D01*
X13876500Y-6528500D01*
D11*
X5775119Y-15972976D02*
X5775119Y-15772976D01*
X5822738Y-15772976D01*
X5851309Y-15782500D01*
X5870357Y-15801548D01*
X5879881Y-15820595D01*
X5889405Y-15858690D01*
X5889405Y-15887262D01*
X5879881Y-15925357D01*
X5870357Y-15944405D01*
X5851309Y-15963452D01*
X5822738Y-15972976D01*
X5775119Y-15972976D01*
X5975119Y-15972976D02*
X5975119Y-15839643D01*
X5975119Y-15877738D02*
X5984643Y-15858690D01*
X5994167Y-15849167D01*
X6013214Y-15839643D01*
X6032262Y-15839643D01*
X6098928Y-15972976D02*
X6098928Y-15839643D01*
X6098928Y-15772976D02*
X6089405Y-15782500D01*
X6098928Y-15792024D01*
X6108452Y-15782500D01*
X6098928Y-15772976D01*
X6098928Y-15792024D01*
X6222738Y-15972976D02*
X6203690Y-15963452D01*
X6194167Y-15944405D01*
X6194167Y-15772976D01*
X6327500Y-15972976D02*
X6308452Y-15963452D01*
X6298928Y-15944405D01*
X6298928Y-15772976D01*
X6556071Y-15972976D02*
X6556071Y-15772976D01*
X6622738Y-15915833D01*
X6689405Y-15772976D01*
X6689405Y-15972976D01*
X6870357Y-15972976D02*
X6870357Y-15868214D01*
X6860833Y-15849167D01*
X6841786Y-15839643D01*
X6803690Y-15839643D01*
X6784643Y-15849167D01*
X6870357Y-15963452D02*
X6851309Y-15972976D01*
X6803690Y-15972976D01*
X6784643Y-15963452D01*
X6775119Y-15944405D01*
X6775119Y-15925357D01*
X6784643Y-15906309D01*
X6803690Y-15896786D01*
X6851309Y-15896786D01*
X6870357Y-15887262D01*
X6965595Y-15839643D02*
X6965595Y-16039643D01*
X6965595Y-15849167D02*
X6984643Y-15839643D01*
X7022738Y-15839643D01*
X7041786Y-15849167D01*
X7051309Y-15858690D01*
X7060833Y-15877738D01*
X7060833Y-15934881D01*
X7051309Y-15953928D01*
X7041786Y-15963452D01*
X7022738Y-15972976D01*
X6984643Y-15972976D01*
X6965595Y-15963452D01*
X7146548Y-15953928D02*
X7156071Y-15963452D01*
X7146548Y-15972976D01*
X7137024Y-15963452D01*
X7146548Y-15953928D01*
X7146548Y-15972976D01*
X7146548Y-15849167D02*
X7156071Y-15858690D01*
X7146548Y-15868214D01*
X7137024Y-15858690D01*
X7146548Y-15849167D01*
X7146548Y-15868214D01*
D12*
X5487500Y-16287500D02*
X5517500Y-16317500D01*
X5517500Y-16287500D02*
X5487500Y-16317500D01*
D11*
X5813214Y-16192976D02*
X5832262Y-16192976D01*
X5851309Y-16202500D01*
X5860833Y-16212024D01*
X5870357Y-16231071D01*
X5879881Y-16269167D01*
X5879881Y-16316786D01*
X5870357Y-16354881D01*
X5860833Y-16373928D01*
X5851309Y-16383452D01*
X5832262Y-16392976D01*
X5813214Y-16392976D01*
X5794167Y-16383452D01*
X5784643Y-16373928D01*
X5775119Y-16354881D01*
X5765595Y-16316786D01*
X5765595Y-16269167D01*
X5775119Y-16231071D01*
X5784643Y-16212024D01*
X5794167Y-16202500D01*
X5813214Y-16192976D01*
X5965595Y-16373928D02*
X5975119Y-16383452D01*
X5965595Y-16392976D01*
X5956071Y-16383452D01*
X5965595Y-16373928D01*
X5965595Y-16392976D01*
X6041786Y-16192976D02*
X6165595Y-16192976D01*
X6098928Y-16269167D01*
X6127500Y-16269167D01*
X6146548Y-16278690D01*
X6156071Y-16288214D01*
X6165595Y-16307262D01*
X6165595Y-16354881D01*
X6156071Y-16373928D01*
X6146548Y-16383452D01*
X6127500Y-16392976D01*
X6070357Y-16392976D01*
X6051309Y-16383452D01*
X6041786Y-16373928D01*
X6289405Y-16192976D02*
X6308452Y-16192976D01*
X6327500Y-16202500D01*
X6337024Y-16212024D01*
X6346548Y-16231071D01*
X6356071Y-16269167D01*
X6356071Y-16316786D01*
X6346548Y-16354881D01*
X6337024Y-16373928D01*
X6327500Y-16383452D01*
X6308452Y-16392976D01*
X6289405Y-16392976D01*
X6270357Y-16383452D01*
X6260833Y-16373928D01*
X6251309Y-16354881D01*
X6241786Y-16316786D01*
X6241786Y-16269167D01*
X6251309Y-16231071D01*
X6260833Y-16212024D01*
X6270357Y-16202500D01*
X6289405Y-16192976D01*
X6479881Y-16192976D02*
X6498928Y-16192976D01*
X6517976Y-16202500D01*
X6527500Y-16212024D01*
X6537024Y-16231071D01*
X6546548Y-16269167D01*
X6546548Y-16316786D01*
X6537024Y-16354881D01*
X6527500Y-16373928D01*
X6517976Y-16383452D01*
X6498928Y-16392976D01*
X6479881Y-16392976D01*
X6460833Y-16383452D01*
X6451309Y-16373928D01*
X6441786Y-16354881D01*
X6432262Y-16316786D01*
X6432262Y-16269167D01*
X6441786Y-16231071D01*
X6451309Y-16212024D01*
X6460833Y-16202500D01*
X6479881Y-16192976D01*
X6632262Y-16392976D02*
X6632262Y-16259643D01*
X6632262Y-16278690D02*
X6641786Y-16269167D01*
X6660833Y-16259643D01*
X6689405Y-16259643D01*
X6708452Y-16269167D01*
X6717976Y-16288214D01*
X6717976Y-16392976D01*
X6717976Y-16288214D02*
X6727500Y-16269167D01*
X6746548Y-16259643D01*
X6775119Y-16259643D01*
X6794167Y-16269167D01*
X6803690Y-16288214D01*
X6803690Y-16392976D01*
X6898928Y-16392976D02*
X6898928Y-16259643D01*
X6898928Y-16278690D02*
X6908452Y-16269167D01*
X6927500Y-16259643D01*
X6956071Y-16259643D01*
X6975119Y-16269167D01*
X6984643Y-16288214D01*
X6984643Y-16392976D01*
X6984643Y-16288214D02*
X6994167Y-16269167D01*
X7013214Y-16259643D01*
X7041786Y-16259643D01*
X7060833Y-16269167D01*
X7070357Y-16288214D01*
X7070357Y-16392976D01*
X7460833Y-16183452D02*
X7289405Y-16440595D01*
X7717976Y-16192976D02*
X7737024Y-16192976D01*
X7756071Y-16202500D01*
X7765595Y-16212024D01*
X7775119Y-16231071D01*
X7784643Y-16269167D01*
X7784643Y-16316786D01*
X7775119Y-16354881D01*
X7765595Y-16373928D01*
X7756071Y-16383452D01*
X7737024Y-16392976D01*
X7717976Y-16392976D01*
X7698928Y-16383452D01*
X7689405Y-16373928D01*
X7679881Y-16354881D01*
X7670357Y-16316786D01*
X7670357Y-16269167D01*
X7679881Y-16231071D01*
X7689405Y-16212024D01*
X7698928Y-16202500D01*
X7717976Y-16192976D01*
X7870357Y-16373928D02*
X7879881Y-16383452D01*
X7870357Y-16392976D01*
X7860833Y-16383452D01*
X7870357Y-16373928D01*
X7870357Y-16392976D01*
X8003690Y-16192976D02*
X8022738Y-16192976D01*
X8041786Y-16202500D01*
X8051309Y-16212024D01*
X8060833Y-16231071D01*
X8070357Y-16269167D01*
X8070357Y-16316786D01*
X8060833Y-16354881D01*
X8051309Y-16373928D01*
X8041786Y-16383452D01*
X8022738Y-16392976D01*
X8003690Y-16392976D01*
X7984643Y-16383452D01*
X7975119Y-16373928D01*
X7965595Y-16354881D01*
X7956071Y-16316786D01*
X7956071Y-16269167D01*
X7965595Y-16231071D01*
X7975119Y-16212024D01*
X7984643Y-16202500D01*
X8003690Y-16192976D01*
X8260833Y-16392976D02*
X8146548Y-16392976D01*
X8203690Y-16392976D02*
X8203690Y-16192976D01*
X8184643Y-16221548D01*
X8165595Y-16240595D01*
X8146548Y-16250119D01*
X8451310Y-16392976D02*
X8337024Y-16392976D01*
X8394167Y-16392976D02*
X8394167Y-16192976D01*
X8375119Y-16221548D01*
X8356071Y-16240595D01*
X8337024Y-16250119D01*
X8565595Y-16278690D02*
X8546548Y-16269167D01*
X8537024Y-16259643D01*
X8527500Y-16240595D01*
X8527500Y-16231071D01*
X8537024Y-16212024D01*
X8546548Y-16202500D01*
X8565595Y-16192976D01*
X8603690Y-16192976D01*
X8622738Y-16202500D01*
X8632262Y-16212024D01*
X8641786Y-16231071D01*
X8641786Y-16240595D01*
X8632262Y-16259643D01*
X8622738Y-16269167D01*
X8603690Y-16278690D01*
X8565595Y-16278690D01*
X8546548Y-16288214D01*
X8537024Y-16297738D01*
X8527500Y-16316786D01*
X8527500Y-16354881D01*
X8537024Y-16373928D01*
X8546548Y-16383452D01*
X8565595Y-16392976D01*
X8603690Y-16392976D01*
X8622738Y-16383452D01*
X8632262Y-16373928D01*
X8641786Y-16354881D01*
X8641786Y-16316786D01*
X8632262Y-16297738D01*
X8622738Y-16288214D01*
X8603690Y-16278690D01*
X8717976Y-16192976D02*
X8717976Y-16231071D01*
X8794167Y-16192976D02*
X8794167Y-16231071D01*
X9089405Y-16469167D02*
X9079881Y-16459643D01*
X9060833Y-16431071D01*
X9051310Y-16412024D01*
X9041786Y-16383452D01*
X9032262Y-16335833D01*
X9032262Y-16297738D01*
X9041786Y-16250119D01*
X9051310Y-16221548D01*
X9060833Y-16202500D01*
X9079881Y-16173928D01*
X9089405Y-16164405D01*
X9156071Y-16212024D02*
X9165595Y-16202500D01*
X9184643Y-16192976D01*
X9232262Y-16192976D01*
X9251310Y-16202500D01*
X9260833Y-16212024D01*
X9270357Y-16231071D01*
X9270357Y-16250119D01*
X9260833Y-16278690D01*
X9146548Y-16392976D01*
X9270357Y-16392976D01*
X9346548Y-16212024D02*
X9356071Y-16202500D01*
X9375119Y-16192976D01*
X9422738Y-16192976D01*
X9441786Y-16202500D01*
X9451310Y-16212024D01*
X9460833Y-16231071D01*
X9460833Y-16250119D01*
X9451310Y-16278690D01*
X9337024Y-16392976D01*
X9460833Y-16392976D01*
X9632262Y-16259643D02*
X9632262Y-16392976D01*
X9584643Y-16183452D02*
X9537024Y-16326309D01*
X9660833Y-16326309D01*
X9889405Y-16392976D02*
X9889405Y-16192976D01*
X9975119Y-16392976D02*
X9975119Y-16288214D01*
X9965595Y-16269167D01*
X9946548Y-16259643D01*
X9917976Y-16259643D01*
X9898929Y-16269167D01*
X9889405Y-16278690D01*
X10098929Y-16392976D02*
X10079881Y-16383452D01*
X10070357Y-16373928D01*
X10060833Y-16354881D01*
X10060833Y-16297738D01*
X10070357Y-16278690D01*
X10079881Y-16269167D01*
X10098929Y-16259643D01*
X10127500Y-16259643D01*
X10146548Y-16269167D01*
X10156071Y-16278690D01*
X10165595Y-16297738D01*
X10165595Y-16354881D01*
X10156071Y-16373928D01*
X10146548Y-16383452D01*
X10127500Y-16392976D01*
X10098929Y-16392976D01*
X10279881Y-16392976D02*
X10260833Y-16383452D01*
X10251310Y-16364405D01*
X10251310Y-16192976D01*
X10432262Y-16383452D02*
X10413214Y-16392976D01*
X10375119Y-16392976D01*
X10356071Y-16383452D01*
X10346548Y-16364405D01*
X10346548Y-16288214D01*
X10356071Y-16269167D01*
X10375119Y-16259643D01*
X10413214Y-16259643D01*
X10432262Y-16269167D01*
X10441786Y-16288214D01*
X10441786Y-16307262D01*
X10346548Y-16326309D01*
X10517976Y-16383452D02*
X10537024Y-16392976D01*
X10575119Y-16392976D01*
X10594167Y-16383452D01*
X10603690Y-16364405D01*
X10603690Y-16354881D01*
X10594167Y-16335833D01*
X10575119Y-16326309D01*
X10546548Y-16326309D01*
X10527500Y-16316786D01*
X10517976Y-16297738D01*
X10517976Y-16288214D01*
X10527500Y-16269167D01*
X10546548Y-16259643D01*
X10575119Y-16259643D01*
X10594167Y-16269167D01*
X10670357Y-16469167D02*
X10679881Y-16459643D01*
X10698929Y-16431071D01*
X10708452Y-16412024D01*
X10717976Y-16383452D01*
X10727500Y-16335833D01*
X10727500Y-16297738D01*
X10717976Y-16250119D01*
X10708452Y-16221548D01*
X10698929Y-16202500D01*
X10679881Y-16173928D01*
X10670357Y-16164405D01*
D13*
X5517500Y-16566500D02*
G75*
G03*
X5517500Y-16566500I-20000J0D01*
G01*
D11*
X5813214Y-16456976D02*
X5832262Y-16456976D01*
X5851309Y-16466500D01*
X5860833Y-16476024D01*
X5870357Y-16495071D01*
X5879881Y-16533167D01*
X5879881Y-16580786D01*
X5870357Y-16618881D01*
X5860833Y-16637928D01*
X5851309Y-16647452D01*
X5832262Y-16656976D01*
X5813214Y-16656976D01*
X5794167Y-16647452D01*
X5784643Y-16637928D01*
X5775119Y-16618881D01*
X5765595Y-16580786D01*
X5765595Y-16533167D01*
X5775119Y-16495071D01*
X5784643Y-16476024D01*
X5794167Y-16466500D01*
X5813214Y-16456976D01*
X5965595Y-16637928D02*
X5975119Y-16647452D01*
X5965595Y-16656976D01*
X5956071Y-16647452D01*
X5965595Y-16637928D01*
X5965595Y-16656976D01*
X6146548Y-16523643D02*
X6146548Y-16656976D01*
X6098928Y-16447452D02*
X6051309Y-16590309D01*
X6175119Y-16590309D01*
X6289405Y-16456976D02*
X6308452Y-16456976D01*
X6327500Y-16466500D01*
X6337024Y-16476024D01*
X6346548Y-16495071D01*
X6356071Y-16533167D01*
X6356071Y-16580786D01*
X6346548Y-16618881D01*
X6337024Y-16637928D01*
X6327500Y-16647452D01*
X6308452Y-16656976D01*
X6289405Y-16656976D01*
X6270357Y-16647452D01*
X6260833Y-16637928D01*
X6251309Y-16618881D01*
X6241786Y-16580786D01*
X6241786Y-16533167D01*
X6251309Y-16495071D01*
X6260833Y-16476024D01*
X6270357Y-16466500D01*
X6289405Y-16456976D01*
X6479881Y-16456976D02*
X6498928Y-16456976D01*
X6517976Y-16466500D01*
X6527500Y-16476024D01*
X6537024Y-16495071D01*
X6546548Y-16533167D01*
X6546548Y-16580786D01*
X6537024Y-16618881D01*
X6527500Y-16637928D01*
X6517976Y-16647452D01*
X6498928Y-16656976D01*
X6479881Y-16656976D01*
X6460833Y-16647452D01*
X6451309Y-16637928D01*
X6441786Y-16618881D01*
X6432262Y-16580786D01*
X6432262Y-16533167D01*
X6441786Y-16495071D01*
X6451309Y-16476024D01*
X6460833Y-16466500D01*
X6479881Y-16456976D01*
X6632262Y-16656976D02*
X6632262Y-16523643D01*
X6632262Y-16542690D02*
X6641786Y-16533167D01*
X6660833Y-16523643D01*
X6689405Y-16523643D01*
X6708452Y-16533167D01*
X6717976Y-16552214D01*
X6717976Y-16656976D01*
X6717976Y-16552214D02*
X6727500Y-16533167D01*
X6746548Y-16523643D01*
X6775119Y-16523643D01*
X6794167Y-16533167D01*
X6803690Y-16552214D01*
X6803690Y-16656976D01*
X6898928Y-16656976D02*
X6898928Y-16523643D01*
X6898928Y-16542690D02*
X6908452Y-16533167D01*
X6927500Y-16523643D01*
X6956071Y-16523643D01*
X6975119Y-16533167D01*
X6984643Y-16552214D01*
X6984643Y-16656976D01*
X6984643Y-16552214D02*
X6994167Y-16533167D01*
X7013214Y-16523643D01*
X7041786Y-16523643D01*
X7060833Y-16533167D01*
X7070357Y-16552214D01*
X7070357Y-16656976D01*
X7460833Y-16447452D02*
X7289405Y-16704595D01*
X7717976Y-16456976D02*
X7737024Y-16456976D01*
X7756071Y-16466500D01*
X7765595Y-16476024D01*
X7775119Y-16495071D01*
X7784643Y-16533167D01*
X7784643Y-16580786D01*
X7775119Y-16618881D01*
X7765595Y-16637928D01*
X7756071Y-16647452D01*
X7737024Y-16656976D01*
X7717976Y-16656976D01*
X7698928Y-16647452D01*
X7689405Y-16637928D01*
X7679881Y-16618881D01*
X7670357Y-16580786D01*
X7670357Y-16533167D01*
X7679881Y-16495071D01*
X7689405Y-16476024D01*
X7698928Y-16466500D01*
X7717976Y-16456976D01*
X7870357Y-16637928D02*
X7879881Y-16647452D01*
X7870357Y-16656976D01*
X7860833Y-16647452D01*
X7870357Y-16637928D01*
X7870357Y-16656976D01*
X8003690Y-16456976D02*
X8022738Y-16456976D01*
X8041786Y-16466500D01*
X8051309Y-16476024D01*
X8060833Y-16495071D01*
X8070357Y-16533167D01*
X8070357Y-16580786D01*
X8060833Y-16618881D01*
X8051309Y-16637928D01*
X8041786Y-16647452D01*
X8022738Y-16656976D01*
X8003690Y-16656976D01*
X7984643Y-16647452D01*
X7975119Y-16637928D01*
X7965595Y-16618881D01*
X7956071Y-16580786D01*
X7956071Y-16533167D01*
X7965595Y-16495071D01*
X7975119Y-16476024D01*
X7984643Y-16466500D01*
X8003690Y-16456976D01*
X8260833Y-16656976D02*
X8146548Y-16656976D01*
X8203690Y-16656976D02*
X8203690Y-16456976D01*
X8184643Y-16485548D01*
X8165595Y-16504595D01*
X8146548Y-16514119D01*
X8441786Y-16456976D02*
X8346548Y-16456976D01*
X8337024Y-16552214D01*
X8346548Y-16542690D01*
X8365595Y-16533167D01*
X8413214Y-16533167D01*
X8432262Y-16542690D01*
X8441786Y-16552214D01*
X8451310Y-16571262D01*
X8451310Y-16618881D01*
X8441786Y-16637928D01*
X8432262Y-16647452D01*
X8413214Y-16656976D01*
X8365595Y-16656976D01*
X8346548Y-16647452D01*
X8337024Y-16637928D01*
X8517976Y-16456976D02*
X8651310Y-16456976D01*
X8565595Y-16656976D01*
X8717976Y-16456976D02*
X8717976Y-16495071D01*
X8794167Y-16456976D02*
X8794167Y-16495071D01*
X9089405Y-16733167D02*
X9079881Y-16723643D01*
X9060833Y-16695071D01*
X9051310Y-16676024D01*
X9041786Y-16647452D01*
X9032262Y-16599833D01*
X9032262Y-16561738D01*
X9041786Y-16514119D01*
X9051310Y-16485548D01*
X9060833Y-16466500D01*
X9079881Y-16437928D01*
X9089405Y-16428405D01*
X9146548Y-16456976D02*
X9279881Y-16456976D01*
X9194167Y-16656976D01*
X9394167Y-16456976D02*
X9413214Y-16456976D01*
X9432262Y-16466500D01*
X9441786Y-16476024D01*
X9451310Y-16495071D01*
X9460833Y-16533167D01*
X9460833Y-16580786D01*
X9451310Y-16618881D01*
X9441786Y-16637928D01*
X9432262Y-16647452D01*
X9413214Y-16656976D01*
X9394167Y-16656976D01*
X9375119Y-16647452D01*
X9365595Y-16637928D01*
X9356071Y-16618881D01*
X9346548Y-16580786D01*
X9346548Y-16533167D01*
X9356071Y-16495071D01*
X9365595Y-16476024D01*
X9375119Y-16466500D01*
X9394167Y-16456976D01*
X9698929Y-16656976D02*
X9698929Y-16456976D01*
X9784643Y-16656976D02*
X9784643Y-16552214D01*
X9775119Y-16533167D01*
X9756071Y-16523643D01*
X9727500Y-16523643D01*
X9708452Y-16533167D01*
X9698929Y-16542690D01*
X9908452Y-16656976D02*
X9889405Y-16647452D01*
X9879881Y-16637928D01*
X9870357Y-16618881D01*
X9870357Y-16561738D01*
X9879881Y-16542690D01*
X9889405Y-16533167D01*
X9908452Y-16523643D01*
X9937024Y-16523643D01*
X9956071Y-16533167D01*
X9965595Y-16542690D01*
X9975119Y-16561738D01*
X9975119Y-16618881D01*
X9965595Y-16637928D01*
X9956071Y-16647452D01*
X9937024Y-16656976D01*
X9908452Y-16656976D01*
X10089405Y-16656976D02*
X10070357Y-16647452D01*
X10060833Y-16628405D01*
X10060833Y-16456976D01*
X10241786Y-16647452D02*
X10222738Y-16656976D01*
X10184643Y-16656976D01*
X10165595Y-16647452D01*
X10156071Y-16628405D01*
X10156071Y-16552214D01*
X10165595Y-16533167D01*
X10184643Y-16523643D01*
X10222738Y-16523643D01*
X10241786Y-16533167D01*
X10251310Y-16552214D01*
X10251310Y-16571262D01*
X10156071Y-16590309D01*
X10327500Y-16647452D02*
X10346548Y-16656976D01*
X10384643Y-16656976D01*
X10403690Y-16647452D01*
X10413214Y-16628405D01*
X10413214Y-16618881D01*
X10403690Y-16599833D01*
X10384643Y-16590309D01*
X10356071Y-16590309D01*
X10337024Y-16580786D01*
X10327500Y-16561738D01*
X10327500Y-16552214D01*
X10337024Y-16533167D01*
X10356071Y-16523643D01*
X10384643Y-16523643D01*
X10403690Y-16533167D01*
X10479881Y-16733167D02*
X10489405Y-16723643D01*
X10508452Y-16695071D01*
X10517976Y-16676024D01*
X10527500Y-16647452D01*
X10537024Y-16599833D01*
X10537024Y-16561738D01*
X10527500Y-16514119D01*
X10517976Y-16485548D01*
X10508452Y-16466500D01*
X10489405Y-16437928D01*
X10479881Y-16428405D01*
D13*
X5497500Y-16810500D02*
X5497500Y-16850500D01*
X5477500Y-16830500D02*
X5517500Y-16830500D01*
D11*
X5813214Y-16720976D02*
X5832262Y-16720976D01*
X5851309Y-16730500D01*
X5860833Y-16740024D01*
X5870357Y-16759071D01*
X5879881Y-16797167D01*
X5879881Y-16844786D01*
X5870357Y-16882881D01*
X5860833Y-16901929D01*
X5851309Y-16911452D01*
X5832262Y-16920976D01*
X5813214Y-16920976D01*
X5794167Y-16911452D01*
X5784643Y-16901929D01*
X5775119Y-16882881D01*
X5765595Y-16844786D01*
X5765595Y-16797167D01*
X5775119Y-16759071D01*
X5784643Y-16740024D01*
X5794167Y-16730500D01*
X5813214Y-16720976D01*
X5965595Y-16901929D02*
X5975119Y-16911452D01*
X5965595Y-16920976D01*
X5956071Y-16911452D01*
X5965595Y-16901929D01*
X5965595Y-16920976D01*
X6146548Y-16787643D02*
X6146548Y-16920976D01*
X6098928Y-16711452D02*
X6051309Y-16854310D01*
X6175119Y-16854310D01*
X6289405Y-16720976D02*
X6308452Y-16720976D01*
X6327500Y-16730500D01*
X6337024Y-16740024D01*
X6346548Y-16759071D01*
X6356071Y-16797167D01*
X6356071Y-16844786D01*
X6346548Y-16882881D01*
X6337024Y-16901929D01*
X6327500Y-16911452D01*
X6308452Y-16920976D01*
X6289405Y-16920976D01*
X6270357Y-16911452D01*
X6260833Y-16901929D01*
X6251309Y-16882881D01*
X6241786Y-16844786D01*
X6241786Y-16797167D01*
X6251309Y-16759071D01*
X6260833Y-16740024D01*
X6270357Y-16730500D01*
X6289405Y-16720976D01*
X6479881Y-16720976D02*
X6498928Y-16720976D01*
X6517976Y-16730500D01*
X6527500Y-16740024D01*
X6537024Y-16759071D01*
X6546548Y-16797167D01*
X6546548Y-16844786D01*
X6537024Y-16882881D01*
X6527500Y-16901929D01*
X6517976Y-16911452D01*
X6498928Y-16920976D01*
X6479881Y-16920976D01*
X6460833Y-16911452D01*
X6451309Y-16901929D01*
X6441786Y-16882881D01*
X6432262Y-16844786D01*
X6432262Y-16797167D01*
X6441786Y-16759071D01*
X6451309Y-16740024D01*
X6460833Y-16730500D01*
X6479881Y-16720976D01*
X6632262Y-16920976D02*
X6632262Y-16787643D01*
X6632262Y-16806690D02*
X6641786Y-16797167D01*
X6660833Y-16787643D01*
X6689405Y-16787643D01*
X6708452Y-16797167D01*
X6717976Y-16816214D01*
X6717976Y-16920976D01*
X6717976Y-16816214D02*
X6727500Y-16797167D01*
X6746548Y-16787643D01*
X6775119Y-16787643D01*
X6794167Y-16797167D01*
X6803690Y-16816214D01*
X6803690Y-16920976D01*
X6898928Y-16920976D02*
X6898928Y-16787643D01*
X6898928Y-16806690D02*
X6908452Y-16797167D01*
X6927500Y-16787643D01*
X6956071Y-16787643D01*
X6975119Y-16797167D01*
X6984643Y-16816214D01*
X6984643Y-16920976D01*
X6984643Y-16816214D02*
X6994167Y-16797167D01*
X7013214Y-16787643D01*
X7041786Y-16787643D01*
X7060833Y-16797167D01*
X7070357Y-16816214D01*
X7070357Y-16920976D01*
X7460833Y-16711452D02*
X7289405Y-16968595D01*
X7717976Y-16720976D02*
X7737024Y-16720976D01*
X7756071Y-16730500D01*
X7765595Y-16740024D01*
X7775119Y-16759071D01*
X7784643Y-16797167D01*
X7784643Y-16844786D01*
X7775119Y-16882881D01*
X7765595Y-16901929D01*
X7756071Y-16911452D01*
X7737024Y-16920976D01*
X7717976Y-16920976D01*
X7698928Y-16911452D01*
X7689405Y-16901929D01*
X7679881Y-16882881D01*
X7670357Y-16844786D01*
X7670357Y-16797167D01*
X7679881Y-16759071D01*
X7689405Y-16740024D01*
X7698928Y-16730500D01*
X7717976Y-16720976D01*
X7870357Y-16901929D02*
X7879881Y-16911452D01*
X7870357Y-16920976D01*
X7860833Y-16911452D01*
X7870357Y-16901929D01*
X7870357Y-16920976D01*
X8003690Y-16720976D02*
X8022738Y-16720976D01*
X8041786Y-16730500D01*
X8051309Y-16740024D01*
X8060833Y-16759071D01*
X8070357Y-16797167D01*
X8070357Y-16844786D01*
X8060833Y-16882881D01*
X8051309Y-16901929D01*
X8041786Y-16911452D01*
X8022738Y-16920976D01*
X8003690Y-16920976D01*
X7984643Y-16911452D01*
X7975119Y-16901929D01*
X7965595Y-16882881D01*
X7956071Y-16844786D01*
X7956071Y-16797167D01*
X7965595Y-16759071D01*
X7975119Y-16740024D01*
X7984643Y-16730500D01*
X8003690Y-16720976D01*
X8260833Y-16920976D02*
X8146548Y-16920976D01*
X8203690Y-16920976D02*
X8203690Y-16720976D01*
X8184643Y-16749548D01*
X8165595Y-16768595D01*
X8146548Y-16778119D01*
X8441786Y-16720976D02*
X8346548Y-16720976D01*
X8337024Y-16816214D01*
X8346548Y-16806690D01*
X8365595Y-16797167D01*
X8413214Y-16797167D01*
X8432262Y-16806690D01*
X8441786Y-16816214D01*
X8451310Y-16835262D01*
X8451310Y-16882881D01*
X8441786Y-16901929D01*
X8432262Y-16911452D01*
X8413214Y-16920976D01*
X8365595Y-16920976D01*
X8346548Y-16911452D01*
X8337024Y-16901929D01*
X8517976Y-16720976D02*
X8651310Y-16720976D01*
X8565595Y-16920976D01*
X8717976Y-16720976D02*
X8717976Y-16759071D01*
X8794167Y-16720976D02*
X8794167Y-16759071D01*
X9089405Y-16997167D02*
X9079881Y-16987643D01*
X9060833Y-16959071D01*
X9051310Y-16940024D01*
X9041786Y-16911452D01*
X9032262Y-16863833D01*
X9032262Y-16825738D01*
X9041786Y-16778119D01*
X9051310Y-16749548D01*
X9060833Y-16730500D01*
X9079881Y-16701928D01*
X9089405Y-16692405D01*
X9251310Y-16787643D02*
X9251310Y-16920976D01*
X9203690Y-16711452D02*
X9156071Y-16854310D01*
X9279881Y-16854310D01*
X9394167Y-16720976D02*
X9413214Y-16720976D01*
X9432262Y-16730500D01*
X9441786Y-16740024D01*
X9451310Y-16759071D01*
X9460833Y-16797167D01*
X9460833Y-16844786D01*
X9451310Y-16882881D01*
X9441786Y-16901929D01*
X9432262Y-16911452D01*
X9413214Y-16920976D01*
X9394167Y-16920976D01*
X9375119Y-16911452D01*
X9365595Y-16901929D01*
X9356071Y-16882881D01*
X9346548Y-16844786D01*
X9346548Y-16797167D01*
X9356071Y-16759071D01*
X9365595Y-16740024D01*
X9375119Y-16730500D01*
X9394167Y-16720976D01*
X9698929Y-16920976D02*
X9698929Y-16720976D01*
X9784643Y-16920976D02*
X9784643Y-16816214D01*
X9775119Y-16797167D01*
X9756071Y-16787643D01*
X9727500Y-16787643D01*
X9708452Y-16797167D01*
X9698929Y-16806690D01*
X9908452Y-16920976D02*
X9889405Y-16911452D01*
X9879881Y-16901929D01*
X9870357Y-16882881D01*
X9870357Y-16825738D01*
X9879881Y-16806690D01*
X9889405Y-16797167D01*
X9908452Y-16787643D01*
X9937024Y-16787643D01*
X9956071Y-16797167D01*
X9965595Y-16806690D01*
X9975119Y-16825738D01*
X9975119Y-16882881D01*
X9965595Y-16901929D01*
X9956071Y-16911452D01*
X9937024Y-16920976D01*
X9908452Y-16920976D01*
X10089405Y-16920976D02*
X10070357Y-16911452D01*
X10060833Y-16892405D01*
X10060833Y-16720976D01*
X10241786Y-16911452D02*
X10222738Y-16920976D01*
X10184643Y-16920976D01*
X10165595Y-16911452D01*
X10156071Y-16892405D01*
X10156071Y-16816214D01*
X10165595Y-16797167D01*
X10184643Y-16787643D01*
X10222738Y-16787643D01*
X10241786Y-16797167D01*
X10251310Y-16816214D01*
X10251310Y-16835262D01*
X10156071Y-16854310D01*
X10327500Y-16911452D02*
X10346548Y-16920976D01*
X10384643Y-16920976D01*
X10403690Y-16911452D01*
X10413214Y-16892405D01*
X10413214Y-16882881D01*
X10403690Y-16863833D01*
X10384643Y-16854310D01*
X10356071Y-16854310D01*
X10337024Y-16844786D01*
X10327500Y-16825738D01*
X10327500Y-16816214D01*
X10337024Y-16797167D01*
X10356071Y-16787643D01*
X10384643Y-16787643D01*
X10403690Y-16797167D01*
X10479881Y-16997167D02*
X10489405Y-16987643D01*
X10508452Y-16959071D01*
X10517976Y-16940024D01*
X10527500Y-16911452D01*
X10537024Y-16863833D01*
X10537024Y-16825738D01*
X10527500Y-16778119D01*
X10517976Y-16749548D01*
X10508452Y-16730500D01*
X10489405Y-16701928D01*
X10479881Y-16692405D01*
D10*
X5510178Y-17112178D02*
X5510178Y-17076822D01*
X5474822Y-17076822D01*
X5474822Y-17112178D01*
X5510178Y-17112178D01*
D11*
X5813214Y-16984976D02*
X5832262Y-16984976D01*
X5851309Y-16994500D01*
X5860833Y-17004024D01*
X5870357Y-17023071D01*
X5879881Y-17061167D01*
X5879881Y-17108786D01*
X5870357Y-17146881D01*
X5860833Y-17165929D01*
X5851309Y-17175452D01*
X5832262Y-17184976D01*
X5813214Y-17184976D01*
X5794167Y-17175452D01*
X5784643Y-17165929D01*
X5775119Y-17146881D01*
X5765595Y-17108786D01*
X5765595Y-17061167D01*
X5775119Y-17023071D01*
X5784643Y-17004024D01*
X5794167Y-16994500D01*
X5813214Y-16984976D01*
X5965595Y-17165929D02*
X5975119Y-17175452D01*
X5965595Y-17184976D01*
X5956071Y-17175452D01*
X5965595Y-17165929D01*
X5965595Y-17184976D01*
X6156071Y-16984976D02*
X6060833Y-16984976D01*
X6051309Y-17080214D01*
X6060833Y-17070690D01*
X6079881Y-17061167D01*
X6127500Y-17061167D01*
X6146548Y-17070690D01*
X6156071Y-17080214D01*
X6165595Y-17099262D01*
X6165595Y-17146881D01*
X6156071Y-17165929D01*
X6146548Y-17175452D01*
X6127500Y-17184976D01*
X6079881Y-17184976D01*
X6060833Y-17175452D01*
X6051309Y-17165929D01*
X6289405Y-16984976D02*
X6308452Y-16984976D01*
X6327500Y-16994500D01*
X6337024Y-17004024D01*
X6346548Y-17023071D01*
X6356071Y-17061167D01*
X6356071Y-17108786D01*
X6346548Y-17146881D01*
X6337024Y-17165929D01*
X6327500Y-17175452D01*
X6308452Y-17184976D01*
X6289405Y-17184976D01*
X6270357Y-17175452D01*
X6260833Y-17165929D01*
X6251309Y-17146881D01*
X6241786Y-17108786D01*
X6241786Y-17061167D01*
X6251309Y-17023071D01*
X6260833Y-17004024D01*
X6270357Y-16994500D01*
X6289405Y-16984976D01*
X6479881Y-16984976D02*
X6498928Y-16984976D01*
X6517976Y-16994500D01*
X6527500Y-17004024D01*
X6537024Y-17023071D01*
X6546548Y-17061167D01*
X6546548Y-17108786D01*
X6537024Y-17146881D01*
X6527500Y-17165929D01*
X6517976Y-17175452D01*
X6498928Y-17184976D01*
X6479881Y-17184976D01*
X6460833Y-17175452D01*
X6451309Y-17165929D01*
X6441786Y-17146881D01*
X6432262Y-17108786D01*
X6432262Y-17061167D01*
X6441786Y-17023071D01*
X6451309Y-17004024D01*
X6460833Y-16994500D01*
X6479881Y-16984976D01*
X6632262Y-17184976D02*
X6632262Y-17051643D01*
X6632262Y-17070690D02*
X6641786Y-17061167D01*
X6660833Y-17051643D01*
X6689405Y-17051643D01*
X6708452Y-17061167D01*
X6717976Y-17080214D01*
X6717976Y-17184976D01*
X6717976Y-17080214D02*
X6727500Y-17061167D01*
X6746548Y-17051643D01*
X6775119Y-17051643D01*
X6794167Y-17061167D01*
X6803690Y-17080214D01*
X6803690Y-17184976D01*
X6898928Y-17184976D02*
X6898928Y-17051643D01*
X6898928Y-17070690D02*
X6908452Y-17061167D01*
X6927500Y-17051643D01*
X6956071Y-17051643D01*
X6975119Y-17061167D01*
X6984643Y-17080214D01*
X6984643Y-17184976D01*
X6984643Y-17080214D02*
X6994167Y-17061167D01*
X7013214Y-17051643D01*
X7041786Y-17051643D01*
X7060833Y-17061167D01*
X7070357Y-17080214D01*
X7070357Y-17184976D01*
X7460833Y-16975452D02*
X7289405Y-17232595D01*
X7717976Y-16984976D02*
X7737024Y-16984976D01*
X7756071Y-16994500D01*
X7765595Y-17004024D01*
X7775119Y-17023071D01*
X7784643Y-17061167D01*
X7784643Y-17108786D01*
X7775119Y-17146881D01*
X7765595Y-17165929D01*
X7756071Y-17175452D01*
X7737024Y-17184976D01*
X7717976Y-17184976D01*
X7698928Y-17175452D01*
X7689405Y-17165929D01*
X7679881Y-17146881D01*
X7670357Y-17108786D01*
X7670357Y-17061167D01*
X7679881Y-17023071D01*
X7689405Y-17004024D01*
X7698928Y-16994500D01*
X7717976Y-16984976D01*
X7870357Y-17165929D02*
X7879881Y-17175452D01*
X7870357Y-17184976D01*
X7860833Y-17175452D01*
X7870357Y-17165929D01*
X7870357Y-17184976D01*
X8003690Y-16984976D02*
X8022738Y-16984976D01*
X8041786Y-16994500D01*
X8051309Y-17004024D01*
X8060833Y-17023071D01*
X8070357Y-17061167D01*
X8070357Y-17108786D01*
X8060833Y-17146881D01*
X8051309Y-17165929D01*
X8041786Y-17175452D01*
X8022738Y-17184976D01*
X8003690Y-17184976D01*
X7984643Y-17175452D01*
X7975119Y-17165929D01*
X7965595Y-17146881D01*
X7956071Y-17108786D01*
X7956071Y-17061167D01*
X7965595Y-17023071D01*
X7975119Y-17004024D01*
X7984643Y-16994500D01*
X8003690Y-16984976D01*
X8260833Y-17184976D02*
X8146548Y-17184976D01*
X8203690Y-17184976D02*
X8203690Y-16984976D01*
X8184643Y-17013548D01*
X8165595Y-17032595D01*
X8146548Y-17042119D01*
X8356071Y-17184976D02*
X8394167Y-17184976D01*
X8413214Y-17175452D01*
X8422738Y-17165929D01*
X8441786Y-17137357D01*
X8451310Y-17099262D01*
X8451310Y-17023071D01*
X8441786Y-17004024D01*
X8432262Y-16994500D01*
X8413214Y-16984976D01*
X8375119Y-16984976D01*
X8356071Y-16994500D01*
X8346548Y-17004024D01*
X8337024Y-17023071D01*
X8337024Y-17070690D01*
X8346548Y-17089738D01*
X8356071Y-17099262D01*
X8375119Y-17108786D01*
X8413214Y-17108786D01*
X8432262Y-17099262D01*
X8441786Y-17089738D01*
X8451310Y-17070690D01*
X8517976Y-16984976D02*
X8651310Y-16984976D01*
X8565595Y-17184976D01*
X8717976Y-16984976D02*
X8717976Y-17023071D01*
X8794167Y-16984976D02*
X8794167Y-17023071D01*
X9089405Y-17261167D02*
X9079881Y-17251643D01*
X9060833Y-17223071D01*
X9051310Y-17204024D01*
X9041786Y-17175452D01*
X9032262Y-17127833D01*
X9032262Y-17089738D01*
X9041786Y-17042119D01*
X9051310Y-17013548D01*
X9060833Y-16994500D01*
X9079881Y-16965929D01*
X9089405Y-16956405D01*
X9251310Y-16984976D02*
X9213214Y-16984976D01*
X9194167Y-16994500D01*
X9184643Y-17004024D01*
X9165595Y-17032595D01*
X9156071Y-17070690D01*
X9156071Y-17146881D01*
X9165595Y-17165929D01*
X9175119Y-17175452D01*
X9194167Y-17184976D01*
X9232262Y-17184976D01*
X9251310Y-17175452D01*
X9260833Y-17165929D01*
X9270357Y-17146881D01*
X9270357Y-17099262D01*
X9260833Y-17080214D01*
X9251310Y-17070690D01*
X9232262Y-17061167D01*
X9194167Y-17061167D01*
X9175119Y-17070690D01*
X9165595Y-17080214D01*
X9156071Y-17099262D01*
X9508452Y-17184976D02*
X9508452Y-16984976D01*
X9594167Y-17184976D02*
X9594167Y-17080214D01*
X9584643Y-17061167D01*
X9565595Y-17051643D01*
X9537024Y-17051643D01*
X9517976Y-17061167D01*
X9508452Y-17070690D01*
X9717976Y-17184976D02*
X9698929Y-17175452D01*
X9689405Y-17165929D01*
X9679881Y-17146881D01*
X9679881Y-17089738D01*
X9689405Y-17070690D01*
X9698929Y-17061167D01*
X9717976Y-17051643D01*
X9746548Y-17051643D01*
X9765595Y-17061167D01*
X9775119Y-17070690D01*
X9784643Y-17089738D01*
X9784643Y-17146881D01*
X9775119Y-17165929D01*
X9765595Y-17175452D01*
X9746548Y-17184976D01*
X9717976Y-17184976D01*
X9898929Y-17184976D02*
X9879881Y-17175452D01*
X9870357Y-17156405D01*
X9870357Y-16984976D01*
X10051310Y-17175452D02*
X10032262Y-17184976D01*
X9994167Y-17184976D01*
X9975119Y-17175452D01*
X9965595Y-17156405D01*
X9965595Y-17080214D01*
X9975119Y-17061167D01*
X9994167Y-17051643D01*
X10032262Y-17051643D01*
X10051310Y-17061167D01*
X10060833Y-17080214D01*
X10060833Y-17099262D01*
X9965595Y-17118310D01*
X10137024Y-17175452D02*
X10156071Y-17184976D01*
X10194167Y-17184976D01*
X10213214Y-17175452D01*
X10222738Y-17156405D01*
X10222738Y-17146881D01*
X10213214Y-17127833D01*
X10194167Y-17118310D01*
X10165595Y-17118310D01*
X10146548Y-17108786D01*
X10137024Y-17089738D01*
X10137024Y-17080214D01*
X10146548Y-17061167D01*
X10165595Y-17051643D01*
X10194167Y-17051643D01*
X10213214Y-17061167D01*
X10289405Y-17261167D02*
X10298929Y-17251643D01*
X10317976Y-17223071D01*
X10327500Y-17204024D01*
X10337024Y-17175452D01*
X10346548Y-17127833D01*
X10346548Y-17089738D01*
X10337024Y-17042119D01*
X10327500Y-17013548D01*
X10317976Y-16994500D01*
X10298929Y-16965929D01*
X10289405Y-16956405D01*
D14*
X5485000Y-17391000D02*
X5517500Y-17358500D01*
X5485000Y-17326000D01*
X5452500Y-17358500D01*
X5485000Y-17391000D01*
D11*
X5813214Y-17248976D02*
X5832262Y-17248976D01*
X5851309Y-17258500D01*
X5860833Y-17268024D01*
X5870357Y-17287071D01*
X5879881Y-17325167D01*
X5879881Y-17372786D01*
X5870357Y-17410881D01*
X5860833Y-17429929D01*
X5851309Y-17439452D01*
X5832262Y-17448976D01*
X5813214Y-17448976D01*
X5794167Y-17439452D01*
X5784643Y-17429929D01*
X5775119Y-17410881D01*
X5765595Y-17372786D01*
X5765595Y-17325167D01*
X5775119Y-17287071D01*
X5784643Y-17268024D01*
X5794167Y-17258500D01*
X5813214Y-17248976D01*
X5965595Y-17429929D02*
X5975119Y-17439452D01*
X5965595Y-17448976D01*
X5956071Y-17439452D01*
X5965595Y-17429929D01*
X5965595Y-17448976D01*
X6146548Y-17248976D02*
X6108452Y-17248976D01*
X6089405Y-17258500D01*
X6079881Y-17268024D01*
X6060833Y-17296595D01*
X6051309Y-17334690D01*
X6051309Y-17410881D01*
X6060833Y-17429929D01*
X6070357Y-17439452D01*
X6089405Y-17448976D01*
X6127500Y-17448976D01*
X6146548Y-17439452D01*
X6156071Y-17429929D01*
X6165595Y-17410881D01*
X6165595Y-17363262D01*
X6156071Y-17344214D01*
X6146548Y-17334690D01*
X6127500Y-17325167D01*
X6089405Y-17325167D01*
X6070357Y-17334690D01*
X6060833Y-17344214D01*
X6051309Y-17363262D01*
X6346548Y-17248976D02*
X6251309Y-17248976D01*
X6241786Y-17344214D01*
X6251309Y-17334690D01*
X6270357Y-17325167D01*
X6317976Y-17325167D01*
X6337024Y-17334690D01*
X6346548Y-17344214D01*
X6356071Y-17363262D01*
X6356071Y-17410881D01*
X6346548Y-17429929D01*
X6337024Y-17439452D01*
X6317976Y-17448976D01*
X6270357Y-17448976D01*
X6251309Y-17439452D01*
X6241786Y-17429929D01*
X6479881Y-17248976D02*
X6498928Y-17248976D01*
X6517976Y-17258500D01*
X6527500Y-17268024D01*
X6537024Y-17287071D01*
X6546548Y-17325167D01*
X6546548Y-17372786D01*
X6537024Y-17410881D01*
X6527500Y-17429929D01*
X6517976Y-17439452D01*
X6498928Y-17448976D01*
X6479881Y-17448976D01*
X6460833Y-17439452D01*
X6451309Y-17429929D01*
X6441786Y-17410881D01*
X6432262Y-17372786D01*
X6432262Y-17325167D01*
X6441786Y-17287071D01*
X6451309Y-17268024D01*
X6460833Y-17258500D01*
X6479881Y-17248976D01*
X6632262Y-17448976D02*
X6632262Y-17315643D01*
X6632262Y-17334690D02*
X6641786Y-17325167D01*
X6660833Y-17315643D01*
X6689405Y-17315643D01*
X6708452Y-17325167D01*
X6717976Y-17344214D01*
X6717976Y-17448976D01*
X6717976Y-17344214D02*
X6727500Y-17325167D01*
X6746548Y-17315643D01*
X6775119Y-17315643D01*
X6794167Y-17325167D01*
X6803690Y-17344214D01*
X6803690Y-17448976D01*
X6898928Y-17448976D02*
X6898928Y-17315643D01*
X6898928Y-17334690D02*
X6908452Y-17325167D01*
X6927500Y-17315643D01*
X6956071Y-17315643D01*
X6975119Y-17325167D01*
X6984643Y-17344214D01*
X6984643Y-17448976D01*
X6984643Y-17344214D02*
X6994167Y-17325167D01*
X7013214Y-17315643D01*
X7041786Y-17315643D01*
X7060833Y-17325167D01*
X7070357Y-17344214D01*
X7070357Y-17448976D01*
X7460833Y-17239452D02*
X7289405Y-17496595D01*
X7717976Y-17248976D02*
X7737024Y-17248976D01*
X7756071Y-17258500D01*
X7765595Y-17268024D01*
X7775119Y-17287071D01*
X7784643Y-17325167D01*
X7784643Y-17372786D01*
X7775119Y-17410881D01*
X7765595Y-17429929D01*
X7756071Y-17439452D01*
X7737024Y-17448976D01*
X7717976Y-17448976D01*
X7698928Y-17439452D01*
X7689405Y-17429929D01*
X7679881Y-17410881D01*
X7670357Y-17372786D01*
X7670357Y-17325167D01*
X7679881Y-17287071D01*
X7689405Y-17268024D01*
X7698928Y-17258500D01*
X7717976Y-17248976D01*
X7870357Y-17429929D02*
X7879881Y-17439452D01*
X7870357Y-17448976D01*
X7860833Y-17439452D01*
X7870357Y-17429929D01*
X7870357Y-17448976D01*
X8003690Y-17248976D02*
X8022738Y-17248976D01*
X8041786Y-17258500D01*
X8051309Y-17268024D01*
X8060833Y-17287071D01*
X8070357Y-17325167D01*
X8070357Y-17372786D01*
X8060833Y-17410881D01*
X8051309Y-17429929D01*
X8041786Y-17439452D01*
X8022738Y-17448976D01*
X8003690Y-17448976D01*
X7984643Y-17439452D01*
X7975119Y-17429929D01*
X7965595Y-17410881D01*
X7956071Y-17372786D01*
X7956071Y-17325167D01*
X7965595Y-17287071D01*
X7975119Y-17268024D01*
X7984643Y-17258500D01*
X8003690Y-17248976D01*
X8146548Y-17268024D02*
X8156071Y-17258500D01*
X8175119Y-17248976D01*
X8222738Y-17248976D01*
X8241786Y-17258500D01*
X8251309Y-17268024D01*
X8260833Y-17287071D01*
X8260833Y-17306119D01*
X8251309Y-17334690D01*
X8137024Y-17448976D01*
X8260833Y-17448976D01*
X8441786Y-17248976D02*
X8346548Y-17248976D01*
X8337024Y-17344214D01*
X8346548Y-17334690D01*
X8365595Y-17325167D01*
X8413214Y-17325167D01*
X8432262Y-17334690D01*
X8441786Y-17344214D01*
X8451310Y-17363262D01*
X8451310Y-17410881D01*
X8441786Y-17429929D01*
X8432262Y-17439452D01*
X8413214Y-17448976D01*
X8365595Y-17448976D01*
X8346548Y-17439452D01*
X8337024Y-17429929D01*
X8622738Y-17248976D02*
X8584643Y-17248976D01*
X8565595Y-17258500D01*
X8556071Y-17268024D01*
X8537024Y-17296595D01*
X8527500Y-17334690D01*
X8527500Y-17410881D01*
X8537024Y-17429929D01*
X8546548Y-17439452D01*
X8565595Y-17448976D01*
X8603690Y-17448976D01*
X8622738Y-17439452D01*
X8632262Y-17429929D01*
X8641786Y-17410881D01*
X8641786Y-17363262D01*
X8632262Y-17344214D01*
X8622738Y-17334690D01*
X8603690Y-17325167D01*
X8565595Y-17325167D01*
X8546548Y-17334690D01*
X8537024Y-17344214D01*
X8527500Y-17363262D01*
X8717976Y-17248976D02*
X8717976Y-17287071D01*
X8794167Y-17248976D02*
X8794167Y-17287071D01*
X9089405Y-17525167D02*
X9079881Y-17515643D01*
X9060833Y-17487071D01*
X9051310Y-17468024D01*
X9041786Y-17439452D01*
X9032262Y-17391833D01*
X9032262Y-17353738D01*
X9041786Y-17306119D01*
X9051310Y-17277548D01*
X9060833Y-17258500D01*
X9079881Y-17229929D01*
X9089405Y-17220405D01*
X9270357Y-17448976D02*
X9156071Y-17448976D01*
X9213214Y-17448976D02*
X9213214Y-17248976D01*
X9194167Y-17277548D01*
X9175119Y-17296595D01*
X9156071Y-17306119D01*
X9441786Y-17248976D02*
X9403690Y-17248976D01*
X9384643Y-17258500D01*
X9375119Y-17268024D01*
X9356071Y-17296595D01*
X9346548Y-17334690D01*
X9346548Y-17410881D01*
X9356071Y-17429929D01*
X9365595Y-17439452D01*
X9384643Y-17448976D01*
X9422738Y-17448976D01*
X9441786Y-17439452D01*
X9451310Y-17429929D01*
X9460833Y-17410881D01*
X9460833Y-17363262D01*
X9451310Y-17344214D01*
X9441786Y-17334690D01*
X9422738Y-17325167D01*
X9384643Y-17325167D01*
X9365595Y-17334690D01*
X9356071Y-17344214D01*
X9346548Y-17363262D01*
X9698929Y-17448976D02*
X9698929Y-17248976D01*
X9784643Y-17448976D02*
X9784643Y-17344214D01*
X9775119Y-17325167D01*
X9756071Y-17315643D01*
X9727500Y-17315643D01*
X9708452Y-17325167D01*
X9698929Y-17334690D01*
X9908452Y-17448976D02*
X9889405Y-17439452D01*
X9879881Y-17429929D01*
X9870357Y-17410881D01*
X9870357Y-17353738D01*
X9879881Y-17334690D01*
X9889405Y-17325167D01*
X9908452Y-17315643D01*
X9937024Y-17315643D01*
X9956071Y-17325167D01*
X9965595Y-17334690D01*
X9975119Y-17353738D01*
X9975119Y-17410881D01*
X9965595Y-17429929D01*
X9956071Y-17439452D01*
X9937024Y-17448976D01*
X9908452Y-17448976D01*
X10089405Y-17448976D02*
X10070357Y-17439452D01*
X10060833Y-17420405D01*
X10060833Y-17248976D01*
X10241786Y-17439452D02*
X10222738Y-17448976D01*
X10184643Y-17448976D01*
X10165595Y-17439452D01*
X10156071Y-17420405D01*
X10156071Y-17344214D01*
X10165595Y-17325167D01*
X10184643Y-17315643D01*
X10222738Y-17315643D01*
X10241786Y-17325167D01*
X10251310Y-17344214D01*
X10251310Y-17363262D01*
X10156071Y-17382310D01*
X10327500Y-17439452D02*
X10346548Y-17448976D01*
X10384643Y-17448976D01*
X10403690Y-17439452D01*
X10413214Y-17420405D01*
X10413214Y-17410881D01*
X10403690Y-17391833D01*
X10384643Y-17382310D01*
X10356071Y-17382310D01*
X10337024Y-17372786D01*
X10327500Y-17353738D01*
X10327500Y-17344214D01*
X10337024Y-17325167D01*
X10356071Y-17315643D01*
X10384643Y-17315643D01*
X10403690Y-17325167D01*
X10479881Y-17525167D02*
X10489405Y-17515643D01*
X10508452Y-17487071D01*
X10517976Y-17468024D01*
X10527500Y-17439452D01*
X10537024Y-17391833D01*
X10537024Y-17353738D01*
X10527500Y-17306119D01*
X10517976Y-17277548D01*
X10508452Y-17258500D01*
X10489405Y-17229929D01*
X10479881Y-17220405D01*
D15*
X5437500Y-17582500D02*
X5517500Y-17662500D01*
X5517500Y-17582500D02*
X5437500Y-17662500D01*
X5517500Y-17622500D02*
G75*
G03*
X5517500Y-17622500I-40000J0D01*
G01*
D11*
X5813214Y-17512976D02*
X5832262Y-17512976D01*
X5851309Y-17522500D01*
X5860833Y-17532024D01*
X5870357Y-17551071D01*
X5879881Y-17589167D01*
X5879881Y-17636786D01*
X5870357Y-17674881D01*
X5860833Y-17693929D01*
X5851309Y-17703452D01*
X5832262Y-17712976D01*
X5813214Y-17712976D01*
X5794167Y-17703452D01*
X5784643Y-17693929D01*
X5775119Y-17674881D01*
X5765595Y-17636786D01*
X5765595Y-17589167D01*
X5775119Y-17551071D01*
X5784643Y-17532024D01*
X5794167Y-17522500D01*
X5813214Y-17512976D01*
X5965595Y-17693929D02*
X5975119Y-17703452D01*
X5965595Y-17712976D01*
X5956071Y-17703452D01*
X5965595Y-17693929D01*
X5965595Y-17712976D01*
X6089405Y-17598690D02*
X6070357Y-17589167D01*
X6060833Y-17579643D01*
X6051309Y-17560595D01*
X6051309Y-17551071D01*
X6060833Y-17532024D01*
X6070357Y-17522500D01*
X6089405Y-17512976D01*
X6127500Y-17512976D01*
X6146548Y-17522500D01*
X6156071Y-17532024D01*
X6165595Y-17551071D01*
X6165595Y-17560595D01*
X6156071Y-17579643D01*
X6146548Y-17589167D01*
X6127500Y-17598690D01*
X6089405Y-17598690D01*
X6070357Y-17608214D01*
X6060833Y-17617738D01*
X6051309Y-17636786D01*
X6051309Y-17674881D01*
X6060833Y-17693929D01*
X6070357Y-17703452D01*
X6089405Y-17712976D01*
X6127500Y-17712976D01*
X6146548Y-17703452D01*
X6156071Y-17693929D01*
X6165595Y-17674881D01*
X6165595Y-17636786D01*
X6156071Y-17617738D01*
X6146548Y-17608214D01*
X6127500Y-17598690D01*
X6289405Y-17512976D02*
X6308452Y-17512976D01*
X6327500Y-17522500D01*
X6337024Y-17532024D01*
X6346548Y-17551071D01*
X6356071Y-17589167D01*
X6356071Y-17636786D01*
X6346548Y-17674881D01*
X6337024Y-17693929D01*
X6327500Y-17703452D01*
X6308452Y-17712976D01*
X6289405Y-17712976D01*
X6270357Y-17703452D01*
X6260833Y-17693929D01*
X6251309Y-17674881D01*
X6241786Y-17636786D01*
X6241786Y-17589167D01*
X6251309Y-17551071D01*
X6260833Y-17532024D01*
X6270357Y-17522500D01*
X6289405Y-17512976D01*
X6479881Y-17512976D02*
X6498928Y-17512976D01*
X6517976Y-17522500D01*
X6527500Y-17532024D01*
X6537024Y-17551071D01*
X6546548Y-17589167D01*
X6546548Y-17636786D01*
X6537024Y-17674881D01*
X6527500Y-17693929D01*
X6517976Y-17703452D01*
X6498928Y-17712976D01*
X6479881Y-17712976D01*
X6460833Y-17703452D01*
X6451309Y-17693929D01*
X6441786Y-17674881D01*
X6432262Y-17636786D01*
X6432262Y-17589167D01*
X6441786Y-17551071D01*
X6451309Y-17532024D01*
X6460833Y-17522500D01*
X6479881Y-17512976D01*
X6632262Y-17712976D02*
X6632262Y-17579643D01*
X6632262Y-17598690D02*
X6641786Y-17589167D01*
X6660833Y-17579643D01*
X6689405Y-17579643D01*
X6708452Y-17589167D01*
X6717976Y-17608214D01*
X6717976Y-17712976D01*
X6717976Y-17608214D02*
X6727500Y-17589167D01*
X6746548Y-17579643D01*
X6775119Y-17579643D01*
X6794167Y-17589167D01*
X6803690Y-17608214D01*
X6803690Y-17712976D01*
X6898928Y-17712976D02*
X6898928Y-17579643D01*
X6898928Y-17598690D02*
X6908452Y-17589167D01*
X6927500Y-17579643D01*
X6956071Y-17579643D01*
X6975119Y-17589167D01*
X6984643Y-17608214D01*
X6984643Y-17712976D01*
X6984643Y-17608214D02*
X6994167Y-17589167D01*
X7013214Y-17579643D01*
X7041786Y-17579643D01*
X7060833Y-17589167D01*
X7070357Y-17608214D01*
X7070357Y-17712976D01*
X7460833Y-17503452D02*
X7289405Y-17760595D01*
X7717976Y-17512976D02*
X7737024Y-17512976D01*
X7756071Y-17522500D01*
X7765595Y-17532024D01*
X7775119Y-17551071D01*
X7784643Y-17589167D01*
X7784643Y-17636786D01*
X7775119Y-17674881D01*
X7765595Y-17693929D01*
X7756071Y-17703452D01*
X7737024Y-17712976D01*
X7717976Y-17712976D01*
X7698928Y-17703452D01*
X7689405Y-17693929D01*
X7679881Y-17674881D01*
X7670357Y-17636786D01*
X7670357Y-17589167D01*
X7679881Y-17551071D01*
X7689405Y-17532024D01*
X7698928Y-17522500D01*
X7717976Y-17512976D01*
X7870357Y-17693929D02*
X7879881Y-17703452D01*
X7870357Y-17712976D01*
X7860833Y-17703452D01*
X7870357Y-17693929D01*
X7870357Y-17712976D01*
X8003690Y-17512976D02*
X8022738Y-17512976D01*
X8041786Y-17522500D01*
X8051309Y-17532024D01*
X8060833Y-17551071D01*
X8070357Y-17589167D01*
X8070357Y-17636786D01*
X8060833Y-17674881D01*
X8051309Y-17693929D01*
X8041786Y-17703452D01*
X8022738Y-17712976D01*
X8003690Y-17712976D01*
X7984643Y-17703452D01*
X7975119Y-17693929D01*
X7965595Y-17674881D01*
X7956071Y-17636786D01*
X7956071Y-17589167D01*
X7965595Y-17551071D01*
X7975119Y-17532024D01*
X7984643Y-17522500D01*
X8003690Y-17512976D01*
X8137024Y-17512976D02*
X8260833Y-17512976D01*
X8194167Y-17589167D01*
X8222738Y-17589167D01*
X8241786Y-17598690D01*
X8251309Y-17608214D01*
X8260833Y-17627262D01*
X8260833Y-17674881D01*
X8251309Y-17693929D01*
X8241786Y-17703452D01*
X8222738Y-17712976D01*
X8165595Y-17712976D01*
X8146548Y-17703452D01*
X8137024Y-17693929D01*
X8451310Y-17712976D02*
X8337024Y-17712976D01*
X8394167Y-17712976D02*
X8394167Y-17512976D01*
X8375119Y-17541548D01*
X8356071Y-17560595D01*
X8337024Y-17570119D01*
X8632262Y-17512976D02*
X8537024Y-17512976D01*
X8527500Y-17608214D01*
X8537024Y-17598690D01*
X8556071Y-17589167D01*
X8603690Y-17589167D01*
X8622738Y-17598690D01*
X8632262Y-17608214D01*
X8641786Y-17627262D01*
X8641786Y-17674881D01*
X8632262Y-17693929D01*
X8622738Y-17703452D01*
X8603690Y-17712976D01*
X8556071Y-17712976D01*
X8537024Y-17703452D01*
X8527500Y-17693929D01*
X8717976Y-17512976D02*
X8717976Y-17551071D01*
X8794167Y-17512976D02*
X8794167Y-17551071D01*
X9089405Y-17789167D02*
X9079881Y-17779643D01*
X9060833Y-17751071D01*
X9051310Y-17732024D01*
X9041786Y-17703452D01*
X9032262Y-17655833D01*
X9032262Y-17617738D01*
X9041786Y-17570119D01*
X9051310Y-17541548D01*
X9060833Y-17522500D01*
X9079881Y-17493929D01*
X9089405Y-17484405D01*
X9270357Y-17712976D02*
X9156071Y-17712976D01*
X9213214Y-17712976D02*
X9213214Y-17512976D01*
X9194167Y-17541548D01*
X9175119Y-17560595D01*
X9156071Y-17570119D01*
X9441786Y-17579643D02*
X9441786Y-17712976D01*
X9394167Y-17503452D02*
X9346548Y-17646310D01*
X9470357Y-17646310D01*
X9698929Y-17712976D02*
X9698929Y-17512976D01*
X9784643Y-17712976D02*
X9784643Y-17608214D01*
X9775119Y-17589167D01*
X9756071Y-17579643D01*
X9727500Y-17579643D01*
X9708452Y-17589167D01*
X9698929Y-17598690D01*
X9908452Y-17712976D02*
X9889405Y-17703452D01*
X9879881Y-17693929D01*
X9870357Y-17674881D01*
X9870357Y-17617738D01*
X9879881Y-17598690D01*
X9889405Y-17589167D01*
X9908452Y-17579643D01*
X9937024Y-17579643D01*
X9956071Y-17589167D01*
X9965595Y-17598690D01*
X9975119Y-17617738D01*
X9975119Y-17674881D01*
X9965595Y-17693929D01*
X9956071Y-17703452D01*
X9937024Y-17712976D01*
X9908452Y-17712976D01*
X10089405Y-17712976D02*
X10070357Y-17703452D01*
X10060833Y-17684405D01*
X10060833Y-17512976D01*
X10241786Y-17703452D02*
X10222738Y-17712976D01*
X10184643Y-17712976D01*
X10165595Y-17703452D01*
X10156071Y-17684405D01*
X10156071Y-17608214D01*
X10165595Y-17589167D01*
X10184643Y-17579643D01*
X10222738Y-17579643D01*
X10241786Y-17589167D01*
X10251310Y-17608214D01*
X10251310Y-17627262D01*
X10156071Y-17646310D01*
X10327500Y-17703452D02*
X10346548Y-17712976D01*
X10384643Y-17712976D01*
X10403690Y-17703452D01*
X10413214Y-17684405D01*
X10413214Y-17674881D01*
X10403690Y-17655833D01*
X10384643Y-17646310D01*
X10356071Y-17646310D01*
X10337024Y-17636786D01*
X10327500Y-17617738D01*
X10327500Y-17608214D01*
X10337024Y-17589167D01*
X10356071Y-17579643D01*
X10384643Y-17579643D01*
X10403690Y-17589167D01*
X10479881Y-17789167D02*
X10489405Y-17779643D01*
X10508452Y-17751071D01*
X10517976Y-17732024D01*
X10527500Y-17703452D01*
X10537024Y-17655833D01*
X10537024Y-17617738D01*
X10527500Y-17570119D01*
X10517976Y-17541548D01*
X10508452Y-17522500D01*
X10489405Y-17493929D01*
X10479881Y-17484405D01*
D16*
X5425500Y-17840500D02*
X5517500Y-17932500D01*
X5517500Y-17840500D02*
X5425500Y-17932500D01*
X5471500Y-17840500D02*
X5471500Y-17932500D01*
X5425500Y-17886500D02*
X5517500Y-17886500D01*
D11*
X5813214Y-17776976D02*
X5832262Y-17776976D01*
X5851309Y-17786500D01*
X5860833Y-17796024D01*
X5870357Y-17815071D01*
X5879881Y-17853167D01*
X5879881Y-17900786D01*
X5870357Y-17938881D01*
X5860833Y-17957929D01*
X5851309Y-17967452D01*
X5832262Y-17976976D01*
X5813214Y-17976976D01*
X5794167Y-17967452D01*
X5784643Y-17957929D01*
X5775119Y-17938881D01*
X5765595Y-17900786D01*
X5765595Y-17853167D01*
X5775119Y-17815071D01*
X5784643Y-17796024D01*
X5794167Y-17786500D01*
X5813214Y-17776976D01*
X5965595Y-17957929D02*
X5975119Y-17967452D01*
X5965595Y-17976976D01*
X5956071Y-17967452D01*
X5965595Y-17957929D01*
X5965595Y-17976976D01*
X6070357Y-17976976D02*
X6108452Y-17976976D01*
X6127500Y-17967452D01*
X6137024Y-17957929D01*
X6156071Y-17929357D01*
X6165595Y-17891262D01*
X6165595Y-17815071D01*
X6156071Y-17796024D01*
X6146548Y-17786500D01*
X6127500Y-17776976D01*
X6089405Y-17776976D01*
X6070357Y-17786500D01*
X6060833Y-17796024D01*
X6051309Y-17815071D01*
X6051309Y-17862690D01*
X6060833Y-17881738D01*
X6070357Y-17891262D01*
X6089405Y-17900786D01*
X6127500Y-17900786D01*
X6146548Y-17891262D01*
X6156071Y-17881738D01*
X6165595Y-17862690D01*
X6241786Y-17796024D02*
X6251309Y-17786500D01*
X6270357Y-17776976D01*
X6317976Y-17776976D01*
X6337024Y-17786500D01*
X6346548Y-17796024D01*
X6356071Y-17815071D01*
X6356071Y-17834119D01*
X6346548Y-17862690D01*
X6232262Y-17976976D01*
X6356071Y-17976976D01*
X6479881Y-17776976D02*
X6498928Y-17776976D01*
X6517976Y-17786500D01*
X6527500Y-17796024D01*
X6537024Y-17815071D01*
X6546548Y-17853167D01*
X6546548Y-17900786D01*
X6537024Y-17938881D01*
X6527500Y-17957929D01*
X6517976Y-17967452D01*
X6498928Y-17976976D01*
X6479881Y-17976976D01*
X6460833Y-17967452D01*
X6451309Y-17957929D01*
X6441786Y-17938881D01*
X6432262Y-17900786D01*
X6432262Y-17853167D01*
X6441786Y-17815071D01*
X6451309Y-17796024D01*
X6460833Y-17786500D01*
X6479881Y-17776976D01*
X6632262Y-17976976D02*
X6632262Y-17843643D01*
X6632262Y-17862690D02*
X6641786Y-17853167D01*
X6660833Y-17843643D01*
X6689405Y-17843643D01*
X6708452Y-17853167D01*
X6717976Y-17872214D01*
X6717976Y-17976976D01*
X6717976Y-17872214D02*
X6727500Y-17853167D01*
X6746548Y-17843643D01*
X6775119Y-17843643D01*
X6794167Y-17853167D01*
X6803690Y-17872214D01*
X6803690Y-17976976D01*
X6898928Y-17976976D02*
X6898928Y-17843643D01*
X6898928Y-17862690D02*
X6908452Y-17853167D01*
X6927500Y-17843643D01*
X6956071Y-17843643D01*
X6975119Y-17853167D01*
X6984643Y-17872214D01*
X6984643Y-17976976D01*
X6984643Y-17872214D02*
X6994167Y-17853167D01*
X7013214Y-17843643D01*
X7041786Y-17843643D01*
X7060833Y-17853167D01*
X7070357Y-17872214D01*
X7070357Y-17976976D01*
X7460833Y-17767452D02*
X7289405Y-18024595D01*
X7717976Y-17776976D02*
X7737024Y-17776976D01*
X7756071Y-17786500D01*
X7765595Y-17796024D01*
X7775119Y-17815071D01*
X7784643Y-17853167D01*
X7784643Y-17900786D01*
X7775119Y-17938881D01*
X7765595Y-17957929D01*
X7756071Y-17967452D01*
X7737024Y-17976976D01*
X7717976Y-17976976D01*
X7698928Y-17967452D01*
X7689405Y-17957929D01*
X7679881Y-17938881D01*
X7670357Y-17900786D01*
X7670357Y-17853167D01*
X7679881Y-17815071D01*
X7689405Y-17796024D01*
X7698928Y-17786500D01*
X7717976Y-17776976D01*
X7870357Y-17957929D02*
X7879881Y-17967452D01*
X7870357Y-17976976D01*
X7860833Y-17967452D01*
X7870357Y-17957929D01*
X7870357Y-17976976D01*
X8003690Y-17776976D02*
X8022738Y-17776976D01*
X8041786Y-17786500D01*
X8051309Y-17796024D01*
X8060833Y-17815071D01*
X8070357Y-17853167D01*
X8070357Y-17900786D01*
X8060833Y-17938881D01*
X8051309Y-17957929D01*
X8041786Y-17967452D01*
X8022738Y-17976976D01*
X8003690Y-17976976D01*
X7984643Y-17967452D01*
X7975119Y-17957929D01*
X7965595Y-17938881D01*
X7956071Y-17900786D01*
X7956071Y-17853167D01*
X7965595Y-17815071D01*
X7975119Y-17796024D01*
X7984643Y-17786500D01*
X8003690Y-17776976D01*
X8137024Y-17776976D02*
X8260833Y-17776976D01*
X8194167Y-17853167D01*
X8222738Y-17853167D01*
X8241786Y-17862690D01*
X8251309Y-17872214D01*
X8260833Y-17891262D01*
X8260833Y-17938881D01*
X8251309Y-17957929D01*
X8241786Y-17967452D01*
X8222738Y-17976976D01*
X8165595Y-17976976D01*
X8146548Y-17967452D01*
X8137024Y-17957929D01*
X8432262Y-17776976D02*
X8394167Y-17776976D01*
X8375119Y-17786500D01*
X8365595Y-17796024D01*
X8346548Y-17824595D01*
X8337024Y-17862690D01*
X8337024Y-17938881D01*
X8346548Y-17957929D01*
X8356071Y-17967452D01*
X8375119Y-17976976D01*
X8413214Y-17976976D01*
X8432262Y-17967452D01*
X8441786Y-17957929D01*
X8451310Y-17938881D01*
X8451310Y-17891262D01*
X8441786Y-17872214D01*
X8432262Y-17862690D01*
X8413214Y-17853167D01*
X8375119Y-17853167D01*
X8356071Y-17862690D01*
X8346548Y-17872214D01*
X8337024Y-17891262D01*
X8527500Y-17796024D02*
X8537024Y-17786500D01*
X8556071Y-17776976D01*
X8603690Y-17776976D01*
X8622738Y-17786500D01*
X8632262Y-17796024D01*
X8641786Y-17815071D01*
X8641786Y-17834119D01*
X8632262Y-17862690D01*
X8517976Y-17976976D01*
X8641786Y-17976976D01*
X8717976Y-17776976D02*
X8717976Y-17815071D01*
X8794167Y-17776976D02*
X8794167Y-17815071D01*
X9089405Y-18053167D02*
X9079881Y-18043643D01*
X9060833Y-18015071D01*
X9051310Y-17996024D01*
X9041786Y-17967452D01*
X9032262Y-17919833D01*
X9032262Y-17881738D01*
X9041786Y-17834119D01*
X9051310Y-17805548D01*
X9060833Y-17786500D01*
X9079881Y-17757929D01*
X9089405Y-17748405D01*
X9251310Y-17843643D02*
X9251310Y-17976976D01*
X9203690Y-17767452D02*
X9156071Y-17910310D01*
X9279881Y-17910310D01*
X9508452Y-17976976D02*
X9508452Y-17776976D01*
X9594167Y-17976976D02*
X9594167Y-17872214D01*
X9584643Y-17853167D01*
X9565595Y-17843643D01*
X9537024Y-17843643D01*
X9517976Y-17853167D01*
X9508452Y-17862690D01*
X9717976Y-17976976D02*
X9698929Y-17967452D01*
X9689405Y-17957929D01*
X9679881Y-17938881D01*
X9679881Y-17881738D01*
X9689405Y-17862690D01*
X9698929Y-17853167D01*
X9717976Y-17843643D01*
X9746548Y-17843643D01*
X9765595Y-17853167D01*
X9775119Y-17862690D01*
X9784643Y-17881738D01*
X9784643Y-17938881D01*
X9775119Y-17957929D01*
X9765595Y-17967452D01*
X9746548Y-17976976D01*
X9717976Y-17976976D01*
X9898929Y-17976976D02*
X9879881Y-17967452D01*
X9870357Y-17948405D01*
X9870357Y-17776976D01*
X10051310Y-17967452D02*
X10032262Y-17976976D01*
X9994167Y-17976976D01*
X9975119Y-17967452D01*
X9965595Y-17948405D01*
X9965595Y-17872214D01*
X9975119Y-17853167D01*
X9994167Y-17843643D01*
X10032262Y-17843643D01*
X10051310Y-17853167D01*
X10060833Y-17872214D01*
X10060833Y-17891262D01*
X9965595Y-17910310D01*
X10137024Y-17967452D02*
X10156071Y-17976976D01*
X10194167Y-17976976D01*
X10213214Y-17967452D01*
X10222738Y-17948405D01*
X10222738Y-17938881D01*
X10213214Y-17919833D01*
X10194167Y-17910310D01*
X10165595Y-17910310D01*
X10146548Y-17900786D01*
X10137024Y-17881738D01*
X10137024Y-17872214D01*
X10146548Y-17853167D01*
X10165595Y-17843643D01*
X10194167Y-17843643D01*
X10213214Y-17853167D01*
X10289405Y-18053167D02*
X10298929Y-18043643D01*
X10317976Y-18015071D01*
X10327500Y-17996024D01*
X10337024Y-17967452D01*
X10346548Y-17919833D01*
X10346548Y-17881738D01*
X10337024Y-17834119D01*
X10327500Y-17805548D01*
X10317976Y-17786500D01*
X10298929Y-17757929D01*
X10289405Y-17748405D01*
D17*
X5417500Y-18100500D02*
X5517500Y-18200500D01*
X5517500Y-18100500D02*
X5417500Y-18200500D01*
X5502856Y-18185856D02*
X5502856Y-18115144D01*
X5432144Y-18115144D01*
X5432144Y-18185856D01*
X5502856Y-18185856D01*
D11*
X5879881Y-18240976D02*
X5765595Y-18240976D01*
X5822738Y-18240976D02*
X5822738Y-18040976D01*
X5803690Y-18069548D01*
X5784643Y-18088595D01*
X5765595Y-18098119D01*
X5965595Y-18221929D02*
X5975119Y-18231452D01*
X5965595Y-18240976D01*
X5956071Y-18231452D01*
X5965595Y-18221929D01*
X5965595Y-18240976D01*
X6098928Y-18040976D02*
X6117976Y-18040976D01*
X6137024Y-18050500D01*
X6146548Y-18060024D01*
X6156071Y-18079071D01*
X6165595Y-18117167D01*
X6165595Y-18164786D01*
X6156071Y-18202881D01*
X6146548Y-18221929D01*
X6137024Y-18231452D01*
X6117976Y-18240976D01*
X6098928Y-18240976D01*
X6079881Y-18231452D01*
X6070357Y-18221929D01*
X6060833Y-18202881D01*
X6051309Y-18164786D01*
X6051309Y-18117167D01*
X6060833Y-18079071D01*
X6070357Y-18060024D01*
X6079881Y-18050500D01*
X6098928Y-18040976D01*
X6289405Y-18040976D02*
X6308452Y-18040976D01*
X6327500Y-18050500D01*
X6337024Y-18060024D01*
X6346548Y-18079071D01*
X6356071Y-18117167D01*
X6356071Y-18164786D01*
X6346548Y-18202881D01*
X6337024Y-18221929D01*
X6327500Y-18231452D01*
X6308452Y-18240976D01*
X6289405Y-18240976D01*
X6270357Y-18231452D01*
X6260833Y-18221929D01*
X6251309Y-18202881D01*
X6241786Y-18164786D01*
X6241786Y-18117167D01*
X6251309Y-18079071D01*
X6260833Y-18060024D01*
X6270357Y-18050500D01*
X6289405Y-18040976D01*
X6479881Y-18040976D02*
X6498928Y-18040976D01*
X6517976Y-18050500D01*
X6527500Y-18060024D01*
X6537024Y-18079071D01*
X6546548Y-18117167D01*
X6546548Y-18164786D01*
X6537024Y-18202881D01*
X6527500Y-18221929D01*
X6517976Y-18231452D01*
X6498928Y-18240976D01*
X6479881Y-18240976D01*
X6460833Y-18231452D01*
X6451309Y-18221929D01*
X6441786Y-18202881D01*
X6432262Y-18164786D01*
X6432262Y-18117167D01*
X6441786Y-18079071D01*
X6451309Y-18060024D01*
X6460833Y-18050500D01*
X6479881Y-18040976D01*
X6632262Y-18240976D02*
X6632262Y-18107643D01*
X6632262Y-18126690D02*
X6641786Y-18117167D01*
X6660833Y-18107643D01*
X6689405Y-18107643D01*
X6708452Y-18117167D01*
X6717976Y-18136214D01*
X6717976Y-18240976D01*
X6717976Y-18136214D02*
X6727500Y-18117167D01*
X6746548Y-18107643D01*
X6775119Y-18107643D01*
X6794167Y-18117167D01*
X6803690Y-18136214D01*
X6803690Y-18240976D01*
X6898928Y-18240976D02*
X6898928Y-18107643D01*
X6898928Y-18126690D02*
X6908452Y-18117167D01*
X6927500Y-18107643D01*
X6956071Y-18107643D01*
X6975119Y-18117167D01*
X6984643Y-18136214D01*
X6984643Y-18240976D01*
X6984643Y-18136214D02*
X6994167Y-18117167D01*
X7013214Y-18107643D01*
X7041786Y-18107643D01*
X7060833Y-18117167D01*
X7070357Y-18136214D01*
X7070357Y-18240976D01*
X7460833Y-18031452D02*
X7289405Y-18288595D01*
X7717976Y-18040976D02*
X7737024Y-18040976D01*
X7756071Y-18050500D01*
X7765595Y-18060024D01*
X7775119Y-18079071D01*
X7784643Y-18117167D01*
X7784643Y-18164786D01*
X7775119Y-18202881D01*
X7765595Y-18221929D01*
X7756071Y-18231452D01*
X7737024Y-18240976D01*
X7717976Y-18240976D01*
X7698928Y-18231452D01*
X7689405Y-18221929D01*
X7679881Y-18202881D01*
X7670357Y-18164786D01*
X7670357Y-18117167D01*
X7679881Y-18079071D01*
X7689405Y-18060024D01*
X7698928Y-18050500D01*
X7717976Y-18040976D01*
X7870357Y-18221929D02*
X7879881Y-18231452D01*
X7870357Y-18240976D01*
X7860833Y-18231452D01*
X7870357Y-18221929D01*
X7870357Y-18240976D01*
X8003690Y-18040976D02*
X8022738Y-18040976D01*
X8041786Y-18050500D01*
X8051309Y-18060024D01*
X8060833Y-18079071D01*
X8070357Y-18117167D01*
X8070357Y-18164786D01*
X8060833Y-18202881D01*
X8051309Y-18221929D01*
X8041786Y-18231452D01*
X8022738Y-18240976D01*
X8003690Y-18240976D01*
X7984643Y-18231452D01*
X7975119Y-18221929D01*
X7965595Y-18202881D01*
X7956071Y-18164786D01*
X7956071Y-18117167D01*
X7965595Y-18079071D01*
X7975119Y-18060024D01*
X7984643Y-18050500D01*
X8003690Y-18040976D01*
X8137024Y-18040976D02*
X8260833Y-18040976D01*
X8194167Y-18117167D01*
X8222738Y-18117167D01*
X8241786Y-18126690D01*
X8251309Y-18136214D01*
X8260833Y-18155262D01*
X8260833Y-18202881D01*
X8251309Y-18221929D01*
X8241786Y-18231452D01*
X8222738Y-18240976D01*
X8165595Y-18240976D01*
X8146548Y-18231452D01*
X8137024Y-18221929D01*
X8356071Y-18240976D02*
X8394167Y-18240976D01*
X8413214Y-18231452D01*
X8422738Y-18221929D01*
X8441786Y-18193357D01*
X8451310Y-18155262D01*
X8451310Y-18079071D01*
X8441786Y-18060024D01*
X8432262Y-18050500D01*
X8413214Y-18040976D01*
X8375119Y-18040976D01*
X8356071Y-18050500D01*
X8346548Y-18060024D01*
X8337024Y-18079071D01*
X8337024Y-18126690D01*
X8346548Y-18145738D01*
X8356071Y-18155262D01*
X8375119Y-18164786D01*
X8413214Y-18164786D01*
X8432262Y-18155262D01*
X8441786Y-18145738D01*
X8451310Y-18126690D01*
X8622738Y-18107643D02*
X8622738Y-18240976D01*
X8575119Y-18031452D02*
X8527500Y-18174310D01*
X8651310Y-18174310D01*
X8717976Y-18040976D02*
X8717976Y-18079071D01*
X8794167Y-18040976D02*
X8794167Y-18079071D01*
X9089405Y-18317167D02*
X9079881Y-18307643D01*
X9060833Y-18279071D01*
X9051310Y-18260024D01*
X9041786Y-18231452D01*
X9032262Y-18183833D01*
X9032262Y-18145738D01*
X9041786Y-18098119D01*
X9051310Y-18069548D01*
X9060833Y-18050500D01*
X9079881Y-18021929D01*
X9089405Y-18012405D01*
X9146548Y-18040976D02*
X9270357Y-18040976D01*
X9203690Y-18117167D01*
X9232262Y-18117167D01*
X9251310Y-18126690D01*
X9260833Y-18136214D01*
X9270357Y-18155262D01*
X9270357Y-18202881D01*
X9260833Y-18221929D01*
X9251310Y-18231452D01*
X9232262Y-18240976D01*
X9175119Y-18240976D01*
X9156071Y-18231452D01*
X9146548Y-18221929D01*
X9508452Y-18240976D02*
X9508452Y-18040976D01*
X9594167Y-18240976D02*
X9594167Y-18136214D01*
X9584643Y-18117167D01*
X9565595Y-18107643D01*
X9537024Y-18107643D01*
X9517976Y-18117167D01*
X9508452Y-18126690D01*
X9717976Y-18240976D02*
X9698929Y-18231452D01*
X9689405Y-18221929D01*
X9679881Y-18202881D01*
X9679881Y-18145738D01*
X9689405Y-18126690D01*
X9698929Y-18117167D01*
X9717976Y-18107643D01*
X9746548Y-18107643D01*
X9765595Y-18117167D01*
X9775119Y-18126690D01*
X9784643Y-18145738D01*
X9784643Y-18202881D01*
X9775119Y-18221929D01*
X9765595Y-18231452D01*
X9746548Y-18240976D01*
X9717976Y-18240976D01*
X9898929Y-18240976D02*
X9879881Y-18231452D01*
X9870357Y-18212405D01*
X9870357Y-18040976D01*
X10051310Y-18231452D02*
X10032262Y-18240976D01*
X9994167Y-18240976D01*
X9975119Y-18231452D01*
X9965595Y-18212405D01*
X9965595Y-18136214D01*
X9975119Y-18117167D01*
X9994167Y-18107643D01*
X10032262Y-18107643D01*
X10051310Y-18117167D01*
X10060833Y-18136214D01*
X10060833Y-18155262D01*
X9965595Y-18174310D01*
X10137024Y-18231452D02*
X10156071Y-18240976D01*
X10194167Y-18240976D01*
X10213214Y-18231452D01*
X10222738Y-18212405D01*
X10222738Y-18202881D01*
X10213214Y-18183833D01*
X10194167Y-18174310D01*
X10165595Y-18174310D01*
X10146548Y-18164786D01*
X10137024Y-18145738D01*
X10137024Y-18136214D01*
X10146548Y-18117167D01*
X10165595Y-18107643D01*
X10194167Y-18107643D01*
X10213214Y-18117167D01*
X10289405Y-18317167D02*
X10298929Y-18307643D01*
X10317976Y-18279071D01*
X10327500Y-18260024D01*
X10337024Y-18231452D01*
X10346548Y-18183833D01*
X10346548Y-18145738D01*
X10337024Y-18098119D01*
X10327500Y-18069548D01*
X10317976Y-18050500D01*
X10298929Y-18021929D01*
X10289405Y-18012405D01*
D18*
X5407500Y-18359500D02*
X5517500Y-18469500D01*
X5517500Y-18359500D02*
X5407500Y-18469500D01*
X5462500Y-18469500D02*
X5517500Y-18414500D01*
X5462500Y-18359500D01*
X5407500Y-18414500D01*
X5462500Y-18469500D01*
D11*
X5879881Y-18504976D02*
X5765595Y-18504976D01*
X5822738Y-18504976D02*
X5822738Y-18304976D01*
X5803690Y-18333548D01*
X5784643Y-18352595D01*
X5765595Y-18362119D01*
X5965595Y-18485929D02*
X5975119Y-18495452D01*
X5965595Y-18504976D01*
X5956071Y-18495452D01*
X5965595Y-18485929D01*
X5965595Y-18504976D01*
X6165595Y-18504976D02*
X6051309Y-18504976D01*
X6108452Y-18504976D02*
X6108452Y-18304976D01*
X6089405Y-18333548D01*
X6070357Y-18352595D01*
X6051309Y-18362119D01*
X6289405Y-18304976D02*
X6308452Y-18304976D01*
X6327500Y-18314500D01*
X6337024Y-18324024D01*
X6346548Y-18343071D01*
X6356071Y-18381167D01*
X6356071Y-18428786D01*
X6346548Y-18466881D01*
X6337024Y-18485929D01*
X6327500Y-18495452D01*
X6308452Y-18504976D01*
X6289405Y-18504976D01*
X6270357Y-18495452D01*
X6260833Y-18485929D01*
X6251309Y-18466881D01*
X6241786Y-18428786D01*
X6241786Y-18381167D01*
X6251309Y-18343071D01*
X6260833Y-18324024D01*
X6270357Y-18314500D01*
X6289405Y-18304976D01*
X6479881Y-18304976D02*
X6498928Y-18304976D01*
X6517976Y-18314500D01*
X6527500Y-18324024D01*
X6537024Y-18343071D01*
X6546548Y-18381167D01*
X6546548Y-18428786D01*
X6537024Y-18466881D01*
X6527500Y-18485929D01*
X6517976Y-18495452D01*
X6498928Y-18504976D01*
X6479881Y-18504976D01*
X6460833Y-18495452D01*
X6451309Y-18485929D01*
X6441786Y-18466881D01*
X6432262Y-18428786D01*
X6432262Y-18381167D01*
X6441786Y-18343071D01*
X6451309Y-18324024D01*
X6460833Y-18314500D01*
X6479881Y-18304976D01*
X6632262Y-18504976D02*
X6632262Y-18371643D01*
X6632262Y-18390690D02*
X6641786Y-18381167D01*
X6660833Y-18371643D01*
X6689405Y-18371643D01*
X6708452Y-18381167D01*
X6717976Y-18400214D01*
X6717976Y-18504976D01*
X6717976Y-18400214D02*
X6727500Y-18381167D01*
X6746548Y-18371643D01*
X6775119Y-18371643D01*
X6794167Y-18381167D01*
X6803690Y-18400214D01*
X6803690Y-18504976D01*
X6898928Y-18504976D02*
X6898928Y-18371643D01*
X6898928Y-18390690D02*
X6908452Y-18381167D01*
X6927500Y-18371643D01*
X6956071Y-18371643D01*
X6975119Y-18381167D01*
X6984643Y-18400214D01*
X6984643Y-18504976D01*
X6984643Y-18400214D02*
X6994167Y-18381167D01*
X7013214Y-18371643D01*
X7041786Y-18371643D01*
X7060833Y-18381167D01*
X7070357Y-18400214D01*
X7070357Y-18504976D01*
X7460833Y-18295452D02*
X7289405Y-18552595D01*
X7717976Y-18304976D02*
X7737024Y-18304976D01*
X7756071Y-18314500D01*
X7765595Y-18324024D01*
X7775119Y-18343071D01*
X7784643Y-18381167D01*
X7784643Y-18428786D01*
X7775119Y-18466881D01*
X7765595Y-18485929D01*
X7756071Y-18495452D01*
X7737024Y-18504976D01*
X7717976Y-18504976D01*
X7698928Y-18495452D01*
X7689405Y-18485929D01*
X7679881Y-18466881D01*
X7670357Y-18428786D01*
X7670357Y-18381167D01*
X7679881Y-18343071D01*
X7689405Y-18324024D01*
X7698928Y-18314500D01*
X7717976Y-18304976D01*
X7870357Y-18485929D02*
X7879881Y-18495452D01*
X7870357Y-18504976D01*
X7860833Y-18495452D01*
X7870357Y-18485929D01*
X7870357Y-18504976D01*
X8003690Y-18304976D02*
X8022738Y-18304976D01*
X8041786Y-18314500D01*
X8051309Y-18324024D01*
X8060833Y-18343071D01*
X8070357Y-18381167D01*
X8070357Y-18428786D01*
X8060833Y-18466881D01*
X8051309Y-18485929D01*
X8041786Y-18495452D01*
X8022738Y-18504976D01*
X8003690Y-18504976D01*
X7984643Y-18495452D01*
X7975119Y-18485929D01*
X7965595Y-18466881D01*
X7956071Y-18428786D01*
X7956071Y-18381167D01*
X7965595Y-18343071D01*
X7975119Y-18324024D01*
X7984643Y-18314500D01*
X8003690Y-18304976D01*
X8241786Y-18371643D02*
X8241786Y-18504976D01*
X8194167Y-18295452D02*
X8146548Y-18438310D01*
X8270357Y-18438310D01*
X8327500Y-18304976D02*
X8451310Y-18304976D01*
X8384643Y-18381167D01*
X8413214Y-18381167D01*
X8432262Y-18390690D01*
X8441786Y-18400214D01*
X8451310Y-18419262D01*
X8451310Y-18466881D01*
X8441786Y-18485929D01*
X8432262Y-18495452D01*
X8413214Y-18504976D01*
X8356071Y-18504976D01*
X8337024Y-18495452D01*
X8327500Y-18485929D01*
X8517976Y-18304976D02*
X8641786Y-18304976D01*
X8575119Y-18381167D01*
X8603690Y-18381167D01*
X8622738Y-18390690D01*
X8632262Y-18400214D01*
X8641786Y-18419262D01*
X8641786Y-18466881D01*
X8632262Y-18485929D01*
X8622738Y-18495452D01*
X8603690Y-18504976D01*
X8546548Y-18504976D01*
X8527500Y-18495452D01*
X8517976Y-18485929D01*
X8717976Y-18304976D02*
X8717976Y-18343071D01*
X8794167Y-18304976D02*
X8794167Y-18343071D01*
X9089405Y-18581167D02*
X9079881Y-18571643D01*
X9060833Y-18543071D01*
X9051310Y-18524024D01*
X9041786Y-18495452D01*
X9032262Y-18447833D01*
X9032262Y-18409738D01*
X9041786Y-18362119D01*
X9051310Y-18333548D01*
X9060833Y-18314500D01*
X9079881Y-18285929D01*
X9089405Y-18276405D01*
X9156071Y-18324024D02*
X9165595Y-18314500D01*
X9184643Y-18304976D01*
X9232262Y-18304976D01*
X9251310Y-18314500D01*
X9260833Y-18324024D01*
X9270357Y-18343071D01*
X9270357Y-18362119D01*
X9260833Y-18390690D01*
X9146548Y-18504976D01*
X9270357Y-18504976D01*
X9384643Y-18390690D02*
X9365595Y-18381167D01*
X9356071Y-18371643D01*
X9346548Y-18352595D01*
X9346548Y-18343071D01*
X9356071Y-18324024D01*
X9365595Y-18314500D01*
X9384643Y-18304976D01*
X9422738Y-18304976D01*
X9441786Y-18314500D01*
X9451310Y-18324024D01*
X9460833Y-18343071D01*
X9460833Y-18352595D01*
X9451310Y-18371643D01*
X9441786Y-18381167D01*
X9422738Y-18390690D01*
X9384643Y-18390690D01*
X9365595Y-18400214D01*
X9356071Y-18409738D01*
X9346548Y-18428786D01*
X9346548Y-18466881D01*
X9356071Y-18485929D01*
X9365595Y-18495452D01*
X9384643Y-18504976D01*
X9422738Y-18504976D01*
X9441786Y-18495452D01*
X9451310Y-18485929D01*
X9460833Y-18466881D01*
X9460833Y-18428786D01*
X9451310Y-18409738D01*
X9441786Y-18400214D01*
X9422738Y-18390690D01*
X9698929Y-18504976D02*
X9698929Y-18304976D01*
X9784643Y-18504976D02*
X9784643Y-18400214D01*
X9775119Y-18381167D01*
X9756071Y-18371643D01*
X9727500Y-18371643D01*
X9708452Y-18381167D01*
X9698929Y-18390690D01*
X9908452Y-18504976D02*
X9889405Y-18495452D01*
X9879881Y-18485929D01*
X9870357Y-18466881D01*
X9870357Y-18409738D01*
X9879881Y-18390690D01*
X9889405Y-18381167D01*
X9908452Y-18371643D01*
X9937024Y-18371643D01*
X9956071Y-18381167D01*
X9965595Y-18390690D01*
X9975119Y-18409738D01*
X9975119Y-18466881D01*
X9965595Y-18485929D01*
X9956071Y-18495452D01*
X9937024Y-18504976D01*
X9908452Y-18504976D01*
X10089405Y-18504976D02*
X10070357Y-18495452D01*
X10060833Y-18476405D01*
X10060833Y-18304976D01*
X10241786Y-18495452D02*
X10222738Y-18504976D01*
X10184643Y-18504976D01*
X10165595Y-18495452D01*
X10156071Y-18476405D01*
X10156071Y-18400214D01*
X10165595Y-18381167D01*
X10184643Y-18371643D01*
X10222738Y-18371643D01*
X10241786Y-18381167D01*
X10251310Y-18400214D01*
X10251310Y-18419262D01*
X10156071Y-18438310D01*
X10327500Y-18495452D02*
X10346548Y-18504976D01*
X10384643Y-18504976D01*
X10403690Y-18495452D01*
X10413214Y-18476405D01*
X10413214Y-18466881D01*
X10403690Y-18447833D01*
X10384643Y-18438310D01*
X10356071Y-18438310D01*
X10337024Y-18428786D01*
X10327500Y-18409738D01*
X10327500Y-18400214D01*
X10337024Y-18381167D01*
X10356071Y-18371643D01*
X10384643Y-18371643D01*
X10403690Y-18381167D01*
X10479881Y-18581167D02*
X10489405Y-18571643D01*
X10508452Y-18543071D01*
X10517976Y-18524024D01*
X10527500Y-18495452D01*
X10537024Y-18447833D01*
X10537024Y-18409738D01*
X10527500Y-18362119D01*
X10517976Y-18333548D01*
X10508452Y-18314500D01*
X10489405Y-18285929D01*
X10479881Y-18276405D01*
D19*
X5457500Y-18618500D02*
X5457500Y-18738500D01*
X5397500Y-18678500D02*
X5517500Y-18678500D01*
X5517500Y-18678500D02*
G75*
G03*
X5517500Y-18678500I-60000J0D01*
G01*
D11*
X5879881Y-18768976D02*
X5765595Y-18768976D01*
X5822738Y-18768976D02*
X5822738Y-18568976D01*
X5803690Y-18597548D01*
X5784643Y-18616595D01*
X5765595Y-18626119D01*
X5965595Y-18749929D02*
X5975119Y-18759452D01*
X5965595Y-18768976D01*
X5956071Y-18759452D01*
X5965595Y-18749929D01*
X5965595Y-18768976D01*
X6051309Y-18588024D02*
X6060833Y-18578500D01*
X6079881Y-18568976D01*
X6127500Y-18568976D01*
X6146548Y-18578500D01*
X6156071Y-18588024D01*
X6165595Y-18607071D01*
X6165595Y-18626119D01*
X6156071Y-18654690D01*
X6041786Y-18768976D01*
X6165595Y-18768976D01*
X6289405Y-18568976D02*
X6308452Y-18568976D01*
X6327500Y-18578500D01*
X6337024Y-18588024D01*
X6346548Y-18607071D01*
X6356071Y-18645167D01*
X6356071Y-18692786D01*
X6346548Y-18730881D01*
X6337024Y-18749929D01*
X6327500Y-18759452D01*
X6308452Y-18768976D01*
X6289405Y-18768976D01*
X6270357Y-18759452D01*
X6260833Y-18749929D01*
X6251309Y-18730881D01*
X6241786Y-18692786D01*
X6241786Y-18645167D01*
X6251309Y-18607071D01*
X6260833Y-18588024D01*
X6270357Y-18578500D01*
X6289405Y-18568976D01*
X6479881Y-18568976D02*
X6498928Y-18568976D01*
X6517976Y-18578500D01*
X6527500Y-18588024D01*
X6537024Y-18607071D01*
X6546548Y-18645167D01*
X6546548Y-18692786D01*
X6537024Y-18730881D01*
X6527500Y-18749929D01*
X6517976Y-18759452D01*
X6498928Y-18768976D01*
X6479881Y-18768976D01*
X6460833Y-18759452D01*
X6451309Y-18749929D01*
X6441786Y-18730881D01*
X6432262Y-18692786D01*
X6432262Y-18645167D01*
X6441786Y-18607071D01*
X6451309Y-18588024D01*
X6460833Y-18578500D01*
X6479881Y-18568976D01*
X6632262Y-18768976D02*
X6632262Y-18635643D01*
X6632262Y-18654690D02*
X6641786Y-18645167D01*
X6660833Y-18635643D01*
X6689405Y-18635643D01*
X6708452Y-18645167D01*
X6717976Y-18664214D01*
X6717976Y-18768976D01*
X6717976Y-18664214D02*
X6727500Y-18645167D01*
X6746548Y-18635643D01*
X6775119Y-18635643D01*
X6794167Y-18645167D01*
X6803690Y-18664214D01*
X6803690Y-18768976D01*
X6898928Y-18768976D02*
X6898928Y-18635643D01*
X6898928Y-18654690D02*
X6908452Y-18645167D01*
X6927500Y-18635643D01*
X6956071Y-18635643D01*
X6975119Y-18645167D01*
X6984643Y-18664214D01*
X6984643Y-18768976D01*
X6984643Y-18664214D02*
X6994167Y-18645167D01*
X7013214Y-18635643D01*
X7041786Y-18635643D01*
X7060833Y-18645167D01*
X7070357Y-18664214D01*
X7070357Y-18768976D01*
X7460833Y-18559452D02*
X7289405Y-18816595D01*
X7717976Y-18568976D02*
X7737024Y-18568976D01*
X7756071Y-18578500D01*
X7765595Y-18588024D01*
X7775119Y-18607071D01*
X7784643Y-18645167D01*
X7784643Y-18692786D01*
X7775119Y-18730881D01*
X7765595Y-18749929D01*
X7756071Y-18759452D01*
X7737024Y-18768976D01*
X7717976Y-18768976D01*
X7698928Y-18759452D01*
X7689405Y-18749929D01*
X7679881Y-18730881D01*
X7670357Y-18692786D01*
X7670357Y-18645167D01*
X7679881Y-18607071D01*
X7689405Y-18588024D01*
X7698928Y-18578500D01*
X7717976Y-18568976D01*
X7870357Y-18749929D02*
X7879881Y-18759452D01*
X7870357Y-18768976D01*
X7860833Y-18759452D01*
X7870357Y-18749929D01*
X7870357Y-18768976D01*
X8003690Y-18568976D02*
X8022738Y-18568976D01*
X8041786Y-18578500D01*
X8051309Y-18588024D01*
X8060833Y-18607071D01*
X8070357Y-18645167D01*
X8070357Y-18692786D01*
X8060833Y-18730881D01*
X8051309Y-18749929D01*
X8041786Y-18759452D01*
X8022738Y-18768976D01*
X8003690Y-18768976D01*
X7984643Y-18759452D01*
X7975119Y-18749929D01*
X7965595Y-18730881D01*
X7956071Y-18692786D01*
X7956071Y-18645167D01*
X7965595Y-18607071D01*
X7975119Y-18588024D01*
X7984643Y-18578500D01*
X8003690Y-18568976D01*
X8241786Y-18635643D02*
X8241786Y-18768976D01*
X8194167Y-18559452D02*
X8146548Y-18702310D01*
X8270357Y-18702310D01*
X8327500Y-18568976D02*
X8460833Y-18568976D01*
X8375119Y-18768976D01*
X8527500Y-18588024D02*
X8537024Y-18578500D01*
X8556071Y-18568976D01*
X8603690Y-18568976D01*
X8622738Y-18578500D01*
X8632262Y-18588024D01*
X8641786Y-18607071D01*
X8641786Y-18626119D01*
X8632262Y-18654690D01*
X8517976Y-18768976D01*
X8641786Y-18768976D01*
X8717976Y-18568976D02*
X8717976Y-18607071D01*
X8794167Y-18568976D02*
X8794167Y-18607071D01*
X9089405Y-18845167D02*
X9079881Y-18835643D01*
X9060833Y-18807071D01*
X9051310Y-18788024D01*
X9041786Y-18759452D01*
X9032262Y-18711833D01*
X9032262Y-18673738D01*
X9041786Y-18626119D01*
X9051310Y-18597548D01*
X9060833Y-18578500D01*
X9079881Y-18549929D01*
X9089405Y-18540405D01*
X9251310Y-18635643D02*
X9251310Y-18768976D01*
X9203690Y-18559452D02*
X9156071Y-18702310D01*
X9279881Y-18702310D01*
X9384643Y-18654690D02*
X9365595Y-18645167D01*
X9356071Y-18635643D01*
X9346548Y-18616595D01*
X9346548Y-18607071D01*
X9356071Y-18588024D01*
X9365595Y-18578500D01*
X9384643Y-18568976D01*
X9422738Y-18568976D01*
X9441786Y-18578500D01*
X9451310Y-18588024D01*
X9460833Y-18607071D01*
X9460833Y-18616595D01*
X9451310Y-18635643D01*
X9441786Y-18645167D01*
X9422738Y-18654690D01*
X9384643Y-18654690D01*
X9365595Y-18664214D01*
X9356071Y-18673738D01*
X9346548Y-18692786D01*
X9346548Y-18730881D01*
X9356071Y-18749929D01*
X9365595Y-18759452D01*
X9384643Y-18768976D01*
X9422738Y-18768976D01*
X9441786Y-18759452D01*
X9451310Y-18749929D01*
X9460833Y-18730881D01*
X9460833Y-18692786D01*
X9451310Y-18673738D01*
X9441786Y-18664214D01*
X9422738Y-18654690D01*
X9698929Y-18768976D02*
X9698929Y-18568976D01*
X9784643Y-18768976D02*
X9784643Y-18664214D01*
X9775119Y-18645167D01*
X9756071Y-18635643D01*
X9727500Y-18635643D01*
X9708452Y-18645167D01*
X9698929Y-18654690D01*
X9908452Y-18768976D02*
X9889405Y-18759452D01*
X9879881Y-18749929D01*
X9870357Y-18730881D01*
X9870357Y-18673738D01*
X9879881Y-18654690D01*
X9889405Y-18645167D01*
X9908452Y-18635643D01*
X9937024Y-18635643D01*
X9956071Y-18645167D01*
X9965595Y-18654690D01*
X9975119Y-18673738D01*
X9975119Y-18730881D01*
X9965595Y-18749929D01*
X9956071Y-18759452D01*
X9937024Y-18768976D01*
X9908452Y-18768976D01*
X10089405Y-18768976D02*
X10070357Y-18759452D01*
X10060833Y-18740405D01*
X10060833Y-18568976D01*
X10241786Y-18759452D02*
X10222738Y-18768976D01*
X10184643Y-18768976D01*
X10165595Y-18759452D01*
X10156071Y-18740405D01*
X10156071Y-18664214D01*
X10165595Y-18645167D01*
X10184643Y-18635643D01*
X10222738Y-18635643D01*
X10241786Y-18645167D01*
X10251310Y-18664214D01*
X10251310Y-18683262D01*
X10156071Y-18702310D01*
X10327500Y-18759452D02*
X10346548Y-18768976D01*
X10384643Y-18768976D01*
X10403690Y-18759452D01*
X10413214Y-18740405D01*
X10413214Y-18730881D01*
X10403690Y-18711833D01*
X10384643Y-18702310D01*
X10356071Y-18702310D01*
X10337024Y-18692786D01*
X10327500Y-18673738D01*
X10327500Y-18664214D01*
X10337024Y-18645167D01*
X10356071Y-18635643D01*
X10384643Y-18635643D01*
X10403690Y-18645167D01*
X10479881Y-18845167D02*
X10489405Y-18835643D01*
X10508452Y-18807071D01*
X10517976Y-18788024D01*
X10527500Y-18759452D01*
X10537024Y-18711833D01*
X10537024Y-18673738D01*
X10527500Y-18626119D01*
X10517976Y-18597548D01*
X10508452Y-18578500D01*
X10489405Y-18549929D01*
X10479881Y-18540405D01*
D20*
X5496998Y-18991998D02*
X5496998Y-18893002D01*
X5398002Y-18893002D01*
X5398002Y-18991998D01*
X5496998Y-18991998D01*
X5517500Y-18942500D02*
G75*
G03*
X5517500Y-18942500I-70000J0D01*
G01*
D11*
X5879881Y-19032976D02*
X5765595Y-19032976D01*
X5822738Y-19032976D02*
X5822738Y-18832976D01*
X5803690Y-18861548D01*
X5784643Y-18880595D01*
X5765595Y-18890119D01*
X5965595Y-19013929D02*
X5975119Y-19023452D01*
X5965595Y-19032976D01*
X5956071Y-19023452D01*
X5965595Y-19013929D01*
X5965595Y-19032976D01*
X6146548Y-18899643D02*
X6146548Y-19032976D01*
X6098928Y-18823452D02*
X6051309Y-18966310D01*
X6175119Y-18966310D01*
X6289405Y-18832976D02*
X6308452Y-18832976D01*
X6327500Y-18842500D01*
X6337024Y-18852024D01*
X6346548Y-18871071D01*
X6356071Y-18909167D01*
X6356071Y-18956786D01*
X6346548Y-18994881D01*
X6337024Y-19013929D01*
X6327500Y-19023452D01*
X6308452Y-19032976D01*
X6289405Y-19032976D01*
X6270357Y-19023452D01*
X6260833Y-19013929D01*
X6251309Y-18994881D01*
X6241786Y-18956786D01*
X6241786Y-18909167D01*
X6251309Y-18871071D01*
X6260833Y-18852024D01*
X6270357Y-18842500D01*
X6289405Y-18832976D01*
X6479881Y-18832976D02*
X6498928Y-18832976D01*
X6517976Y-18842500D01*
X6527500Y-18852024D01*
X6537024Y-18871071D01*
X6546548Y-18909167D01*
X6546548Y-18956786D01*
X6537024Y-18994881D01*
X6527500Y-19013929D01*
X6517976Y-19023452D01*
X6498928Y-19032976D01*
X6479881Y-19032976D01*
X6460833Y-19023452D01*
X6451309Y-19013929D01*
X6441786Y-18994881D01*
X6432262Y-18956786D01*
X6432262Y-18909167D01*
X6441786Y-18871071D01*
X6451309Y-18852024D01*
X6460833Y-18842500D01*
X6479881Y-18832976D01*
X6632262Y-19032976D02*
X6632262Y-18899643D01*
X6632262Y-18918690D02*
X6641786Y-18909167D01*
X6660833Y-18899643D01*
X6689405Y-18899643D01*
X6708452Y-18909167D01*
X6717976Y-18928214D01*
X6717976Y-19032976D01*
X6717976Y-18928214D02*
X6727500Y-18909167D01*
X6746548Y-18899643D01*
X6775119Y-18899643D01*
X6794167Y-18909167D01*
X6803690Y-18928214D01*
X6803690Y-19032976D01*
X6898928Y-19032976D02*
X6898928Y-18899643D01*
X6898928Y-18918690D02*
X6908452Y-18909167D01*
X6927500Y-18899643D01*
X6956071Y-18899643D01*
X6975119Y-18909167D01*
X6984643Y-18928214D01*
X6984643Y-19032976D01*
X6984643Y-18928214D02*
X6994167Y-18909167D01*
X7013214Y-18899643D01*
X7041786Y-18899643D01*
X7060833Y-18909167D01*
X7070357Y-18928214D01*
X7070357Y-19032976D01*
X7460833Y-18823452D02*
X7289405Y-19080595D01*
X7717976Y-18832976D02*
X7737024Y-18832976D01*
X7756071Y-18842500D01*
X7765595Y-18852024D01*
X7775119Y-18871071D01*
X7784643Y-18909167D01*
X7784643Y-18956786D01*
X7775119Y-18994881D01*
X7765595Y-19013929D01*
X7756071Y-19023452D01*
X7737024Y-19032976D01*
X7717976Y-19032976D01*
X7698928Y-19023452D01*
X7689405Y-19013929D01*
X7679881Y-18994881D01*
X7670357Y-18956786D01*
X7670357Y-18909167D01*
X7679881Y-18871071D01*
X7689405Y-18852024D01*
X7698928Y-18842500D01*
X7717976Y-18832976D01*
X7870357Y-19013929D02*
X7879881Y-19023452D01*
X7870357Y-19032976D01*
X7860833Y-19023452D01*
X7870357Y-19013929D01*
X7870357Y-19032976D01*
X8003690Y-18832976D02*
X8022738Y-18832976D01*
X8041786Y-18842500D01*
X8051309Y-18852024D01*
X8060833Y-18871071D01*
X8070357Y-18909167D01*
X8070357Y-18956786D01*
X8060833Y-18994881D01*
X8051309Y-19013929D01*
X8041786Y-19023452D01*
X8022738Y-19032976D01*
X8003690Y-19032976D01*
X7984643Y-19023452D01*
X7975119Y-19013929D01*
X7965595Y-18994881D01*
X7956071Y-18956786D01*
X7956071Y-18909167D01*
X7965595Y-18871071D01*
X7975119Y-18852024D01*
X7984643Y-18842500D01*
X8003690Y-18832976D01*
X8251309Y-18832976D02*
X8156071Y-18832976D01*
X8146548Y-18928214D01*
X8156071Y-18918690D01*
X8175119Y-18909167D01*
X8222738Y-18909167D01*
X8241786Y-18918690D01*
X8251309Y-18928214D01*
X8260833Y-18947262D01*
X8260833Y-18994881D01*
X8251309Y-19013929D01*
X8241786Y-19023452D01*
X8222738Y-19032976D01*
X8175119Y-19032976D01*
X8156071Y-19023452D01*
X8146548Y-19013929D01*
X8441786Y-18832976D02*
X8346548Y-18832976D01*
X8337024Y-18928214D01*
X8346548Y-18918690D01*
X8365595Y-18909167D01*
X8413214Y-18909167D01*
X8432262Y-18918690D01*
X8441786Y-18928214D01*
X8451310Y-18947262D01*
X8451310Y-18994881D01*
X8441786Y-19013929D01*
X8432262Y-19023452D01*
X8413214Y-19032976D01*
X8365595Y-19032976D01*
X8346548Y-19023452D01*
X8337024Y-19013929D01*
X8641786Y-19032976D02*
X8527500Y-19032976D01*
X8584643Y-19032976D02*
X8584643Y-18832976D01*
X8565595Y-18861548D01*
X8546548Y-18880595D01*
X8527500Y-18890119D01*
X8717976Y-18832976D02*
X8717976Y-18871071D01*
X8794167Y-18832976D02*
X8794167Y-18871071D01*
X9089405Y-19109167D02*
X9079881Y-19099643D01*
X9060833Y-19071071D01*
X9051310Y-19052024D01*
X9041786Y-19023452D01*
X9032262Y-18975833D01*
X9032262Y-18937738D01*
X9041786Y-18890119D01*
X9051310Y-18861548D01*
X9060833Y-18842500D01*
X9079881Y-18813929D01*
X9089405Y-18804405D01*
X9260833Y-18832976D02*
X9165595Y-18832976D01*
X9156071Y-18928214D01*
X9165595Y-18918690D01*
X9184643Y-18909167D01*
X9232262Y-18909167D01*
X9251310Y-18918690D01*
X9260833Y-18928214D01*
X9270357Y-18947262D01*
X9270357Y-18994881D01*
X9260833Y-19013929D01*
X9251310Y-19023452D01*
X9232262Y-19032976D01*
X9184643Y-19032976D01*
X9165595Y-19023452D01*
X9156071Y-19013929D01*
X9508452Y-19032976D02*
X9508452Y-18832976D01*
X9594167Y-19032976D02*
X9594167Y-18928214D01*
X9584643Y-18909167D01*
X9565595Y-18899643D01*
X9537024Y-18899643D01*
X9517976Y-18909167D01*
X9508452Y-18918690D01*
X9717976Y-19032976D02*
X9698929Y-19023452D01*
X9689405Y-19013929D01*
X9679881Y-18994881D01*
X9679881Y-18937738D01*
X9689405Y-18918690D01*
X9698929Y-18909167D01*
X9717976Y-18899643D01*
X9746548Y-18899643D01*
X9765595Y-18909167D01*
X9775119Y-18918690D01*
X9784643Y-18937738D01*
X9784643Y-18994881D01*
X9775119Y-19013929D01*
X9765595Y-19023452D01*
X9746548Y-19032976D01*
X9717976Y-19032976D01*
X9898929Y-19032976D02*
X9879881Y-19023452D01*
X9870357Y-19004405D01*
X9870357Y-18832976D01*
X10051310Y-19023452D02*
X10032262Y-19032976D01*
X9994167Y-19032976D01*
X9975119Y-19023452D01*
X9965595Y-19004405D01*
X9965595Y-18928214D01*
X9975119Y-18909167D01*
X9994167Y-18899643D01*
X10032262Y-18899643D01*
X10051310Y-18909167D01*
X10060833Y-18928214D01*
X10060833Y-18947262D01*
X9965595Y-18966310D01*
X10137024Y-19023452D02*
X10156071Y-19032976D01*
X10194167Y-19032976D01*
X10213214Y-19023452D01*
X10222738Y-19004405D01*
X10222738Y-18994881D01*
X10213214Y-18975833D01*
X10194167Y-18966310D01*
X10165595Y-18966310D01*
X10146548Y-18956786D01*
X10137024Y-18937738D01*
X10137024Y-18928214D01*
X10146548Y-18909167D01*
X10165595Y-18899643D01*
X10194167Y-18899643D01*
X10213214Y-18909167D01*
X10289405Y-19109167D02*
X10298929Y-19099643D01*
X10317976Y-19071071D01*
X10327500Y-19052024D01*
X10337024Y-19023452D01*
X10346548Y-18975833D01*
X10346548Y-18937738D01*
X10337024Y-18890119D01*
X10327500Y-18861548D01*
X10317976Y-18842500D01*
X10298929Y-18813929D01*
X10289405Y-18804405D01*
X5417500Y-19306500D02*
X5517500Y-19206500D01*
X5417500Y-19106500D01*
X5317500Y-19206500D01*
X5417500Y-19306500D01*
X5517500Y-19206500D02*
G75*
G03*
X5517500Y-19206500I-100000J0D01*
G01*
X5765595Y-19116024D02*
X5775119Y-19106500D01*
X5794167Y-19096976D01*
X5841786Y-19096976D01*
X5860833Y-19106500D01*
X5870357Y-19116024D01*
X5879881Y-19135071D01*
X5879881Y-19154119D01*
X5870357Y-19182690D01*
X5756071Y-19296976D01*
X5879881Y-19296976D01*
X5965595Y-19277929D02*
X5975119Y-19287452D01*
X5965595Y-19296976D01*
X5956071Y-19287452D01*
X5965595Y-19277929D01*
X5965595Y-19296976D01*
X6051309Y-19116024D02*
X6060833Y-19106500D01*
X6079881Y-19096976D01*
X6127500Y-19096976D01*
X6146548Y-19106500D01*
X6156071Y-19116024D01*
X6165595Y-19135071D01*
X6165595Y-19154119D01*
X6156071Y-19182690D01*
X6041786Y-19296976D01*
X6165595Y-19296976D01*
X6289405Y-19096976D02*
X6308452Y-19096976D01*
X6327500Y-19106500D01*
X6337024Y-19116024D01*
X6346548Y-19135071D01*
X6356071Y-19173167D01*
X6356071Y-19220786D01*
X6346548Y-19258881D01*
X6337024Y-19277929D01*
X6327500Y-19287452D01*
X6308452Y-19296976D01*
X6289405Y-19296976D01*
X6270357Y-19287452D01*
X6260833Y-19277929D01*
X6251309Y-19258881D01*
X6241786Y-19220786D01*
X6241786Y-19173167D01*
X6251309Y-19135071D01*
X6260833Y-19116024D01*
X6270357Y-19106500D01*
X6289405Y-19096976D01*
X6479881Y-19096976D02*
X6498928Y-19096976D01*
X6517976Y-19106500D01*
X6527500Y-19116024D01*
X6537024Y-19135071D01*
X6546548Y-19173167D01*
X6546548Y-19220786D01*
X6537024Y-19258881D01*
X6527500Y-19277929D01*
X6517976Y-19287452D01*
X6498928Y-19296976D01*
X6479881Y-19296976D01*
X6460833Y-19287452D01*
X6451309Y-19277929D01*
X6441786Y-19258881D01*
X6432262Y-19220786D01*
X6432262Y-19173167D01*
X6441786Y-19135071D01*
X6451309Y-19116024D01*
X6460833Y-19106500D01*
X6479881Y-19096976D01*
X6632262Y-19296976D02*
X6632262Y-19163643D01*
X6632262Y-19182690D02*
X6641786Y-19173167D01*
X6660833Y-19163643D01*
X6689405Y-19163643D01*
X6708452Y-19173167D01*
X6717976Y-19192214D01*
X6717976Y-19296976D01*
X6717976Y-19192214D02*
X6727500Y-19173167D01*
X6746548Y-19163643D01*
X6775119Y-19163643D01*
X6794167Y-19173167D01*
X6803690Y-19192214D01*
X6803690Y-19296976D01*
X6898928Y-19296976D02*
X6898928Y-19163643D01*
X6898928Y-19182690D02*
X6908452Y-19173167D01*
X6927500Y-19163643D01*
X6956071Y-19163643D01*
X6975119Y-19173167D01*
X6984643Y-19192214D01*
X6984643Y-19296976D01*
X6984643Y-19192214D02*
X6994167Y-19173167D01*
X7013214Y-19163643D01*
X7041786Y-19163643D01*
X7060833Y-19173167D01*
X7070357Y-19192214D01*
X7070357Y-19296976D01*
X7460833Y-19087452D02*
X7289405Y-19344595D01*
X7717976Y-19096976D02*
X7737024Y-19096976D01*
X7756071Y-19106500D01*
X7765595Y-19116024D01*
X7775119Y-19135071D01*
X7784643Y-19173167D01*
X7784643Y-19220786D01*
X7775119Y-19258881D01*
X7765595Y-19277929D01*
X7756071Y-19287452D01*
X7737024Y-19296976D01*
X7717976Y-19296976D01*
X7698928Y-19287452D01*
X7689405Y-19277929D01*
X7679881Y-19258881D01*
X7670357Y-19220786D01*
X7670357Y-19173167D01*
X7679881Y-19135071D01*
X7689405Y-19116024D01*
X7698928Y-19106500D01*
X7717976Y-19096976D01*
X7870357Y-19277929D02*
X7879881Y-19287452D01*
X7870357Y-19296976D01*
X7860833Y-19287452D01*
X7870357Y-19277929D01*
X7870357Y-19296976D01*
X8003690Y-19096976D02*
X8022738Y-19096976D01*
X8041786Y-19106500D01*
X8051309Y-19116024D01*
X8060833Y-19135071D01*
X8070357Y-19173167D01*
X8070357Y-19220786D01*
X8060833Y-19258881D01*
X8051309Y-19277929D01*
X8041786Y-19287452D01*
X8022738Y-19296976D01*
X8003690Y-19296976D01*
X7984643Y-19287452D01*
X7975119Y-19277929D01*
X7965595Y-19258881D01*
X7956071Y-19220786D01*
X7956071Y-19173167D01*
X7965595Y-19135071D01*
X7975119Y-19116024D01*
X7984643Y-19106500D01*
X8003690Y-19096976D01*
X8184643Y-19182690D02*
X8165595Y-19173167D01*
X8156071Y-19163643D01*
X8146548Y-19144595D01*
X8146548Y-19135071D01*
X8156071Y-19116024D01*
X8165595Y-19106500D01*
X8184643Y-19096976D01*
X8222738Y-19096976D01*
X8241786Y-19106500D01*
X8251309Y-19116024D01*
X8260833Y-19135071D01*
X8260833Y-19144595D01*
X8251309Y-19163643D01*
X8241786Y-19173167D01*
X8222738Y-19182690D01*
X8184643Y-19182690D01*
X8165595Y-19192214D01*
X8156071Y-19201738D01*
X8146548Y-19220786D01*
X8146548Y-19258881D01*
X8156071Y-19277929D01*
X8165595Y-19287452D01*
X8184643Y-19296976D01*
X8222738Y-19296976D01*
X8241786Y-19287452D01*
X8251309Y-19277929D01*
X8260833Y-19258881D01*
X8260833Y-19220786D01*
X8251309Y-19201738D01*
X8241786Y-19192214D01*
X8222738Y-19182690D01*
X8432262Y-19096976D02*
X8394167Y-19096976D01*
X8375119Y-19106500D01*
X8365595Y-19116024D01*
X8346548Y-19144595D01*
X8337024Y-19182690D01*
X8337024Y-19258881D01*
X8346548Y-19277929D01*
X8356071Y-19287452D01*
X8375119Y-19296976D01*
X8413214Y-19296976D01*
X8432262Y-19287452D01*
X8441786Y-19277929D01*
X8451310Y-19258881D01*
X8451310Y-19211262D01*
X8441786Y-19192214D01*
X8432262Y-19182690D01*
X8413214Y-19173167D01*
X8375119Y-19173167D01*
X8356071Y-19182690D01*
X8346548Y-19192214D01*
X8337024Y-19211262D01*
X8622738Y-19096976D02*
X8584643Y-19096976D01*
X8565595Y-19106500D01*
X8556071Y-19116024D01*
X8537024Y-19144595D01*
X8527500Y-19182690D01*
X8527500Y-19258881D01*
X8537024Y-19277929D01*
X8546548Y-19287452D01*
X8565595Y-19296976D01*
X8603690Y-19296976D01*
X8622738Y-19287452D01*
X8632262Y-19277929D01*
X8641786Y-19258881D01*
X8641786Y-19211262D01*
X8632262Y-19192214D01*
X8622738Y-19182690D01*
X8603690Y-19173167D01*
X8565595Y-19173167D01*
X8546548Y-19182690D01*
X8537024Y-19192214D01*
X8527500Y-19211262D01*
X8717976Y-19096976D02*
X8717976Y-19135071D01*
X8794167Y-19096976D02*
X8794167Y-19135071D01*
X9089405Y-19373167D02*
X9079881Y-19363643D01*
X9060833Y-19335071D01*
X9051310Y-19316024D01*
X9041786Y-19287452D01*
X9032262Y-19239833D01*
X9032262Y-19201738D01*
X9041786Y-19154119D01*
X9051310Y-19125548D01*
X9060833Y-19106500D01*
X9079881Y-19077929D01*
X9089405Y-19068405D01*
X9260833Y-19096976D02*
X9165595Y-19096976D01*
X9156071Y-19192214D01*
X9165595Y-19182690D01*
X9184643Y-19173167D01*
X9232262Y-19173167D01*
X9251310Y-19182690D01*
X9260833Y-19192214D01*
X9270357Y-19211262D01*
X9270357Y-19258881D01*
X9260833Y-19277929D01*
X9251310Y-19287452D01*
X9232262Y-19296976D01*
X9184643Y-19296976D01*
X9165595Y-19287452D01*
X9156071Y-19277929D01*
X9508452Y-19296976D02*
X9508452Y-19096976D01*
X9594167Y-19296976D02*
X9594167Y-19192214D01*
X9584643Y-19173167D01*
X9565595Y-19163643D01*
X9537024Y-19163643D01*
X9517976Y-19173167D01*
X9508452Y-19182690D01*
X9717976Y-19296976D02*
X9698929Y-19287452D01*
X9689405Y-19277929D01*
X9679881Y-19258881D01*
X9679881Y-19201738D01*
X9689405Y-19182690D01*
X9698929Y-19173167D01*
X9717976Y-19163643D01*
X9746548Y-19163643D01*
X9765595Y-19173167D01*
X9775119Y-19182690D01*
X9784643Y-19201738D01*
X9784643Y-19258881D01*
X9775119Y-19277929D01*
X9765595Y-19287452D01*
X9746548Y-19296976D01*
X9717976Y-19296976D01*
X9898929Y-19296976D02*
X9879881Y-19287452D01*
X9870357Y-19268405D01*
X9870357Y-19096976D01*
X10051310Y-19287452D02*
X10032262Y-19296976D01*
X9994167Y-19296976D01*
X9975119Y-19287452D01*
X9965595Y-19268405D01*
X9965595Y-19192214D01*
X9975119Y-19173167D01*
X9994167Y-19163643D01*
X10032262Y-19163643D01*
X10051310Y-19173167D01*
X10060833Y-19192214D01*
X10060833Y-19211262D01*
X9965595Y-19230310D01*
X10137024Y-19287452D02*
X10156071Y-19296976D01*
X10194167Y-19296976D01*
X10213214Y-19287452D01*
X10222738Y-19268405D01*
X10222738Y-19258881D01*
X10213214Y-19239833D01*
X10194167Y-19230310D01*
X10165595Y-19230310D01*
X10146548Y-19220786D01*
X10137024Y-19201738D01*
X10137024Y-19192214D01*
X10146548Y-19173167D01*
X10165595Y-19163643D01*
X10194167Y-19163643D01*
X10213214Y-19173167D01*
X10289405Y-19373167D02*
X10298929Y-19363643D01*
X10317976Y-19335071D01*
X10327500Y-19316024D01*
X10337024Y-19287452D01*
X10346548Y-19239833D01*
X10346548Y-19201738D01*
X10337024Y-19154119D01*
X10327500Y-19125548D01*
X10317976Y-19106500D01*
X10298929Y-19077929D01*
X10289405Y-19068405D01*
X5417500Y-19426500D02*
X5417500Y-19626500D01*
X5317500Y-19526500D02*
X5517500Y-19526500D01*
X5488211Y-19597211D02*
X5488211Y-19455789D01*
X5346789Y-19455789D01*
X5346789Y-19597211D01*
X5488211Y-19597211D01*
X5765595Y-19436024D02*
X5775119Y-19426500D01*
X5794167Y-19416976D01*
X5841786Y-19416976D01*
X5860833Y-19426500D01*
X5870357Y-19436024D01*
X5879881Y-19455071D01*
X5879881Y-19474119D01*
X5870357Y-19502690D01*
X5756071Y-19616976D01*
X5879881Y-19616976D01*
X5965595Y-19597929D02*
X5975119Y-19607452D01*
X5965595Y-19616976D01*
X5956071Y-19607452D01*
X5965595Y-19597929D01*
X5965595Y-19616976D01*
X6041786Y-19416976D02*
X6165595Y-19416976D01*
X6098928Y-19493167D01*
X6127500Y-19493167D01*
X6146548Y-19502690D01*
X6156071Y-19512214D01*
X6165595Y-19531262D01*
X6165595Y-19578881D01*
X6156071Y-19597929D01*
X6146548Y-19607452D01*
X6127500Y-19616976D01*
X6070357Y-19616976D01*
X6051309Y-19607452D01*
X6041786Y-19597929D01*
X6232262Y-19416976D02*
X6356071Y-19416976D01*
X6289405Y-19493167D01*
X6317976Y-19493167D01*
X6337024Y-19502690D01*
X6346548Y-19512214D01*
X6356071Y-19531262D01*
X6356071Y-19578881D01*
X6346548Y-19597929D01*
X6337024Y-19607452D01*
X6317976Y-19616976D01*
X6260833Y-19616976D01*
X6241786Y-19607452D01*
X6232262Y-19597929D01*
X6479881Y-19416976D02*
X6498928Y-19416976D01*
X6517976Y-19426500D01*
X6527500Y-19436024D01*
X6537024Y-19455071D01*
X6546548Y-19493167D01*
X6546548Y-19540786D01*
X6537024Y-19578881D01*
X6527500Y-19597929D01*
X6517976Y-19607452D01*
X6498928Y-19616976D01*
X6479881Y-19616976D01*
X6460833Y-19607452D01*
X6451309Y-19597929D01*
X6441786Y-19578881D01*
X6432262Y-19540786D01*
X6432262Y-19493167D01*
X6441786Y-19455071D01*
X6451309Y-19436024D01*
X6460833Y-19426500D01*
X6479881Y-19416976D01*
X6632262Y-19616976D02*
X6632262Y-19483643D01*
X6632262Y-19502690D02*
X6641786Y-19493167D01*
X6660833Y-19483643D01*
X6689405Y-19483643D01*
X6708452Y-19493167D01*
X6717976Y-19512214D01*
X6717976Y-19616976D01*
X6717976Y-19512214D02*
X6727500Y-19493167D01*
X6746548Y-19483643D01*
X6775119Y-19483643D01*
X6794167Y-19493167D01*
X6803690Y-19512214D01*
X6803690Y-19616976D01*
X6898928Y-19616976D02*
X6898928Y-19483643D01*
X6898928Y-19502690D02*
X6908452Y-19493167D01*
X6927500Y-19483643D01*
X6956071Y-19483643D01*
X6975119Y-19493167D01*
X6984643Y-19512214D01*
X6984643Y-19616976D01*
X6984643Y-19512214D02*
X6994167Y-19493167D01*
X7013214Y-19483643D01*
X7041786Y-19483643D01*
X7060833Y-19493167D01*
X7070357Y-19512214D01*
X7070357Y-19616976D01*
X7460833Y-19407452D02*
X7289405Y-19664595D01*
X7717976Y-19416976D02*
X7737024Y-19416976D01*
X7756071Y-19426500D01*
X7765595Y-19436024D01*
X7775119Y-19455071D01*
X7784643Y-19493167D01*
X7784643Y-19540786D01*
X7775119Y-19578881D01*
X7765595Y-19597929D01*
X7756071Y-19607452D01*
X7737024Y-19616976D01*
X7717976Y-19616976D01*
X7698928Y-19607452D01*
X7689405Y-19597929D01*
X7679881Y-19578881D01*
X7670357Y-19540786D01*
X7670357Y-19493167D01*
X7679881Y-19455071D01*
X7689405Y-19436024D01*
X7698928Y-19426500D01*
X7717976Y-19416976D01*
X7870357Y-19597929D02*
X7879881Y-19607452D01*
X7870357Y-19616976D01*
X7860833Y-19607452D01*
X7870357Y-19597929D01*
X7870357Y-19616976D01*
X8003690Y-19416976D02*
X8022738Y-19416976D01*
X8041786Y-19426500D01*
X8051309Y-19436024D01*
X8060833Y-19455071D01*
X8070357Y-19493167D01*
X8070357Y-19540786D01*
X8060833Y-19578881D01*
X8051309Y-19597929D01*
X8041786Y-19607452D01*
X8022738Y-19616976D01*
X8003690Y-19616976D01*
X7984643Y-19607452D01*
X7975119Y-19597929D01*
X7965595Y-19578881D01*
X7956071Y-19540786D01*
X7956071Y-19493167D01*
X7965595Y-19455071D01*
X7975119Y-19436024D01*
X7984643Y-19426500D01*
X8003690Y-19416976D01*
X8165595Y-19616976D02*
X8203690Y-19616976D01*
X8222738Y-19607452D01*
X8232262Y-19597929D01*
X8251309Y-19569357D01*
X8260833Y-19531262D01*
X8260833Y-19455071D01*
X8251309Y-19436024D01*
X8241786Y-19426500D01*
X8222738Y-19416976D01*
X8184643Y-19416976D01*
X8165595Y-19426500D01*
X8156071Y-19436024D01*
X8146548Y-19455071D01*
X8146548Y-19502690D01*
X8156071Y-19521738D01*
X8165595Y-19531262D01*
X8184643Y-19540786D01*
X8222738Y-19540786D01*
X8241786Y-19531262D01*
X8251309Y-19521738D01*
X8260833Y-19502690D01*
X8451310Y-19616976D02*
X8337024Y-19616976D01*
X8394167Y-19616976D02*
X8394167Y-19416976D01*
X8375119Y-19445548D01*
X8356071Y-19464595D01*
X8337024Y-19474119D01*
X8517976Y-19416976D02*
X8651310Y-19416976D01*
X8565595Y-19616976D01*
X8717976Y-19416976D02*
X8717976Y-19455071D01*
X8794167Y-19416976D02*
X8794167Y-19455071D01*
X9089405Y-19693167D02*
X9079881Y-19683643D01*
X9060833Y-19655071D01*
X9051310Y-19636024D01*
X9041786Y-19607452D01*
X9032262Y-19559833D01*
X9032262Y-19521738D01*
X9041786Y-19474119D01*
X9051310Y-19445548D01*
X9060833Y-19426500D01*
X9079881Y-19397929D01*
X9089405Y-19388405D01*
X9156071Y-19436024D02*
X9165595Y-19426500D01*
X9184643Y-19416976D01*
X9232262Y-19416976D01*
X9251310Y-19426500D01*
X9260833Y-19436024D01*
X9270357Y-19455071D01*
X9270357Y-19474119D01*
X9260833Y-19502690D01*
X9146548Y-19616976D01*
X9270357Y-19616976D01*
X9508452Y-19616976D02*
X9508452Y-19416976D01*
X9594167Y-19616976D02*
X9594167Y-19512214D01*
X9584643Y-19493167D01*
X9565595Y-19483643D01*
X9537024Y-19483643D01*
X9517976Y-19493167D01*
X9508452Y-19502690D01*
X9717976Y-19616976D02*
X9698929Y-19607452D01*
X9689405Y-19597929D01*
X9679881Y-19578881D01*
X9679881Y-19521738D01*
X9689405Y-19502690D01*
X9698929Y-19493167D01*
X9717976Y-19483643D01*
X9746548Y-19483643D01*
X9765595Y-19493167D01*
X9775119Y-19502690D01*
X9784643Y-19521738D01*
X9784643Y-19578881D01*
X9775119Y-19597929D01*
X9765595Y-19607452D01*
X9746548Y-19616976D01*
X9717976Y-19616976D01*
X9898929Y-19616976D02*
X9879881Y-19607452D01*
X9870357Y-19588405D01*
X9870357Y-19416976D01*
X10051310Y-19607452D02*
X10032262Y-19616976D01*
X9994167Y-19616976D01*
X9975119Y-19607452D01*
X9965595Y-19588405D01*
X9965595Y-19512214D01*
X9975119Y-19493167D01*
X9994167Y-19483643D01*
X10032262Y-19483643D01*
X10051310Y-19493167D01*
X10060833Y-19512214D01*
X10060833Y-19531262D01*
X9965595Y-19550310D01*
X10137024Y-19607452D02*
X10156071Y-19616976D01*
X10194167Y-19616976D01*
X10213214Y-19607452D01*
X10222738Y-19588405D01*
X10222738Y-19578881D01*
X10213214Y-19559833D01*
X10194167Y-19550310D01*
X10165595Y-19550310D01*
X10146548Y-19540786D01*
X10137024Y-19521738D01*
X10137024Y-19512214D01*
X10146548Y-19493167D01*
X10165595Y-19483643D01*
X10194167Y-19483643D01*
X10213214Y-19493167D01*
X10289405Y-19693167D02*
X10298929Y-19683643D01*
X10317976Y-19655071D01*
X10327500Y-19636024D01*
X10337024Y-19607452D01*
X10346548Y-19559833D01*
X10346548Y-19521738D01*
X10337024Y-19474119D01*
X10327500Y-19445548D01*
X10317976Y-19426500D01*
X10298929Y-19397929D01*
X10289405Y-19388405D01*
X5417500Y-19746500D02*
X5417500Y-19946500D01*
X5317500Y-19846500D02*
X5517500Y-19846500D01*
X5417500Y-19946500D02*
X5517500Y-19846500D01*
X5417500Y-19746500D01*
X5317500Y-19846500D01*
X5417500Y-19946500D01*
X5765595Y-19756024D02*
X5775119Y-19746500D01*
X5794167Y-19736976D01*
X5841786Y-19736976D01*
X5860833Y-19746500D01*
X5870357Y-19756024D01*
X5879881Y-19775071D01*
X5879881Y-19794119D01*
X5870357Y-19822690D01*
X5756071Y-19936976D01*
X5879881Y-19936976D01*
X5965595Y-19917929D02*
X5975119Y-19927452D01*
X5965595Y-19936976D01*
X5956071Y-19927452D01*
X5965595Y-19917929D01*
X5965595Y-19936976D01*
X6041786Y-19736976D02*
X6175119Y-19736976D01*
X6089405Y-19936976D01*
X6346548Y-19736976D02*
X6251309Y-19736976D01*
X6241786Y-19832214D01*
X6251309Y-19822690D01*
X6270357Y-19813167D01*
X6317976Y-19813167D01*
X6337024Y-19822690D01*
X6346548Y-19832214D01*
X6356071Y-19851262D01*
X6356071Y-19898881D01*
X6346548Y-19917929D01*
X6337024Y-19927452D01*
X6317976Y-19936976D01*
X6270357Y-19936976D01*
X6251309Y-19927452D01*
X6241786Y-19917929D01*
X6479881Y-19736976D02*
X6498928Y-19736976D01*
X6517976Y-19746500D01*
X6527500Y-19756024D01*
X6537024Y-19775071D01*
X6546548Y-19813167D01*
X6546548Y-19860786D01*
X6537024Y-19898881D01*
X6527500Y-19917929D01*
X6517976Y-19927452D01*
X6498928Y-19936976D01*
X6479881Y-19936976D01*
X6460833Y-19927452D01*
X6451309Y-19917929D01*
X6441786Y-19898881D01*
X6432262Y-19860786D01*
X6432262Y-19813167D01*
X6441786Y-19775071D01*
X6451309Y-19756024D01*
X6460833Y-19746500D01*
X6479881Y-19736976D01*
X6632262Y-19936976D02*
X6632262Y-19803643D01*
X6632262Y-19822690D02*
X6641786Y-19813167D01*
X6660833Y-19803643D01*
X6689405Y-19803643D01*
X6708452Y-19813167D01*
X6717976Y-19832214D01*
X6717976Y-19936976D01*
X6717976Y-19832214D02*
X6727500Y-19813167D01*
X6746548Y-19803643D01*
X6775119Y-19803643D01*
X6794167Y-19813167D01*
X6803690Y-19832214D01*
X6803690Y-19936976D01*
X6898928Y-19936976D02*
X6898928Y-19803643D01*
X6898928Y-19822690D02*
X6908452Y-19813167D01*
X6927500Y-19803643D01*
X6956071Y-19803643D01*
X6975119Y-19813167D01*
X6984643Y-19832214D01*
X6984643Y-19936976D01*
X6984643Y-19832214D02*
X6994167Y-19813167D01*
X7013214Y-19803643D01*
X7041786Y-19803643D01*
X7060833Y-19813167D01*
X7070357Y-19832214D01*
X7070357Y-19936976D01*
X7460833Y-19727452D02*
X7289405Y-19984595D01*
X7717976Y-19736976D02*
X7737024Y-19736976D01*
X7756071Y-19746500D01*
X7765595Y-19756024D01*
X7775119Y-19775071D01*
X7784643Y-19813167D01*
X7784643Y-19860786D01*
X7775119Y-19898881D01*
X7765595Y-19917929D01*
X7756071Y-19927452D01*
X7737024Y-19936976D01*
X7717976Y-19936976D01*
X7698928Y-19927452D01*
X7689405Y-19917929D01*
X7679881Y-19898881D01*
X7670357Y-19860786D01*
X7670357Y-19813167D01*
X7679881Y-19775071D01*
X7689405Y-19756024D01*
X7698928Y-19746500D01*
X7717976Y-19736976D01*
X7870357Y-19917929D02*
X7879881Y-19927452D01*
X7870357Y-19936976D01*
X7860833Y-19927452D01*
X7870357Y-19917929D01*
X7870357Y-19936976D01*
X8070357Y-19936976D02*
X7956071Y-19936976D01*
X8013214Y-19936976D02*
X8013214Y-19736976D01*
X7994167Y-19765548D01*
X7975119Y-19784595D01*
X7956071Y-19794119D01*
X8194167Y-19736976D02*
X8213214Y-19736976D01*
X8232262Y-19746500D01*
X8241786Y-19756024D01*
X8251309Y-19775071D01*
X8260833Y-19813167D01*
X8260833Y-19860786D01*
X8251309Y-19898881D01*
X8241786Y-19917929D01*
X8232262Y-19927452D01*
X8213214Y-19936976D01*
X8194167Y-19936976D01*
X8175119Y-19927452D01*
X8165595Y-19917929D01*
X8156071Y-19898881D01*
X8146548Y-19860786D01*
X8146548Y-19813167D01*
X8156071Y-19775071D01*
X8165595Y-19756024D01*
X8175119Y-19746500D01*
X8194167Y-19736976D01*
X8375119Y-19822690D02*
X8356071Y-19813167D01*
X8346548Y-19803643D01*
X8337024Y-19784595D01*
X8337024Y-19775071D01*
X8346548Y-19756024D01*
X8356071Y-19746500D01*
X8375119Y-19736976D01*
X8413214Y-19736976D01*
X8432262Y-19746500D01*
X8441786Y-19756024D01*
X8451310Y-19775071D01*
X8451310Y-19784595D01*
X8441786Y-19803643D01*
X8432262Y-19813167D01*
X8413214Y-19822690D01*
X8375119Y-19822690D01*
X8356071Y-19832214D01*
X8346548Y-19841738D01*
X8337024Y-19860786D01*
X8337024Y-19898881D01*
X8346548Y-19917929D01*
X8356071Y-19927452D01*
X8375119Y-19936976D01*
X8413214Y-19936976D01*
X8432262Y-19927452D01*
X8441786Y-19917929D01*
X8451310Y-19898881D01*
X8451310Y-19860786D01*
X8441786Y-19841738D01*
X8432262Y-19832214D01*
X8413214Y-19822690D01*
X8517976Y-19736976D02*
X8641786Y-19736976D01*
X8575119Y-19813167D01*
X8603690Y-19813167D01*
X8622738Y-19822690D01*
X8632262Y-19832214D01*
X8641786Y-19851262D01*
X8641786Y-19898881D01*
X8632262Y-19917929D01*
X8622738Y-19927452D01*
X8603690Y-19936976D01*
X8546548Y-19936976D01*
X8527500Y-19927452D01*
X8517976Y-19917929D01*
X8717976Y-19736976D02*
X8717976Y-19775071D01*
X8794167Y-19736976D02*
X8794167Y-19775071D01*
X9089405Y-20013167D02*
X9079881Y-20003643D01*
X9060833Y-19975071D01*
X9051310Y-19956024D01*
X9041786Y-19927452D01*
X9032262Y-19879833D01*
X9032262Y-19841738D01*
X9041786Y-19794119D01*
X9051310Y-19765548D01*
X9060833Y-19746500D01*
X9079881Y-19717929D01*
X9089405Y-19708405D01*
X9156071Y-19756024D02*
X9165595Y-19746500D01*
X9184643Y-19736976D01*
X9232262Y-19736976D01*
X9251310Y-19746500D01*
X9260833Y-19756024D01*
X9270357Y-19775071D01*
X9270357Y-19794119D01*
X9260833Y-19822690D01*
X9146548Y-19936976D01*
X9270357Y-19936976D01*
X9508452Y-19936976D02*
X9508452Y-19736976D01*
X9594167Y-19936976D02*
X9594167Y-19832214D01*
X9584643Y-19813167D01*
X9565595Y-19803643D01*
X9537024Y-19803643D01*
X9517976Y-19813167D01*
X9508452Y-19822690D01*
X9717976Y-19936976D02*
X9698929Y-19927452D01*
X9689405Y-19917929D01*
X9679881Y-19898881D01*
X9679881Y-19841738D01*
X9689405Y-19822690D01*
X9698929Y-19813167D01*
X9717976Y-19803643D01*
X9746548Y-19803643D01*
X9765595Y-19813167D01*
X9775119Y-19822690D01*
X9784643Y-19841738D01*
X9784643Y-19898881D01*
X9775119Y-19917929D01*
X9765595Y-19927452D01*
X9746548Y-19936976D01*
X9717976Y-19936976D01*
X9898929Y-19936976D02*
X9879881Y-19927452D01*
X9870357Y-19908405D01*
X9870357Y-19736976D01*
X10051310Y-19927452D02*
X10032262Y-19936976D01*
X9994167Y-19936976D01*
X9975119Y-19927452D01*
X9965595Y-19908405D01*
X9965595Y-19832214D01*
X9975119Y-19813167D01*
X9994167Y-19803643D01*
X10032262Y-19803643D01*
X10051310Y-19813167D01*
X10060833Y-19832214D01*
X10060833Y-19851262D01*
X9965595Y-19870310D01*
X10137024Y-19927452D02*
X10156071Y-19936976D01*
X10194167Y-19936976D01*
X10213214Y-19927452D01*
X10222738Y-19908405D01*
X10222738Y-19898881D01*
X10213214Y-19879833D01*
X10194167Y-19870310D01*
X10165595Y-19870310D01*
X10146548Y-19860786D01*
X10137024Y-19841738D01*
X10137024Y-19832214D01*
X10146548Y-19813167D01*
X10165595Y-19803643D01*
X10194167Y-19803643D01*
X10213214Y-19813167D01*
X10289405Y-20013167D02*
X10298929Y-20003643D01*
X10317976Y-19975071D01*
X10327500Y-19956024D01*
X10337024Y-19927452D01*
X10346548Y-19879833D01*
X10346548Y-19841738D01*
X10337024Y-19794119D01*
X10327500Y-19765548D01*
X10317976Y-19746500D01*
X10298929Y-19717929D01*
X10289405Y-19708405D01*
M02*
