%TF.GenerationSoftware,KiCad,Pcbnew,(6.0.7)*%
%TF.CreationDate,2022-10-12T02:09:25-03:00*%
%TF.ProjectId,uEFI_rev3,75454649-5f72-4657-9633-2e6b69636164,v3.0*%
%TF.SameCoordinates,Original*%
%TF.FileFunction,Paste,Top*%
%TF.FilePolarity,Positive*%
%FSLAX46Y46*%
G04 Gerber Fmt 4.6, Leading zero omitted, Abs format (unit mm)*
G04 Created by KiCad (PCBNEW (6.0.7)) date 2022-10-12 02:09:25*
%MOMM*%
%LPD*%
G01*
G04 APERTURE LIST*
G04 Aperture macros list*
%AMRoundRect*
0 Rectangle with rounded corners*
0 $1 Rounding radius*
0 $2 $3 $4 $5 $6 $7 $8 $9 X,Y pos of 4 corners*
0 Add a 4 corners polygon primitive as box body*
4,1,4,$2,$3,$4,$5,$6,$7,$8,$9,$2,$3,0*
0 Add four circle primitives for the rounded corners*
1,1,$1+$1,$2,$3*
1,1,$1+$1,$4,$5*
1,1,$1+$1,$6,$7*
1,1,$1+$1,$8,$9*
0 Add four rect primitives between the rounded corners*
20,1,$1+$1,$2,$3,$4,$5,0*
20,1,$1+$1,$4,$5,$6,$7,0*
20,1,$1+$1,$6,$7,$8,$9,0*
20,1,$1+$1,$8,$9,$2,$3,0*%
%AMRotRect*
0 Rectangle, with rotation*
0 The origin of the aperture is its center*
0 $1 length*
0 $2 width*
0 $3 Rotation angle, in degrees counterclockwise*
0 Add horizontal line*
21,1,$1,$2,0,0,$3*%
G04 Aperture macros list end*
%ADD10RoundRect,0.225000X0.225000X0.250000X-0.225000X0.250000X-0.225000X-0.250000X0.225000X-0.250000X0*%
%ADD11RoundRect,0.200000X0.200000X0.275000X-0.200000X0.275000X-0.200000X-0.275000X0.200000X-0.275000X0*%
%ADD12RoundRect,0.200000X-0.200000X-0.275000X0.200000X-0.275000X0.200000X0.275000X-0.200000X0.275000X0*%
%ADD13RoundRect,0.150000X0.150000X-0.512500X0.150000X0.512500X-0.150000X0.512500X-0.150000X-0.512500X0*%
%ADD14RoundRect,0.200000X-0.275000X0.200000X-0.275000X-0.200000X0.275000X-0.200000X0.275000X0.200000X0*%
%ADD15RoundRect,0.200000X0.275000X-0.200000X0.275000X0.200000X-0.275000X0.200000X-0.275000X-0.200000X0*%
%ADD16R,0.600000X0.450000*%
%ADD17R,0.600000X0.700000*%
%ADD18RoundRect,0.225000X-0.225000X-0.250000X0.225000X-0.250000X0.225000X0.250000X-0.225000X0.250000X0*%
%ADD19RoundRect,0.250000X0.250000X0.475000X-0.250000X0.475000X-0.250000X-0.475000X0.250000X-0.475000X0*%
%ADD20RoundRect,0.250000X0.512652X0.159099X0.159099X0.512652X-0.512652X-0.159099X-0.159099X-0.512652X0*%
%ADD21RoundRect,0.250000X0.475000X-0.250000X0.475000X0.250000X-0.475000X0.250000X-0.475000X-0.250000X0*%
%ADD22RoundRect,0.150000X0.150000X-0.587500X0.150000X0.587500X-0.150000X0.587500X-0.150000X-0.587500X0*%
%ADD23RoundRect,0.218750X-0.256250X0.218750X-0.256250X-0.218750X0.256250X-0.218750X0.256250X0.218750X0*%
%ADD24RoundRect,0.250000X0.550000X-1.500000X0.550000X1.500000X-0.550000X1.500000X-0.550000X-1.500000X0*%
%ADD25RoundRect,0.150000X-0.150000X0.825000X-0.150000X-0.825000X0.150000X-0.825000X0.150000X0.825000X0*%
%ADD26RoundRect,0.250000X-0.512652X-0.159099X-0.159099X-0.512652X0.512652X0.159099X0.159099X0.512652X0*%
%ADD27R,0.450000X0.600000*%
%ADD28RoundRect,0.100000X0.100000X-0.637500X0.100000X0.637500X-0.100000X0.637500X-0.100000X-0.637500X0*%
%ADD29R,1.100000X1.100000*%
%ADD30R,0.800000X0.300000*%
%ADD31RoundRect,0.100000X-0.625000X-0.100000X0.625000X-0.100000X0.625000X0.100000X-0.625000X0.100000X0*%
%ADD32RoundRect,0.250000X-1.075000X0.312500X-1.075000X-0.312500X1.075000X-0.312500X1.075000X0.312500X0*%
%ADD33RoundRect,0.075000X-0.565685X0.459619X0.459619X-0.565685X0.565685X-0.459619X-0.459619X0.565685X0*%
%ADD34RoundRect,0.075000X-0.565685X-0.459619X-0.459619X-0.565685X0.565685X0.459619X0.459619X0.565685X0*%
%ADD35R,1.800000X2.500000*%
%ADD36RoundRect,0.250000X0.159099X-0.512652X0.512652X-0.159099X-0.159099X0.512652X-0.512652X0.159099X0*%
%ADD37RoundRect,0.250000X-0.625000X0.312500X-0.625000X-0.312500X0.625000X-0.312500X0.625000X0.312500X0*%
%ADD38R,4.550000X5.250000*%
%ADD39R,4.600000X1.100000*%
%ADD40RoundRect,0.250000X-0.159099X0.512652X-0.512652X0.159099X0.159099X-0.512652X0.512652X-0.159099X0*%
%ADD41RoundRect,0.250000X-1.500000X-0.550000X1.500000X-0.550000X1.500000X0.550000X-1.500000X0.550000X0*%
%ADD42RoundRect,0.150000X-0.650000X-0.150000X0.650000X-0.150000X0.650000X0.150000X-0.650000X0.150000X0*%
%ADD43RoundRect,0.250000X-0.250000X-0.475000X0.250000X-0.475000X0.250000X0.475000X-0.250000X0.475000X0*%
%ADD44RoundRect,0.250000X-1.425000X0.362500X-1.425000X-0.362500X1.425000X-0.362500X1.425000X0.362500X0*%
%ADD45R,1.600200X0.431800*%
%ADD46R,4.953000X4.953000*%
%ADD47RoundRect,0.250000X0.312500X1.075000X-0.312500X1.075000X-0.312500X-1.075000X0.312500X-1.075000X0*%
%ADD48RoundRect,0.150000X-0.150000X0.512500X-0.150000X-0.512500X0.150000X-0.512500X0.150000X0.512500X0*%
%ADD49RoundRect,0.225000X-0.250000X0.225000X-0.250000X-0.225000X0.250000X-0.225000X0.250000X0.225000X0*%
%ADD50RoundRect,0.250000X-0.475000X0.250000X-0.475000X-0.250000X0.475000X-0.250000X0.475000X0.250000X0*%
%ADD51RoundRect,0.225000X0.250000X-0.225000X0.250000X0.225000X-0.250000X0.225000X-0.250000X-0.225000X0*%
%ADD52R,1.640000X0.410000*%
%ADD53R,1.700000X1.000000*%
%ADD54RoundRect,0.250000X1.075000X-0.312500X1.075000X0.312500X-1.075000X0.312500X-1.075000X-0.312500X0*%
%ADD55RoundRect,0.150000X0.150000X-0.650000X0.150000X0.650000X-0.150000X0.650000X-0.150000X-0.650000X0*%
%ADD56RotRect,1.400000X1.200000X135.000000*%
G04 APERTURE END LIST*
D10*
%TO.C,C49*%
X74409500Y-86804500D03*
X72859500Y-86804500D03*
%TD*%
D11*
%TO.C,R87*%
X74459500Y-88455500D03*
X72809500Y-88455500D03*
%TD*%
%TO.C,R92*%
X74485000Y-90170000D03*
X72835000Y-90170000D03*
%TD*%
D12*
%TO.C,R97*%
X72835000Y-91821000D03*
X74485000Y-91821000D03*
%TD*%
D13*
%TO.C,U31*%
X61661000Y-90418500D03*
X62611000Y-90418500D03*
X63561000Y-90418500D03*
X63561000Y-88143500D03*
X61661000Y-88143500D03*
%TD*%
D14*
%TO.C,R108*%
X64389000Y-93125300D03*
X64389000Y-94775300D03*
%TD*%
D15*
%TO.C,R109*%
X62746800Y-94767100D03*
X62746800Y-93117100D03*
%TD*%
D12*
%TO.C,R122*%
X82995000Y-84455000D03*
X84645000Y-84455000D03*
%TD*%
D16*
%TO.C,D29*%
X138350000Y-133500000D03*
X140450000Y-133500000D03*
%TD*%
D17*
%TO.C,D2*%
X138800000Y-113298000D03*
X140200000Y-113298000D03*
%TD*%
D18*
%TO.C,C21*%
X115909000Y-107442000D03*
X117459000Y-107442000D03*
%TD*%
D14*
%TO.C,R34*%
X120500000Y-123975000D03*
X120500000Y-125625000D03*
%TD*%
D15*
%TO.C,R4*%
X100400000Y-149625000D03*
X100400000Y-147975000D03*
%TD*%
D19*
%TO.C,C14*%
X121350000Y-138150000D03*
X119450000Y-138150000D03*
%TD*%
D20*
%TO.C,C11*%
X64921751Y-126421751D03*
X63578249Y-125078249D03*
%TD*%
D21*
%TO.C,C9*%
X70699000Y-113101600D03*
X70699000Y-111201600D03*
%TD*%
D12*
%TO.C,R40*%
X149375000Y-125700000D03*
X151025000Y-125700000D03*
%TD*%
D22*
%TO.C,U8*%
X146950000Y-138437500D03*
X148850000Y-138437500D03*
X147900000Y-136562500D03*
%TD*%
D12*
%TO.C,R45*%
X149375000Y-133600000D03*
X151025000Y-133600000D03*
%TD*%
D15*
%TO.C,R27*%
X105000000Y-143850000D03*
X105000000Y-142200000D03*
%TD*%
D22*
%TO.C,Q5*%
X138300000Y-111187500D03*
X140200000Y-111187500D03*
X139250000Y-109312500D03*
%TD*%
D12*
%TO.C,R11*%
X111982000Y-92070000D03*
X113632000Y-92070000D03*
%TD*%
D15*
%TO.C,R24*%
X107800000Y-145825000D03*
X107800000Y-144175000D03*
%TD*%
D12*
%TO.C,R12*%
X112459000Y-109042000D03*
X114109000Y-109042000D03*
%TD*%
D16*
%TO.C,D22*%
X130850000Y-131500000D03*
X132950000Y-131500000D03*
%TD*%
D10*
%TO.C,C27*%
X114567000Y-129590800D03*
X113017000Y-129590800D03*
%TD*%
%TO.C,C23*%
X113607000Y-90270000D03*
X112057000Y-90270000D03*
%TD*%
D18*
%TO.C,C33*%
X144225000Y-116500000D03*
X145775000Y-116500000D03*
%TD*%
D23*
%TO.C,D7*%
X107800000Y-147612500D03*
X107800000Y-149187500D03*
%TD*%
D24*
%TO.C,C31*%
X131318000Y-101252000D03*
X131318000Y-95852000D03*
%TD*%
D23*
%TO.C,D1*%
X103200000Y-148012500D03*
X103200000Y-149587500D03*
%TD*%
D20*
%TO.C,C13*%
X65771751Y-135071751D03*
X64428249Y-133728249D03*
%TD*%
D10*
%TO.C,C25*%
X100632000Y-90170000D03*
X99082000Y-90170000D03*
%TD*%
D18*
%TO.C,C37*%
X149425000Y-124100000D03*
X150975000Y-124100000D03*
%TD*%
D16*
%TO.C,D27*%
X145750000Y-131450000D03*
X147850000Y-131450000D03*
%TD*%
D15*
%TO.C,R25*%
X95800000Y-143825000D03*
X95800000Y-142175000D03*
%TD*%
D12*
%TO.C,R44*%
X142000000Y-133700000D03*
X143650000Y-133700000D03*
%TD*%
D25*
%TO.C,U2*%
X139845000Y-136725000D03*
X138575000Y-136725000D03*
X137305000Y-136725000D03*
X136035000Y-136725000D03*
X134765000Y-136725000D03*
X133495000Y-136725000D03*
X132225000Y-136725000D03*
X130955000Y-136725000D03*
X130955000Y-141675000D03*
X132225000Y-141675000D03*
X133495000Y-141675000D03*
X134765000Y-141675000D03*
X136035000Y-141675000D03*
X137305000Y-141675000D03*
X138575000Y-141675000D03*
X139845000Y-141675000D03*
%TD*%
D26*
%TO.C,C3*%
X65151000Y-123571000D03*
X66494502Y-124914502D03*
%TD*%
D12*
%TO.C,R14*%
X102118000Y-109220000D03*
X103768000Y-109220000D03*
%TD*%
D16*
%TO.C,D26*%
X138350000Y-131500000D03*
X140450000Y-131500000D03*
%TD*%
D21*
%TO.C,C54*%
X82542400Y-69704000D03*
X82542400Y-67804000D03*
%TD*%
D27*
%TO.C,D17*%
X65659000Y-88104000D03*
X65659000Y-90204000D03*
%TD*%
D11*
%TO.C,R15*%
X116982000Y-92070000D03*
X115332000Y-92070000D03*
%TD*%
D28*
%TO.C,U20*%
X145426000Y-76522500D03*
X146076000Y-76522500D03*
X146726000Y-76522500D03*
X147376000Y-76522500D03*
X148026000Y-76522500D03*
X148676000Y-76522500D03*
X149326000Y-76522500D03*
X149976000Y-76522500D03*
X149976000Y-70797500D03*
X149326000Y-70797500D03*
X148676000Y-70797500D03*
X148026000Y-70797500D03*
X147376000Y-70797500D03*
X146726000Y-70797500D03*
X146076000Y-70797500D03*
X145426000Y-70797500D03*
%TD*%
D23*
%TO.C,D6*%
X110000000Y-147612500D03*
X110000000Y-149187500D03*
%TD*%
D29*
%TO.C,D14*%
X60650000Y-108500000D03*
X63450000Y-108500000D03*
%TD*%
D28*
%TO.C,U22*%
X145299000Y-64584500D03*
X145949000Y-64584500D03*
X146599000Y-64584500D03*
X147249000Y-64584500D03*
X147899000Y-64584500D03*
X148549000Y-64584500D03*
X149199000Y-64584500D03*
X149849000Y-64584500D03*
X149849000Y-58859500D03*
X149199000Y-58859500D03*
X148549000Y-58859500D03*
X147899000Y-58859500D03*
X147249000Y-58859500D03*
X146599000Y-58859500D03*
X145949000Y-58859500D03*
X145299000Y-58859500D03*
%TD*%
D16*
%TO.C,D18*%
X138350000Y-125500000D03*
X140450000Y-125500000D03*
%TD*%
D23*
%TO.C,D10*%
X103200000Y-142200000D03*
X103200000Y-143775000D03*
%TD*%
D30*
%TO.C,U11*%
X119350000Y-139900000D03*
X119350000Y-140400000D03*
X119350000Y-140900000D03*
X119350000Y-141400000D03*
X122450000Y-141400000D03*
X122450000Y-140900000D03*
X122450000Y-140400000D03*
X122450000Y-139900000D03*
%TD*%
D27*
%TO.C,D20*%
X68199000Y-90204000D03*
X68199000Y-88104000D03*
%TD*%
D18*
%TO.C,C47*%
X149425000Y-132000000D03*
X150975000Y-132000000D03*
%TD*%
D14*
%TO.C,R7*%
X121285000Y-112967000D03*
X121285000Y-114617000D03*
%TD*%
D31*
%TO.C,U6*%
X142850000Y-111625000D03*
X142850000Y-112275000D03*
X142850000Y-112925000D03*
X142850000Y-113575000D03*
X142850000Y-114225000D03*
X142850000Y-114875000D03*
X147150000Y-114875000D03*
X147150000Y-114225000D03*
X147150000Y-113575000D03*
X147150000Y-112925000D03*
X147150000Y-112275000D03*
X147150000Y-111625000D03*
%TD*%
D32*
%TO.C,R116*%
X85328000Y-46172700D03*
X85328000Y-49097700D03*
%TD*%
D22*
%TO.C,Q8*%
X113529334Y-139467763D03*
X115429334Y-139467763D03*
X114479334Y-137592763D03*
%TD*%
D12*
%TO.C,R58*%
X127475000Y-115500000D03*
X129125000Y-115500000D03*
%TD*%
D14*
%TO.C,R31*%
X111812334Y-138164763D03*
X111812334Y-139814763D03*
%TD*%
D33*
%TO.C,U3*%
X75650596Y-121394315D03*
X75297043Y-121747868D03*
X74943489Y-122101422D03*
X74589936Y-122454975D03*
X74236383Y-122808528D03*
X73882829Y-123162082D03*
X73529276Y-123515635D03*
X73175722Y-123869189D03*
X72822169Y-124222742D03*
X72468616Y-124576295D03*
X72115062Y-124929849D03*
X71761509Y-125283402D03*
X71407955Y-125636955D03*
X71054402Y-125990509D03*
X70700849Y-126344062D03*
X70347295Y-126697616D03*
X69993742Y-127051169D03*
X69640189Y-127404722D03*
X69286635Y-127758276D03*
X68933082Y-128111829D03*
X68579528Y-128465383D03*
X68225975Y-128818936D03*
X67872422Y-129172489D03*
X67518868Y-129526043D03*
X67165315Y-129879596D03*
D34*
X67165315Y-132248404D03*
X67518868Y-132601957D03*
X67872422Y-132955511D03*
X68225975Y-133309064D03*
X68579528Y-133662617D03*
X68933082Y-134016171D03*
X69286635Y-134369724D03*
X69640189Y-134723278D03*
X69993742Y-135076831D03*
X70347295Y-135430384D03*
X70700849Y-135783938D03*
X71054402Y-136137491D03*
X71407955Y-136491045D03*
X71761509Y-136844598D03*
X72115062Y-137198151D03*
X72468616Y-137551705D03*
X72822169Y-137905258D03*
X73175722Y-138258811D03*
X73529276Y-138612365D03*
X73882829Y-138965918D03*
X74236383Y-139319472D03*
X74589936Y-139673025D03*
X74943489Y-140026578D03*
X75297043Y-140380132D03*
X75650596Y-140733685D03*
D33*
X78019404Y-140733685D03*
X78372957Y-140380132D03*
X78726511Y-140026578D03*
X79080064Y-139673025D03*
X79433617Y-139319472D03*
X79787171Y-138965918D03*
X80140724Y-138612365D03*
X80494278Y-138258811D03*
X80847831Y-137905258D03*
X81201384Y-137551705D03*
X81554938Y-137198151D03*
X81908491Y-136844598D03*
X82262045Y-136491045D03*
X82615598Y-136137491D03*
X82969151Y-135783938D03*
X83322705Y-135430384D03*
X83676258Y-135076831D03*
X84029811Y-134723278D03*
X84383365Y-134369724D03*
X84736918Y-134016171D03*
X85090472Y-133662617D03*
X85444025Y-133309064D03*
X85797578Y-132955511D03*
X86151132Y-132601957D03*
X86504685Y-132248404D03*
D34*
X86504685Y-129879596D03*
X86151132Y-129526043D03*
X85797578Y-129172489D03*
X85444025Y-128818936D03*
X85090472Y-128465383D03*
X84736918Y-128111829D03*
X84383365Y-127758276D03*
X84029811Y-127404722D03*
X83676258Y-127051169D03*
X83322705Y-126697616D03*
X82969151Y-126344062D03*
X82615598Y-125990509D03*
X82262045Y-125636955D03*
X81908491Y-125283402D03*
X81554938Y-124929849D03*
X81201384Y-124576295D03*
X80847831Y-124222742D03*
X80494278Y-123869189D03*
X80140724Y-123515635D03*
X79787171Y-123162082D03*
X79433617Y-122808528D03*
X79080064Y-122454975D03*
X78726511Y-122101422D03*
X78372957Y-121747868D03*
X78019404Y-121394315D03*
%TD*%
D27*
%TO.C,D28*%
X127925000Y-128697000D03*
X127925000Y-130797000D03*
%TD*%
D15*
%TO.C,R26*%
X100400000Y-143800000D03*
X100400000Y-142150000D03*
%TD*%
D10*
%TO.C,C46*%
X140275000Y-129700000D03*
X138725000Y-129700000D03*
%TD*%
D23*
%TO.C,D12*%
X112700000Y-142262500D03*
X112700000Y-143837500D03*
%TD*%
D35*
%TO.C,D4*%
X144272000Y-82836000D03*
X144272000Y-86836000D03*
%TD*%
D26*
%TO.C,C16*%
X90506498Y-134406498D03*
X91850000Y-135750000D03*
%TD*%
D10*
%TO.C,C26*%
X100343000Y-109220000D03*
X98793000Y-109220000D03*
%TD*%
D12*
%TO.C,R47*%
X142000000Y-130450000D03*
X143650000Y-130450000D03*
%TD*%
D18*
%TO.C,C32*%
X141925000Y-124100000D03*
X143475000Y-124100000D03*
%TD*%
D16*
%TO.C,D16*%
X130880000Y-123530000D03*
X132980000Y-123530000D03*
%TD*%
D23*
%TO.C,D8*%
X94000000Y-142212500D03*
X94000000Y-143787500D03*
%TD*%
D36*
%TO.C,C15*%
X77650000Y-118950000D03*
X78993502Y-117606498D03*
%TD*%
D12*
%TO.C,R39*%
X141875000Y-122500000D03*
X143525000Y-122500000D03*
%TD*%
D37*
%TO.C,R1*%
X80012000Y-89603900D03*
X80012000Y-92528900D03*
%TD*%
D16*
%TO.C,D11*%
X126458000Y-120650000D03*
X128558000Y-120650000D03*
%TD*%
D10*
%TO.C,C38*%
X147675000Y-121700000D03*
X146125000Y-121700000D03*
%TD*%
D32*
%TO.C,R112*%
X79692400Y-61733200D03*
X79692400Y-64658200D03*
%TD*%
D21*
%TO.C,C57*%
X82513000Y-54210000D03*
X82513000Y-52310000D03*
%TD*%
D22*
%TO.C,Q11*%
X122350000Y-125337500D03*
X124250000Y-125337500D03*
X123300000Y-123462500D03*
%TD*%
D38*
%TO.C,Q1*%
X104736000Y-97778000D03*
X99886000Y-97778000D03*
X104736000Y-103328000D03*
X99886000Y-103328000D03*
D39*
X93161000Y-98013000D03*
X93161000Y-103093000D03*
%TD*%
D14*
%TO.C,R46*%
X128397000Y-148146000D03*
X128397000Y-149796000D03*
%TD*%
D40*
%TO.C,C7*%
X72426751Y-142203249D03*
X71083249Y-143546751D03*
%TD*%
D14*
%TO.C,R6*%
X119685000Y-112967000D03*
X119685000Y-114617000D03*
%TD*%
D32*
%TO.C,R119*%
X79713000Y-51143000D03*
X79713000Y-54068000D03*
%TD*%
D16*
%TO.C,D30*%
X145750000Y-133450000D03*
X147850000Y-133450000D03*
%TD*%
%TO.C,D19*%
X130850000Y-125500000D03*
X132950000Y-125500000D03*
%TD*%
D26*
%TO.C,C8*%
X88978249Y-135878249D03*
X90321751Y-137221751D03*
%TD*%
D10*
%TO.C,C48*%
X147725000Y-129650000D03*
X146175000Y-129650000D03*
%TD*%
D41*
%TO.C,C42*%
X68800000Y-60200000D03*
X74200000Y-60200000D03*
%TD*%
D18*
%TO.C,C18*%
X102832000Y-91970000D03*
X104382000Y-91970000D03*
%TD*%
D10*
%TO.C,C35*%
X140275000Y-121700000D03*
X138725000Y-121700000D03*
%TD*%
D42*
%TO.C,U7*%
X79204000Y-105537000D03*
X79204000Y-106807000D03*
X79204000Y-108077000D03*
X79204000Y-109347000D03*
X86404000Y-109347000D03*
X86404000Y-108077000D03*
X86404000Y-106807000D03*
X86404000Y-105537000D03*
%TD*%
D12*
%TO.C,R22*%
X138511000Y-105360000D03*
X140161000Y-105360000D03*
%TD*%
D43*
%TO.C,C5*%
X85500000Y-94950000D03*
X87400000Y-94950000D03*
%TD*%
D44*
%TO.C,R8*%
X92964000Y-106003500D03*
X92964000Y-111928500D03*
%TD*%
D12*
%TO.C,R33*%
X143066000Y-45466000D03*
X144716000Y-45466000D03*
%TD*%
%TO.C,R10*%
X98743000Y-107420000D03*
X100393000Y-107420000D03*
%TD*%
%TO.C,R59*%
X130675000Y-111500000D03*
X132325000Y-111500000D03*
%TD*%
D45*
%TO.C,U1*%
X101092000Y-118059200D03*
X101092000Y-118719600D03*
X101092000Y-119354600D03*
X101092000Y-120015000D03*
X101092000Y-120650000D03*
X101092000Y-121310400D03*
X101092000Y-121970800D03*
X101092000Y-122605800D03*
X101092000Y-123266200D03*
X101092000Y-123901200D03*
X101092000Y-124561600D03*
X101092000Y-125222000D03*
X101092000Y-125857000D03*
X101092000Y-126517400D03*
X101092000Y-127152400D03*
X101092000Y-127812800D03*
X110490000Y-127812800D03*
X110490000Y-127152400D03*
X110490000Y-126517400D03*
X110490000Y-125857000D03*
X110490000Y-125222000D03*
X110490000Y-124561600D03*
X110490000Y-123901200D03*
X110490000Y-123266200D03*
X110490000Y-122605800D03*
X110490000Y-121970800D03*
X110490000Y-121310400D03*
X110490000Y-120650000D03*
X110490000Y-120015000D03*
X110490000Y-119354600D03*
X110490000Y-118719600D03*
X110490000Y-118059200D03*
D46*
X105791000Y-122936000D03*
%TD*%
D10*
%TO.C,C4*%
X132775000Y-121700000D03*
X131225000Y-121700000D03*
%TD*%
D12*
%TO.C,R43*%
X136025000Y-130450000D03*
X134375000Y-130450000D03*
%TD*%
D23*
%TO.C,D5*%
X98600000Y-148012500D03*
X98600000Y-149587500D03*
%TD*%
D32*
%TO.C,R117*%
X79663000Y-46193000D03*
X79663000Y-49118000D03*
%TD*%
%TO.C,R118*%
X85328000Y-51111000D03*
X85328000Y-54036000D03*
%TD*%
D38*
%TO.C,Q4*%
X111252000Y-103340000D03*
X111252000Y-97790000D03*
X116102000Y-103340000D03*
X116102000Y-97790000D03*
D39*
X122827000Y-103105000D03*
X122827000Y-98025000D03*
%TD*%
D47*
%TO.C,R120*%
X86090000Y-56728400D03*
X83165000Y-56728400D03*
%TD*%
D22*
%TO.C,Q13*%
X130750000Y-115337500D03*
X132650000Y-115337500D03*
X131700000Y-113462500D03*
%TD*%
D16*
%TO.C,D24*%
X130850000Y-133500000D03*
X132950000Y-133500000D03*
%TD*%
D11*
%TO.C,R41*%
X136025000Y-133700000D03*
X134375000Y-133700000D03*
%TD*%
D12*
%TO.C,R36*%
X134375000Y-125700000D03*
X136025000Y-125700000D03*
%TD*%
D16*
%TO.C,D21*%
X145750000Y-123500000D03*
X147850000Y-123500000D03*
%TD*%
D47*
%TO.C,R115*%
X86119400Y-72268600D03*
X83194400Y-72268600D03*
%TD*%
D12*
%TO.C,R48*%
X149375000Y-130400000D03*
X151025000Y-130400000D03*
%TD*%
D22*
%TO.C,Q12*%
X126450000Y-125337500D03*
X128350000Y-125337500D03*
X127400000Y-123462500D03*
%TD*%
D12*
%TO.C,R60*%
X65125000Y-109250000D03*
X66775000Y-109250000D03*
%TD*%
D30*
%TO.C,U10*%
X125250000Y-139900000D03*
X125250000Y-140400000D03*
X125250000Y-140900000D03*
X125250000Y-141400000D03*
X128350000Y-141400000D03*
X128350000Y-140900000D03*
X128350000Y-140400000D03*
X128350000Y-139900000D03*
%TD*%
D12*
%TO.C,R35*%
X122468500Y-121400000D03*
X124118500Y-121400000D03*
%TD*%
D11*
%TO.C,R121*%
X81343000Y-84455000D03*
X79693000Y-84455000D03*
%TD*%
D14*
%TO.C,R3*%
X105000000Y-147975000D03*
X105000000Y-149625000D03*
%TD*%
D23*
%TO.C,D13*%
X112700000Y-148012500D03*
X112700000Y-149587500D03*
%TD*%
D12*
%TO.C,R38*%
X134375000Y-122400000D03*
X136025000Y-122400000D03*
%TD*%
D38*
%TO.C,U4*%
X144714000Y-94761000D03*
X144714000Y-100311000D03*
X149564000Y-100311000D03*
X149564000Y-94761000D03*
D39*
X137989000Y-94996000D03*
X137989000Y-97536000D03*
X137989000Y-100076000D03*
%TD*%
D18*
%TO.C,C1*%
X134425000Y-124100000D03*
X135975000Y-124100000D03*
%TD*%
D23*
%TO.C,D9*%
X98600000Y-142225000D03*
X98600000Y-143800000D03*
%TD*%
D36*
%TO.C,C12*%
X91228249Y-129322751D03*
X92571751Y-127979249D03*
%TD*%
D48*
%TO.C,U27*%
X124369000Y-133054500D03*
X123419000Y-133054500D03*
X122469000Y-133054500D03*
X122469000Y-135329500D03*
X124369000Y-135329500D03*
%TD*%
D10*
%TO.C,C24*%
X114059000Y-107442000D03*
X112509000Y-107442000D03*
%TD*%
D49*
%TO.C,C36*%
X149250000Y-111725000D03*
X149250000Y-113275000D03*
%TD*%
D50*
%TO.C,C55*%
X82513000Y-48754000D03*
X82513000Y-50654000D03*
%TD*%
D11*
%TO.C,R19*%
X140253000Y-107500000D03*
X138603000Y-107500000D03*
%TD*%
D12*
%TO.C,R42*%
X149375000Y-122500000D03*
X151025000Y-122500000D03*
%TD*%
D10*
%TO.C,C44*%
X132775000Y-129700000D03*
X131225000Y-129700000D03*
%TD*%
D11*
%TO.C,R82*%
X123543000Y-129366000D03*
X121893000Y-129366000D03*
%TD*%
D50*
%TO.C,C52*%
X82542400Y-63928000D03*
X82542400Y-65828000D03*
%TD*%
D16*
%TO.C,D15*%
X138350000Y-123500000D03*
X140450000Y-123500000D03*
%TD*%
D40*
%TO.C,C6*%
X73914000Y-143637000D03*
X72570498Y-144980502D03*
%TD*%
D15*
%TO.C,R2*%
X82000000Y-121050000D03*
X82000000Y-119400000D03*
%TD*%
D18*
%TO.C,C20*%
X115357000Y-90270000D03*
X116907000Y-90270000D03*
%TD*%
%TO.C,C29*%
X96786400Y-128270000D03*
X98336400Y-128270000D03*
%TD*%
D32*
%TO.C,R114*%
X79742400Y-66683200D03*
X79742400Y-69608200D03*
%TD*%
D38*
%TO.C,Q2*%
X99836000Y-80815600D03*
X104686000Y-80815600D03*
X99836000Y-86365600D03*
X104686000Y-86365600D03*
D39*
X93111000Y-81050600D03*
X93111000Y-86130600D03*
%TD*%
D17*
%TO.C,D3*%
X140200000Y-116500000D03*
X138800000Y-116500000D03*
%TD*%
D16*
%TO.C,D23*%
X145750000Y-125500000D03*
X147850000Y-125500000D03*
%TD*%
D11*
%TO.C,R16*%
X117534000Y-109042000D03*
X115884000Y-109042000D03*
%TD*%
%TO.C,R23*%
X143361000Y-105360000D03*
X141711000Y-105360000D03*
%TD*%
D38*
%TO.C,Q3*%
X116182000Y-80796600D03*
X116182000Y-86346600D03*
X111332000Y-80796600D03*
X111332000Y-86346600D03*
D39*
X122907000Y-86111600D03*
X122907000Y-81031600D03*
%TD*%
D12*
%TO.C,R9*%
X98982000Y-91970000D03*
X100632000Y-91970000D03*
%TD*%
D18*
%TO.C,C45*%
X142075000Y-132100000D03*
X143625000Y-132100000D03*
%TD*%
D15*
%TO.C,R83*%
X120559000Y-134763000D03*
X120559000Y-133113000D03*
%TD*%
D10*
%TO.C,C28*%
X114287600Y-116636800D03*
X112737600Y-116636800D03*
%TD*%
D51*
%TO.C,C22*%
X122885000Y-114567000D03*
X122885000Y-113017000D03*
%TD*%
D11*
%TO.C,R20*%
X139700000Y-90932000D03*
X138050000Y-90932000D03*
%TD*%
D10*
%TO.C,C51*%
X123493000Y-131398000D03*
X121943000Y-131398000D03*
%TD*%
D32*
%TO.C,R81*%
X85357400Y-61712900D03*
X85357400Y-64637900D03*
%TD*%
D52*
%TO.C,U36*%
X79655000Y-77990700D03*
X79655000Y-78625700D03*
X79655000Y-79260700D03*
X79655000Y-79895700D03*
X79655000Y-80530700D03*
X79655000Y-81165700D03*
X79655000Y-81800700D03*
X79655000Y-82435700D03*
X84925000Y-82435700D03*
X84925000Y-81800700D03*
X84925000Y-81165700D03*
X84925000Y-80530700D03*
X84925000Y-79895700D03*
X84925000Y-79260700D03*
X84925000Y-78625700D03*
X84925000Y-77990700D03*
%TD*%
D22*
%TO.C,Q9*%
X108068334Y-139467763D03*
X109968334Y-139467763D03*
X109018334Y-137592763D03*
%TD*%
D20*
%TO.C,C2*%
X71156751Y-120686751D03*
X69813249Y-119343249D03*
%TD*%
D37*
%TO.C,R28*%
X82552000Y-89603900D03*
X82552000Y-92528900D03*
%TD*%
D53*
%TO.C,SW1*%
X61700000Y-111800000D03*
X68000000Y-111800000D03*
X68000000Y-115600000D03*
X61700000Y-115600000D03*
%TD*%
D32*
%TO.C,R113*%
X85357400Y-66651200D03*
X85357400Y-69576200D03*
%TD*%
D19*
%TO.C,C10*%
X103616800Y-131521200D03*
X101716800Y-131521200D03*
%TD*%
D50*
%TO.C,C17*%
X75565000Y-108143000D03*
X75565000Y-110043000D03*
%TD*%
%TO.C,C34*%
X86362000Y-89674400D03*
X86362000Y-91574400D03*
%TD*%
D10*
%TO.C,C19*%
X103743000Y-107420000D03*
X102193000Y-107420000D03*
%TD*%
D12*
%TO.C,R37*%
X141875000Y-125700000D03*
X143525000Y-125700000D03*
%TD*%
D54*
%TO.C,R21*%
X134620000Y-83250500D03*
X134620000Y-80325500D03*
%TD*%
D15*
%TO.C,R55*%
X143820000Y-138516000D03*
X143820000Y-136866000D03*
%TD*%
D12*
%TO.C,R17*%
X138425000Y-114822000D03*
X140075000Y-114822000D03*
%TD*%
D55*
%TO.C,U15*%
X79425800Y-100186000D03*
X80695800Y-100186000D03*
X81965800Y-100186000D03*
X83235800Y-100186000D03*
X83235800Y-94886000D03*
X81965800Y-94886000D03*
X80695800Y-94886000D03*
X79425800Y-94886000D03*
%TD*%
D15*
%TO.C,R5*%
X110000000Y-145825000D03*
X110000000Y-144175000D03*
%TD*%
D14*
%TO.C,R30*%
X114450000Y-147975000D03*
X114450000Y-149625000D03*
%TD*%
D21*
%TO.C,C41*%
X68900000Y-109200000D03*
X68900000Y-107300000D03*
%TD*%
D15*
%TO.C,R29*%
X114450000Y-143875000D03*
X114450000Y-142225000D03*
%TD*%
D50*
%TO.C,C56*%
X82513000Y-45198000D03*
X82513000Y-47098000D03*
%TD*%
D27*
%TO.C,D25*%
X125512000Y-130797000D03*
X125512000Y-128697000D03*
%TD*%
D50*
%TO.C,C53*%
X82542400Y-60184000D03*
X82542400Y-62084000D03*
%TD*%
D18*
%TO.C,C43*%
X134425000Y-132100000D03*
X135975000Y-132100000D03*
%TD*%
D56*
%TO.C,Y1*%
X69397000Y-122388200D03*
X67841365Y-120832565D03*
X66639284Y-122034646D03*
X68194919Y-123590281D03*
%TD*%
D11*
%TO.C,R13*%
X104457000Y-90170000D03*
X102807000Y-90170000D03*
%TD*%
D18*
%TO.C,C30*%
X97475000Y-116000000D03*
X99025000Y-116000000D03*
%TD*%
D14*
%TO.C,R32*%
X106351334Y-138086263D03*
X106351334Y-139736263D03*
%TD*%
M02*
