%TF.GenerationSoftware,KiCad,Pcbnew,(6.0.7)*%
%TF.CreationDate,2022-10-12T02:09:26-03:00*%
%TF.ProjectId,uEFI_rev3,75454649-5f72-4657-9633-2e6b69636164,v3.0*%
%TF.SameCoordinates,Original*%
%TF.FileFunction,Legend,Bot*%
%TF.FilePolarity,Positive*%
%FSLAX46Y46*%
G04 Gerber Fmt 4.6, Leading zero omitted, Abs format (unit mm)*
G04 Created by KiCad (PCBNEW (6.0.7)) date 2022-10-12 02:09:26*
%MOMM*%
%LPD*%
G01*
G04 APERTURE LIST*
G04 Aperture macros list*
%AMRoundRect*
0 Rectangle with rounded corners*
0 $1 Rounding radius*
0 $2 $3 $4 $5 $6 $7 $8 $9 X,Y pos of 4 corners*
0 Add a 4 corners polygon primitive as box body*
4,1,4,$2,$3,$4,$5,$6,$7,$8,$9,$2,$3,0*
0 Add four circle primitives for the rounded corners*
1,1,$1+$1,$2,$3*
1,1,$1+$1,$4,$5*
1,1,$1+$1,$6,$7*
1,1,$1+$1,$8,$9*
0 Add four rect primitives between the rounded corners*
20,1,$1+$1,$2,$3,$4,$5,0*
20,1,$1+$1,$4,$5,$6,$7,0*
20,1,$1+$1,$6,$7,$8,$9,0*
20,1,$1+$1,$8,$9,$2,$3,0*%
%AMFreePoly0*
4,1,22,0.500000,-0.750000,0.000000,-0.750000,0.000000,-0.745033,-0.079941,-0.743568,-0.215256,-0.701293,-0.333266,-0.622738,-0.424486,-0.514219,-0.481581,-0.384460,-0.499164,-0.250000,-0.500000,-0.250000,-0.500000,0.250000,-0.499164,0.250000,-0.499963,0.256109,-0.478152,0.396186,-0.417904,0.524511,-0.324060,0.630769,-0.204165,0.706417,-0.067858,0.745374,0.000000,0.744959,0.000000,0.750000,
0.500000,0.750000,0.500000,-0.750000,0.500000,-0.750000,$1*%
%AMFreePoly1*
4,1,20,0.000000,0.744959,0.073905,0.744508,0.209726,0.703889,0.328688,0.626782,0.421226,0.519385,0.479903,0.390333,0.500000,0.250000,0.500000,-0.250000,0.499851,-0.262216,0.476331,-0.402017,0.414519,-0.529596,0.319384,-0.634700,0.198574,-0.708877,0.061801,-0.746166,0.000000,-0.745033,0.000000,-0.750000,-0.500000,-0.750000,-0.500000,0.750000,0.000000,0.750000,0.000000,0.744959,
0.000000,0.744959,$1*%
G04 Aperture macros list end*
%ADD10C,0.120000*%
%ADD11C,0.150000*%
%ADD12R,1.700000X1.700000*%
%ADD13C,1.700000*%
%ADD14C,3.500000*%
%ADD15C,0.700000*%
%ADD16C,4.400000*%
%ADD17R,1.000000X1.000000*%
%ADD18R,2.000000X1.905000*%
%ADD19O,2.000000X1.905000*%
%ADD20O,1.700000X1.700000*%
%ADD21R,1.650000X1.650000*%
%ADD22C,1.650000*%
%ADD23C,2.374900*%
%ADD24C,0.990600*%
%ADD25O,1.000000X1.000000*%
%ADD26C,1.800000*%
%ADD27C,4.125000*%
%ADD28C,2.000000*%
%ADD29RoundRect,0.243750X0.243750X0.456250X-0.243750X0.456250X-0.243750X-0.456250X0.243750X-0.456250X0*%
%ADD30R,2.000000X2.000000*%
%ADD31FreePoly0,180.000000*%
%ADD32FreePoly1,180.000000*%
%ADD33RoundRect,0.200000X0.200000X0.275000X-0.200000X0.275000X-0.200000X-0.275000X0.200000X-0.275000X0*%
%ADD34FreePoly0,90.000000*%
%ADD35FreePoly1,90.000000*%
G04 APERTURE END LIST*
D10*
X146990000Y-142502000D02*
X129490000Y-142502000D01*
X129490000Y-142502000D02*
X129490000Y-151752000D01*
X129490000Y-151752000D02*
X146990000Y-151752000D01*
X146990000Y-151752000D02*
X146990000Y-142502000D01*
X133807200Y-58318400D02*
X138734800Y-58318400D01*
X138734800Y-58318400D02*
X138734800Y-51663600D01*
X138734800Y-51663600D02*
X133807200Y-51663600D01*
X133807200Y-51663600D02*
X133807200Y-58318400D01*
X128117600Y-58318400D02*
X133045200Y-58318400D01*
X133045200Y-58318400D02*
X133045200Y-49479200D01*
X133045200Y-49479200D02*
X128117600Y-49479200D01*
X128117600Y-49479200D02*
X128117600Y-58318400D01*
X146990000Y-144477000D02*
X129490000Y-144477000D01*
X122885200Y-53848000D02*
X127812800Y-53848000D01*
X146940000Y-146827000D02*
X129540000Y-146827000D01*
X141750000Y-142500000D02*
X141750000Y-146800000D01*
X122885200Y-58267600D02*
X127812800Y-58267600D01*
X127812800Y-58267600D02*
X127812800Y-49428400D01*
X127812800Y-49428400D02*
X122885200Y-49428400D01*
X122885200Y-49428400D02*
X122885200Y-58267600D01*
D11*
X140051904Y-144054380D02*
X139290000Y-143054380D01*
X139909047Y-143054380D02*
X139813809Y-143102000D01*
X139766190Y-143197238D01*
X139813809Y-143292476D01*
X139909047Y-143340095D01*
X140004285Y-143292476D01*
X140051904Y-143197238D01*
X140004285Y-143102000D01*
X139909047Y-143054380D01*
X139337619Y-144006761D02*
X139290000Y-143911523D01*
X139337619Y-143816285D01*
X139432857Y-143768666D01*
X139528095Y-143816285D01*
X139575714Y-143911523D01*
X139528095Y-144006761D01*
X139432857Y-144054380D01*
X139337619Y-144006761D01*
X138909047Y-144054380D02*
X138147142Y-143054380D01*
X138766190Y-143054380D02*
X138670952Y-143102000D01*
X138623333Y-143197238D01*
X138670952Y-143292476D01*
X138766190Y-143340095D01*
X138861428Y-143292476D01*
X138909047Y-143197238D01*
X138861428Y-143102000D01*
X138766190Y-143054380D01*
X138194761Y-144006761D02*
X138147142Y-143911523D01*
X138194761Y-143816285D01*
X138290000Y-143768666D01*
X138385238Y-143816285D01*
X138432857Y-143911523D01*
X138385238Y-144006761D01*
X138290000Y-144054380D01*
X138194761Y-144006761D01*
X137813809Y-143387714D02*
X137575714Y-144054380D01*
X137337619Y-143387714D01*
X136575714Y-144006761D02*
X136670952Y-144054380D01*
X136861428Y-144054380D01*
X136956666Y-144006761D01*
X137004285Y-143911523D01*
X137004285Y-143530571D01*
X136956666Y-143435333D01*
X136861428Y-143387714D01*
X136670952Y-143387714D01*
X136575714Y-143435333D01*
X136528095Y-143530571D01*
X136528095Y-143625809D01*
X137004285Y-143721047D01*
X136099523Y-144054380D02*
X136099523Y-143387714D01*
X136099523Y-143578190D02*
X136051904Y-143482952D01*
X136004285Y-143435333D01*
X135909047Y-143387714D01*
X135813809Y-143387714D01*
X135528095Y-144006761D02*
X135432857Y-144054380D01*
X135242380Y-144054380D01*
X135147142Y-144006761D01*
X135099523Y-143911523D01*
X135099523Y-143863904D01*
X135147142Y-143768666D01*
X135242380Y-143721047D01*
X135385238Y-143721047D01*
X135480476Y-143673428D01*
X135528095Y-143578190D01*
X135528095Y-143530571D01*
X135480476Y-143435333D01*
X135385238Y-143387714D01*
X135242380Y-143387714D01*
X135147142Y-143435333D01*
X134670952Y-144054380D02*
X134670952Y-143387714D01*
X134670952Y-143054380D02*
X134718571Y-143102000D01*
X134670952Y-143149619D01*
X134623333Y-143102000D01*
X134670952Y-143054380D01*
X134670952Y-143149619D01*
X134051904Y-144054380D02*
X134147142Y-144006761D01*
X134194761Y-143959142D01*
X134242380Y-143863904D01*
X134242380Y-143578190D01*
X134194761Y-143482952D01*
X134147142Y-143435333D01*
X134051904Y-143387714D01*
X133909047Y-143387714D01*
X133813809Y-143435333D01*
X133766190Y-143482952D01*
X133718571Y-143578190D01*
X133718571Y-143863904D01*
X133766190Y-143959142D01*
X133813809Y-144006761D01*
X133909047Y-144054380D01*
X134051904Y-144054380D01*
X133290000Y-143387714D02*
X133290000Y-144054380D01*
X133290000Y-143482952D02*
X133242380Y-143435333D01*
X133147142Y-143387714D01*
X133004285Y-143387714D01*
X132909047Y-143435333D01*
X132861428Y-143530571D01*
X132861428Y-144054380D01*
X132432857Y-144054380D02*
X131670952Y-143054380D01*
X132290000Y-143054380D02*
X132194761Y-143102000D01*
X132147142Y-143197238D01*
X132194761Y-143292476D01*
X132290000Y-143340095D01*
X132385238Y-143292476D01*
X132432857Y-143197238D01*
X132385238Y-143102000D01*
X132290000Y-143054380D01*
X131718571Y-144006761D02*
X131670952Y-143911523D01*
X131718571Y-143816285D01*
X131813809Y-143768666D01*
X131909047Y-143816285D01*
X131956666Y-143911523D01*
X131909047Y-144006761D01*
X131813809Y-144054380D01*
X131718571Y-144006761D01*
X131290000Y-144054380D02*
X130528095Y-143054380D01*
X131147142Y-143054380D02*
X131051904Y-143102000D01*
X131004285Y-143197238D01*
X131051904Y-143292476D01*
X131147142Y-143340095D01*
X131242380Y-143292476D01*
X131290000Y-143197238D01*
X131242380Y-143102000D01*
X131147142Y-143054380D01*
X130575714Y-144006761D02*
X130528095Y-143911523D01*
X130575714Y-143816285D01*
X130670952Y-143768666D01*
X130766190Y-143816285D01*
X130813809Y-143911523D01*
X130766190Y-144006761D01*
X130670952Y-144054380D01*
X130575714Y-144006761D01*
X138075752Y-53131980D02*
X138075752Y-52131980D01*
X137694800Y-52131980D01*
X137599561Y-52179600D01*
X137551942Y-52227219D01*
X137504323Y-52322457D01*
X137504323Y-52465314D01*
X137551942Y-52560552D01*
X137599561Y-52608171D01*
X137694800Y-52655790D01*
X138075752Y-52655790D01*
X137170990Y-52131980D02*
X136932895Y-53131980D01*
X136742419Y-52417695D01*
X136551942Y-53131980D01*
X136313847Y-52131980D01*
X135932895Y-53131980D02*
X135932895Y-52131980D01*
X135599561Y-52846266D01*
X135266228Y-52131980D01*
X135266228Y-53131980D01*
X134266228Y-53131980D02*
X134837657Y-53131980D01*
X134551942Y-53131980D02*
X134551942Y-52131980D01*
X134647180Y-52274838D01*
X134742419Y-52370076D01*
X134837657Y-52417695D01*
X139609047Y-145229380D02*
X139609047Y-145943666D01*
X139656666Y-146086523D01*
X139751904Y-146181761D01*
X139894761Y-146229380D01*
X139990000Y-146229380D01*
X138656666Y-146229380D02*
X139132857Y-146229380D01*
X139132857Y-145229380D01*
X137751904Y-146134142D02*
X137799523Y-146181761D01*
X137942380Y-146229380D01*
X138037619Y-146229380D01*
X138180476Y-146181761D01*
X138275714Y-146086523D01*
X138323333Y-145991285D01*
X138370952Y-145800809D01*
X138370952Y-145657952D01*
X138323333Y-145467476D01*
X138275714Y-145372238D01*
X138180476Y-145277000D01*
X138037619Y-145229380D01*
X137942380Y-145229380D01*
X137799523Y-145277000D01*
X137751904Y-145324619D01*
X137037619Y-145229380D02*
X137037619Y-145943666D01*
X137085238Y-146086523D01*
X137180476Y-146181761D01*
X137323333Y-146229380D01*
X137418571Y-146229380D01*
X136085238Y-146229380D02*
X136561428Y-146229380D01*
X136561428Y-145229380D01*
X135180476Y-146134142D02*
X135228095Y-146181761D01*
X135370952Y-146229380D01*
X135466190Y-146229380D01*
X135609047Y-146181761D01*
X135704285Y-146086523D01*
X135751904Y-145991285D01*
X135799523Y-145800809D01*
X135799523Y-145657952D01*
X135751904Y-145467476D01*
X135704285Y-145372238D01*
X135609047Y-145277000D01*
X135466190Y-145229380D01*
X135370952Y-145229380D01*
X135228095Y-145277000D01*
X135180476Y-145324619D01*
X134466190Y-145229380D02*
X134466190Y-145943666D01*
X134513809Y-146086523D01*
X134609047Y-146181761D01*
X134751904Y-146229380D01*
X134847142Y-146229380D01*
X133513809Y-146229380D02*
X133990000Y-146229380D01*
X133990000Y-145229380D01*
X132609047Y-146134142D02*
X132656666Y-146181761D01*
X132799523Y-146229380D01*
X132894761Y-146229380D01*
X133037619Y-146181761D01*
X133132857Y-146086523D01*
X133180476Y-145991285D01*
X133228095Y-145800809D01*
X133228095Y-145657952D01*
X133180476Y-145467476D01*
X133132857Y-145372238D01*
X133037619Y-145277000D01*
X132894761Y-145229380D01*
X132799523Y-145229380D01*
X132656666Y-145277000D01*
X132609047Y-145324619D01*
X131894761Y-145229380D02*
X131894761Y-145943666D01*
X131942380Y-146086523D01*
X132037619Y-146181761D01*
X132180476Y-146229380D01*
X132275714Y-146229380D01*
X130942380Y-146229380D02*
X131418571Y-146229380D01*
X131418571Y-145229380D01*
X130037619Y-146134142D02*
X130085238Y-146181761D01*
X130228095Y-146229380D01*
X130323333Y-146229380D01*
X130466190Y-146181761D01*
X130561428Y-146086523D01*
X130609047Y-145991285D01*
X130656666Y-145800809D01*
X130656666Y-145657952D01*
X130609047Y-145467476D01*
X130561428Y-145372238D01*
X130466190Y-145277000D01*
X130323333Y-145229380D01*
X130228095Y-145229380D01*
X130085238Y-145277000D01*
X130037619Y-145324619D01*
X145370238Y-146152380D02*
X145846428Y-146152380D01*
X145846428Y-145152380D01*
X144894047Y-146152380D02*
X144989285Y-146104761D01*
X145036904Y-146057142D01*
X145084523Y-145961904D01*
X145084523Y-145676190D01*
X145036904Y-145580952D01*
X144989285Y-145533333D01*
X144894047Y-145485714D01*
X144751190Y-145485714D01*
X144655952Y-145533333D01*
X144608333Y-145580952D01*
X144560714Y-145676190D01*
X144560714Y-145961904D01*
X144608333Y-146057142D01*
X144655952Y-146104761D01*
X144751190Y-146152380D01*
X144894047Y-146152380D01*
X144275000Y-145485714D02*
X143894047Y-145485714D01*
X144132142Y-145152380D02*
X144132142Y-146009523D01*
X144084523Y-146104761D01*
X143989285Y-146152380D01*
X143894047Y-146152380D01*
X143179761Y-146104761D02*
X143275000Y-146152380D01*
X143465476Y-146152380D01*
X143560714Y-146104761D01*
X143608333Y-146009523D01*
X143608333Y-145628571D01*
X143560714Y-145533333D01*
X143465476Y-145485714D01*
X143275000Y-145485714D01*
X143179761Y-145533333D01*
X143132142Y-145628571D01*
X143132142Y-145723809D01*
X143608333Y-145819047D01*
X142703571Y-146057142D02*
X142655952Y-146104761D01*
X142703571Y-146152380D01*
X142751190Y-146104761D01*
X142703571Y-146057142D01*
X142703571Y-146152380D01*
X142703571Y-145533333D02*
X142655952Y-145580952D01*
X142703571Y-145628571D01*
X142751190Y-145580952D01*
X142703571Y-145533333D01*
X142703571Y-145628571D01*
X146395238Y-148152380D02*
X146395238Y-147152380D01*
X145823809Y-148152380D01*
X145823809Y-147152380D01*
X145204761Y-148152380D02*
X145300000Y-148104761D01*
X145347619Y-148057142D01*
X145395238Y-147961904D01*
X145395238Y-147676190D01*
X145347619Y-147580952D01*
X145300000Y-147533333D01*
X145204761Y-147485714D01*
X145061904Y-147485714D01*
X144966666Y-147533333D01*
X144919047Y-147580952D01*
X144871428Y-147676190D01*
X144871428Y-147961904D01*
X144919047Y-148057142D01*
X144966666Y-148104761D01*
X145061904Y-148152380D01*
X145204761Y-148152380D01*
X144585714Y-147485714D02*
X144204761Y-147485714D01*
X144442857Y-147152380D02*
X144442857Y-148009523D01*
X144395238Y-148104761D01*
X144300000Y-148152380D01*
X144204761Y-148152380D01*
X143490476Y-148104761D02*
X143585714Y-148152380D01*
X143776190Y-148152380D01*
X143871428Y-148104761D01*
X143919047Y-148009523D01*
X143919047Y-147628571D01*
X143871428Y-147533333D01*
X143776190Y-147485714D01*
X143585714Y-147485714D01*
X143490476Y-147533333D01*
X143442857Y-147628571D01*
X143442857Y-147723809D01*
X143919047Y-147819047D01*
X143061904Y-148104761D02*
X142966666Y-148152380D01*
X142776190Y-148152380D01*
X142680952Y-148104761D01*
X142633333Y-148009523D01*
X142633333Y-147961904D01*
X142680952Y-147866666D01*
X142776190Y-147819047D01*
X142919047Y-147819047D01*
X143014285Y-147771428D01*
X143061904Y-147676190D01*
X143061904Y-147628571D01*
X143014285Y-147533333D01*
X142919047Y-147485714D01*
X142776190Y-147485714D01*
X142680952Y-147533333D01*
X142204761Y-148057142D02*
X142157142Y-148104761D01*
X142204761Y-148152380D01*
X142252380Y-148104761D01*
X142204761Y-148057142D01*
X142204761Y-148152380D01*
X142204761Y-147533333D02*
X142157142Y-147580952D01*
X142204761Y-147628571D01*
X142252380Y-147580952D01*
X142204761Y-147533333D01*
X142204761Y-147628571D01*
X126139485Y-55373542D02*
X126187104Y-55421161D01*
X126329961Y-55468780D01*
X126425200Y-55468780D01*
X126568057Y-55421161D01*
X126663295Y-55325923D01*
X126710914Y-55230685D01*
X126758533Y-55040209D01*
X126758533Y-54897352D01*
X126710914Y-54706876D01*
X126663295Y-54611638D01*
X126568057Y-54516400D01*
X126425200Y-54468780D01*
X126329961Y-54468780D01*
X126187104Y-54516400D01*
X126139485Y-54564019D01*
X125710914Y-55468780D02*
X125710914Y-54468780D01*
X125710914Y-54944971D02*
X125139485Y-54944971D01*
X125139485Y-55468780D02*
X125139485Y-54468780D01*
X124663295Y-55468780D02*
X124663295Y-54468780D01*
X124091866Y-55468780D02*
X124520438Y-54897352D01*
X124091866Y-54468780D02*
X124663295Y-55040209D01*
X145238095Y-144002380D02*
X145571428Y-143526190D01*
X145809523Y-144002380D02*
X145809523Y-143002380D01*
X145428571Y-143002380D01*
X145333333Y-143050000D01*
X145285714Y-143097619D01*
X145238095Y-143192857D01*
X145238095Y-143335714D01*
X145285714Y-143430952D01*
X145333333Y-143478571D01*
X145428571Y-143526190D01*
X145809523Y-143526190D01*
X144428571Y-143954761D02*
X144523809Y-144002380D01*
X144714285Y-144002380D01*
X144809523Y-143954761D01*
X144857142Y-143859523D01*
X144857142Y-143478571D01*
X144809523Y-143383333D01*
X144714285Y-143335714D01*
X144523809Y-143335714D01*
X144428571Y-143383333D01*
X144380952Y-143478571D01*
X144380952Y-143573809D01*
X144857142Y-143669047D01*
X144047619Y-143335714D02*
X143809523Y-144002380D01*
X143571428Y-143335714D01*
X143190476Y-143907142D02*
X143142857Y-143954761D01*
X143190476Y-144002380D01*
X143238095Y-143954761D01*
X143190476Y-143907142D01*
X143190476Y-144002380D01*
X143190476Y-143383333D02*
X143142857Y-143430952D01*
X143190476Y-143478571D01*
X143238095Y-143430952D01*
X143190476Y-143383333D01*
X143190476Y-143478571D01*
X132436952Y-50998380D02*
X132436952Y-49998380D01*
X132056000Y-49998380D01*
X131960761Y-50046000D01*
X131913142Y-50093619D01*
X131865523Y-50188857D01*
X131865523Y-50331714D01*
X131913142Y-50426952D01*
X131960761Y-50474571D01*
X132056000Y-50522190D01*
X132436952Y-50522190D01*
X131532190Y-49998380D02*
X131294095Y-50998380D01*
X131103619Y-50284095D01*
X130913142Y-50998380D01*
X130675047Y-49998380D01*
X130294095Y-50998380D02*
X130294095Y-49998380D01*
X129960761Y-50712666D01*
X129627428Y-49998380D01*
X129627428Y-50998380D01*
X128960761Y-49998380D02*
X128865523Y-49998380D01*
X128770285Y-50046000D01*
X128722666Y-50093619D01*
X128675047Y-50188857D01*
X128627428Y-50379333D01*
X128627428Y-50617428D01*
X128675047Y-50807904D01*
X128722666Y-50903142D01*
X128770285Y-50950761D01*
X128865523Y-50998380D01*
X128960761Y-50998380D01*
X129056000Y-50950761D01*
X129103619Y-50903142D01*
X129151238Y-50807904D01*
X129198857Y-50617428D01*
X129198857Y-50379333D01*
X129151238Y-50188857D01*
X129103619Y-50093619D01*
X129056000Y-50046000D01*
X128960761Y-49998380D01*
X126401390Y-50998380D02*
X126401390Y-49998380D01*
X126068057Y-50712666D01*
X125734723Y-49998380D01*
X125734723Y-50998380D01*
X125258533Y-50998380D02*
X125258533Y-49998380D01*
X124306152Y-50998380D02*
X124782342Y-50998380D01*
X124782342Y-49998380D01*
%TO.C,TP2*%
X75244411Y-132491648D02*
X75244411Y-133063076D01*
X76244411Y-132777362D02*
X75244411Y-132777362D01*
X76244411Y-133396410D02*
X75244411Y-133396410D01*
X75244411Y-133777362D01*
X75292031Y-133872600D01*
X75339650Y-133920219D01*
X75434888Y-133967838D01*
X75577745Y-133967838D01*
X75672983Y-133920219D01*
X75720602Y-133872600D01*
X75768221Y-133777362D01*
X75768221Y-133396410D01*
X75339650Y-134348791D02*
X75292031Y-134396410D01*
X75244411Y-134491648D01*
X75244411Y-134729743D01*
X75292031Y-134824981D01*
X75339650Y-134872600D01*
X75434888Y-134920219D01*
X75530126Y-134920219D01*
X75672983Y-134872600D01*
X76244411Y-134301172D01*
X76244411Y-134920219D01*
%TO.C,H2*%
X151510904Y-49068380D02*
X151510904Y-48068380D01*
X151510904Y-48544571D02*
X150939476Y-48544571D01*
X150939476Y-49068380D02*
X150939476Y-48068380D01*
X150510904Y-48163619D02*
X150463285Y-48116000D01*
X150368047Y-48068380D01*
X150129952Y-48068380D01*
X150034714Y-48116000D01*
X149987095Y-48163619D01*
X149939476Y-48258857D01*
X149939476Y-48354095D01*
X149987095Y-48496952D01*
X150558523Y-49068380D01*
X149939476Y-49068380D01*
%TO.C,TP23*%
X94575095Y-126198380D02*
X94003666Y-126198380D01*
X94289380Y-127198380D02*
X94289380Y-126198380D01*
X93670333Y-127198380D02*
X93670333Y-126198380D01*
X93289380Y-126198380D01*
X93194142Y-126246000D01*
X93146523Y-126293619D01*
X93098904Y-126388857D01*
X93098904Y-126531714D01*
X93146523Y-126626952D01*
X93194142Y-126674571D01*
X93289380Y-126722190D01*
X93670333Y-126722190D01*
X92717952Y-126293619D02*
X92670333Y-126246000D01*
X92575095Y-126198380D01*
X92337000Y-126198380D01*
X92241761Y-126246000D01*
X92194142Y-126293619D01*
X92146523Y-126388857D01*
X92146523Y-126484095D01*
X92194142Y-126626952D01*
X92765571Y-127198380D01*
X92146523Y-127198380D01*
X91813190Y-126198380D02*
X91194142Y-126198380D01*
X91527476Y-126579333D01*
X91384619Y-126579333D01*
X91289380Y-126626952D01*
X91241761Y-126674571D01*
X91194142Y-126769809D01*
X91194142Y-127007904D01*
X91241761Y-127103142D01*
X91289380Y-127150761D01*
X91384619Y-127198380D01*
X91670333Y-127198380D01*
X91765571Y-127150761D01*
X91813190Y-127103142D01*
%TO.C,TP29*%
X94575095Y-119975380D02*
X94003666Y-119975380D01*
X94289380Y-120975380D02*
X94289380Y-119975380D01*
X93670333Y-120975380D02*
X93670333Y-119975380D01*
X93289380Y-119975380D01*
X93194142Y-120023000D01*
X93146523Y-120070619D01*
X93098904Y-120165857D01*
X93098904Y-120308714D01*
X93146523Y-120403952D01*
X93194142Y-120451571D01*
X93289380Y-120499190D01*
X93670333Y-120499190D01*
X92717952Y-120070619D02*
X92670333Y-120023000D01*
X92575095Y-119975380D01*
X92337000Y-119975380D01*
X92241761Y-120023000D01*
X92194142Y-120070619D01*
X92146523Y-120165857D01*
X92146523Y-120261095D01*
X92194142Y-120403952D01*
X92765571Y-120975380D01*
X92146523Y-120975380D01*
X91670333Y-120975380D02*
X91479857Y-120975380D01*
X91384619Y-120927761D01*
X91337000Y-120880142D01*
X91241761Y-120737285D01*
X91194142Y-120546809D01*
X91194142Y-120165857D01*
X91241761Y-120070619D01*
X91289380Y-120023000D01*
X91384619Y-119975380D01*
X91575095Y-119975380D01*
X91670333Y-120023000D01*
X91717952Y-120070619D01*
X91765571Y-120165857D01*
X91765571Y-120403952D01*
X91717952Y-120499190D01*
X91670333Y-120546809D01*
X91575095Y-120594428D01*
X91384619Y-120594428D01*
X91289380Y-120546809D01*
X91241761Y-120499190D01*
X91194142Y-120403952D01*
%TO.C,TP28*%
X94575095Y-117943380D02*
X94003666Y-117943380D01*
X94289380Y-118943380D02*
X94289380Y-117943380D01*
X93670333Y-118943380D02*
X93670333Y-117943380D01*
X93289380Y-117943380D01*
X93194142Y-117991000D01*
X93146523Y-118038619D01*
X93098904Y-118133857D01*
X93098904Y-118276714D01*
X93146523Y-118371952D01*
X93194142Y-118419571D01*
X93289380Y-118467190D01*
X93670333Y-118467190D01*
X92717952Y-118038619D02*
X92670333Y-117991000D01*
X92575095Y-117943380D01*
X92337000Y-117943380D01*
X92241761Y-117991000D01*
X92194142Y-118038619D01*
X92146523Y-118133857D01*
X92146523Y-118229095D01*
X92194142Y-118371952D01*
X92765571Y-118943380D01*
X92146523Y-118943380D01*
X91575095Y-118371952D02*
X91670333Y-118324333D01*
X91717952Y-118276714D01*
X91765571Y-118181476D01*
X91765571Y-118133857D01*
X91717952Y-118038619D01*
X91670333Y-117991000D01*
X91575095Y-117943380D01*
X91384619Y-117943380D01*
X91289380Y-117991000D01*
X91241761Y-118038619D01*
X91194142Y-118133857D01*
X91194142Y-118181476D01*
X91241761Y-118276714D01*
X91289380Y-118324333D01*
X91384619Y-118371952D01*
X91575095Y-118371952D01*
X91670333Y-118419571D01*
X91717952Y-118467190D01*
X91765571Y-118562428D01*
X91765571Y-118752904D01*
X91717952Y-118848142D01*
X91670333Y-118895761D01*
X91575095Y-118943380D01*
X91384619Y-118943380D01*
X91289380Y-118895761D01*
X91241761Y-118848142D01*
X91194142Y-118752904D01*
X91194142Y-118562428D01*
X91241761Y-118467190D01*
X91289380Y-118419571D01*
X91384619Y-118371952D01*
%TO.C,TP20*%
X100417095Y-123912380D02*
X99845666Y-123912380D01*
X100131380Y-124912380D02*
X100131380Y-123912380D01*
X99512333Y-124912380D02*
X99512333Y-123912380D01*
X99131380Y-123912380D01*
X99036142Y-123960000D01*
X98988523Y-124007619D01*
X98940904Y-124102857D01*
X98940904Y-124245714D01*
X98988523Y-124340952D01*
X99036142Y-124388571D01*
X99131380Y-124436190D01*
X99512333Y-124436190D01*
X98559952Y-124007619D02*
X98512333Y-123960000D01*
X98417095Y-123912380D01*
X98179000Y-123912380D01*
X98083761Y-123960000D01*
X98036142Y-124007619D01*
X97988523Y-124102857D01*
X97988523Y-124198095D01*
X98036142Y-124340952D01*
X98607571Y-124912380D01*
X97988523Y-124912380D01*
X97369476Y-123912380D02*
X97274238Y-123912380D01*
X97179000Y-123960000D01*
X97131380Y-124007619D01*
X97083761Y-124102857D01*
X97036142Y-124293333D01*
X97036142Y-124531428D01*
X97083761Y-124721904D01*
X97131380Y-124817142D01*
X97179000Y-124864761D01*
X97274238Y-124912380D01*
X97369476Y-124912380D01*
X97464714Y-124864761D01*
X97512333Y-124817142D01*
X97559952Y-124721904D01*
X97607571Y-124531428D01*
X97607571Y-124293333D01*
X97559952Y-124102857D01*
X97512333Y-124007619D01*
X97464714Y-123960000D01*
X97369476Y-123912380D01*
%TO.C,TP7*%
X82801904Y-76972780D02*
X82230476Y-76972780D01*
X82516190Y-77972780D02*
X82516190Y-76972780D01*
X81897142Y-77972780D02*
X81897142Y-76972780D01*
X81516190Y-76972780D01*
X81420952Y-77020400D01*
X81373333Y-77068019D01*
X81325714Y-77163257D01*
X81325714Y-77306114D01*
X81373333Y-77401352D01*
X81420952Y-77448971D01*
X81516190Y-77496590D01*
X81897142Y-77496590D01*
X80992380Y-76972780D02*
X80325714Y-76972780D01*
X80754285Y-77972780D01*
%TO.C,TP9*%
X77661904Y-103338380D02*
X77090476Y-103338380D01*
X77376190Y-104338380D02*
X77376190Y-103338380D01*
X76757142Y-104338380D02*
X76757142Y-103338380D01*
X76376190Y-103338380D01*
X76280952Y-103386000D01*
X76233333Y-103433619D01*
X76185714Y-103528857D01*
X76185714Y-103671714D01*
X76233333Y-103766952D01*
X76280952Y-103814571D01*
X76376190Y-103862190D01*
X76757142Y-103862190D01*
X75709523Y-104338380D02*
X75519047Y-104338380D01*
X75423809Y-104290761D01*
X75376190Y-104243142D01*
X75280952Y-104100285D01*
X75233333Y-103909809D01*
X75233333Y-103528857D01*
X75280952Y-103433619D01*
X75328571Y-103386000D01*
X75423809Y-103338380D01*
X75614285Y-103338380D01*
X75709523Y-103386000D01*
X75757142Y-103433619D01*
X75804761Y-103528857D01*
X75804761Y-103766952D01*
X75757142Y-103862190D01*
X75709523Y-103909809D01*
X75614285Y-103957428D01*
X75423809Y-103957428D01*
X75328571Y-103909809D01*
X75280952Y-103862190D01*
X75233333Y-103766952D01*
%TO.C,JP3*%
X65633333Y-71552380D02*
X65633333Y-72266666D01*
X65680952Y-72409523D01*
X65776190Y-72504761D01*
X65919047Y-72552380D01*
X66014285Y-72552380D01*
X65157142Y-72552380D02*
X65157142Y-71552380D01*
X64776190Y-71552380D01*
X64680952Y-71600000D01*
X64633333Y-71647619D01*
X64585714Y-71742857D01*
X64585714Y-71885714D01*
X64633333Y-71980952D01*
X64680952Y-72028571D01*
X64776190Y-72076190D01*
X65157142Y-72076190D01*
X64252380Y-71552380D02*
X63633333Y-71552380D01*
X63966666Y-71933333D01*
X63823809Y-71933333D01*
X63728571Y-71980952D01*
X63680952Y-72028571D01*
X63633333Y-72123809D01*
X63633333Y-72361904D01*
X63680952Y-72457142D01*
X63728571Y-72504761D01*
X63823809Y-72552380D01*
X64109523Y-72552380D01*
X64204761Y-72504761D01*
X64252380Y-72457142D01*
%TO.C,JP2*%
X65633333Y-63752380D02*
X65633333Y-64466666D01*
X65680952Y-64609523D01*
X65776190Y-64704761D01*
X65919047Y-64752380D01*
X66014285Y-64752380D01*
X65157142Y-64752380D02*
X65157142Y-63752380D01*
X64776190Y-63752380D01*
X64680952Y-63800000D01*
X64633333Y-63847619D01*
X64585714Y-63942857D01*
X64585714Y-64085714D01*
X64633333Y-64180952D01*
X64680952Y-64228571D01*
X64776190Y-64276190D01*
X65157142Y-64276190D01*
X64204761Y-63847619D02*
X64157142Y-63800000D01*
X64061904Y-63752380D01*
X63823809Y-63752380D01*
X63728571Y-63800000D01*
X63680952Y-63847619D01*
X63633333Y-63942857D01*
X63633333Y-64038095D01*
X63680952Y-64180952D01*
X64252380Y-64752380D01*
X63633333Y-64752380D01*
%TO.C,R18*%
X152026857Y-91384380D02*
X152360190Y-90908190D01*
X152598285Y-91384380D02*
X152598285Y-90384380D01*
X152217333Y-90384380D01*
X152122095Y-90432000D01*
X152074476Y-90479619D01*
X152026857Y-90574857D01*
X152026857Y-90717714D01*
X152074476Y-90812952D01*
X152122095Y-90860571D01*
X152217333Y-90908190D01*
X152598285Y-90908190D01*
X151074476Y-91384380D02*
X151645904Y-91384380D01*
X151360190Y-91384380D02*
X151360190Y-90384380D01*
X151455428Y-90527238D01*
X151550666Y-90622476D01*
X151645904Y-90670095D01*
X150503047Y-90812952D02*
X150598285Y-90765333D01*
X150645904Y-90717714D01*
X150693523Y-90622476D01*
X150693523Y-90574857D01*
X150645904Y-90479619D01*
X150598285Y-90432000D01*
X150503047Y-90384380D01*
X150312571Y-90384380D01*
X150217333Y-90432000D01*
X150169714Y-90479619D01*
X150122095Y-90574857D01*
X150122095Y-90622476D01*
X150169714Y-90717714D01*
X150217333Y-90765333D01*
X150312571Y-90812952D01*
X150503047Y-90812952D01*
X150598285Y-90860571D01*
X150645904Y-90908190D01*
X150693523Y-91003428D01*
X150693523Y-91193904D01*
X150645904Y-91289142D01*
X150598285Y-91336761D01*
X150503047Y-91384380D01*
X150312571Y-91384380D01*
X150217333Y-91336761D01*
X150169714Y-91289142D01*
X150122095Y-91193904D01*
X150122095Y-91003428D01*
X150169714Y-90908190D01*
X150217333Y-90860571D01*
X150312571Y-90812952D01*
%TO.C,TP18*%
X71674995Y-94372280D02*
X71103566Y-94372280D01*
X71389280Y-95372280D02*
X71389280Y-94372280D01*
X70770233Y-95372280D02*
X70770233Y-94372280D01*
X70389280Y-94372280D01*
X70294042Y-94419900D01*
X70246423Y-94467519D01*
X70198804Y-94562757D01*
X70198804Y-94705614D01*
X70246423Y-94800852D01*
X70294042Y-94848471D01*
X70389280Y-94896090D01*
X70770233Y-94896090D01*
X69246423Y-95372280D02*
X69817852Y-95372280D01*
X69532138Y-95372280D02*
X69532138Y-94372280D01*
X69627376Y-94515138D01*
X69722614Y-94610376D01*
X69817852Y-94657995D01*
X68674995Y-94800852D02*
X68770233Y-94753233D01*
X68817852Y-94705614D01*
X68865471Y-94610376D01*
X68865471Y-94562757D01*
X68817852Y-94467519D01*
X68770233Y-94419900D01*
X68674995Y-94372280D01*
X68484519Y-94372280D01*
X68389280Y-94419900D01*
X68341661Y-94467519D01*
X68294042Y-94562757D01*
X68294042Y-94610376D01*
X68341661Y-94705614D01*
X68389280Y-94753233D01*
X68484519Y-94800852D01*
X68674995Y-94800852D01*
X68770233Y-94848471D01*
X68817852Y-94896090D01*
X68865471Y-94991328D01*
X68865471Y-95181804D01*
X68817852Y-95277042D01*
X68770233Y-95324661D01*
X68674995Y-95372280D01*
X68484519Y-95372280D01*
X68389280Y-95324661D01*
X68341661Y-95277042D01*
X68294042Y-95181804D01*
X68294042Y-94991328D01*
X68341661Y-94896090D01*
X68389280Y-94848471D01*
X68484519Y-94800852D01*
%TO.C,TP1*%
X86961904Y-115852380D02*
X86390476Y-115852380D01*
X86676190Y-116852380D02*
X86676190Y-115852380D01*
X86057142Y-116852380D02*
X86057142Y-115852380D01*
X85676190Y-115852380D01*
X85580952Y-115900000D01*
X85533333Y-115947619D01*
X85485714Y-116042857D01*
X85485714Y-116185714D01*
X85533333Y-116280952D01*
X85580952Y-116328571D01*
X85676190Y-116376190D01*
X86057142Y-116376190D01*
X84533333Y-116852380D02*
X85104761Y-116852380D01*
X84819047Y-116852380D02*
X84819047Y-115852380D01*
X84914285Y-115995238D01*
X85009523Y-116090476D01*
X85104761Y-116138095D01*
%TO.C,JP4*%
X135453333Y-89368380D02*
X135453333Y-90082666D01*
X135500952Y-90225523D01*
X135596190Y-90320761D01*
X135739047Y-90368380D01*
X135834285Y-90368380D01*
X134977142Y-90368380D02*
X134977142Y-89368380D01*
X134596190Y-89368380D01*
X134500952Y-89416000D01*
X134453333Y-89463619D01*
X134405714Y-89558857D01*
X134405714Y-89701714D01*
X134453333Y-89796952D01*
X134500952Y-89844571D01*
X134596190Y-89892190D01*
X134977142Y-89892190D01*
X133548571Y-89701714D02*
X133548571Y-90368380D01*
X133786666Y-89320761D02*
X134024761Y-90035047D01*
X133405714Y-90035047D01*
%TO.C,TP24*%
X114641095Y-120102380D02*
X114069666Y-120102380D01*
X114355380Y-121102380D02*
X114355380Y-120102380D01*
X113736333Y-121102380D02*
X113736333Y-120102380D01*
X113355380Y-120102380D01*
X113260142Y-120150000D01*
X113212523Y-120197619D01*
X113164904Y-120292857D01*
X113164904Y-120435714D01*
X113212523Y-120530952D01*
X113260142Y-120578571D01*
X113355380Y-120626190D01*
X113736333Y-120626190D01*
X112783952Y-120197619D02*
X112736333Y-120150000D01*
X112641095Y-120102380D01*
X112403000Y-120102380D01*
X112307761Y-120150000D01*
X112260142Y-120197619D01*
X112212523Y-120292857D01*
X112212523Y-120388095D01*
X112260142Y-120530952D01*
X112831571Y-121102380D01*
X112212523Y-121102380D01*
X111355380Y-120435714D02*
X111355380Y-121102380D01*
X111593476Y-120054761D02*
X111831571Y-120769047D01*
X111212523Y-120769047D01*
%TO.C,TP25*%
X114641095Y-122007380D02*
X114069666Y-122007380D01*
X114355380Y-123007380D02*
X114355380Y-122007380D01*
X113736333Y-123007380D02*
X113736333Y-122007380D01*
X113355380Y-122007380D01*
X113260142Y-122055000D01*
X113212523Y-122102619D01*
X113164904Y-122197857D01*
X113164904Y-122340714D01*
X113212523Y-122435952D01*
X113260142Y-122483571D01*
X113355380Y-122531190D01*
X113736333Y-122531190D01*
X112783952Y-122102619D02*
X112736333Y-122055000D01*
X112641095Y-122007380D01*
X112403000Y-122007380D01*
X112307761Y-122055000D01*
X112260142Y-122102619D01*
X112212523Y-122197857D01*
X112212523Y-122293095D01*
X112260142Y-122435952D01*
X112831571Y-123007380D01*
X112212523Y-123007380D01*
X111307761Y-122007380D02*
X111783952Y-122007380D01*
X111831571Y-122483571D01*
X111783952Y-122435952D01*
X111688714Y-122388333D01*
X111450619Y-122388333D01*
X111355380Y-122435952D01*
X111307761Y-122483571D01*
X111260142Y-122578809D01*
X111260142Y-122816904D01*
X111307761Y-122912142D01*
X111355380Y-122959761D01*
X111450619Y-123007380D01*
X111688714Y-123007380D01*
X111783952Y-122959761D01*
X111831571Y-122912142D01*
%TO.C,JP1*%
X65633333Y-67652380D02*
X65633333Y-68366666D01*
X65680952Y-68509523D01*
X65776190Y-68604761D01*
X65919047Y-68652380D01*
X66014285Y-68652380D01*
X65157142Y-68652380D02*
X65157142Y-67652380D01*
X64776190Y-67652380D01*
X64680952Y-67700000D01*
X64633333Y-67747619D01*
X64585714Y-67842857D01*
X64585714Y-67985714D01*
X64633333Y-68080952D01*
X64680952Y-68128571D01*
X64776190Y-68176190D01*
X65157142Y-68176190D01*
X63633333Y-68652380D02*
X64204761Y-68652380D01*
X63919047Y-68652380D02*
X63919047Y-67652380D01*
X64014285Y-67795238D01*
X64109523Y-67890476D01*
X64204761Y-67938095D01*
%TO.C,TP27*%
X112990095Y-126071380D02*
X112418666Y-126071380D01*
X112704380Y-127071380D02*
X112704380Y-126071380D01*
X112085333Y-127071380D02*
X112085333Y-126071380D01*
X111704380Y-126071380D01*
X111609142Y-126119000D01*
X111561523Y-126166619D01*
X111513904Y-126261857D01*
X111513904Y-126404714D01*
X111561523Y-126499952D01*
X111609142Y-126547571D01*
X111704380Y-126595190D01*
X112085333Y-126595190D01*
X111132952Y-126166619D02*
X111085333Y-126119000D01*
X110990095Y-126071380D01*
X110752000Y-126071380D01*
X110656761Y-126119000D01*
X110609142Y-126166619D01*
X110561523Y-126261857D01*
X110561523Y-126357095D01*
X110609142Y-126499952D01*
X111180571Y-127071380D01*
X110561523Y-127071380D01*
X110228190Y-126071380D02*
X109561523Y-126071380D01*
X109990095Y-127071380D01*
%TO.C,TP26*%
X114641095Y-124039380D02*
X114069666Y-124039380D01*
X114355380Y-125039380D02*
X114355380Y-124039380D01*
X113736333Y-125039380D02*
X113736333Y-124039380D01*
X113355380Y-124039380D01*
X113260142Y-124087000D01*
X113212523Y-124134619D01*
X113164904Y-124229857D01*
X113164904Y-124372714D01*
X113212523Y-124467952D01*
X113260142Y-124515571D01*
X113355380Y-124563190D01*
X113736333Y-124563190D01*
X112783952Y-124134619D02*
X112736333Y-124087000D01*
X112641095Y-124039380D01*
X112403000Y-124039380D01*
X112307761Y-124087000D01*
X112260142Y-124134619D01*
X112212523Y-124229857D01*
X112212523Y-124325095D01*
X112260142Y-124467952D01*
X112831571Y-125039380D01*
X112212523Y-125039380D01*
X111355380Y-124039380D02*
X111545857Y-124039380D01*
X111641095Y-124087000D01*
X111688714Y-124134619D01*
X111783952Y-124277476D01*
X111831571Y-124467952D01*
X111831571Y-124848904D01*
X111783952Y-124944142D01*
X111736333Y-124991761D01*
X111641095Y-125039380D01*
X111450619Y-125039380D01*
X111355380Y-124991761D01*
X111307761Y-124944142D01*
X111260142Y-124848904D01*
X111260142Y-124610809D01*
X111307761Y-124515571D01*
X111355380Y-124467952D01*
X111450619Y-124420333D01*
X111641095Y-124420333D01*
X111736333Y-124467952D01*
X111783952Y-124515571D01*
X111831571Y-124610809D01*
%TO.C,TP22*%
X100290095Y-125944380D02*
X99718666Y-125944380D01*
X100004380Y-126944380D02*
X100004380Y-125944380D01*
X99385333Y-126944380D02*
X99385333Y-125944380D01*
X99004380Y-125944380D01*
X98909142Y-125992000D01*
X98861523Y-126039619D01*
X98813904Y-126134857D01*
X98813904Y-126277714D01*
X98861523Y-126372952D01*
X98909142Y-126420571D01*
X99004380Y-126468190D01*
X99385333Y-126468190D01*
X98432952Y-126039619D02*
X98385333Y-125992000D01*
X98290095Y-125944380D01*
X98052000Y-125944380D01*
X97956761Y-125992000D01*
X97909142Y-126039619D01*
X97861523Y-126134857D01*
X97861523Y-126230095D01*
X97909142Y-126372952D01*
X98480571Y-126944380D01*
X97861523Y-126944380D01*
X97480571Y-126039619D02*
X97432952Y-125992000D01*
X97337714Y-125944380D01*
X97099619Y-125944380D01*
X97004380Y-125992000D01*
X96956761Y-126039619D01*
X96909142Y-126134857D01*
X96909142Y-126230095D01*
X96956761Y-126372952D01*
X97528190Y-126944380D01*
X96909142Y-126944380D01*
%TO.C,TP21*%
X94702095Y-124039380D02*
X94130666Y-124039380D01*
X94416380Y-125039380D02*
X94416380Y-124039380D01*
X93797333Y-125039380D02*
X93797333Y-124039380D01*
X93416380Y-124039380D01*
X93321142Y-124087000D01*
X93273523Y-124134619D01*
X93225904Y-124229857D01*
X93225904Y-124372714D01*
X93273523Y-124467952D01*
X93321142Y-124515571D01*
X93416380Y-124563190D01*
X93797333Y-124563190D01*
X92844952Y-124134619D02*
X92797333Y-124087000D01*
X92702095Y-124039380D01*
X92464000Y-124039380D01*
X92368761Y-124087000D01*
X92321142Y-124134619D01*
X92273523Y-124229857D01*
X92273523Y-124325095D01*
X92321142Y-124467952D01*
X92892571Y-125039380D01*
X92273523Y-125039380D01*
X91321142Y-125039380D02*
X91892571Y-125039380D01*
X91606857Y-125039380D02*
X91606857Y-124039380D01*
X91702095Y-124182238D01*
X91797333Y-124277476D01*
X91892571Y-124325095D01*
%TO.C,TP8*%
X82801904Y-80372780D02*
X82230476Y-80372780D01*
X82516190Y-81372780D02*
X82516190Y-80372780D01*
X81897142Y-81372780D02*
X81897142Y-80372780D01*
X81516190Y-80372780D01*
X81420952Y-80420400D01*
X81373333Y-80468019D01*
X81325714Y-80563257D01*
X81325714Y-80706114D01*
X81373333Y-80801352D01*
X81420952Y-80848971D01*
X81516190Y-80896590D01*
X81897142Y-80896590D01*
X80754285Y-80801352D02*
X80849523Y-80753733D01*
X80897142Y-80706114D01*
X80944761Y-80610876D01*
X80944761Y-80563257D01*
X80897142Y-80468019D01*
X80849523Y-80420400D01*
X80754285Y-80372780D01*
X80563809Y-80372780D01*
X80468571Y-80420400D01*
X80420952Y-80468019D01*
X80373333Y-80563257D01*
X80373333Y-80610876D01*
X80420952Y-80706114D01*
X80468571Y-80753733D01*
X80563809Y-80801352D01*
X80754285Y-80801352D01*
X80849523Y-80848971D01*
X80897142Y-80896590D01*
X80944761Y-80991828D01*
X80944761Y-81182304D01*
X80897142Y-81277542D01*
X80849523Y-81325161D01*
X80754285Y-81372780D01*
X80563809Y-81372780D01*
X80468571Y-81325161D01*
X80420952Y-81277542D01*
X80373333Y-81182304D01*
X80373333Y-80991828D01*
X80420952Y-80896590D01*
X80468571Y-80848971D01*
X80563809Y-80801352D01*
%TO.C,TP30*%
X94575095Y-122007380D02*
X94003666Y-122007380D01*
X94289380Y-123007380D02*
X94289380Y-122007380D01*
X93670333Y-123007380D02*
X93670333Y-122007380D01*
X93289380Y-122007380D01*
X93194142Y-122055000D01*
X93146523Y-122102619D01*
X93098904Y-122197857D01*
X93098904Y-122340714D01*
X93146523Y-122435952D01*
X93194142Y-122483571D01*
X93289380Y-122531190D01*
X93670333Y-122531190D01*
X92765571Y-122007380D02*
X92146523Y-122007380D01*
X92479857Y-122388333D01*
X92337000Y-122388333D01*
X92241761Y-122435952D01*
X92194142Y-122483571D01*
X92146523Y-122578809D01*
X92146523Y-122816904D01*
X92194142Y-122912142D01*
X92241761Y-122959761D01*
X92337000Y-123007380D01*
X92622714Y-123007380D01*
X92717952Y-122959761D01*
X92765571Y-122912142D01*
X91527476Y-122007380D02*
X91432238Y-122007380D01*
X91337000Y-122055000D01*
X91289380Y-122102619D01*
X91241761Y-122197857D01*
X91194142Y-122388333D01*
X91194142Y-122626428D01*
X91241761Y-122816904D01*
X91289380Y-122912142D01*
X91337000Y-122959761D01*
X91432238Y-123007380D01*
X91527476Y-123007380D01*
X91622714Y-122959761D01*
X91670333Y-122912142D01*
X91717952Y-122816904D01*
X91765571Y-122626428D01*
X91765571Y-122388333D01*
X91717952Y-122197857D01*
X91670333Y-122102619D01*
X91622714Y-122055000D01*
X91527476Y-122007380D01*
D10*
%TO.C,TP2*%
X74800000Y-133400000D02*
G75*
G03*
X74800000Y-133400000I-1200000J0D01*
G01*
%TO.C,F14*%
X125683778Y-57656800D02*
X125166622Y-57656800D01*
X125683778Y-56236800D02*
X125166622Y-56236800D01*
%TO.C,TP23*%
X96458000Y-127446000D02*
X96458000Y-126046000D01*
X96458000Y-126046000D02*
X95058000Y-126046000D01*
X95058000Y-126046000D02*
X95058000Y-127446000D01*
X95058000Y-127446000D02*
X96458000Y-127446000D01*
%TO.C,F12*%
X125734578Y-47296000D02*
X125217422Y-47296000D01*
X125734578Y-48716000D02*
X125217422Y-48716000D01*
%TO.C,F1*%
X118366278Y-54027000D02*
X117849122Y-54027000D01*
X118366278Y-55447000D02*
X117849122Y-55447000D01*
%TO.C,TP5*%
X82090000Y-76268400D02*
X82090000Y-74868400D01*
X80690000Y-74868400D02*
X80690000Y-76268400D01*
X80690000Y-76268400D02*
X82090000Y-76268400D01*
X82090000Y-74868400D02*
X80690000Y-74868400D01*
%TO.C,TP29*%
X95058000Y-121223000D02*
X96458000Y-121223000D01*
X95058000Y-119823000D02*
X95058000Y-121223000D01*
X96458000Y-119823000D02*
X95058000Y-119823000D01*
X96458000Y-121223000D02*
X96458000Y-119823000D01*
%TO.C,TP28*%
X95058000Y-119191000D02*
X96458000Y-119191000D01*
X95058000Y-117791000D02*
X95058000Y-119191000D01*
X96458000Y-117791000D02*
X95058000Y-117791000D01*
X96458000Y-119191000D02*
X96458000Y-117791000D01*
%TO.C,TP20*%
X100646000Y-123760000D02*
X100646000Y-125160000D01*
X102046000Y-125160000D02*
X102046000Y-123760000D01*
X100646000Y-125160000D02*
X102046000Y-125160000D01*
X102046000Y-123760000D02*
X100646000Y-123760000D01*
%TO.C,TP7*%
X82240000Y-78268400D02*
X80840000Y-78268400D01*
X82240000Y-79668400D02*
X82240000Y-78268400D01*
X80840000Y-79668400D02*
X82240000Y-79668400D01*
X80840000Y-78268400D02*
X80840000Y-79668400D01*
%TO.C,TP19*%
X121657400Y-131378800D02*
X121657400Y-128978800D01*
X119257400Y-131378800D02*
X121657400Y-131378800D01*
X121657400Y-128978800D02*
X119257400Y-128978800D01*
X119257400Y-128978800D02*
X119257400Y-131378800D01*
%TO.C,TP9*%
X77789000Y-104837000D02*
X76389000Y-104837000D01*
X76389000Y-104837000D02*
X76389000Y-106237000D01*
X77789000Y-106237000D02*
X77789000Y-104837000D01*
X76389000Y-106237000D02*
X77789000Y-106237000D01*
%TO.C,JP3*%
X66200000Y-74200000D02*
X66200000Y-73600000D01*
X63400000Y-73600000D02*
X63400000Y-74200000D01*
X64100000Y-74900000D02*
X65500000Y-74900000D01*
X65500000Y-72900000D02*
X64100000Y-72900000D01*
X66200000Y-73600000D02*
G75*
G03*
X65500000Y-72900000I-699999J1D01*
G01*
X64100000Y-72900000D02*
G75*
G03*
X63400000Y-73600000I0J-700000D01*
G01*
X63400000Y-74200000D02*
G75*
G03*
X64100000Y-74900000I700000J0D01*
G01*
X65500000Y-74900000D02*
G75*
G03*
X66200000Y-74200000I1J699999D01*
G01*
%TO.C,F7*%
X130763778Y-54001600D02*
X130246622Y-54001600D01*
X130763778Y-55421600D02*
X130246622Y-55421600D01*
%TO.C,JP2*%
X66200000Y-66400000D02*
X66200000Y-65800000D01*
X64100000Y-67100000D02*
X65500000Y-67100000D01*
X65500000Y-65100000D02*
X64100000Y-65100000D01*
X63400000Y-65800000D02*
X63400000Y-66400000D01*
X65500000Y-67100000D02*
G75*
G03*
X66200000Y-66400000I1J699999D01*
G01*
X64100000Y-65100000D02*
G75*
G03*
X63400000Y-65800000I0J-700000D01*
G01*
X66200000Y-65800000D02*
G75*
G03*
X65500000Y-65100000I-699999J1D01*
G01*
X63400000Y-66400000D02*
G75*
G03*
X64100000Y-67100000I700000J0D01*
G01*
%TO.C,R18*%
X148573258Y-91454500D02*
X148098742Y-91454500D01*
X148573258Y-90409500D02*
X148098742Y-90409500D01*
%TO.C,F3*%
X118368578Y-57606000D02*
X117851422Y-57606000D01*
X118368578Y-56186000D02*
X117851422Y-56186000D01*
%TO.C,F11*%
X136453378Y-57656800D02*
X135936222Y-57656800D01*
X136453378Y-56236800D02*
X135936222Y-56236800D01*
%TO.C,TP18*%
X70796000Y-95828000D02*
X68396000Y-95828000D01*
X68396000Y-98228000D02*
X70796000Y-98228000D01*
X70796000Y-98228000D02*
X70796000Y-95828000D01*
X68396000Y-95828000D02*
X68396000Y-98228000D01*
%TO.C,TP3*%
X86549000Y-56196000D02*
X86549000Y-57596000D01*
X87949000Y-56196000D02*
X86549000Y-56196000D01*
X87949000Y-57596000D02*
X87949000Y-56196000D01*
X86549000Y-57596000D02*
X87949000Y-57596000D01*
%TO.C,G\u002A\u002A\u002A*%
G36*
X110233256Y-106838400D02*
G01*
X110447834Y-106867473D01*
X110596277Y-106941492D01*
X110691797Y-107085336D01*
X110747609Y-107323880D01*
X110776924Y-107682003D01*
X110792957Y-108184582D01*
X110793871Y-108225418D01*
X110797199Y-108652156D01*
X110789588Y-109027550D01*
X110772441Y-109312316D01*
X110747161Y-109467167D01*
X110746344Y-109469330D01*
X110690997Y-109570416D01*
X110593337Y-109627018D01*
X110411078Y-109651536D01*
X110101929Y-109656370D01*
X109805805Y-109647135D01*
X109557971Y-109622963D01*
X109424775Y-109589279D01*
X109381829Y-109509828D01*
X109344965Y-109289994D01*
X109320864Y-108922676D01*
X109308478Y-108397116D01*
X109306152Y-108141978D01*
X109307658Y-107747700D01*
X109320412Y-107473580D01*
X109348157Y-107287005D01*
X109394638Y-107155363D01*
X109463599Y-107046040D01*
X109505603Y-106992422D01*
X109630264Y-106883286D01*
X109799350Y-106837145D01*
X110074739Y-106832366D01*
X110233256Y-106838400D01*
G37*
G36*
X106268667Y-76545944D02*
G01*
X106267409Y-76810289D01*
X106255621Y-77044710D01*
X106221173Y-77178476D01*
X106151950Y-77250891D01*
X106035834Y-77301260D01*
X105896485Y-77345100D01*
X105461358Y-77381158D01*
X105057963Y-77251617D01*
X105057064Y-77251127D01*
X104913098Y-77189519D01*
X104725025Y-77146758D01*
X104461563Y-77119614D01*
X104091432Y-77104854D01*
X103583351Y-77099246D01*
X103422149Y-77098176D01*
X103005502Y-77090550D01*
X102662409Y-77077276D01*
X102424797Y-77059860D01*
X102324589Y-77039811D01*
X102287247Y-76972182D01*
X102242717Y-76762901D01*
X102225159Y-76494798D01*
X102237508Y-76236691D01*
X102282699Y-76057397D01*
X102286631Y-76050105D01*
X102323904Y-75993634D01*
X102380418Y-75950885D01*
X102477616Y-75919949D01*
X102636939Y-75898918D01*
X102879828Y-75885882D01*
X103227726Y-75878935D01*
X103702074Y-75876165D01*
X104324313Y-75875667D01*
X106268667Y-75875667D01*
X106268667Y-76545944D01*
G37*
G36*
X90616449Y-104057866D02*
G01*
X90698558Y-104103979D01*
X90794141Y-104307455D01*
X90859769Y-104666483D01*
X90894772Y-105174342D01*
X90898483Y-105824310D01*
X90870232Y-106609667D01*
X90865522Y-106669185D01*
X90834448Y-106755390D01*
X90744171Y-106804700D01*
X90558002Y-106830976D01*
X90239253Y-106848082D01*
X90136868Y-106851935D01*
X89816952Y-106850320D01*
X89621218Y-106817620D01*
X89514981Y-106749094D01*
X89506336Y-106734660D01*
X89469888Y-106576148D01*
X89440212Y-106296055D01*
X89418234Y-105933597D01*
X89404879Y-105527986D01*
X89401074Y-105118439D01*
X89407742Y-104744169D01*
X89425809Y-104444391D01*
X89456202Y-104258319D01*
X89509596Y-104154331D01*
X89630110Y-104070640D01*
X89836837Y-104029761D01*
X90156657Y-104027051D01*
X90616449Y-104057866D01*
G37*
G36*
X110001049Y-90027279D02*
G01*
X110525767Y-90048780D01*
X110783986Y-90062356D01*
X111252411Y-90089495D01*
X111585252Y-90118798D01*
X111805659Y-90158620D01*
X111936786Y-90217318D01*
X112001784Y-90303247D01*
X112023805Y-90424763D01*
X112026000Y-90590222D01*
X112025166Y-90650460D01*
X111977324Y-90954379D01*
X111841909Y-91173710D01*
X111775566Y-91238651D01*
X111681113Y-91299368D01*
X111547549Y-91337746D01*
X111342322Y-91358868D01*
X111032879Y-91367814D01*
X110586667Y-91369667D01*
X110252823Y-91368793D01*
X109906889Y-91362205D01*
X109674819Y-91344888D01*
X109524233Y-91311903D01*
X109422751Y-91258309D01*
X109337991Y-91179167D01*
X109266838Y-91071856D01*
X109187046Y-90815593D01*
X109162496Y-90522977D01*
X109195996Y-90258429D01*
X109290355Y-90086370D01*
X109395895Y-90047837D01*
X109629421Y-90026813D01*
X110001049Y-90027279D01*
G37*
G36*
X117116017Y-84345984D02*
G01*
X117327262Y-84392417D01*
X117441688Y-84506100D01*
X117445818Y-84514055D01*
X117508860Y-84735607D01*
X117526132Y-85009521D01*
X117498725Y-85263705D01*
X117427734Y-85426067D01*
X117401076Y-85445982D01*
X117223551Y-85504236D01*
X116979000Y-85527667D01*
X116766552Y-85514641D01*
X116559883Y-85433173D01*
X116456732Y-85250166D01*
X116428667Y-84935000D01*
X116441722Y-84698446D01*
X116519487Y-84479921D01*
X116693384Y-84371559D01*
X116992955Y-84342333D01*
X117116017Y-84345984D01*
G37*
G36*
X123279080Y-83967730D02*
G01*
X123296826Y-84215264D01*
X123314722Y-84314220D01*
X123352883Y-84326141D01*
X123539155Y-84347246D01*
X123856066Y-84367394D01*
X124278907Y-84385415D01*
X124782966Y-84400136D01*
X125343532Y-84410386D01*
X126020168Y-84423139D01*
X126579903Y-84441844D01*
X127006268Y-84465769D01*
X127287286Y-84494241D01*
X127410978Y-84526586D01*
X127453353Y-84586027D01*
X127505086Y-84787848D01*
X127515971Y-85042772D01*
X127485751Y-85278386D01*
X127414167Y-85422276D01*
X127324501Y-85461235D01*
X127100419Y-85510998D01*
X126813708Y-85546088D01*
X126634696Y-85566157D01*
X126375391Y-85625673D01*
X126244678Y-85704612D01*
X126174587Y-85872506D01*
X126116752Y-86219657D01*
X126112448Y-86647879D01*
X126164410Y-87109312D01*
X126206945Y-87411104D01*
X126236542Y-87777970D01*
X126236645Y-88067667D01*
X126207667Y-88448667D01*
X125617501Y-88448667D01*
X125553184Y-88448573D01*
X125263142Y-88441205D01*
X125090500Y-88412450D01*
X124990967Y-88348864D01*
X124920249Y-88237000D01*
X124899353Y-88183169D01*
X124851918Y-87921459D01*
X124822442Y-87507118D01*
X124811915Y-86951881D01*
X124809592Y-86538293D01*
X124792957Y-86152982D01*
X124746013Y-85892826D01*
X124652631Y-85733254D01*
X124496680Y-85649695D01*
X124262030Y-85617579D01*
X123932553Y-85612333D01*
X123629215Y-85601747D01*
X123359847Y-85566069D01*
X123218934Y-85510733D01*
X123199929Y-85485708D01*
X123140593Y-85309573D01*
X123116037Y-85066233D01*
X123114622Y-85002677D01*
X123089192Y-84763357D01*
X123042308Y-84609033D01*
X123023275Y-84589166D01*
X122871672Y-84529353D01*
X122649681Y-84495457D01*
X122434386Y-84495100D01*
X122302871Y-84535907D01*
X122296142Y-84558091D01*
X122280521Y-84716808D01*
X122265863Y-85000522D01*
X122253564Y-85378318D01*
X122245016Y-85819281D01*
X122241455Y-86072851D01*
X122233043Y-86483936D01*
X122219288Y-86768712D01*
X122195481Y-86956144D01*
X122156914Y-87075197D01*
X122098879Y-87154836D01*
X122016667Y-87224025D01*
X122015631Y-87224819D01*
X121747952Y-87347922D01*
X121360500Y-87388451D01*
X121246954Y-87390980D01*
X120996697Y-87424523D01*
X120907578Y-87496167D01*
X120888975Y-87716063D01*
X120851346Y-88045999D01*
X120804358Y-88266727D01*
X120737842Y-88418178D01*
X120641625Y-88540281D01*
X120627476Y-88554953D01*
X120475653Y-88671507D01*
X120279248Y-88728089D01*
X119976623Y-88743537D01*
X119713340Y-88731791D01*
X119447245Y-88659701D01*
X119284336Y-88499456D01*
X119202678Y-88225389D01*
X119180334Y-87811833D01*
X119180334Y-87811248D01*
X119187568Y-87513786D01*
X119206487Y-87287898D01*
X119233001Y-87182444D01*
X119331601Y-87153433D01*
X119552907Y-87125317D01*
X119846116Y-87105551D01*
X120128407Y-87085457D01*
X120358732Y-87053372D01*
X120470782Y-87017156D01*
X120486498Y-86974210D01*
X120517674Y-86787186D01*
X120552501Y-86486310D01*
X120588429Y-86106304D01*
X120622908Y-85681892D01*
X120653388Y-85247798D01*
X120677320Y-84838744D01*
X120692154Y-84489454D01*
X120695340Y-84234652D01*
X120684328Y-84109062D01*
X120628712Y-84064403D01*
X120487820Y-84033549D01*
X120240684Y-84014934D01*
X119866329Y-84006979D01*
X119343781Y-84008103D01*
X119104152Y-84009195D01*
X118674234Y-84006061D01*
X118318649Y-83996827D01*
X118069055Y-83982497D01*
X117957108Y-83964078D01*
X117927488Y-83922040D01*
X117884783Y-83745911D01*
X117870346Y-83528908D01*
X120712361Y-83528908D01*
X120726430Y-83754013D01*
X120780728Y-83896616D01*
X120795224Y-83907100D01*
X120944299Y-83947567D01*
X121172695Y-83970445D01*
X121406591Y-83971195D01*
X121572167Y-83945279D01*
X121598611Y-83925383D01*
X121656808Y-83767377D01*
X121678000Y-83488611D01*
X121678000Y-83072333D01*
X121257646Y-83072333D01*
X121053893Y-83079801D01*
X120862099Y-83124513D01*
X120768211Y-83220500D01*
X120740042Y-83303650D01*
X120712361Y-83528908D01*
X117870346Y-83528908D01*
X117868000Y-83493649D01*
X117888833Y-83230214D01*
X117985230Y-83028755D01*
X118185829Y-82932403D01*
X118518490Y-82916437D01*
X118631801Y-82912239D01*
X118940242Y-82854797D01*
X119246951Y-82750374D01*
X119399531Y-82689704D01*
X119631389Y-82624409D01*
X119775736Y-82619432D01*
X119787607Y-82623780D01*
X120026073Y-82638189D01*
X120232842Y-82538805D01*
X120343502Y-82355564D01*
X120357873Y-82207377D01*
X120334922Y-82096144D01*
X120305516Y-82030900D01*
X120283544Y-81861321D01*
X120280915Y-81816432D01*
X120237498Y-81721793D01*
X120108285Y-81668004D01*
X119851523Y-81633000D01*
X119560732Y-81584285D01*
X119354784Y-81481389D01*
X119153023Y-81283156D01*
X118963357Y-81010282D01*
X118884000Y-80718581D01*
X118876258Y-80517728D01*
X118818349Y-80313822D01*
X118676694Y-80217738D01*
X118419615Y-80193667D01*
X118375952Y-80192753D01*
X118041533Y-80147506D01*
X117730174Y-80055096D01*
X117678043Y-80034904D01*
X117354493Y-79955041D01*
X117029308Y-79929279D01*
X116714003Y-79907976D01*
X116494615Y-79795608D01*
X116378196Y-79569198D01*
X116344000Y-79206878D01*
X116344000Y-78754333D01*
X117169500Y-78740646D01*
X117668425Y-78732096D01*
X118177175Y-78725895D01*
X118552521Y-78730848D01*
X118814707Y-78753124D01*
X118983975Y-78798895D01*
X119080566Y-78874330D01*
X119124723Y-78985601D01*
X119136688Y-79138879D01*
X119136704Y-79340333D01*
X119163706Y-79632800D01*
X119277152Y-79864903D01*
X119500786Y-79988122D01*
X119857667Y-80024333D01*
X119895482Y-80024557D01*
X120230144Y-80061537D01*
X120435708Y-80180077D01*
X120536923Y-80406390D01*
X120558539Y-80766692D01*
X120558929Y-80933762D01*
X120575370Y-81155677D01*
X120606457Y-81267012D01*
X120660123Y-81293102D01*
X120847012Y-81341786D01*
X121107726Y-81387082D01*
X121383968Y-81413232D01*
X121591209Y-81388633D01*
X121762667Y-81299712D01*
X121770550Y-81294112D01*
X121853368Y-81224699D01*
X121913454Y-81134548D01*
X121957434Y-80994005D01*
X121991934Y-80773413D01*
X122023581Y-80443119D01*
X122059000Y-79973466D01*
X122143667Y-78796667D01*
X122459250Y-78718703D01*
X122681388Y-78684181D01*
X122985030Y-78736511D01*
X123195227Y-78832283D01*
X123219780Y-81538028D01*
X123223775Y-81906860D01*
X123233830Y-82541181D01*
X123246872Y-83109935D01*
X123258897Y-83488611D01*
X123262192Y-83592369D01*
X123279080Y-83967730D01*
G37*
G36*
X80441225Y-101564240D02*
G01*
X80597734Y-101631267D01*
X80611188Y-101646491D01*
X80682266Y-101836938D01*
X80695255Y-102101896D01*
X80653217Y-102367570D01*
X80559212Y-102560166D01*
X80498816Y-102613675D01*
X80297940Y-102691579D01*
X79976420Y-102715000D01*
X79851962Y-102713803D01*
X79641704Y-102694534D01*
X79534304Y-102637486D01*
X79482698Y-102524500D01*
X79446609Y-102356785D01*
X79427118Y-102028873D01*
X79477831Y-101766915D01*
X79593101Y-101617312D01*
X79662351Y-101588417D01*
X79905185Y-101541866D01*
X80187592Y-101534123D01*
X80441225Y-101564240D01*
G37*
G36*
X120919148Y-77318179D02*
G01*
X121349294Y-77334952D01*
X121617699Y-77366436D01*
X121728561Y-77412978D01*
X121756780Y-77520030D01*
X121772654Y-77736938D01*
X121770533Y-77987788D01*
X121751347Y-78205050D01*
X121716029Y-78321193D01*
X121707797Y-78326126D01*
X121578667Y-78355326D01*
X121334198Y-78388728D01*
X121018795Y-78420039D01*
X120488097Y-78460249D01*
X120037503Y-78482073D01*
X119719695Y-78479257D01*
X119516296Y-78451558D01*
X119408934Y-78398733D01*
X119390354Y-78373890D01*
X119335247Y-78194572D01*
X119309174Y-77934619D01*
X119315784Y-77663060D01*
X119358726Y-77448925D01*
X119364685Y-77435743D01*
X119419721Y-77384273D01*
X119538227Y-77349464D01*
X119746652Y-77328317D01*
X120071447Y-77317829D01*
X120539062Y-77315000D01*
X120919148Y-77318179D01*
G37*
G36*
X111602667Y-105974667D02*
G01*
X111560334Y-106017000D01*
X111518000Y-105974667D01*
X111560334Y-105932333D01*
X111602667Y-105974667D01*
G37*
G36*
X78982853Y-103004121D02*
G01*
X79139873Y-103059370D01*
X79153332Y-103073085D01*
X79191001Y-103154347D01*
X79219089Y-103305930D01*
X79238815Y-103547627D01*
X79251397Y-103899235D01*
X79258053Y-104380550D01*
X79260000Y-105011367D01*
X79260140Y-105284414D01*
X79262231Y-105830931D01*
X79268263Y-106240290D01*
X79280058Y-106535211D01*
X79299434Y-106738412D01*
X79328210Y-106872616D01*
X79368207Y-106960541D01*
X79421243Y-107024909D01*
X79430504Y-107033923D01*
X79473824Y-107067583D01*
X79535572Y-107095828D01*
X79629465Y-107119097D01*
X79769222Y-107137827D01*
X79968562Y-107152455D01*
X80241204Y-107163418D01*
X80600867Y-107171153D01*
X81061268Y-107176098D01*
X81636127Y-107178689D01*
X82339163Y-107179365D01*
X83184093Y-107178561D01*
X84184637Y-107176716D01*
X84663148Y-107176086D01*
X85507087Y-107176741D01*
X86292612Y-107179584D01*
X87003878Y-107184428D01*
X87625038Y-107191086D01*
X88140249Y-107199373D01*
X88533664Y-107209102D01*
X88789439Y-107220085D01*
X88891728Y-107232137D01*
X88925586Y-107273103D01*
X88977428Y-107461774D01*
X88996667Y-107753827D01*
X88992205Y-108009195D01*
X88961791Y-108154672D01*
X88880023Y-108221533D01*
X88721500Y-108256149D01*
X88646178Y-108262731D01*
X88403693Y-108272930D01*
X88023045Y-108283146D01*
X87522994Y-108293066D01*
X86922302Y-108302374D01*
X86239730Y-108310756D01*
X85494039Y-108317898D01*
X84703989Y-108323485D01*
X84370770Y-108325588D01*
X83423507Y-108333740D01*
X82636541Y-108344316D01*
X82003014Y-108357528D01*
X81516069Y-108373583D01*
X81168848Y-108392693D01*
X80954491Y-108415067D01*
X80866141Y-108440915D01*
X80841636Y-108475386D01*
X80775636Y-108657033D01*
X80729732Y-108906581D01*
X80720225Y-108990837D01*
X80674772Y-109323162D01*
X80624956Y-109526928D01*
X80559329Y-109635934D01*
X80466443Y-109683981D01*
X80431127Y-109691640D01*
X80223485Y-109717282D01*
X79961479Y-109732512D01*
X79934451Y-109733060D01*
X79683830Y-109704252D01*
X79529271Y-109591851D01*
X79450699Y-109368557D01*
X79428037Y-109007066D01*
X79425176Y-108852244D01*
X79389240Y-108590870D01*
X79285088Y-108437597D01*
X79079077Y-108359033D01*
X78737562Y-108321788D01*
X78479504Y-108293295D01*
X78241120Y-108241312D01*
X78117000Y-108180687D01*
X78101451Y-108132017D01*
X78080393Y-107917905D01*
X78067078Y-107545227D01*
X78061613Y-107020716D01*
X78064107Y-106351103D01*
X78074667Y-105543121D01*
X78117000Y-103011333D01*
X78568373Y-102985504D01*
X78718738Y-102981934D01*
X78982853Y-103004121D01*
G37*
G36*
X128504015Y-97127797D02*
G01*
X128715105Y-97148066D01*
X128847900Y-97218342D01*
X128920566Y-97368433D01*
X128951270Y-97628147D01*
X128958178Y-98027292D01*
X128964324Y-98263528D01*
X129006759Y-98474139D01*
X129118731Y-98589759D01*
X129333415Y-98638842D01*
X129683985Y-98649844D01*
X129745497Y-98650656D01*
X130040125Y-98687989D01*
X130214107Y-98801681D01*
X130291815Y-99020454D01*
X130297620Y-99373030D01*
X130271667Y-99878667D01*
X129933000Y-99894118D01*
X129878121Y-99895019D01*
X129555694Y-99862485D01*
X129242708Y-99784416D01*
X129202048Y-99769201D01*
X128932851Y-99600931D01*
X128814669Y-99359931D01*
X128839899Y-99032000D01*
X128856646Y-98888530D01*
X128820346Y-98814298D01*
X128805622Y-98812932D01*
X128654816Y-98796276D01*
X128428384Y-98769409D01*
X128244503Y-98756578D01*
X128112761Y-98795925D01*
X128039612Y-98918403D01*
X128003459Y-99066941D01*
X127992977Y-99314442D01*
X127969039Y-99473464D01*
X127823771Y-99709909D01*
X127584073Y-99934906D01*
X127289233Y-100113711D01*
X126978538Y-100211577D01*
X126599070Y-100268482D01*
X126572702Y-101174241D01*
X126572063Y-101196169D01*
X126558587Y-101699853D01*
X126556926Y-102059446D01*
X126574209Y-102299221D01*
X126617560Y-102443454D01*
X126694107Y-102516423D01*
X126810975Y-102542402D01*
X126975291Y-102545667D01*
X127038931Y-102544688D01*
X127272434Y-102512787D01*
X127360071Y-102439833D01*
X127363621Y-102385538D01*
X127372472Y-102184585D01*
X127381237Y-101919408D01*
X127385999Y-101776365D01*
X127408072Y-101618239D01*
X127475279Y-101519272D01*
X127618492Y-101460819D01*
X127868586Y-101424235D01*
X128256436Y-101390874D01*
X128476827Y-101378935D01*
X128809613Y-101401636D01*
X129081532Y-101490729D01*
X129206907Y-101553647D01*
X129324388Y-101649423D01*
X129366381Y-101792245D01*
X129364030Y-102043000D01*
X129361358Y-102179091D01*
X129373325Y-102398321D01*
X129403461Y-102510015D01*
X129433084Y-102525236D01*
X129596590Y-102552440D01*
X129837414Y-102559714D01*
X129938458Y-102561100D01*
X130198887Y-102620178D01*
X130366711Y-102778792D01*
X130456628Y-103057841D01*
X130483334Y-103478226D01*
X130485195Y-103579460D01*
X130529679Y-103970704D01*
X130624371Y-104264371D01*
X130652041Y-104323058D01*
X130706372Y-104501205D01*
X130739288Y-104745937D01*
X130754184Y-105091381D01*
X130754454Y-105571661D01*
X130743500Y-106607988D01*
X130973250Y-106656260D01*
X131154555Y-106693889D01*
X131348054Y-106733026D01*
X131384750Y-106738625D01*
X131496966Y-106719720D01*
X131573838Y-106620989D01*
X131621506Y-106420143D01*
X131646108Y-106094890D01*
X131653785Y-105622938D01*
X131654092Y-105544227D01*
X131663525Y-105106152D01*
X131689194Y-104793752D01*
X131735837Y-104569350D01*
X131808194Y-104395271D01*
X131865105Y-104262981D01*
X131915647Y-104059672D01*
X131953356Y-103774510D01*
X131981928Y-103378339D01*
X132005059Y-102842000D01*
X132049667Y-101572000D01*
X133150334Y-101572000D01*
X133172777Y-104101786D01*
X133173080Y-104136285D01*
X133177634Y-104939072D01*
X133175771Y-105582358D01*
X133167228Y-106075499D01*
X133151744Y-106427852D01*
X133129059Y-106648773D01*
X133098910Y-106747620D01*
X133057807Y-106780723D01*
X132839425Y-106842547D01*
X132473000Y-106863667D01*
X132264925Y-106870017D01*
X131996299Y-106906383D01*
X131859122Y-106969500D01*
X131859117Y-106969506D01*
X131814740Y-107103399D01*
X131779410Y-107352655D01*
X131760775Y-107663318D01*
X131741171Y-107974127D01*
X131703152Y-108225399D01*
X131654986Y-108361818D01*
X131652534Y-108364682D01*
X131492523Y-108443254D01*
X131246447Y-108468863D01*
X130987095Y-108441549D01*
X130787255Y-108361351D01*
X130779478Y-108355372D01*
X130662028Y-108164086D01*
X130596765Y-107832184D01*
X130577647Y-107625934D01*
X130541758Y-107328541D01*
X130487960Y-107152028D01*
X130391713Y-107064917D01*
X130228480Y-107035733D01*
X129973721Y-107033000D01*
X129778757Y-107023923D01*
X129433407Y-106946049D01*
X129209109Y-106797331D01*
X129126325Y-106588500D01*
X129125965Y-106566654D01*
X129123890Y-106400333D01*
X129120482Y-106100366D01*
X129116030Y-105693127D01*
X129110826Y-105204991D01*
X129105158Y-104662333D01*
X129086334Y-102842000D01*
X127731667Y-102842000D01*
X127689334Y-106245682D01*
X127688581Y-106305855D01*
X127676197Y-107192515D01*
X127663055Y-107923484D01*
X127648599Y-108511612D01*
X127632272Y-108969748D01*
X127613516Y-109310740D01*
X127591776Y-109547439D01*
X127566496Y-109692692D01*
X127537117Y-109759349D01*
X127411509Y-109818238D01*
X127166065Y-109874353D01*
X126859784Y-109911667D01*
X126292334Y-109954000D01*
X126250000Y-110521993D01*
X126245010Y-110585247D01*
X126204541Y-110901638D01*
X126139999Y-111097146D01*
X126038649Y-111213437D01*
X125867786Y-111290302D01*
X125568816Y-111332183D01*
X125260421Y-111307311D01*
X125025052Y-111215518D01*
X125010553Y-111204419D01*
X124916988Y-111085139D01*
X124864974Y-110887504D01*
X124841775Y-110566407D01*
X124833034Y-110316296D01*
X124823792Y-110087574D01*
X124817575Y-109975167D01*
X124749037Y-109944849D01*
X124553484Y-109920860D01*
X124276516Y-109911667D01*
X124182479Y-109912174D01*
X123970337Y-109912833D01*
X123802995Y-109898873D01*
X123675183Y-109853106D01*
X123581634Y-109758344D01*
X123517079Y-109597399D01*
X123476249Y-109353082D01*
X123453874Y-109008205D01*
X123444688Y-108545580D01*
X123443420Y-107948018D01*
X123444803Y-107198332D01*
X123445010Y-107026038D01*
X123445927Y-106398037D01*
X123447012Y-105826502D01*
X123448205Y-105334008D01*
X123449445Y-104943127D01*
X123450673Y-104676434D01*
X123451828Y-104556500D01*
X123463291Y-104498425D01*
X123534065Y-104441854D01*
X123701324Y-104415084D01*
X124001337Y-104408333D01*
X124255541Y-104417933D01*
X124492580Y-104451927D01*
X124605634Y-104503733D01*
X124629228Y-104607200D01*
X124654821Y-104848075D01*
X124677328Y-105185978D01*
X124693677Y-105583233D01*
X124707092Y-106032413D01*
X124735405Y-106940227D01*
X124761127Y-107696819D01*
X124784952Y-108314750D01*
X124807571Y-108806582D01*
X124829676Y-109184877D01*
X124851959Y-109462197D01*
X124875114Y-109651104D01*
X124899831Y-109764160D01*
X124926803Y-109813927D01*
X125008619Y-109853702D01*
X125230100Y-109903632D01*
X125512809Y-109933793D01*
X125799840Y-109941288D01*
X126034283Y-109923219D01*
X126159230Y-109876688D01*
X126161090Y-109874169D01*
X126193461Y-109745107D01*
X126225314Y-109470335D01*
X126256089Y-109072193D01*
X126285225Y-108573022D01*
X126312159Y-107995165D01*
X126336330Y-107360962D01*
X126357178Y-106692756D01*
X126374140Y-106012886D01*
X126386656Y-105343695D01*
X126394164Y-104707523D01*
X126396103Y-104126713D01*
X126391911Y-103623605D01*
X126381027Y-103220542D01*
X126362891Y-102939863D01*
X126336939Y-102803911D01*
X126310890Y-102761160D01*
X126212991Y-102679288D01*
X126040322Y-102640274D01*
X125745946Y-102630333D01*
X125402288Y-102624139D01*
X125169074Y-102589421D01*
X125042494Y-102503092D01*
X124990239Y-102342078D01*
X124980000Y-102083305D01*
X124965612Y-101808794D01*
X124900794Y-101591928D01*
X124761836Y-101403656D01*
X124735717Y-101375565D01*
X124632046Y-101275650D01*
X124524613Y-101218053D01*
X124372144Y-101195366D01*
X124133365Y-101200181D01*
X123767003Y-101225088D01*
X123629763Y-101234872D01*
X123240546Y-101260127D01*
X122897019Y-101279126D01*
X122660741Y-101288348D01*
X122597389Y-101291937D01*
X122285679Y-101349375D01*
X121983408Y-101452694D01*
X121862931Y-101500987D01*
X121710751Y-101542115D01*
X121515079Y-101571775D01*
X121250750Y-101591804D01*
X120892598Y-101604039D01*
X120415459Y-101610317D01*
X119794167Y-101612474D01*
X117952667Y-101614333D01*
X117952667Y-101946075D01*
X117953216Y-102037387D01*
X117975870Y-102313885D01*
X118057837Y-102466709D01*
X118234548Y-102531941D01*
X118541437Y-102545667D01*
X118608469Y-102546302D01*
X118983867Y-102589926D01*
X119230828Y-102718331D01*
X119375865Y-102954238D01*
X119445494Y-103320367D01*
X119480546Y-103587519D01*
X119558460Y-103827865D01*
X119688910Y-103950597D01*
X119891551Y-103985000D01*
X119975909Y-103979479D01*
X120207618Y-103873347D01*
X120336703Y-103634710D01*
X120360991Y-103266889D01*
X120357012Y-103032351D01*
X120404158Y-102834602D01*
X120527617Y-102672353D01*
X120535611Y-102664418D01*
X120685135Y-102549868D01*
X120862357Y-102507160D01*
X121136028Y-102518959D01*
X121231375Y-102530033D01*
X121595126Y-102594247D01*
X121925916Y-102679335D01*
X122000703Y-102701402D01*
X122340248Y-102771436D01*
X122656383Y-102799667D01*
X122834225Y-102808157D01*
X123048008Y-102878419D01*
X123161754Y-103047880D01*
X123209068Y-103350000D01*
X123214636Y-103434754D01*
X123230022Y-103777824D01*
X123210978Y-103989809D01*
X123140644Y-104102216D01*
X123002160Y-104146555D01*
X122778667Y-104154333D01*
X122498680Y-104176595D01*
X122221266Y-104289571D01*
X122064970Y-104510409D01*
X122014785Y-104852833D01*
X122014544Y-104870928D01*
X121970182Y-105171624D01*
X121866618Y-105396729D01*
X121864530Y-105399348D01*
X121795054Y-105471553D01*
X121701969Y-105522747D01*
X121556131Y-105557479D01*
X121328397Y-105580298D01*
X120989625Y-105595754D01*
X120510671Y-105608396D01*
X120023827Y-105622794D01*
X119664991Y-105642789D01*
X119427709Y-105670884D01*
X119287729Y-105709985D01*
X119220801Y-105763000D01*
X119216841Y-105772014D01*
X119195909Y-105916961D01*
X119177392Y-106208275D01*
X119161882Y-106626491D01*
X119149969Y-107152140D01*
X119142243Y-107765755D01*
X119139297Y-108447868D01*
X119139198Y-108818660D01*
X119138017Y-109521342D01*
X119131674Y-110078848D01*
X119115477Y-110507794D01*
X119084732Y-110824798D01*
X119034747Y-111046477D01*
X118960829Y-111189448D01*
X118858285Y-111270327D01*
X118722423Y-111305732D01*
X118548550Y-111312280D01*
X118331972Y-111306588D01*
X118138773Y-111295175D01*
X117912215Y-111261718D01*
X117797676Y-111216807D01*
X117796286Y-111214135D01*
X117785237Y-111099269D01*
X117777564Y-110833505D01*
X117773253Y-110433457D01*
X117772286Y-109915740D01*
X117774651Y-109296968D01*
X117780330Y-108593756D01*
X117789308Y-107822718D01*
X117801571Y-107000469D01*
X117806294Y-106709314D01*
X117820642Y-105729995D01*
X117829858Y-104907902D01*
X117833879Y-104233550D01*
X117832643Y-103697456D01*
X117826089Y-103290134D01*
X117814156Y-103002102D01*
X117796781Y-102823875D01*
X117773902Y-102745969D01*
X117736092Y-102714939D01*
X117527131Y-102652333D01*
X117187225Y-102630333D01*
X116847112Y-102624194D01*
X116615307Y-102588935D01*
X116489958Y-102500414D01*
X116438575Y-102334509D01*
X116428667Y-102067093D01*
X116428622Y-102044857D01*
X116410909Y-101753161D01*
X116346554Y-101557969D01*
X116214256Y-101392225D01*
X116151918Y-101332104D01*
X116036689Y-101249159D01*
X115895790Y-101209700D01*
X115681582Y-101204514D01*
X115346423Y-101224386D01*
X114967645Y-101250004D01*
X114519890Y-101277820D01*
X114138181Y-101299161D01*
X113971898Y-101311687D01*
X113613989Y-101373588D01*
X113378509Y-101470849D01*
X113346608Y-101491067D01*
X113261544Y-101527639D01*
X113137651Y-101556284D01*
X112956284Y-101577941D01*
X112698803Y-101593550D01*
X112346564Y-101604054D01*
X111880925Y-101610392D01*
X111283242Y-101613505D01*
X110534875Y-101614333D01*
X110184162Y-101614337D01*
X109463148Y-101613108D01*
X108887459Y-101607104D01*
X108440197Y-101592567D01*
X108104462Y-101565738D01*
X107863354Y-101522858D01*
X107699974Y-101460169D01*
X107597423Y-101373910D01*
X107538801Y-101260324D01*
X107507209Y-101115652D01*
X107485747Y-100936135D01*
X107472278Y-100815097D01*
X107431643Y-100498666D01*
X107382449Y-100308689D01*
X107302477Y-100212918D01*
X107169507Y-100179105D01*
X106961321Y-100175000D01*
X106834709Y-100170266D01*
X106595552Y-100133898D01*
X106454934Y-100073400D01*
X106427788Y-100027494D01*
X106383653Y-99835379D01*
X106358630Y-99557135D01*
X106352825Y-99243624D01*
X106366348Y-98945711D01*
X106399305Y-98714260D01*
X106451806Y-98600134D01*
X106472442Y-98592885D01*
X106636346Y-98573462D01*
X106925136Y-98559714D01*
X107305212Y-98552841D01*
X107742973Y-98554043D01*
X108197214Y-98561778D01*
X108587429Y-98581081D01*
X108852931Y-98622869D01*
X109017696Y-98699088D01*
X109105701Y-98821686D01*
X109140922Y-99002608D01*
X109147334Y-99253801D01*
X109148646Y-99317322D01*
X109204490Y-99635050D01*
X109331245Y-99845223D01*
X109513215Y-99919288D01*
X109537272Y-99919301D01*
X109707598Y-99920256D01*
X110028650Y-99922412D01*
X110487601Y-99925672D01*
X111071625Y-99929941D01*
X111767893Y-99935123D01*
X112563580Y-99941121D01*
X113445859Y-99947841D01*
X114401901Y-99955187D01*
X115418881Y-99963062D01*
X116483971Y-99971370D01*
X117238606Y-99977268D01*
X118381532Y-99986037D01*
X119372657Y-99993177D01*
X120222979Y-99998497D01*
X120943498Y-100001810D01*
X121545211Y-100002926D01*
X122039118Y-100001655D01*
X122436218Y-99997810D01*
X122747510Y-99991200D01*
X122983991Y-99981637D01*
X123156661Y-99968931D01*
X123276519Y-99952894D01*
X123354564Y-99933336D01*
X123401794Y-99910068D01*
X123429208Y-99882902D01*
X123447804Y-99851648D01*
X123474429Y-99784539D01*
X123521876Y-99549014D01*
X123540667Y-99266166D01*
X123545769Y-99132427D01*
X123582239Y-98892757D01*
X123642267Y-98752600D01*
X123680514Y-98729709D01*
X123891740Y-98684727D01*
X124267916Y-98655580D01*
X124806434Y-98642515D01*
X124959493Y-98641008D01*
X125640880Y-98627014D01*
X126252565Y-98602671D01*
X126774626Y-98569480D01*
X127187142Y-98528941D01*
X127470191Y-98482555D01*
X127603852Y-98431822D01*
X127641214Y-98358754D01*
X127688526Y-98148520D01*
X127714814Y-97872087D01*
X127720176Y-97768459D01*
X127768847Y-97443247D01*
X127881487Y-97247744D01*
X128085801Y-97152233D01*
X128409493Y-97127000D01*
X128504015Y-97127797D01*
G37*
G36*
X108519749Y-87224026D02*
G01*
X108749052Y-87274387D01*
X108882874Y-87370789D01*
X108883652Y-87372263D01*
X108931776Y-87542323D01*
X108972741Y-87829069D01*
X109004918Y-88191787D01*
X109026676Y-88589762D01*
X109036386Y-88982281D01*
X109032418Y-89328630D01*
X109013141Y-89588095D01*
X108976926Y-89719962D01*
X108970622Y-89727023D01*
X108803007Y-89808598D01*
X108545966Y-89842836D01*
X108268874Y-89826918D01*
X108041101Y-89758021D01*
X107992022Y-89725743D01*
X107940337Y-89655727D01*
X107906925Y-89531698D01*
X107887886Y-89324832D01*
X107879322Y-89006303D01*
X107877334Y-88547288D01*
X107880122Y-88194892D01*
X107897122Y-87745134D01*
X107929921Y-87456031D01*
X107978934Y-87322600D01*
X108048545Y-87276025D01*
X108263426Y-87223356D01*
X108519749Y-87224026D01*
G37*
G36*
X123184395Y-97529167D02*
G01*
X123159667Y-98185333D01*
X122863334Y-98232548D01*
X122748536Y-98245819D01*
X122458620Y-98265509D01*
X122084325Y-98280996D01*
X121678000Y-98289753D01*
X121646326Y-98290091D01*
X121165176Y-98286626D01*
X120826818Y-98255778D01*
X120606587Y-98183852D01*
X120479818Y-98057154D01*
X120421844Y-97861990D01*
X120408000Y-97584667D01*
X120408121Y-97518033D01*
X120417176Y-97282203D01*
X120457237Y-97112239D01*
X120551357Y-96997358D01*
X120722591Y-96926776D01*
X120993993Y-96889712D01*
X121388616Y-96875381D01*
X121929514Y-96873000D01*
X123209123Y-96873000D01*
X123184395Y-97529167D01*
G37*
G36*
X108507648Y-74446576D02*
G01*
X108743782Y-74474361D01*
X108883761Y-74535202D01*
X108951005Y-74638542D01*
X108968938Y-74793823D01*
X108960980Y-75010487D01*
X108935667Y-75494667D01*
X108343000Y-75544855D01*
X108048351Y-75564696D01*
X107580746Y-75583211D01*
X107157667Y-75587188D01*
X106565000Y-75579333D01*
X106565000Y-74478667D01*
X107581000Y-74454147D01*
X107653228Y-74452403D01*
X108151937Y-74442404D01*
X108507648Y-74446576D01*
G37*
G36*
X103522394Y-94169585D02*
G01*
X103816642Y-94337032D01*
X104250186Y-94417298D01*
X104787000Y-94460000D01*
X104829334Y-95621484D01*
X104846477Y-96033541D01*
X104876881Y-96442302D01*
X104928349Y-96725816D01*
X105013946Y-96909073D01*
X105146740Y-97017063D01*
X105339795Y-97074774D01*
X105606179Y-97107196D01*
X105778387Y-97128139D01*
X106022363Y-97177492D01*
X106162834Y-97232742D01*
X106206651Y-97306080D01*
X106252468Y-97540525D01*
X106268667Y-97899367D01*
X106268667Y-98481667D01*
X104246542Y-98481667D01*
X103933259Y-98481635D01*
X103369048Y-98480680D01*
X102943994Y-98476964D01*
X102637453Y-98468604D01*
X102428782Y-98453714D01*
X102297339Y-98430410D01*
X102222481Y-98396807D01*
X102183565Y-98351021D01*
X102159947Y-98291167D01*
X102151467Y-98263587D01*
X102107129Y-98033965D01*
X102081973Y-97762000D01*
X102079171Y-97716168D01*
X102030669Y-97443935D01*
X101946868Y-97232833D01*
X101935159Y-97214815D01*
X101877321Y-97144658D01*
X101794400Y-97096651D01*
X101657547Y-97066603D01*
X101437912Y-97050327D01*
X101106646Y-97043634D01*
X100634901Y-97042333D01*
X100180017Y-97038120D01*
X99746973Y-97020302D01*
X99470270Y-96988022D01*
X99342934Y-96940733D01*
X99308153Y-96879688D01*
X99260161Y-96675487D01*
X99241334Y-96406582D01*
X99240571Y-96317297D01*
X99214505Y-96024825D01*
X99130705Y-95828935D01*
X98961283Y-95706570D01*
X98678355Y-95634669D01*
X98254035Y-95590175D01*
X98243051Y-95589346D01*
X97857833Y-95566854D01*
X97367345Y-95547377D01*
X96833448Y-95532974D01*
X96318006Y-95525705D01*
X96138692Y-95524737D01*
X95634964Y-95527910D01*
X95271086Y-95550946D01*
X95024330Y-95606809D01*
X94871971Y-95708461D01*
X94791280Y-95868866D01*
X94759533Y-96100985D01*
X94754000Y-96417783D01*
X94759252Y-96714438D01*
X94786855Y-96968563D01*
X94849431Y-97153215D01*
X94959402Y-97323149D01*
X95111865Y-97607326D01*
X95192235Y-97931333D01*
X95219667Y-98270000D01*
X95655595Y-98270000D01*
X96023503Y-98306453D01*
X96253978Y-98418167D01*
X96384661Y-98513885D01*
X96521212Y-98566333D01*
X96560302Y-98574790D01*
X96610347Y-98672167D01*
X96599556Y-98888625D01*
X96612645Y-99166171D01*
X96645508Y-99416904D01*
X96691693Y-99569633D01*
X96706291Y-99586949D01*
X96858805Y-99656212D01*
X97091974Y-99683933D01*
X97125511Y-99684385D01*
X97477921Y-99741926D01*
X97774261Y-99878684D01*
X97959237Y-100070043D01*
X97962468Y-100076429D01*
X98015501Y-100267248D01*
X98038149Y-100513667D01*
X98037893Y-100639942D01*
X98039349Y-100879592D01*
X98066740Y-101032496D01*
X98148710Y-101117603D01*
X98313898Y-101153861D01*
X98590948Y-101160219D01*
X99008500Y-101155626D01*
X99344914Y-101149261D01*
X99687350Y-101133744D01*
X99937383Y-101111948D01*
X100056550Y-101086412D01*
X100066978Y-101081049D01*
X100213337Y-101083714D01*
X100416383Y-101156227D01*
X100599083Y-101260197D01*
X100684746Y-101370736D01*
X100714534Y-101550833D01*
X100720068Y-101584524D01*
X100789483Y-101705840D01*
X100808958Y-101732713D01*
X100859699Y-101890544D01*
X100900885Y-102127687D01*
X100914340Y-102232961D01*
X100945206Y-102432773D01*
X100967478Y-102522033D01*
X100999394Y-102524497D01*
X101179105Y-102528548D01*
X101503568Y-102532416D01*
X101957372Y-102536018D01*
X102525106Y-102539270D01*
X103191361Y-102542090D01*
X103940724Y-102544395D01*
X104757785Y-102546101D01*
X105627134Y-102547126D01*
X106007160Y-102547424D01*
X107013325Y-102548776D01*
X107867266Y-102551737D01*
X108581742Y-102557461D01*
X109169514Y-102567100D01*
X109643340Y-102581808D01*
X110015982Y-102602737D01*
X110300198Y-102631041D01*
X110508748Y-102667873D01*
X110654392Y-102714387D01*
X110749891Y-102771734D01*
X110808002Y-102841069D01*
X110841488Y-102923545D01*
X110863106Y-103020314D01*
X110882703Y-103242261D01*
X110866674Y-103518873D01*
X110855868Y-103604115D01*
X110883791Y-103770140D01*
X111023111Y-103878646D01*
X111103432Y-103906800D01*
X111321485Y-103949264D01*
X111603936Y-103983195D01*
X111904376Y-104005540D01*
X112176394Y-104013245D01*
X112373580Y-104003255D01*
X112449525Y-103972516D01*
X112449657Y-103970724D01*
X112528597Y-103937015D01*
X112709308Y-103930183D01*
X112732062Y-103931135D01*
X112895602Y-103914200D01*
X112997718Y-103819650D01*
X113089033Y-103604000D01*
X113113687Y-103531357D01*
X113181998Y-103291118D01*
X113210059Y-103125449D01*
X113223832Y-103065859D01*
X113355697Y-102941853D01*
X113590469Y-102854419D01*
X113882751Y-102808487D01*
X114187144Y-102808986D01*
X114458249Y-102860847D01*
X114650667Y-102969000D01*
X114728878Y-103052244D01*
X114804586Y-103177949D01*
X114830263Y-103345885D01*
X114822606Y-103619194D01*
X114827064Y-103753725D01*
X114936262Y-104017330D01*
X115176602Y-104182084D01*
X115537715Y-104239000D01*
X115647192Y-104239126D01*
X115789264Y-104246578D01*
X115905171Y-104275855D01*
X115997596Y-104341708D01*
X116069222Y-104458887D01*
X116122732Y-104642145D01*
X116160807Y-104906230D01*
X116186130Y-105265894D01*
X116201384Y-105735888D01*
X116209251Y-106330961D01*
X116212414Y-107065865D01*
X116213555Y-107955351D01*
X116214453Y-108379152D01*
X116219487Y-109223085D01*
X116228567Y-109932533D01*
X116241510Y-110500533D01*
X116258130Y-110920121D01*
X116278244Y-111184332D01*
X116301667Y-111286203D01*
X116410873Y-111316230D01*
X116642921Y-111340079D01*
X116940900Y-111349703D01*
X117202786Y-111360561D01*
X117459168Y-111397361D01*
X117597067Y-111452600D01*
X117632049Y-111514249D01*
X117679901Y-111718876D01*
X117698667Y-111988175D01*
X117670860Y-112292248D01*
X117546629Y-112569626D01*
X117314628Y-112721359D01*
X116965972Y-112756767D01*
X116889867Y-112752147D01*
X116612715Y-112701126D01*
X116446391Y-112578456D01*
X116365339Y-112352737D01*
X116344000Y-111992566D01*
X116334092Y-111747306D01*
X116300718Y-111506231D01*
X116251947Y-111377479D01*
X116202691Y-111349818D01*
X115998449Y-111318230D01*
X115696444Y-111326657D01*
X115419489Y-111339672D01*
X115214190Y-111308403D01*
X115068831Y-111219322D01*
X115023691Y-111171197D01*
X114986387Y-111102993D01*
X114957794Y-110997652D01*
X114936761Y-110836288D01*
X114922135Y-110600018D01*
X114912765Y-110269956D01*
X114907498Y-109827217D01*
X114905183Y-109252916D01*
X114904667Y-108528168D01*
X114904650Y-108293313D01*
X114903985Y-107617640D01*
X114901392Y-107086251D01*
X114895578Y-106679898D01*
X114885248Y-106379331D01*
X114869108Y-106165304D01*
X114845865Y-106018568D01*
X114814224Y-105919874D01*
X114772892Y-105849975D01*
X114720575Y-105789623D01*
X114508001Y-105650478D01*
X114215624Y-105586649D01*
X113910558Y-105606924D01*
X113648190Y-105707117D01*
X113483908Y-105883046D01*
X113462855Y-105985819D01*
X113439673Y-106252915D01*
X113419982Y-106660291D01*
X113404356Y-107191940D01*
X113393370Y-107831857D01*
X113387599Y-108564036D01*
X113384631Y-109228894D01*
X113380288Y-109805941D01*
X113373532Y-110250234D01*
X113363081Y-110580821D01*
X113347653Y-110816749D01*
X113325966Y-110977065D01*
X113296738Y-111080817D01*
X113258688Y-111147051D01*
X113210532Y-111194817D01*
X113173749Y-111222362D01*
X112955867Y-111300649D01*
X112624350Y-111306920D01*
X112455256Y-111300324D01*
X112229583Y-111331017D01*
X112090661Y-111442226D01*
X112011279Y-111663532D01*
X111964226Y-112024513D01*
X111932170Y-112257072D01*
X111870643Y-112500150D01*
X111800287Y-112632658D01*
X111716282Y-112672590D01*
X111492465Y-112723325D01*
X111208201Y-112752142D01*
X111046769Y-112764681D01*
X110790895Y-112814360D01*
X110661511Y-112887994D01*
X110636417Y-112954713D01*
X110602015Y-113166698D01*
X110587964Y-113440452D01*
X110587708Y-113469797D01*
X110550418Y-113810435D01*
X110453620Y-114011952D01*
X110446739Y-114018223D01*
X110399469Y-114044340D01*
X110317049Y-114066660D01*
X110187282Y-114085472D01*
X109997969Y-114101070D01*
X109736911Y-114113742D01*
X109391910Y-114123781D01*
X108950767Y-114131477D01*
X108401285Y-114137121D01*
X107731264Y-114141004D01*
X106928506Y-114143418D01*
X105980813Y-114144653D01*
X104875987Y-114145000D01*
X104409133Y-114144900D01*
X103326975Y-114143670D01*
X102399985Y-114140884D01*
X101617980Y-114136346D01*
X100970778Y-114129862D01*
X100448193Y-114121237D01*
X100040042Y-114110275D01*
X99736143Y-114096782D01*
X99526311Y-114080563D01*
X99400363Y-114061423D01*
X99348116Y-114039167D01*
X99279511Y-113902884D01*
X99219635Y-113621597D01*
X99209966Y-113306501D01*
X99257446Y-113034507D01*
X99348162Y-112774278D01*
X100882248Y-112816525D01*
X101040877Y-112820456D01*
X101449015Y-112828439D01*
X101966499Y-112836599D01*
X102571894Y-112844758D01*
X103243764Y-112852737D01*
X103960673Y-112860357D01*
X104701184Y-112867440D01*
X105443863Y-112873808D01*
X106167274Y-112879282D01*
X106849980Y-112883682D01*
X107470545Y-112886832D01*
X108007534Y-112888551D01*
X108439511Y-112888662D01*
X108745040Y-112886985D01*
X108902686Y-112883343D01*
X108947099Y-112874377D01*
X109130682Y-112794854D01*
X109353007Y-112661934D01*
X109444976Y-112603635D01*
X109633801Y-112511235D01*
X109744382Y-112496708D01*
X109754644Y-112501611D01*
X109900440Y-112513694D01*
X110119560Y-112488684D01*
X110241905Y-112463172D01*
X110362737Y-112405293D01*
X110409527Y-112282916D01*
X110417334Y-112043647D01*
X110417816Y-111987551D01*
X110444960Y-111746538D01*
X110538068Y-111553945D01*
X110730850Y-111333403D01*
X110770646Y-111293714D01*
X111036723Y-111085388D01*
X111260017Y-111011037D01*
X111340468Y-111010136D01*
X111443269Y-110999200D01*
X111523152Y-110961003D01*
X111583084Y-110877785D01*
X111626032Y-110731788D01*
X111654965Y-110505253D01*
X111672850Y-110180421D01*
X111682653Y-109739534D01*
X111687344Y-109164833D01*
X111689889Y-108438560D01*
X111690236Y-108295489D01*
X111689629Y-107679816D01*
X111685765Y-107124885D01*
X111679032Y-106652414D01*
X111669815Y-106284118D01*
X111658503Y-106041717D01*
X111645482Y-105946926D01*
X111638450Y-105940181D01*
X111590439Y-105911860D01*
X111495496Y-105892993D01*
X111312865Y-105878212D01*
X111001789Y-105862149D01*
X110870548Y-105848762D01*
X110585380Y-105736824D01*
X110401121Y-105502456D01*
X110302838Y-105130019D01*
X110278382Y-104987471D01*
X110210714Y-104743005D01*
X110134591Y-104597305D01*
X110089695Y-104569132D01*
X109878757Y-104516389D01*
X109509854Y-104476530D01*
X108977495Y-104448848D01*
X108631535Y-104433503D01*
X108224961Y-104401579D01*
X107972597Y-104358881D01*
X107865367Y-104304229D01*
X107864023Y-104302310D01*
X107808378Y-104276725D01*
X107676848Y-104254781D01*
X107457754Y-104236113D01*
X107139413Y-104220356D01*
X106710145Y-104207144D01*
X106158269Y-104196113D01*
X105472105Y-104186897D01*
X104639970Y-104179131D01*
X103650185Y-104172450D01*
X102785695Y-104167529D01*
X101981987Y-104163621D01*
X101319839Y-104161780D01*
X100784695Y-104162506D01*
X100362000Y-104166298D01*
X100037199Y-104173655D01*
X99795735Y-104185077D01*
X99623055Y-104201062D01*
X99504601Y-104222109D01*
X99425820Y-104248718D01*
X99372154Y-104281388D01*
X99329050Y-104320617D01*
X99298728Y-104353423D01*
X99189526Y-104568121D01*
X99156667Y-104888500D01*
X99134273Y-105173959D01*
X99027900Y-105421867D01*
X98814380Y-105554401D01*
X98472259Y-105593667D01*
X98157552Y-105621583D01*
X97943480Y-105730180D01*
X97830562Y-105946686D01*
X97792647Y-106298214D01*
X97786081Y-106654158D01*
X97782046Y-107274261D01*
X97791770Y-107756054D01*
X97816353Y-108120150D01*
X97856897Y-108387162D01*
X97914506Y-108577702D01*
X97938390Y-108638735D01*
X98034334Y-108952109D01*
X98102274Y-109273428D01*
X98128709Y-109435876D01*
X98179788Y-109589276D01*
X98279141Y-109648115D01*
X98470108Y-109657667D01*
X98484792Y-109657827D01*
X98758696Y-109703503D01*
X98989662Y-109805833D01*
X99037820Y-109834324D01*
X99112359Y-109861959D01*
X99221327Y-109885281D01*
X99378214Y-109904756D01*
X99596512Y-109920848D01*
X99889710Y-109934024D01*
X100271299Y-109944749D01*
X100754770Y-109953487D01*
X101353611Y-109960704D01*
X102081315Y-109966867D01*
X102951371Y-109972439D01*
X103977270Y-109977887D01*
X104409849Y-109980207D01*
X105483098Y-109987668D01*
X106395943Y-109996862D01*
X107154925Y-110007948D01*
X107766580Y-110021088D01*
X108237449Y-110036440D01*
X108574069Y-110054164D01*
X108782980Y-110074420D01*
X108870721Y-110097366D01*
X108879455Y-110105305D01*
X108952418Y-110287446D01*
X108960785Y-110623813D01*
X108935667Y-111054667D01*
X105295000Y-111105899D01*
X104637759Y-111115080D01*
X103594997Y-111129495D01*
X102702717Y-111142015D01*
X101948872Y-111153282D01*
X101321414Y-111163937D01*
X100808294Y-111174622D01*
X100397465Y-111185978D01*
X100076877Y-111198646D01*
X99834484Y-111213267D01*
X99658237Y-111230483D01*
X99536087Y-111250935D01*
X99455987Y-111275264D01*
X99405888Y-111304111D01*
X99373742Y-111338118D01*
X99347501Y-111377926D01*
X99315117Y-111424176D01*
X99247759Y-111518455D01*
X99183977Y-111672856D01*
X99165643Y-111881468D01*
X99183148Y-112200831D01*
X99228463Y-112754328D01*
X98626968Y-112739624D01*
X98347220Y-112725233D01*
X98064087Y-112667909D01*
X97898661Y-112542873D01*
X97821210Y-112322756D01*
X97802000Y-111980185D01*
X97799910Y-111857452D01*
X97761425Y-111594387D01*
X97649836Y-111435401D01*
X97433308Y-111351022D01*
X97080007Y-111311777D01*
X96877005Y-111291522D01*
X96635363Y-111243707D01*
X96501871Y-111185475D01*
X96474703Y-111098728D01*
X96451164Y-110888950D01*
X96431295Y-110548676D01*
X96414831Y-110070142D01*
X96401504Y-109445584D01*
X96391049Y-108667237D01*
X96383198Y-107727337D01*
X96383030Y-107701320D01*
X96377890Y-106828211D01*
X96372617Y-106109340D01*
X96364015Y-105530039D01*
X96348886Y-105075640D01*
X96324032Y-104731476D01*
X96286255Y-104482879D01*
X96232358Y-104315180D01*
X96159143Y-104213713D01*
X96063412Y-104163809D01*
X95941967Y-104150802D01*
X95791611Y-104160022D01*
X95609146Y-104176803D01*
X95448112Y-104190554D01*
X95274105Y-104219053D01*
X95143565Y-104277244D01*
X95050246Y-104385075D01*
X94987900Y-104562496D01*
X94950283Y-104829455D01*
X94931147Y-105205901D01*
X94924246Y-105711782D01*
X94923334Y-106367048D01*
X94922913Y-106927971D01*
X94920183Y-107395719D01*
X94912997Y-107737322D01*
X94899211Y-107975276D01*
X94876679Y-108132077D01*
X94843257Y-108230223D01*
X94796800Y-108292209D01*
X94735162Y-108340532D01*
X94689654Y-108367266D01*
X94436277Y-108443682D01*
X94103141Y-108472333D01*
X93959339Y-108475303D01*
X93724606Y-108514700D01*
X93587315Y-108625731D01*
X93520195Y-108840723D01*
X93495972Y-109192000D01*
X93457292Y-109503720D01*
X93328560Y-109743659D01*
X93089132Y-109872990D01*
X92717422Y-109911667D01*
X92431031Y-109941821D01*
X92204707Y-110066061D01*
X92081758Y-110305252D01*
X92044667Y-110679383D01*
X92044773Y-110747379D01*
X92041208Y-110917943D01*
X92018816Y-111053388D01*
X91960876Y-111157374D01*
X91850667Y-111233561D01*
X91671466Y-111285612D01*
X91406553Y-111317186D01*
X91039205Y-111331944D01*
X90552703Y-111333547D01*
X89930324Y-111325655D01*
X89155347Y-111311930D01*
X88453414Y-111299417D01*
X87552735Y-111283604D01*
X86586056Y-111266840D01*
X85608034Y-111250068D01*
X84673326Y-111234228D01*
X83836589Y-111220264D01*
X83178812Y-111207792D01*
X82430032Y-111188381D01*
X81830702Y-111165983D01*
X81385790Y-111140834D01*
X81100263Y-111113174D01*
X80979089Y-111083241D01*
X80939581Y-111025178D01*
X80887050Y-110798436D01*
X80868667Y-110439485D01*
X80868667Y-109887371D01*
X81633927Y-109945140D01*
X81668615Y-109947535D01*
X81953369Y-109960123D01*
X82379520Y-109971469D01*
X82923426Y-109981267D01*
X83561445Y-109989214D01*
X84269935Y-109995004D01*
X85025254Y-109998333D01*
X85803760Y-109998895D01*
X86249763Y-109998306D01*
X87021455Y-109996600D01*
X87648552Y-109993539D01*
X88147535Y-109988339D01*
X88534886Y-109980216D01*
X88827088Y-109968389D01*
X89040623Y-109952073D01*
X89191974Y-109930487D01*
X89297622Y-109902847D01*
X89374049Y-109868370D01*
X89437739Y-109826274D01*
X89477151Y-109798734D01*
X89596577Y-109736786D01*
X89752700Y-109695892D01*
X89978666Y-109671865D01*
X90307620Y-109660518D01*
X90772708Y-109657667D01*
X91878272Y-109657667D01*
X91866274Y-109073952D01*
X91865394Y-109026481D01*
X91870094Y-108667930D01*
X91903958Y-108446512D01*
X91975192Y-108334208D01*
X92091997Y-108303000D01*
X92150065Y-108287230D01*
X92214000Y-108173021D01*
X92242206Y-108091221D01*
X92362167Y-108116157D01*
X92518194Y-108158323D01*
X92750198Y-108166001D01*
X92803815Y-108160750D01*
X92931698Y-108142069D01*
X93031034Y-108102780D01*
X93105415Y-108024293D01*
X93158434Y-107888018D01*
X93193685Y-107675363D01*
X93214758Y-107367738D01*
X93225247Y-106946551D01*
X93228745Y-106393213D01*
X93228844Y-105689133D01*
X93226901Y-105114818D01*
X93221548Y-104549083D01*
X93213322Y-104054640D01*
X93202745Y-103656000D01*
X93190342Y-103377672D01*
X93176636Y-103244167D01*
X93160269Y-103192631D01*
X93092310Y-103103202D01*
X92949958Y-103062994D01*
X92685975Y-103053667D01*
X92603621Y-103052849D01*
X92270391Y-103015874D01*
X92062691Y-102902209D01*
X91948091Y-102682032D01*
X91894161Y-102325521D01*
X91869445Y-102104276D01*
X91822240Y-101857990D01*
X91769943Y-101720167D01*
X91742884Y-101700368D01*
X91617762Y-101667042D01*
X91385971Y-101642658D01*
X91031866Y-101626333D01*
X90539804Y-101617186D01*
X89894139Y-101614333D01*
X89424704Y-101613506D01*
X88926672Y-101608946D01*
X88557143Y-101598886D01*
X88292749Y-101581634D01*
X88110122Y-101555500D01*
X87985893Y-101518793D01*
X87896694Y-101469822D01*
X87881024Y-101459396D01*
X87806953Y-101423196D01*
X87699965Y-101393863D01*
X87543010Y-101370586D01*
X87319033Y-101352552D01*
X87010984Y-101338948D01*
X86601811Y-101328962D01*
X86074460Y-101321781D01*
X85411881Y-101316593D01*
X84597021Y-101312584D01*
X83916293Y-101309524D01*
X83234161Y-101305919D01*
X82614333Y-101302098D01*
X82078214Y-101298215D01*
X81647209Y-101294428D01*
X81342725Y-101290891D01*
X81186167Y-101287762D01*
X80868667Y-101275667D01*
X80868667Y-100770645D01*
X80869422Y-100668059D01*
X80886962Y-100409303D01*
X80937154Y-100260947D01*
X81032434Y-100177979D01*
X81137082Y-100157584D01*
X81411845Y-100137411D01*
X81848019Y-100120704D01*
X82441391Y-100107552D01*
X83187750Y-100098046D01*
X84082886Y-100092276D01*
X85122585Y-100090333D01*
X85183121Y-100090330D01*
X86129890Y-100089332D01*
X86921161Y-100086293D01*
X87569993Y-100080852D01*
X88089448Y-100072648D01*
X88492588Y-100061320D01*
X88792474Y-100046507D01*
X89002166Y-100027847D01*
X89134725Y-100004981D01*
X89203214Y-99977546D01*
X89236363Y-99948452D01*
X89338721Y-99749369D01*
X89393416Y-99406046D01*
X89418342Y-99088180D01*
X89453286Y-98815085D01*
X89517776Y-98656809D01*
X89639341Y-98583593D01*
X89845510Y-98565683D01*
X90163813Y-98573321D01*
X90222983Y-98575304D01*
X90535671Y-98598707D01*
X90769488Y-98637483D01*
X90879204Y-98684596D01*
X90891031Y-98708555D01*
X90927407Y-98879937D01*
X90942704Y-99120900D01*
X90951868Y-99296215D01*
X91026524Y-99521656D01*
X91201608Y-99635526D01*
X91507283Y-99667000D01*
X91716001Y-99675236D01*
X92045005Y-99749253D01*
X92247287Y-99909368D01*
X92341545Y-100166782D01*
X92392673Y-100502831D01*
X92446542Y-100783088D01*
X92510963Y-100951125D01*
X92606782Y-101037045D01*
X92754846Y-101070949D01*
X92976000Y-101082939D01*
X93310962Y-101129546D01*
X93602241Y-101276900D01*
X93769310Y-101533127D01*
X93822667Y-101908463D01*
X93823489Y-102114084D01*
X93840672Y-102300555D01*
X93899617Y-102423738D01*
X94025835Y-102496737D01*
X94244837Y-102532656D01*
X94582135Y-102544598D01*
X95063241Y-102545667D01*
X95108115Y-102545671D01*
X95555936Y-102547452D01*
X95868923Y-102555824D01*
X96078892Y-102575699D01*
X96217659Y-102611992D01*
X96317039Y-102669616D01*
X96408849Y-102753485D01*
X96540887Y-102933867D01*
X96629563Y-103240318D01*
X96629794Y-103245302D01*
X96641516Y-103469840D01*
X96651701Y-103622232D01*
X96701831Y-103751674D01*
X96907294Y-103888690D01*
X97268736Y-103964536D01*
X97784938Y-103979004D01*
X98454683Y-103931884D01*
X98962871Y-103878767D01*
X98934207Y-103495876D01*
X98924756Y-103382117D01*
X98902189Y-103180804D01*
X98882938Y-103091251D01*
X98817478Y-103075727D01*
X98624404Y-103048137D01*
X98352334Y-103017121D01*
X98257612Y-103005871D01*
X97903470Y-102920679D01*
X97698630Y-102778145D01*
X97632667Y-102571818D01*
X97625129Y-102528145D01*
X97540056Y-102461000D01*
X97515503Y-102451745D01*
X97483016Y-102322568D01*
X97505667Y-102037667D01*
X97534026Y-101820680D01*
X97525717Y-101682845D01*
X97445647Y-101618539D01*
X97261292Y-101603326D01*
X96940128Y-101612770D01*
X96779099Y-101607038D01*
X96477614Y-101524477D01*
X96270389Y-101364247D01*
X96193334Y-101148667D01*
X96183591Y-101090218D01*
X96107054Y-101021667D01*
X96061979Y-100970536D01*
X96073899Y-100810000D01*
X96094687Y-100631205D01*
X96071071Y-100375399D01*
X96044651Y-100284483D01*
X95982466Y-100200079D01*
X95852985Y-100178483D01*
X95606135Y-100200903D01*
X95567718Y-100205319D01*
X95316376Y-100218008D01*
X95155378Y-100174473D01*
X95017909Y-100058547D01*
X94894766Y-99877949D01*
X94838667Y-99687706D01*
X94824796Y-99574354D01*
X94764904Y-99462072D01*
X94761440Y-99459605D01*
X94721460Y-99345013D01*
X94722784Y-99144704D01*
X94721319Y-98939171D01*
X94638570Y-98814854D01*
X94445697Y-98753855D01*
X94114016Y-98736963D01*
X93930851Y-98731887D01*
X93653488Y-98682475D01*
X93481946Y-98555480D01*
X93386383Y-98320580D01*
X93336953Y-97947453D01*
X93322062Y-97679966D01*
X93334626Y-97454477D01*
X93385568Y-97381000D01*
X93410510Y-97377438D01*
X93530846Y-97270109D01*
X93639149Y-97044429D01*
X93719428Y-96742508D01*
X93755689Y-96406455D01*
X93756189Y-96386081D01*
X93746945Y-96091712D01*
X93690555Y-95894997D01*
X93568862Y-95730207D01*
X93529276Y-95688936D01*
X93446492Y-95618422D01*
X93343753Y-95570679D01*
X93191184Y-95541318D01*
X92958909Y-95525950D01*
X92617053Y-95520183D01*
X92135742Y-95519630D01*
X91953553Y-95520494D01*
X91527930Y-95528046D01*
X91173381Y-95542048D01*
X90922658Y-95560931D01*
X90808509Y-95583130D01*
X90681487Y-95717628D01*
X90562632Y-96019603D01*
X90520667Y-96427167D01*
X90505163Y-96694137D01*
X90426215Y-96908273D01*
X90254804Y-97013991D01*
X89962780Y-97042333D01*
X89673540Y-97069772D01*
X89423595Y-97191676D01*
X89277599Y-97429790D01*
X89215729Y-97804333D01*
X89188364Y-98270000D01*
X87953693Y-98293406D01*
X87712591Y-98298283D01*
X87258826Y-98304232D01*
X86941887Y-98289108D01*
X86739007Y-98236343D01*
X86627422Y-98129368D01*
X86584365Y-97951615D01*
X86587071Y-97686515D01*
X86612773Y-97317500D01*
X86621158Y-97251566D01*
X86672072Y-97170126D01*
X86805144Y-97134722D01*
X87063834Y-97127000D01*
X87145595Y-97126028D01*
X87476420Y-97084193D01*
X87680068Y-96960941D01*
X87782913Y-96729287D01*
X87811334Y-96362245D01*
X87805629Y-96161186D01*
X87755033Y-95901449D01*
X87626706Y-95741157D01*
X87390269Y-95651333D01*
X87015341Y-95603000D01*
X86499000Y-95560667D01*
X86525340Y-93613333D01*
X86527102Y-93490555D01*
X89166000Y-93490555D01*
X89172423Y-93805154D01*
X89201742Y-94002167D01*
X89268961Y-94130993D01*
X89389085Y-94242188D01*
X89514284Y-94321840D01*
X89848088Y-94412809D01*
X90199047Y-94380297D01*
X90514349Y-94234350D01*
X90741181Y-93985014D01*
X90815203Y-93789937D01*
X90838895Y-93589314D01*
X99007492Y-93589314D01*
X99107340Y-93939968D01*
X99285430Y-94215459D01*
X99333221Y-94260088D01*
X99551462Y-94382097D01*
X99851319Y-94415092D01*
X99854688Y-94415066D01*
X100269149Y-94363510D01*
X100551942Y-94210299D01*
X100713770Y-93945405D01*
X100765334Y-93558801D01*
X100741932Y-93203307D01*
X100642550Y-92905603D01*
X100447672Y-92729316D01*
X100138544Y-92659014D01*
X99696413Y-92679266D01*
X99657238Y-92684191D01*
X99334189Y-92768814D01*
X99132817Y-92935140D01*
X99016672Y-93211723D01*
X99008594Y-93248303D01*
X99007904Y-93461800D01*
X99007492Y-93589314D01*
X90838895Y-93589314D01*
X90853954Y-93461800D01*
X90817735Y-93138987D01*
X90708758Y-92895806D01*
X90657700Y-92839843D01*
X90526331Y-92757256D01*
X90324407Y-92713927D01*
X90002730Y-92695927D01*
X89654704Y-92698829D01*
X89396026Y-92750489D01*
X89248291Y-92880724D01*
X89181588Y-93117943D01*
X89166000Y-93490555D01*
X86527102Y-93490555D01*
X86533518Y-93043474D01*
X86545699Y-92508080D01*
X86566107Y-92107147D01*
X86600579Y-91821764D01*
X86654954Y-91633023D01*
X86735071Y-91522013D01*
X86846767Y-91469825D01*
X86995882Y-91457551D01*
X87188254Y-91466279D01*
X87494715Y-91445291D01*
X87736251Y-91356191D01*
X87790140Y-91316968D01*
X87881320Y-91204281D01*
X87924279Y-91028264D01*
X87935997Y-90736217D01*
X87936864Y-90656256D01*
X87955233Y-90393076D01*
X88007565Y-90240754D01*
X88107667Y-90152325D01*
X88111809Y-90150260D01*
X88214040Y-90129906D01*
X88426131Y-90113401D01*
X88755514Y-90100673D01*
X89209617Y-90091653D01*
X89795871Y-90086268D01*
X90521707Y-90084449D01*
X91394553Y-90086122D01*
X92421841Y-90091219D01*
X93611000Y-90099667D01*
X98945000Y-90142000D01*
X98998213Y-90637361D01*
X99031194Y-90894249D01*
X99088879Y-91119297D01*
X99190858Y-91274977D01*
X99362139Y-91374868D01*
X99627728Y-91432548D01*
X100012631Y-91461596D01*
X100541855Y-91475592D01*
X100941056Y-91484806D01*
X101349055Y-91507478D01*
X101629320Y-91553550D01*
X101805732Y-91635748D01*
X101902173Y-91766799D01*
X101942524Y-91959431D01*
X101950667Y-92226370D01*
X101981307Y-92503379D01*
X102122661Y-92771602D01*
X102383358Y-92921524D01*
X102768277Y-92957510D01*
X103015797Y-92965288D01*
X103193631Y-93044080D01*
X103280379Y-93227120D01*
X103304037Y-93545112D01*
X103306000Y-93558801D01*
X103355508Y-93903956D01*
X103522394Y-94169585D01*
G37*
G36*
X110758920Y-85782937D02*
G01*
X111233853Y-85798935D01*
X111547366Y-85833637D01*
X111704514Y-85887500D01*
X111790210Y-86002277D01*
X111868622Y-86245577D01*
X111890780Y-86516201D01*
X111843551Y-86734167D01*
X111823714Y-86765274D01*
X111756241Y-86816533D01*
X111631295Y-86850449D01*
X111420922Y-86870442D01*
X111097165Y-86879930D01*
X110632069Y-86882333D01*
X110372719Y-86881503D01*
X109927588Y-86870756D01*
X109618132Y-86840132D01*
X109421450Y-86780333D01*
X109314641Y-86682057D01*
X109274801Y-86536004D01*
X109279029Y-86332874D01*
X109283094Y-86284550D01*
X109313547Y-86082274D01*
X109379965Y-85942941D01*
X109509011Y-85854881D01*
X109727344Y-85806428D01*
X110061627Y-85785912D01*
X110538519Y-85781667D01*
X110758920Y-85782937D01*
G37*
G36*
X91348997Y-80157471D02*
G01*
X91579000Y-80184529D01*
X92002334Y-80236000D01*
X92025818Y-81389142D01*
X92036856Y-81818486D01*
X92061627Y-82217519D01*
X92111936Y-82493022D01*
X92201958Y-82670345D01*
X92345868Y-82774837D01*
X92557840Y-82831847D01*
X92852049Y-82866723D01*
X93071806Y-82891032D01*
X93300646Y-82925628D01*
X93416157Y-82955731D01*
X93424351Y-82962765D01*
X93465317Y-83091726D01*
X93481886Y-83320080D01*
X93475174Y-83588601D01*
X93446292Y-83838060D01*
X93396355Y-84009233D01*
X93329608Y-84092726D01*
X93173821Y-84155596D01*
X92899773Y-84173000D01*
X92550415Y-84206824D01*
X92262334Y-84338769D01*
X92097306Y-84579403D01*
X92044667Y-84938272D01*
X92040365Y-85048142D01*
X91990261Y-85377278D01*
X91901986Y-85651794D01*
X91863895Y-85729022D01*
X91760851Y-85877481D01*
X91618845Y-85941302D01*
X91372819Y-85958148D01*
X91334219Y-85958865D01*
X91038328Y-85964454D01*
X90658382Y-85971732D01*
X90266667Y-85979315D01*
X89547000Y-85993333D01*
X89547000Y-86840000D01*
X90266667Y-86848489D01*
X90514249Y-86853586D01*
X91132593Y-86893131D01*
X91637390Y-86973820D01*
X92067547Y-87101111D01*
X92190250Y-87138529D01*
X92512835Y-87197676D01*
X92846730Y-87221000D01*
X93076624Y-87230270D01*
X93424406Y-87291443D01*
X93656614Y-87401840D01*
X93747750Y-87552090D01*
X93752645Y-87695676D01*
X93703602Y-87974942D01*
X93554193Y-88173500D01*
X93522294Y-88197755D01*
X93447116Y-88235100D01*
X93334283Y-88264168D01*
X93164984Y-88285973D01*
X92920409Y-88301534D01*
X92581747Y-88311867D01*
X92130187Y-88317989D01*
X91546919Y-88320917D01*
X90813133Y-88321667D01*
X90672691Y-88321695D01*
X89921111Y-88323518D01*
X89316570Y-88329642D01*
X88839959Y-88342100D01*
X88472169Y-88362923D01*
X88194091Y-88394142D01*
X87986617Y-88437788D01*
X87830637Y-88495894D01*
X87707043Y-88570491D01*
X87596725Y-88663610D01*
X87566424Y-88690009D01*
X87356194Y-88788921D01*
X87046392Y-88806137D01*
X86668334Y-88787333D01*
X86642767Y-89183662D01*
X86640981Y-89207484D01*
X86546138Y-89580894D01*
X86349295Y-89892150D01*
X86081380Y-90105610D01*
X85773322Y-90185630D01*
X85652071Y-90189923D01*
X85401432Y-90252099D01*
X85265627Y-90411948D01*
X85211557Y-90699760D01*
X85156110Y-90981134D01*
X84979590Y-91328842D01*
X84947405Y-91371580D01*
X84875467Y-91481385D01*
X84827522Y-91601343D01*
X84799697Y-91763279D01*
X84788120Y-91999014D01*
X84788917Y-92340374D01*
X84798215Y-92819180D01*
X84799898Y-92891654D01*
X84816033Y-93398017D01*
X84838559Y-93897376D01*
X84864723Y-94335625D01*
X84891774Y-94658658D01*
X84912287Y-94869765D01*
X84923287Y-95130508D01*
X84900018Y-95281207D01*
X84839798Y-95357945D01*
X84758835Y-95385813D01*
X84537055Y-95412210D01*
X84255334Y-95413287D01*
X83789667Y-95391333D01*
X83767217Y-92856850D01*
X83763526Y-92211073D01*
X83764962Y-91557123D01*
X83772274Y-91019993D01*
X83785163Y-90612795D01*
X83803334Y-90348641D01*
X83826490Y-90240644D01*
X83922450Y-90200163D01*
X84145810Y-90157778D01*
X84436219Y-90130448D01*
X84686405Y-90108348D01*
X84923311Y-90067486D01*
X85046171Y-90020030D01*
X85087038Y-89910236D01*
X85121140Y-89678209D01*
X85137848Y-89379784D01*
X85146891Y-89138934D01*
X85192895Y-88878921D01*
X85306340Y-88736319D01*
X85519750Y-88679762D01*
X85865651Y-88677879D01*
X86054864Y-88679242D01*
X86298747Y-88663178D01*
X86437151Y-88630061D01*
X86476836Y-88575534D01*
X86524770Y-88367351D01*
X86542630Y-88041503D01*
X86549928Y-87795266D01*
X86572993Y-87553471D01*
X86606130Y-87423959D01*
X86697983Y-87374698D01*
X86915620Y-87321688D01*
X87203886Y-87283242D01*
X87292035Y-87274594D01*
X87633469Y-87209313D01*
X87842288Y-87086396D01*
X87947465Y-86878747D01*
X87977974Y-86559267D01*
X87979685Y-86461805D01*
X88014929Y-86153739D01*
X88118743Y-85972937D01*
X88322152Y-85887701D01*
X88656178Y-85866333D01*
X88764975Y-85864443D01*
X89088195Y-85816093D01*
X89288819Y-85683111D01*
X89391277Y-85439707D01*
X89420000Y-85060094D01*
X89436867Y-84773250D01*
X89515485Y-84560367D01*
X89682999Y-84454898D01*
X89966100Y-84425844D01*
X90216116Y-84417345D01*
X90494078Y-84366429D01*
X90666244Y-84255185D01*
X90769342Y-84067217D01*
X90797911Y-83905897D01*
X90823101Y-83595840D01*
X90842482Y-83165826D01*
X90854934Y-82641043D01*
X90859334Y-82046678D01*
X90859266Y-81677110D01*
X90861868Y-81140617D01*
X90874382Y-80743042D01*
X90904333Y-80464913D01*
X90959246Y-80286762D01*
X91046644Y-80189118D01*
X91174053Y-80152511D01*
X91348997Y-80157471D01*
G37*
G36*
X110375000Y-75918000D02*
G01*
X110397329Y-76299000D01*
X110406456Y-76457259D01*
X110425958Y-76690571D01*
X110464458Y-76876296D01*
X110538658Y-77019950D01*
X110665260Y-77127054D01*
X110860968Y-77203126D01*
X111142483Y-77253684D01*
X111526508Y-77284247D01*
X112029747Y-77300334D01*
X112668901Y-77307464D01*
X113460672Y-77311155D01*
X113640985Y-77312055D01*
X114261617Y-77316954D01*
X114821490Y-77324097D01*
X115298887Y-77333021D01*
X115672096Y-77343261D01*
X115919400Y-77354353D01*
X116019086Y-77365832D01*
X116044854Y-77414524D01*
X116073853Y-77593187D01*
X116087653Y-77844590D01*
X116085592Y-78109830D01*
X116067008Y-78330004D01*
X116031237Y-78446208D01*
X116030341Y-78446855D01*
X115927744Y-78458024D01*
X115673360Y-78467522D01*
X115283830Y-78475207D01*
X114775793Y-78480938D01*
X114165890Y-78484574D01*
X113470763Y-78485971D01*
X112707051Y-78484989D01*
X111891396Y-78481485D01*
X111504215Y-78479223D01*
X110627991Y-78473606D01*
X109900661Y-78467705D01*
X109307543Y-78460884D01*
X108833952Y-78452504D01*
X108465204Y-78441929D01*
X108186617Y-78428522D01*
X107983506Y-78411646D01*
X107841189Y-78390663D01*
X107744981Y-78364938D01*
X107680199Y-78333833D01*
X107632159Y-78296711D01*
X107618321Y-78283765D01*
X107492050Y-78080301D01*
X107454000Y-77775827D01*
X107454302Y-77719935D01*
X107474167Y-77511934D01*
X107550972Y-77400037D01*
X107720635Y-77323282D01*
X107847026Y-77290210D01*
X108143873Y-77247177D01*
X108466452Y-77230333D01*
X108600308Y-77228364D01*
X108927771Y-77188232D01*
X109131909Y-77075692D01*
X109244624Y-76863683D01*
X109297818Y-76525143D01*
X109322934Y-76326474D01*
X109379973Y-76087589D01*
X109447425Y-75957214D01*
X109501206Y-75930375D01*
X109702412Y-75894369D01*
X109966256Y-75891926D01*
X110375000Y-75918000D01*
G37*
G36*
X118473074Y-85828490D02*
G01*
X118812027Y-85870056D01*
X119017699Y-85986999D01*
X119114915Y-86203482D01*
X119128498Y-86543667D01*
X119122295Y-86652459D01*
X119103845Y-86866631D01*
X119084960Y-86974716D01*
X119000049Y-87001717D01*
X118790590Y-87026576D01*
X118503898Y-87042767D01*
X118354439Y-87047330D01*
X118115575Y-87045672D01*
X117979926Y-87012700D01*
X117901625Y-86930473D01*
X117834805Y-86781051D01*
X117775578Y-86567818D01*
X117747069Y-86287084D01*
X117763266Y-86036080D01*
X117824901Y-85881400D01*
X117903947Y-85856219D01*
X118111984Y-85834333D01*
X118392356Y-85827124D01*
X118473074Y-85828490D01*
G37*
G36*
X126031631Y-96515084D02*
G01*
X125953667Y-96830667D01*
X124641334Y-96873000D01*
X124605564Y-96874138D01*
X124029366Y-96886454D01*
X123613184Y-96881898D01*
X123348951Y-96860171D01*
X123228596Y-96820976D01*
X123203136Y-96786428D01*
X123139631Y-96605036D01*
X123122415Y-96492000D01*
X123202000Y-96492000D01*
X123244334Y-96534333D01*
X123286667Y-96492000D01*
X123244334Y-96449667D01*
X123202000Y-96492000D01*
X123122415Y-96492000D01*
X123101596Y-96355310D01*
X123093193Y-96238000D01*
X123202000Y-96238000D01*
X123244334Y-96280333D01*
X123286667Y-96238000D01*
X123244334Y-96195667D01*
X123202000Y-96238000D01*
X123093193Y-96238000D01*
X123075000Y-95984000D01*
X121819300Y-95941667D01*
X121788937Y-95940638D01*
X121252651Y-95918294D01*
X120863328Y-95885680D01*
X120599648Y-95831400D01*
X120440293Y-95744061D01*
X120363942Y-95612268D01*
X120349276Y-95424627D01*
X120374975Y-95169743D01*
X120387733Y-94944084D01*
X120316417Y-94655360D01*
X120126003Y-94485911D01*
X119814513Y-94433132D01*
X119559806Y-94432667D01*
X119382548Y-94411185D01*
X119263096Y-94350693D01*
X119142549Y-94233710D01*
X119133958Y-94224374D01*
X119070194Y-94139649D01*
X119025961Y-94030484D01*
X118998043Y-93867909D01*
X118983221Y-93622951D01*
X118978279Y-93266638D01*
X118979998Y-92769999D01*
X118980771Y-92673317D01*
X120450334Y-92673317D01*
X120450529Y-92792078D01*
X120458337Y-93324156D01*
X120478487Y-93706874D01*
X120512268Y-93956741D01*
X120560968Y-94090264D01*
X120613752Y-94147907D01*
X120702199Y-94192571D01*
X120849901Y-94221754D01*
X121084372Y-94238648D01*
X121433127Y-94246444D01*
X121923679Y-94248333D01*
X122183768Y-94248343D01*
X122651572Y-94242703D01*
X122985128Y-94215865D01*
X123208635Y-94151438D01*
X123346294Y-94033030D01*
X123422306Y-93844248D01*
X123460872Y-93568702D01*
X123486191Y-93190000D01*
X123510753Y-92762601D01*
X123535554Y-92188967D01*
X123541236Y-91759840D01*
X123527870Y-91460484D01*
X123495529Y-91276162D01*
X123478561Y-91227970D01*
X123440386Y-91172724D01*
X123364259Y-91137799D01*
X123223944Y-91120784D01*
X122993205Y-91119271D01*
X122645807Y-91130850D01*
X122155514Y-91153113D01*
X121948128Y-91164018D01*
X121498278Y-91195756D01*
X121110056Y-91233888D01*
X120819339Y-91274552D01*
X120662000Y-91313886D01*
X120450334Y-91414439D01*
X120450334Y-92673317D01*
X118980771Y-92673317D01*
X118981573Y-92572980D01*
X118991797Y-92060662D01*
X119018798Y-91687365D01*
X119073884Y-91430134D01*
X119168362Y-91266013D01*
X119313539Y-91172044D01*
X119520723Y-91125271D01*
X119801221Y-91102739D01*
X120033556Y-91097416D01*
X120251406Y-91115396D01*
X120338742Y-91158000D01*
X120340791Y-91163543D01*
X120355763Y-91094418D01*
X120377514Y-90898398D01*
X120402087Y-90609729D01*
X120414903Y-90452189D01*
X120449244Y-90196122D01*
X120514240Y-90012138D01*
X120632993Y-89889002D01*
X120828606Y-89815477D01*
X121124180Y-89780328D01*
X121542819Y-89772317D01*
X122107625Y-89780210D01*
X122150741Y-89781026D01*
X122680215Y-89795018D01*
X123065011Y-89821421D01*
X123328174Y-89871879D01*
X123492745Y-89958034D01*
X123581767Y-90091532D01*
X123618283Y-90284015D01*
X123625334Y-90547127D01*
X123625334Y-91006684D01*
X124231160Y-91062989D01*
X124281943Y-91067663D01*
X124552183Y-91095249D01*
X124753460Y-91136493D01*
X124896081Y-91213631D01*
X124990352Y-91348897D01*
X125046579Y-91564527D01*
X125064065Y-91759840D01*
X125075070Y-91882756D01*
X125086130Y-92325818D01*
X125090067Y-92915948D01*
X125095723Y-93911897D01*
X124809586Y-94207115D01*
X124701742Y-94311168D01*
X124476393Y-94459852D01*
X124238159Y-94502333D01*
X124002881Y-94515468D01*
X123783222Y-94591742D01*
X123685799Y-94755862D01*
X123687206Y-95030256D01*
X123699778Y-95125472D01*
X123729191Y-95322851D01*
X123747642Y-95410270D01*
X123772426Y-95418686D01*
X123920784Y-95444941D01*
X124155342Y-95476425D01*
X124240574Y-95488471D01*
X124567238Y-95558214D01*
X124846296Y-95647989D01*
X124908344Y-95671104D01*
X125212792Y-95743260D01*
X125529430Y-95772333D01*
X125544936Y-95772357D01*
X125788638Y-95788183D01*
X125925061Y-95850807D01*
X126012280Y-95985917D01*
X126061987Y-96164983D01*
X126055656Y-96238000D01*
X126033633Y-96492000D01*
X126031631Y-96515084D01*
G37*
G36*
X127273355Y-94354627D02*
G01*
X127377216Y-94396500D01*
X127391733Y-94437172D01*
X127430666Y-94613095D01*
X127472182Y-94862933D01*
X127488908Y-94986031D01*
X127497851Y-95177700D01*
X127452909Y-95277273D01*
X127339588Y-95336529D01*
X127320396Y-95343163D01*
X127093254Y-95392717D01*
X126823992Y-95419909D01*
X126648803Y-95417740D01*
X126504350Y-95365339D01*
X126422190Y-95229511D01*
X126381421Y-95053045D01*
X126379360Y-94786253D01*
X126429374Y-94546913D01*
X126523024Y-94404118D01*
X126617404Y-94370426D01*
X126827359Y-94342180D01*
X127068039Y-94336717D01*
X127273355Y-94354627D01*
G37*
G36*
X94449001Y-81500275D02*
G01*
X94661665Y-81544878D01*
X94827827Y-81642520D01*
X94904655Y-81824302D01*
X94923334Y-82131742D01*
X94920917Y-82221367D01*
X94853363Y-82510894D01*
X94677628Y-82681738D01*
X94373000Y-82757448D01*
X94298527Y-82764886D01*
X94104197Y-82787913D01*
X94018679Y-82804100D01*
X93956132Y-82793734D01*
X93798014Y-82740389D01*
X93638030Y-82623599D01*
X93546772Y-82377547D01*
X93523961Y-82150351D01*
X93572826Y-81811268D01*
X93742767Y-81590400D01*
X94034565Y-81486988D01*
X94449001Y-81500275D01*
G37*
G36*
X130326996Y-96114496D02*
G01*
X130336272Y-96438660D01*
X130297388Y-96675667D01*
X130193011Y-96811102D01*
X130009253Y-96878352D01*
X129817879Y-96905707D01*
X129679000Y-96906590D01*
X129562765Y-96880524D01*
X129361500Y-96836125D01*
X129328675Y-96828566D01*
X129197168Y-96772549D01*
X129140694Y-96655903D01*
X129128667Y-96424559D01*
X129156263Y-96106437D01*
X129270564Y-95859468D01*
X129493172Y-95727037D01*
X129844963Y-95687667D01*
X130297658Y-95687667D01*
X130326996Y-96114496D01*
G37*
G36*
X131474733Y-100124691D02*
G01*
X131632830Y-100180391D01*
X131680531Y-100253519D01*
X131732030Y-100456732D01*
X131755217Y-100719145D01*
X131749352Y-100984351D01*
X131713693Y-101195946D01*
X131647500Y-101297526D01*
X131577212Y-101313206D01*
X131337850Y-101315247D01*
X131060922Y-101274950D01*
X130815377Y-101204980D01*
X130670161Y-101118002D01*
X130648377Y-101083066D01*
X130592789Y-100865650D01*
X130585495Y-100556000D01*
X130610334Y-100132667D01*
X131061330Y-100106524D01*
X131208983Y-100102798D01*
X131474733Y-100124691D01*
G37*
G36*
X97811983Y-78742719D02*
G01*
X98386460Y-78745900D01*
X98881500Y-78752388D01*
X98925007Y-78787059D01*
X98969677Y-78942356D01*
X98988489Y-79171469D01*
X98981142Y-79418011D01*
X98947334Y-79625593D01*
X98886764Y-79737829D01*
X98809559Y-79764218D01*
X98594535Y-79800713D01*
X98315264Y-79825514D01*
X97951417Y-79846352D01*
X97409759Y-79886161D01*
X97006375Y-79935094D01*
X96721239Y-80001010D01*
X96534325Y-80091765D01*
X96425609Y-80215216D01*
X96375065Y-80379221D01*
X96362667Y-80591637D01*
X96359859Y-80697021D01*
X96303885Y-80963155D01*
X96154849Y-81171182D01*
X95935451Y-81324426D01*
X95621449Y-81379000D01*
X95515356Y-81375806D01*
X95262495Y-81313638D01*
X95130616Y-81152023D01*
X95092667Y-80864650D01*
X95081716Y-80523305D01*
X95035325Y-80253651D01*
X94934598Y-80058571D01*
X94760647Y-79929586D01*
X94494583Y-79858217D01*
X94117519Y-79835986D01*
X93610565Y-79854414D01*
X92954834Y-79905023D01*
X92824932Y-79916822D01*
X92539958Y-79939104D01*
X92376583Y-79918109D01*
X92300513Y-79822501D01*
X92277455Y-79620947D01*
X92273116Y-79282112D01*
X92274075Y-79195556D01*
X92299485Y-78969267D01*
X92348915Y-78839552D01*
X92393756Y-78830115D01*
X92588713Y-78815894D01*
X92917667Y-78802131D01*
X93359274Y-78789111D01*
X93892191Y-78777120D01*
X94495075Y-78766443D01*
X95146582Y-78757363D01*
X95825370Y-78750166D01*
X96510095Y-78745136D01*
X97179414Y-78742559D01*
X97811983Y-78742719D01*
G37*
G36*
X128717935Y-85889146D02*
G01*
X128813269Y-85953118D01*
X128877769Y-86086158D01*
X128904467Y-86233201D01*
X128927515Y-86531130D01*
X128944039Y-86950622D01*
X128953091Y-87467059D01*
X128953721Y-88055824D01*
X128951380Y-88459528D01*
X128950497Y-88945770D01*
X128954760Y-89301675D01*
X128966354Y-89550731D01*
X128987465Y-89716427D01*
X129020276Y-89822249D01*
X129066973Y-89891686D01*
X129129740Y-89948227D01*
X129353906Y-90055809D01*
X129709547Y-90100963D01*
X129822383Y-90104161D01*
X130066931Y-90130756D01*
X130217483Y-90175217D01*
X130262793Y-90236419D01*
X130315463Y-90430470D01*
X130339129Y-90683838D01*
X130329189Y-90929518D01*
X130281039Y-91100502D01*
X130231574Y-91135923D01*
X130043910Y-91182404D01*
X129774853Y-91200333D01*
X129507930Y-91206234D01*
X129302168Y-91240115D01*
X129160507Y-91325539D01*
X129069998Y-91486065D01*
X129017690Y-91745249D01*
X128990635Y-92126651D01*
X128975883Y-92653827D01*
X128972875Y-92787983D01*
X128958476Y-93245092D01*
X128938437Y-93565721D01*
X128909463Y-93776313D01*
X128868260Y-93903314D01*
X128811534Y-93973167D01*
X128652763Y-94039666D01*
X128379991Y-94074971D01*
X128090435Y-94061372D01*
X127863433Y-93996884D01*
X127844758Y-93985799D01*
X127798466Y-93938809D01*
X127764106Y-93853536D01*
X127739919Y-93708139D01*
X127724146Y-93480776D01*
X127715028Y-93149608D01*
X127710805Y-92692794D01*
X127709719Y-92088493D01*
X127709193Y-91612451D01*
X127703675Y-91060072D01*
X127686553Y-90644167D01*
X127651161Y-90345371D01*
X127590836Y-90144323D01*
X127498914Y-90021657D01*
X127368728Y-89958013D01*
X127193616Y-89934026D01*
X126966912Y-89930333D01*
X126863932Y-89928551D01*
X126571648Y-89888347D01*
X126408534Y-89790320D01*
X126382594Y-89745314D01*
X126330657Y-89547127D01*
X126299166Y-89274487D01*
X126290866Y-88987605D01*
X126308502Y-88746692D01*
X126354819Y-88611959D01*
X126411467Y-88589542D01*
X126602363Y-88566818D01*
X126866329Y-88564147D01*
X127194159Y-88546074D01*
X127476869Y-88434672D01*
X127639765Y-88214357D01*
X127696389Y-87873868D01*
X127698192Y-87806061D01*
X127712821Y-87540519D01*
X127734281Y-87348000D01*
X127735907Y-87338744D01*
X127761060Y-87160781D01*
X127795778Y-86876750D01*
X127833059Y-86543667D01*
X127901000Y-85908667D01*
X128345908Y-85883061D01*
X128540428Y-85874638D01*
X128717935Y-85889146D01*
G37*
G36*
X85779334Y-95687326D02*
G01*
X85867178Y-95691795D01*
X86132511Y-95733275D01*
X86285327Y-95838599D01*
X86355273Y-96042382D01*
X86372000Y-96379235D01*
X86372000Y-96880737D01*
X85229000Y-96830667D01*
X85203965Y-96259167D01*
X85192899Y-95987409D01*
X85208270Y-95791988D01*
X85287750Y-95700073D01*
X85466414Y-95676805D01*
X85779334Y-95687326D01*
G37*
G36*
X112919463Y-87147167D02*
G01*
X113152399Y-87186795D01*
X113288085Y-87253795D01*
X113319253Y-87328420D01*
X113351888Y-87571981D01*
X113366038Y-87975262D01*
X113361952Y-88542592D01*
X113358321Y-88719754D01*
X113347705Y-89134374D01*
X113332942Y-89418251D01*
X113308744Y-89600112D01*
X113269824Y-89708685D01*
X113210894Y-89772699D01*
X113126667Y-89820881D01*
X113064765Y-89849264D01*
X112755241Y-89922199D01*
X112463253Y-89896653D01*
X112251090Y-89775832D01*
X112232070Y-89753069D01*
X112181262Y-89657623D01*
X112149482Y-89511120D01*
X112134314Y-89284056D01*
X112133341Y-88946925D01*
X112144148Y-88470225D01*
X112147515Y-88360778D01*
X112165002Y-87942809D01*
X112186798Y-87591929D01*
X112210450Y-87342210D01*
X112233510Y-87227726D01*
X112252725Y-87207724D01*
X112408069Y-87156109D01*
X112650835Y-87136431D01*
X112919463Y-87147167D01*
G37*
G36*
X131461529Y-91544636D02*
G01*
X131575766Y-91578283D01*
X131655592Y-91659435D01*
X131707144Y-91808394D01*
X131736557Y-92045462D01*
X131749968Y-92390940D01*
X131753515Y-92865131D01*
X131753334Y-93488336D01*
X131751916Y-93994590D01*
X131745290Y-94521752D01*
X131732431Y-94907827D01*
X131712443Y-95168810D01*
X131684431Y-95320697D01*
X131647500Y-95379481D01*
X131570784Y-95395364D01*
X131354915Y-95409174D01*
X131076000Y-95407703D01*
X130610334Y-95391333D01*
X130641921Y-93571000D01*
X130644454Y-93436714D01*
X130659462Y-92882902D01*
X130679773Y-92402937D01*
X130703947Y-92020689D01*
X130730543Y-91760030D01*
X130758122Y-91644833D01*
X130774064Y-91629264D01*
X130932721Y-91565046D01*
X131164109Y-91539000D01*
X131306744Y-91538192D01*
X131461529Y-91544636D01*
G37*
G36*
X105831392Y-92577004D02*
G01*
X106129537Y-92729831D01*
X106376611Y-92998805D01*
X106545061Y-93349088D01*
X106607334Y-93745845D01*
X106618387Y-93891179D01*
X106692444Y-93978395D01*
X106882500Y-94000811D01*
X107077808Y-94009211D01*
X107321864Y-94051027D01*
X107511768Y-94153122D01*
X107720055Y-94345331D01*
X107865972Y-94512174D01*
X107971803Y-94728109D01*
X108001480Y-95009756D01*
X108006413Y-95391333D01*
X109199226Y-95414747D01*
X109281815Y-95416389D01*
X109732557Y-95427356D01*
X110049116Y-95442289D01*
X110261976Y-95466187D01*
X110401622Y-95504048D01*
X110498537Y-95560870D01*
X110583206Y-95641649D01*
X110633342Y-95700806D01*
X110747119Y-95936775D01*
X110791781Y-96275596D01*
X110802820Y-96429001D01*
X110840579Y-96661196D01*
X110891024Y-96787890D01*
X110914620Y-96798175D01*
X111082635Y-96823236D01*
X111388192Y-96846383D01*
X111808577Y-96866435D01*
X112321074Y-96882211D01*
X112902969Y-96892529D01*
X114833079Y-96915333D01*
X114998052Y-97381000D01*
X115038262Y-97497931D01*
X115123394Y-97817347D01*
X115119829Y-98030421D01*
X115020915Y-98170379D01*
X114820000Y-98270450D01*
X114747584Y-98289932D01*
X114489215Y-98326849D01*
X114119403Y-98355768D01*
X113669318Y-98376571D01*
X113170132Y-98389142D01*
X112653013Y-98393364D01*
X112149133Y-98389121D01*
X111689663Y-98376295D01*
X111305773Y-98354771D01*
X111028633Y-98324431D01*
X110889414Y-98285159D01*
X110822779Y-98217480D01*
X110756035Y-98035872D01*
X110736462Y-97732141D01*
X110731155Y-97489846D01*
X110697545Y-97271047D01*
X110612049Y-97120698D01*
X110451195Y-97026213D01*
X110191512Y-96975006D01*
X109809529Y-96954492D01*
X109281774Y-96952083D01*
X108866322Y-96949666D01*
X108427697Y-96933806D01*
X108131641Y-96904347D01*
X107991331Y-96862208D01*
X107960562Y-96823985D01*
X107899493Y-96621808D01*
X107877334Y-96306733D01*
X107870499Y-96027491D01*
X107824216Y-95758365D01*
X107709834Y-95604405D01*
X107499423Y-95534699D01*
X107165055Y-95518333D01*
X106968136Y-95513067D01*
X106683459Y-95476353D01*
X106537236Y-95408887D01*
X106492086Y-95295365D01*
X106447785Y-95056511D01*
X106421035Y-94756391D01*
X106420203Y-94738862D01*
X106394306Y-94443333D01*
X106329514Y-94256221D01*
X106193237Y-94151732D01*
X105952886Y-94104069D01*
X105575873Y-94087439D01*
X105385321Y-94074165D01*
X105208664Y-94012975D01*
X105117737Y-93875302D01*
X105096804Y-93631675D01*
X105130131Y-93252625D01*
X105141906Y-93160062D01*
X105201453Y-92846778D01*
X105291999Y-92663093D01*
X105438390Y-92576626D01*
X105665476Y-92555000D01*
X105831392Y-92577004D01*
G37*
G36*
X102018629Y-77802911D02*
G01*
X102025551Y-77952074D01*
X102016526Y-78153597D01*
X101963171Y-78261782D01*
X101849296Y-78326711D01*
X101689109Y-78358890D01*
X101407296Y-78383592D01*
X101046971Y-78399772D01*
X100649389Y-78407144D01*
X100255807Y-78405423D01*
X99907481Y-78394325D01*
X99645666Y-78373565D01*
X99511620Y-78342857D01*
X99487594Y-78321415D01*
X99430278Y-78145307D01*
X99426953Y-77814987D01*
X99453000Y-77357333D01*
X101993000Y-77357333D01*
X102018629Y-77802911D01*
G37*
%TO.C,TP6*%
X77024000Y-57469000D02*
X78424000Y-57469000D01*
X77024000Y-56069000D02*
X77024000Y-57469000D01*
X78424000Y-57469000D02*
X78424000Y-56069000D01*
X78424000Y-56069000D02*
X77024000Y-56069000D01*
%TO.C,TP1*%
X84000000Y-117400000D02*
G75*
G03*
X84000000Y-117400000I-1200000J0D01*
G01*
%TO.C,JP4*%
X133620000Y-86676000D02*
X133620000Y-88076000D01*
X134920000Y-85976000D02*
X134320000Y-85976000D01*
X135620000Y-88076000D02*
X135620000Y-86676000D01*
X134320000Y-88776000D02*
X134920000Y-88776000D01*
X134320000Y-85976000D02*
G75*
G03*
X133620000Y-86676000I0J-700000D01*
G01*
X133620000Y-88076000D02*
G75*
G03*
X134320000Y-88776000I699999J-1D01*
G01*
X134920000Y-88776000D02*
G75*
G03*
X135620000Y-88076000I1J699999D01*
G01*
X135620000Y-86676000D02*
G75*
G03*
X134920000Y-85976000I-700000J0D01*
G01*
%TO.C,F8*%
X130763778Y-53288000D02*
X130246622Y-53288000D01*
X130763778Y-51868000D02*
X130246622Y-51868000D01*
%TO.C,TP24*%
X114997000Y-121223000D02*
X116397000Y-121223000D01*
X116397000Y-119823000D02*
X114997000Y-119823000D01*
X116397000Y-121223000D02*
X116397000Y-119823000D01*
X114997000Y-119823000D02*
X114997000Y-121223000D01*
%TO.C,TP25*%
X116397000Y-123255000D02*
X116397000Y-121855000D01*
X116397000Y-121855000D02*
X114997000Y-121855000D01*
X114997000Y-121855000D02*
X114997000Y-123255000D01*
X114997000Y-123255000D02*
X116397000Y-123255000D01*
%TO.C,JP1*%
X63400000Y-69700000D02*
X63400000Y-70300000D01*
X65500000Y-69000000D02*
X64100000Y-69000000D01*
X64100000Y-71000000D02*
X65500000Y-71000000D01*
X66200000Y-70300000D02*
X66200000Y-69700000D01*
X65500000Y-71000000D02*
G75*
G03*
X66200000Y-70300000I1J699999D01*
G01*
X66200000Y-69700000D02*
G75*
G03*
X65500000Y-69000000I-699999J1D01*
G01*
X64100000Y-69000000D02*
G75*
G03*
X63400000Y-69700000I0J-700000D01*
G01*
X63400000Y-70300000D02*
G75*
G03*
X64100000Y-71000000I700000J0D01*
G01*
%TO.C,F10*%
X136453378Y-54204800D02*
X135936222Y-54204800D01*
X136453378Y-55624800D02*
X135936222Y-55624800D01*
%TO.C,TP27*%
X116397000Y-127319000D02*
X116397000Y-125919000D01*
X114997000Y-127319000D02*
X116397000Y-127319000D01*
X116397000Y-125919000D02*
X114997000Y-125919000D01*
X114997000Y-125919000D02*
X114997000Y-127319000D01*
%TO.C,F4*%
X136656578Y-50494000D02*
X136139422Y-50494000D01*
X136656578Y-49074000D02*
X136139422Y-49074000D01*
%TO.C,TP26*%
X116397000Y-125287000D02*
X116397000Y-123887000D01*
X116397000Y-123887000D02*
X114997000Y-123887000D01*
X114997000Y-125287000D02*
X116397000Y-125287000D01*
X114997000Y-123887000D02*
X114997000Y-125287000D01*
%TO.C,F5*%
X130763778Y-56186000D02*
X130246622Y-56186000D01*
X130763778Y-57606000D02*
X130246622Y-57606000D01*
%TO.C,F6*%
X118368578Y-50494000D02*
X117851422Y-50494000D01*
X118368578Y-49074000D02*
X117851422Y-49074000D01*
%TO.C,TP4*%
X82765000Y-76268400D02*
X84165000Y-76268400D01*
X84165000Y-76268400D02*
X84165000Y-74868400D01*
X84165000Y-74868400D02*
X82765000Y-74868400D01*
X82765000Y-74868400D02*
X82765000Y-76268400D01*
%TO.C,F9*%
X118368578Y-52780000D02*
X117851422Y-52780000D01*
X118368578Y-51360000D02*
X117851422Y-51360000D01*
%TO.C,TP22*%
X102046000Y-127192000D02*
X102046000Y-125792000D01*
X100646000Y-127192000D02*
X102046000Y-127192000D01*
X102046000Y-125792000D02*
X100646000Y-125792000D01*
X100646000Y-125792000D02*
X100646000Y-127192000D01*
%TO.C,F13*%
X125683778Y-53135600D02*
X125166622Y-53135600D01*
X125683778Y-51715600D02*
X125166622Y-51715600D01*
%TO.C,TP21*%
X95058000Y-125287000D02*
X96458000Y-125287000D01*
X95058000Y-123887000D02*
X95058000Y-125287000D01*
X96458000Y-125287000D02*
X96458000Y-123887000D01*
X96458000Y-123887000D02*
X95058000Y-123887000D01*
%TO.C,TP8*%
X80840000Y-83068400D02*
X82240000Y-83068400D01*
X80840000Y-81668400D02*
X80840000Y-83068400D01*
X82240000Y-83068400D02*
X82240000Y-81668400D01*
X82240000Y-81668400D02*
X80840000Y-81668400D01*
%TO.C,TP30*%
X95058000Y-121855000D02*
X95058000Y-123255000D01*
X96458000Y-121855000D02*
X95058000Y-121855000D01*
X95058000Y-123255000D02*
X96458000Y-123255000D01*
X96458000Y-123255000D02*
X96458000Y-121855000D01*
%TO.C,F2*%
X136656578Y-46788000D02*
X136139422Y-46788000D01*
X136656578Y-48208000D02*
X136139422Y-48208000D01*
%TD*%
G36*
X141682121Y-147047002D02*
G01*
X141728614Y-147100658D01*
X141740000Y-147153000D01*
X141740000Y-151401000D01*
X141719998Y-151469121D01*
X141666342Y-151515614D01*
X141614000Y-151527000D01*
X129966000Y-151527000D01*
X129897879Y-151506998D01*
X129851386Y-151453342D01*
X129840000Y-151401000D01*
X129840000Y-147153000D01*
X129860002Y-147084879D01*
X129913658Y-147038386D01*
X129966000Y-147027000D01*
X141614000Y-147027000D01*
X141682121Y-147047002D01*
G37*
%LPC*%
D12*
%TO.C,J1*%
X64240000Y-54377500D03*
D13*
X66740000Y-54377500D03*
X66740000Y-52377500D03*
X64240000Y-52377500D03*
D14*
X71510000Y-49667500D03*
X59470000Y-49667500D03*
%TD*%
D15*
%TO.C,H9*%
X62500000Y-61550000D03*
X61333274Y-58733274D03*
D16*
X62500000Y-59900000D03*
D15*
X62500000Y-58250000D03*
X64150000Y-59900000D03*
X63666726Y-58733274D03*
X60850000Y-59900000D03*
X63666726Y-61066726D03*
X61333274Y-61066726D03*
%TD*%
D17*
%TO.C,TP13*%
X135800000Y-128300000D03*
%TD*%
%TO.C,TP15*%
X150600000Y-128400000D03*
%TD*%
D18*
%TO.C,U5*%
X130993000Y-87376000D03*
D19*
X130993000Y-84836000D03*
X130993000Y-82296000D03*
%TD*%
D12*
%TO.C,J5*%
X86614000Y-113538000D03*
D20*
X84074000Y-113538000D03*
X81534000Y-113538000D03*
%TD*%
D17*
%TO.C,TP14*%
X143300000Y-128300000D03*
%TD*%
D18*
%TO.C,Q7*%
X140314800Y-87249000D03*
D19*
X140314800Y-84709000D03*
X140314800Y-82169000D03*
%TD*%
D15*
%TO.C,H1*%
X64633274Y-150733274D03*
X66966726Y-150733274D03*
X64633274Y-153066726D03*
X67450000Y-151900000D03*
D16*
X65800000Y-151900000D03*
D15*
X65800000Y-153550000D03*
X65800000Y-150250000D03*
X64150000Y-151900000D03*
X66966726Y-153066726D03*
%TD*%
D21*
%TO.C,U23*%
X61450000Y-65410000D03*
D22*
X61450000Y-67950000D03*
X61450000Y-70490000D03*
X61450000Y-73030000D03*
X61450000Y-75570000D03*
X61450000Y-78110000D03*
X61450000Y-80650000D03*
X61450000Y-83190000D03*
X74150000Y-83190000D03*
X74150000Y-80650000D03*
X74150000Y-78110000D03*
X74150000Y-75570000D03*
X74150000Y-73030000D03*
X74150000Y-70490000D03*
X74150000Y-67950000D03*
X74150000Y-65410000D03*
%TD*%
D23*
%TO.C,J2*%
X124630000Y-150650000D03*
D24*
X121074000Y-145570000D03*
D23*
X124630000Y-147475000D03*
X119550000Y-150650000D03*
D24*
X122090000Y-150650000D03*
D23*
X119550000Y-147475000D03*
D24*
X123106000Y-145570000D03*
%TD*%
D15*
%TO.C,H4*%
X150966726Y-150933274D03*
X148150000Y-152100000D03*
D16*
X149800000Y-152100000D03*
D15*
X149800000Y-153750000D03*
X148633274Y-153266726D03*
X150966726Y-153266726D03*
X151450000Y-152100000D03*
X149800000Y-150450000D03*
X148633274Y-150933274D03*
%TD*%
D17*
%TO.C,J4*%
X60430000Y-140350000D03*
D25*
X61700000Y-140350000D03*
X60430000Y-141620000D03*
X61700000Y-141620000D03*
X60430000Y-142890000D03*
X61700000Y-142890000D03*
X60430000Y-144160000D03*
X61700000Y-144160000D03*
X60430000Y-145430000D03*
X61700000Y-145430000D03*
X60430000Y-146700000D03*
X61700000Y-146700000D03*
X60430000Y-147970000D03*
X61700000Y-147970000D03*
X60430000Y-149240000D03*
X61700000Y-149240000D03*
%TD*%
D18*
%TO.C,Q10*%
X144526000Y-49149000D03*
D19*
X144526000Y-51689000D03*
X144526000Y-54229000D03*
%TD*%
D18*
%TO.C,Q6*%
X150317200Y-87477600D03*
D19*
X150317200Y-84937600D03*
X150317200Y-82397600D03*
%TD*%
D15*
%TO.C,H3*%
X92559274Y-65428726D03*
X95376000Y-64262000D03*
X94892726Y-65428726D03*
X92076000Y-64262000D03*
D16*
X93726000Y-64262000D03*
D15*
X93726000Y-62612000D03*
X93726000Y-65912000D03*
X92559274Y-63095274D03*
X94892726Y-63095274D03*
%TD*%
D17*
%TO.C,TP10*%
X135200000Y-120300000D03*
%TD*%
%TO.C,TP11*%
X143200000Y-120400000D03*
%TD*%
%TO.C,TP12*%
X150600000Y-120400000D03*
%TD*%
D26*
%TO.C,J3*%
X134565000Y-72910000D03*
X134565000Y-68910000D03*
X134565000Y-64910000D03*
X134565000Y-60910000D03*
X132065000Y-72910000D03*
X132065000Y-68910000D03*
X132065000Y-64910000D03*
X132065000Y-60910000D03*
X129565000Y-72910000D03*
X129565000Y-68910000D03*
X129565000Y-64910000D03*
X129565000Y-60910000D03*
X127065000Y-72910000D03*
X127065000Y-68910000D03*
X127065000Y-64910000D03*
X127065000Y-60910000D03*
X124565000Y-72910000D03*
X124565000Y-68910000D03*
X124565000Y-64910000D03*
X124565000Y-60910000D03*
X122065000Y-72910000D03*
X122065000Y-68910000D03*
X122065000Y-64910000D03*
X122065000Y-60910000D03*
X119565000Y-72910000D03*
X119565000Y-68910000D03*
X119565000Y-64910000D03*
X119565000Y-60910000D03*
X117065000Y-72910000D03*
X117065000Y-68910000D03*
X117065000Y-64910000D03*
X117065000Y-60910000D03*
X114565000Y-72910000D03*
X114565000Y-68910000D03*
X114565000Y-64910000D03*
X114565000Y-60910000D03*
X112065000Y-72910000D03*
X112065000Y-68910000D03*
X112065000Y-64910000D03*
X112065000Y-60910000D03*
X108565000Y-72910000D03*
X108565000Y-68910000D03*
X108565000Y-64910000D03*
X108565000Y-60910000D03*
X105065000Y-72910000D03*
X105065000Y-68910000D03*
X105065000Y-64910000D03*
X105065000Y-60910000D03*
D27*
X138765000Y-63910000D03*
X100665000Y-63910000D03*
%TD*%
D28*
%TO.C,TP2*%
X73600000Y-133400000D03*
%TD*%
D29*
%TO.C,F14*%
X126362700Y-56946800D03*
X124487700Y-56946800D03*
%TD*%
D15*
%TO.C,H2*%
X151915726Y-50649274D03*
X150749000Y-53466000D03*
X152399000Y-51816000D03*
X151915726Y-52982726D03*
D16*
X150749000Y-51816000D03*
D15*
X149582274Y-52982726D03*
X150749000Y-50166000D03*
X149099000Y-51816000D03*
X149582274Y-50649274D03*
%TD*%
D17*
%TO.C,TP23*%
X95758000Y-126746000D03*
%TD*%
D29*
%TO.C,F12*%
X126413500Y-48006000D03*
X124538500Y-48006000D03*
%TD*%
%TO.C,F1*%
X119045200Y-54737000D03*
X117170200Y-54737000D03*
%TD*%
D17*
%TO.C,TP5*%
X81390000Y-75568400D03*
%TD*%
%TO.C,TP29*%
X95758000Y-120523000D03*
%TD*%
%TO.C,TP28*%
X95758000Y-118491000D03*
%TD*%
%TO.C,TP20*%
X101346000Y-124460000D03*
%TD*%
%TO.C,TP7*%
X81540000Y-78968400D03*
%TD*%
D30*
%TO.C,TP19*%
X120457400Y-130178800D03*
%TD*%
D17*
%TO.C,TP9*%
X77089000Y-105537000D03*
%TD*%
D31*
%TO.C,JP3*%
X65450000Y-73900000D03*
D32*
X64150000Y-73900000D03*
%TD*%
D29*
%TO.C,F7*%
X131442700Y-54711600D03*
X129567700Y-54711600D03*
%TD*%
D31*
%TO.C,JP2*%
X65450000Y-66100000D03*
D32*
X64150000Y-66100000D03*
%TD*%
D33*
%TO.C,R18*%
X149161000Y-90932000D03*
X147511000Y-90932000D03*
%TD*%
D29*
%TO.C,F3*%
X119047500Y-56896000D03*
X117172500Y-56896000D03*
%TD*%
%TO.C,F11*%
X137132300Y-56946800D03*
X135257300Y-56946800D03*
%TD*%
D30*
%TO.C,TP18*%
X69596000Y-97028000D03*
%TD*%
D17*
%TO.C,TP3*%
X87249000Y-56896000D03*
%TD*%
%TO.C,TP6*%
X77724000Y-56769000D03*
%TD*%
D28*
%TO.C,TP1*%
X82800000Y-117400000D03*
%TD*%
D34*
%TO.C,JP4*%
X134620000Y-88026000D03*
D35*
X134620000Y-86726000D03*
%TD*%
D29*
%TO.C,F8*%
X131442700Y-52578000D03*
X129567700Y-52578000D03*
%TD*%
D17*
%TO.C,TP24*%
X115697000Y-120523000D03*
%TD*%
%TO.C,TP25*%
X115697000Y-122555000D03*
%TD*%
D31*
%TO.C,JP1*%
X65450000Y-70000000D03*
D32*
X64150000Y-70000000D03*
%TD*%
D29*
%TO.C,F10*%
X137132300Y-54914800D03*
X135257300Y-54914800D03*
%TD*%
D17*
%TO.C,TP27*%
X115697000Y-126619000D03*
%TD*%
D29*
%TO.C,F4*%
X137335500Y-49784000D03*
X135460500Y-49784000D03*
%TD*%
D17*
%TO.C,TP26*%
X115697000Y-124587000D03*
%TD*%
D29*
%TO.C,F5*%
X131442700Y-56896000D03*
X129567700Y-56896000D03*
%TD*%
%TO.C,F6*%
X119047500Y-49784000D03*
X117172500Y-49784000D03*
%TD*%
D17*
%TO.C,TP4*%
X83465000Y-75568400D03*
%TD*%
D29*
%TO.C,F9*%
X119047500Y-52070000D03*
X117172500Y-52070000D03*
%TD*%
D17*
%TO.C,TP22*%
X101346000Y-126492000D03*
%TD*%
D29*
%TO.C,F13*%
X126362700Y-52425600D03*
X124487700Y-52425600D03*
%TD*%
D17*
%TO.C,TP21*%
X95758000Y-124587000D03*
%TD*%
%TO.C,TP8*%
X81540000Y-82368400D03*
%TD*%
%TO.C,TP30*%
X95758000Y-122555000D03*
%TD*%
D29*
%TO.C,F2*%
X137335500Y-47498000D03*
X135460500Y-47498000D03*
%TD*%
M02*
