%TF.GenerationSoftware,KiCad,Pcbnew,7.0.8-1.fc38*%
%TF.CreationDate,2023-10-16T01:27:14-03:00*%
%TF.ProjectId,OpenEFI_rev4,4f70656e-4546-4495-9f72-6576342e6b69,v4*%
%TF.SameCoordinates,Original*%
%TF.FileFunction,Paste,Top*%
%TF.FilePolarity,Positive*%
%FSLAX46Y46*%
G04 Gerber Fmt 4.6, Leading zero omitted, Abs format (unit mm)*
G04 Created by KiCad (PCBNEW 7.0.8-1.fc38) date 2023-10-16 01:27:14*
%MOMM*%
%LPD*%
G01*
G04 APERTURE LIST*
G04 Aperture macros list*
%AMRoundRect*
0 Rectangle with rounded corners*
0 $1 Rounding radius*
0 $2 $3 $4 $5 $6 $7 $8 $9 X,Y pos of 4 corners*
0 Add a 4 corners polygon primitive as box body*
4,1,4,$2,$3,$4,$5,$6,$7,$8,$9,$2,$3,0*
0 Add four circle primitives for the rounded corners*
1,1,$1+$1,$2,$3*
1,1,$1+$1,$4,$5*
1,1,$1+$1,$6,$7*
1,1,$1+$1,$8,$9*
0 Add four rect primitives between the rounded corners*
20,1,$1+$1,$2,$3,$4,$5,0*
20,1,$1+$1,$4,$5,$6,$7,0*
20,1,$1+$1,$6,$7,$8,$9,0*
20,1,$1+$1,$8,$9,$2,$3,0*%
G04 Aperture macros list end*
%ADD10C,0.010000*%
%ADD11R,0.700000X0.510000*%
%ADD12R,1.500000X2.200000*%
%ADD13RoundRect,0.250000X0.350000X-0.850000X0.350000X0.850000X-0.350000X0.850000X-0.350000X-0.850000X0*%
%ADD14RoundRect,0.250000X1.125000X-1.275000X1.125000X1.275000X-1.125000X1.275000X-1.125000X-1.275000X0*%
%ADD15R,1.550000X0.600000*%
%ADD16R,2.600000X3.100000*%
%ADD17RoundRect,0.200000X0.275000X-0.200000X0.275000X0.200000X-0.275000X0.200000X-0.275000X-0.200000X0*%
%ADD18RoundRect,0.250000X-1.000000X-0.650000X1.000000X-0.650000X1.000000X0.650000X-1.000000X0.650000X0*%
%ADD19RoundRect,0.250000X0.475000X-0.250000X0.475000X0.250000X-0.475000X0.250000X-0.475000X-0.250000X0*%
%ADD20RoundRect,0.250000X-1.500000X-0.550000X1.500000X-0.550000X1.500000X0.550000X-1.500000X0.550000X0*%
%ADD21RoundRect,0.225000X-0.225000X-0.250000X0.225000X-0.250000X0.225000X0.250000X-0.225000X0.250000X0*%
%ADD22RoundRect,0.243750X-0.243750X-0.456250X0.243750X-0.456250X0.243750X0.456250X-0.243750X0.456250X0*%
%ADD23RoundRect,0.250000X-0.262500X-0.450000X0.262500X-0.450000X0.262500X0.450000X-0.262500X0.450000X0*%
%ADD24RoundRect,0.150000X0.150000X-0.825000X0.150000X0.825000X-0.150000X0.825000X-0.150000X-0.825000X0*%
%ADD25RoundRect,0.200000X-0.200000X-0.275000X0.200000X-0.275000X0.200000X0.275000X-0.200000X0.275000X0*%
%ADD26R,0.600000X0.700000*%
%ADD27RoundRect,0.250000X-0.250000X0.250000X-0.250000X-0.250000X0.250000X-0.250000X0.250000X0.250000X0*%
%ADD28RoundRect,0.140000X-0.140000X-0.170000X0.140000X-0.170000X0.140000X0.170000X-0.140000X0.170000X0*%
%ADD29RoundRect,0.250000X-0.650000X1.000000X-0.650000X-1.000000X0.650000X-1.000000X0.650000X1.000000X0*%
%ADD30RoundRect,0.150000X-0.587500X-0.150000X0.587500X-0.150000X0.587500X0.150000X-0.587500X0.150000X0*%
%ADD31RoundRect,0.250000X-0.312500X-1.075000X0.312500X-1.075000X0.312500X1.075000X-0.312500X1.075000X0*%
%ADD32RoundRect,0.150000X0.150000X-0.587500X0.150000X0.587500X-0.150000X0.587500X-0.150000X-0.587500X0*%
%ADD33RoundRect,0.250000X-0.850000X-0.350000X0.850000X-0.350000X0.850000X0.350000X-0.850000X0.350000X0*%
%ADD34RoundRect,0.250000X-1.275000X-1.125000X1.275000X-1.125000X1.275000X1.125000X-1.275000X1.125000X0*%
%ADD35RoundRect,0.250000X-0.250000X-0.475000X0.250000X-0.475000X0.250000X0.475000X-0.250000X0.475000X0*%
%ADD36RoundRect,0.150000X0.150000X0.200000X-0.150000X0.200000X-0.150000X-0.200000X0.150000X-0.200000X0*%
%ADD37R,0.500000X0.800000*%
%ADD38R,0.400000X0.800000*%
%ADD39R,1.600000X0.410000*%
%ADD40R,0.800000X0.500000*%
%ADD41R,0.800000X0.400000*%
%ADD42R,1.120000X2.440000*%
%ADD43RoundRect,0.100000X-0.625000X-0.100000X0.625000X-0.100000X0.625000X0.100000X-0.625000X0.100000X0*%
%ADD44R,0.350000X0.500000*%
%ADD45RoundRect,0.100000X-0.637500X-0.100000X0.637500X-0.100000X0.637500X0.100000X-0.637500X0.100000X0*%
%ADD46RoundRect,0.250000X-0.312500X-0.625000X0.312500X-0.625000X0.312500X0.625000X-0.312500X0.625000X0*%
%ADD47R,1.200000X1.400000*%
%ADD48RoundRect,0.075000X-0.725000X-0.075000X0.725000X-0.075000X0.725000X0.075000X-0.725000X0.075000X0*%
%ADD49RoundRect,0.075000X-0.075000X-0.725000X0.075000X-0.725000X0.075000X0.725000X-0.075000X0.725000X0*%
%ADD50RoundRect,0.225000X0.225000X0.250000X-0.225000X0.250000X-0.225000X-0.250000X0.225000X-0.250000X0*%
%ADD51RoundRect,0.250000X-0.312500X-1.450000X0.312500X-1.450000X0.312500X1.450000X-0.312500X1.450000X0*%
%ADD52R,1.600000X0.480000*%
%ADD53RoundRect,0.150000X-0.850000X-0.150000X0.850000X-0.150000X0.850000X0.150000X-0.850000X0.150000X0*%
%ADD54RoundRect,0.200000X-0.275000X0.200000X-0.275000X-0.200000X0.275000X-0.200000X0.275000X0.200000X0*%
%ADD55R,0.600000X1.100000*%
%ADD56RoundRect,0.200000X0.200000X0.275000X-0.200000X0.275000X-0.200000X-0.275000X0.200000X-0.275000X0*%
%ADD57RoundRect,0.250000X-0.250000X-0.250000X0.250000X-0.250000X0.250000X0.250000X-0.250000X0.250000X0*%
%ADD58RoundRect,0.112500X-0.187500X-0.112500X0.187500X-0.112500X0.187500X0.112500X-0.187500X0.112500X0*%
%ADD59R,1.200000X0.700000*%
%ADD60R,0.800000X1.000000*%
%ADD61R,1.200000X1.000000*%
%ADD62R,2.800000X1.000000*%
%ADD63R,1.900000X1.300000*%
%ADD64RoundRect,0.150000X-0.512500X-0.150000X0.512500X-0.150000X0.512500X0.150000X-0.512500X0.150000X0*%
%ADD65RoundRect,0.150000X-0.675000X-0.150000X0.675000X-0.150000X0.675000X0.150000X-0.675000X0.150000X0*%
%ADD66R,1.700000X1.000000*%
%ADD67RoundRect,0.250000X-0.475000X0.250000X-0.475000X-0.250000X0.475000X-0.250000X0.475000X0.250000X0*%
%ADD68RoundRect,0.150000X-0.650000X-0.150000X0.650000X-0.150000X0.650000X0.150000X-0.650000X0.150000X0*%
%ADD69RoundRect,0.150000X-0.825000X-0.150000X0.825000X-0.150000X0.825000X0.150000X-0.825000X0.150000X0*%
G04 APERTURE END LIST*
%TO.C,U1*%
D10*
X89082700Y-77352200D02*
X87622700Y-77352200D01*
X87622700Y-75892200D01*
X89082700Y-75892200D01*
X89082700Y-77352200D01*
G36*
X89082700Y-77352200D02*
G01*
X87622700Y-77352200D01*
X87622700Y-75892200D01*
X89082700Y-75892200D01*
X89082700Y-77352200D01*
G37*
X89082700Y-79662200D02*
X87622700Y-79662200D01*
X87622700Y-78202200D01*
X89082700Y-78202200D01*
X89082700Y-79662200D01*
G36*
X89082700Y-79662200D02*
G01*
X87622700Y-79662200D01*
X87622700Y-78202200D01*
X89082700Y-78202200D01*
X89082700Y-79662200D01*
G37*
X91392700Y-77352200D02*
X89932700Y-77352200D01*
X89932700Y-75892200D01*
X91392700Y-75892200D01*
X91392700Y-77352200D01*
G36*
X91392700Y-77352200D02*
G01*
X89932700Y-77352200D01*
X89932700Y-75892200D01*
X91392700Y-75892200D01*
X91392700Y-77352200D01*
G37*
X91392700Y-79662200D02*
X89932700Y-79662200D01*
X89932700Y-78202200D01*
X91392700Y-78202200D01*
X91392700Y-79662200D01*
G36*
X91392700Y-79662200D02*
G01*
X89932700Y-79662200D01*
X89932700Y-78202200D01*
X91392700Y-78202200D01*
X91392700Y-79662200D01*
G37*
%TO.C,U13*%
X89082700Y-93100200D02*
X87622700Y-93100200D01*
X87622700Y-91640200D01*
X89082700Y-91640200D01*
X89082700Y-93100200D01*
G36*
X89082700Y-93100200D02*
G01*
X87622700Y-93100200D01*
X87622700Y-91640200D01*
X89082700Y-91640200D01*
X89082700Y-93100200D01*
G37*
X89082700Y-95410200D02*
X87622700Y-95410200D01*
X87622700Y-93950200D01*
X89082700Y-93950200D01*
X89082700Y-95410200D01*
G36*
X89082700Y-95410200D02*
G01*
X87622700Y-95410200D01*
X87622700Y-93950200D01*
X89082700Y-93950200D01*
X89082700Y-95410200D01*
G37*
X91392700Y-93100200D02*
X89932700Y-93100200D01*
X89932700Y-91640200D01*
X91392700Y-91640200D01*
X91392700Y-93100200D01*
G36*
X91392700Y-93100200D02*
G01*
X89932700Y-93100200D01*
X89932700Y-91640200D01*
X91392700Y-91640200D01*
X91392700Y-93100200D01*
G37*
X91392700Y-95410200D02*
X89932700Y-95410200D01*
X89932700Y-93950200D01*
X91392700Y-93950200D01*
X91392700Y-95410200D01*
G36*
X91392700Y-95410200D02*
G01*
X89932700Y-95410200D01*
X89932700Y-93950200D01*
X91392700Y-93950200D01*
X91392700Y-95410200D01*
G37*
%TO.C,FL1*%
X135898500Y-70962800D02*
X135548500Y-70962800D01*
X135548500Y-70062800D01*
X135898500Y-70062800D01*
X135898500Y-70962800D01*
G36*
X135898500Y-70962800D02*
G01*
X135548500Y-70962800D01*
X135548500Y-70062800D01*
X135898500Y-70062800D01*
X135898500Y-70962800D01*
G37*
X136748500Y-70962800D02*
X136398500Y-70962800D01*
X136398500Y-70062800D01*
X136748500Y-70062800D01*
X136748500Y-70962800D01*
G36*
X136748500Y-70962800D02*
G01*
X136398500Y-70962800D01*
X136398500Y-70062800D01*
X136748500Y-70062800D01*
X136748500Y-70962800D01*
G37*
X135898500Y-69262800D02*
X135548500Y-69262800D01*
X135548500Y-68362800D01*
X135898500Y-68362800D01*
X135898500Y-69262800D01*
G36*
X135898500Y-69262800D02*
G01*
X135548500Y-69262800D01*
X135548500Y-68362800D01*
X135898500Y-68362800D01*
X135898500Y-69262800D01*
G37*
X136748500Y-69262800D02*
X136398500Y-69262800D01*
X136398500Y-68362800D01*
X136748500Y-68362800D01*
X136748500Y-69262800D01*
G36*
X136748500Y-69262800D02*
G01*
X136398500Y-69262800D01*
X136398500Y-68362800D01*
X136748500Y-68362800D01*
X136748500Y-69262800D01*
G37*
%TD*%
D11*
%TO.C,Q20*%
X128998000Y-100766800D03*
X128998000Y-101716800D03*
X128998000Y-102666800D03*
X131318000Y-102666800D03*
X131318000Y-101716800D03*
X131318000Y-100766800D03*
%TD*%
D12*
%TO.C,L1*%
X186993300Y-102567600D03*
X193393300Y-102567600D03*
%TD*%
D13*
%TO.C,U17*%
X144885700Y-120460000D03*
X149445700Y-120460000D03*
D14*
X148690700Y-112485000D03*
X145640700Y-115835000D03*
X145640700Y-112485000D03*
X148690700Y-115835000D03*
%TD*%
D15*
%TO.C,U16*%
X162499700Y-125961000D03*
X162499700Y-127231000D03*
X162499700Y-128501000D03*
X162499700Y-129771000D03*
X167899700Y-129771000D03*
X167899700Y-128501000D03*
X167899700Y-127231000D03*
X167899700Y-125961000D03*
D16*
X165199700Y-127866000D03*
%TD*%
D17*
%TO.C,R70*%
X178966500Y-101868600D03*
X178966500Y-100218600D03*
%TD*%
%TO.C,R68*%
X176456500Y-101868600D03*
X176456500Y-100218600D03*
%TD*%
D11*
%TO.C,Q10*%
X159924900Y-145000800D03*
X159924900Y-145950800D03*
X159924900Y-146900800D03*
X162244900Y-146900800D03*
X162244900Y-145950800D03*
X162244900Y-145000800D03*
%TD*%
D18*
%TO.C,D26*%
X172902500Y-126088000D03*
X176902500Y-126088000D03*
%TD*%
D19*
%TO.C,C64*%
X173696500Y-101773600D03*
X173696500Y-99873600D03*
%TD*%
D20*
%TO.C,C63*%
X147158100Y-104955200D03*
X152558100Y-104955200D03*
%TD*%
D19*
%TO.C,C62*%
X170686500Y-101773600D03*
X170686500Y-99873600D03*
%TD*%
D21*
%TO.C,C46*%
X152523900Y-125630000D03*
X154073900Y-125630000D03*
%TD*%
D20*
%TO.C,C42*%
X167071700Y-73205200D03*
X172471700Y-73205200D03*
%TD*%
D22*
%TO.C,D16*%
X69825000Y-76050000D03*
X71700000Y-76050000D03*
%TD*%
D23*
%TO.C,R67*%
X114900000Y-107865200D03*
X116725000Y-107865200D03*
%TD*%
D24*
%TO.C,U29*%
X109446700Y-79744200D03*
X110716700Y-79744200D03*
X111986700Y-79744200D03*
X113256700Y-79744200D03*
X113256700Y-74794200D03*
X111986700Y-74794200D03*
X110716700Y-74794200D03*
X109446700Y-74794200D03*
%TD*%
D23*
%TO.C,R61*%
X114900000Y-96065200D03*
X116725000Y-96065200D03*
%TD*%
D25*
%TO.C,R20*%
X160983900Y-103860400D03*
X162633900Y-103860400D03*
%TD*%
%TO.C,R12*%
X187133100Y-144588400D03*
X188783100Y-144588400D03*
%TD*%
D26*
%TO.C,D2*%
X175417700Y-93398200D03*
X176817700Y-93398200D03*
%TD*%
D27*
%TO.C,D64*%
X72932400Y-69339000D03*
X72932400Y-71839000D03*
%TD*%
D22*
%TO.C,D63*%
X61326900Y-76050000D03*
X63201900Y-76050000D03*
%TD*%
D17*
%TO.C,R4*%
X80415700Y-126281200D03*
X80415700Y-124631200D03*
%TD*%
D22*
%TO.C,D73*%
X61356900Y-86845000D03*
X63231900Y-86845000D03*
%TD*%
D28*
%TO.C,C27*%
X95756100Y-135892400D03*
X96716100Y-135892400D03*
%TD*%
D25*
%TO.C,R37*%
X204506700Y-109718800D03*
X206156700Y-109718800D03*
%TD*%
D29*
%TO.C,D4*%
X175613700Y-77936200D03*
X175613700Y-81936200D03*
%TD*%
D21*
%TO.C,C61*%
X127391500Y-120093600D03*
X128941500Y-120093600D03*
%TD*%
D25*
%TO.C,R8*%
X204506700Y-102188800D03*
X206156700Y-102188800D03*
%TD*%
D30*
%TO.C,Q14*%
X77140200Y-71280000D03*
X77140200Y-73180000D03*
X79015200Y-72230000D03*
%TD*%
D25*
%TO.C,R77*%
X209485100Y-138210800D03*
X211135100Y-138210800D03*
%TD*%
D31*
%TO.C,R71*%
X197798400Y-129439600D03*
X200723400Y-129439600D03*
%TD*%
D25*
%TO.C,R80*%
X145666700Y-93168800D03*
X147316700Y-93168800D03*
%TD*%
D23*
%TO.C,R58*%
X105716700Y-129491600D03*
X107541700Y-129491600D03*
%TD*%
D27*
%TO.C,D74*%
X62772400Y-69364400D03*
X62772400Y-71864400D03*
%TD*%
D23*
%TO.C,R52*%
X119735600Y-112342000D03*
X121560600Y-112342000D03*
%TD*%
D17*
%TO.C,R27*%
X85015700Y-120506200D03*
X85015700Y-118856200D03*
%TD*%
D32*
%TO.C,Q5*%
X174917700Y-91287700D03*
X176817700Y-91287700D03*
X175867700Y-89412700D03*
%TD*%
D22*
%TO.C,D8*%
X186303400Y-127794600D03*
X188178400Y-127794600D03*
%TD*%
%TO.C,D7*%
X186303400Y-124754600D03*
X188178400Y-124754600D03*
%TD*%
D23*
%TO.C,R47*%
X110490000Y-110815200D03*
X112315000Y-110815200D03*
%TD*%
D33*
%TO.C,Q7*%
X178990700Y-77657200D03*
D34*
X183615700Y-78412200D03*
X183615700Y-81462200D03*
X186965700Y-78412200D03*
X186965700Y-81462200D03*
D33*
X178990700Y-82217200D03*
%TD*%
D25*
%TO.C,R60*%
X204506700Y-117248800D03*
X206156700Y-117248800D03*
%TD*%
D23*
%TO.C,R44*%
X110490000Y-107865200D03*
X112315000Y-107865200D03*
%TD*%
D25*
%TO.C,R56*%
X209485100Y-130680800D03*
X211135100Y-130680800D03*
%TD*%
D19*
%TO.C,C16*%
X119868900Y-125860400D03*
X119868900Y-123960400D03*
%TD*%
D17*
%TO.C,R24*%
X87815700Y-122481200D03*
X87815700Y-120831200D03*
%TD*%
D25*
%TO.C,R74*%
X182662700Y-152046800D03*
X184312700Y-152046800D03*
%TD*%
D33*
%TO.C,Q6*%
X179082700Y-70290200D03*
D34*
X183707700Y-71045200D03*
X183707700Y-74095200D03*
X187057700Y-71045200D03*
X187057700Y-74095200D03*
D33*
X179082700Y-74850200D03*
%TD*%
D35*
%TO.C,C52*%
X127572900Y-84090000D03*
X129472900Y-84090000D03*
%TD*%
D25*
%TO.C,R59*%
X105804200Y-132001600D03*
X107454200Y-132001600D03*
%TD*%
D21*
%TO.C,C23*%
X103630700Y-97918800D03*
X105180700Y-97918800D03*
%TD*%
%TO.C,C33*%
X182204700Y-93271200D03*
X183754700Y-93271200D03*
%TD*%
D22*
%TO.C,D19*%
X69825000Y-82501600D03*
X71700000Y-82501600D03*
%TD*%
D36*
%TO.C,D25*%
X123691500Y-122453600D03*
X125091500Y-122453600D03*
%TD*%
D37*
%TO.C,RN2*%
X65242400Y-91798000D03*
D38*
X64442400Y-91798000D03*
X63642400Y-91798000D03*
D37*
X62842400Y-91798000D03*
X62842400Y-93598000D03*
D38*
X63642400Y-93598000D03*
X64442400Y-93598000D03*
D37*
X65242400Y-93598000D03*
%TD*%
D17*
%TO.C,R25*%
X75815700Y-120481200D03*
X75815700Y-118831200D03*
%TD*%
D39*
%TO.C,U36*%
X169200200Y-106999900D03*
X169200200Y-107634900D03*
X169200200Y-108269900D03*
X169200200Y-108904900D03*
X169200200Y-109539900D03*
X169200200Y-110174900D03*
X169200200Y-110809900D03*
X169200200Y-111444900D03*
X174508800Y-111444900D03*
X174508800Y-110809900D03*
X174508800Y-110174900D03*
X174508800Y-109539900D03*
X174508800Y-108904900D03*
X174508800Y-108269900D03*
X174508800Y-107634900D03*
X174508800Y-106999900D03*
%TD*%
D23*
%TO.C,R66*%
X114900000Y-104915200D03*
X116725000Y-104915200D03*
%TD*%
D37*
%TO.C,RN3*%
X78064700Y-91874200D03*
D38*
X77264700Y-91874200D03*
X76464700Y-91874200D03*
D37*
X75664700Y-91874200D03*
X75664700Y-93674200D03*
D38*
X76464700Y-93674200D03*
X77264700Y-93674200D03*
D37*
X78064700Y-93674200D03*
%TD*%
D17*
%TO.C,R64*%
X66169700Y-128894200D03*
X66169700Y-127244200D03*
%TD*%
D30*
%TO.C,Q9*%
X132060200Y-83000400D03*
X132060200Y-84900400D03*
X133935200Y-83950400D03*
%TD*%
D27*
%TO.C,D72*%
X64804400Y-69364400D03*
X64804400Y-71864400D03*
%TD*%
D19*
%TO.C,C47*%
X168718900Y-156925200D03*
X168718900Y-155025200D03*
%TD*%
D32*
%TO.C,Q17*%
X156578900Y-156692700D03*
X158478900Y-156692700D03*
X157528900Y-154817700D03*
%TD*%
D40*
%TO.C,RN5*%
X141125700Y-142021200D03*
D41*
X141125700Y-142821200D03*
X141125700Y-143621200D03*
D40*
X141125700Y-144421200D03*
X142925700Y-144421200D03*
D41*
X142925700Y-143621200D03*
X142925700Y-142821200D03*
D40*
X142925700Y-142021200D03*
%TD*%
D42*
%TO.C,SW4*%
X138021700Y-107000200D03*
X135481700Y-107000200D03*
X135481700Y-115610200D03*
X138021700Y-115610200D03*
%TD*%
D25*
%TO.C,R31*%
X105804200Y-119451600D03*
X107454200Y-119451600D03*
%TD*%
%TO.C,R9*%
X187133100Y-142078400D03*
X188783100Y-142078400D03*
%TD*%
D43*
%TO.C,U6*%
X179305700Y-88090200D03*
X179305700Y-88740200D03*
X179305700Y-89390200D03*
X179305700Y-90040200D03*
X179305700Y-90690200D03*
X179305700Y-91340200D03*
X183605700Y-91340200D03*
X183605700Y-90690200D03*
X183605700Y-90040200D03*
X183605700Y-89390200D03*
X183605700Y-88740200D03*
X183605700Y-88090200D03*
%TD*%
D40*
%TO.C,RN6*%
X145275700Y-142021200D03*
D41*
X145275700Y-142821200D03*
X145275700Y-143621200D03*
D40*
X145275700Y-144421200D03*
X147075700Y-144421200D03*
D41*
X147075700Y-143621200D03*
X147075700Y-142821200D03*
D40*
X147075700Y-142021200D03*
%TD*%
D22*
%TO.C,D67*%
X61356900Y-80368000D03*
X63231900Y-80368000D03*
%TD*%
D25*
%TO.C,R82*%
X145666700Y-98188800D03*
X147316700Y-98188800D03*
%TD*%
D30*
%TO.C,Q3*%
X141104200Y-95128800D03*
X141104200Y-97028800D03*
X142979200Y-96078800D03*
%TD*%
D22*
%TO.C,D6*%
X181853400Y-130834600D03*
X183728400Y-130834600D03*
%TD*%
D44*
%TO.C,U8*%
X196127100Y-150332400D03*
X196777100Y-150332400D03*
X197427100Y-150332400D03*
X198077100Y-150332400D03*
X198077100Y-151932400D03*
X197427100Y-151932400D03*
X196777100Y-151932400D03*
X196127100Y-151932400D03*
%TD*%
D23*
%TO.C,R62*%
X114900000Y-99015200D03*
X116725000Y-99015200D03*
%TD*%
D30*
%TO.C,Q13*%
X179802400Y-115775600D03*
X177927400Y-116725600D03*
X177927400Y-114825600D03*
%TD*%
D21*
%TO.C,C49*%
X152523900Y-128140000D03*
X154073900Y-128140000D03*
%TD*%
%TO.C,C20*%
X170571500Y-117553600D03*
X172121500Y-117553600D03*
%TD*%
D23*
%TO.C,R84*%
X142443200Y-158041200D03*
X144268200Y-158041200D03*
%TD*%
D35*
%TO.C,C66*%
X178473700Y-139575200D03*
X180373700Y-139575200D03*
%TD*%
D22*
%TO.C,D12*%
X190753400Y-127794600D03*
X192628400Y-127794600D03*
%TD*%
D30*
%TO.C,Q4*%
X141104200Y-99578800D03*
X141104200Y-101478800D03*
X142979200Y-100528800D03*
%TD*%
D25*
%TO.C,R15*%
X187133100Y-147098400D03*
X188783100Y-147098400D03*
%TD*%
D22*
%TO.C,D1*%
X181853400Y-124754600D03*
X183728400Y-124754600D03*
%TD*%
D21*
%TO.C,C35*%
X103630700Y-102938800D03*
X105180700Y-102938800D03*
%TD*%
D36*
%TO.C,D14*%
X145520700Y-149671200D03*
X146920700Y-149671200D03*
%TD*%
D21*
%TO.C,C71*%
X175803900Y-135994000D03*
X177353900Y-135994000D03*
%TD*%
D17*
%TO.C,R26*%
X80415700Y-120456200D03*
X80415700Y-118806200D03*
%TD*%
D24*
%TO.C,U21*%
X100810700Y-79744200D03*
X102080700Y-79744200D03*
X103350700Y-79744200D03*
X104620700Y-79744200D03*
X104620700Y-74794200D03*
X103350700Y-74794200D03*
X102080700Y-74794200D03*
X100810700Y-74794200D03*
%TD*%
D25*
%TO.C,R73*%
X197635900Y-141959600D03*
X199285900Y-141959600D03*
%TD*%
%TO.C,R32*%
X105804200Y-121961600D03*
X107454200Y-121961600D03*
%TD*%
%TO.C,R11*%
X204506700Y-104698800D03*
X206156700Y-104698800D03*
%TD*%
%TO.C,R33*%
X160983900Y-106370400D03*
X162633900Y-106370400D03*
%TD*%
D23*
%TO.C,R48*%
X110490000Y-113765200D03*
X112315000Y-113765200D03*
%TD*%
%TO.C,R13*%
X110490000Y-101965200D03*
X112315000Y-101965200D03*
%TD*%
D25*
%TO.C,R42*%
X204506700Y-114738800D03*
X206156700Y-114738800D03*
%TD*%
D17*
%TO.C,R65*%
X68679700Y-128894200D03*
X68679700Y-127244200D03*
%TD*%
D25*
%TO.C,R6*%
X187133100Y-139568400D03*
X188783100Y-139568400D03*
%TD*%
%TO.C,R14*%
X204506700Y-107208800D03*
X206156700Y-107208800D03*
%TD*%
D35*
%TO.C,C74*%
X146831900Y-129609250D03*
X148731900Y-129609250D03*
%TD*%
%TO.C,C34*%
X99225700Y-104688800D03*
X101125700Y-104688800D03*
%TD*%
D45*
%TO.C,U9*%
X105949200Y-144508800D03*
X105949200Y-145158800D03*
X105949200Y-145808800D03*
X105949200Y-146458800D03*
X105949200Y-147108800D03*
X105949200Y-147758800D03*
X105949200Y-148408800D03*
X111674200Y-148408800D03*
X111674200Y-147758800D03*
X111674200Y-147108800D03*
X111674200Y-146458800D03*
X111674200Y-145808800D03*
X111674200Y-145158800D03*
X111674200Y-144508800D03*
%TD*%
D28*
%TO.C,C40*%
X196012500Y-116763200D03*
X196972500Y-116763200D03*
%TD*%
D25*
%TO.C,R43*%
X182662700Y-144516800D03*
X184312700Y-144516800D03*
%TD*%
D22*
%TO.C,D9*%
X186303400Y-130834600D03*
X188178400Y-130834600D03*
%TD*%
D23*
%TO.C,R17*%
X197748400Y-139229600D03*
X199573400Y-139229600D03*
%TD*%
%TO.C,R53*%
X134975600Y-121262000D03*
X136800600Y-121262000D03*
%TD*%
D37*
%TO.C,RN1*%
X69052400Y-91798000D03*
D38*
X68252400Y-91798000D03*
X67452400Y-91798000D03*
D37*
X66652400Y-91798000D03*
X66652400Y-93598000D03*
D38*
X67452400Y-93598000D03*
X68252400Y-93598000D03*
D37*
X69052400Y-93598000D03*
%TD*%
D35*
%TO.C,C18*%
X99225700Y-95658800D03*
X101125700Y-95658800D03*
%TD*%
%TO.C,C68*%
X178473700Y-142585200D03*
X180373700Y-142585200D03*
%TD*%
D22*
%TO.C,D22*%
X69825000Y-89004000D03*
X71700000Y-89004000D03*
%TD*%
D35*
%TO.C,C70*%
X178473700Y-145595200D03*
X180373700Y-145595200D03*
%TD*%
D46*
%TO.C,R1*%
X112663800Y-127614000D03*
X115588800Y-127614000D03*
%TD*%
D25*
%TO.C,R45*%
X209485100Y-128170800D03*
X211135100Y-128170800D03*
%TD*%
%TO.C,R75*%
X209485100Y-133190800D03*
X211135100Y-133190800D03*
%TD*%
D47*
%TO.C,Y1*%
X66366500Y-140480000D03*
X66366500Y-138280000D03*
X64666500Y-138280000D03*
X64666500Y-140480000D03*
%TD*%
D35*
%TO.C,C56*%
X127572900Y-96130000D03*
X129472900Y-96130000D03*
%TD*%
D48*
%TO.C,U3*%
X76803500Y-134870800D03*
X76803500Y-135370800D03*
X76803500Y-135870800D03*
X76803500Y-136370800D03*
X76803500Y-136870800D03*
X76803500Y-137370800D03*
X76803500Y-137870800D03*
X76803500Y-138370800D03*
X76803500Y-138870800D03*
X76803500Y-139370800D03*
X76803500Y-139870800D03*
X76803500Y-140370800D03*
X76803500Y-140870800D03*
X76803500Y-141370800D03*
X76803500Y-141870800D03*
X76803500Y-142370800D03*
X76803500Y-142870800D03*
X76803500Y-143370800D03*
X76803500Y-143870800D03*
X76803500Y-144370800D03*
X76803500Y-144870800D03*
X76803500Y-145370800D03*
X76803500Y-145870800D03*
X76803500Y-146370800D03*
X76803500Y-146870800D03*
D49*
X78478500Y-148545800D03*
X78978500Y-148545800D03*
X79478500Y-148545800D03*
X79978500Y-148545800D03*
X80478500Y-148545800D03*
X80978500Y-148545800D03*
X81478500Y-148545800D03*
X81978500Y-148545800D03*
X82478500Y-148545800D03*
X82978500Y-148545800D03*
X83478500Y-148545800D03*
X83978500Y-148545800D03*
X84478500Y-148545800D03*
X84978500Y-148545800D03*
X85478500Y-148545800D03*
X85978500Y-148545800D03*
X86478500Y-148545800D03*
X86978500Y-148545800D03*
X87478500Y-148545800D03*
X87978500Y-148545800D03*
X88478500Y-148545800D03*
X88978500Y-148545800D03*
X89478500Y-148545800D03*
X89978500Y-148545800D03*
X90478500Y-148545800D03*
D48*
X92153500Y-146870800D03*
X92153500Y-146370800D03*
X92153500Y-145870800D03*
X92153500Y-145370800D03*
X92153500Y-144870800D03*
X92153500Y-144370800D03*
X92153500Y-143870800D03*
X92153500Y-143370800D03*
X92153500Y-142870800D03*
X92153500Y-142370800D03*
X92153500Y-141870800D03*
X92153500Y-141370800D03*
X92153500Y-140870800D03*
X92153500Y-140370800D03*
X92153500Y-139870800D03*
X92153500Y-139370800D03*
X92153500Y-138870800D03*
X92153500Y-138370800D03*
X92153500Y-137870800D03*
X92153500Y-137370800D03*
X92153500Y-136870800D03*
X92153500Y-136370800D03*
X92153500Y-135870800D03*
X92153500Y-135370800D03*
X92153500Y-134870800D03*
D49*
X90478500Y-133195800D03*
X89978500Y-133195800D03*
X89478500Y-133195800D03*
X88978500Y-133195800D03*
X88478500Y-133195800D03*
X87978500Y-133195800D03*
X87478500Y-133195800D03*
X86978500Y-133195800D03*
X86478500Y-133195800D03*
X85978500Y-133195800D03*
X85478500Y-133195800D03*
X84978500Y-133195800D03*
X84478500Y-133195800D03*
X83978500Y-133195800D03*
X83478500Y-133195800D03*
X82978500Y-133195800D03*
X82478500Y-133195800D03*
X81978500Y-133195800D03*
X81478500Y-133195800D03*
X80978500Y-133195800D03*
X80478500Y-133195800D03*
X79978500Y-133195800D03*
X79478500Y-133195800D03*
X78978500Y-133195800D03*
X78478500Y-133195800D03*
%TD*%
D19*
%TO.C,C3*%
X119868900Y-134760400D03*
X119868900Y-132860400D03*
%TD*%
D31*
%TO.C,R115*%
X66941800Y-98808400D03*
X64016800Y-98808400D03*
%TD*%
D28*
%TO.C,C28*%
X95987300Y-140007200D03*
X96947300Y-140007200D03*
%TD*%
D22*
%TO.C,D75*%
X61356900Y-89004000D03*
X63231900Y-89004000D03*
%TD*%
D36*
%TO.C,D24*%
X123691500Y-120003600D03*
X125091500Y-120003600D03*
%TD*%
D19*
%TO.C,C41*%
X165708900Y-156925200D03*
X165708900Y-155025200D03*
%TD*%
D23*
%TO.C,R69*%
X114900000Y-113765200D03*
X116725000Y-113765200D03*
%TD*%
D25*
%TO.C,R22*%
X175128700Y-85460200D03*
X176778700Y-85460200D03*
%TD*%
D23*
%TO.C,R16*%
X110490000Y-104915200D03*
X112315000Y-104915200D03*
%TD*%
D35*
%TO.C,C55*%
X127572900Y-93120000D03*
X129472900Y-93120000D03*
%TD*%
D25*
%TO.C,R122*%
X131927900Y-93450000D03*
X133577900Y-93450000D03*
%TD*%
D19*
%TO.C,C72*%
X167360100Y-122016000D03*
X167360100Y-120116000D03*
%TD*%
D22*
%TO.C,D10*%
X190753400Y-124754600D03*
X192628400Y-124754600D03*
%TD*%
D35*
%TO.C,C54*%
X127572900Y-90110000D03*
X129472900Y-90110000D03*
%TD*%
D19*
%TO.C,C10*%
X119868900Y-130310400D03*
X119868900Y-128410400D03*
%TD*%
D30*
%TO.C,Q2*%
X187203400Y-133629600D03*
X187203400Y-135529600D03*
X189078400Y-134579600D03*
%TD*%
D50*
%TO.C,C4*%
X152661100Y-134575800D03*
X151111100Y-134575800D03*
%TD*%
D25*
%TO.C,R54*%
X182662700Y-149536800D03*
X184312700Y-149536800D03*
%TD*%
D51*
%TO.C,F1*%
X73599500Y-97894000D03*
X77874500Y-97894000D03*
%TD*%
D25*
%TO.C,R79*%
X145666700Y-90658800D03*
X147316700Y-90658800D03*
%TD*%
D35*
%TO.C,C73*%
X146831900Y-126599250D03*
X148731900Y-126599250D03*
%TD*%
D36*
%TO.C,D23*%
X123691500Y-117553600D03*
X125091500Y-117553600D03*
%TD*%
D28*
%TO.C,C43*%
X196012500Y-118733200D03*
X196972500Y-118733200D03*
%TD*%
D30*
%TO.C,U15*%
X203073400Y-144035600D03*
X203073400Y-145935600D03*
X204948400Y-144985600D03*
%TD*%
%TO.C,Q12*%
X132060200Y-91900400D03*
X132060200Y-93800400D03*
X133935200Y-92850400D03*
%TD*%
D22*
%TO.C,D43*%
X61356900Y-73891000D03*
X63231900Y-73891000D03*
%TD*%
D21*
%TO.C,C69*%
X175803900Y-133484000D03*
X177353900Y-133484000D03*
%TD*%
D35*
%TO.C,C59*%
X141225700Y-150111200D03*
X143125700Y-150111200D03*
%TD*%
D23*
%TO.C,R18*%
X119735600Y-100542000D03*
X121560600Y-100542000D03*
%TD*%
D35*
%TO.C,C30*%
X156578900Y-129390000D03*
X158478900Y-129390000D03*
%TD*%
D25*
%TO.C,R36*%
X154261100Y-138575800D03*
X155911100Y-138575800D03*
%TD*%
D19*
%TO.C,C12*%
X125888900Y-130310400D03*
X125888900Y-128410400D03*
%TD*%
D25*
%TO.C,R40*%
X204506700Y-112228800D03*
X206156700Y-112228800D03*
%TD*%
D30*
%TO.C,Q16*%
X77140200Y-80180000D03*
X77140200Y-82080000D03*
X79015200Y-81130000D03*
%TD*%
D35*
%TO.C,C39*%
X99225700Y-110708800D03*
X101125700Y-110708800D03*
%TD*%
D31*
%TO.C,R72*%
X197798400Y-133649600D03*
X200723400Y-133649600D03*
%TD*%
D23*
%TO.C,R7*%
X110490000Y-96065200D03*
X112315000Y-96065200D03*
%TD*%
D24*
%TO.C,U24*%
X100810700Y-89396200D03*
X102080700Y-89396200D03*
X103350700Y-89396200D03*
X104620700Y-89396200D03*
X104620700Y-84446200D03*
X103350700Y-84446200D03*
X102080700Y-84446200D03*
X100810700Y-84446200D03*
%TD*%
D19*
%TO.C,C13*%
X128898900Y-130310400D03*
X128898900Y-128410400D03*
%TD*%
D35*
%TO.C,C53*%
X127572900Y-87100000D03*
X129472900Y-87100000D03*
%TD*%
D37*
%TO.C,RN4*%
X74267700Y-91874200D03*
D38*
X73467700Y-91874200D03*
X72667700Y-91874200D03*
D37*
X71867700Y-91874200D03*
X71867700Y-93674200D03*
D38*
X72667700Y-93674200D03*
X73467700Y-93674200D03*
D37*
X74267700Y-93674200D03*
%TD*%
D52*
%TO.C,U1*%
X84752700Y-72902200D03*
X84752700Y-73552200D03*
X84752700Y-74202200D03*
X84752700Y-74852200D03*
X84752700Y-75502200D03*
X84752700Y-76152200D03*
X84752700Y-76802200D03*
X84752700Y-77452200D03*
X84752700Y-78102200D03*
X84752700Y-78752200D03*
X84752700Y-79402200D03*
X84752700Y-80052200D03*
X84752700Y-80702200D03*
X84752700Y-81352200D03*
X84752700Y-82002200D03*
X84752700Y-82652200D03*
X94262700Y-82652200D03*
X94262700Y-82002200D03*
X94262700Y-81352200D03*
X94262700Y-80702200D03*
X94262700Y-80052200D03*
X94262700Y-79402200D03*
X94262700Y-78752200D03*
X94262700Y-78102200D03*
X94262700Y-77452200D03*
X94262700Y-76802200D03*
X94262700Y-76152200D03*
X94262700Y-75502200D03*
X94262700Y-74852200D03*
X94262700Y-74202200D03*
X94262700Y-73552200D03*
X94262700Y-72902200D03*
%TD*%
D53*
%TO.C,U26*%
X84721700Y-102847000D03*
X84721700Y-104117000D03*
X84721700Y-105387000D03*
X84721700Y-106657000D03*
X84721700Y-107927000D03*
X84721700Y-109197000D03*
X84721700Y-110467000D03*
X84721700Y-111737000D03*
X89721700Y-111737000D03*
X89721700Y-110467000D03*
X89721700Y-109197000D03*
X89721700Y-107927000D03*
X89721700Y-106657000D03*
X89721700Y-105387000D03*
X89721700Y-104117000D03*
X89721700Y-102847000D03*
%TD*%
D54*
%TO.C,R3*%
X85015700Y-124631200D03*
X85015700Y-126281200D03*
%TD*%
D35*
%TO.C,C19*%
X149771700Y-90908800D03*
X151671700Y-90908800D03*
%TD*%
%TO.C,C1*%
X156578900Y-123370000D03*
X158478900Y-123370000D03*
%TD*%
D25*
%TO.C,R38*%
X154161100Y-134975800D03*
X155811100Y-134975800D03*
%TD*%
D35*
%TO.C,C22*%
X149771700Y-93918800D03*
X151671700Y-93918800D03*
%TD*%
D55*
%TO.C,Y3*%
X148049800Y-152808800D03*
X149449800Y-152808800D03*
%TD*%
D22*
%TO.C,D71*%
X61356900Y-84686000D03*
X63231900Y-84686000D03*
%TD*%
%TO.C,D13*%
X190753400Y-130834600D03*
X192628400Y-130834600D03*
%TD*%
D21*
%TO.C,C38*%
X103630700Y-105448800D03*
X105180700Y-105448800D03*
%TD*%
D22*
%TO.C,D17*%
X69825000Y-78183600D03*
X71700000Y-78183600D03*
%TD*%
D19*
%TO.C,C5*%
X122878900Y-134760400D03*
X122878900Y-132860400D03*
%TD*%
D21*
%TO.C,C29*%
X152523900Y-123120000D03*
X154073900Y-123120000D03*
%TD*%
D27*
%TO.C,D66*%
X70896800Y-69339000D03*
X70896800Y-71839000D03*
%TD*%
D25*
%TO.C,R81*%
X145666700Y-95678800D03*
X147316700Y-95678800D03*
%TD*%
D21*
%TO.C,C50*%
X103630700Y-110468800D03*
X105180700Y-110468800D03*
%TD*%
D19*
%TO.C,C17*%
X122878900Y-125860400D03*
X122878900Y-123960400D03*
%TD*%
D32*
%TO.C,Q18*%
X161028900Y-156692700D03*
X162928900Y-156692700D03*
X161978900Y-154817700D03*
%TD*%
D56*
%TO.C,R19*%
X176870700Y-87600200D03*
X175220700Y-87600200D03*
%TD*%
D25*
%TO.C,R46*%
X182662700Y-147026800D03*
X184312700Y-147026800D03*
%TD*%
D23*
%TO.C,R10*%
X110490000Y-99015200D03*
X112315000Y-99015200D03*
%TD*%
D22*
%TO.C,D65*%
X61326900Y-78209000D03*
X63201900Y-78209000D03*
%TD*%
D45*
%TO.C,U20*%
X180676000Y-106947400D03*
X180676000Y-107597400D03*
X180676000Y-108247400D03*
X180676000Y-108897400D03*
X180676000Y-109547400D03*
X180676000Y-110197400D03*
X180676000Y-110847400D03*
X180676000Y-111497400D03*
X186401000Y-111497400D03*
X186401000Y-110847400D03*
X186401000Y-110197400D03*
X186401000Y-109547400D03*
X186401000Y-108897400D03*
X186401000Y-108247400D03*
X186401000Y-107597400D03*
X186401000Y-106947400D03*
%TD*%
D35*
%TO.C,C45*%
X99225700Y-113718800D03*
X101125700Y-113718800D03*
%TD*%
D31*
%TO.C,R117*%
X122030400Y-82800000D03*
X124955400Y-82800000D03*
%TD*%
D19*
%TO.C,C15*%
X116858900Y-125860400D03*
X116858900Y-123960400D03*
%TD*%
D25*
%TO.C,R76*%
X209485100Y-135700800D03*
X211135100Y-135700800D03*
%TD*%
D31*
%TO.C,R21*%
X161146400Y-109730400D03*
X164071400Y-109730400D03*
%TD*%
D57*
%TO.C,D47*%
X196258500Y-123903600D03*
X198758500Y-123903600D03*
%TD*%
D22*
%TO.C,D21*%
X69825000Y-86819600D03*
X71700000Y-86819600D03*
%TD*%
D25*
%TO.C,R34*%
X105804200Y-124471600D03*
X107454200Y-124471600D03*
%TD*%
%TO.C,R28*%
X186523500Y-156517200D03*
X188173500Y-156517200D03*
%TD*%
D22*
%TO.C,D20*%
X69825000Y-84686000D03*
X71700000Y-84686000D03*
%TD*%
D25*
%TO.C,R39*%
X187133100Y-149608400D03*
X188783100Y-149608400D03*
%TD*%
D35*
%TO.C,C21*%
X99225700Y-98668800D03*
X101125700Y-98668800D03*
%TD*%
%TO.C,C57*%
X132300400Y-97170000D03*
X134200400Y-97170000D03*
%TD*%
D19*
%TO.C,C6*%
X125888900Y-134760400D03*
X125888900Y-132860400D03*
%TD*%
D52*
%TO.C,U13*%
X84752700Y-88650200D03*
X84752700Y-89300200D03*
X84752700Y-89950200D03*
X84752700Y-90600200D03*
X84752700Y-91250200D03*
X84752700Y-91900200D03*
X84752700Y-92550200D03*
X84752700Y-93200200D03*
X84752700Y-93850200D03*
X84752700Y-94500200D03*
X84752700Y-95150200D03*
X84752700Y-95800200D03*
X84752700Y-96450200D03*
X84752700Y-97100200D03*
X84752700Y-97750200D03*
X84752700Y-98400200D03*
X94262700Y-98400200D03*
X94262700Y-97750200D03*
X94262700Y-97100200D03*
X94262700Y-96450200D03*
X94262700Y-95800200D03*
X94262700Y-95150200D03*
X94262700Y-94500200D03*
X94262700Y-93850200D03*
X94262700Y-93200200D03*
X94262700Y-92550200D03*
X94262700Y-91900200D03*
X94262700Y-91250200D03*
X94262700Y-90600200D03*
X94262700Y-89950200D03*
X94262700Y-89300200D03*
X94262700Y-88650200D03*
%TD*%
D23*
%TO.C,R57*%
X110490000Y-119665200D03*
X112315000Y-119665200D03*
%TD*%
D58*
%TO.C,D11*%
X163032100Y-150167200D03*
X165132100Y-150167200D03*
%TD*%
D59*
%TO.C,J8*%
X116225100Y-146681000D03*
X116225100Y-147781000D03*
X116225100Y-148881000D03*
X116225100Y-149981000D03*
X116225100Y-151081000D03*
X116225100Y-152181000D03*
X116225100Y-153281000D03*
X116225100Y-154381000D03*
X116225100Y-155331000D03*
D60*
X126725100Y-156281000D03*
D61*
X120525100Y-156281000D03*
D62*
X130875100Y-156281000D03*
D61*
X116225100Y-145131000D03*
D63*
X131325100Y-142781000D03*
%TD*%
D25*
%TO.C,R41*%
X182662700Y-142006800D03*
X184312700Y-142006800D03*
%TD*%
D22*
%TO.C,D5*%
X181853400Y-127794600D03*
X183728400Y-127794600D03*
%TD*%
D28*
%TO.C,C48*%
X196012500Y-120703200D03*
X196972500Y-120703200D03*
%TD*%
D30*
%TO.C,Q8*%
X132060200Y-78550400D03*
X132060200Y-80450400D03*
X133935200Y-79500400D03*
%TD*%
D19*
%TO.C,C8*%
X131908900Y-134760400D03*
X131908900Y-132860400D03*
%TD*%
D35*
%TO.C,C37*%
X99225700Y-107698800D03*
X101125700Y-107698800D03*
%TD*%
D64*
%TO.C,U14*%
X126571800Y-107612000D03*
X126571800Y-108562000D03*
X126571800Y-109512000D03*
X128846800Y-109512000D03*
X128846800Y-107612000D03*
%TD*%
D23*
%TO.C,R83*%
X142443200Y-155091200D03*
X144268200Y-155091200D03*
%TD*%
D26*
%TO.C,D3*%
X176817700Y-95049200D03*
X175417700Y-95049200D03*
%TD*%
D25*
%TO.C,R78*%
X209485100Y-140720800D03*
X211135100Y-140720800D03*
%TD*%
D56*
%TO.C,R23*%
X179978700Y-85460200D03*
X178328700Y-85460200D03*
%TD*%
D65*
%TO.C,U12*%
X170855100Y-143842600D03*
X170855100Y-145112600D03*
X170855100Y-146382600D03*
X170855100Y-147652600D03*
X176105100Y-147652600D03*
X176105100Y-146382600D03*
X176105100Y-145112600D03*
X176105100Y-143842600D03*
%TD*%
D23*
%TO.C,R51*%
X119735600Y-109392000D03*
X121560600Y-109392000D03*
%TD*%
%TO.C,R49*%
X119735600Y-103492000D03*
X121560600Y-103492000D03*
%TD*%
D18*
%TO.C,D15*%
X180420900Y-121109600D03*
X184420900Y-121109600D03*
%TD*%
D65*
%TO.C,U25*%
X188333500Y-116126800D03*
X188333500Y-117396800D03*
X188333500Y-118666800D03*
X188333500Y-119936800D03*
X193583500Y-119936800D03*
X193583500Y-118666800D03*
X193583500Y-117396800D03*
X193583500Y-116126800D03*
%TD*%
D35*
%TO.C,C51*%
X149771700Y-96928800D03*
X151671700Y-96928800D03*
%TD*%
D22*
%TO.C,D77*%
X69825000Y-73916400D03*
X71700000Y-73916400D03*
%TD*%
D19*
%TO.C,C2*%
X116858900Y-134760400D03*
X116858900Y-132860400D03*
%TD*%
D30*
%TO.C,Q1*%
X141104200Y-90678800D03*
X141104200Y-92578800D03*
X142979200Y-91628800D03*
%TD*%
D45*
%TO.C,U10*%
X96957600Y-145728000D03*
X96957600Y-146378000D03*
X96957600Y-147028000D03*
X96957600Y-147678000D03*
X96957600Y-148328000D03*
X96957600Y-148978000D03*
X96957600Y-149628000D03*
X102682600Y-149628000D03*
X102682600Y-148978000D03*
X102682600Y-148328000D03*
X102682600Y-147678000D03*
X102682600Y-147028000D03*
X102682600Y-146378000D03*
X102682600Y-145728000D03*
%TD*%
D23*
%TO.C,R50*%
X119735600Y-106442000D03*
X121560600Y-106442000D03*
%TD*%
D45*
%TO.C,U22*%
X195027000Y-107328400D03*
X195027000Y-107978400D03*
X195027000Y-108628400D03*
X195027000Y-109278400D03*
X195027000Y-109928400D03*
X195027000Y-110578400D03*
X195027000Y-111228400D03*
X195027000Y-111878400D03*
X200752000Y-111878400D03*
X200752000Y-111228400D03*
X200752000Y-110578400D03*
X200752000Y-109928400D03*
X200752000Y-109278400D03*
X200752000Y-108628400D03*
X200752000Y-107978400D03*
X200752000Y-107328400D03*
%TD*%
D25*
%TO.C,R2*%
X105804200Y-116941600D03*
X107454200Y-116941600D03*
%TD*%
D23*
%TO.C,R55*%
X110490000Y-116715200D03*
X112315000Y-116715200D03*
%TD*%
D35*
%TO.C,C25*%
X156578900Y-126380000D03*
X158478900Y-126380000D03*
%TD*%
D22*
%TO.C,D18*%
X69825000Y-80368000D03*
X71700000Y-80368000D03*
%TD*%
D66*
%TO.C,SW1*%
X64005700Y-118041200D03*
X70305700Y-118041200D03*
X64005700Y-121841200D03*
X70305700Y-121841200D03*
%TD*%
D25*
%TO.C,R35*%
X105804200Y-126981600D03*
X107454200Y-126981600D03*
%TD*%
D27*
%TO.C,D76*%
X60740400Y-69389800D03*
X60740400Y-71889800D03*
%TD*%
D21*
%TO.C,C44*%
X103630700Y-107958800D03*
X105180700Y-107958800D03*
%TD*%
D27*
%TO.C,D68*%
X68868400Y-69339000D03*
X68868400Y-71839000D03*
%TD*%
D25*
%TO.C,R121*%
X131927900Y-90940000D03*
X133577900Y-90940000D03*
%TD*%
D31*
%TO.C,R116*%
X122030400Y-78590000D03*
X124955400Y-78590000D03*
%TD*%
D67*
%TO.C,C36*%
X186017700Y-88257200D03*
X186017700Y-90157200D03*
%TD*%
D19*
%TO.C,C9*%
X116858900Y-130310400D03*
X116858900Y-128410400D03*
%TD*%
D23*
%TO.C,R63*%
X114900000Y-101965200D03*
X116725000Y-101965200D03*
%TD*%
D31*
%TO.C,R120*%
X122030400Y-95430000D03*
X124955400Y-95430000D03*
%TD*%
D21*
%TO.C,C26*%
X103630700Y-100428800D03*
X105180700Y-100428800D03*
%TD*%
D35*
%TO.C,C58*%
X141225700Y-147101200D03*
X143125700Y-147101200D03*
%TD*%
D27*
%TO.C,D70*%
X66836400Y-69364400D03*
X66836400Y-71864400D03*
%TD*%
D35*
%TO.C,C24*%
X99225700Y-101678800D03*
X101125700Y-101678800D03*
%TD*%
D21*
%TO.C,C60*%
X127391500Y-117583600D03*
X128941500Y-117583600D03*
%TD*%
D68*
%TO.C,U7*%
X76712900Y-152681800D03*
X76712900Y-153951800D03*
X76712900Y-155221800D03*
X76712900Y-156491800D03*
X83912900Y-156491800D03*
X83912900Y-155221800D03*
X83912900Y-153951800D03*
X83912900Y-152681800D03*
%TD*%
D21*
%TO.C,C67*%
X203693100Y-139854800D03*
X205243100Y-139854800D03*
%TD*%
D30*
%TO.C,Q11*%
X132060200Y-87450400D03*
X132060200Y-89350400D03*
X133935200Y-88400400D03*
%TD*%
D19*
%TO.C,C14*%
X131908900Y-130310400D03*
X131908900Y-128410400D03*
%TD*%
D69*
%TO.C,U2*%
X74383500Y-103913800D03*
X74383500Y-105183800D03*
X74383500Y-106453800D03*
X74383500Y-107723800D03*
X74383500Y-108993800D03*
X74383500Y-110263800D03*
X74383500Y-111533800D03*
X74383500Y-112803800D03*
X79333500Y-112803800D03*
X79333500Y-111533800D03*
X79333500Y-110263800D03*
X79333500Y-108993800D03*
X79333500Y-107723800D03*
X79333500Y-106453800D03*
X79333500Y-105183800D03*
X79333500Y-103913800D03*
%TD*%
D64*
%TO.C,U11*%
X181983400Y-133629600D03*
X181983400Y-134579600D03*
X181983400Y-135529600D03*
X184258400Y-135529600D03*
X184258400Y-134579600D03*
X184258400Y-133629600D03*
%TD*%
D19*
%TO.C,C7*%
X128898900Y-134760400D03*
X128898900Y-132860400D03*
%TD*%
D17*
%TO.C,R5*%
X90015700Y-122481200D03*
X90015700Y-120831200D03*
%TD*%
D35*
%TO.C,C32*%
X154336100Y-136775800D03*
X156236100Y-136775800D03*
%TD*%
D30*
%TO.C,Q15*%
X77140200Y-75730000D03*
X77140200Y-77630000D03*
X79015200Y-76680000D03*
%TD*%
D54*
%TO.C,R30*%
X94465700Y-124631200D03*
X94465700Y-126281200D03*
%TD*%
D24*
%TO.C,U30*%
X109446700Y-89396200D03*
X110716700Y-89396200D03*
X111986700Y-89396200D03*
X113256700Y-89396200D03*
X113256700Y-84446200D03*
X111986700Y-84446200D03*
X110716700Y-84446200D03*
X109446700Y-84446200D03*
%TD*%
D17*
%TO.C,R29*%
X94465700Y-120531200D03*
X94465700Y-118881200D03*
%TD*%
D22*
%TO.C,D69*%
X61356900Y-82527000D03*
X63231900Y-82527000D03*
%TD*%
D19*
%TO.C,C11*%
X122878900Y-130310400D03*
X122878900Y-128410400D03*
%TD*%
M02*
