%TF.GenerationSoftware,KiCad,Pcbnew,7.0.7-2.fc38*%
%TF.CreationDate,2023-10-14T02:21:00-03:00*%
%TF.ProjectId,OpenEFI_rev4,4f70656e-4546-4495-9f72-6576342e6b69,v3.0*%
%TF.SameCoordinates,Original*%
%TF.FileFunction,Profile,NP*%
%FSLAX46Y46*%
G04 Gerber Fmt 4.6, Leading zero omitted, Abs format (unit mm)*
G04 Created by KiCad (PCBNEW 7.0.7-2.fc38) date 2023-10-14 02:21:00*
%MOMM*%
%LPD*%
G01*
G04 APERTURE LIST*
%TA.AperFunction,Profile*%
%ADD10C,0.200000*%
%TD*%
%TA.AperFunction,Profile*%
%ADD11C,0.120000*%
%TD*%
G04 APERTURE END LIST*
D10*
X278939050Y-121687800D02*
G75*
G03*
X278939050Y-124687800I-150J-1500000D01*
G01*
X277379050Y-149677750D02*
G75*
G03*
X268379050Y-158677800I50J-9000050D01*
G01*
X278939050Y-121687800D02*
X281239050Y-121687800D01*
X266538990Y-52745802D02*
G75*
G03*
X271039050Y-57187802I4546910J105902D01*
G01*
X255199050Y-44537800D02*
X266539050Y-46537800D01*
X127351850Y-57187799D02*
G75*
G03*
X131939049Y-52625801I18020J4569149D01*
G01*
X281239050Y-58602014D02*
X281239050Y-121687800D01*
X119539050Y-124687801D02*
X117239050Y-124687801D01*
X281239050Y-58602014D02*
X279824836Y-57187801D01*
X131923850Y-46537800D02*
X131939050Y-52625801D01*
X130099050Y-161123587D02*
X131513263Y-162537800D01*
X117239050Y-58602014D02*
X117239050Y-121687801D01*
X268379050Y-161123587D02*
X266964836Y-162537800D01*
X130099049Y-158677801D02*
G75*
G03*
X121099050Y-149677801I-8999999J1D01*
G01*
X281239050Y-148263587D02*
X279824836Y-149677800D01*
X119539050Y-124687799D02*
G75*
G03*
X119539050Y-121687801I-50J1499999D01*
G01*
X117239049Y-148263587D02*
X118653263Y-149677801D01*
X277379050Y-149677800D02*
X279824836Y-149677800D01*
X278939050Y-124687800D02*
X281239050Y-124687800D01*
X266539050Y-46537800D02*
X266539050Y-52745801D01*
X119539050Y-121687801D02*
X117239050Y-121687801D01*
X118653263Y-57187800D02*
X127351850Y-57187800D01*
X143279050Y-44537800D02*
X255199050Y-44537800D01*
X130099050Y-158677801D02*
X130099050Y-161123587D01*
X281239050Y-124687801D02*
X281239050Y-148263587D01*
X121099050Y-149677801D02*
X118653263Y-149677801D01*
X143279050Y-44537800D02*
X131923850Y-46537800D01*
X268379050Y-158677800D02*
X268379050Y-161123587D01*
X117239050Y-58602014D02*
X118653263Y-57187801D01*
X279824836Y-57187800D02*
X271039050Y-57187800D01*
X117239050Y-124687801D02*
X117239050Y-148263587D01*
X131513263Y-162537801D02*
X266964836Y-162537800D01*
D11*
%TO.C,U19*%
X269671800Y-74168000D02*
X264337800Y-74168000D01*
X264337800Y-74168000D02*
X264337800Y-82042000D01*
X264337800Y-82042000D02*
X269671800Y-82042000D01*
X269671800Y-82042000D02*
X269671800Y-74168000D01*
%TD*%
M02*
