%TF.GenerationSoftware,KiCad,Pcbnew,7.0.8-1.fc38*%
%TF.CreationDate,2023-10-16T01:27:14-03:00*%
%TF.ProjectId,OpenEFI_rev4,4f70656e-4546-4495-9f72-6576342e6b69,v4*%
%TF.SameCoordinates,Original*%
%TF.FileFunction,Profile,NP*%
%FSLAX46Y46*%
G04 Gerber Fmt 4.6, Leading zero omitted, Abs format (unit mm)*
G04 Created by KiCad (PCBNEW 7.0.8-1.fc38) date 2023-10-16 01:27:14*
%MOMM*%
%LPD*%
G01*
G04 APERTURE LIST*
%TA.AperFunction,Profile*%
%ADD10C,0.200000*%
%TD*%
%TA.AperFunction,Profile*%
%ADD11C,0.120000*%
%TD*%
G04 APERTURE END LIST*
D10*
X211474750Y-119709000D02*
G75*
G03*
X211474750Y-122709000I-150J-1500000D01*
G01*
X209914750Y-147698950D02*
G75*
G03*
X200914750Y-156699000I50J-9000050D01*
G01*
X211474750Y-119709000D02*
X213774750Y-119709000D01*
X199074690Y-50767002D02*
G75*
G03*
X203574750Y-55209002I4546910J105902D01*
G01*
X187734750Y-42559000D02*
X199074750Y-44559000D01*
X59887550Y-55208999D02*
G75*
G03*
X64474749Y-50647001I18020J4569149D01*
G01*
X213774750Y-56623214D02*
X213774750Y-119709000D01*
X52074750Y-122709001D02*
X49774750Y-122709001D01*
X213774750Y-56623214D02*
X212360536Y-55209001D01*
X64459550Y-44559000D02*
X64474750Y-50647001D01*
X62634750Y-159144787D02*
X64048963Y-160559000D01*
X49774750Y-56623214D02*
X49774750Y-119709001D01*
X200914750Y-159144787D02*
X199500536Y-160559000D01*
X62634749Y-156699001D02*
G75*
G03*
X53634750Y-147699001I-8999999J1D01*
G01*
X213774750Y-146284787D02*
X212360536Y-147699000D01*
X52074750Y-122708999D02*
G75*
G03*
X52074750Y-119709001I-50J1499999D01*
G01*
X49774749Y-146284787D02*
X51188963Y-147699001D01*
X209914750Y-147699000D02*
X212360536Y-147699000D01*
X211474750Y-122709000D02*
X213774750Y-122709000D01*
X199074750Y-44559000D02*
X199074750Y-50767001D01*
X52074750Y-119709001D02*
X49774750Y-119709001D01*
X51188963Y-55209000D02*
X59887550Y-55209000D01*
X75814750Y-42559000D02*
X187734750Y-42559000D01*
X62634750Y-156699001D02*
X62634750Y-159144787D01*
X213774750Y-122709001D02*
X213774750Y-146284787D01*
X53634750Y-147699001D02*
X51188963Y-147699001D01*
X75814750Y-42559000D02*
X64459550Y-44559000D01*
X200914750Y-156699000D02*
X200914750Y-159144787D01*
X49774750Y-56623214D02*
X51188963Y-55209001D01*
X212360536Y-55209000D02*
X203574750Y-55209000D01*
X49774750Y-122709001D02*
X49774750Y-146284787D01*
X64048963Y-160559001D02*
X199500536Y-160559000D01*
D11*
%TO.C,U19*%
X207592300Y-72697200D02*
X202258300Y-72697200D01*
X202258300Y-72697200D02*
X202258300Y-80571200D01*
X202258300Y-80571200D02*
X207592300Y-80571200D01*
X207592300Y-80571200D02*
X207592300Y-72697200D01*
%TD*%
M02*
