%TF.GenerationSoftware,KiCad,Pcbnew,7.99.0-1.20231110gitd41f4ec.fc38*%
%TF.CreationDate,2023-11-11T23:50:43-03:00*%
%TF.ProjectId,OpenEFI_rev4,4f70656e-4546-4495-9f72-6576342e6b69,v4*%
%TF.SameCoordinates,Original*%
%TF.FileFunction,Soldermask,Top*%
%TF.FilePolarity,Negative*%
%FSLAX46Y46*%
G04 Gerber Fmt 4.6, Leading zero omitted, Abs format (unit mm)*
G04 Created by KiCad (PCBNEW 7.99.0-1.20231110gitd41f4ec.fc38) date 2023-11-11 23:50:43*
%MOMM*%
%LPD*%
G01*
G04 APERTURE LIST*
G04 Aperture macros list*
%AMRoundRect*
0 Rectangle with rounded corners*
0 $1 Rounding radius*
0 $2 $3 $4 $5 $6 $7 $8 $9 X,Y pos of 4 corners*
0 Add a 4 corners polygon primitive as box body*
4,1,4,$2,$3,$4,$5,$6,$7,$8,$9,$2,$3,0*
0 Add four circle primitives for the rounded corners*
1,1,$1+$1,$2,$3*
1,1,$1+$1,$4,$5*
1,1,$1+$1,$6,$7*
1,1,$1+$1,$8,$9*
0 Add four rect primitives between the rounded corners*
20,1,$1+$1,$2,$3,$4,$5,0*
20,1,$1+$1,$4,$5,$6,$7,0*
20,1,$1+$1,$6,$7,$8,$9,0*
20,1,$1+$1,$8,$9,$2,$3,0*%
%AMHorizOval*
0 Thick line with rounded ends*
0 $1 width*
0 $2 $3 position (X,Y) of the first rounded end (center of the circle)*
0 $4 $5 position (X,Y) of the second rounded end (center of the circle)*
0 Add line between two ends*
20,1,$1,$2,$3,$4,$5,0*
0 Add two circle primitives to create the rounded ends*
1,1,$1,$2,$3*
1,1,$1,$4,$5*%
%AMRotRect*
0 Rectangle, with rotation*
0 The origin of the aperture is its center*
0 $1 length*
0 $2 width*
0 $3 Rotation angle, in degrees counterclockwise*
0 Add horizontal line*
21,1,$1,$2,0,0,$3*%
%AMFreePoly0*
4,1,19,0.500000,-0.750000,0.000000,-0.750000,0.000000,-0.744911,-0.071157,-0.744911,-0.207708,-0.704816,-0.327430,-0.627875,-0.420627,-0.520320,-0.479746,-0.390866,-0.500000,-0.250000,-0.500000,0.250000,-0.479746,0.390866,-0.420627,0.520320,-0.327430,0.627875,-0.207708,0.704816,-0.071157,0.744911,0.000000,0.744911,0.000000,0.750000,0.500000,0.750000,0.500000,-0.750000,0.500000,-0.750000,
$1*%
%AMFreePoly1*
4,1,19,0.000000,0.744911,0.071157,0.744911,0.207708,0.704816,0.327430,0.627875,0.420627,0.520320,0.479746,0.390866,0.500000,0.250000,0.500000,-0.250000,0.479746,-0.390866,0.420627,-0.520320,0.327430,-0.627875,0.207708,-0.704816,0.071157,-0.744911,0.000000,-0.744911,0.000000,-0.750000,-0.500000,-0.750000,-0.500000,0.750000,0.000000,0.750000,0.000000,0.744911,0.000000,0.744911,
$1*%
%AMFreePoly2*
4,1,6,1.000000,0.000000,0.500000,-0.750000,-0.500000,-0.750000,-0.500000,0.750000,0.500000,0.750000,1.000000,0.000000,1.000000,0.000000,$1*%
G04 Aperture macros list end*
%ADD10RoundRect,0.225000X-0.250000X0.225000X-0.250000X-0.225000X0.250000X-0.225000X0.250000X0.225000X0*%
%ADD11RoundRect,0.250000X-1.500000X-0.550000X1.500000X-0.550000X1.500000X0.550000X-1.500000X0.550000X0*%
%ADD12RoundRect,0.243750X-0.243750X-0.456250X0.243750X-0.456250X0.243750X0.456250X-0.243750X0.456250X0*%
%ADD13RoundRect,0.250000X0.450000X-0.262500X0.450000X0.262500X-0.450000X0.262500X-0.450000X-0.262500X0*%
%ADD14RoundRect,0.150000X0.150000X-0.825000X0.150000X0.825000X-0.150000X0.825000X-0.150000X-0.825000X0*%
%ADD15RoundRect,0.250000X-0.450000X0.262500X-0.450000X-0.262500X0.450000X-0.262500X0.450000X0.262500X0*%
%ADD16RoundRect,0.200000X-0.200000X-0.275000X0.200000X-0.275000X0.200000X0.275000X-0.200000X0.275000X0*%
%ADD17R,0.600000X0.700000*%
%ADD18RoundRect,0.250000X-0.250000X0.250000X-0.250000X-0.250000X0.250000X-0.250000X0.250000X0.250000X0*%
%ADD19RoundRect,0.243750X0.243750X0.456250X-0.243750X0.456250X-0.243750X-0.456250X0.243750X-0.456250X0*%
%ADD20R,1.700000X1.700000*%
%ADD21O,1.700000X1.700000*%
%ADD22RoundRect,0.200000X0.275000X-0.200000X0.275000X0.200000X-0.275000X0.200000X-0.275000X-0.200000X0*%
%ADD23RoundRect,0.140000X-0.170000X0.140000X-0.170000X-0.140000X0.170000X-0.140000X0.170000X0.140000X0*%
%ADD24RoundRect,0.250000X0.650000X-1.000000X0.650000X1.000000X-0.650000X1.000000X-0.650000X-1.000000X0*%
%ADD25C,0.800000*%
%ADD26C,7.000000*%
%ADD27RoundRect,0.225000X0.225000X0.250000X-0.225000X0.250000X-0.225000X-0.250000X0.225000X-0.250000X0*%
%ADD28R,1.500000X1.500000*%
%ADD29RoundRect,0.150000X-0.150000X0.587500X-0.150000X-0.587500X0.150000X-0.587500X0.150000X0.587500X0*%
%ADD30R,0.700000X0.510000*%
%ADD31RoundRect,0.200000X0.200000X0.275000X-0.200000X0.275000X-0.200000X-0.275000X0.200000X-0.275000X0*%
%ADD32RoundRect,0.250000X1.075000X-0.312500X1.075000X0.312500X-1.075000X0.312500X-1.075000X-0.312500X0*%
%ADD33RoundRect,0.200000X-0.275000X0.200000X-0.275000X-0.200000X0.275000X-0.200000X0.275000X0.200000X0*%
%ADD34RoundRect,0.250000X0.262500X0.450000X-0.262500X0.450000X-0.262500X-0.450000X0.262500X-0.450000X0*%
%ADD35RoundRect,0.150000X0.150000X-0.587500X0.150000X0.587500X-0.150000X0.587500X-0.150000X-0.587500X0*%
%ADD36RoundRect,0.243750X-0.456250X0.243750X-0.456250X-0.243750X0.456250X-0.243750X0.456250X0.243750X0*%
%ADD37RoundRect,0.250000X0.512652X0.159099X0.159099X0.512652X-0.512652X-0.159099X-0.159099X-0.512652X0*%
%ADD38RoundRect,0.250000X0.475000X-0.250000X0.475000X0.250000X-0.475000X0.250000X-0.475000X-0.250000X0*%
%ADD39RoundRect,0.250000X-0.850000X-0.350000X0.850000X-0.350000X0.850000X0.350000X-0.850000X0.350000X0*%
%ADD40RoundRect,0.249997X-2.950003X-2.650003X2.950003X-2.650003X2.950003X2.650003X-2.950003X2.650003X0*%
%ADD41RoundRect,0.250000X-0.512652X-0.159099X-0.159099X-0.512652X0.512652X0.159099X0.159099X0.512652X0*%
%ADD42RoundRect,0.225000X-0.225000X-0.250000X0.225000X-0.250000X0.225000X0.250000X-0.225000X0.250000X0*%
%ADD43RoundRect,0.150000X0.200000X-0.150000X0.200000X0.150000X-0.200000X0.150000X-0.200000X-0.150000X0*%
%ADD44R,1.000000X1.000000*%
%ADD45C,2.100000*%
%ADD46R,0.500000X0.800000*%
%ADD47R,0.400000X0.800000*%
%ADD48R,0.410000X1.600000*%
%ADD49R,0.800000X0.500000*%
%ADD50R,0.800000X0.400000*%
%ADD51C,4.000000*%
%ADD52C,2.500000*%
%ADD53RoundRect,0.102000X0.975000X0.975000X-0.975000X0.975000X-0.975000X-0.975000X0.975000X-0.975000X0*%
%ADD54C,2.154000*%
%ADD55C,1.712000*%
%ADD56RotRect,1.100000X1.100000X315.000000*%
%ADD57C,1.100000*%
%ADD58HorizOval,1.100000X-0.459619X-0.459619X0.459619X0.459619X0*%
%ADD59RoundRect,0.250000X0.250000X0.475000X-0.250000X0.475000X-0.250000X-0.475000X0.250000X-0.475000X0*%
%ADD60RoundRect,0.250000X0.350000X-0.850000X0.350000X0.850000X-0.350000X0.850000X-0.350000X-0.850000X0*%
%ADD61RoundRect,0.249997X2.650003X-2.950003X2.650003X2.950003X-2.650003X2.950003X-2.650003X-2.950003X0*%
%ADD62R,2.440000X1.120000*%
%ADD63RoundRect,0.100000X-0.625000X-0.100000X0.625000X-0.100000X0.625000X0.100000X-0.625000X0.100000X0*%
%ADD64RoundRect,0.076200X0.550000X-0.425000X0.550000X0.425000X-0.550000X0.425000X-0.550000X-0.425000X0*%
%ADD65RoundRect,0.076200X0.550000X-0.375000X0.550000X0.375000X-0.550000X0.375000X-0.550000X-0.375000X0*%
%ADD66RoundRect,0.076200X0.500000X-0.600000X0.500000X0.600000X-0.500000X0.600000X-0.500000X-0.600000X0*%
%ADD67RoundRect,0.076200X0.675000X-0.775000X0.675000X0.775000X-0.675000X0.775000X-0.675000X-0.775000X0*%
%ADD68RoundRect,0.076200X0.900000X-0.585000X0.900000X0.585000X-0.900000X0.585000X-0.900000X-0.585000X0*%
%ADD69RoundRect,0.076200X0.675000X-0.950000X0.675000X0.950000X-0.675000X0.950000X-0.675000X-0.950000X0*%
%ADD70R,0.350000X0.500000*%
%ADD71RoundRect,0.250000X-0.475000X0.250000X-0.475000X-0.250000X0.475000X-0.250000X0.475000X0.250000X0*%
%ADD72RoundRect,0.150000X-0.150000X-0.200000X0.150000X-0.200000X0.150000X0.200000X-0.150000X0.200000X0*%
%ADD73R,1.500000X2.200000*%
%ADD74RoundRect,0.250000X-0.250000X-0.475000X0.250000X-0.475000X0.250000X0.475000X-0.250000X0.475000X0*%
%ADD75RoundRect,0.100000X0.637500X0.100000X-0.637500X0.100000X-0.637500X-0.100000X0.637500X-0.100000X0*%
%ADD76RoundRect,0.140000X0.140000X0.170000X-0.140000X0.170000X-0.140000X-0.170000X0.140000X-0.170000X0*%
%ADD77FreePoly0,0.000000*%
%ADD78FreePoly1,0.000000*%
%ADD79RoundRect,0.250000X-0.750000X0.600000X-0.750000X-0.600000X0.750000X-0.600000X0.750000X0.600000X0*%
%ADD80O,2.000000X1.700000*%
%ADD81RoundRect,0.250000X0.312500X0.625000X-0.312500X0.625000X-0.312500X-0.625000X0.312500X-0.625000X0*%
%ADD82RotRect,1.400000X1.200000X225.000000*%
%ADD83R,1.500000X2.000000*%
%ADD84R,3.800000X2.000000*%
%ADD85RoundRect,0.075000X-0.459619X-0.565685X0.565685X0.459619X0.459619X0.565685X-0.565685X-0.459619X0*%
%ADD86RoundRect,0.075000X0.459619X-0.565685X0.565685X-0.459619X-0.459619X0.565685X-0.565685X0.459619X0*%
%ADD87RoundRect,0.250000X-0.159099X0.512652X-0.512652X0.159099X0.159099X-0.512652X0.512652X-0.159099X0*%
%ADD88RoundRect,0.250000X-1.075000X0.312500X-1.075000X-0.312500X1.075000X-0.312500X1.075000X0.312500X0*%
%ADD89C,1.524000*%
%ADD90R,1.000000X1.500000*%
%ADD91RoundRect,0.250000X-1.450000X0.312500X-1.450000X-0.312500X1.450000X-0.312500X1.450000X0.312500X0*%
%ADD92RoundRect,0.150000X-0.200000X0.150000X-0.200000X-0.150000X0.200000X-0.150000X0.200000X0.150000X0*%
%ADD93RoundRect,0.150000X0.587500X0.150000X-0.587500X0.150000X-0.587500X-0.150000X0.587500X-0.150000X0*%
%ADD94RoundRect,0.102000X-0.800000X-0.240000X0.800000X-0.240000X0.800000X0.240000X-0.800000X0.240000X0*%
%ADD95RoundRect,0.102000X-2.300000X-2.300000X2.300000X-2.300000X2.300000X2.300000X-2.300000X2.300000X0*%
%ADD96RoundRect,0.150000X-0.850000X-0.150000X0.850000X-0.150000X0.850000X0.150000X-0.850000X0.150000X0*%
%ADD97R,1.500000X1.000000*%
%ADD98R,1.100000X0.600000*%
%ADD99RoundRect,0.225000X0.250000X-0.225000X0.250000X0.225000X-0.250000X0.225000X-0.250000X-0.225000X0*%
%ADD100RoundRect,0.100000X-0.100000X0.637500X-0.100000X-0.637500X0.100000X-0.637500X0.100000X0.637500X0*%
%ADD101RoundRect,0.112500X-0.187500X-0.112500X0.187500X-0.112500X0.187500X0.112500X-0.187500X0.112500X0*%
%ADD102RoundRect,0.140000X-0.140000X-0.170000X0.140000X-0.170000X0.140000X0.170000X-0.140000X0.170000X0*%
%ADD103RoundRect,0.250000X0.159099X-0.512652X0.512652X-0.159099X-0.159099X0.512652X-0.512652X0.159099X0*%
%ADD104RoundRect,0.150000X0.150000X-0.512500X0.150000X0.512500X-0.150000X0.512500X-0.150000X-0.512500X0*%
%ADD105RoundRect,0.250000X-0.650000X1.000000X-0.650000X-1.000000X0.650000X-1.000000X0.650000X1.000000X0*%
%ADD106RoundRect,0.102000X-0.765000X-0.765000X0.765000X-0.765000X0.765000X0.765000X-0.765000X0.765000X0*%
%ADD107C,1.734000*%
%ADD108RoundRect,0.150000X-0.675000X-0.150000X0.675000X-0.150000X0.675000X0.150000X-0.675000X0.150000X0*%
%ADD109RoundRect,0.250000X-0.262500X-0.450000X0.262500X-0.450000X0.262500X0.450000X-0.262500X0.450000X0*%
%ADD110RoundRect,0.250000X0.000000X0.353553X-0.353553X0.000000X0.000000X-0.353553X0.353553X0.000000X0*%
%ADD111RoundRect,0.150000X0.150000X-0.675000X0.150000X0.675000X-0.150000X0.675000X-0.150000X-0.675000X0*%
%ADD112RoundRect,0.102000X0.450000X0.200000X-0.450000X0.200000X-0.450000X-0.200000X0.450000X-0.200000X0*%
%ADD113FreePoly2,90.000000*%
%ADD114FreePoly2,270.000000*%
%ADD115RoundRect,0.200000X0.053033X-0.335876X0.335876X-0.053033X-0.053033X0.335876X-0.335876X0.053033X0*%
%ADD116R,1.700000X1.000000*%
%ADD117C,2.374900*%
%ADD118C,0.990600*%
%ADD119C,0.787400*%
%ADD120RoundRect,0.250000X0.550000X-1.500000X0.550000X1.500000X-0.550000X1.500000X-0.550000X-1.500000X0*%
%ADD121R,1.550000X0.600000*%
%ADD122R,2.600000X3.100000*%
%ADD123RoundRect,0.150000X-0.650000X-0.150000X0.650000X-0.150000X0.650000X0.150000X-0.650000X0.150000X0*%
%ADD124RoundRect,0.150000X-0.825000X-0.150000X0.825000X-0.150000X0.825000X0.150000X-0.825000X0.150000X0*%
%ADD125RoundRect,0.150000X-0.468458X0.256326X0.256326X-0.468458X0.468458X-0.256326X-0.256326X0.468458X0*%
%ADD126FreePoly0,90.000000*%
%ADD127FreePoly1,90.000000*%
G04 APERTURE END LIST*
D10*
%TO.C,C46*%
X76970550Y68556400D03*
X76970550Y67006400D03*
%TD*%
D11*
%TO.C,C42*%
X118246950Y89228800D03*
X123646950Y89228800D03*
%TD*%
D12*
%TO.C,D16*%
X21459350Y80747600D03*
X23334350Y80747600D03*
%TD*%
D13*
%TO.C,R67*%
X78900950Y49800100D03*
X78900950Y51625100D03*
%TD*%
D14*
%TO.C,U29*%
X59125250Y82909600D03*
X60395250Y82909600D03*
X61665250Y82909600D03*
X62935250Y82909600D03*
X62935250Y87859600D03*
X61665250Y87859600D03*
X60395250Y87859600D03*
X59125250Y87859600D03*
%TD*%
D15*
%TO.C,R61*%
X76919750Y48069100D03*
X76919750Y46244100D03*
%TD*%
D16*
%TO.C,R20*%
X130182250Y66726800D03*
X131832250Y66726800D03*
%TD*%
D17*
%TO.C,D2*%
X126592950Y69035800D03*
X127992950Y69035800D03*
%TD*%
D18*
%TO.C,D64*%
X26054450Y94900799D03*
X26054450Y92400801D03*
%TD*%
D19*
%TO.C,D63*%
X14865251Y81585800D03*
X12990249Y81585800D03*
%TD*%
D20*
%TO.C,J4*%
X16499050Y64679800D03*
D21*
X19039050Y64679800D03*
X16499050Y62139800D03*
X19039050Y62139800D03*
X16499050Y59599800D03*
X19039050Y59599800D03*
X16499050Y57059800D03*
X19039050Y57059800D03*
X16499050Y54519800D03*
X19039050Y54519800D03*
X16499050Y51979800D03*
X19039050Y51979800D03*
X16499050Y49439800D03*
X19039050Y49439800D03*
X16499050Y46899800D03*
X19039050Y46899800D03*
%TD*%
D22*
%TO.C,R4*%
X75740914Y15255838D03*
X75740914Y16905838D03*
%TD*%
D19*
%TO.C,D73*%
X14806562Y70742366D03*
X12931560Y70742366D03*
%TD*%
D23*
%TO.C,C27*%
X89630650Y32332600D03*
X89630650Y31372600D03*
%TD*%
D24*
%TO.C,D4*%
X126788950Y82506800D03*
X126788950Y86506800D03*
%TD*%
D25*
%TO.C,H3*%
X145132650Y39564800D03*
X145901495Y41420955D03*
X145901495Y37708645D03*
X147757650Y42189800D03*
D26*
X147757650Y39564800D03*
D25*
X147757650Y36939800D03*
X149613805Y41420955D03*
X149613805Y37708645D03*
X150382650Y39564800D03*
%TD*%
D27*
%TO.C,C61*%
X130512250Y33351200D03*
X128962250Y33351200D03*
%TD*%
D28*
%TO.C,TP33*%
X80308850Y94311200D03*
%TD*%
D29*
%TO.C,Q14*%
X95090950Y59371700D03*
X93190950Y59371700D03*
X94140950Y57496700D03*
%TD*%
D30*
%TO.C,Q20*%
X128374050Y28814800D03*
X128374050Y27864800D03*
X128374050Y26914800D03*
X130694050Y26914800D03*
X130694050Y27864800D03*
X130694050Y28814800D03*
%TD*%
D31*
%TO.C,R77*%
X77033550Y70067400D03*
X75383550Y70067400D03*
%TD*%
D32*
%TO.C,R71*%
X41954850Y56628300D03*
X41954850Y59553300D03*
%TD*%
D33*
%TO.C,R80*%
X145434450Y74867000D03*
X145434450Y73217000D03*
%TD*%
D18*
%TO.C,D74*%
X36341450Y94951599D03*
X36341450Y92451601D03*
%TD*%
D34*
%TO.C,R52*%
X91548250Y53506600D03*
X89723250Y53506600D03*
%TD*%
D22*
%TO.C,R27*%
X80340914Y21030838D03*
X80340914Y22680838D03*
%TD*%
D35*
%TO.C,Q5*%
X126092950Y71146300D03*
X127992950Y71146300D03*
X127042950Y73021300D03*
%TD*%
D36*
%TO.C,D8*%
X69299034Y22841492D03*
X69299034Y20966492D03*
%TD*%
%TO.C,D7*%
X78493834Y16796292D03*
X78493834Y14921292D03*
%TD*%
D37*
%TO.C,C11*%
X33685801Y26354849D03*
X32342299Y27698351D03*
%TD*%
D38*
%TO.C,C39*%
X79815350Y74502200D03*
X79815350Y76402200D03*
%TD*%
D13*
%TO.C,R47*%
X72957350Y49800100D03*
X72957350Y51625100D03*
%TD*%
D39*
%TO.C,Q7*%
X130165950Y84776800D03*
D40*
X136465950Y82496800D03*
D39*
X130165950Y80216800D03*
%TD*%
D28*
%TO.C,TP27*%
X72688850Y94311200D03*
%TD*%
D15*
%TO.C,R44*%
X74938550Y48069100D03*
X74938550Y46244100D03*
%TD*%
D22*
%TO.C,R56*%
X90178550Y66905600D03*
X90178550Y68555600D03*
%TD*%
D41*
%TO.C,C16*%
X39886099Y16496951D03*
X41229601Y15153449D03*
%TD*%
D22*
%TO.C,R24*%
X83140914Y19055838D03*
X83140914Y20705838D03*
%TD*%
D33*
%TO.C,R74*%
X75446550Y68606400D03*
X75446550Y66956400D03*
%TD*%
D39*
%TO.C,Q6*%
X130160050Y91968400D03*
D40*
X136460050Y89688400D03*
D39*
X130160050Y87408400D03*
%TD*%
D38*
%TO.C,C52*%
X44850450Y57699600D03*
X44850450Y59599600D03*
%TD*%
D10*
%TO.C,C38*%
X77021350Y76176400D03*
X77021350Y74626400D03*
%TD*%
%TO.C,C23*%
X90356350Y84177400D03*
X90356350Y82627400D03*
%TD*%
D28*
%TO.C,TP69*%
X70146950Y91768800D03*
%TD*%
D42*
%TO.C,C33*%
X133379950Y69162800D03*
X134929950Y69162800D03*
%TD*%
D33*
%TO.C,R12*%
X95309350Y84227400D03*
X95309350Y82577400D03*
%TD*%
D12*
%TO.C,D19*%
X21459350Y74296000D03*
X23334350Y74296000D03*
%TD*%
D28*
%TO.C,TP73*%
X80306950Y91768800D03*
%TD*%
D43*
%TO.C,D25*%
X130550050Y31765200D03*
X130550050Y30365200D03*
%TD*%
D44*
%TO.C,TP20*%
X86419350Y70626200D03*
%TD*%
D28*
%TO.C,TP24*%
X67608850Y94311200D03*
%TD*%
D45*
%TO.C,H5*%
X28257650Y16164800D03*
%TD*%
D38*
%TO.C,C34*%
X99500350Y82579400D03*
X99500350Y84479400D03*
%TD*%
D46*
%TO.C,RN2*%
X11531850Y66610800D03*
D47*
X10731850Y66610800D03*
X9931850Y66610800D03*
D46*
X9131850Y66610800D03*
X9131850Y64810800D03*
D47*
X9931850Y64810800D03*
X10731850Y64810800D03*
D46*
X11531850Y64810800D03*
%TD*%
D22*
%TO.C,R25*%
X71140914Y21055838D03*
X71140914Y22705838D03*
%TD*%
D48*
%TO.C,U36*%
X34703150Y52896500D03*
X35338150Y52896500D03*
X35973150Y52896500D03*
X36608150Y52896500D03*
X37243150Y52896500D03*
X37878150Y52896500D03*
X38513150Y52896500D03*
X39148150Y52896500D03*
X39148150Y58205100D03*
X38513150Y58205100D03*
X37878150Y58205100D03*
X37243150Y58205100D03*
X36608150Y58205100D03*
X35973150Y58205100D03*
X35338150Y58205100D03*
X34703150Y58205100D03*
%TD*%
D44*
%TO.C,TP18*%
X79815350Y78322400D03*
%TD*%
D15*
%TO.C,R66*%
X82964950Y48069100D03*
X82964950Y46244100D03*
%TD*%
D49*
%TO.C,RN3*%
X25510050Y82455600D03*
D50*
X25510050Y81655600D03*
X25510050Y80855600D03*
D49*
X25510050Y80055600D03*
X27310050Y80055600D03*
D50*
X27310050Y80855600D03*
X27310050Y81655600D03*
D49*
X27310050Y82455600D03*
%TD*%
D16*
%TO.C,R64*%
X44279450Y45898800D03*
X45929450Y45898800D03*
%TD*%
D35*
%TO.C,Q9*%
X92211250Y13262100D03*
X94111250Y13262100D03*
X93161250Y15137100D03*
%TD*%
D18*
%TO.C,D72*%
X34182450Y94875399D03*
X34182450Y92375401D03*
%TD*%
D51*
%TO.C,J6*%
X145801750Y114398400D03*
D52*
X143851750Y106598400D03*
D51*
X71751750Y114548400D03*
D52*
X22051750Y106598400D03*
D51*
X20101750Y114398400D03*
D53*
X139201750Y109398400D03*
D54*
X133401750Y109398400D03*
X136301750Y107068400D03*
X139201750Y101268400D03*
X133401750Y101268400D03*
D55*
X79771750Y101268400D03*
X82311750Y101268400D03*
X84851750Y101268400D03*
X87391750Y101268400D03*
X89931750Y101268400D03*
X92471750Y101268400D03*
X95011750Y101268400D03*
X97551750Y101268400D03*
X100091750Y101268400D03*
X102631750Y101268400D03*
X105171750Y101268400D03*
X107711750Y101268400D03*
X110251750Y101268400D03*
X112791750Y101268400D03*
X115331750Y101268400D03*
X117871750Y101268400D03*
X120411750Y101268400D03*
X122951750Y101268400D03*
X125491750Y101268400D03*
X79771750Y103808400D03*
X82311750Y103808400D03*
X84851750Y103808400D03*
X87391750Y103808400D03*
X89931750Y103808400D03*
X92471750Y103808400D03*
X95011750Y103808400D03*
X97551750Y103808400D03*
X100091750Y103808400D03*
X102631750Y103808400D03*
X105171750Y103808400D03*
X107711750Y103808400D03*
X110251750Y103808400D03*
X112791750Y103808400D03*
X115331750Y103808400D03*
X117871750Y103808400D03*
X120411750Y103808400D03*
X122951750Y103808400D03*
X125491750Y103808400D03*
X79771750Y109858400D03*
X82311750Y109858400D03*
X84851750Y109858400D03*
X87391750Y109858400D03*
X89931750Y109858400D03*
X92471750Y109858400D03*
X95011750Y109858400D03*
X97551750Y109858400D03*
X100091750Y109858400D03*
X102631750Y109858400D03*
X105171750Y109858400D03*
X107711750Y109858400D03*
X110251750Y109858400D03*
X112791750Y109858400D03*
X115331750Y109858400D03*
X117871750Y109858400D03*
X120411750Y109858400D03*
X122951750Y109858400D03*
X125491750Y109858400D03*
X79771750Y112398400D03*
X82311750Y112398400D03*
X84851750Y112398400D03*
X87391750Y112398400D03*
X89931750Y112398400D03*
X92471750Y112398400D03*
X95011750Y112398400D03*
X97551750Y112398400D03*
X100091750Y112398400D03*
X102631750Y112398400D03*
X105171750Y112398400D03*
X107711750Y112398400D03*
X110251750Y112398400D03*
X112791750Y112398400D03*
X115331750Y112398400D03*
X117871750Y112398400D03*
X120411750Y112398400D03*
X122951750Y112398400D03*
X125491750Y112398400D03*
X63831750Y112398400D03*
X61291750Y112398400D03*
X58751750Y112398400D03*
X56211750Y112398400D03*
X53671750Y112398400D03*
X51131750Y112398400D03*
X48591750Y112398400D03*
X46051750Y112398400D03*
X63831750Y109858400D03*
X61291750Y109858400D03*
X58751750Y109858400D03*
X56211750Y109858400D03*
X53671750Y109858400D03*
X51131750Y109858400D03*
X48591750Y109858400D03*
X46051750Y109858400D03*
X63831750Y103808400D03*
X61291750Y103808400D03*
X58751750Y103808400D03*
X56211750Y103808400D03*
X53671750Y103808400D03*
X51131750Y103808400D03*
X48591750Y103808400D03*
X46051750Y103808400D03*
X63831750Y101268400D03*
X61291750Y101268400D03*
X58751750Y101268400D03*
X56211750Y101268400D03*
X53671750Y101268400D03*
X51131750Y101268400D03*
X48591750Y101268400D03*
X46051750Y101268400D03*
D54*
X38151750Y109398400D03*
X32351750Y109398400D03*
X26551750Y109398400D03*
X35251750Y107068400D03*
X29451750Y107068400D03*
X38151750Y101268400D03*
X32351750Y101268400D03*
X26551750Y101268400D03*
%TD*%
D56*
%TO.C,J1*%
X60192050Y38075600D03*
D57*
X61995172Y38747351D03*
X61323421Y36944229D03*
X63126543Y37615981D03*
X62454792Y35812858D03*
D58*
X59361200Y40143887D03*
X64523079Y34982008D03*
%TD*%
D59*
%TO.C,C47*%
X65409250Y46000400D03*
X63509250Y46000400D03*
%TD*%
D28*
%TO.C,TP70*%
X72686950Y91768800D03*
%TD*%
D35*
%TO.C,Q17*%
X44002050Y47806100D03*
X45902050Y47806100D03*
X44952050Y49681100D03*
%TD*%
D60*
%TO.C,U17*%
X151790450Y48631200D03*
D61*
X154070450Y54931200D03*
D60*
X156350450Y48631200D03*
%TD*%
D62*
%TO.C,SW4*%
X52381850Y48438800D03*
X52381850Y45898800D03*
X60991850Y45898800D03*
X60991850Y48438800D03*
%TD*%
D16*
%TO.C,R31*%
X92082250Y22784800D03*
X93732250Y22784800D03*
%TD*%
D33*
%TO.C,R9*%
X88832350Y84227400D03*
X88832350Y82577400D03*
%TD*%
D63*
%TO.C,U6*%
X130480950Y74343800D03*
X130480950Y73693800D03*
X130480950Y73043800D03*
X130480950Y72393800D03*
X130480950Y71743800D03*
X130480950Y71093800D03*
X134780950Y71093800D03*
X134780950Y71743800D03*
X134780950Y72393800D03*
X134780950Y73043800D03*
X134780950Y73693800D03*
X134780950Y74343800D03*
%TD*%
D44*
%TO.C,TP21*%
X86419350Y78322400D03*
%TD*%
D49*
%TO.C,RN6*%
X97464850Y15692000D03*
D50*
X97464850Y16492000D03*
X97464850Y17292000D03*
D49*
X97464850Y18092000D03*
X95664850Y18092000D03*
D50*
X95664850Y17292000D03*
X95664850Y16492000D03*
D49*
X95664850Y15692000D03*
%TD*%
D19*
%TO.C,D67*%
X14835251Y77267799D03*
X12960249Y77267799D03*
%TD*%
D33*
%TO.C,R82*%
X153562450Y74968600D03*
X153562450Y73318600D03*
%TD*%
D35*
%TO.C,Q3*%
X148497650Y68837300D03*
X150397650Y68837300D03*
X149447650Y70712300D03*
%TD*%
D22*
%TO.C,R70*%
X145637650Y58979800D03*
X145637650Y60629800D03*
%TD*%
D36*
%TO.C,D6*%
X73871034Y16999492D03*
X73871034Y15124492D03*
%TD*%
D28*
%TO.C,TP71*%
X75226950Y91768800D03*
%TD*%
D31*
%TO.C,R60*%
X77084350Y77814400D03*
X75434350Y77814400D03*
%TD*%
D64*
%TO.C,J3*%
X110312850Y20200200D03*
X110312850Y19100200D03*
X110312850Y18000200D03*
X110312850Y16900200D03*
X110312850Y15800200D03*
X110312850Y14700200D03*
X110312850Y13600200D03*
D65*
X110312850Y12550200D03*
D66*
X104162850Y22835200D03*
X100462850Y22835200D03*
D67*
X110187850Y22660200D03*
D68*
X109962850Y11340200D03*
D69*
X99487850Y13365200D03*
X99487850Y19335200D03*
%TD*%
D70*
%TO.C,U8*%
X71987450Y35015000D03*
X71337450Y35015000D03*
X70687450Y35015000D03*
X70037450Y35015000D03*
X70037450Y36615000D03*
X70687450Y36615000D03*
X71337450Y36615000D03*
X71987450Y36615000D03*
%TD*%
D13*
%TO.C,R62*%
X84996950Y49800100D03*
X84996950Y51625100D03*
%TD*%
D10*
%TO.C,C49*%
X96833350Y68683400D03*
X96833350Y67133400D03*
%TD*%
%TO.C,C20*%
X83625350Y84050400D03*
X83625350Y82500400D03*
%TD*%
D13*
%TO.C,R84*%
X33674450Y66220700D03*
X33674450Y68045700D03*
%TD*%
D38*
%TO.C,C66*%
X79713750Y66729800D03*
X79713750Y68629800D03*
%TD*%
D28*
%TO.C,TP68*%
X67606950Y91768800D03*
%TD*%
D36*
%TO.C,D12*%
X88095034Y22739892D03*
X88095034Y20864892D03*
%TD*%
D71*
%TO.C,C31*%
X99500350Y68731400D03*
X99500350Y66831400D03*
%TD*%
D35*
%TO.C,Q4*%
X152053649Y68837300D03*
X153953649Y68837300D03*
X153003649Y70712300D03*
%TD*%
D36*
%TO.C,D1*%
X85351834Y17253492D03*
X85351834Y15378492D03*
%TD*%
D33*
%TO.C,R39*%
X82101350Y76226400D03*
X82101350Y74576400D03*
%TD*%
D72*
%TO.C,D14*%
X133434450Y33910000D03*
X132034450Y33910000D03*
%TD*%
D10*
%TO.C,C71*%
X96833350Y76430400D03*
X96833350Y74880400D03*
%TD*%
D22*
%TO.C,R26*%
X75740914Y21080838D03*
X75740914Y22730838D03*
%TD*%
D73*
%TO.C,L1*%
X144875250Y50724800D03*
X138475250Y50724800D03*
%TD*%
D14*
%TO.C,U21*%
X50489250Y82909600D03*
X51759250Y82909600D03*
X53029250Y82909600D03*
X54299250Y82909600D03*
X54299250Y87859600D03*
X53029250Y87859600D03*
X51759250Y87859600D03*
X50489250Y87859600D03*
%TD*%
D33*
%TO.C,R73*%
X127857650Y92697800D03*
X127857650Y91047800D03*
%TD*%
D10*
%TO.C,C26*%
X96833350Y84177400D03*
X96833350Y82627400D03*
%TD*%
D16*
%TO.C,R32*%
X92056850Y17044400D03*
X93706850Y17044400D03*
%TD*%
D44*
%TO.C,TP38*%
X99500350Y70575400D03*
%TD*%
D31*
%TO.C,R11*%
X83688350Y85815400D03*
X82038350Y85815400D03*
%TD*%
D33*
%TO.C,R15*%
X88705350Y76353400D03*
X88705350Y74703400D03*
%TD*%
D44*
%TO.C,TP13*%
X92921750Y86323400D03*
%TD*%
D16*
%TO.C,R33*%
X147708250Y46457600D03*
X149358250Y46457600D03*
%TD*%
D15*
%TO.C,R48*%
X72957350Y48069100D03*
X72957350Y46244100D03*
%TD*%
D13*
%TO.C,R13*%
X74938550Y49800100D03*
X74938550Y51625100D03*
%TD*%
D16*
%TO.C,R65*%
X47937050Y46000400D03*
X49587050Y46000400D03*
%TD*%
D33*
%TO.C,R6*%
X82101350Y84100400D03*
X82101350Y82450400D03*
%TD*%
D31*
%TO.C,R14*%
X90419350Y85815400D03*
X88769350Y85815400D03*
%TD*%
D74*
%TO.C,C74*%
X60437750Y66476600D03*
X62337750Y66476600D03*
%TD*%
D75*
%TO.C,U9*%
X93853850Y47035400D03*
X93853850Y47685400D03*
X93853850Y48335400D03*
X93853850Y48985400D03*
X93853850Y49635400D03*
X93853850Y50285400D03*
X93853850Y50935400D03*
X88128850Y50935400D03*
X88128850Y50285400D03*
X88128850Y49635400D03*
X88128850Y48985400D03*
X88128850Y48335400D03*
X88128850Y47685400D03*
X88128850Y47035400D03*
%TD*%
D38*
%TO.C,C65*%
X135071250Y38243200D03*
X135071250Y40143200D03*
%TD*%
D44*
%TO.C,TP17*%
X73058950Y78347800D03*
%TD*%
D76*
%TO.C,C40*%
X63530634Y13217192D03*
X62570634Y13217192D03*
%TD*%
D36*
%TO.C,D9*%
X73871034Y22841492D03*
X73871034Y20966492D03*
%TD*%
D28*
%TO.C,TP36*%
X110585650Y50775600D03*
%TD*%
D34*
%TO.C,R17*%
X127804950Y65507600D03*
X125979950Y65507600D03*
%TD*%
D28*
%TO.C,TP34*%
X82848850Y94311200D03*
%TD*%
D34*
%TO.C,R53*%
X95053450Y55487800D03*
X93228450Y55487800D03*
%TD*%
D46*
%TO.C,RN1*%
X9385850Y87543800D03*
D47*
X10185850Y87543800D03*
X10985850Y87543800D03*
D46*
X11785850Y87543800D03*
X11785850Y89343800D03*
D47*
X10985850Y89343800D03*
X10185850Y89343800D03*
D46*
X9385850Y89343800D03*
%TD*%
D38*
%TO.C,C18*%
X79815350Y82579400D03*
X79815350Y84479400D03*
%TD*%
D30*
%TO.C,Q10*%
X149388450Y48200000D03*
X149388450Y49150000D03*
X149388450Y50100000D03*
X147068450Y50100000D03*
X147068450Y49150000D03*
X147068450Y48200000D03*
%TD*%
D10*
%TO.C,C50*%
X90229350Y76303400D03*
X90229350Y74753400D03*
%TD*%
D38*
%TO.C,C68*%
X99627350Y74578400D03*
X99627350Y76478400D03*
%TD*%
D77*
%TO.C,JP23*%
X40847650Y44781200D03*
D78*
X42147650Y44781200D03*
%TD*%
D12*
%TO.C,D22*%
X21459350Y67793600D03*
X23334350Y67793600D03*
%TD*%
D38*
%TO.C,C70*%
X93023350Y74578400D03*
X93023350Y76478400D03*
%TD*%
D44*
%TO.C,TP12*%
X86292350Y86323400D03*
%TD*%
D79*
%TO.C,BT1*%
X137758850Y31350000D03*
D80*
X137758850Y28850000D03*
%TD*%
D44*
%TO.C,TP11*%
X79815350Y86323400D03*
%TD*%
D31*
%TO.C,R8*%
X103398750Y85917000D03*
X101748750Y85917000D03*
%TD*%
D81*
%TO.C,R1*%
X84743150Y26417000D03*
X81818150Y26417000D03*
%TD*%
D31*
%TO.C,R45*%
X103500350Y77941400D03*
X101850350Y77941400D03*
%TD*%
%TO.C,R75*%
X83637550Y70118200D03*
X81987550Y70118200D03*
%TD*%
D33*
%TO.C,R43*%
X101811750Y84354400D03*
X101811750Y82704400D03*
%TD*%
D82*
%TO.C,Y1*%
X36035627Y18194658D03*
X34479992Y16639023D03*
X35682073Y15436942D03*
X37237708Y16992577D03*
%TD*%
D38*
%TO.C,C56*%
X60598450Y57699600D03*
X60598450Y59599600D03*
%TD*%
D83*
%TO.C,U4*%
X142197250Y45035600D03*
X139897250Y45035600D03*
D84*
X139897250Y38735600D03*
D83*
X137597250Y45035600D03*
%TD*%
D25*
%TO.C,H1*%
X14882650Y40064800D03*
X15651495Y41920955D03*
X15651495Y38208645D03*
X17507650Y42689800D03*
D26*
X17507650Y40064800D03*
D25*
X17507650Y37439800D03*
X19363805Y41920955D03*
X19363805Y38208645D03*
X20132650Y40064800D03*
%TD*%
D85*
%TO.C,U3*%
X35231565Y24749996D03*
X35585118Y24396443D03*
X35938672Y24042889D03*
X36292225Y23689336D03*
X36645778Y23335783D03*
X36999332Y22982229D03*
X37352885Y22628676D03*
X37706439Y22275122D03*
X38059992Y21921569D03*
X38413545Y21568016D03*
X38767099Y21214462D03*
X39120652Y20860909D03*
X39474205Y20507355D03*
X39827759Y20153802D03*
X40181312Y19800249D03*
X40534866Y19446695D03*
X40888419Y19093142D03*
X41241972Y18739589D03*
X41595526Y18386035D03*
X41949079Y18032482D03*
X42302633Y17678928D03*
X42656186Y17325375D03*
X43009739Y16971822D03*
X43363293Y16618268D03*
X43716846Y16264715D03*
D86*
X46085654Y16264715D03*
X46439207Y16618268D03*
X46792761Y16971822D03*
X47146314Y17325375D03*
X47499867Y17678928D03*
X47853421Y18032482D03*
X48206974Y18386035D03*
X48560528Y18739589D03*
X48914081Y19093142D03*
X49267634Y19446695D03*
X49621188Y19800249D03*
X49974741Y20153802D03*
X50328295Y20507355D03*
X50681848Y20860909D03*
X51035401Y21214462D03*
X51388955Y21568016D03*
X51742508Y21921569D03*
X52096061Y22275122D03*
X52449615Y22628676D03*
X52803168Y22982229D03*
X53156722Y23335783D03*
X53510275Y23689336D03*
X53863828Y24042889D03*
X54217382Y24396443D03*
X54570935Y24749996D03*
D85*
X54570935Y27118804D03*
X54217382Y27472357D03*
X53863828Y27825911D03*
X53510275Y28179464D03*
X53156722Y28533017D03*
X52803168Y28886571D03*
X52449615Y29240124D03*
X52096061Y29593678D03*
X51742508Y29947231D03*
X51388955Y30300784D03*
X51035401Y30654338D03*
X50681848Y31007891D03*
X50328295Y31361445D03*
X49974741Y31714998D03*
X49621188Y32068551D03*
X49267634Y32422105D03*
X48914081Y32775658D03*
X48560528Y33129211D03*
X48206974Y33482765D03*
X47853421Y33836318D03*
X47499867Y34189872D03*
X47146314Y34543425D03*
X46792761Y34896978D03*
X46439207Y35250532D03*
X46085654Y35604085D03*
D86*
X43716846Y35604085D03*
X43363293Y35250532D03*
X43009739Y34896978D03*
X42656186Y34543425D03*
X42302633Y34189872D03*
X41949079Y33836318D03*
X41595526Y33482765D03*
X41241972Y33129211D03*
X40888419Y32775658D03*
X40534866Y32422105D03*
X40181312Y32068551D03*
X39827759Y31714998D03*
X39474205Y31361445D03*
X39120652Y31007891D03*
X38767099Y30654338D03*
X38413545Y30300784D03*
X38059992Y29947231D03*
X37706439Y29593678D03*
X37352885Y29240124D03*
X36999332Y28886571D03*
X36645778Y28533017D03*
X36292225Y28179464D03*
X35938672Y27825911D03*
X35585118Y27472357D03*
X35231565Y27118804D03*
%TD*%
D87*
%TO.C,C3*%
X38232401Y15303151D03*
X36888899Y13959649D03*
%TD*%
D28*
%TO.C,TP26*%
X70148850Y94311200D03*
%TD*%
D59*
%TO.C,C62*%
X150397650Y60072000D03*
X148497650Y60072000D03*
%TD*%
D88*
%TO.C,R115*%
X41548450Y49901300D03*
X41548450Y46976300D03*
%TD*%
D25*
%TO.C,H2*%
X145132650Y89564800D03*
X145901495Y91420955D03*
X145901495Y87708645D03*
X147757650Y92189800D03*
D26*
X147757650Y89564800D03*
D25*
X147757650Y86939800D03*
X149613805Y91420955D03*
X149613805Y87708645D03*
X150382650Y89564800D03*
%TD*%
D44*
%TO.C,TP19*%
X93023350Y78322400D03*
%TD*%
D23*
%TO.C,C28*%
X89605250Y29157600D03*
X89605250Y28197600D03*
%TD*%
D19*
%TO.C,D75*%
X14806563Y68583366D03*
X12931561Y68583366D03*
%TD*%
D89*
%TO.C,U19*%
X107436050Y61850000D03*
X107436050Y59310000D03*
X107436050Y56770000D03*
X107436050Y54230000D03*
X107436050Y51690000D03*
X107436050Y49150000D03*
X107436050Y46610000D03*
X107436050Y44070000D03*
X132836050Y61850000D03*
X132836050Y59310000D03*
X132836050Y56770000D03*
X132836050Y54230000D03*
X132836050Y51690000D03*
X132836050Y49150000D03*
X132836050Y46610000D03*
X132836050Y44070000D03*
%TD*%
D38*
%TO.C,C45*%
X86419350Y74578400D03*
X86419350Y76478400D03*
%TD*%
D43*
%TO.C,D24*%
X132124850Y28056800D03*
X132124850Y26656800D03*
%TD*%
D59*
%TO.C,C41*%
X65409250Y48438800D03*
X63509250Y48438800D03*
%TD*%
D15*
%TO.C,R69*%
X78900950Y48069100D03*
X78900950Y46244100D03*
%TD*%
D16*
%TO.C,R22*%
X126303950Y76973800D03*
X127953950Y76973800D03*
%TD*%
D77*
%TO.C,JP4*%
X134573650Y94666800D03*
D78*
X135873650Y94666800D03*
%TD*%
D15*
%TO.C,R16*%
X88298950Y68592300D03*
X88298950Y66767300D03*
%TD*%
D38*
%TO.C,C55*%
X60090450Y52822800D03*
X60090450Y54722800D03*
%TD*%
D22*
%TO.C,R122*%
X37636850Y48680600D03*
X37636850Y50330600D03*
%TD*%
D71*
%TO.C,C72*%
X143250050Y75039800D03*
X143250050Y73139800D03*
%TD*%
D36*
%TO.C,D10*%
X78493834Y22739892D03*
X78493834Y20864892D03*
%TD*%
D38*
%TO.C,C24*%
X92921750Y82579400D03*
X92921750Y84479400D03*
%TD*%
%TO.C,C54*%
X47136450Y57699600D03*
X47136450Y59599600D03*
%TD*%
%TO.C,C37*%
X73058950Y74451400D03*
X73058950Y76351400D03*
%TD*%
D41*
%TO.C,C10*%
X56142099Y25539351D03*
X57485601Y24195849D03*
%TD*%
D28*
%TO.C,TP22*%
X65068850Y94311200D03*
%TD*%
D90*
%TO.C,JP12*%
X94458150Y94489000D03*
X95758150Y94489000D03*
%TD*%
D35*
%TO.C,Q2*%
X141385650Y68837300D03*
X143285650Y68837300D03*
X142335650Y70712300D03*
%TD*%
D10*
%TO.C,C4*%
X76687350Y84177400D03*
X76687350Y82627400D03*
%TD*%
D33*
%TO.C,R54*%
X82050550Y68657200D03*
X82050550Y67007200D03*
%TD*%
D91*
%TO.C,F1*%
X52345350Y69744500D03*
X52345350Y65469500D03*
%TD*%
D33*
%TO.C,R79*%
X141383250Y74660301D03*
X141383250Y73010301D03*
%TD*%
D28*
%TO.C,TP35*%
X103854650Y43079400D03*
%TD*%
D59*
%TO.C,C73*%
X62337750Y68673800D03*
X60437750Y68673800D03*
%TD*%
D92*
%TO.C,D23*%
X128873650Y30365200D03*
X128873650Y31765200D03*
%TD*%
D90*
%TO.C,JP10*%
X90648150Y90856800D03*
X91948150Y90856800D03*
%TD*%
D23*
%TO.C,C43*%
X66098634Y15170392D03*
X66098634Y14210392D03*
%TD*%
D35*
%TO.C,U15*%
X62862634Y14768892D03*
X64762634Y14768892D03*
X63812634Y16643892D03*
%TD*%
D25*
%TO.C,H4*%
X14882650Y90064800D03*
X15651495Y91920955D03*
X15651495Y88208645D03*
X17507650Y92689800D03*
D26*
X17507650Y90064800D03*
D25*
X17507650Y87439800D03*
X19363805Y91920955D03*
X19363805Y88208645D03*
X20132650Y90064800D03*
%TD*%
D31*
%TO.C,R37*%
X96896350Y85815400D03*
X95246350Y85815400D03*
%TD*%
D35*
%TO.C,Q12*%
X145094050Y78184500D03*
X146994050Y78184500D03*
X146044050Y80059500D03*
%TD*%
D19*
%TO.C,D43*%
X14835251Y83744800D03*
X12960249Y83744800D03*
%TD*%
D10*
%TO.C,C69*%
X103437350Y76430400D03*
X103437350Y74880400D03*
%TD*%
D31*
%TO.C,R40*%
X90292350Y77814400D03*
X88642350Y77814400D03*
%TD*%
D38*
%TO.C,C59*%
X32099650Y21987200D03*
X32099650Y23887200D03*
%TD*%
D49*
%TO.C,RN5*%
X97566450Y20619600D03*
D50*
X97566450Y21419600D03*
X97566450Y22219600D03*
D49*
X97566450Y23019600D03*
X95766450Y23019600D03*
D50*
X95766450Y22219600D03*
X95766450Y21419600D03*
D49*
X95766450Y20619600D03*
%TD*%
D34*
%TO.C,R18*%
X91548250Y57519800D03*
X89723250Y57519800D03*
%TD*%
D38*
%TO.C,C30*%
X73084350Y66729800D03*
X73084350Y68629800D03*
%TD*%
D33*
%TO.C,R36*%
X75010950Y84227400D03*
X75010950Y82577400D03*
%TD*%
D93*
%TO.C,Q16*%
X91573250Y61370400D03*
X91573250Y63270400D03*
X89698250Y62320400D03*
%TD*%
D32*
%TO.C,R72*%
X41904050Y51751500D03*
X41904050Y54676500D03*
%TD*%
D15*
%TO.C,R7*%
X80932950Y48069100D03*
X80932950Y46244100D03*
%TD*%
D14*
%TO.C,U24*%
X50489250Y73257600D03*
X51759250Y73257600D03*
X53029250Y73257600D03*
X54299250Y73257600D03*
X54299250Y78207600D03*
X53029250Y78207600D03*
X51759250Y78207600D03*
X50489250Y78207600D03*
%TD*%
D22*
%TO.C,R68*%
X145637650Y55881000D03*
X145637650Y57531000D03*
%TD*%
D28*
%TO.C,TP32*%
X77768851Y94311200D03*
%TD*%
D44*
%TO.C,TP14*%
X79764550Y70575400D03*
%TD*%
D87*
%TO.C,C13*%
X39680201Y13804551D03*
X38336699Y12461049D03*
%TD*%
D44*
%TO.C,TP23*%
X73084350Y70575400D03*
%TD*%
%TO.C,TP25*%
X93023350Y70575400D03*
%TD*%
D38*
%TO.C,C53*%
X44748850Y51908400D03*
X44748850Y53808400D03*
%TD*%
D49*
%TO.C,RN4*%
X25510050Y70073401D03*
D50*
X25510050Y69273401D03*
X25510050Y68473401D03*
D49*
X25510050Y67673401D03*
X27310050Y67673401D03*
D50*
X27310050Y68473401D03*
X27310050Y69273401D03*
D49*
X27310050Y70073401D03*
%TD*%
D94*
%TO.C,U1*%
X36437850Y89127800D03*
X36437850Y88477800D03*
X36437850Y87827800D03*
X36437850Y87177800D03*
X36437850Y86527800D03*
X36437850Y85877800D03*
X36437850Y85227800D03*
X36437850Y84577800D03*
X36437850Y83927800D03*
X36437850Y83277800D03*
X36437850Y82627800D03*
X36437850Y81977800D03*
X36437850Y81327800D03*
X36437850Y80677800D03*
X36437850Y80027800D03*
X36437850Y79377800D03*
X45947850Y79377800D03*
X45947850Y80027800D03*
X45947850Y80677800D03*
X45947850Y81327800D03*
X45947850Y81977800D03*
X45947850Y82627800D03*
X45947850Y83277800D03*
X45947850Y83927800D03*
X45947850Y84577800D03*
X45947850Y85227800D03*
X45947850Y85877800D03*
X45947850Y86527800D03*
X45947850Y87177800D03*
X45947850Y87827800D03*
X45947850Y88477800D03*
X45947850Y89127800D03*
D95*
X41192850Y84252800D03*
%TD*%
D96*
%TO.C,U26*%
X73251350Y62193400D03*
X73251350Y60923400D03*
X73251350Y59653400D03*
X73251350Y58383400D03*
X73251350Y57113400D03*
X73251350Y55843400D03*
X73251350Y54573400D03*
X73251350Y53303400D03*
X78251350Y53303400D03*
X78251350Y54573400D03*
X78251350Y55843400D03*
X78251350Y57113400D03*
X78251350Y58383400D03*
X78251350Y59653400D03*
X78251350Y60923400D03*
X78251350Y62193400D03*
%TD*%
D33*
%TO.C,R3*%
X80340914Y16836192D03*
X80340914Y15186192D03*
%TD*%
D97*
%TO.C,JP8*%
X47339650Y53082400D03*
X47339650Y54382400D03*
X47339650Y55682400D03*
%TD*%
D71*
%TO.C,C19*%
X147364850Y75207400D03*
X147364850Y73307400D03*
%TD*%
D38*
%TO.C,C1*%
X93023350Y66704400D03*
X93023350Y68604400D03*
%TD*%
D31*
%TO.C,R38*%
X76750350Y85739200D03*
X75100350Y85739200D03*
%TD*%
D71*
%TO.C,C22*%
X151378050Y75258200D03*
X151378050Y73358200D03*
%TD*%
D98*
%TO.C,Y3*%
X34284050Y20459200D03*
X34284050Y21859200D03*
%TD*%
D19*
%TO.C,D71*%
X14806563Y72901365D03*
X12931561Y72901365D03*
%TD*%
D36*
%TO.C,D13*%
X88145834Y16948692D03*
X88145834Y15073692D03*
%TD*%
D33*
%TO.C,R41*%
X75497350Y76226400D03*
X75497350Y74576400D03*
%TD*%
D28*
%TO.C,TP74*%
X82846950Y91768800D03*
%TD*%
%TO.C,TP67*%
X65066950Y91768800D03*
%TD*%
D12*
%TO.C,D17*%
X21459350Y78614000D03*
X23334350Y78614000D03*
%TD*%
D74*
%TO.C,C5*%
X42884450Y11862800D03*
X44784450Y11862800D03*
%TD*%
D99*
%TO.C,C29*%
X88451350Y70206800D03*
X88451350Y71756800D03*
%TD*%
D18*
%TO.C,D66*%
X28035650Y94928600D03*
X28035650Y92428602D03*
%TD*%
D33*
%TO.C,R81*%
X149396850Y74816200D03*
X149396850Y73166200D03*
%TD*%
D59*
%TO.C,C17*%
X77118650Y32640000D03*
X75218650Y32640000D03*
%TD*%
D35*
%TO.C,Q18*%
X47862850Y47856900D03*
X49762850Y47856900D03*
X48812850Y49731900D03*
%TD*%
D31*
%TO.C,R19*%
X128045950Y74833800D03*
X126395950Y74833800D03*
%TD*%
D33*
%TO.C,R46*%
X101913350Y76480400D03*
X101913350Y74830400D03*
%TD*%
D13*
%TO.C,R10*%
X80932950Y49800100D03*
X80932950Y51625100D03*
%TD*%
D19*
%TO.C,D65*%
X14865252Y79426800D03*
X12990250Y79426800D03*
%TD*%
D35*
%TO.C,Q19*%
X101471350Y66970900D03*
X103371350Y66970900D03*
X102421350Y68845900D03*
%TD*%
D100*
%TO.C,U20*%
X69731450Y78174500D03*
X69081450Y78174500D03*
X68431450Y78174500D03*
X67781450Y78174500D03*
X67131450Y78174500D03*
X66481450Y78174500D03*
X65831450Y78174500D03*
X65181450Y78174500D03*
X65181450Y72449500D03*
X65831450Y72449500D03*
X66481450Y72449500D03*
X67131450Y72449500D03*
X67781450Y72449500D03*
X68431450Y72449500D03*
X69081450Y72449500D03*
X69731450Y72449500D03*
%TD*%
D32*
%TO.C,R117*%
X57398050Y52299600D03*
X57398050Y55224600D03*
%TD*%
D87*
%TO.C,C15*%
X48417801Y14947551D03*
X47074299Y13604049D03*
%TD*%
D31*
%TO.C,R76*%
X96896350Y77941400D03*
X95246350Y77941400D03*
%TD*%
D88*
%TO.C,R21*%
X123031650Y84343700D03*
X123031650Y81418700D03*
%TD*%
D18*
%TO.C,D47*%
X24073250Y94928600D03*
X24073250Y92428602D03*
%TD*%
D12*
%TO.C,D21*%
X21459350Y69978000D03*
X23334350Y69978000D03*
%TD*%
D31*
%TO.C,R34*%
X150323450Y78283800D03*
X148673450Y78283800D03*
%TD*%
D22*
%TO.C,R28*%
X90127750Y70156800D03*
X90127750Y71806800D03*
%TD*%
D12*
%TO.C,D20*%
X21459350Y72111600D03*
X23334350Y72111600D03*
%TD*%
D38*
%TO.C,C21*%
X86292350Y82579400D03*
X86292350Y84479400D03*
%TD*%
D71*
%TO.C,C57*%
X62681250Y59599600D03*
X62681250Y57699600D03*
%TD*%
D74*
%TO.C,C6*%
X42859050Y13945600D03*
X44759050Y13945600D03*
%TD*%
D94*
%TO.C,U13*%
X36234650Y73735400D03*
X36234650Y73085400D03*
X36234650Y72435400D03*
X36234650Y71785400D03*
X36234650Y71135400D03*
X36234650Y70485400D03*
X36234650Y69835400D03*
X36234650Y69185400D03*
X36234650Y68535400D03*
X36234650Y67885400D03*
X36234650Y67235400D03*
X36234650Y66585400D03*
X36234650Y65935400D03*
X36234650Y65285400D03*
X36234650Y64635400D03*
X36234650Y63985400D03*
X45744650Y63985400D03*
X45744650Y64635400D03*
X45744650Y65285400D03*
X45744650Y65935400D03*
X45744650Y66585400D03*
X45744650Y67235400D03*
X45744650Y67885400D03*
X45744650Y68535400D03*
X45744650Y69185400D03*
X45744650Y69835400D03*
X45744650Y70485400D03*
X45744650Y71135400D03*
X45744650Y71785400D03*
X45744650Y72435400D03*
X45744650Y73085400D03*
X45744650Y73735400D03*
D95*
X40989650Y68860400D03*
%TD*%
D59*
%TO.C,C64*%
X156696850Y46076600D03*
X154796850Y46076600D03*
%TD*%
D13*
%TO.C,R57*%
X82964950Y49800100D03*
X82964950Y51625100D03*
%TD*%
D101*
%TO.C,D11*%
X144994050Y82220800D03*
X147094050Y82220800D03*
%TD*%
D36*
%TO.C,D5*%
X83116634Y17253492D03*
X83116634Y15378492D03*
%TD*%
D102*
%TO.C,C48*%
X64958234Y13166392D03*
X65918234Y13166392D03*
%TD*%
D35*
%TO.C,Q8*%
X92160450Y19104100D03*
X94060450Y19104100D03*
X93110450Y20979100D03*
%TD*%
D28*
%TO.C,TP72*%
X77766950Y91768800D03*
%TD*%
D103*
%TO.C,C8*%
X47861699Y36921249D03*
X49205201Y38264751D03*
%TD*%
D90*
%TO.C,JP7*%
X88045450Y26315400D03*
X86745450Y26315400D03*
%TD*%
D104*
%TO.C,U14*%
X132190850Y29826100D03*
X133140850Y29826100D03*
X134090850Y29826100D03*
X134090850Y32101100D03*
X132190850Y32101100D03*
%TD*%
D13*
%TO.C,R83*%
X33776050Y80927300D03*
X33776050Y82752300D03*
%TD*%
D17*
%TO.C,D3*%
X127992950Y67384800D03*
X126592950Y67384800D03*
%TD*%
D31*
%TO.C,R78*%
X96896350Y70321400D03*
X95246350Y70321400D03*
%TD*%
D28*
%TO.C,TP31*%
X75228849Y94311199D03*
%TD*%
D105*
%TO.C,D26*%
X148279250Y56788800D03*
X148279250Y52788800D03*
%TD*%
D106*
%TO.C,U23*%
X107080450Y83490800D03*
D107*
X107080450Y80950800D03*
X107080450Y78410800D03*
X107080450Y75870800D03*
X107080450Y73330800D03*
X107080450Y70790800D03*
X107080450Y68250800D03*
X107080450Y65710800D03*
X119780450Y65710800D03*
X119780450Y68250800D03*
X119780450Y70790800D03*
X119780450Y73330800D03*
X119780450Y75870800D03*
X119780450Y78410800D03*
X119780450Y80950800D03*
X119780450Y83490800D03*
%TD*%
D31*
%TO.C,R23*%
X131153950Y76973800D03*
X129503950Y76973800D03*
%TD*%
D10*
%TO.C,C35*%
X103335750Y84304400D03*
X103335750Y82754400D03*
%TD*%
D108*
%TO.C,U12*%
X82154250Y32259000D03*
X82154250Y30989000D03*
X82154250Y29719000D03*
X82154250Y28449000D03*
X87404250Y28449000D03*
X87404250Y29719000D03*
X87404250Y30989000D03*
X87404250Y32259000D03*
%TD*%
D109*
%TO.C,R51*%
X93634850Y61736200D03*
X95459850Y61736200D03*
%TD*%
D34*
%TO.C,R49*%
X91548250Y59551800D03*
X89723250Y59551800D03*
%TD*%
D110*
%TO.C,D15*%
X68226267Y39427475D03*
X66458501Y37659709D03*
%TD*%
D111*
%TO.C,U25*%
X99231850Y58336000D03*
X100501850Y58336000D03*
X101771850Y58336000D03*
X103041850Y58336000D03*
X103041850Y63586000D03*
X101771850Y63586000D03*
X100501850Y63586000D03*
X99231850Y63586000D03*
%TD*%
D112*
%TO.C,FL1*%
X92148150Y93619000D03*
X90448150Y93619000D03*
X90448150Y92819000D03*
X92148150Y92819000D03*
%TD*%
D71*
%TO.C,C51*%
X155492850Y75156600D03*
X155492850Y73256600D03*
%TD*%
D12*
%TO.C,D77*%
X21459350Y82881200D03*
X23334350Y82881200D03*
%TD*%
D31*
%TO.C,R42*%
X83688350Y77687400D03*
X82038350Y77687400D03*
%TD*%
D59*
%TO.C,C2*%
X32359850Y20143200D03*
X30459850Y20143200D03*
%TD*%
D35*
%TO.C,Q1*%
X144941650Y68837299D03*
X146841650Y68837299D03*
X145891650Y70712299D03*
%TD*%
D28*
%TO.C,JP6*%
X57699250Y66397000D03*
X57699250Y68797000D03*
D113*
X57699250Y65597000D03*
D114*
X57699250Y69597000D03*
%TD*%
D75*
%TO.C,U10*%
X102693050Y47086200D03*
X102693050Y47736200D03*
X102693050Y48386200D03*
X102693050Y49036200D03*
X102693050Y49686200D03*
X102693050Y50336200D03*
X102693050Y50986200D03*
X96968050Y50986200D03*
X96968050Y50336200D03*
X96968050Y49686200D03*
X96968050Y49036200D03*
X96968050Y48386200D03*
X96968050Y47736200D03*
X96968050Y47086200D03*
%TD*%
D34*
%TO.C,R50*%
X91548250Y55487800D03*
X89723250Y55487800D03*
%TD*%
D100*
%TO.C,U22*%
X69680650Y88131300D03*
X69030650Y88131300D03*
X68380650Y88131300D03*
X67730650Y88131300D03*
X67080650Y88131300D03*
X66430650Y88131300D03*
X65780650Y88131300D03*
X65130650Y88131300D03*
X65130650Y82406300D03*
X65780650Y82406300D03*
X66430650Y82406300D03*
X67080650Y82406300D03*
X67730650Y82406300D03*
X68380650Y82406300D03*
X69030650Y82406300D03*
X69680650Y82406300D03*
%TD*%
D115*
%TO.C,R2*%
X34818287Y31751837D03*
X35985013Y32918563D03*
%TD*%
D13*
%TO.C,R55*%
X76919750Y49800100D03*
X76919750Y51625100D03*
%TD*%
D38*
%TO.C,C25*%
X86266950Y66729800D03*
X86266950Y68629800D03*
%TD*%
D12*
%TO.C,D18*%
X21459350Y76429600D03*
X23334350Y76429600D03*
%TD*%
D116*
%TO.C,SW1*%
X25647650Y40737600D03*
X31947650Y40737600D03*
X25647650Y36937600D03*
X31947650Y36937600D03*
%TD*%
D33*
%TO.C,R35*%
X143402450Y79540600D03*
X143402450Y77890600D03*
%TD*%
D44*
%TO.C,TP10*%
X73029750Y86323400D03*
%TD*%
D117*
%TO.C,J2*%
X26410050Y27788600D03*
D118*
X23870050Y27788600D03*
D117*
X21330050Y27788600D03*
X26410050Y24613600D03*
X21330050Y24613600D03*
D118*
X24886050Y22708600D03*
X22854050Y22708600D03*
D119*
X23235050Y26518600D03*
X24505050Y26518600D03*
X23235050Y25248600D03*
X24505050Y25248600D03*
X23235050Y23978600D03*
X24505050Y23978600D03*
%TD*%
D120*
%TO.C,C63*%
X141167250Y57575200D03*
X141167250Y62975200D03*
%TD*%
D28*
%TO.C,TP37*%
X113227250Y50724800D03*
%TD*%
D18*
%TO.C,D76*%
X38373450Y94951599D03*
X38373450Y92451601D03*
%TD*%
%TO.C,D68*%
X30016849Y94928599D03*
X30016849Y92428601D03*
%TD*%
D22*
%TO.C,R121*%
X36112850Y48680600D03*
X36112850Y50330600D03*
%TD*%
D32*
%TO.C,R116*%
X57448850Y56973200D03*
X57448850Y59898200D03*
%TD*%
D121*
%TO.C,U16*%
X152046050Y62383400D03*
X152046050Y63653400D03*
X152046050Y64923400D03*
X152046050Y66193400D03*
X146646050Y66193400D03*
X146646050Y64923400D03*
X146646050Y63653400D03*
X146646050Y62383400D03*
D122*
X149346050Y64288400D03*
%TD*%
D97*
%TO.C,JP9*%
X62386350Y53082400D03*
X62386350Y54382400D03*
X62386350Y55682400D03*
%TD*%
D44*
%TO.C,TP16*%
X99500350Y86323400D03*
%TD*%
D71*
%TO.C,C36*%
X137192950Y74176800D03*
X137192950Y72276800D03*
%TD*%
D38*
%TO.C,C9*%
X34182450Y38802000D03*
X34182450Y40702000D03*
%TD*%
D15*
%TO.C,R63*%
X84996950Y48069100D03*
X84996950Y46244100D03*
%TD*%
D88*
%TO.C,R120*%
X54197650Y59898200D03*
X54197650Y56973200D03*
%TD*%
D38*
%TO.C,C58*%
X30067650Y21987200D03*
X30067650Y23887200D03*
%TD*%
D18*
%TO.C,D70*%
X32201250Y94875399D03*
X32201250Y92375401D03*
%TD*%
D10*
%TO.C,C60*%
X134106050Y28081000D03*
X134106050Y26531000D03*
%TD*%
D123*
%TO.C,U7*%
X70003250Y30379400D03*
X70003250Y29109400D03*
X70003250Y27839400D03*
X70003250Y26569400D03*
X77203250Y26569400D03*
X77203250Y27839400D03*
X77203250Y29109400D03*
X77203250Y30379400D03*
%TD*%
D10*
%TO.C,C67*%
X83574550Y68607200D03*
X83574550Y67057200D03*
%TD*%
D35*
%TO.C,Q11*%
X148700850Y80267300D03*
X150600850Y80267300D03*
X149650850Y82142300D03*
%TD*%
D103*
%TO.C,C14*%
X45118499Y37530849D03*
X46462001Y38874351D03*
%TD*%
D124*
%TO.C,U2*%
X82293350Y62193400D03*
X82293350Y60923400D03*
X82293350Y59653400D03*
X82293350Y58383400D03*
X82293350Y57113400D03*
X82293350Y55843400D03*
X82293350Y54573400D03*
X82293350Y53303400D03*
X87243350Y53303400D03*
X87243350Y54573400D03*
X87243350Y55843400D03*
X87243350Y57113400D03*
X87243350Y58383400D03*
X87243350Y59653400D03*
X87243350Y60923400D03*
X87243350Y62193400D03*
%TD*%
D125*
%TO.C,U11*%
X64568201Y42204077D03*
X63896450Y41532326D03*
X63224699Y40860575D03*
X64833367Y39251907D03*
X65505118Y39923658D03*
X66176869Y40595409D03*
%TD*%
D41*
%TO.C,C7*%
X55786499Y22872351D03*
X57130001Y21528849D03*
%TD*%
D90*
%TO.C,JP11*%
X94458150Y91949000D03*
X95758150Y91949000D03*
%TD*%
D22*
%TO.C,R5*%
X85340914Y19055838D03*
X85340914Y20705838D03*
%TD*%
D38*
%TO.C,C32*%
X73029750Y82452400D03*
X73029750Y84352400D03*
%TD*%
D35*
%TO.C,Q15*%
X96619950Y53559700D03*
X98519950Y53559700D03*
X97569950Y55434700D03*
%TD*%
D44*
%TO.C,TP15*%
X99485850Y78258400D03*
%TD*%
D33*
%TO.C,R30*%
X90025434Y16886992D03*
X90025434Y15236992D03*
%TD*%
D14*
%TO.C,U30*%
X59125250Y73257600D03*
X60395250Y73257600D03*
X61665250Y73257600D03*
X62935250Y73257600D03*
X62935250Y78207600D03*
X61665250Y78207600D03*
X60395250Y78207600D03*
X59125250Y78207600D03*
%TD*%
D126*
%TO.C,JP24*%
X54146850Y53264500D03*
D127*
X54146850Y54564500D03*
%TD*%
D22*
%TO.C,R29*%
X90076234Y21028192D03*
X90076234Y22678192D03*
%TD*%
D19*
%TO.C,D69*%
X14806562Y75060365D03*
X12931560Y75060365D03*
%TD*%
D31*
%TO.C,R85*%
X103500350Y70702400D03*
X101850350Y70702400D03*
%TD*%
D10*
%TO.C,C44*%
X83625350Y76176400D03*
X83625350Y74626400D03*
%TD*%
D45*
%TO.C,H6*%
X136257650Y16164800D03*
%TD*%
G36*
X158913513Y19619485D02*
G01*
X158968410Y19613213D01*
X159009973Y19598597D01*
X159047037Y19575228D01*
X159078142Y19544027D01*
X159102960Y19504395D01*
X159116668Y19468360D01*
X159123126Y19430172D01*
X159124512Y19413664D01*
X159124512Y14660101D01*
X159105605Y14601910D01*
X159056105Y14565946D01*
X159022304Y14561153D01*
X158924512Y14564324D01*
X158924512Y14545782D01*
X158905605Y14487591D01*
X158856105Y14451627D01*
X158851135Y14450155D01*
X158476707Y14349828D01*
X157918876Y14160474D01*
X157918875Y14160473D01*
X157374603Y13935031D01*
X157374603Y13935032D01*
X156846242Y13674474D01*
X156846241Y13674474D01*
X156336070Y13379929D01*
X156336071Y13379930D01*
X155846247Y13052643D01*
X155378873Y12694017D01*
X155378873Y12694016D01*
X154935956Y12305590D01*
X154935955Y12305590D01*
X154519393Y11889031D01*
X154130959Y11446109D01*
X153772340Y10978747D01*
X153445052Y10488930D01*
X153445051Y10488929D01*
X153150489Y9978734D01*
X153150489Y9978735D01*
X152889942Y9450398D01*
X152889942Y9450397D01*
X152664498Y8906130D01*
X152664498Y8906131D01*
X152475137Y8348296D01*
X152322661Y7779247D01*
X152322661Y7779246D01*
X152292580Y7628027D01*
X152262683Y7574643D01*
X152207117Y7549028D01*
X152199239Y7548580D01*
X152198982Y7548326D01*
X152198551Y7447315D01*
X152179395Y7389205D01*
X152129742Y7353454D01*
X152099141Y7348739D01*
X146509838Y7371931D01*
X146487820Y7374504D01*
X146433995Y7387024D01*
X146394377Y7406306D01*
X146360237Y7433765D01*
X146332911Y7468324D01*
X146313407Y7509257D01*
X146303811Y7549346D01*
X146303278Y7570479D01*
X146320713Y7629128D01*
X146369290Y7666328D01*
X146402247Y7671975D01*
X146516654Y7671975D01*
X146649224Y8445301D01*
X146649915Y8448637D01*
X146874187Y9370642D01*
X146874912Y9373298D01*
X147123987Y10195244D01*
X147125160Y10198659D01*
X147374091Y10845882D01*
X147374984Y10848049D01*
X147649512Y11471976D01*
X147998837Y12195581D01*
X148000272Y12198330D01*
X148448345Y12994902D01*
X148450880Y12998940D01*
X149023859Y13821040D01*
X149025185Y13822854D01*
X149598160Y14570212D01*
X149601016Y14573611D01*
X150174512Y15196975D01*
X150872927Y15895391D01*
X150876242Y15898418D01*
X151623165Y16520854D01*
X151625932Y16522998D01*
X152249512Y16971975D01*
X152923177Y17421086D01*
X152925899Y17422776D01*
X153573516Y17796401D01*
X153575511Y17797492D01*
X154297840Y18171110D01*
X154301250Y18172713D01*
X155124512Y18521975D01*
X156122011Y18896036D01*
X156127100Y18897638D01*
X157097677Y19146505D01*
X157101371Y19147303D01*
X157949512Y19296975D01*
X158632704Y19388069D01*
X158632735Y19502204D01*
X158651658Y19560389D01*
X158701168Y19596340D01*
X158720803Y19600572D01*
X158891343Y19619520D01*
X158913513Y19619485D01*
G37*
G36*
X18440565Y7853068D02*
G01*
X18476529Y7803568D01*
X18480506Y7786055D01*
X18481690Y7777173D01*
X18493378Y7671976D01*
X18493379Y7671975D01*
X146516654Y7671975D01*
X146536837Y7789703D01*
X146565305Y7843862D01*
X146620170Y7870945D01*
X146634414Y7871975D01*
X152188358Y7871975D01*
X152210386Y7869493D01*
X152241106Y7862482D01*
X152293631Y7831101D01*
X152317679Y7774840D01*
X152316176Y7746650D01*
X152292580Y7628028D01*
X152262683Y7574644D01*
X152207118Y7549028D01*
X152199239Y7548580D01*
X152198982Y7548326D01*
X152197170Y7124286D01*
X152196746Y7118030D01*
X152130839Y6617409D01*
X152130839Y6617408D01*
X152092309Y6029544D01*
X152090000Y5735000D01*
X152090000Y3330222D01*
X152071093Y3272031D01*
X152061004Y3260218D01*
X150704782Y1903996D01*
X150650265Y1876219D01*
X150634778Y1875000D01*
X15265221Y1875000D01*
X15207030Y1893907D01*
X15195217Y1903996D01*
X13838996Y3260217D01*
X13811219Y3314734D01*
X13810000Y3330221D01*
X13810000Y5734999D01*
X13807641Y6029558D01*
X13769111Y6617404D01*
X13769111Y6617403D01*
X13692220Y7201456D01*
X13582379Y7753661D01*
X13589571Y7814422D01*
X13631103Y7859352D01*
X13679477Y7871975D01*
X18382374Y7871975D01*
X18440565Y7853068D01*
G37*
G36*
X6678610Y20127829D02*
G01*
X6704928Y20072593D01*
X6705769Y20059605D01*
X6705670Y19968779D01*
X7530016Y19827464D01*
X7533352Y19826773D01*
X8455357Y19602501D01*
X8458013Y19601776D01*
X9279960Y19352701D01*
X9283375Y19351528D01*
X9930597Y19102596D01*
X9932764Y19101703D01*
X10556691Y18827175D01*
X11280296Y18477849D01*
X11283045Y18476414D01*
X12079617Y18028341D01*
X12083655Y18025807D01*
X12905755Y17452828D01*
X12907569Y17451502D01*
X13654927Y16878527D01*
X13658326Y16875671D01*
X14281691Y16302175D01*
X14980107Y15603759D01*
X14983133Y15600444D01*
X15605568Y14853522D01*
X15607713Y14850755D01*
X16056691Y14227175D01*
X16505801Y13553510D01*
X16507491Y13550788D01*
X16881116Y12903171D01*
X16882207Y12901176D01*
X17255825Y12178847D01*
X17257428Y12175437D01*
X17606691Y11352175D01*
X17980752Y10354676D01*
X17982354Y10349586D01*
X18231220Y9379010D01*
X18232018Y9375316D01*
X18381691Y8527175D01*
X18481690Y7777175D01*
X18493378Y7671976D01*
X18493379Y7671975D01*
X18605677Y7671975D01*
X18663868Y7653068D01*
X18699832Y7603568D01*
X18704037Y7561738D01*
X18697930Y7508280D01*
X18683315Y7466718D01*
X18659946Y7429652D01*
X18628743Y7398545D01*
X18589112Y7373728D01*
X18553078Y7360020D01*
X18514886Y7353561D01*
X18498378Y7352175D01*
X13743487Y7352175D01*
X13685296Y7371082D01*
X13649332Y7420582D01*
X13646389Y7431861D01*
X13577291Y7779239D01*
X13424817Y8348281D01*
X13235456Y8906120D01*
X13235456Y8906119D01*
X13010014Y9450384D01*
X13010014Y9450385D01*
X12749463Y9978732D01*
X12749463Y9978731D01*
X12454905Y10488918D01*
X12454906Y10488917D01*
X12127617Y10978738D01*
X11769005Y11446092D01*
X11380574Y11889013D01*
X11380573Y11889013D01*
X10964014Y12305572D01*
X10964014Y12305573D01*
X10521092Y12694005D01*
X10053738Y13052617D01*
X9563907Y13379913D01*
X9053738Y13674458D01*
X8525386Y13935013D01*
X8525385Y13935013D01*
X7981120Y14160456D01*
X7981121Y14160456D01*
X7423282Y14349816D01*
X6854240Y14502291D01*
X6514341Y14569902D01*
X6460957Y14599799D01*
X6435341Y14655364D01*
X6434656Y14667411D01*
X6456646Y19966849D01*
X6459219Y19988867D01*
X6471739Y20042692D01*
X6491021Y20082310D01*
X6518480Y20116450D01*
X6553042Y20143777D01*
X6564187Y20149087D01*
X6624852Y20157047D01*
X6678610Y20127829D01*
G37*
G36*
X6759917Y107206093D02*
G01*
X6795881Y107156593D01*
X6800726Y107125892D01*
X6705670Y19968780D01*
X6823268Y19948620D01*
X6877428Y19920152D01*
X6904511Y19865288D01*
X6905541Y19850935D01*
X6899829Y14613747D01*
X6880858Y14555577D01*
X6831319Y14519667D01*
X6781515Y14516757D01*
X6276457Y14617220D01*
X5692406Y14694111D01*
X5692405Y14694111D01*
X5104559Y14732640D01*
X4810000Y14734999D01*
X2405221Y14734999D01*
X2347030Y14753906D01*
X2335217Y14763995D01*
X978995Y16120217D01*
X951218Y16174734D01*
X949999Y16190221D01*
X950000Y39625999D01*
X968907Y39684190D01*
X1018407Y39720154D01*
X1049000Y39724999D01*
X3250000Y39724999D01*
X3374073Y39727564D01*
X3374086Y39727566D01*
X3618850Y39768418D01*
X3853563Y39849002D01*
X4071806Y39967116D01*
X4267629Y40119537D01*
X4435706Y40302123D01*
X4571425Y40509863D01*
X4571430Y40509871D01*
X4671110Y40737126D01*
X4732029Y40977693D01*
X4752521Y41225000D01*
X4732029Y41472308D01*
X4671110Y41712875D01*
X4571430Y41940130D01*
X4571425Y41940138D01*
X4435706Y42147878D01*
X4267629Y42330464D01*
X4071806Y42482885D01*
X3853563Y42600999D01*
X3618850Y42681583D01*
X3374085Y42722435D01*
X3374072Y42722437D01*
X3250000Y42724999D01*
X1049000Y42724999D01*
X990809Y42743906D01*
X954845Y42793406D01*
X950000Y42823999D01*
X950000Y105769778D01*
X968907Y105827969D01*
X978996Y105839782D01*
X2335217Y107196004D01*
X2389734Y107223781D01*
X2405221Y107225000D01*
X6701726Y107225000D01*
X6759917Y107206093D01*
G37*
G36*
X163552969Y107206093D02*
G01*
X163564782Y107196004D01*
X164921004Y105839782D01*
X164948781Y105785265D01*
X164950000Y105769778D01*
X164950000Y42824000D01*
X164931093Y42765809D01*
X164881593Y42729845D01*
X164851000Y42725000D01*
X162650000Y42725000D01*
X162525901Y42722592D01*
X162525898Y42722591D01*
X162281086Y42681762D01*
X162281070Y42681758D01*
X162046322Y42601190D01*
X162046318Y42601188D01*
X161828022Y42483071D01*
X161632148Y42330633D01*
X161632147Y42330632D01*
X161464038Y42148035D01*
X161328275Y41940250D01*
X161228570Y41712962D01*
X161228569Y41712957D01*
X161167636Y41472359D01*
X161167635Y41472354D01*
X161147139Y41225000D01*
X161167635Y40977647D01*
X161167636Y40977642D01*
X161228569Y40737044D01*
X161228570Y40737039D01*
X161328275Y40509751D01*
X161464038Y40301966D01*
X161632147Y40119369D01*
X161632148Y40119368D01*
X161828022Y39966930D01*
X162046318Y39848813D01*
X162046322Y39848811D01*
X162281070Y39768243D01*
X162281086Y39768239D01*
X162525898Y39727410D01*
X162525901Y39727409D01*
X162650000Y39725000D01*
X164851000Y39725000D01*
X164909191Y39706093D01*
X164945155Y39656593D01*
X164950000Y39626000D01*
X164950000Y16190222D01*
X164931093Y16132031D01*
X164921004Y16120218D01*
X163564782Y14763996D01*
X163510265Y14736219D01*
X163494778Y14735000D01*
X161090000Y14735000D01*
X160795440Y14732642D01*
X160795439Y14732642D01*
X160207593Y14694116D01*
X160207594Y14694116D01*
X159623539Y14617227D01*
X159623540Y14617227D01*
X159308009Y14554467D01*
X159285487Y14552617D01*
X158924512Y14564324D01*
X158924512Y14545783D01*
X158905605Y14487592D01*
X158856105Y14451628D01*
X158851135Y14450156D01*
X158620862Y14388455D01*
X158570089Y14388330D01*
X158560666Y14390805D01*
X158521613Y14411198D01*
X158488259Y14439614D01*
X158461921Y14474931D01*
X158441534Y14521029D01*
X158433529Y14551599D01*
X158431615Y14571519D01*
X158431387Y14576271D01*
X158432673Y19274749D01*
X158451596Y19332935D01*
X158501106Y19368885D01*
X158518589Y19372854D01*
X158632704Y19388069D01*
X158656387Y105923829D01*
X158656387Y107126000D01*
X158675294Y107184191D01*
X158724794Y107220155D01*
X158755387Y107225000D01*
X163494778Y107225000D01*
X163552969Y107206093D01*
G37*
M02*
