%TF.GenerationSoftware,KiCad,Pcbnew,7.0.7-2.fc38*%
%TF.CreationDate,2023-10-14T02:21:00-03:00*%
%TF.ProjectId,OpenEFI_rev4,4f70656e-4546-4495-9f72-6576342e6b69,v3.0*%
%TF.SameCoordinates,Original*%
%TF.FileFunction,Soldermask,Top*%
%TF.FilePolarity,Negative*%
%FSLAX46Y46*%
G04 Gerber Fmt 4.6, Leading zero omitted, Abs format (unit mm)*
G04 Created by KiCad (PCBNEW 7.0.7-2.fc38) date 2023-10-14 02:21:00*
%MOMM*%
%LPD*%
G01*
G04 APERTURE LIST*
G04 Aperture macros list*
%AMRoundRect*
0 Rectangle with rounded corners*
0 $1 Rounding radius*
0 $2 $3 $4 $5 $6 $7 $8 $9 X,Y pos of 4 corners*
0 Add a 4 corners polygon primitive as box body*
4,1,4,$2,$3,$4,$5,$6,$7,$8,$9,$2,$3,0*
0 Add four circle primitives for the rounded corners*
1,1,$1+$1,$2,$3*
1,1,$1+$1,$4,$5*
1,1,$1+$1,$6,$7*
1,1,$1+$1,$8,$9*
0 Add four rect primitives between the rounded corners*
20,1,$1+$1,$2,$3,$4,$5,0*
20,1,$1+$1,$4,$5,$6,$7,0*
20,1,$1+$1,$6,$7,$8,$9,0*
20,1,$1+$1,$8,$9,$2,$3,0*%
%AMFreePoly0*
4,1,19,0.500000,-0.750000,0.000000,-0.750000,0.000000,-0.744911,-0.071157,-0.744911,-0.207708,-0.704816,-0.327430,-0.627875,-0.420627,-0.520320,-0.479746,-0.390866,-0.500000,-0.250000,-0.500000,0.250000,-0.479746,0.390866,-0.420627,0.520320,-0.327430,0.627875,-0.207708,0.704816,-0.071157,0.744911,0.000000,0.744911,0.000000,0.750000,0.500000,0.750000,0.500000,-0.750000,0.500000,-0.750000,
$1*%
%AMFreePoly1*
4,1,19,0.000000,0.744911,0.071157,0.744911,0.207708,0.704816,0.327430,0.627875,0.420627,0.520320,0.479746,0.390866,0.500000,0.250000,0.500000,-0.250000,0.479746,-0.390866,0.420627,-0.520320,0.327430,-0.627875,0.207708,-0.704816,0.071157,-0.744911,0.000000,-0.744911,0.000000,-0.750000,-0.500000,-0.750000,-0.500000,0.750000,0.000000,0.750000,0.000000,0.744911,0.000000,0.744911,
$1*%
%AMFreePoly2*
4,1,6,1.000000,0.000000,0.500000,-0.750000,-0.500000,-0.750000,-0.500000,0.750000,0.500000,0.750000,1.000000,0.000000,1.000000,0.000000,$1*%
G04 Aperture macros list end*
%ADD10RoundRect,0.225000X-0.225000X-0.250000X0.225000X-0.250000X0.225000X0.250000X-0.225000X0.250000X0*%
%ADD11RoundRect,0.250000X-1.500000X-0.550000X1.500000X-0.550000X1.500000X0.550000X-1.500000X0.550000X0*%
%ADD12RoundRect,0.250000X-0.312500X-1.075000X0.312500X-1.075000X0.312500X1.075000X-0.312500X1.075000X0*%
%ADD13RoundRect,0.250000X-0.262500X-0.450000X0.262500X-0.450000X0.262500X0.450000X-0.262500X0.450000X0*%
%ADD14RoundRect,0.150000X-0.825000X-0.150000X0.825000X-0.150000X0.825000X0.150000X-0.825000X0.150000X0*%
%ADD15RoundRect,0.200000X-0.200000X-0.275000X0.200000X-0.275000X0.200000X0.275000X-0.200000X0.275000X0*%
%ADD16R,0.600000X0.700000*%
%ADD17RoundRect,0.250000X-0.250000X0.250000X-0.250000X-0.250000X0.250000X-0.250000X0.250000X0.250000X0*%
%ADD18RoundRect,0.243750X-0.243750X-0.456250X0.243750X-0.456250X0.243750X0.456250X-0.243750X0.456250X0*%
%ADD19R,1.700000X1.700000*%
%ADD20O,1.700000X1.700000*%
%ADD21RoundRect,0.200000X0.275000X-0.200000X0.275000X0.200000X-0.275000X0.200000X-0.275000X-0.200000X0*%
%ADD22RoundRect,0.140000X-0.140000X-0.170000X0.140000X-0.170000X0.140000X0.170000X-0.140000X0.170000X0*%
%ADD23RoundRect,0.250000X-1.000000X-0.650000X1.000000X-0.650000X1.000000X0.650000X-1.000000X0.650000X0*%
%ADD24RoundRect,0.150000X-0.587500X-0.150000X0.587500X-0.150000X0.587500X0.150000X-0.587500X0.150000X0*%
%ADD25RoundRect,0.250000X-2.050000X-0.300000X2.050000X-0.300000X2.050000X0.300000X-2.050000X0.300000X0*%
%ADD26RoundRect,0.250002X-4.449998X-5.149998X4.449998X-5.149998X4.449998X5.149998X-4.449998X5.149998X0*%
%ADD27RoundRect,0.150000X0.150000X-0.587500X0.150000X0.587500X-0.150000X0.587500X-0.150000X-0.587500X0*%
%ADD28R,1.905000X2.000000*%
%ADD29O,1.905000X2.000000*%
%ADD30R,1.000000X1.000000*%
%ADD31RoundRect,0.250000X0.475000X-0.250000X0.475000X0.250000X-0.475000X0.250000X-0.475000X-0.250000X0*%
%ADD32RoundRect,0.250000X-0.250000X-0.475000X0.250000X-0.475000X0.250000X0.475000X-0.250000X0.475000X0*%
%ADD33RoundRect,0.250000X0.450000X-0.262500X0.450000X0.262500X-0.450000X0.262500X-0.450000X-0.262500X0*%
%ADD34RoundRect,0.218750X-0.256250X0.218750X-0.256250X-0.218750X0.256250X-0.218750X0.256250X0.218750X0*%
%ADD35FreePoly0,90.000000*%
%ADD36FreePoly1,90.000000*%
%ADD37R,0.500000X0.800000*%
%ADD38R,0.400000X0.800000*%
%ADD39R,1.600000X0.410000*%
%ADD40C,4.000000*%
%ADD41C,2.500000*%
%ADD42RoundRect,0.102000X0.975000X0.975000X-0.975000X0.975000X-0.975000X-0.975000X0.975000X-0.975000X0*%
%ADD43C,2.154000*%
%ADD44C,1.712000*%
%ADD45R,1.100000X1.100000*%
%ADD46C,1.100000*%
%ADD47O,1.100000X2.400000*%
%ADD48O,3.500000X2.200000*%
%ADD49R,2.500000X1.500000*%
%ADD50O,2.500000X1.500000*%
%ADD51R,2.440000X1.120000*%
%ADD52RoundRect,0.100000X-0.625000X-0.100000X0.625000X-0.100000X0.625000X0.100000X-0.625000X0.100000X0*%
%ADD53C,2.000000*%
%ADD54R,0.350000X0.500000*%
%ADD55R,0.400000X0.650000*%
%ADD56RoundRect,0.100000X-0.637500X-0.100000X0.637500X-0.100000X0.637500X0.100000X-0.637500X0.100000X0*%
%ADD57R,1.000000X1.500000*%
%ADD58FreePoly0,0.000000*%
%ADD59FreePoly1,0.000000*%
%ADD60R,3.000000X3.000000*%
%ADD61C,3.000000*%
%ADD62RoundRect,0.250000X-0.312500X-0.625000X0.312500X-0.625000X0.312500X0.625000X-0.312500X0.625000X0*%
%ADD63R,1.400000X1.200000*%
%ADD64RoundRect,0.075000X-0.725000X-0.075000X0.725000X-0.075000X0.725000X0.075000X-0.725000X0.075000X0*%
%ADD65RoundRect,0.075000X-0.075000X-0.725000X0.075000X-0.725000X0.075000X0.725000X-0.075000X0.725000X0*%
%ADD66C,1.524000*%
%ADD67RoundRect,0.225000X0.225000X0.250000X-0.225000X0.250000X-0.225000X-0.250000X0.225000X-0.250000X0*%
%ADD68RoundRect,0.250000X-0.312500X-1.450000X0.312500X-1.450000X0.312500X1.450000X-0.312500X1.450000X0*%
%ADD69RoundRect,0.102000X-0.800000X-0.240000X0.800000X-0.240000X0.800000X0.240000X-0.800000X0.240000X0*%
%ADD70RoundRect,0.102000X-2.300000X-2.300000X2.300000X-2.300000X2.300000X2.300000X-2.300000X2.300000X0*%
%ADD71RoundRect,0.150000X-0.850000X-0.150000X0.850000X-0.150000X0.850000X0.150000X-0.850000X0.150000X0*%
%ADD72RoundRect,0.200000X-0.275000X0.200000X-0.275000X-0.200000X0.275000X-0.200000X0.275000X0.200000X0*%
%ADD73RoundRect,0.150000X-0.200000X0.150000X-0.200000X-0.150000X0.200000X-0.150000X0.200000X0.150000X0*%
%ADD74RoundRect,0.200000X0.200000X0.275000X-0.200000X0.275000X-0.200000X-0.275000X0.200000X-0.275000X0*%
%ADD75RoundRect,0.250000X-0.250000X-0.250000X0.250000X-0.250000X0.250000X0.250000X-0.250000X0.250000X0*%
%ADD76RoundRect,0.112500X-0.187500X-0.112500X0.187500X-0.112500X0.187500X0.112500X-0.187500X0.112500X0*%
%ADD77R,1.200000X0.700000*%
%ADD78R,0.800000X1.000000*%
%ADD79R,1.200000X1.000000*%
%ADD80R,2.800000X1.000000*%
%ADD81R,1.900000X1.300000*%
%ADD82RoundRect,0.102000X-0.765000X-0.765000X0.765000X-0.765000X0.765000X0.765000X-0.765000X0.765000X0*%
%ADD83C,1.734000*%
%ADD84RoundRect,0.150000X-0.675000X-0.150000X0.675000X-0.150000X0.675000X0.150000X-0.675000X0.150000X0*%
%ADD85R,1.500000X1.500000*%
%ADD86FreePoly2,0.000000*%
%ADD87FreePoly2,180.000000*%
%ADD88R,1.700000X1.000000*%
%ADD89C,2.374900*%
%ADD90C,0.990600*%
%ADD91C,0.787400*%
%ADD92RoundRect,0.250000X-0.475000X0.250000X-0.475000X-0.250000X0.475000X-0.250000X0.475000X0.250000X0*%
%ADD93RoundRect,0.150000X-0.650000X-0.150000X0.650000X-0.150000X0.650000X0.150000X-0.650000X0.150000X0*%
%ADD94RoundRect,0.150000X-0.512500X-0.150000X0.512500X-0.150000X0.512500X0.150000X-0.512500X0.150000X0*%
G04 APERTURE END LIST*
D10*
%TO.C,C46*%
X189752000Y-145400750D03*
X191302000Y-145400750D03*
%TD*%
D11*
%TO.C,C42*%
X200270400Y-130614600D03*
X205670400Y-130614600D03*
%TD*%
D12*
%TO.C,R81*%
X187822100Y-73741200D03*
X190747100Y-73741200D03*
%TD*%
D13*
%TO.C,R67*%
X101600000Y-93570000D03*
X103425000Y-93570000D03*
%TD*%
D14*
%TO.C,U29*%
X165165000Y-71755000D03*
X165165000Y-73025000D03*
X165165000Y-74295000D03*
X165165000Y-75565000D03*
X170115000Y-75565000D03*
X170115000Y-74295000D03*
X170115000Y-73025000D03*
X170115000Y-71755000D03*
%TD*%
D13*
%TO.C,R61*%
X101600000Y-81770000D03*
X103425000Y-81770000D03*
%TD*%
D15*
%TO.C,R20*%
X309595800Y-88730800D03*
X311245800Y-88730800D03*
%TD*%
%TO.C,R12*%
X311840000Y-139760000D03*
X313490000Y-139760000D03*
%TD*%
%TO.C,R84*%
X191390000Y-69617600D03*
X193040000Y-69617600D03*
%TD*%
%TO.C,R56*%
X189702000Y-155440750D03*
X191352000Y-155440750D03*
%TD*%
D16*
%TO.C,D2*%
X229282800Y-80545700D03*
X230682800Y-80545700D03*
%TD*%
D17*
%TO.C,D64*%
X140396700Y-71317800D03*
X140396700Y-73817800D03*
%TD*%
D18*
%TO.C,D63*%
X128791200Y-78028800D03*
X130666200Y-78028800D03*
%TD*%
D19*
%TO.C,J4*%
X175135000Y-119800000D03*
D20*
X177675000Y-119800000D03*
X175135000Y-122340000D03*
X177675000Y-122340000D03*
X175135000Y-124880000D03*
X177675000Y-124880000D03*
X175135000Y-127420000D03*
X177675000Y-127420000D03*
X175135000Y-129960000D03*
X177675000Y-129960000D03*
X175135000Y-132500000D03*
X177675000Y-132500000D03*
X175135000Y-135040000D03*
X177675000Y-135040000D03*
X175135000Y-137580000D03*
X177675000Y-137580000D03*
%TD*%
D21*
%TO.C,R4*%
X147880000Y-128260000D03*
X147880000Y-126610000D03*
%TD*%
D18*
%TO.C,D73*%
X128821200Y-88823800D03*
X130696200Y-88823800D03*
%TD*%
D22*
%TO.C,C27*%
X201930000Y-109169200D03*
X202890000Y-109169200D03*
%TD*%
D15*
%TO.C,R37*%
X328550000Y-119470000D03*
X330200000Y-119470000D03*
%TD*%
D23*
%TO.C,D4*%
X300035800Y-95390800D03*
X304035800Y-95390800D03*
%TD*%
D15*
%TO.C,R8*%
X328550000Y-111940000D03*
X330200000Y-111940000D03*
%TD*%
D24*
%TO.C,Q14*%
X187237100Y-97067200D03*
X187237100Y-98967200D03*
X189112100Y-98017200D03*
%TD*%
D15*
%TO.C,R77*%
X336170000Y-152430000D03*
X337820000Y-152430000D03*
%TD*%
D12*
%TO.C,R71*%
X298947500Y-161595000D03*
X301872500Y-161595000D03*
%TD*%
D13*
%TO.C,R58*%
X170092500Y-131930000D03*
X171917500Y-131930000D03*
%TD*%
D15*
%TO.C,R50*%
X191799600Y-116027200D03*
X193449600Y-116027200D03*
%TD*%
D17*
%TO.C,D74*%
X130236700Y-71343200D03*
X130236700Y-73843200D03*
%TD*%
D13*
%TO.C,R52*%
X308055000Y-55470000D03*
X309880000Y-55470000D03*
%TD*%
D21*
%TO.C,R27*%
X152480000Y-122485000D03*
X152480000Y-120835000D03*
%TD*%
D15*
%TO.C,R6*%
X299190800Y-105183600D03*
X300840800Y-105183600D03*
%TD*%
D25*
%TO.C,U4*%
X301040800Y-76250800D03*
X301040800Y-78790800D03*
D26*
X310190800Y-78790800D03*
D25*
X301040800Y-81330800D03*
%TD*%
D15*
%TO.C,R52*%
X195809600Y-111007200D03*
X197459600Y-111007200D03*
%TD*%
D27*
%TO.C,Q5*%
X228782800Y-78435200D03*
X230682800Y-78435200D03*
X229732800Y-76560200D03*
%TD*%
D18*
%TO.C,D8*%
X287452500Y-159950000D03*
X289327500Y-159950000D03*
%TD*%
%TO.C,D7*%
X287452500Y-156910000D03*
X289327500Y-156910000D03*
%TD*%
%TO.C,D81*%
X137522500Y-84378800D03*
X139397500Y-84378800D03*
%TD*%
D13*
%TO.C,R47*%
X97190000Y-96520000D03*
X99015000Y-96520000D03*
%TD*%
D28*
%TO.C,Q7*%
X289650800Y-82500800D03*
D29*
X292190800Y-82500800D03*
X294730800Y-82500800D03*
%TD*%
D15*
%TO.C,R60*%
X328550000Y-127000000D03*
X330200000Y-127000000D03*
%TD*%
D13*
%TO.C,R44*%
X97190000Y-93570000D03*
X99015000Y-93570000D03*
%TD*%
D15*
%TO.C,R56*%
X336170000Y-144900000D03*
X337820000Y-144900000D03*
%TD*%
D30*
%TO.C,TP5*%
X202274600Y-73161200D03*
%TD*%
D31*
%TO.C,C16*%
X215392000Y-94798000D03*
X215392000Y-92898000D03*
%TD*%
D21*
%TO.C,R24*%
X155280000Y-124460000D03*
X155280000Y-122810000D03*
%TD*%
D15*
%TO.C,R74*%
X315850000Y-144780000D03*
X317500000Y-144780000D03*
%TD*%
D28*
%TO.C,Q6*%
X289650800Y-76540800D03*
D29*
X292190800Y-76540800D03*
X294730800Y-76540800D03*
%TD*%
D32*
%TO.C,C52*%
X198974600Y-79241200D03*
X200874600Y-79241200D03*
%TD*%
D30*
%TO.C,TP9*%
X196985400Y-120244600D03*
%TD*%
D15*
%TO.C,R59*%
X170180000Y-134440000D03*
X171830000Y-134440000D03*
%TD*%
D33*
%TO.C,R129*%
X238912400Y-125319800D03*
X238912400Y-123494800D03*
%TD*%
D15*
%TO.C,R53*%
X195809600Y-113517200D03*
X197459600Y-113517200D03*
%TD*%
D10*
%TO.C,C23*%
X295230800Y-107693600D03*
X296780800Y-107693600D03*
%TD*%
%TO.C,C33*%
X234707800Y-83747700D03*
X236257800Y-83747700D03*
%TD*%
D34*
%TO.C,D7*%
X155280000Y-126247500D03*
X155280000Y-127822500D03*
%TD*%
D35*
%TO.C,JP1*%
X230712000Y-103448000D03*
D36*
X230712000Y-102148000D03*
%TD*%
D30*
%TO.C,TP20*%
X184042300Y-77537600D03*
%TD*%
D34*
%TO.C,D1*%
X150680000Y-126647500D03*
X150680000Y-128222500D03*
%TD*%
D19*
%TO.C,J7*%
X291875800Y-129323600D03*
D20*
X291875800Y-131863600D03*
X291875800Y-134403600D03*
X291875800Y-136943600D03*
%TD*%
D12*
%TO.C,R113*%
X187822100Y-82161200D03*
X190747100Y-82161200D03*
%TD*%
D37*
%TO.C,RN2*%
X132706700Y-93776800D03*
D38*
X131906700Y-93776800D03*
X131106700Y-93776800D03*
D37*
X130306700Y-93776800D03*
X130306700Y-95576800D03*
D38*
X131106700Y-95576800D03*
X131906700Y-95576800D03*
D37*
X132706700Y-95576800D03*
%TD*%
D21*
%TO.C,R25*%
X143280000Y-122460000D03*
X143280000Y-120810000D03*
%TD*%
D30*
%TO.C,TP7*%
X205324600Y-73161200D03*
%TD*%
D13*
%TO.C,R70*%
X101600000Y-102420000D03*
X103425000Y-102420000D03*
%TD*%
D15*
%TO.C,R49*%
X191799600Y-113517200D03*
X193449600Y-113517200D03*
%TD*%
D18*
%TO.C,D83*%
X137522500Y-88696800D03*
X139397500Y-88696800D03*
%TD*%
D39*
%TO.C,U36*%
X215965700Y-188012500D03*
X215965700Y-188647500D03*
X215965700Y-189282500D03*
X215965700Y-189917500D03*
X215965700Y-190552500D03*
X215965700Y-191187500D03*
X215965700Y-191822500D03*
X215965700Y-192457500D03*
X221274300Y-192457500D03*
X221274300Y-191822500D03*
X221274300Y-191187500D03*
X221274300Y-190552500D03*
X221274300Y-189917500D03*
X221274300Y-189282500D03*
X221274300Y-188647500D03*
X221274300Y-188012500D03*
%TD*%
D13*
%TO.C,R66*%
X101600000Y-90620000D03*
X103425000Y-90620000D03*
%TD*%
D22*
%TO.C,C22*%
X199937000Y-151040750D03*
X200897000Y-151040750D03*
%TD*%
D30*
%TO.C,TP21*%
X310605800Y-111553600D03*
%TD*%
D37*
%TO.C,RN3*%
X145529000Y-93853000D03*
D38*
X144729000Y-93853000D03*
X143929000Y-93853000D03*
D37*
X143129000Y-93853000D03*
X143129000Y-95653000D03*
D38*
X143929000Y-95653000D03*
X144729000Y-95653000D03*
D37*
X145529000Y-95653000D03*
%TD*%
D21*
%TO.C,R64*%
X178785000Y-152965000D03*
X178785000Y-151315000D03*
%TD*%
D30*
%TO.C,TP30*%
X200035400Y-123294600D03*
%TD*%
D24*
%TO.C,Q9*%
X203461900Y-78151600D03*
X203461900Y-80051600D03*
X205336900Y-79101600D03*
%TD*%
D15*
%TO.C,R41*%
X303200800Y-112713600D03*
X304850800Y-112713600D03*
%TD*%
D17*
%TO.C,D72*%
X132268700Y-71343200D03*
X132268700Y-73843200D03*
%TD*%
D40*
%TO.C,J6*%
X262090800Y-50014400D03*
D41*
X260140800Y-57814400D03*
D40*
X188040800Y-49864400D03*
D41*
X138340800Y-57814400D03*
D40*
X136390800Y-50014400D03*
D42*
X255490800Y-55014400D03*
D43*
X249690800Y-55014400D03*
X252590800Y-57344400D03*
X255490800Y-63144400D03*
X249690800Y-63144400D03*
D44*
X196060800Y-63144400D03*
X198600800Y-63144400D03*
X201140800Y-63144400D03*
X203680800Y-63144400D03*
X206220800Y-63144400D03*
X208760800Y-63144400D03*
X211300800Y-63144400D03*
X213840800Y-63144400D03*
X216380800Y-63144400D03*
X218920800Y-63144400D03*
X221460800Y-63144400D03*
X224000800Y-63144400D03*
X226540800Y-63144400D03*
X229080800Y-63144400D03*
X231620800Y-63144400D03*
X234160800Y-63144400D03*
X236700800Y-63144400D03*
X239240800Y-63144400D03*
X241780800Y-63144400D03*
X196060800Y-60604400D03*
X198600800Y-60604400D03*
X201140800Y-60604400D03*
X203680800Y-60604400D03*
X206220800Y-60604400D03*
X208760800Y-60604400D03*
X211300800Y-60604400D03*
X213840800Y-60604400D03*
X216380800Y-60604400D03*
X218920800Y-60604400D03*
X221460800Y-60604400D03*
X224000800Y-60604400D03*
X226540800Y-60604400D03*
X229080800Y-60604400D03*
X231620800Y-60604400D03*
X234160800Y-60604400D03*
X236700800Y-60604400D03*
X239240800Y-60604400D03*
X241780800Y-60604400D03*
X196060800Y-54554400D03*
X198600800Y-54554400D03*
X201140800Y-54554400D03*
X203680800Y-54554400D03*
X206220800Y-54554400D03*
X208760800Y-54554400D03*
X211300800Y-54554400D03*
X213840800Y-54554400D03*
X216380800Y-54554400D03*
X218920800Y-54554400D03*
X221460800Y-54554400D03*
X224000800Y-54554400D03*
X226540800Y-54554400D03*
X229080800Y-54554400D03*
X231620800Y-54554400D03*
X234160800Y-54554400D03*
X236700800Y-54554400D03*
X239240800Y-54554400D03*
X241780800Y-54554400D03*
X196060800Y-52014400D03*
X198600800Y-52014400D03*
X201140800Y-52014400D03*
X203680800Y-52014400D03*
X206220800Y-52014400D03*
X208760800Y-52014400D03*
X211300800Y-52014400D03*
X213840800Y-52014400D03*
X216380800Y-52014400D03*
X218920800Y-52014400D03*
X221460800Y-52014400D03*
X224000800Y-52014400D03*
X226540800Y-52014400D03*
X229080800Y-52014400D03*
X231620800Y-52014400D03*
X234160800Y-52014400D03*
X236700800Y-52014400D03*
X239240800Y-52014400D03*
X241780800Y-52014400D03*
X180120800Y-52014400D03*
X177580800Y-52014400D03*
X175040800Y-52014400D03*
X172500800Y-52014400D03*
X169960800Y-52014400D03*
X167420800Y-52014400D03*
X164880800Y-52014400D03*
X162340800Y-52014400D03*
X180120800Y-54554400D03*
X177580800Y-54554400D03*
X175040800Y-54554400D03*
X172500800Y-54554400D03*
X169960800Y-54554400D03*
X167420800Y-54554400D03*
X164880800Y-54554400D03*
X162340800Y-54554400D03*
X180120800Y-60604400D03*
X177580800Y-60604400D03*
X175040800Y-60604400D03*
X172500800Y-60604400D03*
X169960800Y-60604400D03*
X167420800Y-60604400D03*
X164880800Y-60604400D03*
X162340800Y-60604400D03*
X180120800Y-63144400D03*
X177580800Y-63144400D03*
X175040800Y-63144400D03*
X172500800Y-63144400D03*
X169960800Y-63144400D03*
X167420800Y-63144400D03*
X164880800Y-63144400D03*
X162340800Y-63144400D03*
D43*
X154440800Y-55014400D03*
X148640800Y-55014400D03*
X142840800Y-55014400D03*
X151540800Y-57344400D03*
X145740800Y-57344400D03*
X154440800Y-63144400D03*
X148640800Y-63144400D03*
X142840800Y-63144400D03*
%TD*%
D45*
%TO.C,J1*%
X222961600Y-112928400D03*
D46*
X223761600Y-111178400D03*
X224561600Y-112928400D03*
X225361600Y-111178400D03*
X226161600Y-112928400D03*
D47*
X220911600Y-112053400D03*
X228211600Y-112053400D03*
%TD*%
D31*
%TO.C,C47*%
X178055000Y-140920000D03*
X178055000Y-139020000D03*
%TD*%
D27*
%TO.C,Q17*%
X165915000Y-140687500D03*
X167815000Y-140687500D03*
X166865000Y-138812500D03*
%TD*%
D48*
%TO.C,SW2*%
X168160000Y-152270000D03*
X168160000Y-144070000D03*
D49*
X168160000Y-150170000D03*
D50*
X168160000Y-148170000D03*
X168160000Y-146170000D03*
%TD*%
D34*
%TO.C,D6*%
X157480000Y-126247500D03*
X157480000Y-127822500D03*
%TD*%
D51*
%TO.C,SW4*%
X299625000Y-154050000D03*
X299625000Y-156590000D03*
X308235000Y-156590000D03*
X308235000Y-154050000D03*
%TD*%
D34*
%TO.C,D10*%
X150680000Y-120835000D03*
X150680000Y-122410000D03*
%TD*%
D15*
%TO.C,R31*%
X170180000Y-121890000D03*
X171830000Y-121890000D03*
%TD*%
%TO.C,R9*%
X311840000Y-137250000D03*
X313490000Y-137250000D03*
%TD*%
%TO.C,R46*%
X189702000Y-152930750D03*
X191352000Y-152930750D03*
%TD*%
D52*
%TO.C,U6*%
X233332800Y-78872700D03*
X233332800Y-79522700D03*
X233332800Y-80172700D03*
X233332800Y-80822700D03*
X233332800Y-81472700D03*
X233332800Y-82122700D03*
X237632800Y-82122700D03*
X237632800Y-81472700D03*
X237632800Y-80822700D03*
X237632800Y-80172700D03*
X237632800Y-79522700D03*
X237632800Y-78872700D03*
%TD*%
D18*
%TO.C,D67*%
X128821200Y-82346800D03*
X130696200Y-82346800D03*
%TD*%
D53*
%TO.C,TP1*%
X230962000Y-93948000D03*
%TD*%
D15*
%TO.C,R39*%
X303200800Y-107693600D03*
X304850800Y-107693600D03*
%TD*%
D18*
%TO.C,D6*%
X283002500Y-162990000D03*
X284877500Y-162990000D03*
%TD*%
D15*
%TO.C,R43*%
X303200800Y-117733600D03*
X304850800Y-117733600D03*
%TD*%
D54*
%TO.C,U8*%
X262362400Y-152425600D03*
X263012400Y-152425600D03*
X263662400Y-152425600D03*
X264312400Y-152425600D03*
X264312400Y-154025600D03*
X263662400Y-154025600D03*
X263012400Y-154025600D03*
X262362400Y-154025600D03*
%TD*%
D15*
%TO.C,R51*%
X195809600Y-108497200D03*
X197459600Y-108497200D03*
%TD*%
D13*
%TO.C,R62*%
X101600000Y-84720000D03*
X103425000Y-84720000D03*
%TD*%
D24*
%TO.C,Q13*%
X203461900Y-91501600D03*
X203461900Y-93401600D03*
X205336900Y-92451600D03*
%TD*%
D10*
%TO.C,C49*%
X189752000Y-147910750D03*
X191302000Y-147910750D03*
%TD*%
%TO.C,C20*%
X295230800Y-105183600D03*
X296780800Y-105183600D03*
%TD*%
D32*
%TO.C,C66*%
X275518800Y-131902000D03*
X277418800Y-131902000D03*
%TD*%
D18*
%TO.C,D12*%
X291902500Y-159950000D03*
X293777500Y-159950000D03*
%TD*%
D15*
%TO.C,R15*%
X311840000Y-142270000D03*
X313490000Y-142270000D03*
%TD*%
D18*
%TO.C,D1*%
X283002500Y-156910000D03*
X284877500Y-156910000D03*
%TD*%
D10*
%TO.C,C35*%
X295230800Y-112713600D03*
X296780800Y-112713600D03*
%TD*%
%TO.C,C71*%
X258083400Y-135330000D03*
X259633400Y-135330000D03*
%TD*%
D21*
%TO.C,R26*%
X147880000Y-122435000D03*
X147880000Y-120785000D03*
%TD*%
D14*
%TO.C,U21*%
X175034400Y-70713600D03*
X175034400Y-71983600D03*
X175034400Y-73253600D03*
X175034400Y-74523600D03*
X179984400Y-74523600D03*
X179984400Y-73253600D03*
X179984400Y-71983600D03*
X179984400Y-70713600D03*
%TD*%
D15*
%TO.C,R73*%
X298785000Y-174115000D03*
X300435000Y-174115000D03*
%TD*%
D34*
%TO.C,D12*%
X160180000Y-120897500D03*
X160180000Y-122472500D03*
%TD*%
D15*
%TO.C,R32*%
X170180000Y-124400000D03*
X171830000Y-124400000D03*
%TD*%
D28*
%TO.C,U5*%
X289650800Y-94420800D03*
D29*
X292190800Y-94420800D03*
X294730800Y-94420800D03*
%TD*%
D15*
%TO.C,R11*%
X328550000Y-114450000D03*
X330200000Y-114450000D03*
%TD*%
%TO.C,R33*%
X309595800Y-91240800D03*
X311245800Y-91240800D03*
%TD*%
D13*
%TO.C,R48*%
X97190000Y-99470000D03*
X99015000Y-99470000D03*
%TD*%
D34*
%TO.C,D8*%
X141480000Y-120847500D03*
X141480000Y-122422500D03*
%TD*%
D15*
%TO.C,R37*%
X303200800Y-105183600D03*
X304850800Y-105183600D03*
%TD*%
D13*
%TO.C,R13*%
X97190000Y-87670000D03*
X99015000Y-87670000D03*
%TD*%
D15*
%TO.C,R42*%
X328550000Y-124490000D03*
X330200000Y-124490000D03*
%TD*%
D21*
%TO.C,R65*%
X181295000Y-152965000D03*
X181295000Y-151315000D03*
%TD*%
D15*
%TO.C,R18*%
X309595800Y-86220800D03*
X311245800Y-86220800D03*
%TD*%
%TO.C,R6*%
X311840000Y-134740000D03*
X313490000Y-134740000D03*
%TD*%
D55*
%TO.C,Q1*%
X234594400Y-115234800D03*
X235244400Y-115234800D03*
X235894400Y-115234800D03*
X235894400Y-113334800D03*
X235244400Y-113334800D03*
X234594400Y-113334800D03*
%TD*%
D15*
%TO.C,R14*%
X328550000Y-116960000D03*
X330200000Y-116960000D03*
%TD*%
D32*
%TO.C,C74*%
X184060000Y-149380000D03*
X185960000Y-149380000D03*
%TD*%
%TO.C,C34*%
X290825800Y-114463600D03*
X292725800Y-114463600D03*
%TD*%
D56*
%TO.C,U9*%
X100955000Y-115310000D03*
X100955000Y-115960000D03*
X100955000Y-116610000D03*
X100955000Y-117260000D03*
X100955000Y-117910000D03*
X100955000Y-118560000D03*
X100955000Y-119210000D03*
X106680000Y-119210000D03*
X106680000Y-118560000D03*
X106680000Y-117910000D03*
X106680000Y-117260000D03*
X106680000Y-116610000D03*
X106680000Y-115960000D03*
X106680000Y-115310000D03*
%TD*%
D15*
%TO.C,R11*%
X299190800Y-112713600D03*
X300840800Y-112713600D03*
%TD*%
D22*
%TO.C,C40*%
X303905800Y-127983600D03*
X304865800Y-127983600D03*
%TD*%
D15*
%TO.C,R43*%
X315850000Y-137250000D03*
X317500000Y-137250000D03*
%TD*%
D18*
%TO.C,D9*%
X287452500Y-162990000D03*
X289327500Y-162990000D03*
%TD*%
D13*
%TO.C,R17*%
X298897500Y-171385000D03*
X300722500Y-171385000D03*
%TD*%
%TO.C,R53*%
X308055000Y-58420000D03*
X309880000Y-58420000D03*
%TD*%
D30*
%TO.C,TP17*%
X310605800Y-105453600D03*
%TD*%
D57*
%TO.C,JP5*%
X203085400Y-120494600D03*
X204385400Y-120494600D03*
X205685400Y-120494600D03*
%TD*%
D37*
%TO.C,RN1*%
X136516700Y-93776800D03*
D38*
X135716700Y-93776800D03*
X134916700Y-93776800D03*
D37*
X134116700Y-93776800D03*
X134116700Y-95576800D03*
D38*
X134916700Y-95576800D03*
X135716700Y-95576800D03*
D37*
X136516700Y-95576800D03*
%TD*%
D32*
%TO.C,C18*%
X290825800Y-105433600D03*
X292725800Y-105433600D03*
%TD*%
D28*
%TO.C,Q10*%
X289650800Y-88460800D03*
D29*
X292190800Y-88460800D03*
X294730800Y-88460800D03*
%TD*%
D32*
%TO.C,C68*%
X275518800Y-134912000D03*
X277418800Y-134912000D03*
%TD*%
D58*
%TO.C,JP23*%
X203674600Y-79511200D03*
D59*
X204974600Y-79511200D03*
%TD*%
D30*
%TO.C,TP16*%
X307555800Y-114603600D03*
%TD*%
D32*
%TO.C,C70*%
X275518800Y-137922000D03*
X277418800Y-137922000D03*
%TD*%
D30*
%TO.C,TP12*%
X307555800Y-108503600D03*
%TD*%
D60*
%TO.C,BT1*%
X271780000Y-113182400D03*
D61*
X251290000Y-113182400D03*
%TD*%
D18*
%TO.C,D78*%
X137545600Y-77901800D03*
X139420600Y-77901800D03*
%TD*%
D30*
%TO.C,TP11*%
X307555800Y-105453600D03*
%TD*%
D62*
%TO.C,R1*%
X208186900Y-96551600D03*
X211111900Y-96551600D03*
%TD*%
D15*
%TO.C,R45*%
X336170000Y-142390000D03*
X337820000Y-142390000D03*
%TD*%
%TO.C,R75*%
X336170000Y-147410000D03*
X337820000Y-147410000D03*
%TD*%
D30*
%TO.C,TP8*%
X205324600Y-76211200D03*
%TD*%
D63*
%TO.C,Y1*%
X174535000Y-133450000D03*
X176735000Y-133450000D03*
X176735000Y-131750000D03*
X174535000Y-131750000D03*
%TD*%
D32*
%TO.C,C56*%
X198974600Y-91281200D03*
X200874600Y-91281200D03*
%TD*%
D13*
%TO.C,R68*%
X101600000Y-96520000D03*
X103425000Y-96520000D03*
%TD*%
D64*
%TO.C,U3*%
X142185000Y-138780000D03*
X142185000Y-139280000D03*
X142185000Y-139780000D03*
X142185000Y-140280000D03*
X142185000Y-140780000D03*
X142185000Y-141280000D03*
X142185000Y-141780000D03*
X142185000Y-142280000D03*
X142185000Y-142780000D03*
X142185000Y-143280000D03*
X142185000Y-143780000D03*
X142185000Y-144280000D03*
X142185000Y-144780000D03*
X142185000Y-145280000D03*
X142185000Y-145780000D03*
X142185000Y-146280000D03*
X142185000Y-146780000D03*
X142185000Y-147280000D03*
X142185000Y-147780000D03*
X142185000Y-148280000D03*
X142185000Y-148780000D03*
X142185000Y-149280000D03*
X142185000Y-149780000D03*
X142185000Y-150280000D03*
X142185000Y-150780000D03*
D65*
X143860000Y-152455000D03*
X144360000Y-152455000D03*
X144860000Y-152455000D03*
X145360000Y-152455000D03*
X145860000Y-152455000D03*
X146360000Y-152455000D03*
X146860000Y-152455000D03*
X147360000Y-152455000D03*
X147860000Y-152455000D03*
X148360000Y-152455000D03*
X148860000Y-152455000D03*
X149360000Y-152455000D03*
X149860000Y-152455000D03*
X150360000Y-152455000D03*
X150860000Y-152455000D03*
X151360000Y-152455000D03*
X151860000Y-152455000D03*
X152360000Y-152455000D03*
X152860000Y-152455000D03*
X153360000Y-152455000D03*
X153860000Y-152455000D03*
X154360000Y-152455000D03*
X154860000Y-152455000D03*
X155360000Y-152455000D03*
X155860000Y-152455000D03*
D64*
X157535000Y-150780000D03*
X157535000Y-150280000D03*
X157535000Y-149780000D03*
X157535000Y-149280000D03*
X157535000Y-148780000D03*
X157535000Y-148280000D03*
X157535000Y-147780000D03*
X157535000Y-147280000D03*
X157535000Y-146780000D03*
X157535000Y-146280000D03*
X157535000Y-145780000D03*
X157535000Y-145280000D03*
X157535000Y-144780000D03*
X157535000Y-144280000D03*
X157535000Y-143780000D03*
X157535000Y-143280000D03*
X157535000Y-142780000D03*
X157535000Y-142280000D03*
X157535000Y-141780000D03*
X157535000Y-141280000D03*
X157535000Y-140780000D03*
X157535000Y-140280000D03*
X157535000Y-139780000D03*
X157535000Y-139280000D03*
X157535000Y-138780000D03*
D65*
X155860000Y-137105000D03*
X155360000Y-137105000D03*
X154860000Y-137105000D03*
X154360000Y-137105000D03*
X153860000Y-137105000D03*
X153360000Y-137105000D03*
X152860000Y-137105000D03*
X152360000Y-137105000D03*
X151860000Y-137105000D03*
X151360000Y-137105000D03*
X150860000Y-137105000D03*
X150360000Y-137105000D03*
X149860000Y-137105000D03*
X149360000Y-137105000D03*
X148860000Y-137105000D03*
X148360000Y-137105000D03*
X147860000Y-137105000D03*
X147360000Y-137105000D03*
X146860000Y-137105000D03*
X146360000Y-137105000D03*
X145860000Y-137105000D03*
X145360000Y-137105000D03*
X144860000Y-137105000D03*
X144360000Y-137105000D03*
X143860000Y-137105000D03*
%TD*%
D31*
%TO.C,C3*%
X215392000Y-103698000D03*
X215392000Y-101798000D03*
%TD*%
D53*
%TO.C,TP2*%
X235012000Y-93948000D03*
%TD*%
D12*
%TO.C,R115*%
X187822100Y-90581200D03*
X190747100Y-90581200D03*
%TD*%
D30*
%TO.C,TP19*%
X270408400Y-142240000D03*
%TD*%
D22*
%TO.C,C28*%
X202161200Y-113284000D03*
X203121200Y-113284000D03*
%TD*%
D18*
%TO.C,D75*%
X128821200Y-90982800D03*
X130696200Y-90982800D03*
%TD*%
D66*
%TO.C,U19*%
X271576800Y-72644000D03*
X269036800Y-72644000D03*
X266496800Y-72644000D03*
X263956800Y-72644000D03*
X261416800Y-72644000D03*
X258876800Y-72644000D03*
X256336800Y-72644000D03*
X253796800Y-72644000D03*
X271576800Y-98044000D03*
X269036800Y-98044000D03*
X266496800Y-98044000D03*
X263956800Y-98044000D03*
X261416800Y-98044000D03*
X258876800Y-98044000D03*
X256336800Y-98044000D03*
X253796800Y-98044000D03*
%TD*%
D31*
%TO.C,C41*%
X175045000Y-140920000D03*
X175045000Y-139020000D03*
%TD*%
D13*
%TO.C,R69*%
X101600000Y-99470000D03*
X103425000Y-99470000D03*
%TD*%
D15*
%TO.C,R22*%
X228993800Y-72607700D03*
X230643800Y-72607700D03*
%TD*%
D58*
%TO.C,JP4*%
X166390800Y-132181600D03*
D59*
X167690800Y-132181600D03*
%TD*%
D13*
%TO.C,R16*%
X97190000Y-90620000D03*
X99015000Y-90620000D03*
%TD*%
D32*
%TO.C,C55*%
X198974600Y-88271200D03*
X200874600Y-88271200D03*
%TD*%
D15*
%TO.C,R122*%
X203329600Y-88601200D03*
X204979600Y-88601200D03*
%TD*%
%TO.C,R14*%
X299190800Y-117733600D03*
X300840800Y-117733600D03*
%TD*%
D31*
%TO.C,C72*%
X234824400Y-123994800D03*
X234824400Y-122094800D03*
%TD*%
D18*
%TO.C,D10*%
X291902500Y-156910000D03*
X293777500Y-156910000D03*
%TD*%
D32*
%TO.C,C54*%
X198974600Y-85261200D03*
X200874600Y-85261200D03*
%TD*%
D31*
%TO.C,C10*%
X215392000Y-99248000D03*
X215392000Y-97348000D03*
%TD*%
D15*
%TO.C,R9*%
X299190800Y-110203600D03*
X300840800Y-110203600D03*
%TD*%
%TO.C,R8*%
X299190800Y-107693600D03*
X300840800Y-107693600D03*
%TD*%
D24*
%TO.C,Q2*%
X288352500Y-165785000D03*
X288352500Y-167685000D03*
X290227500Y-166735000D03*
%TD*%
D67*
%TO.C,C4*%
X220125400Y-136554600D03*
X218575400Y-136554600D03*
%TD*%
D15*
%TO.C,R54*%
X315850000Y-142270000D03*
X317500000Y-142270000D03*
%TD*%
D68*
%TO.C,F1*%
X235805800Y-132638800D03*
X240080800Y-132638800D03*
%TD*%
D34*
%TO.C,D5*%
X146080000Y-126647500D03*
X146080000Y-128222500D03*
%TD*%
D32*
%TO.C,C73*%
X184060000Y-146370000D03*
X185960000Y-146370000D03*
%TD*%
D30*
%TO.C,TP18*%
X310605800Y-108503600D03*
%TD*%
D22*
%TO.C,C43*%
X303905800Y-129953600D03*
X304865800Y-129953600D03*
%TD*%
D24*
%TO.C,U15*%
X291058300Y-140523600D03*
X291058300Y-142423600D03*
X292933300Y-141473600D03*
%TD*%
%TO.C,Q12*%
X203461900Y-87051600D03*
X203461900Y-88951600D03*
X205336900Y-88001600D03*
%TD*%
D18*
%TO.C,D43*%
X128821200Y-75869800D03*
X130696200Y-75869800D03*
%TD*%
D10*
%TO.C,C69*%
X258083400Y-132820000D03*
X259633400Y-132820000D03*
%TD*%
D13*
%TO.C,R18*%
X308055000Y-43670000D03*
X309880000Y-43670000D03*
%TD*%
D32*
%TO.C,C30*%
X193807000Y-149160750D03*
X195707000Y-149160750D03*
%TD*%
D15*
%TO.C,R36*%
X221725400Y-140554600D03*
X223375400Y-140554600D03*
%TD*%
D31*
%TO.C,C12*%
X221412000Y-99248000D03*
X221412000Y-97348000D03*
%TD*%
D15*
%TO.C,R40*%
X328550000Y-121980000D03*
X330200000Y-121980000D03*
%TD*%
D24*
%TO.C,Q16*%
X187237100Y-105967200D03*
X187237100Y-107867200D03*
X189112100Y-106917200D03*
%TD*%
D32*
%TO.C,C39*%
X290825800Y-120483600D03*
X292725800Y-120483600D03*
%TD*%
D12*
%TO.C,R72*%
X298947500Y-165805000D03*
X301872500Y-165805000D03*
%TD*%
D13*
%TO.C,R7*%
X97190000Y-81770000D03*
X99015000Y-81770000D03*
%TD*%
D14*
%TO.C,U24*%
X165128400Y-78282800D03*
X165128400Y-79552800D03*
X165128400Y-80822800D03*
X165128400Y-82092800D03*
X170078400Y-82092800D03*
X170078400Y-80822800D03*
X170078400Y-79552800D03*
X170078400Y-78282800D03*
%TD*%
D30*
%TO.C,TP14*%
X270408400Y-133090000D03*
%TD*%
D31*
%TO.C,C13*%
X224422000Y-99248000D03*
X224422000Y-97348000D03*
%TD*%
D30*
%TO.C,TP23*%
X184042300Y-80587600D03*
%TD*%
%TO.C,TP25*%
X184042300Y-83637600D03*
%TD*%
D32*
%TO.C,C53*%
X198974600Y-82251200D03*
X200874600Y-82251200D03*
%TD*%
D18*
%TO.C,D84*%
X137522500Y-90830400D03*
X139397500Y-90830400D03*
%TD*%
D37*
%TO.C,RN4*%
X141732000Y-93853000D03*
D38*
X140932000Y-93853000D03*
X140132000Y-93853000D03*
D37*
X139332000Y-93853000D03*
X139332000Y-95653000D03*
D38*
X140132000Y-95653000D03*
X140932000Y-95653000D03*
D37*
X141732000Y-95653000D03*
%TD*%
D12*
%TO.C,R112*%
X187822100Y-77951200D03*
X190747100Y-77951200D03*
%TD*%
D69*
%TO.C,U1*%
X149860000Y-73540000D03*
X149860000Y-74190000D03*
X149860000Y-74840000D03*
X149860000Y-75490000D03*
X149860000Y-76140000D03*
X149860000Y-76790000D03*
X149860000Y-77440000D03*
X149860000Y-78090000D03*
X149860000Y-78740000D03*
X149860000Y-79390000D03*
X149860000Y-80040000D03*
X149860000Y-80690000D03*
X149860000Y-81340000D03*
X149860000Y-81990000D03*
X149860000Y-82640000D03*
X149860000Y-83290000D03*
X159370000Y-83290000D03*
X159370000Y-82640000D03*
X159370000Y-81990000D03*
X159370000Y-81340000D03*
X159370000Y-80690000D03*
X159370000Y-80040000D03*
X159370000Y-79390000D03*
X159370000Y-78740000D03*
X159370000Y-78090000D03*
X159370000Y-77440000D03*
X159370000Y-76790000D03*
X159370000Y-76140000D03*
X159370000Y-75490000D03*
X159370000Y-74840000D03*
X159370000Y-74190000D03*
X159370000Y-73540000D03*
D70*
X154615000Y-78415000D03*
%TD*%
D15*
%TO.C,R77*%
X266053400Y-135330000D03*
X267703400Y-135330000D03*
%TD*%
D11*
%TO.C,C31*%
X300490800Y-89040800D03*
X305890800Y-89040800D03*
%TD*%
D15*
%TO.C,R79*%
X266053400Y-140350000D03*
X267703400Y-140350000D03*
%TD*%
D71*
%TO.C,U26*%
X178348000Y-94056200D03*
X178348000Y-95326200D03*
X178348000Y-96596200D03*
X178348000Y-97866200D03*
X178348000Y-99136200D03*
X178348000Y-100406200D03*
X178348000Y-101676200D03*
X178348000Y-102946200D03*
X183348000Y-102946200D03*
X183348000Y-101676200D03*
X183348000Y-100406200D03*
X183348000Y-99136200D03*
X183348000Y-97866200D03*
X183348000Y-96596200D03*
X183348000Y-95326200D03*
X183348000Y-94056200D03*
%TD*%
D72*
%TO.C,R3*%
X152480000Y-126610000D03*
X152480000Y-128260000D03*
%TD*%
D57*
%TO.C,JP8*%
X304740000Y-161265000D03*
X306040000Y-161265000D03*
X307340000Y-161265000D03*
%TD*%
D15*
%TO.C,R12*%
X299190800Y-115223600D03*
X300840800Y-115223600D03*
%TD*%
D34*
%TO.C,D13*%
X160180000Y-126647500D03*
X160180000Y-128222500D03*
%TD*%
D32*
%TO.C,C1*%
X193807000Y-143140750D03*
X195707000Y-143140750D03*
%TD*%
D15*
%TO.C,R40*%
X303200800Y-110203600D03*
X304850800Y-110203600D03*
%TD*%
%TO.C,R38*%
X221625400Y-136954600D03*
X223275400Y-136954600D03*
%TD*%
%TO.C,R45*%
X189702000Y-150420750D03*
X191352000Y-150420750D03*
%TD*%
%TO.C,R42*%
X303200800Y-115223600D03*
X304850800Y-115223600D03*
%TD*%
D18*
%TO.C,D71*%
X128821200Y-86664800D03*
X130696200Y-86664800D03*
%TD*%
%TO.C,D13*%
X291902500Y-162990000D03*
X293777500Y-162990000D03*
%TD*%
D34*
%TO.C,D9*%
X146080000Y-120860000D03*
X146080000Y-122435000D03*
%TD*%
D10*
%TO.C,C38*%
X295230800Y-115223600D03*
X296780800Y-115223600D03*
%TD*%
D73*
%TO.C,D14*%
X259689600Y-154562000D03*
X259689600Y-153162000D03*
%TD*%
D31*
%TO.C,C5*%
X218402000Y-103698000D03*
X218402000Y-101798000D03*
%TD*%
D10*
%TO.C,C29*%
X189752000Y-142890750D03*
X191302000Y-142890750D03*
%TD*%
D15*
%TO.C,R82*%
X266053400Y-142860000D03*
X267703400Y-142860000D03*
%TD*%
%TO.C,R54*%
X195809600Y-116027200D03*
X197459600Y-116027200D03*
%TD*%
D17*
%TO.C,D66*%
X138361100Y-71317800D03*
X138361100Y-73817800D03*
%TD*%
D10*
%TO.C,C50*%
X295230800Y-120243600D03*
X296780800Y-120243600D03*
%TD*%
D31*
%TO.C,C17*%
X218402000Y-94798000D03*
X218402000Y-92898000D03*
%TD*%
D27*
%TO.C,Q18*%
X170365000Y-140687500D03*
X172265000Y-140687500D03*
X171315000Y-138812500D03*
%TD*%
D74*
%TO.C,R19*%
X230735800Y-74747700D03*
X229085800Y-74747700D03*
%TD*%
D15*
%TO.C,R46*%
X315850000Y-139760000D03*
X317500000Y-139760000D03*
%TD*%
D13*
%TO.C,R10*%
X97190000Y-84720000D03*
X99015000Y-84720000D03*
%TD*%
D30*
%TO.C,TP29*%
X200035400Y-120244600D03*
%TD*%
D18*
%TO.C,D65*%
X128791200Y-80187800D03*
X130666200Y-80187800D03*
%TD*%
D56*
%TO.C,U20*%
X209565400Y-135229600D03*
X209565400Y-135879600D03*
X209565400Y-136529600D03*
X209565400Y-137179600D03*
X209565400Y-137829600D03*
X209565400Y-138479600D03*
X209565400Y-139129600D03*
X209565400Y-139779600D03*
X215290400Y-139779600D03*
X215290400Y-139129600D03*
X215290400Y-138479600D03*
X215290400Y-137829600D03*
X215290400Y-137179600D03*
X215290400Y-136529600D03*
X215290400Y-135879600D03*
X215290400Y-135229600D03*
%TD*%
D32*
%TO.C,C45*%
X290825800Y-123493600D03*
X292725800Y-123493600D03*
%TD*%
D12*
%TO.C,R117*%
X193432100Y-77951200D03*
X196357100Y-77951200D03*
%TD*%
D31*
%TO.C,C15*%
X212382000Y-94798000D03*
X212382000Y-92898000D03*
%TD*%
D15*
%TO.C,R76*%
X336170000Y-149920000D03*
X337820000Y-149920000D03*
%TD*%
D12*
%TO.C,R21*%
X309758300Y-94600800D03*
X312683300Y-94600800D03*
%TD*%
D75*
%TO.C,D47*%
X184455000Y-119740000D03*
X186955000Y-119740000D03*
%TD*%
D30*
%TO.C,TP28*%
X196985400Y-123294600D03*
%TD*%
D15*
%TO.C,R34*%
X170180000Y-126910000D03*
X171830000Y-126910000D03*
%TD*%
%TO.C,R28*%
X330200000Y-162560000D03*
X331850000Y-162560000D03*
%TD*%
%TO.C,R39*%
X311840000Y-144780000D03*
X313490000Y-144780000D03*
%TD*%
D32*
%TO.C,C21*%
X290825800Y-108443600D03*
X292725800Y-108443600D03*
%TD*%
D48*
%TO.C,SW3*%
X174605000Y-152270000D03*
X174605000Y-144070000D03*
D49*
X174605000Y-150170000D03*
D50*
X174605000Y-148170000D03*
X174605000Y-146170000D03*
%TD*%
D32*
%TO.C,C57*%
X203702100Y-92321200D03*
X205602100Y-92321200D03*
%TD*%
D31*
%TO.C,C6*%
X221412000Y-103698000D03*
X221412000Y-101798000D03*
%TD*%
D69*
%TO.C,U13*%
X152725000Y-89105000D03*
X152725000Y-89755000D03*
X152725000Y-90405000D03*
X152725000Y-91055000D03*
X152725000Y-91705000D03*
X152725000Y-92355000D03*
X152725000Y-93005000D03*
X152725000Y-93655000D03*
X152725000Y-94305000D03*
X152725000Y-94955000D03*
X152725000Y-95605000D03*
X152725000Y-96255000D03*
X152725000Y-96905000D03*
X152725000Y-97555000D03*
X152725000Y-98205000D03*
X152725000Y-98855000D03*
X162235000Y-98855000D03*
X162235000Y-98205000D03*
X162235000Y-97555000D03*
X162235000Y-96905000D03*
X162235000Y-96255000D03*
X162235000Y-95605000D03*
X162235000Y-94955000D03*
X162235000Y-94305000D03*
X162235000Y-93655000D03*
X162235000Y-93005000D03*
X162235000Y-92355000D03*
X162235000Y-91705000D03*
X162235000Y-91055000D03*
X162235000Y-90405000D03*
X162235000Y-89755000D03*
X162235000Y-89105000D03*
D70*
X157480000Y-93980000D03*
%TD*%
D13*
%TO.C,R57*%
X97190000Y-105370000D03*
X99015000Y-105370000D03*
%TD*%
D76*
%TO.C,D11*%
X208330400Y-120194600D03*
X210430400Y-120194600D03*
%TD*%
D77*
%TO.C,J8*%
X238679200Y-104290600D03*
X238679200Y-105390600D03*
X238679200Y-106490600D03*
X238679200Y-107590600D03*
X238679200Y-108690600D03*
X238679200Y-109790600D03*
X238679200Y-110890600D03*
X238679200Y-111990600D03*
X238679200Y-112940600D03*
D78*
X249179200Y-113890600D03*
D79*
X242979200Y-113890600D03*
D80*
X253329200Y-113890600D03*
D79*
X238679200Y-102740600D03*
D81*
X253779200Y-100390600D03*
%TD*%
D15*
%TO.C,R78*%
X266053400Y-137840000D03*
X267703400Y-137840000D03*
%TD*%
%TO.C,R41*%
X315850000Y-134740000D03*
X317500000Y-134740000D03*
%TD*%
D18*
%TO.C,D5*%
X283002500Y-159950000D03*
X284877500Y-159950000D03*
%TD*%
D22*
%TO.C,C48*%
X303905800Y-131923600D03*
X304865800Y-131923600D03*
%TD*%
D24*
%TO.C,Q8*%
X203461900Y-73701600D03*
X203461900Y-75601600D03*
X205336900Y-74651600D03*
%TD*%
D31*
%TO.C,C8*%
X227432000Y-103698000D03*
X227432000Y-101798000D03*
%TD*%
D32*
%TO.C,C37*%
X290825800Y-117473600D03*
X292725800Y-117473600D03*
%TD*%
D57*
%TO.C,JP7*%
X233410000Y-164765000D03*
X234710000Y-164765000D03*
%TD*%
D16*
%TO.C,D3*%
X230682800Y-83747700D03*
X229282800Y-83747700D03*
%TD*%
D15*
%TO.C,R78*%
X336170000Y-154940000D03*
X337820000Y-154940000D03*
%TD*%
D18*
%TO.C,D79*%
X137543300Y-80060800D03*
X139418300Y-80060800D03*
%TD*%
D82*
%TO.C,U23*%
X217145000Y-165035000D03*
D83*
X217145000Y-167575000D03*
X217145000Y-170115000D03*
X217145000Y-172655000D03*
X217145000Y-175195000D03*
X217145000Y-177735000D03*
X217145000Y-180275000D03*
X217145000Y-182815000D03*
X229845000Y-182815000D03*
X229845000Y-180275000D03*
X229845000Y-177735000D03*
X229845000Y-175195000D03*
X229845000Y-172655000D03*
X229845000Y-170115000D03*
X229845000Y-167575000D03*
X229845000Y-165035000D03*
%TD*%
D74*
%TO.C,R23*%
X233843800Y-72607700D03*
X232193800Y-72607700D03*
%TD*%
D84*
%TO.C,U12*%
X200582000Y-142955750D03*
X200582000Y-144225750D03*
X200582000Y-145495750D03*
X200582000Y-146765750D03*
X205832000Y-146765750D03*
X205832000Y-145495750D03*
X205832000Y-144225750D03*
X205832000Y-142955750D03*
%TD*%
D13*
%TO.C,R51*%
X308055000Y-52520000D03*
X309880000Y-52520000D03*
%TD*%
%TO.C,R49*%
X308055000Y-46620000D03*
X309880000Y-46620000D03*
%TD*%
D23*
%TO.C,D15*%
X281570000Y-153265000D03*
X285570000Y-153265000D03*
%TD*%
D84*
%TO.C,U25*%
X179476400Y-108508800D03*
X179476400Y-109778800D03*
X179476400Y-111048800D03*
X179476400Y-112318800D03*
X184726400Y-112318800D03*
X184726400Y-111048800D03*
X184726400Y-109778800D03*
X184726400Y-108508800D03*
%TD*%
D18*
%TO.C,D77*%
X137568700Y-75768200D03*
X139443700Y-75768200D03*
%TD*%
D12*
%TO.C,R119*%
X193432100Y-86371200D03*
X196357100Y-86371200D03*
%TD*%
D31*
%TO.C,C2*%
X212382000Y-103698000D03*
X212382000Y-101798000D03*
%TD*%
D85*
%TO.C,JP6*%
X211379100Y-113259200D03*
X213779100Y-113259200D03*
D86*
X210579100Y-113259200D03*
D87*
X214579100Y-113259200D03*
%TD*%
D56*
%TO.C,U10*%
X100955000Y-121860000D03*
X100955000Y-122510000D03*
X100955000Y-123160000D03*
X100955000Y-123810000D03*
X100955000Y-124460000D03*
X100955000Y-125110000D03*
X100955000Y-125760000D03*
X106680000Y-125760000D03*
X106680000Y-125110000D03*
X106680000Y-124460000D03*
X106680000Y-123810000D03*
X106680000Y-123160000D03*
X106680000Y-122510000D03*
X106680000Y-121860000D03*
%TD*%
D15*
%TO.C,R76*%
X266053400Y-132820000D03*
X267703400Y-132820000D03*
%TD*%
D13*
%TO.C,R50*%
X308055000Y-49570000D03*
X309880000Y-49570000D03*
%TD*%
D56*
%TO.C,U22*%
X209565400Y-141819600D03*
X209565400Y-142469600D03*
X209565400Y-143119600D03*
X209565400Y-143769600D03*
X209565400Y-144419600D03*
X209565400Y-145069600D03*
X209565400Y-145719600D03*
X209565400Y-146369600D03*
X215290400Y-146369600D03*
X215290400Y-145719600D03*
X215290400Y-145069600D03*
X215290400Y-144419600D03*
X215290400Y-143769600D03*
X215290400Y-143119600D03*
X215290400Y-142469600D03*
X215290400Y-141819600D03*
%TD*%
D30*
%TO.C,TP13*%
X307555800Y-111553600D03*
%TD*%
D12*
%TO.C,R114*%
X187822100Y-86371200D03*
X190747100Y-86371200D03*
%TD*%
D15*
%TO.C,R2*%
X170180000Y-119380000D03*
X171830000Y-119380000D03*
%TD*%
D13*
%TO.C,R55*%
X97190000Y-102420000D03*
X99015000Y-102420000D03*
%TD*%
D32*
%TO.C,C25*%
X193807000Y-146150750D03*
X195707000Y-146150750D03*
%TD*%
D15*
%TO.C,R15*%
X299190800Y-120243600D03*
X300840800Y-120243600D03*
%TD*%
D88*
%TO.C,SW1*%
X131470000Y-120020000D03*
X137770000Y-120020000D03*
X131470000Y-123820000D03*
X137770000Y-123820000D03*
%TD*%
D30*
%TO.C,TP6*%
X202274600Y-76211200D03*
%TD*%
D15*
%TO.C,R35*%
X170180000Y-129420000D03*
X171830000Y-129420000D03*
%TD*%
D30*
%TO.C,TP10*%
X223250400Y-134954600D03*
%TD*%
D89*
%TO.C,J2*%
X209079400Y-74661600D03*
D90*
X209079400Y-77201600D03*
D89*
X209079400Y-79741600D03*
X212254400Y-74661600D03*
X212254400Y-79741600D03*
D90*
X214159400Y-76185600D03*
X214159400Y-78217600D03*
D91*
X210349400Y-77836600D03*
X210349400Y-76566600D03*
X211619400Y-77836600D03*
X211619400Y-76566600D03*
X212889400Y-77836600D03*
X212889400Y-76566600D03*
%TD*%
D18*
%TO.C,D80*%
X137520200Y-82245200D03*
X139395200Y-82245200D03*
%TD*%
D15*
%TO.C,R60*%
X303200800Y-120243600D03*
X304850800Y-120243600D03*
%TD*%
D17*
%TO.C,D76*%
X128204700Y-71368600D03*
X128204700Y-73868600D03*
%TD*%
D13*
%TO.C,R83*%
X210366600Y-116789200D03*
X212191600Y-116789200D03*
%TD*%
D10*
%TO.C,C44*%
X295230800Y-117733600D03*
X296780800Y-117733600D03*
%TD*%
D17*
%TO.C,D68*%
X136332700Y-71317800D03*
X136332700Y-73817800D03*
%TD*%
D15*
%TO.C,R121*%
X203329600Y-86091200D03*
X204979600Y-86091200D03*
%TD*%
D12*
%TO.C,R116*%
X193432100Y-73741200D03*
X196357100Y-73741200D03*
%TD*%
D22*
%TO.C,C19*%
X199937000Y-149070750D03*
X200897000Y-149070750D03*
%TD*%
D57*
%TO.C,JP9*%
X304740000Y-165100000D03*
X306040000Y-165100000D03*
X307340000Y-165100000D03*
%TD*%
D30*
%TO.C,TP3*%
X199224600Y-73161200D03*
%TD*%
D35*
%TO.C,JP3*%
X237812000Y-103448000D03*
D36*
X237812000Y-102148000D03*
%TD*%
D92*
%TO.C,C36*%
X239882800Y-78897700D03*
X239882800Y-80797700D03*
%TD*%
D33*
%TO.C,R80*%
X234794400Y-119527300D03*
X234794400Y-117702300D03*
%TD*%
D30*
%TO.C,TP4*%
X199224600Y-76211200D03*
%TD*%
D31*
%TO.C,C9*%
X212382000Y-99248000D03*
X212382000Y-97348000D03*
%TD*%
D13*
%TO.C,R63*%
X101600000Y-87670000D03*
X103425000Y-87670000D03*
%TD*%
D12*
%TO.C,R120*%
X193432100Y-90581200D03*
X196357100Y-90581200D03*
%TD*%
D10*
%TO.C,C26*%
X295230800Y-110203600D03*
X296780800Y-110203600D03*
%TD*%
D17*
%TO.C,D70*%
X134300700Y-71343200D03*
X134300700Y-73843200D03*
%TD*%
D32*
%TO.C,C24*%
X290825800Y-111453600D03*
X292725800Y-111453600D03*
%TD*%
D35*
%TO.C,JP2*%
X234262000Y-103448000D03*
D36*
X234262000Y-102148000D03*
%TD*%
D93*
%TO.C,U7*%
X208419400Y-89586600D03*
X208419400Y-90856600D03*
X208419400Y-92126600D03*
X208419400Y-93396600D03*
X215619400Y-93396600D03*
X215619400Y-92126600D03*
X215619400Y-90856600D03*
X215619400Y-89586600D03*
%TD*%
D10*
%TO.C,C67*%
X254073400Y-142860000D03*
X255623400Y-142860000D03*
%TD*%
D24*
%TO.C,Q11*%
X203461900Y-82601600D03*
X203461900Y-84501600D03*
X205336900Y-83551600D03*
%TD*%
D18*
%TO.C,D82*%
X137522500Y-86512400D03*
X139397500Y-86512400D03*
%TD*%
D31*
%TO.C,C14*%
X227432000Y-99248000D03*
X227432000Y-97348000D03*
%TD*%
D14*
%TO.C,U2*%
X192369600Y-97072200D03*
X192369600Y-98342200D03*
X192369600Y-99612200D03*
X192369600Y-100882200D03*
X192369600Y-102152200D03*
X192369600Y-103422200D03*
X192369600Y-104692200D03*
X192369600Y-105962200D03*
X197319600Y-105962200D03*
X197319600Y-104692200D03*
X197319600Y-103422200D03*
X197319600Y-102152200D03*
X197319600Y-100882200D03*
X197319600Y-99612200D03*
X197319600Y-98342200D03*
X197319600Y-97072200D03*
%TD*%
D94*
%TO.C,U11*%
X283132500Y-165785000D03*
X283132500Y-166735000D03*
X283132500Y-167685000D03*
X285407500Y-167685000D03*
X285407500Y-166735000D03*
X285407500Y-165785000D03*
%TD*%
D31*
%TO.C,C7*%
X224422000Y-103698000D03*
X224422000Y-101798000D03*
%TD*%
D15*
%TO.C,R17*%
X228907800Y-82069700D03*
X230557800Y-82069700D03*
%TD*%
D21*
%TO.C,R5*%
X157480000Y-124460000D03*
X157480000Y-122810000D03*
%TD*%
D32*
%TO.C,C32*%
X221800400Y-138754600D03*
X223700400Y-138754600D03*
%TD*%
D24*
%TO.C,Q15*%
X187237100Y-101517200D03*
X187237100Y-103417200D03*
X189112100Y-102467200D03*
%TD*%
D30*
%TO.C,TP15*%
X270408400Y-136140000D03*
%TD*%
D72*
%TO.C,R30*%
X161930000Y-126610000D03*
X161930000Y-128260000D03*
%TD*%
D14*
%TO.C,U30*%
X175477400Y-78206600D03*
X175477400Y-79476600D03*
X175477400Y-80746600D03*
X175477400Y-82016600D03*
X180427400Y-82016600D03*
X180427400Y-80746600D03*
X180427400Y-79476600D03*
X180427400Y-78206600D03*
%TD*%
D58*
%TO.C,JP24*%
X203674600Y-83061200D03*
D59*
X204974600Y-83061200D03*
%TD*%
D21*
%TO.C,R29*%
X161930000Y-122510000D03*
X161930000Y-120860000D03*
%TD*%
D18*
%TO.C,D69*%
X128821200Y-84505800D03*
X130696200Y-84505800D03*
%TD*%
D31*
%TO.C,C11*%
X218402000Y-99248000D03*
X218402000Y-97348000D03*
%TD*%
D12*
%TO.C,R118*%
X193432100Y-82161200D03*
X196357100Y-82161200D03*
%TD*%
M02*
