%TF.GenerationSoftware,KiCad,Pcbnew,7.99.0-1.20231110gitd41f4ec.fc38*%
%TF.CreationDate,2023-11-11T23:50:43-03:00*%
%TF.ProjectId,OpenEFI_rev4,4f70656e-4546-4495-9f72-6576342e6b69,v4*%
%TF.SameCoordinates,Original*%
%TF.FileFunction,Soldermask,Bot*%
%TF.FilePolarity,Negative*%
%FSLAX46Y46*%
G04 Gerber Fmt 4.6, Leading zero omitted, Abs format (unit mm)*
G04 Created by KiCad (PCBNEW 7.99.0-1.20231110gitd41f4ec.fc38) date 2023-11-11 23:50:43*
%MOMM*%
%LPD*%
G01*
G04 APERTURE LIST*
G04 Aperture macros list*
%AMRoundRect*
0 Rectangle with rounded corners*
0 $1 Rounding radius*
0 $2 $3 $4 $5 $6 $7 $8 $9 X,Y pos of 4 corners*
0 Add a 4 corners polygon primitive as box body*
4,1,4,$2,$3,$4,$5,$6,$7,$8,$9,$2,$3,0*
0 Add four circle primitives for the rounded corners*
1,1,$1+$1,$2,$3*
1,1,$1+$1,$4,$5*
1,1,$1+$1,$6,$7*
1,1,$1+$1,$8,$9*
0 Add four rect primitives between the rounded corners*
20,1,$1+$1,$2,$3,$4,$5,0*
20,1,$1+$1,$4,$5,$6,$7,0*
20,1,$1+$1,$6,$7,$8,$9,0*
20,1,$1+$1,$8,$9,$2,$3,0*%
%AMHorizOval*
0 Thick line with rounded ends*
0 $1 width*
0 $2 $3 position (X,Y) of the first rounded end (center of the circle)*
0 $4 $5 position (X,Y) of the second rounded end (center of the circle)*
0 Add line between two ends*
20,1,$1,$2,$3,$4,$5,0*
0 Add two circle primitives to create the rounded ends*
1,1,$1,$2,$3*
1,1,$1,$4,$5*%
%AMRotRect*
0 Rectangle, with rotation*
0 The origin of the aperture is its center*
0 $1 length*
0 $2 width*
0 $3 Rotation angle, in degrees counterclockwise*
0 Add horizontal line*
21,1,$1,$2,0,0,$3*%
%AMFreePoly0*
4,1,19,0.500000,-0.750000,0.000000,-0.750000,0.000000,-0.744911,-0.071157,-0.744911,-0.207708,-0.704816,-0.327430,-0.627875,-0.420627,-0.520320,-0.479746,-0.390866,-0.500000,-0.250000,-0.500000,0.250000,-0.479746,0.390866,-0.420627,0.520320,-0.327430,0.627875,-0.207708,0.704816,-0.071157,0.744911,0.000000,0.744911,0.000000,0.750000,0.500000,0.750000,0.500000,-0.750000,0.500000,-0.750000,
$1*%
%AMFreePoly1*
4,1,19,0.000000,0.744911,0.071157,0.744911,0.207708,0.704816,0.327430,0.627875,0.420627,0.520320,0.479746,0.390866,0.500000,0.250000,0.500000,-0.250000,0.479746,-0.390866,0.420627,-0.520320,0.327430,-0.627875,0.207708,-0.704816,0.071157,-0.744911,0.000000,-0.744911,0.000000,-0.750000,-0.500000,-0.750000,-0.500000,0.750000,0.000000,0.750000,0.000000,0.744911,0.000000,0.744911,
$1*%
G04 Aperture macros list end*
%ADD10R,1.700000X1.700000*%
%ADD11O,1.700000X1.700000*%
%ADD12C,0.800000*%
%ADD13C,7.000000*%
%ADD14R,1.500000X1.500000*%
%ADD15R,1.000000X1.000000*%
%ADD16C,2.100000*%
%ADD17C,4.000000*%
%ADD18C,2.500000*%
%ADD19RoundRect,0.102000X0.975000X0.975000X-0.975000X0.975000X-0.975000X-0.975000X0.975000X-0.975000X0*%
%ADD20C,2.154000*%
%ADD21C,1.712000*%
%ADD22RotRect,1.100000X1.100000X315.000000*%
%ADD23C,1.100000*%
%ADD24HorizOval,1.100000X-0.459619X-0.459619X0.459619X0.459619X0*%
%ADD25RoundRect,0.250000X-0.750000X0.600000X-0.750000X-0.600000X0.750000X-0.600000X0.750000X0.600000X0*%
%ADD26O,2.000000X1.700000*%
%ADD27C,1.524000*%
%ADD28RoundRect,0.102000X-0.765000X-0.765000X0.765000X-0.765000X0.765000X0.765000X-0.765000X0.765000X0*%
%ADD29C,1.734000*%
%ADD30C,2.374900*%
%ADD31C,0.990600*%
%ADD32FreePoly0,180.000000*%
%ADD33FreePoly1,180.000000*%
%ADD34C,2.000000*%
%ADD35R,1.000000X1.500000*%
G04 APERTURE END LIST*
D10*
%TO.C,J4*%
X16499050Y64679800D03*
D11*
X19039050Y64679800D03*
X16499050Y62139800D03*
X19039050Y62139800D03*
X16499050Y59599800D03*
X19039050Y59599800D03*
X16499050Y57059800D03*
X19039050Y57059800D03*
X16499050Y54519800D03*
X19039050Y54519800D03*
X16499050Y51979800D03*
X19039050Y51979800D03*
X16499050Y49439800D03*
X19039050Y49439800D03*
X16499050Y46899800D03*
X19039050Y46899800D03*
%TD*%
D12*
%TO.C,H3*%
X145132650Y39564800D03*
X145901495Y41420955D03*
X145901495Y37708645D03*
X147757650Y42189800D03*
D13*
X147757650Y39564800D03*
D12*
X147757650Y36939800D03*
X149613805Y41420955D03*
X149613805Y37708645D03*
X150382650Y39564800D03*
%TD*%
D14*
%TO.C,TP33*%
X80308850Y94311200D03*
%TD*%
%TO.C,TP27*%
X72688850Y94311200D03*
%TD*%
%TO.C,TP69*%
X70146950Y91768800D03*
%TD*%
%TO.C,TP73*%
X80306950Y91768800D03*
%TD*%
D15*
%TO.C,TP20*%
X86419350Y70626200D03*
%TD*%
D14*
%TO.C,TP24*%
X67608850Y94311200D03*
%TD*%
D16*
%TO.C,H5*%
X28257650Y16164800D03*
%TD*%
D15*
%TO.C,TP18*%
X79815350Y78322400D03*
%TD*%
D17*
%TO.C,J6*%
X145801750Y114398400D03*
D18*
X143851750Y106598400D03*
D17*
X71751750Y114548400D03*
D18*
X22051750Y106598400D03*
D17*
X20101750Y114398400D03*
D19*
X139201750Y109398400D03*
D20*
X133401750Y109398400D03*
X136301750Y107068400D03*
X139201750Y101268400D03*
X133401750Y101268400D03*
D21*
X79771750Y101268400D03*
X82311750Y101268400D03*
X84851750Y101268400D03*
X87391750Y101268400D03*
X89931750Y101268400D03*
X92471750Y101268400D03*
X95011750Y101268400D03*
X97551750Y101268400D03*
X100091750Y101268400D03*
X102631750Y101268400D03*
X105171750Y101268400D03*
X107711750Y101268400D03*
X110251750Y101268400D03*
X112791750Y101268400D03*
X115331750Y101268400D03*
X117871750Y101268400D03*
X120411750Y101268400D03*
X122951750Y101268400D03*
X125491750Y101268400D03*
X79771750Y103808400D03*
X82311750Y103808400D03*
X84851750Y103808400D03*
X87391750Y103808400D03*
X89931750Y103808400D03*
X92471750Y103808400D03*
X95011750Y103808400D03*
X97551750Y103808400D03*
X100091750Y103808400D03*
X102631750Y103808400D03*
X105171750Y103808400D03*
X107711750Y103808400D03*
X110251750Y103808400D03*
X112791750Y103808400D03*
X115331750Y103808400D03*
X117871750Y103808400D03*
X120411750Y103808400D03*
X122951750Y103808400D03*
X125491750Y103808400D03*
X79771750Y109858400D03*
X82311750Y109858400D03*
X84851750Y109858400D03*
X87391750Y109858400D03*
X89931750Y109858400D03*
X92471750Y109858400D03*
X95011750Y109858400D03*
X97551750Y109858400D03*
X100091750Y109858400D03*
X102631750Y109858400D03*
X105171750Y109858400D03*
X107711750Y109858400D03*
X110251750Y109858400D03*
X112791750Y109858400D03*
X115331750Y109858400D03*
X117871750Y109858400D03*
X120411750Y109858400D03*
X122951750Y109858400D03*
X125491750Y109858400D03*
X79771750Y112398400D03*
X82311750Y112398400D03*
X84851750Y112398400D03*
X87391750Y112398400D03*
X89931750Y112398400D03*
X92471750Y112398400D03*
X95011750Y112398400D03*
X97551750Y112398400D03*
X100091750Y112398400D03*
X102631750Y112398400D03*
X105171750Y112398400D03*
X107711750Y112398400D03*
X110251750Y112398400D03*
X112791750Y112398400D03*
X115331750Y112398400D03*
X117871750Y112398400D03*
X120411750Y112398400D03*
X122951750Y112398400D03*
X125491750Y112398400D03*
X63831750Y112398400D03*
X61291750Y112398400D03*
X58751750Y112398400D03*
X56211750Y112398400D03*
X53671750Y112398400D03*
X51131750Y112398400D03*
X48591750Y112398400D03*
X46051750Y112398400D03*
X63831750Y109858400D03*
X61291750Y109858400D03*
X58751750Y109858400D03*
X56211750Y109858400D03*
X53671750Y109858400D03*
X51131750Y109858400D03*
X48591750Y109858400D03*
X46051750Y109858400D03*
X63831750Y103808400D03*
X61291750Y103808400D03*
X58751750Y103808400D03*
X56211750Y103808400D03*
X53671750Y103808400D03*
X51131750Y103808400D03*
X48591750Y103808400D03*
X46051750Y103808400D03*
X63831750Y101268400D03*
X61291750Y101268400D03*
X58751750Y101268400D03*
X56211750Y101268400D03*
X53671750Y101268400D03*
X51131750Y101268400D03*
X48591750Y101268400D03*
X46051750Y101268400D03*
D20*
X38151750Y109398400D03*
X32351750Y109398400D03*
X26551750Y109398400D03*
X35251750Y107068400D03*
X29451750Y107068400D03*
X38151750Y101268400D03*
X32351750Y101268400D03*
X26551750Y101268400D03*
%TD*%
D22*
%TO.C,J1*%
X60192050Y38075600D03*
D23*
X61995172Y38747351D03*
X61323421Y36944229D03*
X63126543Y37615981D03*
X62454792Y35812858D03*
D24*
X59361200Y40143887D03*
X64523079Y34982008D03*
%TD*%
D14*
%TO.C,TP70*%
X72686950Y91768800D03*
%TD*%
D15*
%TO.C,TP21*%
X86419350Y78322400D03*
%TD*%
D14*
%TO.C,TP71*%
X75226950Y91768800D03*
%TD*%
%TO.C,TP68*%
X67606950Y91768800D03*
%TD*%
D15*
%TO.C,TP38*%
X99500350Y70575400D03*
%TD*%
%TO.C,TP13*%
X92921750Y86323400D03*
%TD*%
%TO.C,TP17*%
X73058950Y78347800D03*
%TD*%
D14*
%TO.C,TP36*%
X110585650Y50775600D03*
%TD*%
%TO.C,TP34*%
X82848850Y94311200D03*
%TD*%
D15*
%TO.C,TP12*%
X86292350Y86323400D03*
%TD*%
D25*
%TO.C,BT1*%
X137758850Y31350000D03*
D26*
X137758850Y28850000D03*
%TD*%
D15*
%TO.C,TP11*%
X79815350Y86323400D03*
%TD*%
D12*
%TO.C,H1*%
X14882650Y40064800D03*
X15651495Y41920955D03*
X15651495Y38208645D03*
X17507650Y42689800D03*
D13*
X17507650Y40064800D03*
D12*
X17507650Y37439800D03*
X19363805Y41920955D03*
X19363805Y38208645D03*
X20132650Y40064800D03*
%TD*%
D14*
%TO.C,TP26*%
X70148850Y94311200D03*
%TD*%
D12*
%TO.C,H2*%
X145132650Y89564800D03*
X145901495Y91420955D03*
X145901495Y87708645D03*
X147757650Y92189800D03*
D13*
X147757650Y89564800D03*
D12*
X147757650Y86939800D03*
X149613805Y91420955D03*
X149613805Y87708645D03*
X150382650Y89564800D03*
%TD*%
D15*
%TO.C,TP19*%
X93023350Y78322400D03*
%TD*%
D27*
%TO.C,U19*%
X107436050Y61850000D03*
X107436050Y59310000D03*
X107436050Y56770000D03*
X107436050Y54230000D03*
X107436050Y51690000D03*
X107436050Y49150000D03*
X107436050Y46610000D03*
X107436050Y44070000D03*
X132836050Y61850000D03*
X132836050Y59310000D03*
X132836050Y56770000D03*
X132836050Y54230000D03*
X132836050Y51690000D03*
X132836050Y49150000D03*
X132836050Y46610000D03*
X132836050Y44070000D03*
%TD*%
D14*
%TO.C,TP22*%
X65068850Y94311200D03*
%TD*%
%TO.C,TP35*%
X103854650Y43079400D03*
%TD*%
D12*
%TO.C,H4*%
X14882650Y90064800D03*
X15651495Y91920955D03*
X15651495Y88208645D03*
X17507650Y92689800D03*
D13*
X17507650Y90064800D03*
D12*
X17507650Y87439800D03*
X19363805Y91920955D03*
X19363805Y88208645D03*
X20132650Y90064800D03*
%TD*%
D14*
%TO.C,TP32*%
X77768851Y94311200D03*
%TD*%
D15*
%TO.C,TP14*%
X79764550Y70575400D03*
%TD*%
%TO.C,TP23*%
X73084350Y70575400D03*
%TD*%
%TO.C,TP25*%
X93023350Y70575400D03*
%TD*%
D14*
%TO.C,TP74*%
X82846950Y91768800D03*
%TD*%
%TO.C,TP67*%
X65066950Y91768800D03*
%TD*%
%TO.C,TP72*%
X77766950Y91768800D03*
%TD*%
%TO.C,TP31*%
X75228849Y94311199D03*
%TD*%
D28*
%TO.C,U23*%
X107080450Y83490800D03*
D29*
X107080450Y80950800D03*
X107080450Y78410800D03*
X107080450Y75870800D03*
X107080450Y73330800D03*
X107080450Y70790800D03*
X107080450Y68250800D03*
X107080450Y65710800D03*
X119780450Y65710800D03*
X119780450Y68250800D03*
X119780450Y70790800D03*
X119780450Y73330800D03*
X119780450Y75870800D03*
X119780450Y78410800D03*
X119780450Y80950800D03*
X119780450Y83490800D03*
%TD*%
D15*
%TO.C,TP10*%
X73029750Y86323400D03*
%TD*%
D30*
%TO.C,J2*%
X26410050Y27788600D03*
D31*
X23870050Y27788600D03*
D30*
X21330050Y27788600D03*
X26410050Y24613600D03*
X21330050Y24613600D03*
D31*
X24886050Y22708600D03*
X22854050Y22708600D03*
%TD*%
D14*
%TO.C,TP37*%
X113227250Y50724800D03*
%TD*%
D15*
%TO.C,TP16*%
X99500350Y86323400D03*
%TD*%
%TO.C,TP15*%
X99485850Y78258400D03*
%TD*%
D16*
%TO.C,H6*%
X136257650Y16164800D03*
%TD*%
D15*
%TO.C,TP5*%
X39059250Y49556400D03*
%TD*%
%TO.C,TP9*%
X70098050Y31674800D03*
%TD*%
D32*
%TO.C,JP1*%
X111718250Y79680800D03*
D33*
X110418250Y79680800D03*
%TD*%
D15*
%TO.C,TP7*%
X66770650Y49226200D03*
%TD*%
%TO.C,TP30*%
X70072650Y29465000D03*
%TD*%
D34*
%TO.C,TP1*%
X33877650Y32690800D03*
%TD*%
D15*
%TO.C,TP39*%
X66796050Y15876000D03*
%TD*%
D35*
%TO.C,JP5*%
X112393650Y72492600D03*
X111093650Y72492600D03*
X109793650Y72492600D03*
%TD*%
D15*
%TO.C,TP8*%
X45968050Y45898800D03*
%TD*%
D34*
%TO.C,TP2*%
X45231450Y22734000D03*
%TD*%
D15*
%TO.C,TP29*%
X77286250Y25909000D03*
%TD*%
%TO.C,TP28*%
X77235450Y28042600D03*
%TD*%
%TO.C,TP6*%
X51479850Y52198000D03*
%TD*%
%TO.C,TP3*%
X54146850Y59995800D03*
%TD*%
D32*
%TO.C,JP3*%
X111743650Y77037600D03*
D33*
X110443650Y77037600D03*
%TD*%
D15*
%TO.C,TP4*%
X40837250Y54992000D03*
%TD*%
D32*
%TO.C,JP2*%
X111667450Y82322400D03*
D33*
X110367450Y82322400D03*
%TD*%
M02*
