%TF.GenerationSoftware,KiCad,Pcbnew,7.99.0-1.20231110gitd41f4ec.fc38*%
%TF.CreationDate,2023-11-11T23:50:43-03:00*%
%TF.ProjectId,OpenEFI_rev4,4f70656e-4546-4495-9f72-6576342e6b69,v4*%
%TF.SameCoordinates,Original*%
%TF.FileFunction,Profile,NP*%
%FSLAX46Y46*%
G04 Gerber Fmt 4.6, Leading zero omitted, Abs format (unit mm)*
G04 Created by KiCad (PCBNEW 7.99.0-1.20231110gitd41f4ec.fc38) date 2023-11-11 23:50:43*
%MOMM*%
%LPD*%
G01*
G04 APERTURE LIST*
%TA.AperFunction,Profile*%
%ADD10C,0.200000*%
%TD*%
%TA.AperFunction,Profile*%
%ADD11C,0.120000*%
%TD*%
G04 APERTURE END LIST*
D10*
X162650000Y39725000D02*
G75*
G02*
X162650000Y42725000I-150J1500000D01*
G01*
X152090000Y5735000D02*
G75*
G02*
X161090000Y14735000I8999960J40D01*
G01*
X162650000Y42725000D02*
X164950000Y42725000D01*
X154750000Y107224998D02*
G75*
G02*
X150250038Y111667000I46850J4547802D01*
G01*
X138910000Y119875000D02*
X150250000Y117875000D01*
X15649999Y111786999D02*
G75*
G02*
X11062800Y107225001I-4569179J7151D01*
G01*
X164950000Y105810786D02*
X164950000Y42725000D01*
X3250000Y39724999D02*
X950000Y39724999D01*
X164950000Y105810786D02*
X163535786Y107224999D01*
X15634800Y117875000D02*
X15650000Y111786999D01*
X13810000Y3289213D02*
X15224213Y1875000D01*
X950000Y105810786D02*
X950000Y42724999D01*
X152090000Y3289213D02*
X150675786Y1875000D01*
X4810000Y14734999D02*
G75*
G02*
X13809999Y5734999I0J-8999999D01*
G01*
X164950000Y16149213D02*
X163535786Y14735000D01*
X3250000Y42724999D02*
G75*
G02*
X3250000Y39725001I-50J-1499999D01*
G01*
X949999Y16149213D02*
X2364213Y14734999D01*
X161090000Y14735000D02*
X163535786Y14735000D01*
X162650000Y39725000D02*
X164950000Y39725000D01*
X150250000Y117875000D02*
X150250000Y111666999D01*
X3250000Y42724999D02*
X950000Y42724999D01*
X2364213Y107225000D02*
X11062800Y107225000D01*
X26990000Y119875000D02*
X138910000Y119875000D01*
X13810000Y5734999D02*
X13810000Y3289213D01*
X164950000Y39724999D02*
X164950000Y16149213D01*
X4810000Y14734999D02*
X2364213Y14734999D01*
X26990000Y119875000D02*
X15634800Y117875000D01*
X152090000Y5735000D02*
X152090000Y3289213D01*
X950000Y105810786D02*
X2364213Y107224999D01*
X163535786Y107225000D02*
X154750000Y107225000D01*
X950000Y39724999D02*
X950000Y16149213D01*
X15224213Y1874999D02*
X150675786Y1875000D01*
%TO.C,U19*%
D11*
X108960050Y59945000D02*
X116834050Y59945000D01*
X116834050Y54611000D01*
X108960050Y54611000D01*
X108960050Y59945000D01*
%TD*%
M02*
