%TF.GenerationSoftware,KiCad,Pcbnew,7.0.7-2.fc38*%
%TF.CreationDate,2023-10-14T02:21:00-03:00*%
%TF.ProjectId,OpenEFI_rev4,4f70656e-4546-4495-9f72-6576342e6b69,v3.0*%
%TF.SameCoordinates,Original*%
%TF.FileFunction,Other,Comment*%
%FSLAX46Y46*%
G04 Gerber Fmt 4.6, Leading zero omitted, Abs format (unit mm)*
G04 Created by KiCad (PCBNEW 7.0.7-2.fc38) date 2023-10-14 02:21:00*
%MOMM*%
%LPD*%
G01*
G04 APERTURE LIST*
%ADD10C,0.090000*%
%ADD11C,0.100000*%
%ADD12C,0.060000*%
%ADD13C,0.070000*%
G04 APERTURE END LIST*
D10*
X246922058Y-113113491D02*
X246922058Y-112513491D01*
X247264915Y-113113491D02*
X247007772Y-112770634D01*
X247264915Y-112513491D02*
X246922058Y-112856348D01*
X247522058Y-112799205D02*
X247722058Y-112799205D01*
X247807772Y-113113491D02*
X247522058Y-113113491D01*
X247522058Y-113113491D02*
X247522058Y-112513491D01*
X247522058Y-112513491D02*
X247807772Y-112513491D01*
X248064915Y-112799205D02*
X248264915Y-112799205D01*
X248350629Y-113113491D02*
X248064915Y-113113491D01*
X248064915Y-113113491D02*
X248064915Y-112513491D01*
X248064915Y-112513491D02*
X248350629Y-112513491D01*
X248607772Y-113113491D02*
X248607772Y-112513491D01*
X248607772Y-112513491D02*
X248836343Y-112513491D01*
X248836343Y-112513491D02*
X248893486Y-112542062D01*
X248893486Y-112542062D02*
X248922057Y-112570634D01*
X248922057Y-112570634D02*
X248950629Y-112627777D01*
X248950629Y-112627777D02*
X248950629Y-112713491D01*
X248950629Y-112713491D02*
X248922057Y-112770634D01*
X248922057Y-112770634D02*
X248893486Y-112799205D01*
X248893486Y-112799205D02*
X248836343Y-112827777D01*
X248836343Y-112827777D02*
X248607772Y-112827777D01*
X249322057Y-112513491D02*
X249436343Y-112513491D01*
X249436343Y-112513491D02*
X249493486Y-112542062D01*
X249493486Y-112542062D02*
X249550629Y-112599205D01*
X249550629Y-112599205D02*
X249579200Y-112713491D01*
X249579200Y-112713491D02*
X249579200Y-112913491D01*
X249579200Y-112913491D02*
X249550629Y-113027777D01*
X249550629Y-113027777D02*
X249493486Y-113084920D01*
X249493486Y-113084920D02*
X249436343Y-113113491D01*
X249436343Y-113113491D02*
X249322057Y-113113491D01*
X249322057Y-113113491D02*
X249264915Y-113084920D01*
X249264915Y-113084920D02*
X249207772Y-113027777D01*
X249207772Y-113027777D02*
X249179200Y-112913491D01*
X249179200Y-112913491D02*
X249179200Y-112713491D01*
X249179200Y-112713491D02*
X249207772Y-112599205D01*
X249207772Y-112599205D02*
X249264915Y-112542062D01*
X249264915Y-112542062D02*
X249322057Y-112513491D01*
X249836343Y-112513491D02*
X249836343Y-112999205D01*
X249836343Y-112999205D02*
X249864914Y-113056348D01*
X249864914Y-113056348D02*
X249893486Y-113084920D01*
X249893486Y-113084920D02*
X249950628Y-113113491D01*
X249950628Y-113113491D02*
X250064914Y-113113491D01*
X250064914Y-113113491D02*
X250122057Y-113084920D01*
X250122057Y-113084920D02*
X250150628Y-113056348D01*
X250150628Y-113056348D02*
X250179200Y-112999205D01*
X250179200Y-112999205D02*
X250179200Y-112513491D01*
X250379199Y-112513491D02*
X250722057Y-112513491D01*
X250550628Y-113113491D02*
X250550628Y-112513491D01*
D11*
X244936619Y-111235837D02*
X243936619Y-111235837D01*
X244936619Y-110664409D02*
X244365190Y-111092980D01*
X243936619Y-110664409D02*
X244508047Y-111235837D01*
X244412809Y-110235837D02*
X244412809Y-109902504D01*
X244936619Y-109759647D02*
X244936619Y-110235837D01*
X244936619Y-110235837D02*
X243936619Y-110235837D01*
X243936619Y-110235837D02*
X243936619Y-109759647D01*
X244412809Y-109331075D02*
X244412809Y-108997742D01*
X244936619Y-108854885D02*
X244936619Y-109331075D01*
X244936619Y-109331075D02*
X243936619Y-109331075D01*
X243936619Y-109331075D02*
X243936619Y-108854885D01*
X244936619Y-108426313D02*
X243936619Y-108426313D01*
X243936619Y-108426313D02*
X243936619Y-108045361D01*
X243936619Y-108045361D02*
X243984238Y-107950123D01*
X243984238Y-107950123D02*
X244031857Y-107902504D01*
X244031857Y-107902504D02*
X244127095Y-107854885D01*
X244127095Y-107854885D02*
X244269952Y-107854885D01*
X244269952Y-107854885D02*
X244365190Y-107902504D01*
X244365190Y-107902504D02*
X244412809Y-107950123D01*
X244412809Y-107950123D02*
X244460428Y-108045361D01*
X244460428Y-108045361D02*
X244460428Y-108426313D01*
X243936619Y-107235837D02*
X243936619Y-107045361D01*
X243936619Y-107045361D02*
X243984238Y-106950123D01*
X243984238Y-106950123D02*
X244079476Y-106854885D01*
X244079476Y-106854885D02*
X244269952Y-106807266D01*
X244269952Y-106807266D02*
X244603285Y-106807266D01*
X244603285Y-106807266D02*
X244793761Y-106854885D01*
X244793761Y-106854885D02*
X244889000Y-106950123D01*
X244889000Y-106950123D02*
X244936619Y-107045361D01*
X244936619Y-107045361D02*
X244936619Y-107235837D01*
X244936619Y-107235837D02*
X244889000Y-107331075D01*
X244889000Y-107331075D02*
X244793761Y-107426313D01*
X244793761Y-107426313D02*
X244603285Y-107473932D01*
X244603285Y-107473932D02*
X244269952Y-107473932D01*
X244269952Y-107473932D02*
X244079476Y-107426313D01*
X244079476Y-107426313D02*
X243984238Y-107331075D01*
X243984238Y-107331075D02*
X243936619Y-107235837D01*
X243936619Y-106378694D02*
X244746142Y-106378694D01*
X244746142Y-106378694D02*
X244841380Y-106331075D01*
X244841380Y-106331075D02*
X244889000Y-106283456D01*
X244889000Y-106283456D02*
X244936619Y-106188218D01*
X244936619Y-106188218D02*
X244936619Y-105997742D01*
X244936619Y-105997742D02*
X244889000Y-105902504D01*
X244889000Y-105902504D02*
X244841380Y-105854885D01*
X244841380Y-105854885D02*
X244746142Y-105807266D01*
X244746142Y-105807266D02*
X243936619Y-105807266D01*
X243936619Y-105473932D02*
X243936619Y-104902504D01*
X244936619Y-105188218D02*
X243936619Y-105188218D01*
D12*
X254236127Y-104103695D02*
X253836127Y-104103695D01*
X254236127Y-103875124D02*
X254007556Y-104046553D01*
X253836127Y-103875124D02*
X254064699Y-104103695D01*
X254026603Y-103703695D02*
X254026603Y-103570362D01*
X254236127Y-103513219D02*
X254236127Y-103703695D01*
X254236127Y-103703695D02*
X253836127Y-103703695D01*
X253836127Y-103703695D02*
X253836127Y-103513219D01*
X254026603Y-103341790D02*
X254026603Y-103208457D01*
X254236127Y-103151314D02*
X254236127Y-103341790D01*
X254236127Y-103341790D02*
X253836127Y-103341790D01*
X253836127Y-103341790D02*
X253836127Y-103151314D01*
X254236127Y-102979885D02*
X253836127Y-102979885D01*
X253836127Y-102979885D02*
X253836127Y-102827504D01*
X253836127Y-102827504D02*
X253855175Y-102789409D01*
X253855175Y-102789409D02*
X253874222Y-102770362D01*
X253874222Y-102770362D02*
X253912318Y-102751314D01*
X253912318Y-102751314D02*
X253969460Y-102751314D01*
X253969460Y-102751314D02*
X254007556Y-102770362D01*
X254007556Y-102770362D02*
X254026603Y-102789409D01*
X254026603Y-102789409D02*
X254045651Y-102827504D01*
X254045651Y-102827504D02*
X254045651Y-102979885D01*
X253836127Y-102503695D02*
X253836127Y-102427504D01*
X253836127Y-102427504D02*
X253855175Y-102389409D01*
X253855175Y-102389409D02*
X253893270Y-102351314D01*
X253893270Y-102351314D02*
X253969460Y-102332266D01*
X253969460Y-102332266D02*
X254102794Y-102332266D01*
X254102794Y-102332266D02*
X254178984Y-102351314D01*
X254178984Y-102351314D02*
X254217080Y-102389409D01*
X254217080Y-102389409D02*
X254236127Y-102427504D01*
X254236127Y-102427504D02*
X254236127Y-102503695D01*
X254236127Y-102503695D02*
X254217080Y-102541790D01*
X254217080Y-102541790D02*
X254178984Y-102579885D01*
X254178984Y-102579885D02*
X254102794Y-102598933D01*
X254102794Y-102598933D02*
X253969460Y-102598933D01*
X253969460Y-102598933D02*
X253893270Y-102579885D01*
X253893270Y-102579885D02*
X253855175Y-102541790D01*
X253855175Y-102541790D02*
X253836127Y-102503695D01*
X253836127Y-102160837D02*
X254159937Y-102160837D01*
X254159937Y-102160837D02*
X254198032Y-102141790D01*
X254198032Y-102141790D02*
X254217080Y-102122742D01*
X254217080Y-102122742D02*
X254236127Y-102084647D01*
X254236127Y-102084647D02*
X254236127Y-102008456D01*
X254236127Y-102008456D02*
X254217080Y-101970361D01*
X254217080Y-101970361D02*
X254198032Y-101951314D01*
X254198032Y-101951314D02*
X254159937Y-101932266D01*
X254159937Y-101932266D02*
X253836127Y-101932266D01*
X253836127Y-101798932D02*
X253836127Y-101570361D01*
X254236127Y-101684647D02*
X253836127Y-101684647D01*
D10*
X241297058Y-114188491D02*
X241297058Y-113588491D01*
X241639915Y-114188491D02*
X241382772Y-113845634D01*
X241639915Y-113588491D02*
X241297058Y-113931348D01*
X241897058Y-113874205D02*
X242097058Y-113874205D01*
X242182772Y-114188491D02*
X241897058Y-114188491D01*
X241897058Y-114188491D02*
X241897058Y-113588491D01*
X241897058Y-113588491D02*
X242182772Y-113588491D01*
X242439915Y-113874205D02*
X242639915Y-113874205D01*
X242725629Y-114188491D02*
X242439915Y-114188491D01*
X242439915Y-114188491D02*
X242439915Y-113588491D01*
X242439915Y-113588491D02*
X242725629Y-113588491D01*
X242982772Y-114188491D02*
X242982772Y-113588491D01*
X242982772Y-113588491D02*
X243211343Y-113588491D01*
X243211343Y-113588491D02*
X243268486Y-113617062D01*
X243268486Y-113617062D02*
X243297057Y-113645634D01*
X243297057Y-113645634D02*
X243325629Y-113702777D01*
X243325629Y-113702777D02*
X243325629Y-113788491D01*
X243325629Y-113788491D02*
X243297057Y-113845634D01*
X243297057Y-113845634D02*
X243268486Y-113874205D01*
X243268486Y-113874205D02*
X243211343Y-113902777D01*
X243211343Y-113902777D02*
X242982772Y-113902777D01*
X243697057Y-113588491D02*
X243811343Y-113588491D01*
X243811343Y-113588491D02*
X243868486Y-113617062D01*
X243868486Y-113617062D02*
X243925629Y-113674205D01*
X243925629Y-113674205D02*
X243954200Y-113788491D01*
X243954200Y-113788491D02*
X243954200Y-113988491D01*
X243954200Y-113988491D02*
X243925629Y-114102777D01*
X243925629Y-114102777D02*
X243868486Y-114159920D01*
X243868486Y-114159920D02*
X243811343Y-114188491D01*
X243811343Y-114188491D02*
X243697057Y-114188491D01*
X243697057Y-114188491D02*
X243639915Y-114159920D01*
X243639915Y-114159920D02*
X243582772Y-114102777D01*
X243582772Y-114102777D02*
X243554200Y-113988491D01*
X243554200Y-113988491D02*
X243554200Y-113788491D01*
X243554200Y-113788491D02*
X243582772Y-113674205D01*
X243582772Y-113674205D02*
X243639915Y-113617062D01*
X243639915Y-113617062D02*
X243697057Y-113588491D01*
X244211343Y-113588491D02*
X244211343Y-114074205D01*
X244211343Y-114074205D02*
X244239914Y-114131348D01*
X244239914Y-114131348D02*
X244268486Y-114159920D01*
X244268486Y-114159920D02*
X244325628Y-114188491D01*
X244325628Y-114188491D02*
X244439914Y-114188491D01*
X244439914Y-114188491D02*
X244497057Y-114159920D01*
X244497057Y-114159920D02*
X244525628Y-114131348D01*
X244525628Y-114131348D02*
X244554200Y-114074205D01*
X244554200Y-114074205D02*
X244554200Y-113588491D01*
X244754199Y-113588491D02*
X245097057Y-113588491D01*
X244925628Y-114188491D02*
X244925628Y-113588491D01*
D13*
X210381304Y-77383007D02*
X210381304Y-76983007D01*
X210609875Y-77383007D02*
X210438446Y-77154436D01*
X210609875Y-76983007D02*
X210381304Y-77211579D01*
X210781304Y-77173483D02*
X210914637Y-77173483D01*
X210971780Y-77383007D02*
X210781304Y-77383007D01*
X210781304Y-77383007D02*
X210781304Y-76983007D01*
X210781304Y-76983007D02*
X210971780Y-76983007D01*
X211143209Y-77173483D02*
X211276542Y-77173483D01*
X211333685Y-77383007D02*
X211143209Y-77383007D01*
X211143209Y-77383007D02*
X211143209Y-76983007D01*
X211143209Y-76983007D02*
X211333685Y-76983007D01*
X211505114Y-77383007D02*
X211505114Y-76983007D01*
X211505114Y-76983007D02*
X211657495Y-76983007D01*
X211657495Y-76983007D02*
X211695590Y-77002055D01*
X211695590Y-77002055D02*
X211714637Y-77021102D01*
X211714637Y-77021102D02*
X211733685Y-77059198D01*
X211733685Y-77059198D02*
X211733685Y-77116340D01*
X211733685Y-77116340D02*
X211714637Y-77154436D01*
X211714637Y-77154436D02*
X211695590Y-77173483D01*
X211695590Y-77173483D02*
X211657495Y-77192531D01*
X211657495Y-77192531D02*
X211505114Y-77192531D01*
X211981304Y-76983007D02*
X212057495Y-76983007D01*
X212057495Y-76983007D02*
X212095590Y-77002055D01*
X212095590Y-77002055D02*
X212133685Y-77040150D01*
X212133685Y-77040150D02*
X212152733Y-77116340D01*
X212152733Y-77116340D02*
X212152733Y-77249674D01*
X212152733Y-77249674D02*
X212133685Y-77325864D01*
X212133685Y-77325864D02*
X212095590Y-77363960D01*
X212095590Y-77363960D02*
X212057495Y-77383007D01*
X212057495Y-77383007D02*
X211981304Y-77383007D01*
X211981304Y-77383007D02*
X211943209Y-77363960D01*
X211943209Y-77363960D02*
X211905114Y-77325864D01*
X211905114Y-77325864D02*
X211886066Y-77249674D01*
X211886066Y-77249674D02*
X211886066Y-77116340D01*
X211886066Y-77116340D02*
X211905114Y-77040150D01*
X211905114Y-77040150D02*
X211943209Y-77002055D01*
X211943209Y-77002055D02*
X211981304Y-76983007D01*
X212324162Y-76983007D02*
X212324162Y-77306817D01*
X212324162Y-77306817D02*
X212343209Y-77344912D01*
X212343209Y-77344912D02*
X212362257Y-77363960D01*
X212362257Y-77363960D02*
X212400352Y-77383007D01*
X212400352Y-77383007D02*
X212476543Y-77383007D01*
X212476543Y-77383007D02*
X212514638Y-77363960D01*
X212514638Y-77363960D02*
X212533685Y-77344912D01*
X212533685Y-77344912D02*
X212552733Y-77306817D01*
X212552733Y-77306817D02*
X212552733Y-76983007D01*
X212686067Y-76983007D02*
X212914638Y-76983007D01*
X212800352Y-77383007D02*
X212800352Y-76983007D01*
M02*
