%TF.GenerationSoftware,KiCad,Pcbnew,7.99.0-1.20231110gitd41f4ec.fc38*%
%TF.CreationDate,2023-11-11T23:50:43-03:00*%
%TF.ProjectId,OpenEFI_rev4,4f70656e-4546-4495-9f72-6576342e6b69,v4*%
%TF.SameCoordinates,Original*%
%TF.FileFunction,Paste,Top*%
%TF.FilePolarity,Positive*%
%FSLAX46Y46*%
G04 Gerber Fmt 4.6, Leading zero omitted, Abs format (unit mm)*
G04 Created by KiCad (PCBNEW 7.99.0-1.20231110gitd41f4ec.fc38) date 2023-11-11 23:50:43*
%MOMM*%
%LPD*%
G01*
G04 APERTURE LIST*
G04 Aperture macros list*
%AMRoundRect*
0 Rectangle with rounded corners*
0 $1 Rounding radius*
0 $2 $3 $4 $5 $6 $7 $8 $9 X,Y pos of 4 corners*
0 Add a 4 corners polygon primitive as box body*
4,1,4,$2,$3,$4,$5,$6,$7,$8,$9,$2,$3,0*
0 Add four circle primitives for the rounded corners*
1,1,$1+$1,$2,$3*
1,1,$1+$1,$4,$5*
1,1,$1+$1,$6,$7*
1,1,$1+$1,$8,$9*
0 Add four rect primitives between the rounded corners*
20,1,$1+$1,$2,$3,$4,$5,0*
20,1,$1+$1,$4,$5,$6,$7,0*
20,1,$1+$1,$6,$7,$8,$9,0*
20,1,$1+$1,$8,$9,$2,$3,0*%
%AMRotRect*
0 Rectangle, with rotation*
0 The origin of the aperture is its center*
0 $1 length*
0 $2 width*
0 $3 Rotation angle, in degrees counterclockwise*
0 Add horizontal line*
21,1,$1,$2,0,0,$3*%
G04 Aperture macros list end*
%ADD10C,0.010000*%
%ADD11RoundRect,0.225000X-0.250000X0.225000X-0.250000X-0.225000X0.250000X-0.225000X0.250000X0.225000X0*%
%ADD12RoundRect,0.250000X-1.500000X-0.550000X1.500000X-0.550000X1.500000X0.550000X-1.500000X0.550000X0*%
%ADD13RoundRect,0.243750X-0.243750X-0.456250X0.243750X-0.456250X0.243750X0.456250X-0.243750X0.456250X0*%
%ADD14RoundRect,0.250000X0.450000X-0.262500X0.450000X0.262500X-0.450000X0.262500X-0.450000X-0.262500X0*%
%ADD15RoundRect,0.150000X0.150000X-0.825000X0.150000X0.825000X-0.150000X0.825000X-0.150000X-0.825000X0*%
%ADD16RoundRect,0.250000X-0.450000X0.262500X-0.450000X-0.262500X0.450000X-0.262500X0.450000X0.262500X0*%
%ADD17RoundRect,0.200000X-0.200000X-0.275000X0.200000X-0.275000X0.200000X0.275000X-0.200000X0.275000X0*%
%ADD18R,0.600000X0.700000*%
%ADD19RoundRect,0.250000X-0.250000X0.250000X-0.250000X-0.250000X0.250000X-0.250000X0.250000X0.250000X0*%
%ADD20RoundRect,0.243750X0.243750X0.456250X-0.243750X0.456250X-0.243750X-0.456250X0.243750X-0.456250X0*%
%ADD21RoundRect,0.200000X0.275000X-0.200000X0.275000X0.200000X-0.275000X0.200000X-0.275000X-0.200000X0*%
%ADD22RoundRect,0.140000X-0.170000X0.140000X-0.170000X-0.140000X0.170000X-0.140000X0.170000X0.140000X0*%
%ADD23RoundRect,0.250000X0.650000X-1.000000X0.650000X1.000000X-0.650000X1.000000X-0.650000X-1.000000X0*%
%ADD24RoundRect,0.225000X0.225000X0.250000X-0.225000X0.250000X-0.225000X-0.250000X0.225000X-0.250000X0*%
%ADD25RoundRect,0.150000X-0.150000X0.587500X-0.150000X-0.587500X0.150000X-0.587500X0.150000X0.587500X0*%
%ADD26R,0.700000X0.510000*%
%ADD27RoundRect,0.200000X0.200000X0.275000X-0.200000X0.275000X-0.200000X-0.275000X0.200000X-0.275000X0*%
%ADD28RoundRect,0.250000X1.075000X-0.312500X1.075000X0.312500X-1.075000X0.312500X-1.075000X-0.312500X0*%
%ADD29RoundRect,0.200000X-0.275000X0.200000X-0.275000X-0.200000X0.275000X-0.200000X0.275000X0.200000X0*%
%ADD30RoundRect,0.250000X0.262500X0.450000X-0.262500X0.450000X-0.262500X-0.450000X0.262500X-0.450000X0*%
%ADD31RoundRect,0.150000X0.150000X-0.587500X0.150000X0.587500X-0.150000X0.587500X-0.150000X-0.587500X0*%
%ADD32RoundRect,0.243750X-0.456250X0.243750X-0.456250X-0.243750X0.456250X-0.243750X0.456250X0.243750X0*%
%ADD33RoundRect,0.250000X0.512652X0.159099X0.159099X0.512652X-0.512652X-0.159099X-0.159099X-0.512652X0*%
%ADD34RoundRect,0.250000X0.475000X-0.250000X0.475000X0.250000X-0.475000X0.250000X-0.475000X-0.250000X0*%
%ADD35RoundRect,0.250000X-0.850000X-0.350000X0.850000X-0.350000X0.850000X0.350000X-0.850000X0.350000X0*%
%ADD36RoundRect,0.250000X-1.275000X-1.125000X1.275000X-1.125000X1.275000X1.125000X-1.275000X1.125000X0*%
%ADD37RoundRect,0.250000X-0.512652X-0.159099X-0.159099X-0.512652X0.512652X0.159099X0.159099X0.512652X0*%
%ADD38RoundRect,0.225000X-0.225000X-0.250000X0.225000X-0.250000X0.225000X0.250000X-0.225000X0.250000X0*%
%ADD39RoundRect,0.150000X0.200000X-0.150000X0.200000X0.150000X-0.200000X0.150000X-0.200000X-0.150000X0*%
%ADD40R,0.500000X0.800000*%
%ADD41R,0.400000X0.800000*%
%ADD42R,0.410000X1.600000*%
%ADD43R,0.800000X0.500000*%
%ADD44R,0.800000X0.400000*%
%ADD45RoundRect,0.250000X0.250000X0.475000X-0.250000X0.475000X-0.250000X-0.475000X0.250000X-0.475000X0*%
%ADD46RoundRect,0.250000X0.350000X-0.850000X0.350000X0.850000X-0.350000X0.850000X-0.350000X-0.850000X0*%
%ADD47RoundRect,0.250000X1.125000X-1.275000X1.125000X1.275000X-1.125000X1.275000X-1.125000X-1.275000X0*%
%ADD48R,2.440000X1.120000*%
%ADD49RoundRect,0.100000X-0.625000X-0.100000X0.625000X-0.100000X0.625000X0.100000X-0.625000X0.100000X0*%
%ADD50R,1.100000X0.850000*%
%ADD51R,1.100000X0.750000*%
%ADD52R,1.000000X1.200000*%
%ADD53R,1.350000X1.550000*%
%ADD54R,1.800000X1.170000*%
%ADD55R,1.350000X1.900000*%
%ADD56R,0.350000X0.500000*%
%ADD57RoundRect,0.250000X-0.475000X0.250000X-0.475000X-0.250000X0.475000X-0.250000X0.475000X0.250000X0*%
%ADD58RoundRect,0.150000X-0.150000X-0.200000X0.150000X-0.200000X0.150000X0.200000X-0.150000X0.200000X0*%
%ADD59R,1.500000X2.200000*%
%ADD60RoundRect,0.250000X-0.250000X-0.475000X0.250000X-0.475000X0.250000X0.475000X-0.250000X0.475000X0*%
%ADD61RoundRect,0.100000X0.637500X0.100000X-0.637500X0.100000X-0.637500X-0.100000X0.637500X-0.100000X0*%
%ADD62RoundRect,0.140000X0.140000X0.170000X-0.140000X0.170000X-0.140000X-0.170000X0.140000X-0.170000X0*%
%ADD63RoundRect,0.250000X0.312500X0.625000X-0.312500X0.625000X-0.312500X-0.625000X0.312500X-0.625000X0*%
%ADD64RotRect,1.400000X1.200000X225.000000*%
%ADD65R,1.500000X2.000000*%
%ADD66R,3.800000X2.000000*%
%ADD67RoundRect,0.075000X-0.459619X-0.565685X0.565685X0.459619X0.459619X0.565685X-0.565685X-0.459619X0*%
%ADD68RoundRect,0.075000X0.459619X-0.565685X0.565685X-0.459619X-0.459619X0.565685X-0.565685X0.459619X0*%
%ADD69RoundRect,0.250000X-0.159099X0.512652X-0.512652X0.159099X0.159099X-0.512652X0.512652X-0.159099X0*%
%ADD70RoundRect,0.250000X-1.075000X0.312500X-1.075000X-0.312500X1.075000X-0.312500X1.075000X0.312500X0*%
%ADD71RoundRect,0.250000X-1.450000X0.312500X-1.450000X-0.312500X1.450000X-0.312500X1.450000X0.312500X0*%
%ADD72RoundRect,0.150000X-0.200000X0.150000X-0.200000X-0.150000X0.200000X-0.150000X0.200000X0.150000X0*%
%ADD73RoundRect,0.150000X0.587500X0.150000X-0.587500X0.150000X-0.587500X-0.150000X0.587500X-0.150000X0*%
%ADD74R,1.600000X0.480000*%
%ADD75RoundRect,0.150000X-0.850000X-0.150000X0.850000X-0.150000X0.850000X0.150000X-0.850000X0.150000X0*%
%ADD76R,1.100000X0.600000*%
%ADD77RoundRect,0.225000X0.250000X-0.225000X0.250000X0.225000X-0.250000X0.225000X-0.250000X-0.225000X0*%
%ADD78RoundRect,0.100000X-0.100000X0.637500X-0.100000X-0.637500X0.100000X-0.637500X0.100000X0.637500X0*%
%ADD79RoundRect,0.112500X-0.187500X-0.112500X0.187500X-0.112500X0.187500X0.112500X-0.187500X0.112500X0*%
%ADD80RoundRect,0.140000X-0.140000X-0.170000X0.140000X-0.170000X0.140000X0.170000X-0.140000X0.170000X0*%
%ADD81RoundRect,0.250000X0.159099X-0.512652X0.512652X-0.159099X-0.159099X0.512652X-0.512652X0.159099X0*%
%ADD82RoundRect,0.150000X0.150000X-0.512500X0.150000X0.512500X-0.150000X0.512500X-0.150000X-0.512500X0*%
%ADD83RoundRect,0.250000X-0.650000X1.000000X-0.650000X-1.000000X0.650000X-1.000000X0.650000X1.000000X0*%
%ADD84RoundRect,0.150000X-0.675000X-0.150000X0.675000X-0.150000X0.675000X0.150000X-0.675000X0.150000X0*%
%ADD85RoundRect,0.250000X-0.262500X-0.450000X0.262500X-0.450000X0.262500X0.450000X-0.262500X0.450000X0*%
%ADD86RoundRect,0.250000X0.000000X0.353553X-0.353553X0.000000X0.000000X-0.353553X0.353553X0.000000X0*%
%ADD87RoundRect,0.150000X0.150000X-0.675000X0.150000X0.675000X-0.150000X0.675000X-0.150000X-0.675000X0*%
%ADD88RoundRect,0.200000X0.053033X-0.335876X0.335876X-0.053033X-0.053033X0.335876X-0.335876X0.053033X0*%
%ADD89R,1.700000X1.000000*%
%ADD90RoundRect,0.250000X0.550000X-1.500000X0.550000X1.500000X-0.550000X1.500000X-0.550000X-1.500000X0*%
%ADD91R,1.550000X0.600000*%
%ADD92R,2.600000X3.100000*%
%ADD93RoundRect,0.150000X-0.650000X-0.150000X0.650000X-0.150000X0.650000X0.150000X-0.650000X0.150000X0*%
%ADD94RoundRect,0.150000X-0.825000X-0.150000X0.825000X-0.150000X0.825000X0.150000X-0.825000X0.150000X0*%
%ADD95RoundRect,0.150000X-0.468458X0.256326X0.256326X-0.468458X0.468458X-0.256326X-0.256326X0.468458X0*%
G04 APERTURE END LIST*
D10*
%TO.C,U1*%
X40767850Y84677800D02*
X39307850Y84677800D01*
X39307850Y86137800D01*
X40767850Y86137800D01*
X40767850Y84677800D01*
G36*
X40767850Y84677800D02*
G01*
X39307850Y84677800D01*
X39307850Y86137800D01*
X40767850Y86137800D01*
X40767850Y84677800D01*
G37*
X40767850Y82367800D02*
X39307850Y82367800D01*
X39307850Y83827800D01*
X40767850Y83827800D01*
X40767850Y82367800D01*
G36*
X40767850Y82367800D02*
G01*
X39307850Y82367800D01*
X39307850Y83827800D01*
X40767850Y83827800D01*
X40767850Y82367800D01*
G37*
X43077850Y84677800D02*
X41617850Y84677800D01*
X41617850Y86137800D01*
X43077850Y86137800D01*
X43077850Y84677800D01*
G36*
X43077850Y84677800D02*
G01*
X41617850Y84677800D01*
X41617850Y86137800D01*
X43077850Y86137800D01*
X43077850Y84677800D01*
G37*
X43077850Y82367800D02*
X41617850Y82367800D01*
X41617850Y83827800D01*
X43077850Y83827800D01*
X43077850Y82367800D01*
G36*
X43077850Y82367800D02*
G01*
X41617850Y82367800D01*
X41617850Y83827800D01*
X43077850Y83827800D01*
X43077850Y82367800D01*
G37*
%TO.C,U13*%
X40564650Y69285400D02*
X39104650Y69285400D01*
X39104650Y70745400D01*
X40564650Y70745400D01*
X40564650Y69285400D01*
G36*
X40564650Y69285400D02*
G01*
X39104650Y69285400D01*
X39104650Y70745400D01*
X40564650Y70745400D01*
X40564650Y69285400D01*
G37*
X40564650Y66975400D02*
X39104650Y66975400D01*
X39104650Y68435400D01*
X40564650Y68435400D01*
X40564650Y66975400D01*
G36*
X40564650Y66975400D02*
G01*
X39104650Y66975400D01*
X39104650Y68435400D01*
X40564650Y68435400D01*
X40564650Y66975400D01*
G37*
X42874650Y69285400D02*
X41414650Y69285400D01*
X41414650Y70745400D01*
X42874650Y70745400D01*
X42874650Y69285400D01*
G36*
X42874650Y69285400D02*
G01*
X41414650Y69285400D01*
X41414650Y70745400D01*
X42874650Y70745400D01*
X42874650Y69285400D01*
G37*
X42874650Y66975400D02*
X41414650Y66975400D01*
X41414650Y68435400D01*
X42874650Y68435400D01*
X42874650Y66975400D01*
G36*
X42874650Y66975400D02*
G01*
X41414650Y66975400D01*
X41414650Y68435400D01*
X42874650Y68435400D01*
X42874650Y66975400D01*
G37*
%TO.C,FL1*%
X90898150Y93469000D02*
X89998150Y93469000D01*
X89998150Y93819000D01*
X90898150Y93819000D01*
X90898150Y93469000D01*
G36*
X90898150Y93469000D02*
G01*
X89998150Y93469000D01*
X89998150Y93819000D01*
X90898150Y93819000D01*
X90898150Y93469000D01*
G37*
X90898150Y92619000D02*
X89998150Y92619000D01*
X89998150Y92969000D01*
X90898150Y92969000D01*
X90898150Y92619000D01*
G36*
X90898150Y92619000D02*
G01*
X89998150Y92619000D01*
X89998150Y92969000D01*
X90898150Y92969000D01*
X90898150Y92619000D01*
G37*
X92598150Y93469000D02*
X91698150Y93469000D01*
X91698150Y93819000D01*
X92598150Y93819000D01*
X92598150Y93469000D01*
G36*
X92598150Y93469000D02*
G01*
X91698150Y93469000D01*
X91698150Y93819000D01*
X92598150Y93819000D01*
X92598150Y93469000D01*
G37*
X92598150Y92619000D02*
X91698150Y92619000D01*
X91698150Y92969000D01*
X92598150Y92969000D01*
X92598150Y92619000D01*
G36*
X92598150Y92619000D02*
G01*
X91698150Y92619000D01*
X91698150Y92969000D01*
X92598150Y92969000D01*
X92598150Y92619000D01*
G37*
%TD*%
D11*
%TO.C,C46*%
X76970550Y68556400D03*
X76970550Y67006400D03*
%TD*%
D12*
%TO.C,C42*%
X118246950Y89228800D03*
X123646950Y89228800D03*
%TD*%
D13*
%TO.C,D16*%
X21459350Y80747600D03*
X23334350Y80747600D03*
%TD*%
D14*
%TO.C,R67*%
X78900950Y49800100D03*
X78900950Y51625100D03*
%TD*%
D15*
%TO.C,U29*%
X59125250Y82909600D03*
X60395250Y82909600D03*
X61665250Y82909600D03*
X62935250Y82909600D03*
X62935250Y87859600D03*
X61665250Y87859600D03*
X60395250Y87859600D03*
X59125250Y87859600D03*
%TD*%
D16*
%TO.C,R61*%
X76919750Y48069100D03*
X76919750Y46244100D03*
%TD*%
D17*
%TO.C,R20*%
X130182250Y66726800D03*
X131832250Y66726800D03*
%TD*%
D18*
%TO.C,D2*%
X126592950Y69035800D03*
X127992950Y69035800D03*
%TD*%
D19*
%TO.C,D64*%
X26054450Y94900799D03*
X26054450Y92400801D03*
%TD*%
D20*
%TO.C,D63*%
X14865251Y81585800D03*
X12990249Y81585800D03*
%TD*%
D21*
%TO.C,R4*%
X75740914Y15255838D03*
X75740914Y16905838D03*
%TD*%
D20*
%TO.C,D73*%
X14806562Y70742366D03*
X12931560Y70742366D03*
%TD*%
D22*
%TO.C,C27*%
X89630650Y32332600D03*
X89630650Y31372600D03*
%TD*%
D23*
%TO.C,D4*%
X126788950Y82506800D03*
X126788950Y86506800D03*
%TD*%
D24*
%TO.C,C61*%
X130512250Y33351200D03*
X128962250Y33351200D03*
%TD*%
D25*
%TO.C,Q14*%
X95090950Y59371700D03*
X93190950Y59371700D03*
X94140950Y57496700D03*
%TD*%
D26*
%TO.C,Q20*%
X128374050Y28814800D03*
X128374050Y27864800D03*
X128374050Y26914800D03*
X130694050Y26914800D03*
X130694050Y27864800D03*
X130694050Y28814800D03*
%TD*%
D27*
%TO.C,R77*%
X77033550Y70067400D03*
X75383550Y70067400D03*
%TD*%
D28*
%TO.C,R71*%
X41954850Y56628300D03*
X41954850Y59553300D03*
%TD*%
D29*
%TO.C,R80*%
X145434450Y74867000D03*
X145434450Y73217000D03*
%TD*%
D19*
%TO.C,D74*%
X36341450Y94951599D03*
X36341450Y92451601D03*
%TD*%
D30*
%TO.C,R52*%
X91548250Y53506600D03*
X89723250Y53506600D03*
%TD*%
D21*
%TO.C,R27*%
X80340914Y21030838D03*
X80340914Y22680838D03*
%TD*%
D31*
%TO.C,Q5*%
X126092950Y71146300D03*
X127992950Y71146300D03*
X127042950Y73021300D03*
%TD*%
D32*
%TO.C,D8*%
X69299034Y22841492D03*
X69299034Y20966492D03*
%TD*%
%TO.C,D7*%
X78493834Y16796292D03*
X78493834Y14921292D03*
%TD*%
D33*
%TO.C,C11*%
X33685801Y26354849D03*
X32342299Y27698351D03*
%TD*%
D34*
%TO.C,C39*%
X79815350Y74502200D03*
X79815350Y76402200D03*
%TD*%
D14*
%TO.C,R47*%
X72957350Y49800100D03*
X72957350Y51625100D03*
%TD*%
D35*
%TO.C,Q7*%
X130165950Y84776800D03*
D36*
X134790950Y84021800D03*
X134790950Y80971800D03*
X138140950Y84021800D03*
X138140950Y80971800D03*
D35*
X130165950Y80216800D03*
%TD*%
D16*
%TO.C,R44*%
X74938550Y48069100D03*
X74938550Y46244100D03*
%TD*%
D21*
%TO.C,R56*%
X90178550Y66905600D03*
X90178550Y68555600D03*
%TD*%
D37*
%TO.C,C16*%
X39886099Y16496951D03*
X41229601Y15153449D03*
%TD*%
D21*
%TO.C,R24*%
X83140914Y19055838D03*
X83140914Y20705838D03*
%TD*%
D29*
%TO.C,R74*%
X75446550Y68606400D03*
X75446550Y66956400D03*
%TD*%
D35*
%TO.C,Q6*%
X130160050Y91968400D03*
D36*
X134785050Y91213400D03*
X134785050Y88163400D03*
X138135050Y91213400D03*
X138135050Y88163400D03*
D35*
X130160050Y87408400D03*
%TD*%
D34*
%TO.C,C52*%
X44850450Y57699600D03*
X44850450Y59599600D03*
%TD*%
D11*
%TO.C,C38*%
X77021350Y76176400D03*
X77021350Y74626400D03*
%TD*%
%TO.C,C23*%
X90356350Y84177400D03*
X90356350Y82627400D03*
%TD*%
D38*
%TO.C,C33*%
X133379950Y69162800D03*
X134929950Y69162800D03*
%TD*%
D29*
%TO.C,R12*%
X95309350Y84227400D03*
X95309350Y82577400D03*
%TD*%
D13*
%TO.C,D19*%
X21459350Y74296000D03*
X23334350Y74296000D03*
%TD*%
D39*
%TO.C,D25*%
X130550050Y31765200D03*
X130550050Y30365200D03*
%TD*%
D34*
%TO.C,C34*%
X99500350Y82579400D03*
X99500350Y84479400D03*
%TD*%
D40*
%TO.C,RN2*%
X11531850Y66610800D03*
D41*
X10731850Y66610800D03*
X9931850Y66610800D03*
D40*
X9131850Y66610800D03*
X9131850Y64810800D03*
D41*
X9931850Y64810800D03*
X10731850Y64810800D03*
D40*
X11531850Y64810800D03*
%TD*%
D21*
%TO.C,R25*%
X71140914Y21055838D03*
X71140914Y22705838D03*
%TD*%
D42*
%TO.C,U36*%
X34703150Y52896500D03*
X35338150Y52896500D03*
X35973150Y52896500D03*
X36608150Y52896500D03*
X37243150Y52896500D03*
X37878150Y52896500D03*
X38513150Y52896500D03*
X39148150Y52896500D03*
X39148150Y58205100D03*
X38513150Y58205100D03*
X37878150Y58205100D03*
X37243150Y58205100D03*
X36608150Y58205100D03*
X35973150Y58205100D03*
X35338150Y58205100D03*
X34703150Y58205100D03*
%TD*%
D16*
%TO.C,R66*%
X82964950Y48069100D03*
X82964950Y46244100D03*
%TD*%
D43*
%TO.C,RN3*%
X25510050Y82455600D03*
D44*
X25510050Y81655600D03*
X25510050Y80855600D03*
D43*
X25510050Y80055600D03*
X27310050Y80055600D03*
D44*
X27310050Y80855600D03*
X27310050Y81655600D03*
D43*
X27310050Y82455600D03*
%TD*%
D17*
%TO.C,R64*%
X44279450Y45898800D03*
X45929450Y45898800D03*
%TD*%
D31*
%TO.C,Q9*%
X92211250Y13262100D03*
X94111250Y13262100D03*
X93161250Y15137100D03*
%TD*%
D19*
%TO.C,D72*%
X34182450Y94875399D03*
X34182450Y92375401D03*
%TD*%
D45*
%TO.C,C47*%
X65409250Y46000400D03*
X63509250Y46000400D03*
%TD*%
D31*
%TO.C,Q17*%
X44002050Y47806100D03*
X45902050Y47806100D03*
X44952050Y49681100D03*
%TD*%
D46*
%TO.C,U17*%
X151790450Y48631200D03*
D47*
X152545450Y53256200D03*
X155595450Y53256200D03*
X152545450Y56606200D03*
X155595450Y56606200D03*
D46*
X156350450Y48631200D03*
%TD*%
D48*
%TO.C,SW4*%
X52381850Y48438800D03*
X52381850Y45898800D03*
X60991850Y45898800D03*
X60991850Y48438800D03*
%TD*%
D17*
%TO.C,R31*%
X92082250Y22784800D03*
X93732250Y22784800D03*
%TD*%
D29*
%TO.C,R9*%
X88832350Y84227400D03*
X88832350Y82577400D03*
%TD*%
D49*
%TO.C,U6*%
X130480950Y74343800D03*
X130480950Y73693800D03*
X130480950Y73043800D03*
X130480950Y72393800D03*
X130480950Y71743800D03*
X130480950Y71093800D03*
X134780950Y71093800D03*
X134780950Y71743800D03*
X134780950Y72393800D03*
X134780950Y73043800D03*
X134780950Y73693800D03*
X134780950Y74343800D03*
%TD*%
D43*
%TO.C,RN6*%
X97464850Y15692000D03*
D44*
X97464850Y16492000D03*
X97464850Y17292000D03*
D43*
X97464850Y18092000D03*
X95664850Y18092000D03*
D44*
X95664850Y17292000D03*
X95664850Y16492000D03*
D43*
X95664850Y15692000D03*
%TD*%
D20*
%TO.C,D67*%
X14835251Y77267799D03*
X12960249Y77267799D03*
%TD*%
D29*
%TO.C,R82*%
X153562450Y74968600D03*
X153562450Y73318600D03*
%TD*%
D31*
%TO.C,Q3*%
X148497650Y68837300D03*
X150397650Y68837300D03*
X149447650Y70712300D03*
%TD*%
D21*
%TO.C,R70*%
X145637650Y58979800D03*
X145637650Y60629800D03*
%TD*%
D32*
%TO.C,D6*%
X73871034Y16999492D03*
X73871034Y15124492D03*
%TD*%
D27*
%TO.C,R60*%
X77084350Y77814400D03*
X75434350Y77814400D03*
%TD*%
D50*
%TO.C,J3*%
X110312850Y20200200D03*
X110312850Y19100200D03*
X110312850Y18000200D03*
X110312850Y16900200D03*
X110312850Y15800200D03*
X110312850Y14700200D03*
X110312850Y13600200D03*
D51*
X110312850Y12550200D03*
D52*
X104162850Y22835200D03*
X100462850Y22835200D03*
D53*
X110187850Y22660200D03*
D54*
X109962850Y11340200D03*
D55*
X99487850Y13365200D03*
X99487850Y19335200D03*
%TD*%
D56*
%TO.C,U8*%
X71987450Y35015000D03*
X71337450Y35015000D03*
X70687450Y35015000D03*
X70037450Y35015000D03*
X70037450Y36615000D03*
X70687450Y36615000D03*
X71337450Y36615000D03*
X71987450Y36615000D03*
%TD*%
D14*
%TO.C,R62*%
X84996950Y49800100D03*
X84996950Y51625100D03*
%TD*%
D11*
%TO.C,C49*%
X96833350Y68683400D03*
X96833350Y67133400D03*
%TD*%
%TO.C,C20*%
X83625350Y84050400D03*
X83625350Y82500400D03*
%TD*%
D14*
%TO.C,R84*%
X33674450Y66220700D03*
X33674450Y68045700D03*
%TD*%
D34*
%TO.C,C66*%
X79713750Y66729800D03*
X79713750Y68629800D03*
%TD*%
D32*
%TO.C,D12*%
X88095034Y22739892D03*
X88095034Y20864892D03*
%TD*%
D57*
%TO.C,C31*%
X99500350Y68731400D03*
X99500350Y66831400D03*
%TD*%
D31*
%TO.C,Q4*%
X152053649Y68837300D03*
X153953649Y68837300D03*
X153003649Y70712300D03*
%TD*%
D32*
%TO.C,D1*%
X85351834Y17253492D03*
X85351834Y15378492D03*
%TD*%
D29*
%TO.C,R39*%
X82101350Y76226400D03*
X82101350Y74576400D03*
%TD*%
D58*
%TO.C,D14*%
X133434450Y33910000D03*
X132034450Y33910000D03*
%TD*%
D11*
%TO.C,C71*%
X96833350Y76430400D03*
X96833350Y74880400D03*
%TD*%
D21*
%TO.C,R26*%
X75740914Y21080838D03*
X75740914Y22730838D03*
%TD*%
D59*
%TO.C,L1*%
X144875250Y50724800D03*
X138475250Y50724800D03*
%TD*%
D15*
%TO.C,U21*%
X50489250Y82909600D03*
X51759250Y82909600D03*
X53029250Y82909600D03*
X54299250Y82909600D03*
X54299250Y87859600D03*
X53029250Y87859600D03*
X51759250Y87859600D03*
X50489250Y87859600D03*
%TD*%
D29*
%TO.C,R73*%
X127857650Y92697800D03*
X127857650Y91047800D03*
%TD*%
D11*
%TO.C,C26*%
X96833350Y84177400D03*
X96833350Y82627400D03*
%TD*%
D17*
%TO.C,R32*%
X92056850Y17044400D03*
X93706850Y17044400D03*
%TD*%
D27*
%TO.C,R11*%
X83688350Y85815400D03*
X82038350Y85815400D03*
%TD*%
D29*
%TO.C,R15*%
X88705350Y76353400D03*
X88705350Y74703400D03*
%TD*%
D17*
%TO.C,R33*%
X147708250Y46457600D03*
X149358250Y46457600D03*
%TD*%
D16*
%TO.C,R48*%
X72957350Y48069100D03*
X72957350Y46244100D03*
%TD*%
D14*
%TO.C,R13*%
X74938550Y49800100D03*
X74938550Y51625100D03*
%TD*%
D17*
%TO.C,R65*%
X47937050Y46000400D03*
X49587050Y46000400D03*
%TD*%
D29*
%TO.C,R6*%
X82101350Y84100400D03*
X82101350Y82450400D03*
%TD*%
D27*
%TO.C,R14*%
X90419350Y85815400D03*
X88769350Y85815400D03*
%TD*%
D60*
%TO.C,C74*%
X60437750Y66476600D03*
X62337750Y66476600D03*
%TD*%
D61*
%TO.C,U9*%
X93853850Y47035400D03*
X93853850Y47685400D03*
X93853850Y48335400D03*
X93853850Y48985400D03*
X93853850Y49635400D03*
X93853850Y50285400D03*
X93853850Y50935400D03*
X88128850Y50935400D03*
X88128850Y50285400D03*
X88128850Y49635400D03*
X88128850Y48985400D03*
X88128850Y48335400D03*
X88128850Y47685400D03*
X88128850Y47035400D03*
%TD*%
D34*
%TO.C,C65*%
X135071250Y38243200D03*
X135071250Y40143200D03*
%TD*%
D62*
%TO.C,C40*%
X63530634Y13217192D03*
X62570634Y13217192D03*
%TD*%
D32*
%TO.C,D9*%
X73871034Y22841492D03*
X73871034Y20966492D03*
%TD*%
D30*
%TO.C,R17*%
X127804950Y65507600D03*
X125979950Y65507600D03*
%TD*%
%TO.C,R53*%
X95053450Y55487800D03*
X93228450Y55487800D03*
%TD*%
D40*
%TO.C,RN1*%
X9385850Y87543800D03*
D41*
X10185850Y87543800D03*
X10985850Y87543800D03*
D40*
X11785850Y87543800D03*
X11785850Y89343800D03*
D41*
X10985850Y89343800D03*
X10185850Y89343800D03*
D40*
X9385850Y89343800D03*
%TD*%
D34*
%TO.C,C18*%
X79815350Y82579400D03*
X79815350Y84479400D03*
%TD*%
D26*
%TO.C,Q10*%
X149388450Y48200000D03*
X149388450Y49150000D03*
X149388450Y50100000D03*
X147068450Y50100000D03*
X147068450Y49150000D03*
X147068450Y48200000D03*
%TD*%
D11*
%TO.C,C50*%
X90229350Y76303400D03*
X90229350Y74753400D03*
%TD*%
D34*
%TO.C,C68*%
X99627350Y74578400D03*
X99627350Y76478400D03*
%TD*%
D13*
%TO.C,D22*%
X21459350Y67793600D03*
X23334350Y67793600D03*
%TD*%
D34*
%TO.C,C70*%
X93023350Y74578400D03*
X93023350Y76478400D03*
%TD*%
D27*
%TO.C,R8*%
X103398750Y85917000D03*
X101748750Y85917000D03*
%TD*%
D63*
%TO.C,R1*%
X84743150Y26417000D03*
X81818150Y26417000D03*
%TD*%
D27*
%TO.C,R45*%
X103500350Y77941400D03*
X101850350Y77941400D03*
%TD*%
%TO.C,R75*%
X83637550Y70118200D03*
X81987550Y70118200D03*
%TD*%
D29*
%TO.C,R43*%
X101811750Y84354400D03*
X101811750Y82704400D03*
%TD*%
D64*
%TO.C,Y1*%
X36035627Y18194658D03*
X34479992Y16639023D03*
X35682073Y15436942D03*
X37237708Y16992577D03*
%TD*%
D34*
%TO.C,C56*%
X60598450Y57699600D03*
X60598450Y59599600D03*
%TD*%
D65*
%TO.C,U4*%
X142197250Y45035600D03*
X139897250Y45035600D03*
D66*
X139897250Y38735600D03*
D65*
X137597250Y45035600D03*
%TD*%
D67*
%TO.C,U3*%
X35231565Y24749996D03*
X35585118Y24396443D03*
X35938672Y24042889D03*
X36292225Y23689336D03*
X36645778Y23335783D03*
X36999332Y22982229D03*
X37352885Y22628676D03*
X37706439Y22275122D03*
X38059992Y21921569D03*
X38413545Y21568016D03*
X38767099Y21214462D03*
X39120652Y20860909D03*
X39474205Y20507355D03*
X39827759Y20153802D03*
X40181312Y19800249D03*
X40534866Y19446695D03*
X40888419Y19093142D03*
X41241972Y18739589D03*
X41595526Y18386035D03*
X41949079Y18032482D03*
X42302633Y17678928D03*
X42656186Y17325375D03*
X43009739Y16971822D03*
X43363293Y16618268D03*
X43716846Y16264715D03*
D68*
X46085654Y16264715D03*
X46439207Y16618268D03*
X46792761Y16971822D03*
X47146314Y17325375D03*
X47499867Y17678928D03*
X47853421Y18032482D03*
X48206974Y18386035D03*
X48560528Y18739589D03*
X48914081Y19093142D03*
X49267634Y19446695D03*
X49621188Y19800249D03*
X49974741Y20153802D03*
X50328295Y20507355D03*
X50681848Y20860909D03*
X51035401Y21214462D03*
X51388955Y21568016D03*
X51742508Y21921569D03*
X52096061Y22275122D03*
X52449615Y22628676D03*
X52803168Y22982229D03*
X53156722Y23335783D03*
X53510275Y23689336D03*
X53863828Y24042889D03*
X54217382Y24396443D03*
X54570935Y24749996D03*
D67*
X54570935Y27118804D03*
X54217382Y27472357D03*
X53863828Y27825911D03*
X53510275Y28179464D03*
X53156722Y28533017D03*
X52803168Y28886571D03*
X52449615Y29240124D03*
X52096061Y29593678D03*
X51742508Y29947231D03*
X51388955Y30300784D03*
X51035401Y30654338D03*
X50681848Y31007891D03*
X50328295Y31361445D03*
X49974741Y31714998D03*
X49621188Y32068551D03*
X49267634Y32422105D03*
X48914081Y32775658D03*
X48560528Y33129211D03*
X48206974Y33482765D03*
X47853421Y33836318D03*
X47499867Y34189872D03*
X47146314Y34543425D03*
X46792761Y34896978D03*
X46439207Y35250532D03*
X46085654Y35604085D03*
D68*
X43716846Y35604085D03*
X43363293Y35250532D03*
X43009739Y34896978D03*
X42656186Y34543425D03*
X42302633Y34189872D03*
X41949079Y33836318D03*
X41595526Y33482765D03*
X41241972Y33129211D03*
X40888419Y32775658D03*
X40534866Y32422105D03*
X40181312Y32068551D03*
X39827759Y31714998D03*
X39474205Y31361445D03*
X39120652Y31007891D03*
X38767099Y30654338D03*
X38413545Y30300784D03*
X38059992Y29947231D03*
X37706439Y29593678D03*
X37352885Y29240124D03*
X36999332Y28886571D03*
X36645778Y28533017D03*
X36292225Y28179464D03*
X35938672Y27825911D03*
X35585118Y27472357D03*
X35231565Y27118804D03*
%TD*%
D69*
%TO.C,C3*%
X38232401Y15303151D03*
X36888899Y13959649D03*
%TD*%
D45*
%TO.C,C62*%
X150397650Y60072000D03*
X148497650Y60072000D03*
%TD*%
D70*
%TO.C,R115*%
X41548450Y49901300D03*
X41548450Y46976300D03*
%TD*%
D22*
%TO.C,C28*%
X89605250Y29157600D03*
X89605250Y28197600D03*
%TD*%
D20*
%TO.C,D75*%
X14806563Y68583366D03*
X12931561Y68583366D03*
%TD*%
D34*
%TO.C,C45*%
X86419350Y74578400D03*
X86419350Y76478400D03*
%TD*%
D39*
%TO.C,D24*%
X132124850Y28056800D03*
X132124850Y26656800D03*
%TD*%
D45*
%TO.C,C41*%
X65409250Y48438800D03*
X63509250Y48438800D03*
%TD*%
D16*
%TO.C,R69*%
X78900950Y48069100D03*
X78900950Y46244100D03*
%TD*%
D17*
%TO.C,R22*%
X126303950Y76973800D03*
X127953950Y76973800D03*
%TD*%
D16*
%TO.C,R16*%
X88298950Y68592300D03*
X88298950Y66767300D03*
%TD*%
D34*
%TO.C,C55*%
X60090450Y52822800D03*
X60090450Y54722800D03*
%TD*%
D21*
%TO.C,R122*%
X37636850Y48680600D03*
X37636850Y50330600D03*
%TD*%
D57*
%TO.C,C72*%
X143250050Y75039800D03*
X143250050Y73139800D03*
%TD*%
D32*
%TO.C,D10*%
X78493834Y22739892D03*
X78493834Y20864892D03*
%TD*%
D34*
%TO.C,C24*%
X92921750Y82579400D03*
X92921750Y84479400D03*
%TD*%
%TO.C,C54*%
X47136450Y57699600D03*
X47136450Y59599600D03*
%TD*%
%TO.C,C37*%
X73058950Y74451400D03*
X73058950Y76351400D03*
%TD*%
D37*
%TO.C,C10*%
X56142099Y25539351D03*
X57485601Y24195849D03*
%TD*%
D31*
%TO.C,Q2*%
X141385650Y68837300D03*
X143285650Y68837300D03*
X142335650Y70712300D03*
%TD*%
D11*
%TO.C,C4*%
X76687350Y84177400D03*
X76687350Y82627400D03*
%TD*%
D29*
%TO.C,R54*%
X82050550Y68657200D03*
X82050550Y67007200D03*
%TD*%
D71*
%TO.C,F1*%
X52345350Y69744500D03*
X52345350Y65469500D03*
%TD*%
D29*
%TO.C,R79*%
X141383250Y74660301D03*
X141383250Y73010301D03*
%TD*%
D45*
%TO.C,C73*%
X62337750Y68673800D03*
X60437750Y68673800D03*
%TD*%
D72*
%TO.C,D23*%
X128873650Y30365200D03*
X128873650Y31765200D03*
%TD*%
D22*
%TO.C,C43*%
X66098634Y15170392D03*
X66098634Y14210392D03*
%TD*%
D31*
%TO.C,U15*%
X62862634Y14768892D03*
X64762634Y14768892D03*
X63812634Y16643892D03*
%TD*%
D27*
%TO.C,R37*%
X96896350Y85815400D03*
X95246350Y85815400D03*
%TD*%
D31*
%TO.C,Q12*%
X145094050Y78184500D03*
X146994050Y78184500D03*
X146044050Y80059500D03*
%TD*%
D20*
%TO.C,D43*%
X14835251Y83744800D03*
X12960249Y83744800D03*
%TD*%
D11*
%TO.C,C69*%
X103437350Y76430400D03*
X103437350Y74880400D03*
%TD*%
D27*
%TO.C,R40*%
X90292350Y77814400D03*
X88642350Y77814400D03*
%TD*%
D34*
%TO.C,C59*%
X32099650Y21987200D03*
X32099650Y23887200D03*
%TD*%
D43*
%TO.C,RN5*%
X97566450Y20619600D03*
D44*
X97566450Y21419600D03*
X97566450Y22219600D03*
D43*
X97566450Y23019600D03*
X95766450Y23019600D03*
D44*
X95766450Y22219600D03*
X95766450Y21419600D03*
D43*
X95766450Y20619600D03*
%TD*%
D30*
%TO.C,R18*%
X91548250Y57519800D03*
X89723250Y57519800D03*
%TD*%
D34*
%TO.C,C30*%
X73084350Y66729800D03*
X73084350Y68629800D03*
%TD*%
D29*
%TO.C,R36*%
X75010950Y84227400D03*
X75010950Y82577400D03*
%TD*%
D73*
%TO.C,Q16*%
X91573250Y61370400D03*
X91573250Y63270400D03*
X89698250Y62320400D03*
%TD*%
D28*
%TO.C,R72*%
X41904050Y51751500D03*
X41904050Y54676500D03*
%TD*%
D16*
%TO.C,R7*%
X80932950Y48069100D03*
X80932950Y46244100D03*
%TD*%
D15*
%TO.C,U24*%
X50489250Y73257600D03*
X51759250Y73257600D03*
X53029250Y73257600D03*
X54299250Y73257600D03*
X54299250Y78207600D03*
X53029250Y78207600D03*
X51759250Y78207600D03*
X50489250Y78207600D03*
%TD*%
D21*
%TO.C,R68*%
X145637650Y55881000D03*
X145637650Y57531000D03*
%TD*%
D69*
%TO.C,C13*%
X39680201Y13804551D03*
X38336699Y12461049D03*
%TD*%
D34*
%TO.C,C53*%
X44748850Y51908400D03*
X44748850Y53808400D03*
%TD*%
D43*
%TO.C,RN4*%
X25510050Y70073401D03*
D44*
X25510050Y69273401D03*
X25510050Y68473401D03*
D43*
X25510050Y67673401D03*
X27310050Y67673401D03*
D44*
X27310050Y68473401D03*
X27310050Y69273401D03*
D43*
X27310050Y70073401D03*
%TD*%
D74*
%TO.C,U1*%
X36437850Y89127800D03*
X36437850Y88477800D03*
X36437850Y87827800D03*
X36437850Y87177800D03*
X36437850Y86527800D03*
X36437850Y85877800D03*
X36437850Y85227800D03*
X36437850Y84577800D03*
X36437850Y83927800D03*
X36437850Y83277800D03*
X36437850Y82627800D03*
X36437850Y81977800D03*
X36437850Y81327800D03*
X36437850Y80677800D03*
X36437850Y80027800D03*
X36437850Y79377800D03*
X45947850Y79377800D03*
X45947850Y80027800D03*
X45947850Y80677800D03*
X45947850Y81327800D03*
X45947850Y81977800D03*
X45947850Y82627800D03*
X45947850Y83277800D03*
X45947850Y83927800D03*
X45947850Y84577800D03*
X45947850Y85227800D03*
X45947850Y85877800D03*
X45947850Y86527800D03*
X45947850Y87177800D03*
X45947850Y87827800D03*
X45947850Y88477800D03*
X45947850Y89127800D03*
%TD*%
D75*
%TO.C,U26*%
X73251350Y62193400D03*
X73251350Y60923400D03*
X73251350Y59653400D03*
X73251350Y58383400D03*
X73251350Y57113400D03*
X73251350Y55843400D03*
X73251350Y54573400D03*
X73251350Y53303400D03*
X78251350Y53303400D03*
X78251350Y54573400D03*
X78251350Y55843400D03*
X78251350Y57113400D03*
X78251350Y58383400D03*
X78251350Y59653400D03*
X78251350Y60923400D03*
X78251350Y62193400D03*
%TD*%
D29*
%TO.C,R3*%
X80340914Y16836192D03*
X80340914Y15186192D03*
%TD*%
D57*
%TO.C,C19*%
X147364850Y75207400D03*
X147364850Y73307400D03*
%TD*%
D34*
%TO.C,C1*%
X93023350Y66704400D03*
X93023350Y68604400D03*
%TD*%
D27*
%TO.C,R38*%
X76750350Y85739200D03*
X75100350Y85739200D03*
%TD*%
D57*
%TO.C,C22*%
X151378050Y75258200D03*
X151378050Y73358200D03*
%TD*%
D76*
%TO.C,Y3*%
X34284050Y20459200D03*
X34284050Y21859200D03*
%TD*%
D20*
%TO.C,D71*%
X14806563Y72901365D03*
X12931561Y72901365D03*
%TD*%
D32*
%TO.C,D13*%
X88145834Y16948692D03*
X88145834Y15073692D03*
%TD*%
D29*
%TO.C,R41*%
X75497350Y76226400D03*
X75497350Y74576400D03*
%TD*%
D13*
%TO.C,D17*%
X21459350Y78614000D03*
X23334350Y78614000D03*
%TD*%
D60*
%TO.C,C5*%
X42884450Y11862800D03*
X44784450Y11862800D03*
%TD*%
D77*
%TO.C,C29*%
X88451350Y70206800D03*
X88451350Y71756800D03*
%TD*%
D19*
%TO.C,D66*%
X28035650Y94928600D03*
X28035650Y92428602D03*
%TD*%
D29*
%TO.C,R81*%
X149396850Y74816200D03*
X149396850Y73166200D03*
%TD*%
D45*
%TO.C,C17*%
X77118650Y32640000D03*
X75218650Y32640000D03*
%TD*%
D31*
%TO.C,Q18*%
X47862850Y47856900D03*
X49762850Y47856900D03*
X48812850Y49731900D03*
%TD*%
D27*
%TO.C,R19*%
X128045950Y74833800D03*
X126395950Y74833800D03*
%TD*%
D29*
%TO.C,R46*%
X101913350Y76480400D03*
X101913350Y74830400D03*
%TD*%
D14*
%TO.C,R10*%
X80932950Y49800100D03*
X80932950Y51625100D03*
%TD*%
D20*
%TO.C,D65*%
X14865252Y79426800D03*
X12990250Y79426800D03*
%TD*%
D31*
%TO.C,Q19*%
X101471350Y66970900D03*
X103371350Y66970900D03*
X102421350Y68845900D03*
%TD*%
D78*
%TO.C,U20*%
X69731450Y78174500D03*
X69081450Y78174500D03*
X68431450Y78174500D03*
X67781450Y78174500D03*
X67131450Y78174500D03*
X66481450Y78174500D03*
X65831450Y78174500D03*
X65181450Y78174500D03*
X65181450Y72449500D03*
X65831450Y72449500D03*
X66481450Y72449500D03*
X67131450Y72449500D03*
X67781450Y72449500D03*
X68431450Y72449500D03*
X69081450Y72449500D03*
X69731450Y72449500D03*
%TD*%
D28*
%TO.C,R117*%
X57398050Y52299600D03*
X57398050Y55224600D03*
%TD*%
D69*
%TO.C,C15*%
X48417801Y14947551D03*
X47074299Y13604049D03*
%TD*%
D27*
%TO.C,R76*%
X96896350Y77941400D03*
X95246350Y77941400D03*
%TD*%
D70*
%TO.C,R21*%
X123031650Y84343700D03*
X123031650Y81418700D03*
%TD*%
D19*
%TO.C,D47*%
X24073250Y94928600D03*
X24073250Y92428602D03*
%TD*%
D13*
%TO.C,D21*%
X21459350Y69978000D03*
X23334350Y69978000D03*
%TD*%
D27*
%TO.C,R34*%
X150323450Y78283800D03*
X148673450Y78283800D03*
%TD*%
D21*
%TO.C,R28*%
X90127750Y70156800D03*
X90127750Y71806800D03*
%TD*%
D13*
%TO.C,D20*%
X21459350Y72111600D03*
X23334350Y72111600D03*
%TD*%
D34*
%TO.C,C21*%
X86292350Y82579400D03*
X86292350Y84479400D03*
%TD*%
D57*
%TO.C,C57*%
X62681250Y59599600D03*
X62681250Y57699600D03*
%TD*%
D60*
%TO.C,C6*%
X42859050Y13945600D03*
X44759050Y13945600D03*
%TD*%
D74*
%TO.C,U13*%
X36234650Y73735400D03*
X36234650Y73085400D03*
X36234650Y72435400D03*
X36234650Y71785400D03*
X36234650Y71135400D03*
X36234650Y70485400D03*
X36234650Y69835400D03*
X36234650Y69185400D03*
X36234650Y68535400D03*
X36234650Y67885400D03*
X36234650Y67235400D03*
X36234650Y66585400D03*
X36234650Y65935400D03*
X36234650Y65285400D03*
X36234650Y64635400D03*
X36234650Y63985400D03*
X45744650Y63985400D03*
X45744650Y64635400D03*
X45744650Y65285400D03*
X45744650Y65935400D03*
X45744650Y66585400D03*
X45744650Y67235400D03*
X45744650Y67885400D03*
X45744650Y68535400D03*
X45744650Y69185400D03*
X45744650Y69835400D03*
X45744650Y70485400D03*
X45744650Y71135400D03*
X45744650Y71785400D03*
X45744650Y72435400D03*
X45744650Y73085400D03*
X45744650Y73735400D03*
%TD*%
D45*
%TO.C,C64*%
X156696850Y46076600D03*
X154796850Y46076600D03*
%TD*%
D14*
%TO.C,R57*%
X82964950Y49800100D03*
X82964950Y51625100D03*
%TD*%
D79*
%TO.C,D11*%
X144994050Y82220800D03*
X147094050Y82220800D03*
%TD*%
D32*
%TO.C,D5*%
X83116634Y17253492D03*
X83116634Y15378492D03*
%TD*%
D80*
%TO.C,C48*%
X64958234Y13166392D03*
X65918234Y13166392D03*
%TD*%
D31*
%TO.C,Q8*%
X92160450Y19104100D03*
X94060450Y19104100D03*
X93110450Y20979100D03*
%TD*%
D81*
%TO.C,C8*%
X47861699Y36921249D03*
X49205201Y38264751D03*
%TD*%
D82*
%TO.C,U14*%
X132190850Y29826100D03*
X133140850Y29826100D03*
X134090850Y29826100D03*
X134090850Y32101100D03*
X132190850Y32101100D03*
%TD*%
D14*
%TO.C,R83*%
X33776050Y80927300D03*
X33776050Y82752300D03*
%TD*%
D18*
%TO.C,D3*%
X127992950Y67384800D03*
X126592950Y67384800D03*
%TD*%
D27*
%TO.C,R78*%
X96896350Y70321400D03*
X95246350Y70321400D03*
%TD*%
D83*
%TO.C,D26*%
X148279250Y56788800D03*
X148279250Y52788800D03*
%TD*%
D27*
%TO.C,R23*%
X131153950Y76973800D03*
X129503950Y76973800D03*
%TD*%
D11*
%TO.C,C35*%
X103335750Y84304400D03*
X103335750Y82754400D03*
%TD*%
D84*
%TO.C,U12*%
X82154250Y32259000D03*
X82154250Y30989000D03*
X82154250Y29719000D03*
X82154250Y28449000D03*
X87404250Y28449000D03*
X87404250Y29719000D03*
X87404250Y30989000D03*
X87404250Y32259000D03*
%TD*%
D85*
%TO.C,R51*%
X93634850Y61736200D03*
X95459850Y61736200D03*
%TD*%
D30*
%TO.C,R49*%
X91548250Y59551800D03*
X89723250Y59551800D03*
%TD*%
D86*
%TO.C,D15*%
X68226267Y39427475D03*
X66458501Y37659709D03*
%TD*%
D87*
%TO.C,U25*%
X99231850Y58336000D03*
X100501850Y58336000D03*
X101771850Y58336000D03*
X103041850Y58336000D03*
X103041850Y63586000D03*
X101771850Y63586000D03*
X100501850Y63586000D03*
X99231850Y63586000D03*
%TD*%
D57*
%TO.C,C51*%
X155492850Y75156600D03*
X155492850Y73256600D03*
%TD*%
D13*
%TO.C,D77*%
X21459350Y82881200D03*
X23334350Y82881200D03*
%TD*%
D27*
%TO.C,R42*%
X83688350Y77687400D03*
X82038350Y77687400D03*
%TD*%
D45*
%TO.C,C2*%
X32359850Y20143200D03*
X30459850Y20143200D03*
%TD*%
D31*
%TO.C,Q1*%
X144941650Y68837299D03*
X146841650Y68837299D03*
X145891650Y70712299D03*
%TD*%
D61*
%TO.C,U10*%
X102693050Y47086200D03*
X102693050Y47736200D03*
X102693050Y48386200D03*
X102693050Y49036200D03*
X102693050Y49686200D03*
X102693050Y50336200D03*
X102693050Y50986200D03*
X96968050Y50986200D03*
X96968050Y50336200D03*
X96968050Y49686200D03*
X96968050Y49036200D03*
X96968050Y48386200D03*
X96968050Y47736200D03*
X96968050Y47086200D03*
%TD*%
D30*
%TO.C,R50*%
X91548250Y55487800D03*
X89723250Y55487800D03*
%TD*%
D78*
%TO.C,U22*%
X69680650Y88131300D03*
X69030650Y88131300D03*
X68380650Y88131300D03*
X67730650Y88131300D03*
X67080650Y88131300D03*
X66430650Y88131300D03*
X65780650Y88131300D03*
X65130650Y88131300D03*
X65130650Y82406300D03*
X65780650Y82406300D03*
X66430650Y82406300D03*
X67080650Y82406300D03*
X67730650Y82406300D03*
X68380650Y82406300D03*
X69030650Y82406300D03*
X69680650Y82406300D03*
%TD*%
D88*
%TO.C,R2*%
X34818287Y31751837D03*
X35985013Y32918563D03*
%TD*%
D14*
%TO.C,R55*%
X76919750Y49800100D03*
X76919750Y51625100D03*
%TD*%
D34*
%TO.C,C25*%
X86266950Y66729800D03*
X86266950Y68629800D03*
%TD*%
D13*
%TO.C,D18*%
X21459350Y76429600D03*
X23334350Y76429600D03*
%TD*%
D89*
%TO.C,SW1*%
X25647650Y40737600D03*
X31947650Y40737600D03*
X25647650Y36937600D03*
X31947650Y36937600D03*
%TD*%
D29*
%TO.C,R35*%
X143402450Y79540600D03*
X143402450Y77890600D03*
%TD*%
D90*
%TO.C,C63*%
X141167250Y57575200D03*
X141167250Y62975200D03*
%TD*%
D19*
%TO.C,D76*%
X38373450Y94951599D03*
X38373450Y92451601D03*
%TD*%
%TO.C,D68*%
X30016849Y94928599D03*
X30016849Y92428601D03*
%TD*%
D21*
%TO.C,R121*%
X36112850Y48680600D03*
X36112850Y50330600D03*
%TD*%
D28*
%TO.C,R116*%
X57448850Y56973200D03*
X57448850Y59898200D03*
%TD*%
D91*
%TO.C,U16*%
X152046050Y62383400D03*
X152046050Y63653400D03*
X152046050Y64923400D03*
X152046050Y66193400D03*
X146646050Y66193400D03*
X146646050Y64923400D03*
X146646050Y63653400D03*
X146646050Y62383400D03*
D92*
X149346050Y64288400D03*
%TD*%
D57*
%TO.C,C36*%
X137192950Y74176800D03*
X137192950Y72276800D03*
%TD*%
D34*
%TO.C,C9*%
X34182450Y38802000D03*
X34182450Y40702000D03*
%TD*%
D16*
%TO.C,R63*%
X84996950Y48069100D03*
X84996950Y46244100D03*
%TD*%
D70*
%TO.C,R120*%
X54197650Y59898200D03*
X54197650Y56973200D03*
%TD*%
D34*
%TO.C,C58*%
X30067650Y21987200D03*
X30067650Y23887200D03*
%TD*%
D19*
%TO.C,D70*%
X32201250Y94875399D03*
X32201250Y92375401D03*
%TD*%
D11*
%TO.C,C60*%
X134106050Y28081000D03*
X134106050Y26531000D03*
%TD*%
D93*
%TO.C,U7*%
X70003250Y30379400D03*
X70003250Y29109400D03*
X70003250Y27839400D03*
X70003250Y26569400D03*
X77203250Y26569400D03*
X77203250Y27839400D03*
X77203250Y29109400D03*
X77203250Y30379400D03*
%TD*%
D11*
%TO.C,C67*%
X83574550Y68607200D03*
X83574550Y67057200D03*
%TD*%
D31*
%TO.C,Q11*%
X148700850Y80267300D03*
X150600850Y80267300D03*
X149650850Y82142300D03*
%TD*%
D81*
%TO.C,C14*%
X45118499Y37530849D03*
X46462001Y38874351D03*
%TD*%
D94*
%TO.C,U2*%
X82293350Y62193400D03*
X82293350Y60923400D03*
X82293350Y59653400D03*
X82293350Y58383400D03*
X82293350Y57113400D03*
X82293350Y55843400D03*
X82293350Y54573400D03*
X82293350Y53303400D03*
X87243350Y53303400D03*
X87243350Y54573400D03*
X87243350Y55843400D03*
X87243350Y57113400D03*
X87243350Y58383400D03*
X87243350Y59653400D03*
X87243350Y60923400D03*
X87243350Y62193400D03*
%TD*%
D95*
%TO.C,U11*%
X64568201Y42204077D03*
X63896450Y41532326D03*
X63224699Y40860575D03*
X64833367Y39251907D03*
X65505118Y39923658D03*
X66176869Y40595409D03*
%TD*%
D37*
%TO.C,C7*%
X55786499Y22872351D03*
X57130001Y21528849D03*
%TD*%
D21*
%TO.C,R5*%
X85340914Y19055838D03*
X85340914Y20705838D03*
%TD*%
D34*
%TO.C,C32*%
X73029750Y82452400D03*
X73029750Y84352400D03*
%TD*%
D31*
%TO.C,Q15*%
X96619950Y53559700D03*
X98519950Y53559700D03*
X97569950Y55434700D03*
%TD*%
D29*
%TO.C,R30*%
X90025434Y16886992D03*
X90025434Y15236992D03*
%TD*%
D15*
%TO.C,U30*%
X59125250Y73257600D03*
X60395250Y73257600D03*
X61665250Y73257600D03*
X62935250Y73257600D03*
X62935250Y78207600D03*
X61665250Y78207600D03*
X60395250Y78207600D03*
X59125250Y78207600D03*
%TD*%
D21*
%TO.C,R29*%
X90076234Y21028192D03*
X90076234Y22678192D03*
%TD*%
D20*
%TO.C,D69*%
X14806562Y75060365D03*
X12931560Y75060365D03*
%TD*%
D27*
%TO.C,R85*%
X103500350Y70702400D03*
X101850350Y70702400D03*
%TD*%
D11*
%TO.C,C44*%
X83625350Y76176400D03*
X83625350Y74626400D03*
%TD*%
M02*
