%TF.GenerationSoftware,KiCad,Pcbnew,7.0.7-2.fc38*%
%TF.CreationDate,2023-10-14T02:21:00-03:00*%
%TF.ProjectId,OpenEFI_rev4,4f70656e-4546-4495-9f72-6576342e6b69,v3.0*%
%TF.SameCoordinates,Original*%
%TF.FileFunction,Soldermask,Bot*%
%TF.FilePolarity,Negative*%
%FSLAX46Y46*%
G04 Gerber Fmt 4.6, Leading zero omitted, Abs format (unit mm)*
G04 Created by KiCad (PCBNEW 7.0.7-2.fc38) date 2023-10-14 02:21:00*
%MOMM*%
%LPD*%
G01*
G04 APERTURE LIST*
G04 Aperture macros list*
%AMRoundRect*
0 Rectangle with rounded corners*
0 $1 Rounding radius*
0 $2 $3 $4 $5 $6 $7 $8 $9 X,Y pos of 4 corners*
0 Add a 4 corners polygon primitive as box body*
4,1,4,$2,$3,$4,$5,$6,$7,$8,$9,$2,$3,0*
0 Add four circle primitives for the rounded corners*
1,1,$1+$1,$2,$3*
1,1,$1+$1,$4,$5*
1,1,$1+$1,$6,$7*
1,1,$1+$1,$8,$9*
0 Add four rect primitives between the rounded corners*
20,1,$1+$1,$2,$3,$4,$5,0*
20,1,$1+$1,$4,$5,$6,$7,0*
20,1,$1+$1,$6,$7,$8,$9,0*
20,1,$1+$1,$8,$9,$2,$3,0*%
G04 Aperture macros list end*
%ADD10R,1.700000X1.700000*%
%ADD11O,1.700000X1.700000*%
%ADD12R,1.905000X2.000000*%
%ADD13O,1.905000X2.000000*%
%ADD14R,1.000000X1.000000*%
%ADD15C,4.000000*%
%ADD16C,2.500000*%
%ADD17RoundRect,0.102000X0.975000X0.975000X-0.975000X0.975000X-0.975000X-0.975000X0.975000X-0.975000X0*%
%ADD18C,2.154000*%
%ADD19C,1.712000*%
%ADD20R,1.100000X1.100000*%
%ADD21C,1.100000*%
%ADD22O,1.100000X2.400000*%
%ADD23O,3.500000X2.200000*%
%ADD24R,2.500000X1.500000*%
%ADD25O,2.500000X1.500000*%
%ADD26R,3.000000X3.000000*%
%ADD27C,3.000000*%
%ADD28C,1.524000*%
%ADD29RoundRect,0.102000X-0.765000X-0.765000X0.765000X-0.765000X0.765000X0.765000X-0.765000X0.765000X0*%
%ADD30C,1.734000*%
%ADD31C,2.374900*%
%ADD32C,0.990600*%
G04 APERTURE END LIST*
D10*
%TO.C,J4*%
X175135000Y-119800000D03*
D11*
X177675000Y-119800000D03*
X175135000Y-122340000D03*
X177675000Y-122340000D03*
X175135000Y-124880000D03*
X177675000Y-124880000D03*
X175135000Y-127420000D03*
X177675000Y-127420000D03*
X175135000Y-129960000D03*
X177675000Y-129960000D03*
X175135000Y-132500000D03*
X177675000Y-132500000D03*
X175135000Y-135040000D03*
X177675000Y-135040000D03*
X175135000Y-137580000D03*
X177675000Y-137580000D03*
%TD*%
D12*
%TO.C,Q7*%
X289650800Y-82500800D03*
D13*
X292190800Y-82500800D03*
X294730800Y-82500800D03*
%TD*%
D12*
%TO.C,Q6*%
X289650800Y-76540800D03*
D13*
X292190800Y-76540800D03*
X294730800Y-76540800D03*
%TD*%
D14*
%TO.C,TP20*%
X184042300Y-77537600D03*
%TD*%
D10*
%TO.C,J7*%
X291875800Y-129323600D03*
D11*
X291875800Y-131863600D03*
X291875800Y-134403600D03*
X291875800Y-136943600D03*
%TD*%
D14*
%TO.C,TP21*%
X310605800Y-111553600D03*
%TD*%
D15*
%TO.C,J6*%
X262090800Y-50014400D03*
D16*
X260140800Y-57814400D03*
D15*
X188040800Y-49864400D03*
D16*
X138340800Y-57814400D03*
D15*
X136390800Y-50014400D03*
D17*
X255490800Y-55014400D03*
D18*
X249690800Y-55014400D03*
X252590800Y-57344400D03*
X255490800Y-63144400D03*
X249690800Y-63144400D03*
D19*
X196060800Y-63144400D03*
X198600800Y-63144400D03*
X201140800Y-63144400D03*
X203680800Y-63144400D03*
X206220800Y-63144400D03*
X208760800Y-63144400D03*
X211300800Y-63144400D03*
X213840800Y-63144400D03*
X216380800Y-63144400D03*
X218920800Y-63144400D03*
X221460800Y-63144400D03*
X224000800Y-63144400D03*
X226540800Y-63144400D03*
X229080800Y-63144400D03*
X231620800Y-63144400D03*
X234160800Y-63144400D03*
X236700800Y-63144400D03*
X239240800Y-63144400D03*
X241780800Y-63144400D03*
X196060800Y-60604400D03*
X198600800Y-60604400D03*
X201140800Y-60604400D03*
X203680800Y-60604400D03*
X206220800Y-60604400D03*
X208760800Y-60604400D03*
X211300800Y-60604400D03*
X213840800Y-60604400D03*
X216380800Y-60604400D03*
X218920800Y-60604400D03*
X221460800Y-60604400D03*
X224000800Y-60604400D03*
X226540800Y-60604400D03*
X229080800Y-60604400D03*
X231620800Y-60604400D03*
X234160800Y-60604400D03*
X236700800Y-60604400D03*
X239240800Y-60604400D03*
X241780800Y-60604400D03*
X196060800Y-54554400D03*
X198600800Y-54554400D03*
X201140800Y-54554400D03*
X203680800Y-54554400D03*
X206220800Y-54554400D03*
X208760800Y-54554400D03*
X211300800Y-54554400D03*
X213840800Y-54554400D03*
X216380800Y-54554400D03*
X218920800Y-54554400D03*
X221460800Y-54554400D03*
X224000800Y-54554400D03*
X226540800Y-54554400D03*
X229080800Y-54554400D03*
X231620800Y-54554400D03*
X234160800Y-54554400D03*
X236700800Y-54554400D03*
X239240800Y-54554400D03*
X241780800Y-54554400D03*
X196060800Y-52014400D03*
X198600800Y-52014400D03*
X201140800Y-52014400D03*
X203680800Y-52014400D03*
X206220800Y-52014400D03*
X208760800Y-52014400D03*
X211300800Y-52014400D03*
X213840800Y-52014400D03*
X216380800Y-52014400D03*
X218920800Y-52014400D03*
X221460800Y-52014400D03*
X224000800Y-52014400D03*
X226540800Y-52014400D03*
X229080800Y-52014400D03*
X231620800Y-52014400D03*
X234160800Y-52014400D03*
X236700800Y-52014400D03*
X239240800Y-52014400D03*
X241780800Y-52014400D03*
X180120800Y-52014400D03*
X177580800Y-52014400D03*
X175040800Y-52014400D03*
X172500800Y-52014400D03*
X169960800Y-52014400D03*
X167420800Y-52014400D03*
X164880800Y-52014400D03*
X162340800Y-52014400D03*
X180120800Y-54554400D03*
X177580800Y-54554400D03*
X175040800Y-54554400D03*
X172500800Y-54554400D03*
X169960800Y-54554400D03*
X167420800Y-54554400D03*
X164880800Y-54554400D03*
X162340800Y-54554400D03*
X180120800Y-60604400D03*
X177580800Y-60604400D03*
X175040800Y-60604400D03*
X172500800Y-60604400D03*
X169960800Y-60604400D03*
X167420800Y-60604400D03*
X164880800Y-60604400D03*
X162340800Y-60604400D03*
X180120800Y-63144400D03*
X177580800Y-63144400D03*
X175040800Y-63144400D03*
X172500800Y-63144400D03*
X169960800Y-63144400D03*
X167420800Y-63144400D03*
X164880800Y-63144400D03*
X162340800Y-63144400D03*
D18*
X154440800Y-55014400D03*
X148640800Y-55014400D03*
X142840800Y-55014400D03*
X151540800Y-57344400D03*
X145740800Y-57344400D03*
X154440800Y-63144400D03*
X148640800Y-63144400D03*
X142840800Y-63144400D03*
%TD*%
D20*
%TO.C,J1*%
X222961600Y-112928400D03*
D21*
X223761600Y-111178400D03*
X224561600Y-112928400D03*
X225361600Y-111178400D03*
X226161600Y-112928400D03*
D22*
X220911600Y-112053400D03*
X228211600Y-112053400D03*
%TD*%
D23*
%TO.C,SW2*%
X168160000Y-152270000D03*
X168160000Y-144070000D03*
D24*
X168160000Y-150170000D03*
D25*
X168160000Y-148170000D03*
X168160000Y-146170000D03*
%TD*%
D12*
%TO.C,U5*%
X289650800Y-94420800D03*
D13*
X292190800Y-94420800D03*
X294730800Y-94420800D03*
%TD*%
D14*
%TO.C,TP17*%
X310605800Y-105453600D03*
%TD*%
D12*
%TO.C,Q10*%
X289650800Y-88460800D03*
D13*
X292190800Y-88460800D03*
X294730800Y-88460800D03*
%TD*%
D14*
%TO.C,TP16*%
X307555800Y-114603600D03*
%TD*%
%TO.C,TP12*%
X307555800Y-108503600D03*
%TD*%
D26*
%TO.C,BT1*%
X271780000Y-113182400D03*
D27*
X251290000Y-113182400D03*
%TD*%
D14*
%TO.C,TP11*%
X307555800Y-105453600D03*
%TD*%
%TO.C,TP19*%
X270408400Y-142240000D03*
%TD*%
D28*
%TO.C,U19*%
X271576800Y-72644000D03*
X269036800Y-72644000D03*
X266496800Y-72644000D03*
X263956800Y-72644000D03*
X261416800Y-72644000D03*
X258876800Y-72644000D03*
X256336800Y-72644000D03*
X253796800Y-72644000D03*
X271576800Y-98044000D03*
X269036800Y-98044000D03*
X266496800Y-98044000D03*
X263956800Y-98044000D03*
X261416800Y-98044000D03*
X258876800Y-98044000D03*
X256336800Y-98044000D03*
X253796800Y-98044000D03*
%TD*%
D14*
%TO.C,TP18*%
X310605800Y-108503600D03*
%TD*%
%TO.C,TP14*%
X270408400Y-133090000D03*
%TD*%
%TO.C,TP23*%
X184042300Y-80587600D03*
%TD*%
%TO.C,TP25*%
X184042300Y-83637600D03*
%TD*%
D23*
%TO.C,SW3*%
X174605000Y-152270000D03*
X174605000Y-144070000D03*
D24*
X174605000Y-150170000D03*
D25*
X174605000Y-148170000D03*
X174605000Y-146170000D03*
%TD*%
D29*
%TO.C,U23*%
X217145000Y-165035000D03*
D30*
X217145000Y-167575000D03*
X217145000Y-170115000D03*
X217145000Y-172655000D03*
X217145000Y-175195000D03*
X217145000Y-177735000D03*
X217145000Y-180275000D03*
X217145000Y-182815000D03*
X229845000Y-182815000D03*
X229845000Y-180275000D03*
X229845000Y-177735000D03*
X229845000Y-175195000D03*
X229845000Y-172655000D03*
X229845000Y-170115000D03*
X229845000Y-167575000D03*
X229845000Y-165035000D03*
%TD*%
D14*
%TO.C,TP13*%
X307555800Y-111553600D03*
%TD*%
%TO.C,TP10*%
X223250400Y-134954600D03*
%TD*%
D31*
%TO.C,J2*%
X209079400Y-74661600D03*
D32*
X209079400Y-77201600D03*
D31*
X209079400Y-79741600D03*
X212254400Y-74661600D03*
X212254400Y-79741600D03*
D32*
X214159400Y-76185600D03*
X214159400Y-78217600D03*
%TD*%
D14*
%TO.C,TP15*%
X270408400Y-136140000D03*
%TD*%
M02*
