%TF.GenerationSoftware,KiCad,Pcbnew,7.0.8-1.fc38*%
%TF.CreationDate,2023-10-16T01:27:14-03:00*%
%TF.ProjectId,OpenEFI_rev4,4f70656e-4546-4495-9f72-6576342e6b69,v4*%
%TF.SameCoordinates,Original*%
%TF.FileFunction,Soldermask,Bot*%
%TF.FilePolarity,Negative*%
%FSLAX46Y46*%
G04 Gerber Fmt 4.6, Leading zero omitted, Abs format (unit mm)*
G04 Created by KiCad (PCBNEW 7.0.8-1.fc38) date 2023-10-16 01:27:14*
%MOMM*%
%LPD*%
G01*
G04 APERTURE LIST*
G04 Aperture macros list*
%AMRoundRect*
0 Rectangle with rounded corners*
0 $1 Rounding radius*
0 $2 $3 $4 $5 $6 $7 $8 $9 X,Y pos of 4 corners*
0 Add a 4 corners polygon primitive as box body*
4,1,4,$2,$3,$4,$5,$6,$7,$8,$9,$2,$3,0*
0 Add four circle primitives for the rounded corners*
1,1,$1+$1,$2,$3*
1,1,$1+$1,$4,$5*
1,1,$1+$1,$6,$7*
1,1,$1+$1,$8,$9*
0 Add four rect primitives between the rounded corners*
20,1,$1+$1,$2,$3,$4,$5,0*
20,1,$1+$1,$4,$5,$6,$7,0*
20,1,$1+$1,$6,$7,$8,$9,0*
20,1,$1+$1,$8,$9,$2,$3,0*%
G04 Aperture macros list end*
%ADD10R,1.700000X1.700000*%
%ADD11O,1.700000X1.700000*%
%ADD12R,1.500000X1.500000*%
%ADD13R,1.000000X1.000000*%
%ADD14C,4.000000*%
%ADD15C,2.500000*%
%ADD16RoundRect,0.102000X0.975000X0.975000X-0.975000X0.975000X-0.975000X-0.975000X0.975000X-0.975000X0*%
%ADD17C,2.154000*%
%ADD18C,1.712000*%
%ADD19R,1.100000X1.100000*%
%ADD20C,1.100000*%
%ADD21O,1.100000X2.400000*%
%ADD22RoundRect,0.250000X0.600000X0.750000X-0.600000X0.750000X-0.600000X-0.750000X0.600000X-0.750000X0*%
%ADD23O,1.700000X2.000000*%
%ADD24C,1.524000*%
%ADD25RoundRect,0.102000X-0.765000X-0.765000X0.765000X-0.765000X0.765000X0.765000X-0.765000X0.765000X0*%
%ADD26C,1.734000*%
%ADD27C,2.374900*%
%ADD28C,0.990600*%
G04 APERTURE END LIST*
D10*
%TO.C,J4*%
X54709700Y-96319200D03*
D11*
X57249700Y-96319200D03*
X54709700Y-98859200D03*
X57249700Y-98859200D03*
X54709700Y-101399200D03*
X57249700Y-101399200D03*
X54709700Y-103939200D03*
X57249700Y-103939200D03*
X54709700Y-106479200D03*
X57249700Y-106479200D03*
X54709700Y-109019200D03*
X57249700Y-109019200D03*
X54709700Y-111559200D03*
X57249700Y-111559200D03*
X54709700Y-114099200D03*
X57249700Y-114099200D03*
%TD*%
D12*
%TO.C,TP33*%
X116391700Y-68125200D03*
%TD*%
%TO.C,TP27*%
X124011700Y-68125200D03*
%TD*%
%TO.C,TP69*%
X118971700Y-70665200D03*
%TD*%
%TO.C,TP73*%
X129131700Y-70665200D03*
%TD*%
D13*
%TO.C,TP20*%
X146403700Y-76761200D03*
%TD*%
D12*
%TO.C,TP24*%
X129091700Y-68125200D03*
%TD*%
D10*
%TO.C,J7*%
X192479300Y-144640000D03*
D11*
X192479300Y-147180000D03*
X192479300Y-149720000D03*
X192479300Y-152260000D03*
%TD*%
D13*
%TO.C,TP21*%
X151485700Y-68633200D03*
%TD*%
D14*
%TO.C,J6*%
X194626500Y-48035600D03*
D15*
X192676500Y-55835600D03*
D14*
X120576500Y-47885600D03*
D15*
X70876500Y-55835600D03*
D14*
X68926500Y-48035600D03*
D16*
X188026500Y-53035600D03*
D17*
X182226500Y-53035600D03*
X185126500Y-55365600D03*
X188026500Y-61165600D03*
X182226500Y-61165600D03*
D18*
X128596500Y-61165600D03*
X131136500Y-61165600D03*
X133676500Y-61165600D03*
X136216500Y-61165600D03*
X138756500Y-61165600D03*
X141296500Y-61165600D03*
X143836500Y-61165600D03*
X146376500Y-61165600D03*
X148916500Y-61165600D03*
X151456500Y-61165600D03*
X153996500Y-61165600D03*
X156536500Y-61165600D03*
X159076500Y-61165600D03*
X161616500Y-61165600D03*
X164156500Y-61165600D03*
X166696500Y-61165600D03*
X169236500Y-61165600D03*
X171776500Y-61165600D03*
X174316500Y-61165600D03*
X128596500Y-58625600D03*
X131136500Y-58625600D03*
X133676500Y-58625600D03*
X136216500Y-58625600D03*
X138756500Y-58625600D03*
X141296500Y-58625600D03*
X143836500Y-58625600D03*
X146376500Y-58625600D03*
X148916500Y-58625600D03*
X151456500Y-58625600D03*
X153996500Y-58625600D03*
X156536500Y-58625600D03*
X159076500Y-58625600D03*
X161616500Y-58625600D03*
X164156500Y-58625600D03*
X166696500Y-58625600D03*
X169236500Y-58625600D03*
X171776500Y-58625600D03*
X174316500Y-58625600D03*
X128596500Y-52575600D03*
X131136500Y-52575600D03*
X133676500Y-52575600D03*
X136216500Y-52575600D03*
X138756500Y-52575600D03*
X141296500Y-52575600D03*
X143836500Y-52575600D03*
X146376500Y-52575600D03*
X148916500Y-52575600D03*
X151456500Y-52575600D03*
X153996500Y-52575600D03*
X156536500Y-52575600D03*
X159076500Y-52575600D03*
X161616500Y-52575600D03*
X164156500Y-52575600D03*
X166696500Y-52575600D03*
X169236500Y-52575600D03*
X171776500Y-52575600D03*
X174316500Y-52575600D03*
X128596500Y-50035600D03*
X131136500Y-50035600D03*
X133676500Y-50035600D03*
X136216500Y-50035600D03*
X138756500Y-50035600D03*
X141296500Y-50035600D03*
X143836500Y-50035600D03*
X146376500Y-50035600D03*
X148916500Y-50035600D03*
X151456500Y-50035600D03*
X153996500Y-50035600D03*
X156536500Y-50035600D03*
X159076500Y-50035600D03*
X161616500Y-50035600D03*
X164156500Y-50035600D03*
X166696500Y-50035600D03*
X169236500Y-50035600D03*
X171776500Y-50035600D03*
X174316500Y-50035600D03*
X112656500Y-50035600D03*
X110116500Y-50035600D03*
X107576500Y-50035600D03*
X105036500Y-50035600D03*
X102496500Y-50035600D03*
X99956500Y-50035600D03*
X97416500Y-50035600D03*
X94876500Y-50035600D03*
X112656500Y-52575600D03*
X110116500Y-52575600D03*
X107576500Y-52575600D03*
X105036500Y-52575600D03*
X102496500Y-52575600D03*
X99956500Y-52575600D03*
X97416500Y-52575600D03*
X94876500Y-52575600D03*
X112656500Y-58625600D03*
X110116500Y-58625600D03*
X107576500Y-58625600D03*
X105036500Y-58625600D03*
X102496500Y-58625600D03*
X99956500Y-58625600D03*
X97416500Y-58625600D03*
X94876500Y-58625600D03*
X112656500Y-61165600D03*
X110116500Y-61165600D03*
X107576500Y-61165600D03*
X105036500Y-61165600D03*
X102496500Y-61165600D03*
X99956500Y-61165600D03*
X97416500Y-61165600D03*
X94876500Y-61165600D03*
D17*
X86976500Y-53035600D03*
X81176500Y-53035600D03*
X75376500Y-53035600D03*
X84076500Y-55365600D03*
X78276500Y-55365600D03*
X86976500Y-61165600D03*
X81176500Y-61165600D03*
X75376500Y-61165600D03*
%TD*%
D19*
%TO.C,J1*%
X102309700Y-138737200D03*
D20*
X103109700Y-136987200D03*
X103909700Y-138737200D03*
X104709700Y-136987200D03*
X105509700Y-138737200D03*
D21*
X100259700Y-137862200D03*
X107559700Y-137862200D03*
%TD*%
D12*
%TO.C,TP70*%
X121511700Y-70665200D03*
%TD*%
%TO.C,TP71*%
X124051700Y-70665200D03*
%TD*%
%TO.C,TP68*%
X116431700Y-70665200D03*
%TD*%
%TO.C,TP36*%
X155547700Y-114359200D03*
%TD*%
%TO.C,TP34*%
X113851700Y-68125200D03*
%TD*%
D13*
%TO.C,TP17*%
X145385700Y-68633200D03*
%TD*%
%TO.C,TP16*%
X154535700Y-71683200D03*
%TD*%
%TO.C,TP12*%
X148435700Y-71683200D03*
%TD*%
D22*
%TO.C,BT1*%
X60816500Y-127358000D03*
D23*
X58316500Y-127358000D03*
%TD*%
D13*
%TO.C,TP11*%
X145385700Y-71683200D03*
%TD*%
D12*
%TO.C,TP26*%
X126551700Y-68125200D03*
%TD*%
D13*
%TO.C,TP19*%
X206550900Y-122328800D03*
%TD*%
D24*
%TO.C,U19*%
X209497300Y-71173200D03*
X206957300Y-71173200D03*
X204417300Y-71173200D03*
X201877300Y-71173200D03*
X199337300Y-71173200D03*
X196797300Y-71173200D03*
X194257300Y-71173200D03*
X191717300Y-71173200D03*
X209497300Y-96573200D03*
X206957300Y-96573200D03*
X204417300Y-96573200D03*
X201877300Y-96573200D03*
X199337300Y-96573200D03*
X196797300Y-96573200D03*
X194257300Y-96573200D03*
X191717300Y-96573200D03*
%TD*%
D12*
%TO.C,TP22*%
X131631700Y-68125200D03*
%TD*%
%TO.C,TP35*%
X155547700Y-110809200D03*
%TD*%
D13*
%TO.C,TP18*%
X148435700Y-68633200D03*
%TD*%
D12*
%TO.C,TP32*%
X118931700Y-68125200D03*
%TD*%
D13*
%TO.C,TP14*%
X200708900Y-117500800D03*
%TD*%
%TO.C,TP23*%
X146403700Y-79811200D03*
%TD*%
%TO.C,TP25*%
X146403700Y-82861200D03*
%TD*%
D12*
%TO.C,TP74*%
X131671700Y-70665200D03*
%TD*%
%TO.C,TP67*%
X113891700Y-70665200D03*
%TD*%
%TO.C,TP72*%
X126591700Y-70665200D03*
%TD*%
%TO.C,TP31*%
X121471700Y-68125200D03*
%TD*%
D25*
%TO.C,U23*%
X156309700Y-79047200D03*
D26*
X156309700Y-81587200D03*
X156309700Y-84127200D03*
X156309700Y-86667200D03*
X156309700Y-89207200D03*
X156309700Y-91747200D03*
X156309700Y-94287200D03*
X156309700Y-96827200D03*
X169009700Y-96827200D03*
X169009700Y-94287200D03*
X169009700Y-91747200D03*
X169009700Y-89207200D03*
X169009700Y-86667200D03*
X169009700Y-84127200D03*
X169009700Y-81587200D03*
X169009700Y-79047200D03*
%TD*%
D13*
%TO.C,TP13*%
X151485700Y-71683200D03*
%TD*%
%TO.C,TP10*%
X155786100Y-132975800D03*
%TD*%
D27*
%TO.C,J2*%
X137677700Y-79510400D03*
D28*
X137677700Y-82050400D03*
D27*
X137677700Y-84590400D03*
X140852700Y-79510400D03*
X140852700Y-84590400D03*
D28*
X142757700Y-81034400D03*
X142757700Y-83066400D03*
%TD*%
D12*
%TO.C,TP37*%
X155547700Y-117909200D03*
%TD*%
D13*
%TO.C,TP15*%
X200708900Y-120550800D03*
%TD*%
M02*
