%TF.GenerationSoftware,KiCad,Pcbnew,(6.0.7)*%
%TF.CreationDate,2022-09-29T18:44:06-03:00*%
%TF.ProjectId,uEFI_rev3,75454649-5f72-4657-9633-2e6b69636164,v3.0*%
%TF.SameCoordinates,Original*%
%TF.FileFunction,Paste,Top*%
%TF.FilePolarity,Positive*%
%FSLAX46Y46*%
G04 Gerber Fmt 4.6, Leading zero omitted, Abs format (unit mm)*
G04 Created by KiCad (PCBNEW (6.0.7)) date 2022-09-29 18:44:06*
%MOMM*%
%LPD*%
G01*
G04 APERTURE LIST*
G04 Aperture macros list*
%AMRoundRect*
0 Rectangle with rounded corners*
0 $1 Rounding radius*
0 $2 $3 $4 $5 $6 $7 $8 $9 X,Y pos of 4 corners*
0 Add a 4 corners polygon primitive as box body*
4,1,4,$2,$3,$4,$5,$6,$7,$8,$9,$2,$3,0*
0 Add four circle primitives for the rounded corners*
1,1,$1+$1,$2,$3*
1,1,$1+$1,$4,$5*
1,1,$1+$1,$6,$7*
1,1,$1+$1,$8,$9*
0 Add four rect primitives between the rounded corners*
20,1,$1+$1,$2,$3,$4,$5,0*
20,1,$1+$1,$4,$5,$6,$7,0*
20,1,$1+$1,$6,$7,$8,$9,0*
20,1,$1+$1,$8,$9,$2,$3,0*%
%AMRotRect*
0 Rectangle, with rotation*
0 The origin of the aperture is its center*
0 $1 length*
0 $2 width*
0 $3 Rotation angle, in degrees counterclockwise*
0 Add horizontal line*
21,1,$1,$2,0,0,$3*%
G04 Aperture macros list end*
%ADD10R,0.600000X0.450000*%
%ADD11R,0.450000X0.600000*%
%ADD12RoundRect,0.225000X0.225000X0.250000X-0.225000X0.250000X-0.225000X-0.250000X0.225000X-0.250000X0*%
%ADD13RoundRect,0.200000X0.200000X0.275000X-0.200000X0.275000X-0.200000X-0.275000X0.200000X-0.275000X0*%
%ADD14RoundRect,0.200000X-0.200000X-0.275000X0.200000X-0.275000X0.200000X0.275000X-0.200000X0.275000X0*%
%ADD15RoundRect,0.150000X0.150000X-0.512500X0.150000X0.512500X-0.150000X0.512500X-0.150000X-0.512500X0*%
%ADD16RoundRect,0.200000X-0.275000X0.200000X-0.275000X-0.200000X0.275000X-0.200000X0.275000X0.200000X0*%
%ADD17RoundRect,0.200000X0.275000X-0.200000X0.275000X0.200000X-0.275000X0.200000X-0.275000X-0.200000X0*%
%ADD18R,0.600000X0.700000*%
%ADD19RoundRect,0.225000X-0.225000X-0.250000X0.225000X-0.250000X0.225000X0.250000X-0.225000X0.250000X0*%
%ADD20RoundRect,0.250000X0.475000X-0.250000X0.475000X0.250000X-0.475000X0.250000X-0.475000X-0.250000X0*%
%ADD21RoundRect,0.250000X0.512652X0.159099X0.159099X0.512652X-0.512652X-0.159099X-0.159099X-0.512652X0*%
%ADD22RoundRect,0.150000X0.150000X-0.587500X0.150000X0.587500X-0.150000X0.587500X-0.150000X-0.587500X0*%
%ADD23RoundRect,0.218750X-0.256250X0.218750X-0.256250X-0.218750X0.256250X-0.218750X0.256250X0.218750X0*%
%ADD24RoundRect,0.250000X0.550000X-1.500000X0.550000X1.500000X-0.550000X1.500000X-0.550000X-1.500000X0*%
%ADD25RoundRect,0.150000X-0.150000X0.825000X-0.150000X-0.825000X0.150000X-0.825000X0.150000X0.825000X0*%
%ADD26RoundRect,0.250000X-0.512652X-0.159099X-0.159099X-0.512652X0.512652X0.159099X0.159099X0.512652X0*%
%ADD27RoundRect,0.225000X0.250000X-0.225000X0.250000X0.225000X-0.250000X0.225000X-0.250000X-0.225000X0*%
%ADD28RoundRect,0.250000X-0.475000X0.250000X-0.475000X-0.250000X0.475000X-0.250000X0.475000X0.250000X0*%
%ADD29RoundRect,0.100000X0.100000X-0.637500X0.100000X0.637500X-0.100000X0.637500X-0.100000X-0.637500X0*%
%ADD30R,1.100000X1.100000*%
%ADD31R,0.800000X0.300000*%
%ADD32RoundRect,0.100000X-0.625000X-0.100000X0.625000X-0.100000X0.625000X0.100000X-0.625000X0.100000X0*%
%ADD33RoundRect,0.250000X-1.075000X0.312500X-1.075000X-0.312500X1.075000X-0.312500X1.075000X0.312500X0*%
%ADD34RoundRect,0.075000X-0.565685X0.459619X0.459619X-0.565685X0.565685X-0.459619X-0.459619X0.565685X0*%
%ADD35RoundRect,0.075000X-0.565685X-0.459619X-0.459619X-0.565685X0.565685X0.459619X0.459619X0.565685X0*%
%ADD36R,1.800000X2.500000*%
%ADD37RoundRect,0.250000X0.159099X-0.512652X0.512652X-0.159099X-0.159099X0.512652X-0.512652X0.159099X0*%
%ADD38RoundRect,0.250000X-0.625000X0.312500X-0.625000X-0.312500X0.625000X-0.312500X0.625000X0.312500X0*%
%ADD39R,4.550000X5.250000*%
%ADD40R,4.600000X1.100000*%
%ADD41RoundRect,0.250000X-0.250000X-0.475000X0.250000X-0.475000X0.250000X0.475000X-0.250000X0.475000X0*%
%ADD42RoundRect,0.250000X-0.159099X0.512652X-0.512652X0.159099X0.159099X-0.512652X0.512652X-0.159099X0*%
%ADD43RoundRect,0.250000X-1.500000X-0.550000X1.500000X-0.550000X1.500000X0.550000X-1.500000X0.550000X0*%
%ADD44RoundRect,0.150000X-0.650000X-0.150000X0.650000X-0.150000X0.650000X0.150000X-0.650000X0.150000X0*%
%ADD45R,1.500000X2.000000*%
%ADD46R,3.800000X2.000000*%
%ADD47RoundRect,0.250000X-1.425000X0.362500X-1.425000X-0.362500X1.425000X-0.362500X1.425000X0.362500X0*%
%ADD48R,1.600200X0.431800*%
%ADD49R,4.953000X4.953000*%
%ADD50RoundRect,0.250000X0.312500X1.075000X-0.312500X1.075000X-0.312500X-1.075000X0.312500X-1.075000X0*%
%ADD51RoundRect,0.150000X-0.150000X0.512500X-0.150000X-0.512500X0.150000X-0.512500X0.150000X0.512500X0*%
%ADD52RoundRect,0.225000X-0.250000X0.225000X-0.250000X-0.225000X0.250000X-0.225000X0.250000X0.225000X0*%
%ADD53R,1.640000X0.410000*%
%ADD54R,1.700000X1.000000*%
%ADD55RoundRect,0.250000X0.250000X0.475000X-0.250000X0.475000X-0.250000X-0.475000X0.250000X-0.475000X0*%
%ADD56RoundRect,0.250000X1.075000X-0.312500X1.075000X0.312500X-1.075000X0.312500X-1.075000X-0.312500X0*%
%ADD57RoundRect,0.150000X0.150000X-0.650000X0.150000X0.650000X-0.150000X0.650000X-0.150000X-0.650000X0*%
%ADD58RotRect,1.400000X1.200000X135.000000*%
G04 APERTURE END LIST*
D10*
%TO.C,D30*%
X148302000Y-143827500D03*
X150402000Y-143827500D03*
%TD*%
%TO.C,D29*%
X136999000Y-143827500D03*
X139099000Y-143827500D03*
%TD*%
D11*
%TO.C,D28*%
X128016000Y-130395000D03*
X128016000Y-132495000D03*
%TD*%
D10*
%TO.C,D27*%
X150402000Y-146367500D03*
X148302000Y-146367500D03*
%TD*%
%TO.C,D26*%
X139099000Y-146367500D03*
X136999000Y-146367500D03*
%TD*%
D11*
%TO.C,D25*%
X125603000Y-132495000D03*
X125603000Y-130395000D03*
%TD*%
D10*
%TO.C,D24*%
X148299000Y-133985000D03*
X150399000Y-133985000D03*
%TD*%
%TO.C,D23*%
X136999000Y-133985000D03*
X139099000Y-133985000D03*
%TD*%
%TO.C,D22*%
X150399000Y-136525000D03*
X148299000Y-136525000D03*
%TD*%
%TO.C,D21*%
X139099000Y-136525000D03*
X136999000Y-136525000D03*
%TD*%
D11*
%TO.C,D20*%
X68199000Y-90204000D03*
X68199000Y-88104000D03*
%TD*%
D10*
%TO.C,D19*%
X136999000Y-124142500D03*
X139099000Y-124142500D03*
%TD*%
%TO.C,D18*%
X148302000Y-124142500D03*
X150402000Y-124142500D03*
%TD*%
D11*
%TO.C,D17*%
X65659000Y-88104000D03*
X65659000Y-90204000D03*
%TD*%
D10*
%TO.C,D16*%
X139099000Y-126682500D03*
X136999000Y-126682500D03*
%TD*%
%TO.C,D15*%
X150402000Y-126682500D03*
X148302000Y-126682500D03*
%TD*%
D12*
%TO.C,C49*%
X74409500Y-86804500D03*
X72859500Y-86804500D03*
%TD*%
D13*
%TO.C,R87*%
X74459500Y-88455500D03*
X72809500Y-88455500D03*
%TD*%
%TO.C,R92*%
X74485000Y-90170000D03*
X72835000Y-90170000D03*
%TD*%
D14*
%TO.C,R97*%
X72835000Y-91821000D03*
X74485000Y-91821000D03*
%TD*%
D15*
%TO.C,U31*%
X61661000Y-90418500D03*
X62611000Y-90418500D03*
X63561000Y-90418500D03*
X63561000Y-88143500D03*
X61661000Y-88143500D03*
%TD*%
D16*
%TO.C,R108*%
X64389000Y-93125300D03*
X64389000Y-94775300D03*
%TD*%
D17*
%TO.C,R109*%
X62746800Y-94767100D03*
X62746800Y-93117100D03*
%TD*%
D14*
%TO.C,R122*%
X82995000Y-84455000D03*
X84645000Y-84455000D03*
%TD*%
D18*
%TO.C,D2*%
X138800000Y-113298000D03*
X140200000Y-113298000D03*
%TD*%
D19*
%TO.C,C21*%
X115909000Y-107442000D03*
X117459000Y-107442000D03*
%TD*%
D16*
%TO.C,R34*%
X120142000Y-125667000D03*
X120142000Y-127317000D03*
%TD*%
D17*
%TO.C,R54*%
X146177000Y-146811500D03*
X146177000Y-145161500D03*
%TD*%
%TO.C,R4*%
X95267666Y-159430737D03*
X95267666Y-157780737D03*
%TD*%
D20*
%TO.C,C14*%
X100400000Y-143350000D03*
X100400000Y-141450000D03*
%TD*%
D21*
%TO.C,C11*%
X64921751Y-126421751D03*
X63578249Y-125078249D03*
%TD*%
D20*
%TO.C,C9*%
X70699000Y-113101600D03*
X70699000Y-111201600D03*
%TD*%
D22*
%TO.C,U8*%
X124018000Y-153464500D03*
X125918000Y-153464500D03*
X124968000Y-151589500D03*
%TD*%
D17*
%TO.C,R27*%
X99867666Y-153655737D03*
X99867666Y-152005737D03*
%TD*%
D22*
%TO.C,Q5*%
X138300000Y-111187500D03*
X140200000Y-111187500D03*
X139250000Y-109312500D03*
%TD*%
D14*
%TO.C,R60*%
X65100000Y-108050000D03*
X66750000Y-108050000D03*
%TD*%
%TO.C,R11*%
X111982000Y-92070000D03*
X113632000Y-92070000D03*
%TD*%
D17*
%TO.C,R41*%
X146177000Y-127126500D03*
X146177000Y-125476500D03*
%TD*%
%TO.C,R24*%
X102667666Y-155630737D03*
X102667666Y-153980737D03*
%TD*%
D14*
%TO.C,R12*%
X112459000Y-109042000D03*
X114109000Y-109042000D03*
%TD*%
D12*
%TO.C,C27*%
X114567000Y-129590800D03*
X113017000Y-129590800D03*
%TD*%
%TO.C,C23*%
X113607000Y-90270000D03*
X112057000Y-90270000D03*
%TD*%
D19*
%TO.C,C33*%
X144225000Y-116500000D03*
X145775000Y-116500000D03*
%TD*%
D23*
%TO.C,D7*%
X102667666Y-157418237D03*
X102667666Y-158993237D03*
%TD*%
D24*
%TO.C,C31*%
X131318000Y-101252000D03*
X131318000Y-95852000D03*
%TD*%
D23*
%TO.C,D1*%
X98067666Y-157818237D03*
X98067666Y-159393237D03*
%TD*%
D21*
%TO.C,C13*%
X65771751Y-135071751D03*
X64428249Y-133728249D03*
%TD*%
D12*
%TO.C,C25*%
X100632000Y-90170000D03*
X99082000Y-90170000D03*
%TD*%
D17*
%TO.C,R25*%
X90667666Y-153630737D03*
X90667666Y-151980737D03*
%TD*%
D25*
%TO.C,U2*%
X128397000Y-141136600D03*
X127127000Y-141136600D03*
X125857000Y-141136600D03*
X124587000Y-141136600D03*
X123317000Y-141136600D03*
X122047000Y-141136600D03*
X120777000Y-141136600D03*
X119507000Y-141136600D03*
X119507000Y-146086600D03*
X120777000Y-146086600D03*
X122047000Y-146086600D03*
X123317000Y-146086600D03*
X124587000Y-146086600D03*
X125857000Y-146086600D03*
X127127000Y-146086600D03*
X128397000Y-146086600D03*
%TD*%
D26*
%TO.C,C3*%
X65151000Y-123571000D03*
X66494502Y-124914502D03*
%TD*%
D17*
%TO.C,R43*%
X142745000Y-136969000D03*
X142745000Y-135319000D03*
%TD*%
D14*
%TO.C,R14*%
X102118000Y-109220000D03*
X103768000Y-109220000D03*
%TD*%
D17*
%TO.C,R48*%
X146174000Y-136969000D03*
X146174000Y-135319000D03*
%TD*%
D27*
%TO.C,C1*%
X133096000Y-127076500D03*
X133096000Y-125526500D03*
%TD*%
D20*
%TO.C,C54*%
X82542400Y-69704000D03*
X82542400Y-67804000D03*
%TD*%
D28*
%TO.C,C39*%
X115951000Y-143957000D03*
X115951000Y-145857000D03*
%TD*%
D13*
%TO.C,R44*%
X136080000Y-131318000D03*
X134430000Y-131318000D03*
%TD*%
%TO.C,R15*%
X116982000Y-92070000D03*
X115332000Y-92070000D03*
%TD*%
D29*
%TO.C,U20*%
X145426000Y-76522500D03*
X146076000Y-76522500D03*
X146726000Y-76522500D03*
X147376000Y-76522500D03*
X148026000Y-76522500D03*
X148676000Y-76522500D03*
X149326000Y-76522500D03*
X149976000Y-76522500D03*
X149976000Y-70797500D03*
X149326000Y-70797500D03*
X148676000Y-70797500D03*
X148026000Y-70797500D03*
X147376000Y-70797500D03*
X146726000Y-70797500D03*
X146076000Y-70797500D03*
X145426000Y-70797500D03*
%TD*%
D23*
%TO.C,D6*%
X104867666Y-157418237D03*
X104867666Y-158993237D03*
%TD*%
D30*
%TO.C,D14*%
X60650000Y-108500000D03*
X63450000Y-108500000D03*
%TD*%
D17*
%TO.C,R57*%
X112268000Y-145605000D03*
X112268000Y-143955000D03*
%TD*%
D29*
%TO.C,U22*%
X145299000Y-64584500D03*
X145949000Y-64584500D03*
X146599000Y-64584500D03*
X147249000Y-64584500D03*
X147899000Y-64584500D03*
X148549000Y-64584500D03*
X149199000Y-64584500D03*
X149849000Y-64584500D03*
X149849000Y-58859500D03*
X149199000Y-58859500D03*
X148549000Y-58859500D03*
X147899000Y-58859500D03*
X147249000Y-58859500D03*
X146599000Y-58859500D03*
X145949000Y-58859500D03*
X145299000Y-58859500D03*
%TD*%
D23*
%TO.C,D10*%
X98067666Y-152005737D03*
X98067666Y-153580737D03*
%TD*%
D31*
%TO.C,U11*%
X102844000Y-141871000D03*
X102844000Y-142371000D03*
X102844000Y-142871000D03*
X102844000Y-143371000D03*
X105944000Y-143371000D03*
X105944000Y-142871000D03*
X105944000Y-142371000D03*
X105944000Y-141871000D03*
%TD*%
D17*
%TO.C,R50*%
X142748000Y-146811500D03*
X142748000Y-145161500D03*
%TD*%
D16*
%TO.C,R7*%
X121285000Y-112967000D03*
X121285000Y-114617000D03*
%TD*%
D32*
%TO.C,U6*%
X142850000Y-111625000D03*
X142850000Y-112275000D03*
X142850000Y-112925000D03*
X142850000Y-113575000D03*
X142850000Y-114225000D03*
X142850000Y-114875000D03*
X147150000Y-114875000D03*
X147150000Y-114225000D03*
X147150000Y-113575000D03*
X147150000Y-112925000D03*
X147150000Y-112275000D03*
X147150000Y-111625000D03*
%TD*%
D33*
%TO.C,R116*%
X85328000Y-46172700D03*
X85328000Y-49097700D03*
%TD*%
D22*
%TO.C,Q8*%
X108397000Y-149273500D03*
X110297000Y-149273500D03*
X109347000Y-147398500D03*
%TD*%
D14*
%TO.C,R58*%
X127475000Y-115500000D03*
X129125000Y-115500000D03*
%TD*%
D16*
%TO.C,R31*%
X106680000Y-147970500D03*
X106680000Y-149620500D03*
%TD*%
D34*
%TO.C,U3*%
X75650596Y-121394315D03*
X75297043Y-121747868D03*
X74943489Y-122101422D03*
X74589936Y-122454975D03*
X74236383Y-122808528D03*
X73882829Y-123162082D03*
X73529276Y-123515635D03*
X73175722Y-123869189D03*
X72822169Y-124222742D03*
X72468616Y-124576295D03*
X72115062Y-124929849D03*
X71761509Y-125283402D03*
X71407955Y-125636955D03*
X71054402Y-125990509D03*
X70700849Y-126344062D03*
X70347295Y-126697616D03*
X69993742Y-127051169D03*
X69640189Y-127404722D03*
X69286635Y-127758276D03*
X68933082Y-128111829D03*
X68579528Y-128465383D03*
X68225975Y-128818936D03*
X67872422Y-129172489D03*
X67518868Y-129526043D03*
X67165315Y-129879596D03*
D35*
X67165315Y-132248404D03*
X67518868Y-132601957D03*
X67872422Y-132955511D03*
X68225975Y-133309064D03*
X68579528Y-133662617D03*
X68933082Y-134016171D03*
X69286635Y-134369724D03*
X69640189Y-134723278D03*
X69993742Y-135076831D03*
X70347295Y-135430384D03*
X70700849Y-135783938D03*
X71054402Y-136137491D03*
X71407955Y-136491045D03*
X71761509Y-136844598D03*
X72115062Y-137198151D03*
X72468616Y-137551705D03*
X72822169Y-137905258D03*
X73175722Y-138258811D03*
X73529276Y-138612365D03*
X73882829Y-138965918D03*
X74236383Y-139319472D03*
X74589936Y-139673025D03*
X74943489Y-140026578D03*
X75297043Y-140380132D03*
X75650596Y-140733685D03*
D34*
X78019404Y-140733685D03*
X78372957Y-140380132D03*
X78726511Y-140026578D03*
X79080064Y-139673025D03*
X79433617Y-139319472D03*
X79787171Y-138965918D03*
X80140724Y-138612365D03*
X80494278Y-138258811D03*
X80847831Y-137905258D03*
X81201384Y-137551705D03*
X81554938Y-137198151D03*
X81908491Y-136844598D03*
X82262045Y-136491045D03*
X82615598Y-136137491D03*
X82969151Y-135783938D03*
X83322705Y-135430384D03*
X83676258Y-135076831D03*
X84029811Y-134723278D03*
X84383365Y-134369724D03*
X84736918Y-134016171D03*
X85090472Y-133662617D03*
X85444025Y-133309064D03*
X85797578Y-132955511D03*
X86151132Y-132601957D03*
X86504685Y-132248404D03*
D35*
X86504685Y-129879596D03*
X86151132Y-129526043D03*
X85797578Y-129172489D03*
X85444025Y-128818936D03*
X85090472Y-128465383D03*
X84736918Y-128111829D03*
X84383365Y-127758276D03*
X84029811Y-127404722D03*
X83676258Y-127051169D03*
X83322705Y-126697616D03*
X82969151Y-126344062D03*
X82615598Y-125990509D03*
X82262045Y-125636955D03*
X81908491Y-125283402D03*
X81554938Y-124929849D03*
X81201384Y-124576295D03*
X80847831Y-124222742D03*
X80494278Y-123869189D03*
X80140724Y-123515635D03*
X79787171Y-123162082D03*
X79433617Y-122808528D03*
X79080064Y-122454975D03*
X78726511Y-122101422D03*
X78372957Y-121747868D03*
X78019404Y-121394315D03*
%TD*%
D17*
%TO.C,R42*%
X131445000Y-136969000D03*
X131445000Y-135319000D03*
%TD*%
%TO.C,R53*%
X134874000Y-146811500D03*
X134874000Y-145161500D03*
%TD*%
%TO.C,R26*%
X95267666Y-153605737D03*
X95267666Y-151955737D03*
%TD*%
D23*
%TO.C,D12*%
X107567666Y-152068237D03*
X107567666Y-153643237D03*
%TD*%
D27*
%TO.C,C35*%
X144396000Y-136919000D03*
X144396000Y-135369000D03*
%TD*%
D36*
%TO.C,D4*%
X144272000Y-82836000D03*
X144272000Y-86836000D03*
%TD*%
D26*
%TO.C,C16*%
X90506498Y-134406498D03*
X91850000Y-135750000D03*
%TD*%
D12*
%TO.C,C26*%
X100343000Y-109220000D03*
X98793000Y-109220000D03*
%TD*%
D23*
%TO.C,D8*%
X88867666Y-152018237D03*
X88867666Y-153593237D03*
%TD*%
D37*
%TO.C,C15*%
X77650000Y-118950000D03*
X78993502Y-117606498D03*
%TD*%
D38*
%TO.C,R1*%
X80012000Y-89603900D03*
X80012000Y-92528900D03*
%TD*%
D10*
%TO.C,D11*%
X126458000Y-120650000D03*
X128558000Y-120650000D03*
%TD*%
D33*
%TO.C,R112*%
X79692400Y-61733200D03*
X79692400Y-64658200D03*
%TD*%
D13*
%TO.C,R51*%
X136080000Y-141160500D03*
X134430000Y-141160500D03*
%TD*%
D20*
%TO.C,C57*%
X82513000Y-54210000D03*
X82513000Y-52310000D03*
%TD*%
D22*
%TO.C,Q11*%
X122240000Y-126921500D03*
X124140000Y-126921500D03*
X123190000Y-125046500D03*
%TD*%
D39*
%TO.C,Q1*%
X104736000Y-97778000D03*
X99886000Y-97778000D03*
X104736000Y-103328000D03*
X99886000Y-103328000D03*
D40*
X93161000Y-98013000D03*
X93161000Y-103093000D03*
%TD*%
D41*
%TO.C,C40*%
X114493000Y-132715000D03*
X116393000Y-132715000D03*
%TD*%
D16*
%TO.C,R46*%
X128397000Y-148146000D03*
X128397000Y-149796000D03*
%TD*%
D42*
%TO.C,C7*%
X72426751Y-142203249D03*
X71083249Y-143546751D03*
%TD*%
D16*
%TO.C,R6*%
X119685000Y-112967000D03*
X119685000Y-114617000D03*
%TD*%
D33*
%TO.C,R119*%
X79713000Y-51143000D03*
X79713000Y-54068000D03*
%TD*%
D27*
%TO.C,C37*%
X133096000Y-146761500D03*
X133096000Y-145211500D03*
%TD*%
D26*
%TO.C,C8*%
X88978249Y-135878249D03*
X90321751Y-137221751D03*
%TD*%
D43*
%TO.C,C42*%
X68800000Y-59900000D03*
X74200000Y-59900000D03*
%TD*%
D19*
%TO.C,C18*%
X102832000Y-91970000D03*
X104382000Y-91970000D03*
%TD*%
D44*
%TO.C,U7*%
X79204000Y-105537000D03*
X79204000Y-106807000D03*
X79204000Y-108077000D03*
X79204000Y-109347000D03*
X86404000Y-109347000D03*
X86404000Y-108077000D03*
X86404000Y-106807000D03*
X86404000Y-105537000D03*
%TD*%
D14*
%TO.C,R22*%
X138511000Y-105360000D03*
X140161000Y-105360000D03*
%TD*%
D45*
%TO.C,U9*%
X111238000Y-141580000D03*
D46*
X113538000Y-135280000D03*
D45*
X113538000Y-141580000D03*
X115838000Y-141580000D03*
%TD*%
D41*
%TO.C,C5*%
X85500000Y-94950000D03*
X87400000Y-94950000D03*
%TD*%
D47*
%TO.C,R8*%
X92964000Y-106003500D03*
X92964000Y-111928500D03*
%TD*%
D14*
%TO.C,R33*%
X143066000Y-45466000D03*
X144716000Y-45466000D03*
%TD*%
%TO.C,R10*%
X98743000Y-107420000D03*
X100393000Y-107420000D03*
%TD*%
%TO.C,R59*%
X130675000Y-111500000D03*
X132325000Y-111500000D03*
%TD*%
D48*
%TO.C,U1*%
X101092000Y-118059200D03*
X101092000Y-118719600D03*
X101092000Y-119354600D03*
X101092000Y-120015000D03*
X101092000Y-120650000D03*
X101092000Y-121310400D03*
X101092000Y-121970800D03*
X101092000Y-122605800D03*
X101092000Y-123266200D03*
X101092000Y-123901200D03*
X101092000Y-124561600D03*
X101092000Y-125222000D03*
X101092000Y-125857000D03*
X101092000Y-126517400D03*
X101092000Y-127152400D03*
X101092000Y-127812800D03*
X110490000Y-127812800D03*
X110490000Y-127152400D03*
X110490000Y-126517400D03*
X110490000Y-125857000D03*
X110490000Y-125222000D03*
X110490000Y-124561600D03*
X110490000Y-123901200D03*
X110490000Y-123266200D03*
X110490000Y-122605800D03*
X110490000Y-121970800D03*
X110490000Y-121310400D03*
X110490000Y-120650000D03*
X110490000Y-120015000D03*
X110490000Y-119354600D03*
X110490000Y-118719600D03*
X110490000Y-118059200D03*
D49*
X105791000Y-122936000D03*
%TD*%
D23*
%TO.C,D5*%
X93467666Y-157818237D03*
X93467666Y-159393237D03*
%TD*%
D33*
%TO.C,R117*%
X79663000Y-46193000D03*
X79663000Y-49118000D03*
%TD*%
%TO.C,R118*%
X85328000Y-51111000D03*
X85328000Y-54036000D03*
%TD*%
D39*
%TO.C,Q4*%
X111252000Y-103340000D03*
X111252000Y-97790000D03*
X116102000Y-103340000D03*
X116102000Y-97790000D03*
D40*
X122827000Y-103105000D03*
X122827000Y-98025000D03*
%TD*%
D50*
%TO.C,R120*%
X86090000Y-56728400D03*
X83165000Y-56728400D03*
%TD*%
D22*
%TO.C,Q13*%
X130750000Y-115337500D03*
X132650000Y-115337500D03*
X131700000Y-113462500D03*
%TD*%
D13*
%TO.C,R39*%
X147383000Y-121475500D03*
X145733000Y-121475500D03*
%TD*%
D17*
%TO.C,R56*%
X113919000Y-145605000D03*
X113919000Y-143955000D03*
%TD*%
D27*
%TO.C,C4*%
X144399000Y-127076500D03*
X144399000Y-125526500D03*
%TD*%
D50*
%TO.C,R115*%
X86119400Y-72268600D03*
X83194400Y-72268600D03*
%TD*%
D22*
%TO.C,Q12*%
X126304000Y-126921500D03*
X128204000Y-126921500D03*
X127254000Y-125046500D03*
%TD*%
D31*
%TO.C,U10*%
X102844000Y-139077000D03*
X102844000Y-139577000D03*
X102844000Y-140077000D03*
X102844000Y-140577000D03*
X105944000Y-140577000D03*
X105944000Y-140077000D03*
X105944000Y-139577000D03*
X105944000Y-139077000D03*
%TD*%
D13*
%TO.C,R52*%
X147383000Y-141160500D03*
X145733000Y-141160500D03*
%TD*%
D14*
%TO.C,R35*%
X122468500Y-122428000D03*
X124118500Y-122428000D03*
%TD*%
D13*
%TO.C,R121*%
X81343000Y-84455000D03*
X79693000Y-84455000D03*
%TD*%
D16*
%TO.C,R3*%
X99867666Y-157780737D03*
X99867666Y-159430737D03*
%TD*%
D23*
%TO.C,D13*%
X107567666Y-157818237D03*
X107567666Y-159393237D03*
%TD*%
D39*
%TO.C,U4*%
X144714000Y-94761000D03*
X144714000Y-100311000D03*
X149564000Y-100311000D03*
X149564000Y-94761000D03*
D40*
X137989000Y-94996000D03*
X137989000Y-97536000D03*
X137989000Y-100076000D03*
%TD*%
D23*
%TO.C,D9*%
X93467666Y-152030737D03*
X93467666Y-153605737D03*
%TD*%
D37*
%TO.C,C12*%
X91228249Y-129322751D03*
X92571751Y-127979249D03*
%TD*%
D51*
%TO.C,U27*%
X124460000Y-134752500D03*
X123510000Y-134752500D03*
X122560000Y-134752500D03*
X122560000Y-137027500D03*
X124460000Y-137027500D03*
%TD*%
D13*
%TO.C,R45*%
X147380000Y-131318000D03*
X145730000Y-131318000D03*
%TD*%
D12*
%TO.C,C24*%
X114059000Y-107442000D03*
X112509000Y-107442000D03*
%TD*%
D52*
%TO.C,C36*%
X149250000Y-111725000D03*
X149250000Y-113275000D03*
%TD*%
D17*
%TO.C,R49*%
X131445000Y-146811500D03*
X131445000Y-145161500D03*
%TD*%
D28*
%TO.C,C55*%
X82513000Y-48754000D03*
X82513000Y-50654000D03*
%TD*%
D13*
%TO.C,R19*%
X140253000Y-107500000D03*
X138603000Y-107500000D03*
%TD*%
%TO.C,R38*%
X136080000Y-121475500D03*
X134430000Y-121475500D03*
%TD*%
%TO.C,R82*%
X123634000Y-131064000D03*
X121984000Y-131064000D03*
%TD*%
D28*
%TO.C,C52*%
X82542400Y-63928000D03*
X82542400Y-65828000D03*
%TD*%
D17*
%TO.C,R36*%
X131445000Y-127126500D03*
X131445000Y-125476500D03*
%TD*%
D42*
%TO.C,C6*%
X73914000Y-143637000D03*
X72570498Y-144980502D03*
%TD*%
D17*
%TO.C,R2*%
X82000000Y-121050000D03*
X82000000Y-119400000D03*
%TD*%
D19*
%TO.C,C20*%
X115357000Y-90270000D03*
X116907000Y-90270000D03*
%TD*%
%TO.C,C29*%
X96786400Y-128270000D03*
X98336400Y-128270000D03*
%TD*%
D33*
%TO.C,R114*%
X79742400Y-66683200D03*
X79742400Y-69608200D03*
%TD*%
D39*
%TO.C,Q2*%
X99836000Y-80815600D03*
X104686000Y-80815600D03*
X99836000Y-86365600D03*
X104686000Y-86365600D03*
D40*
X93111000Y-81050600D03*
X93111000Y-86130600D03*
%TD*%
D18*
%TO.C,D3*%
X140200000Y-116500000D03*
X138800000Y-116500000D03*
%TD*%
D13*
%TO.C,R16*%
X117534000Y-109042000D03*
X115884000Y-109042000D03*
%TD*%
%TO.C,R23*%
X143361000Y-105360000D03*
X141711000Y-105360000D03*
%TD*%
D39*
%TO.C,Q3*%
X116182000Y-80796600D03*
X116182000Y-86346600D03*
X111332000Y-80796600D03*
X111332000Y-86346600D03*
D40*
X122907000Y-86111600D03*
X122907000Y-81031600D03*
%TD*%
D17*
%TO.C,R37*%
X142748000Y-127126500D03*
X142748000Y-125476500D03*
%TD*%
D14*
%TO.C,R9*%
X98982000Y-91970000D03*
X100632000Y-91970000D03*
%TD*%
D17*
%TO.C,R83*%
X120650000Y-136461000D03*
X120650000Y-134811000D03*
%TD*%
D12*
%TO.C,C28*%
X114287600Y-116636800D03*
X112737600Y-116636800D03*
%TD*%
D17*
%TO.C,R47*%
X134874000Y-136969000D03*
X134874000Y-135319000D03*
%TD*%
D27*
%TO.C,C22*%
X122885000Y-114567000D03*
X122885000Y-113017000D03*
%TD*%
D13*
%TO.C,R20*%
X139700000Y-90932000D03*
X138050000Y-90932000D03*
%TD*%
D12*
%TO.C,C51*%
X123584000Y-133096000D03*
X122034000Y-133096000D03*
%TD*%
D33*
%TO.C,R81*%
X85357400Y-61712900D03*
X85357400Y-64637900D03*
%TD*%
D53*
%TO.C,U36*%
X79655000Y-77990700D03*
X79655000Y-78625700D03*
X79655000Y-79260700D03*
X79655000Y-79895700D03*
X79655000Y-80530700D03*
X79655000Y-81165700D03*
X79655000Y-81800700D03*
X79655000Y-82435700D03*
X84925000Y-82435700D03*
X84925000Y-81800700D03*
X84925000Y-81165700D03*
X84925000Y-80530700D03*
X84925000Y-79895700D03*
X84925000Y-79260700D03*
X84925000Y-78625700D03*
X84925000Y-77990700D03*
%TD*%
D22*
%TO.C,Q9*%
X102936000Y-149273500D03*
X104836000Y-149273500D03*
X103886000Y-147398500D03*
%TD*%
D21*
%TO.C,C2*%
X71156751Y-120686751D03*
X69813249Y-119343249D03*
%TD*%
D38*
%TO.C,R28*%
X82552000Y-89603900D03*
X82552000Y-92528900D03*
%TD*%
D54*
%TO.C,SW1*%
X61700000Y-111800000D03*
X68000000Y-111800000D03*
X68000000Y-115600000D03*
X61700000Y-115600000D03*
%TD*%
D33*
%TO.C,R113*%
X85357400Y-66651200D03*
X85357400Y-69576200D03*
%TD*%
D27*
%TO.C,C38*%
X144399000Y-146761500D03*
X144399000Y-145211500D03*
%TD*%
D55*
%TO.C,C10*%
X103616800Y-131521200D03*
X101716800Y-131521200D03*
%TD*%
D28*
%TO.C,C17*%
X75565000Y-108143000D03*
X75565000Y-110043000D03*
%TD*%
%TO.C,C34*%
X86362000Y-89674400D03*
X86362000Y-91574400D03*
%TD*%
D12*
%TO.C,C19*%
X103743000Y-107420000D03*
X102193000Y-107420000D03*
%TD*%
D56*
%TO.C,R21*%
X134620000Y-83250500D03*
X134620000Y-80325500D03*
%TD*%
D17*
%TO.C,R55*%
X122314000Y-153594000D03*
X122314000Y-151944000D03*
%TD*%
D14*
%TO.C,R17*%
X138425000Y-114822000D03*
X140075000Y-114822000D03*
%TD*%
D57*
%TO.C,U15*%
X79425800Y-100186000D03*
X80695800Y-100186000D03*
X81965800Y-100186000D03*
X83235800Y-100186000D03*
X83235800Y-94886000D03*
X81965800Y-94886000D03*
X80695800Y-94886000D03*
X79425800Y-94886000D03*
%TD*%
D17*
%TO.C,R5*%
X104867666Y-155630737D03*
X104867666Y-153980737D03*
%TD*%
D16*
%TO.C,R30*%
X109317666Y-157780737D03*
X109317666Y-159430737D03*
%TD*%
D17*
%TO.C,R40*%
X134747000Y-127126500D03*
X134747000Y-125476500D03*
%TD*%
D20*
%TO.C,C41*%
X68900000Y-109200000D03*
X68900000Y-107300000D03*
%TD*%
D17*
%TO.C,R29*%
X109317666Y-153680737D03*
X109317666Y-152030737D03*
%TD*%
D28*
%TO.C,C56*%
X82513000Y-45198000D03*
X82513000Y-47098000D03*
%TD*%
%TO.C,C53*%
X82542400Y-60184000D03*
X82542400Y-62084000D03*
%TD*%
D58*
%TO.C,Y1*%
X69397000Y-122388200D03*
X67841365Y-120832565D03*
X66639284Y-122034646D03*
X68194919Y-123590281D03*
%TD*%
D13*
%TO.C,R13*%
X104457000Y-90170000D03*
X102807000Y-90170000D03*
%TD*%
D19*
%TO.C,C30*%
X97475000Y-116000000D03*
X99025000Y-116000000D03*
%TD*%
D27*
%TO.C,C32*%
X133096000Y-136919000D03*
X133096000Y-135369000D03*
%TD*%
D16*
%TO.C,R32*%
X101219000Y-147892000D03*
X101219000Y-149542000D03*
%TD*%
M02*
