<?xml version="1.0" encoding="utf-8"?>
<!-- Generator: Adobe Illustrator 24.3.0, SVG Export Plug-In . SVG Version: 6.00 Build 0)  -->
<svg version="1.1" id="Layer_1" xmlns="http://www.w3.org/2000/svg" xmlns:xlink="http://www.w3.org/1999/xlink" x="0px" y="0px"
	 viewBox="0 0 1920 1080" style="enable-background:new 0 0 1920 1080;" xml:space="preserve">
<style type="text/css">
	.st0{fill:#FFFFFF;}
</style>
<g>
	<polygon class="st0" points="1040,610 1040,615 1045,615 1050,615 1050,610 1045,610 	"/>
	<polygon class="st0" points="1085,610 1085,615 1090,615 1090,610 1090,605 1090,600 1085,600 1085,605 	"/>
	<polygon class="st0" points="1035,605 1030,605 1030,610 1035,610 1040,610 1040,605 	"/>
	<polygon class="st0" points="980,605 975,605 970,605 965,605 965,610 970,610 975,610 980,610 985,610 990,610 990,605 985,605 	
		"/>
	<polygon class="st0" points="1100,605 1105,605 1105,600 1105,595 1100,595 1100,600 	"/>
	<polygon class="st0" points="1025,600 1020,600 1020,605 1025,605 1030,605 1030,600 	"/>
	<polygon class="st0" points="1000,600 995,600 990,600 990,605 995,605 1000,605 1005,605 1010,605 1010,600 1005,600 	"/>
	<polygon class="st0" points="960,600 955,600 950,600 950,605 955,605 960,605 965,605 965,600 	"/>
	<polygon class="st0" points="1080,600 1085,600 1085,595 1085,590 1080,590 1080,595 	"/>
	<polygon class="st0" points="1050,600 1050,605 1050,610 1055,610 1055,605 1055,600 1055,595 1055,590 1050,590 1050,595 	"/>
	<polygon class="st0" points="1015,595 1010,595 1010,600 1015,600 1020,600 1020,595 	"/>
	<polygon class="st0" points="945,595 940,595 935,595 935,600 940,600 945,600 950,600 950,595 	"/>
	<polygon class="st0" points="1095,595 1100,595 1100,590 1100,585 1095,585 1095,590 	"/>
	<polygon class="st0" points="1005,590 1000,590 1000,595 1005,595 1010,595 1010,590 	"/>
	<rect x="965" y="590" class="st0" width="5" height="5"/>
	<rect x="930" y="590" class="st0" width="5" height="5"/>
	<polygon class="st0" points="1075,590 1080,590 1080,585 1080,580 1075,580 1075,585 	"/>
	<polygon class="st0" points="1045,590 1050,590 1050,585 1050,580 1045,580 1045,585 	"/>
	<polygon class="st0" points="995,585 990,585 985,585 980,585 975,585 970,585 970,590 975,590 980,590 985,590 990,590 995,590 
		1000,590 1000,585 	"/>
	<rect x="925" y="585" class="st0" width="5" height="5"/>
	<rect x="1090" y="580" class="st0" width="5" height="5"/>
	<polygon class="st0" points="935,580 940,580 945,580 945,575 940,575 935,575 935,570 930,570 930,575 930,580 930,585 935,585 	
		"/>
	<rect x="1085" y="575" class="st0" width="5" height="5"/>
	<rect x="1070" y="575" class="st0" width="5" height="5"/>
	<rect x="1040" y="575" class="st0" width="5" height="5"/>
	<polygon class="st0" points="1100,570 1100,575 1105,575 1110,575 1110,570 1105,570 	"/>
	<rect x="1080" y="570" class="st0" width="5" height="5"/>
	<rect x="1065" y="570" class="st0" width="5" height="5"/>
	<rect x="1035" y="570" class="st0" width="5" height="5"/>
	<polygon class="st0" points="870,570 870,575 875,575 880,575 880,570 880,565 875,565 875,570 	"/>
	<polygon class="st0" points="835,570 835,575 840,575 845,575 845,570 845,565 840,565 840,570 	"/>
	<rect x="1095" y="565" class="st0" width="5" height="5"/>
	<rect x="1075" y="565" class="st0" width="5" height="5"/>
	<rect x="1060" y="565" class="st0" width="5" height="5"/>
	<polygon class="st0" points="1030,570 1035,570 1035,565 1030,565 1025,565 1025,570 	"/>
	<polygon class="st0" points="945,570 945,575 950,575 950,570 950,565 945,565 	"/>
	<polygon class="st0" points="900,565 900,570 905,570 910,570 910,565 910,560 905,560 905,565 	"/>
	<rect x="865" y="565" class="st0" width="5" height="5"/>
	<rect x="830" y="565" class="st0" width="5" height="5"/>
	<polygon class="st0" points="1110,565 1110,570 1115,570 1115,565 1115,560 1110,560 	"/>
	<rect x="1090" y="560" class="st0" width="5" height="5"/>
	<rect x="1070" y="560" class="st0" width="5" height="5"/>
	<rect x="1055" y="560" class="st0" width="5" height="5"/>
	<polygon class="st0" points="1020,565 1025,565 1025,560 1020,560 1015,560 1015,565 	"/>
	<polygon class="st0" points="955,560 955,555 950,555 950,560 950,565 955,565 960,565 965,565 965,560 960,560 	"/>
	<polygon class="st0" points="930,560 930,555 925,555 925,560 925,565 925,570 930,570 930,565 	"/>
	<rect x="895" y="560" class="st0" width="5" height="5"/>
	<rect x="870" y="560" class="st0" width="5" height="5"/>
	<rect x="860" y="560" class="st0" width="5" height="5"/>
	<rect x="1085" y="555" class="st0" width="5" height="5"/>
	<polygon class="st0" points="1065,560 1070,560 1070,555 1065,555 1060,555 1060,560 	"/>
	<polygon class="st0" points="1045,555 1045,560 1050,560 1055,560 1055,555 1060,555 1060,550 1055,550 1050,550 1050,555 	"/>
	<polygon class="st0" points="1005,555 1000,555 1000,560 1005,560 1010,560 1015,560 1015,555 1010,555 	"/>
	<polygon class="st0" points="970,555 965,555 965,560 970,560 975,560 980,560 980,555 975,555 	"/>
	<rect x="900" y="555" class="st0" width="5" height="5"/>
	<rect x="890" y="555" class="st0" width="5" height="5"/>
	<polygon class="st0" points="830,555 830,550 830,545 825,545 825,550 820,550 815,550 815,555 820,555 825,555 825,560 825,565 
		830,565 830,560 	"/>
	<polygon class="st0" points="1080,550 1075,550 1075,555 1080,555 1085,555 1085,550 	"/>
	<polygon class="st0" points="1015,550 1015,555 1020,555 1025,555 1025,550 1020,550 	"/>
	<polygon class="st0" points="860,550 860,545 860,540 860,535 860,530 865,530 865,525 860,525 855,525 850,525 850,530 855,530 
		855,535 855,540 855,545 855,550 855,555 855,560 860,560 860,555 	"/>
	<polygon class="st0" points="835,555 835,560 835,565 840,565 840,560 840,555 840,550 835,550 	"/>
	<rect x="1025" y="545" class="st0" width="5" height="5"/>
	<polygon class="st0" points="1010,550 1010,545 1010,540 1005,540 1000,540 1000,545 1000,550 1005,550 	"/>
	<polygon class="st0" points="950,545 945,545 945,550 945,555 950,555 950,550 	"/>
	<polygon class="st0" points="925,545 930,545 930,540 925,540 925,535 925,530 920,530 920,535 920,540 920,545 920,550 920,555 
		925,555 925,550 	"/>
	<polygon class="st0" points="890,545 890,540 890,535 885,535 885,540 885,545 885,550 885,555 890,555 890,550 	"/>
	<rect x="810" y="545" class="st0" width="5" height="5"/>
	<polygon class="st0" points="1115,540 1115,545 1115,550 1115,555 1115,560 1120,560 1120,555 1120,550 1120,545 1120,540 	"/>
	<polygon class="st0" points="1075,540 1070,540 1070,545 1065,545 1065,550 1070,550 1075,550 1075,545 	"/>
	<polygon class="st0" points="1060,540 1055,540 1050,540 1050,545 1055,545 1060,545 1065,545 1065,540 	"/>
	<polygon class="st0" points="1045,540 1040,540 1035,540 1030,540 1030,545 1035,545 1040,545 1040,550 1035,550 1030,550 
		1030,555 1035,555 1040,555 1045,555 1045,550 1050,550 1050,545 1045,545 	"/>
	<rect x="1020" y="540" class="st0" width="5" height="5"/>
	<polygon class="st0" points="970,545 975,545 975,540 970,540 965,540 965,545 	"/>
	<polygon class="st0" points="895,545 895,550 895,555 900,555 900,550 900,545 900,540 895,540 	"/>
	<polygon class="st0" points="865,545 865,550 865,555 865,560 870,560 870,555 870,550 870,545 870,540 865,540 	"/>
	<polygon class="st0" points="1110,540 1115,540 1115,535 1115,530 1110,530 1110,535 	"/>
	<rect x="1065" y="535" class="st0" width="5" height="5"/>
	<rect x="1015" y="535" class="st0" width="5" height="5"/>
	<polygon class="st0" points="990,540 990,545 990,550 985,550 985,545 980,545 975,545 975,550 980,550 980,555 985,555 990,555 
		995,555 1000,555 1000,550 995,550 995,545 995,540 995,535 990,535 	"/>
	<rect x="960" y="535" class="st0" width="5" height="5"/>
	<polygon class="st0" points="945,535 940,535 935,535 930,535 930,540 935,540 940,540 940,545 945,545 945,540 	"/>
	<rect x="900" y="535" class="st0" width="5" height="5"/>
	<rect x="870" y="535" class="st0" width="5" height="5"/>
	<polygon class="st0" points="835,535 830,535 825,535 825,540 830,540 830,545 835,545 835,540 840,540 840,545 840,550 845,550 
		845,545 845,540 845,535 840,535 	"/>
	<polygon class="st0" points="810,535 805,535 805,540 805,545 810,545 810,540 	"/>
	<polygon class="st0" points="1060,535 1065,535 1065,530 1060,530 1055,530 1055,535 	"/>
	<polygon class="st0" points="1045,535 1045,540 1050,540 1050,535 1050,530 1055,530 1055,525 1050,525 1045,525 1045,530 	"/>
	<polygon class="st0" points="1035,535 1040,535 1040,530 1040,525 1035,525 1030,525 1030,530 1025,530 1025,535 1025,540 
		1030,540 1030,535 	"/>
	<polygon class="st0" points="1010,530 1005,530 1005,535 1010,535 1015,535 1015,530 	"/>
	<rect x="955" y="530" class="st0" width="5" height="5"/>
	<polygon class="st0" points="950,530 955,530 955,525 950,525 945,525 945,530 945,535 950,535 	"/>
	<rect x="890" y="530" class="st0" width="5" height="5"/>
	<rect x="845" y="530" class="st0" width="5" height="5"/>
	<rect x="1105" y="525" class="st0" width="5" height="5"/>
	<rect x="1020" y="525" class="st0" width="5" height="5"/>
	<polygon class="st0" points="1000,525 995,525 990,525 990,530 995,530 995,535 1000,535 1000,530 1005,530 1005,525 	"/>
	<polygon class="st0" points="930,525 935,525 940,525 945,525 945,520 940,520 935,520 930,520 925,520 925,525 925,530 930,530 	
		"/>
	<polygon class="st0" points="825,525 825,520 820,520 820,525 820,530 820,535 825,535 825,530 	"/>
	<polygon class="st0" points="805,525 805,520 805,515 805,510 800,510 800,515 800,520 800,525 800,530 800,535 805,535 805,530 	
		"/>
	<rect x="1100" y="520" class="st0" width="5" height="5"/>
	<rect x="1040" y="520" class="st0" width="5" height="5"/>
	<polygon class="st0" points="1015,520 1010,520 1010,525 1015,525 1020,525 1020,520 	"/>
	<polygon class="st0" points="875,520 870,520 865,520 865,525 870,525 875,525 875,530 875,535 880,535 880,530 880,525 885,525 
		885,520 880,520 	"/>
	<rect x="1095" y="515" class="st0" width="5" height="5"/>
	<rect x="1035" y="515" class="st0" width="5" height="5"/>
	<rect x="1020" y="515" class="st0" width="5" height="5"/>
	<polygon class="st0" points="920,515 915,515 910,515 905,515 900,515 895,515 890,515 885,515 885,520 890,520 895,520 895,525 
		895,530 900,530 900,525 900,520 905,520 905,525 905,530 905,535 910,535 910,530 910,525 910,520 915,520 920,520 925,520 
		925,515 	"/>
	<rect x="825" y="515" class="st0" width="5" height="5"/>
	<rect x="1090" y="510" class="st0" width="5" height="5"/>
	<rect x="1030" y="510" class="st0" width="5" height="5"/>
	<polygon class="st0" points="1085,510 1090,510 1090,505 1085,505 1080,505 1080,510 	"/>
	<rect x="1025" y="505" class="st0" width="5" height="5"/>
	<polygon class="st0" points="810,505 810,500 805,500 805,505 805,510 810,510 	"/>
	<polygon class="st0" points="1075,505 1080,505 1080,500 1075,500 1070,500 1070,505 	"/>
	<rect x="1020" y="500" class="st0" width="5" height="5"/>
	<polygon class="st0" points="1055,500 1060,500 1065,500 1070,500 1070,495 1065,495 1060,495 1055,495 1050,495 1050,500 	"/>
	<polygon class="st0" points="1015,500 1020,500 1020,495 1015,495 1010,495 1010,500 	"/>
	<rect x="810" y="495" class="st0" width="5" height="5"/>
	<polygon class="st0" points="1030,495 1035,495 1040,495 1045,495 1050,495 1050,490 1045,490 1040,490 1035,490 1030,490 
		1025,490 1020,490 1020,495 1025,495 	"/>
	<polygon class="st0" points="1005,495 1010,495 1010,490 1005,490 1000,490 1000,495 	"/>
	<rect x="815" y="490" class="st0" width="5" height="5"/>
	<polygon class="st0" points="995,490 1000,490 1000,485 995,485 990,485 990,490 	"/>
	<rect x="820" y="485" class="st0" width="5" height="5"/>
	<polygon class="st0" points="985,485 990,485 990,480 985,480 980,480 980,485 	"/>
	<polygon class="st0" points="835,485 835,480 830,480 825,480 825,485 830,485 	"/>
	<polygon class="st0" points="975,480 980,480 980,475 975,475 970,475 970,480 	"/>
	<polygon class="st0" points="845,480 845,475 840,475 835,475 835,480 840,480 	"/>
	<polygon class="st0" points="955,475 960,475 965,475 970,475 970,470 965,470 960,470 955,470 950,470 950,475 	"/>
	<polygon class="st0" points="855,475 860,475 865,475 870,475 870,470 865,470 860,470 855,470 850,470 845,470 845,475 850,475 	
		"/>
	<polygon class="st0" points="880,470 885,470 890,470 895,470 900,470 905,470 910,470 915,470 920,470 925,470 930,470 935,470 
		940,470 945,470 950,470 950,465 945,465 940,465 935,465 930,465 925,465 920,465 915,465 910,465 905,465 900,465 895,465 
		890,465 885,465 880,465 875,465 870,465 870,470 875,470 	"/>
</g>
</svg>
