<?xml version="1.0" encoding="utf-8"?>
<!-- Generator: Adobe Illustrator 24.3.0, SVG Export Plug-In . SVG Version: 6.00 Build 0)  -->
<svg version="1.1" id="Layer_1" xmlns="http://www.w3.org/2000/svg" xmlns:xlink="http://www.w3.org/1999/xlink" x="0px" y="0px"
	 viewBox="0 0 1920 1080" style="enable-background:new 0 0 1920 1080;" xml:space="preserve">
<style type="text/css">
	.st0{fill:#FFFFFF;}
</style>
<g>
	<polygon class="st0" points="970,615 965,615 960,615 955,615 950,615 950,620 955,620 960,620 965,620 970,620 975,620 980,620 
		980,615 975,615 	"/>
	<rect x="980" y="610" class="st0" width="5" height="5"/>
	<polygon class="st0" points="945,610 940,610 940,615 945,615 950,615 950,610 	"/>
	<rect x="910" y="610" class="st0" width="5" height="5"/>
	<polygon class="st0" points="1045,605 1040,605 1035,605 1030,605 1025,605 1020,605 1020,610 1025,610 1030,610 1035,610 
		1040,610 1045,610 1050,610 1055,610 1055,605 1050,605 	"/>
	<rect x="935" y="605" class="st0" width="5" height="5"/>
	<rect x="880" y="605" class="st0" width="5" height="5"/>
	<rect x="1015" y="600" class="st0" width="5" height="5"/>
	<polygon class="st0" points="985,600 980,600 975,600 970,600 965,600 960,600 955,600 955,605 960,605 965,605 970,605 975,605 
		980,605 985,605 985,610 990,610 990,605 995,605 995,600 990,600 	"/>
	<polygon class="st0" points="910,600 910,595 910,590 910,585 910,580 910,575 905,575 905,580 905,585 900,585 895,585 895,590 
		900,590 905,590 905,595 905,600 905,605 905,610 910,610 910,605 	"/>
	<polygon class="st0" points="1060,595 1055,595 1050,595 1045,595 1040,595 1035,595 1030,595 1030,600 1035,600 1040,600 
		1045,600 1050,600 1055,600 1055,605 1060,605 1060,600 1065,600 1070,600 1070,595 1065,595 	"/>
	<rect x="1010" y="595" class="st0" width="5" height="5"/>
	<polygon class="st0" points="950,595 945,595 945,600 950,600 955,600 955,595 	"/>
	<polygon class="st0" points="935,595 935,590 935,585 930,585 930,580 930,575 925,575 925,580 925,585 920,585 920,590 920,595 
		925,595 925,590 930,590 930,595 930,600 930,605 935,605 935,600 	"/>
	<polygon class="st0" points="915,600 915,605 915,610 920,610 920,605 920,600 920,595 915,595 	"/>
	<polygon class="st0" points="880,595 880,590 880,585 880,580 880,575 875,575 870,575 870,580 875,580 875,585 875,590 875,595 
		875,600 875,605 880,605 880,600 	"/>
	<polygon class="st0" points="1025,590 1020,590 1020,595 1025,595 1030,595 1030,590 	"/>
	<rect x="940" y="590" class="st0" width="5" height="5"/>
	<rect x="850" y="590" class="st0" width="5" height="5"/>
	<rect x="1015" y="585" class="st0" width="5" height="5"/>
	<polygon class="st0" points="1010,585 1010,580 1005,580 1000,580 1000,585 1005,585 1005,590 1005,595 1010,595 1010,590 	"/>
	<polygon class="st0" points="995,590 995,595 995,600 1000,600 1000,595 1000,590 1000,585 995,585 	"/>
	<polygon class="st0" points="885,590 885,595 885,600 885,605 890,605 890,600 890,595 890,590 890,585 885,585 	"/>
	<rect x="990" y="580" class="st0" width="5" height="5"/>
	<rect x="935" y="580" class="st0" width="5" height="5"/>
	<polygon class="st0" points="855,585 855,590 860,590 860,585 860,580 855,580 	"/>
	<polygon class="st0" points="850,580 850,575 850,570 850,565 845,565 845,570 845,575 845,580 845,585 845,590 850,590 850,585 	
		"/>
	<polygon class="st0" points="1070,575 1070,580 1070,585 1070,590 1070,595 1075,595 1075,590 1075,585 1075,580 1075,575 	"/>
	<polygon class="st0" points="1010,575 1010,580 1015,580 1020,580 1020,575 1015,575 	"/>
	<rect x="985" y="575" class="st0" width="5" height="5"/>
	<rect x="940" y="575" class="st0" width="5" height="5"/>
	<polygon class="st0" points="895,575 890,575 890,580 890,585 895,585 895,580 	"/>
	<rect x="1065" y="570" class="st0" width="5" height="5"/>
	<rect x="1020" y="570" class="st0" width="5" height="5"/>
	<rect x="990" y="570" class="st0" width="5" height="5"/>
	<polygon class="st0" points="980,570 975,570 970,570 965,570 960,570 955,570 950,570 945,570 945,575 950,575 955,575 960,575 
		965,575 970,575 975,575 980,575 985,575 985,570 	"/>
	<polygon class="st0" points="935,570 940,570 945,570 945,565 940,565 935,565 930,565 925,565 920,565 915,565 910,565 905,565 
		900,565 895,565 890,565 885,565 885,560 880,560 875,560 870,560 865,560 865,565 870,565 870,570 875,570 875,565 880,565 
		880,570 880,575 885,575 885,570 890,570 895,570 895,575 900,575 900,570 905,570 910,570 910,575 915,575 915,570 920,570 
		925,570 930,570 930,575 935,575 	"/>
	<polygon class="st0" points="865,570 860,570 860,575 860,580 865,580 865,575 870,575 870,570 	"/>
	<polygon class="st0" points="1055,570 1060,570 1065,570 1065,565 1060,565 1055,565 1050,565 1050,570 	"/>
	<rect x="995" y="565" class="st0" width="5" height="5"/>
	<rect x="1000" y="560" class="st0" width="5" height="5"/>
	<rect x="850" y="560" class="st0" width="5" height="5"/>
	<polygon class="st0" points="865,560 865,555 860,555 860,550 860,545 855,545 855,550 855,555 855,560 860,560 	"/>
	<polygon class="st0" points="890,555 895,555 900,555 905,555 910,555 915,555 920,555 925,555 930,555 930,550 925,550 920,550 
		915,550 910,550 905,550 900,550 895,550 890,550 885,550 885,555 	"/>
	<rect x="1040" y="545" class="st0" width="5" height="5"/>
	<path class="st0" d="M1035,545h5v-5v-5v-5h-5v-5h-5h-5h-5h-5h-5h-5h-5h-5h-5v5h-5h-5v5h-5v5h-5v5h-5v5h-5v5h-5v5h-5h-5v5h5h5h5v-5
		h5h5h5v-5h5h5h5v-5h5h5h5v5v5h5v-5v-5h5h5h5v5h5v5h-5v5v5h5v-5h5h5h5h5v-5h-5h-5h-5v-5h5v-5h-5V545z M990,545h-5v-5v-5h5h5v5v5H990
		z M1020,545v-5v-5h5h5v5v5h-5H1020z"/>
	<polygon class="st0" points="940,550 940,545 935,545 930,545 930,550 935,550 	"/>
	<rect x="880" y="545" class="st0" width="5" height="5"/>
	<rect x="1045" y="540" class="st0" width="5" height="5"/>
	<polygon class="st0" points="950,545 950,540 945,540 940,540 940,545 945,545 	"/>
	<rect x="895" y="540" class="st0" width="5" height="5"/>
	<polygon class="st0" points="870,545 870,540 865,540 860,540 860,545 865,545 	"/>
	<rect x="1050" y="535" class="st0" width="5" height="5"/>
	<rect x="950" y="535" class="st0" width="5" height="5"/>
	<polygon class="st0" points="900,540 905,540 905,535 905,530 900,530 900,535 	"/>
	<rect x="890" y="535" class="st0" width="5" height="5"/>
	<polygon class="st0" points="875,535 875,530 870,530 870,535 870,540 875,540 	"/>
	<rect x="955" y="530" class="st0" width="5" height="5"/>
	<rect x="885" y="530" class="st0" width="5" height="5"/>
	<polygon class="st0" points="1055,530 1055,535 1060,535 1060,530 1060,525 1060,520 1055,520 1055,525 	"/>
	<polygon class="st0" points="970,530 970,525 965,525 960,525 960,530 965,530 	"/>
	<polygon class="st0" points="900,530 900,525 895,525 890,525 890,530 895,530 	"/>
	<polygon class="st0" points="880,525 880,520 880,515 875,515 875,520 875,525 875,530 880,530 	"/>
	<rect x="1040" y="520" class="st0" width="5" height="5"/>
	<polygon class="st0" points="980,525 980,520 975,520 970,520 970,525 975,525 	"/>
	<rect x="950" y="520" class="st0" width="5" height="5"/>
	<rect x="1050" y="515" class="st0" width="5" height="5"/>
	<polygon class="st0" points="1020,520 1025,520 1030,520 1035,520 1040,520 1040,515 1035,515 1030,515 1025,515 1020,515 
		1015,515 1015,520 	"/>
	<polygon class="st0" points="990,520 990,515 985,515 980,515 980,520 985,520 	"/>
	<polygon class="st0" points="955,520 960,520 960,515 960,510 955,510 955,515 	"/>
	<rect x="945" y="515" class="st0" width="5" height="5"/>
	<rect x="915" y="515" class="st0" width="5" height="5"/>
	<rect x="1045" y="510" class="st0" width="5" height="5"/>
	<polygon class="st0" points="1000,515 1005,515 1010,515 1015,515 1015,510 1010,510 1005,510 1000,510 995,510 990,510 990,515 
		995,515 	"/>
	<rect x="940" y="510" class="st0" width="5" height="5"/>
	<polygon class="st0" points="920,515 925,515 925,510 925,505 920,505 920,510 	"/>
	<rect x="910" y="510" class="st0" width="5" height="5"/>
	<rect x="880" y="510" class="st0" width="5" height="5"/>
	<polygon class="st0" points="1035,510 1040,510 1045,510 1045,505 1040,505 1035,505 1030,505 1030,510 	"/>
	<polygon class="st0" points="955,510 955,505 950,505 945,505 945,510 950,510 	"/>
	<rect x="905" y="505" class="st0" width="5" height="5"/>
	<rect x="885" y="505" class="st0" width="5" height="5"/>
	<polygon class="st0" points="1025,505 1030,505 1030,500 1025,500 1020,500 1020,505 	"/>
	<polygon class="st0" points="990,500 985,500 985,505 985,510 990,510 990,505 	"/>
	<polygon class="st0" points="920,505 920,500 915,500 910,500 910,505 915,505 	"/>
	<rect x="890" y="500" class="st0" width="5" height="5"/>
	<polygon class="st0" points="880,500 875,500 875,505 875,510 880,510 880,505 	"/>
	<polygon class="st0" points="1015,500 1020,500 1020,495 1015,495 1010,495 1010,500 	"/>
	<rect x="980" y="495" class="st0" width="5" height="5"/>
	<rect x="895" y="495" class="st0" width="5" height="5"/>
	<polygon class="st0" points="890,500 890,495 885,495 880,495 880,500 885,500 	"/>
	<rect x="1005" y="490" class="st0" width="5" height="5"/>
	<rect x="975" y="490" class="st0" width="5" height="5"/>
	<polygon class="st0" points="905,490 910,490 910,485 905,485 905,480 905,475 900,475 900,480 900,485 900,490 900,495 905,495 	
		"/>
	<polygon class="st0" points="1010,490 1015,490 1015,485 1015,480 1010,480 1010,485 	"/>
	<rect x="1000" y="485" class="st0" width="5" height="5"/>
	<polygon class="st0" points="970,485 965,485 965,490 970,490 975,490 975,485 	"/>
	<polygon class="st0" points="995,485 1000,485 1000,480 995,480 990,480 990,485 	"/>
	<polygon class="st0" points="960,480 955,480 950,480 950,485 955,485 960,485 965,485 965,480 	"/>
	<polygon class="st0" points="910,480 910,485 915,485 920,485 925,485 925,480 920,480 920,475 915,475 915,480 	"/>
	<polygon class="st0" points="1010,480 1010,475 1005,475 1000,475 1000,480 1005,480 	"/>
	<polygon class="st0" points="980,480 985,480 990,480 990,475 985,475 980,475 975,475 975,480 	"/>
	<polygon class="st0" points="935,480 940,480 945,480 945,475 940,475 940,470 935,470 935,475 930,475 925,475 925,480 930,480 	
		"/>
	<polygon class="st0" points="950,470 945,470 945,475 950,475 955,475 960,475 965,475 970,475 975,475 975,470 970,470 965,470 
		960,470 960,465 955,465 955,470 	"/>
	<polygon class="st0" points="915,475 915,470 910,470 905,470 905,475 910,475 	"/>
	<rect x="940" y="465" class="st0" width="5" height="5"/>
	<polygon class="st0" points="955,465 955,460 950,460 945,460 945,465 950,465 	"/>
</g>
</svg>
