<?xml version="1.0" encoding="utf-8"?>
<!-- Generator: Adobe Illustrator 24.3.0, SVG Export Plug-In . SVG Version: 6.00 Build 0)  -->
<svg version="1.1" id="Layer_1" xmlns="http://www.w3.org/2000/svg" xmlns:xlink="http://www.w3.org/1999/xlink" x="0px" y="0px"
	 viewBox="0 0 1920 1080" style="enable-background:new 0 0 1920 1080;" xml:space="preserve">
<style type="text/css">
	.st0{fill:#FFFFFF;}
</style>
<g>
	<rect x="930" y="600" class="st0" width="5" height="5"/>
	<rect x="900" y="600" class="st0" width="5" height="5"/>
	<polygon class="st0" points="905,595 905,600 910,600 910,595 910,590 905,590 	"/>
	<polygon class="st0" points="960,590 960,595 960,600 965,600 965,595 965,590 965,585 965,580 960,580 960,585 	"/>
	<polygon class="st0" points="935,590 935,595 935,600 940,600 940,595 940,590 940,585 935,585 	"/>
	<rect x="910" y="585" class="st0" width="5" height="5"/>
	<polygon class="st0" points="885,590 885,595 890,595 890,590 890,585 885,585 	"/>
	<polygon class="st0" points="975,585 980,585 980,580 980,575 975,575 975,580 	"/>
	<rect x="890" y="580" class="st0" width="5" height="5"/>
	<polygon class="st0" points="935,575 930,575 930,570 925,570 925,575 920,575 915,575 915,570 910,570 910,575 905,575 905,580 
		910,580 915,580 915,585 920,585 920,580 925,580 930,580 935,580 940,580 940,585 945,585 945,580 945,575 940,575 	"/>
	<polygon class="st0" points="970,575 975,575 975,570 975,565 970,565 970,570 	"/>
	<polygon class="st0" points="900,570 895,570 895,575 895,580 900,580 900,575 905,575 905,570 	"/>
	<polygon class="st0" points="985,570 985,575 990,575 990,570 990,565 990,560 985,560 985,565 	"/>
	<polygon class="st0" points="955,570 950,570 945,570 945,575 950,575 955,575 955,580 960,580 960,575 960,570 960,565 955,565 	
		"/>
	<rect x="940" y="565" class="st0" width="5" height="5"/>
	<rect x="920" y="565" class="st0" width="5" height="5"/>
	<rect x="905" y="565" class="st0" width="5" height="5"/>
	<rect x="890" y="565" class="st0" width="5" height="5"/>
	<rect x="935" y="560" class="st0" width="5" height="5"/>
	<rect x="900" y="560" class="st0" width="5" height="5"/>
	<rect x="980" y="555" class="st0" width="5" height="5"/>
	<polygon class="st0" points="920,555 915,555 915,560 915,565 920,565 920,560 	"/>
	<polygon class="st0" points="890,555 885,555 885,560 885,565 890,565 890,560 	"/>
	<polygon class="st0" points="935,550 930,550 930,555 930,560 935,560 935,555 	"/>
	<rect x="990" y="545" class="st0" width="5" height="5"/>
	<rect x="955" y="545" class="st0" width="5" height="5"/>
	<polygon class="st0" points="885,545 885,540 885,535 885,530 880,530 880,535 880,540 880,545 880,550 880,555 885,555 885,550 	
		"/>
	<polygon class="st0" points="995,540 1000,540 1000,535 1000,530 995,530 995,535 	"/>
	<polygon class="st0" points="975,540 975,545 975,550 970,550 965,550 960,550 960,555 965,555 965,560 960,560 960,565 965,565 
		970,565 970,560 970,555 975,555 980,555 980,550 980,545 985,545 990,545 990,540 985,540 980,540 980,535 975,535 	"/>
	<polygon class="st0" points="955,535 955,530 950,530 950,535 950,540 950,545 955,545 955,540 	"/>
	<polygon class="st0" points="900,540 900,545 900,550 905,550 905,545 905,540 910,540 915,540 915,545 920,545 920,540 920,535 
		915,535 910,535 905,535 900,535 895,535 895,540 	"/>
	<rect x="920" y="530" class="st0" width="5" height="5"/>
	<rect x="890" y="530" class="st0" width="5" height="5"/>
	<rect x="990" y="525" class="st0" width="5" height="5"/>
	<rect x="925" y="525" class="st0" width="5" height="5"/>
	<polygon class="st0" points="890,525 890,520 885,520 885,525 885,530 890,530 	"/>
	<rect x="960" y="520" class="st0" width="5" height="5"/>
	<rect x="930" y="520" class="st0" width="5" height="5"/>
	<polygon class="st0" points="965,520 970,520 970,515 970,510 965,510 965,515 	"/>
	<rect x="935" y="515" class="st0" width="5" height="5"/>
	<rect x="890" y="515" class="st0" width="5" height="5"/>
	<polygon class="st0" points="980,510 980,515 980,520 980,525 980,530 980,535 985,535 985,530 985,525 990,525 990,520 985,520 
		985,515 990,515 990,510 985,510 	"/>
	<polygon class="st0" points="960,510 955,510 955,515 955,520 960,520 960,515 	"/>
	<rect x="940" y="510" class="st0" width="5" height="5"/>
	<rect x="895" y="510" class="st0" width="5" height="5"/>
	<rect x="960" y="505" class="st0" width="5" height="5"/>
	<rect x="945" y="505" class="st0" width="5" height="5"/>
	<rect x="900" y="505" class="st0" width="5" height="5"/>
	<polygon class="st0" points="960,505 960,500 955,500 950,500 950,505 955,505 	"/>
	<polygon class="st0" points="915,505 915,500 910,500 905,500 905,505 910,505 	"/>
	<polygon class="st0" points="970,500 975,500 975,505 975,510 980,510 980,505 980,500 985,500 985,495 980,495 980,490 980,485 
		975,485 975,490 975,495 970,495 965,495 960,495 960,500 965,500 	"/>
	<polygon class="st0" points="925,500 930,500 930,495 925,495 920,495 915,495 915,500 920,500 	"/>
	<polygon class="st0" points="1000,490 1000,485 995,485 995,490 990,490 985,490 985,495 990,495 990,500 990,505 990,510 995,510 
		995,505 995,500 995,495 1000,495 1005,495 1010,495 1010,490 1005,490 	"/>
	<polygon class="st0" points="1035,485 1030,485 1025,485 1020,485 1015,485 1010,485 1010,490 1015,490 1020,490 1025,490 
		1030,490 1035,490 1040,490 1040,485 	"/>
	<rect x="1000" y="480" class="st0" width="5" height="5"/>
	<rect x="970" y="480" class="st0" width="5" height="5"/>
	<polygon class="st0" points="1010,475 1010,470 1005,470 1005,475 1005,480 1010,480 	"/>
</g>
</svg>
