%TF.GenerationSoftware,KiCad,Pcbnew,(6.0.7)*%
%TF.CreationDate,2022-10-25T21:17:20-03:00*%
%TF.ProjectId,uEFI_rev3,75454649-5f72-4657-9633-2e6b69636164,v3.0*%
%TF.SameCoordinates,Original*%
%TF.FileFunction,Soldermask,Bot*%
%TF.FilePolarity,Negative*%
%FSLAX46Y46*%
G04 Gerber Fmt 4.6, Leading zero omitted, Abs format (unit mm)*
G04 Created by KiCad (PCBNEW (6.0.7)) date 2022-10-25 21:17:20*
%MOMM*%
%LPD*%
G01*
G04 APERTURE LIST*
G04 Aperture macros list*
%AMRoundRect*
0 Rectangle with rounded corners*
0 $1 Rounding radius*
0 $2 $3 $4 $5 $6 $7 $8 $9 X,Y pos of 4 corners*
0 Add a 4 corners polygon primitive as box body*
4,1,4,$2,$3,$4,$5,$6,$7,$8,$9,$2,$3,0*
0 Add four circle primitives for the rounded corners*
1,1,$1+$1,$2,$3*
1,1,$1+$1,$4,$5*
1,1,$1+$1,$6,$7*
1,1,$1+$1,$8,$9*
0 Add four rect primitives between the rounded corners*
20,1,$1+$1,$2,$3,$4,$5,0*
20,1,$1+$1,$4,$5,$6,$7,0*
20,1,$1+$1,$6,$7,$8,$9,0*
20,1,$1+$1,$8,$9,$2,$3,0*%
%AMFreePoly0*
4,1,22,0.500000,-0.750000,0.000000,-0.750000,0.000000,-0.745033,-0.079941,-0.743568,-0.215256,-0.701293,-0.333266,-0.622738,-0.424486,-0.514219,-0.481581,-0.384460,-0.499164,-0.250000,-0.500000,-0.250000,-0.500000,0.250000,-0.499164,0.250000,-0.499963,0.256109,-0.478152,0.396186,-0.417904,0.524511,-0.324060,0.630769,-0.204165,0.706417,-0.067858,0.745374,0.000000,0.744959,0.000000,0.750000,
0.500000,0.750000,0.500000,-0.750000,0.500000,-0.750000,$1*%
%AMFreePoly1*
4,1,20,0.000000,0.744959,0.073905,0.744508,0.209726,0.703889,0.328688,0.626782,0.421226,0.519385,0.479903,0.390333,0.500000,0.250000,0.500000,-0.250000,0.499851,-0.262216,0.476331,-0.402017,0.414519,-0.529596,0.319384,-0.634700,0.198574,-0.708877,0.061801,-0.746166,0.000000,-0.745033,0.000000,-0.750000,-0.500000,-0.750000,-0.500000,0.750000,0.000000,0.750000,0.000000,0.744959,
0.000000,0.744959,$1*%
G04 Aperture macros list end*
%ADD10C,0.700000*%
%ADD11C,4.400000*%
%ADD12R,1.000000X1.000000*%
%ADD13R,2.000000X1.905000*%
%ADD14O,2.000000X1.905000*%
%ADD15R,1.700000X1.700000*%
%ADD16O,1.700000X1.700000*%
%ADD17R,1.650000X1.650000*%
%ADD18C,1.650000*%
%ADD19C,2.374900*%
%ADD20C,0.990600*%
%ADD21O,1.000000X1.000000*%
%ADD22C,1.700000*%
%ADD23C,3.500000*%
%ADD24C,1.800000*%
%ADD25C,4.125000*%
%ADD26C,2.000000*%
%ADD27RoundRect,0.243750X0.243750X0.456250X-0.243750X0.456250X-0.243750X-0.456250X0.243750X-0.456250X0*%
%ADD28R,2.000000X2.000000*%
%ADD29FreePoly0,180.000000*%
%ADD30FreePoly1,180.000000*%
%ADD31RoundRect,0.200000X0.200000X0.275000X-0.200000X0.275000X-0.200000X-0.275000X0.200000X-0.275000X0*%
%ADD32FreePoly0,90.000000*%
%ADD33FreePoly1,90.000000*%
%ADD34C,0.600000*%
%ADD35C,2.600000*%
%ADD36C,0.800000*%
%ADD37C,1.600000*%
G04 APERTURE END LIST*
D10*
%TO.C,H9*%
X62500000Y-61550000D03*
X61333274Y-58733274D03*
D11*
X62500000Y-59900000D03*
D10*
X62500000Y-58250000D03*
X64150000Y-59900000D03*
X63666726Y-58733274D03*
X60850000Y-59900000D03*
X63666726Y-61066726D03*
X61333274Y-61066726D03*
%TD*%
D12*
%TO.C,TP13*%
X135900000Y-128200000D03*
%TD*%
%TO.C,TP15*%
X150800000Y-128200000D03*
%TD*%
D13*
%TO.C,U5*%
X130993000Y-87376000D03*
D14*
X130993000Y-84836000D03*
X130993000Y-82296000D03*
%TD*%
D15*
%TO.C,J5*%
X86614000Y-113538000D03*
D16*
X84074000Y-113538000D03*
X81534000Y-113538000D03*
%TD*%
D12*
%TO.C,TP14*%
X143400000Y-128200000D03*
%TD*%
D13*
%TO.C,Q7*%
X140314800Y-87249000D03*
D14*
X140314800Y-84709000D03*
X140314800Y-82169000D03*
%TD*%
D10*
%TO.C,H1*%
X64633274Y-150733274D03*
X66966726Y-150733274D03*
X64633274Y-153066726D03*
X67450000Y-151900000D03*
D11*
X65800000Y-151900000D03*
D10*
X65800000Y-153550000D03*
X65800000Y-150250000D03*
X64150000Y-151900000D03*
X66966726Y-153066726D03*
%TD*%
D17*
%TO.C,U23*%
X61450000Y-65410000D03*
D18*
X61450000Y-67950000D03*
X61450000Y-70490000D03*
X61450000Y-73030000D03*
X61450000Y-75570000D03*
X61450000Y-78110000D03*
X61450000Y-80650000D03*
X61450000Y-83190000D03*
X74150000Y-83190000D03*
X74150000Y-80650000D03*
X74150000Y-78110000D03*
X74150000Y-75570000D03*
X74150000Y-73030000D03*
X74150000Y-70490000D03*
X74150000Y-67950000D03*
X74150000Y-65410000D03*
%TD*%
D19*
%TO.C,J2*%
X124630000Y-150650000D03*
D20*
X121074000Y-145570000D03*
D19*
X124630000Y-147475000D03*
X119550000Y-150650000D03*
D20*
X122090000Y-150650000D03*
D19*
X119550000Y-147475000D03*
D20*
X123106000Y-145570000D03*
%TD*%
D10*
%TO.C,H4*%
X150966726Y-150933274D03*
X148150000Y-152100000D03*
D11*
X149800000Y-152100000D03*
D10*
X149800000Y-153750000D03*
X148633274Y-153266726D03*
X150966726Y-153266726D03*
X151450000Y-152100000D03*
X149800000Y-150450000D03*
X148633274Y-150933274D03*
%TD*%
D12*
%TO.C,J4*%
X60430000Y-140350000D03*
D21*
X61700000Y-140350000D03*
X60430000Y-141620000D03*
X61700000Y-141620000D03*
X60430000Y-142890000D03*
X61700000Y-142890000D03*
X60430000Y-144160000D03*
X61700000Y-144160000D03*
X60430000Y-145430000D03*
X61700000Y-145430000D03*
X60430000Y-146700000D03*
X61700000Y-146700000D03*
X60430000Y-147970000D03*
X61700000Y-147970000D03*
X60430000Y-149240000D03*
X61700000Y-149240000D03*
%TD*%
D13*
%TO.C,Q10*%
X144526000Y-49149000D03*
D14*
X144526000Y-51689000D03*
X144526000Y-54229000D03*
%TD*%
D13*
%TO.C,Q6*%
X150317200Y-87477600D03*
D14*
X150317200Y-84937600D03*
X150317200Y-82397600D03*
%TD*%
D10*
%TO.C,H3*%
X92559274Y-65428726D03*
X95376000Y-64262000D03*
X94892726Y-65428726D03*
X92076000Y-64262000D03*
D11*
X93726000Y-64262000D03*
D10*
X93726000Y-62612000D03*
X93726000Y-65912000D03*
X92559274Y-63095274D03*
X94892726Y-63095274D03*
%TD*%
D15*
%TO.C,J1*%
X64240000Y-54377500D03*
D22*
X66740000Y-54377500D03*
X66740000Y-52377500D03*
X64240000Y-52377500D03*
D23*
X71510000Y-49667500D03*
X59470000Y-49667500D03*
%TD*%
D12*
%TO.C,TP10*%
X135900000Y-120100000D03*
%TD*%
%TO.C,TP11*%
X143200000Y-120300000D03*
%TD*%
%TO.C,TP12*%
X150600000Y-120300000D03*
%TD*%
D24*
%TO.C,J3*%
X134565000Y-72910000D03*
X134565000Y-68910000D03*
X134565000Y-64910000D03*
X134565000Y-60910000D03*
X132065000Y-72910000D03*
X132065000Y-68910000D03*
X132065000Y-64910000D03*
X132065000Y-60910000D03*
X129565000Y-72910000D03*
X129565000Y-68910000D03*
X129565000Y-64910000D03*
X129565000Y-60910000D03*
X127065000Y-72910000D03*
X127065000Y-68910000D03*
X127065000Y-64910000D03*
X127065000Y-60910000D03*
X124565000Y-72910000D03*
X124565000Y-68910000D03*
X124565000Y-64910000D03*
X124565000Y-60910000D03*
X122065000Y-72910000D03*
X122065000Y-68910000D03*
X122065000Y-64910000D03*
X122065000Y-60910000D03*
X119565000Y-72910000D03*
X119565000Y-68910000D03*
X119565000Y-64910000D03*
X119565000Y-60910000D03*
X117065000Y-72910000D03*
X117065000Y-68910000D03*
X117065000Y-64910000D03*
X117065000Y-60910000D03*
X114565000Y-72910000D03*
X114565000Y-68910000D03*
X114565000Y-64910000D03*
X114565000Y-60910000D03*
X112065000Y-72910000D03*
X112065000Y-68910000D03*
X112065000Y-64910000D03*
X112065000Y-60910000D03*
X108565000Y-72910000D03*
X108565000Y-68910000D03*
X108565000Y-64910000D03*
X108565000Y-60910000D03*
X105065000Y-72910000D03*
X105065000Y-68910000D03*
X105065000Y-64910000D03*
X105065000Y-60910000D03*
D25*
X138765000Y-63910000D03*
X100665000Y-63910000D03*
%TD*%
D26*
%TO.C,TP2*%
X73900000Y-135900000D03*
%TD*%
D27*
%TO.C,F14*%
X126362700Y-56946800D03*
X124487700Y-56946800D03*
%TD*%
D10*
%TO.C,H2*%
X151915726Y-50649274D03*
X150749000Y-53466000D03*
X152399000Y-51816000D03*
X151915726Y-52982726D03*
D11*
X150749000Y-51816000D03*
D10*
X149582274Y-52982726D03*
X150749000Y-50166000D03*
X149099000Y-51816000D03*
X149582274Y-50649274D03*
%TD*%
D12*
%TO.C,TP23*%
X95758000Y-126746000D03*
%TD*%
D27*
%TO.C,F12*%
X126413500Y-48006000D03*
X124538500Y-48006000D03*
%TD*%
%TO.C,F1*%
X119045200Y-54737000D03*
X117170200Y-54737000D03*
%TD*%
D12*
%TO.C,TP5*%
X81390000Y-75568400D03*
%TD*%
%TO.C,TP29*%
X95758000Y-120523000D03*
%TD*%
%TO.C,TP28*%
X95758000Y-118491000D03*
%TD*%
%TO.C,TP20*%
X101346000Y-124460000D03*
%TD*%
%TO.C,TP7*%
X81540000Y-78968400D03*
%TD*%
D28*
%TO.C,TP19*%
X120457400Y-130178800D03*
%TD*%
D12*
%TO.C,TP9*%
X77089000Y-105537000D03*
%TD*%
D29*
%TO.C,JP3*%
X65450000Y-73900000D03*
D30*
X64150000Y-73900000D03*
%TD*%
D27*
%TO.C,F7*%
X131442700Y-54711600D03*
X129567700Y-54711600D03*
%TD*%
D29*
%TO.C,JP2*%
X65450000Y-66100000D03*
D30*
X64150000Y-66100000D03*
%TD*%
D31*
%TO.C,R18*%
X149161000Y-90932000D03*
X147511000Y-90932000D03*
%TD*%
D27*
%TO.C,F3*%
X119047500Y-56896000D03*
X117172500Y-56896000D03*
%TD*%
%TO.C,F11*%
X137132300Y-56946800D03*
X135257300Y-56946800D03*
%TD*%
D28*
%TO.C,TP18*%
X69150000Y-91550000D03*
%TD*%
D12*
%TO.C,TP3*%
X87249000Y-56896000D03*
%TD*%
%TO.C,TP6*%
X77724000Y-56769000D03*
%TD*%
D26*
%TO.C,TP1*%
X82800000Y-117400000D03*
%TD*%
D32*
%TO.C,JP4*%
X134620000Y-88026000D03*
D33*
X134620000Y-86726000D03*
%TD*%
D27*
%TO.C,F8*%
X131442700Y-52578000D03*
X129567700Y-52578000D03*
%TD*%
D12*
%TO.C,TP24*%
X115697000Y-120523000D03*
%TD*%
%TO.C,TP25*%
X115697000Y-122555000D03*
%TD*%
D29*
%TO.C,JP1*%
X65450000Y-70000000D03*
D30*
X64150000Y-70000000D03*
%TD*%
D27*
%TO.C,F10*%
X137132300Y-54914800D03*
X135257300Y-54914800D03*
%TD*%
D12*
%TO.C,TP27*%
X115697000Y-126619000D03*
%TD*%
D27*
%TO.C,F4*%
X137335500Y-49784000D03*
X135460500Y-49784000D03*
%TD*%
D12*
%TO.C,TP26*%
X115697000Y-124587000D03*
%TD*%
D27*
%TO.C,F5*%
X131442700Y-56896000D03*
X129567700Y-56896000D03*
%TD*%
%TO.C,F6*%
X119047500Y-49784000D03*
X117172500Y-49784000D03*
%TD*%
D12*
%TO.C,TP4*%
X83465000Y-75568400D03*
%TD*%
D27*
%TO.C,F9*%
X119047500Y-52070000D03*
X117172500Y-52070000D03*
%TD*%
D12*
%TO.C,TP22*%
X101346000Y-126492000D03*
%TD*%
D27*
%TO.C,F13*%
X126362700Y-52425600D03*
X124487700Y-52425600D03*
%TD*%
D12*
%TO.C,TP21*%
X95758000Y-124587000D03*
%TD*%
%TO.C,TP8*%
X81540000Y-82368400D03*
%TD*%
%TO.C,TP30*%
X95758000Y-122555000D03*
%TD*%
D27*
%TO.C,F2*%
X137335500Y-47498000D03*
X135460500Y-47498000D03*
%TD*%
D34*
X150100000Y-115100000D03*
X110125000Y-138075000D03*
X128300000Y-125300000D03*
X67818000Y-120904000D03*
D35*
X92964000Y-109220000D03*
D34*
X86360000Y-91694000D03*
X82499200Y-62128400D03*
D36*
X68650000Y-107300000D03*
D34*
X69150000Y-87550000D03*
D10*
X89050000Y-129400000D03*
D34*
X80300000Y-118700000D03*
D37*
X107315000Y-121412000D03*
X104267000Y-124333000D03*
D36*
X77600000Y-95000000D03*
D34*
X92000000Y-137400000D03*
D35*
X150368000Y-93726000D03*
D37*
X107315000Y-124333000D03*
D34*
X66548000Y-124550000D03*
D10*
X82550000Y-50673000D03*
D34*
X65300000Y-132400000D03*
X63550000Y-87450000D03*
X143100000Y-104000000D03*
X78250000Y-81250000D03*
D10*
X71750000Y-144205002D03*
X128400000Y-151000000D03*
D34*
X78000000Y-79250000D03*
D10*
X115214400Y-115214400D03*
X97500000Y-117000000D03*
D34*
X88250000Y-133950000D03*
D10*
X82550000Y-47117000D03*
D34*
X105100000Y-150600000D03*
X69850000Y-119380000D03*
X84250000Y-119400000D03*
X137800000Y-116500000D03*
X71650000Y-121950000D03*
X128750000Y-117750000D03*
D36*
X79248000Y-112268000D03*
D34*
X79535500Y-120427825D03*
X130750000Y-137850000D03*
X86741000Y-80899000D03*
X124500000Y-114500000D03*
X65850000Y-94250000D03*
D10*
X148844000Y-80010000D03*
X151398500Y-64516000D03*
X96799400Y-129463800D03*
D34*
X124900000Y-125300000D03*
X115600000Y-137450000D03*
D35*
X150368000Y-101346000D03*
D34*
X82499200Y-65938400D03*
D10*
X115951000Y-129514600D03*
D34*
X125450000Y-145900000D03*
X94742000Y-90170000D03*
X85471000Y-76581000D03*
X133300000Y-137800000D03*
D37*
X104140000Y-121412000D03*
D34*
X68199000Y-123698000D03*
D37*
X131318000Y-95852000D03*
D34*
X97917000Y-125163100D03*
X79189500Y-137287000D03*
X95758000Y-126746000D03*
X79862247Y-136952085D03*
X81153000Y-140208000D03*
X95758000Y-124587000D03*
X78486000Y-138430000D03*
X98171000Y-123952000D03*
X66050000Y-127750000D03*
X104063800Y-119995540D03*
D37*
X131292600Y-105460800D03*
D34*
X68800000Y-132000000D03*
X145800000Y-134900000D03*
D36*
X84000000Y-94250000D03*
D37*
X77900000Y-124200000D03*
D34*
X75901569Y-123698431D03*
X112050000Y-145650000D03*
X126850000Y-136250000D03*
D36*
X83108800Y-85877400D03*
D34*
X71850000Y-128750000D03*
X72650000Y-126350000D03*
X76049517Y-141700483D03*
D37*
X90297000Y-131191000D03*
D36*
X62000000Y-108350000D03*
D34*
X111900000Y-150400000D03*
X84350000Y-122400000D03*
X67000000Y-135900000D03*
X98500000Y-122572300D03*
X75350000Y-107061000D03*
X86404000Y-106807000D03*
X69469000Y-125476000D03*
X65300000Y-129700000D03*
X69429000Y-111643600D03*
X123600000Y-148761049D03*
D36*
X86824104Y-135751402D03*
X85872633Y-135743739D03*
D34*
X86100000Y-137400000D03*
X80201569Y-127998431D03*
X86192352Y-138207648D03*
X88096235Y-128396235D03*
X90050000Y-138594980D03*
X88400902Y-142848798D03*
X82800000Y-117400000D03*
X74000000Y-136000000D03*
X60092352Y-81192352D03*
X70404112Y-79400000D03*
X82550000Y-139827000D03*
X117475000Y-124333000D03*
X83197754Y-140208011D03*
X115697000Y-124587000D03*
X115697000Y-126619000D03*
X81997567Y-140518480D03*
D10*
X71400000Y-139600000D03*
D34*
X106800000Y-132300000D03*
D10*
X63600000Y-140300000D03*
X103734179Y-117509665D03*
X104775000Y-92837000D03*
X102870000Y-127254000D03*
X101714500Y-113971980D03*
X106172000Y-93082500D03*
X108839000Y-118745000D03*
D34*
X82900000Y-123800000D03*
X82350000Y-123150000D03*
X82020148Y-122420148D03*
X80700000Y-121700000D03*
X81600000Y-127300000D03*
X107700000Y-141423500D03*
X105800000Y-140850000D03*
X80700000Y-127000000D03*
D36*
X85497897Y-136623500D03*
D10*
X113665000Y-115443000D03*
X113284000Y-127127000D03*
D34*
X76903500Y-116967000D03*
X151348500Y-63100000D03*
X139600000Y-125500000D03*
X146900000Y-125400000D03*
X136300000Y-131900000D03*
D37*
X151850000Y-118950000D03*
D36*
X150700000Y-124000000D03*
D34*
X144000000Y-124800000D03*
X127909000Y-129802000D03*
X133300000Y-132400000D03*
X139400000Y-123000000D03*
D10*
X99339400Y-126746000D03*
X93250000Y-96500000D03*
D34*
X117475000Y-123282300D03*
X81603902Y-139606798D03*
X99750000Y-117250000D03*
D10*
X93000000Y-82750000D03*
D36*
X115800000Y-116500000D03*
X123190000Y-92837000D03*
D34*
X73492352Y-125707648D03*
X77000000Y-105600000D03*
D36*
X114222989Y-126559288D03*
X119888000Y-105283000D03*
D34*
X81407675Y-134657675D03*
D10*
X148370738Y-73773870D03*
D34*
X87017352Y-143332648D03*
X106750000Y-136350000D03*
X82169000Y-134366000D03*
X102792352Y-138142352D03*
X87950000Y-143450000D03*
D10*
X147603918Y-74144065D03*
D34*
X89250000Y-127322500D03*
X79576500Y-135750000D03*
X79121316Y-141561662D03*
X115062000Y-127762000D03*
X80518000Y-141351000D03*
X95758000Y-122555000D03*
X92800000Y-132450000D03*
X73279000Y-141300000D03*
X94550000Y-133000000D03*
X96750000Y-119500000D03*
X94150000Y-132150000D03*
X81280000Y-141571500D03*
X95758000Y-120523000D03*
X124250000Y-96000000D03*
X124250000Y-113000000D03*
X125766000Y-127207000D03*
D36*
X120432000Y-130255000D03*
D34*
X135700000Y-142900000D03*
X101092000Y-83820000D03*
X100500000Y-90250000D03*
X100250000Y-110500000D03*
D35*
X98850000Y-96335500D03*
D34*
X105918000Y-108839000D03*
X98171000Y-104775000D03*
D35*
X117100000Y-96335500D03*
D34*
X79502000Y-61722000D03*
X85344000Y-61722000D03*
X77300000Y-49800000D03*
X66800000Y-108000000D03*
X115824000Y-52324000D03*
D37*
X110490000Y-116459000D03*
X110490000Y-129667000D03*
D34*
X122100000Y-128000000D03*
X136102500Y-109400000D03*
D36*
X148144220Y-54766280D03*
X145677500Y-72263000D03*
D10*
X137795000Y-92710000D03*
D34*
X122200000Y-122700000D03*
D10*
X68200000Y-136200000D03*
D34*
X68776500Y-137000000D03*
X69600000Y-137200000D03*
D36*
X141000000Y-106750000D03*
X140716000Y-93472000D03*
X141300000Y-114300000D03*
D34*
X137100000Y-143350000D03*
D36*
X142000000Y-107500000D03*
X141732000Y-91948000D03*
D34*
X142500000Y-106123500D03*
X143000000Y-108250000D03*
D36*
X119924000Y-135716000D03*
X125004000Y-129620000D03*
D34*
X89000000Y-76500000D03*
D36*
X76400000Y-85200000D03*
D34*
X68000000Y-104700000D03*
X76526704Y-124243018D03*
X82748457Y-128966188D03*
X81540000Y-78968400D03*
X86156800Y-72237600D03*
X79756000Y-69545200D03*
X84836000Y-57150000D03*
X79502000Y-58039000D03*
X75691720Y-118585582D03*
D10*
X148500000Y-62450000D03*
X147250000Y-62300000D03*
D34*
X74847710Y-118578942D03*
D10*
X146450000Y-62600000D03*
D34*
X74642500Y-117856000D03*
D10*
X146287511Y-75819000D03*
D34*
X72416408Y-119735805D03*
X72771000Y-120523000D03*
D10*
X146939011Y-74676000D03*
D34*
X76600000Y-137300000D03*
X96700000Y-143100000D03*
X76400000Y-136300000D03*
X100450000Y-142900000D03*
X105050000Y-142998500D03*
X75800000Y-135600000D03*
D37*
X100965000Y-116205000D03*
X101092000Y-129413000D03*
D34*
X80010000Y-92583000D03*
X70350000Y-89700000D03*
X61700000Y-94000000D03*
X82550000Y-92456000D03*
D36*
X137668000Y-103632000D03*
D10*
X144780000Y-45339000D03*
D34*
X68707000Y-125857000D03*
D36*
X141986000Y-45466000D03*
X144591284Y-126711019D03*
X134400000Y-131400000D03*
X136257569Y-74072431D03*
X144550000Y-122600000D03*
X145600000Y-120300000D03*
D34*
X137423500Y-120143003D03*
X127400000Y-122100000D03*
D36*
X136594044Y-75933277D03*
X138255216Y-71994784D03*
X152000000Y-129200000D03*
D34*
X120904000Y-52705000D03*
X138684000Y-47498000D03*
X121666000Y-53975000D03*
X139827000Y-47752000D03*
X134112000Y-54864000D03*
X120650000Y-50038000D03*
X133096000Y-54864000D03*
X132588000Y-53966500D03*
X120904000Y-51562000D03*
X138176000Y-54991000D03*
X138684000Y-55880000D03*
X128524000Y-48006000D03*
X126492000Y-53594000D03*
X127254000Y-54610000D03*
X138400000Y-143400000D03*
X130900000Y-132800000D03*
X134650000Y-138250000D03*
X117000000Y-111750000D03*
X79374997Y-97025003D03*
X133250000Y-117250000D03*
X138050000Y-134900000D03*
X69150000Y-91550000D03*
X144400000Y-137300000D03*
X144800000Y-132800000D03*
X125639000Y-132541000D03*
X131900000Y-133100000D03*
D36*
X86893400Y-78282800D03*
D34*
X138900000Y-123800000D03*
X117350000Y-145850000D03*
X149400000Y-127426500D03*
X140450000Y-141400000D03*
D36*
X82042000Y-98044000D03*
D34*
X139400000Y-131500000D03*
X151100000Y-135000000D03*
X148900000Y-119700000D03*
X132200000Y-146100000D03*
X125131000Y-135208000D03*
X131700000Y-123200000D03*
D37*
X124300000Y-119350000D03*
D34*
X135300000Y-125700000D03*
X123850000Y-142450000D03*
X132150000Y-143850000D03*
X125500000Y-120481500D03*
X90150000Y-122900000D03*
X81540000Y-82368400D03*
X69150000Y-104650000D03*
X79693000Y-84455000D03*
X129200000Y-143250000D03*
X123900000Y-141300000D03*
X134600000Y-143350000D03*
X127750000Y-142500000D03*
X122000000Y-141050000D03*
X86450000Y-121350000D03*
X87048500Y-122350000D03*
X125600000Y-141150000D03*
X88223500Y-123000000D03*
X129500000Y-141300000D03*
X66770872Y-128179128D03*
X148700000Y-136050000D03*
M02*
